<?xml version="1.0" encoding="UTF-8"?>
<!-- Generated by Pixelmator Pro 3.1.1 -->
<svg width="1944" height="1944" viewBox="0 0 1944 1944" xmlns="http://www.w3.org/2000/svg" xmlns:xlink="http://www.w3.org/1999/xlink">
    <g id="Group">
        <path id="Path-copy-3" fill="#95a5a6" stroke="none" d="M 405 122.001953 C 315.527405 122.001953 243 194.903931 243 284.001953 L 243 932.002014 L 243 1256.001953 L 243 1742.001953 C 243 1831.099976 315.527405 1904.001953 405 1904.001953 L 1539 1904.001953 C 1628.505005 1904.001953 1701 1831.099976 1701 1742.001953 L 1701 1256.001953 L 1701 932.002014 L 1701 608.001953 L 1215 122.001953 L 405 122.001953 Z"/>
        <path id="Path-copy-2" fill="#bdc3c7" stroke="none" d="M 405 41.001953 C 315.527405 41.001953 243 113.903931 243 203.001953 L 243 851.001953 L 243 1175.001953 L 243 1661.001953 C 243 1750.099976 315.527405 1823.001953 405 1823.001953 L 1539 1823.001953 C 1628.505005 1823.001953 1701 1750.099976 1701 1661.001953 L 1701 1175.001953 L 1701 851.001953 L 1701 527.001953 L 1215 41.001953 L 405 41.001953 Z"/>
        <path id="Path-copy" fill="#95a5a6" stroke="none" d="M 1701 527.001953 L 1215 41.001953 L 1215 365.001953 C 1215 454.099976 1287.494995 527.001953 1377 527.001953 L 1701 527.001953 Z"/>
        <path id="Path" fill="#f39c12" stroke="none" d="M 405 589 L 1539 589 L 1539 1723 L 405 1723 Z"/>
        <path id="path1" fill="#f1c40f" stroke="none" d="M 1296 1399 C 1296 1577.940186 1150.940308 1723 972 1723 C 793.059753 1723 648 1577.940186 648 1399 C 648 1220.059814 793.059753 1075 972 1075 C 1150.940308 1075 1296 1220.059814 1296 1399 Z"/>
        <path id="path2" fill="#3498db" stroke="none" d="M 405 1480.001953 L 1539 1480.001953 L 1539 1723.001953 L 405 1723.001953 Z"/>
    </g>
</svg>
