<?xml version="1.0" encoding="UTF-8"?>
<!-- Generated by Pixelmator Pro 3.1.1 -->
<svg width="512" height="420" viewBox="0 0 512 420" xmlns="http://www.w3.org/2000/svg" xmlns:xlink="http://www.w3.org/1999/xlink">
    <path id="Path" fill="#000000" fill-rule="evenodd" stroke="none" d="M 74.320313 420 C 33.440353 420 0 386.519684 0 345.679688 L 0 74.150391 C 0 33.240417 33.410355 -0.169922 74.320313 -0.169922 L 437.679688 -0.169922 C 478.549652 -0.169922 512 33.290436 512 74.150391 L 512 345.679688 C 512 386.499664 478.499664 420 437.679688 420 L 74.320313 420 Z M 343.707031 275.435547 C 351.95108 275.435547 358.553925 275.244934 363.515625 274.863281 C 368.477325 274.481628 374.23999 273.374969 380.804688 271.542969 C 387.369385 269.710938 392.445496 267.075653 396.033203 263.640625 C 399.62088 260.205627 402.713226 255.168381 405.308594 248.527344 C 407.903931 241.886307 409.201172 233.756699 409.201172 224.138672 C 409.201172 210.703949 405.385315 200.209381 397.751953 192.652344 C 390.118561 185.095306 376.302124 180.324509 356.302734 178.339844 L 339.814453 176.736328 L 339.814453 165.515625 C 345.768494 164.752289 353.018982 164.369141 361.568359 164.369141 C 370.117737 164.369141 381.491394 165.514679 395.689453 167.804688 L 401.414063 131.164063 C 385.078674 127.347382 366.759827 125.439453 346.455078 125.439453 C 326.15036 125.439453 311.762085 129.103607 303.289063 136.431641 C 294.81601 143.759674 290.578125 157.194946 290.578125 176.736328 C 290.578125 190.934387 294.051666 201.658447 300.998047 208.910156 C 307.944397 216.16185 320.730072 220.627289 339.355469 222.306641 L 359.966797 224.138672 L 359.966797 235.589844 C 353.096771 236.505844 344.051147 236.962891 332.830078 236.962891 C 321.609009 236.962891 308.975098 235.206665 294.929688 231.695313 L 288.517578 269.480469 C 305.463623 273.449829 323.860291 275.435547 343.707031 275.435547 Z M 102.798828 272 L 150.660156 272 L 153.408203 202.613281 L 154.78125 202.613281 L 172.414063 272 L 207.451172 272 L 224.855469 202.613281 L 226.458984 202.613281 L 229.207031 272 L 277.068359 272 L 268.365234 128.875 L 208.597656 128.875 L 190.734375 201.697266 L 189.132813 201.697266 L 171.269531 128.875 L 111.501953 128.875 L 102.798828 272 Z"/>
</svg>
