<svg xmlns="http://www.w3.org/2000/svg" shape-rendering="geometricPrecision" text-rendering="geometricPrecision" image-rendering="optimizeQuality" fill-rule="evenodd" clip-rule="evenodd" viewBox="0 0 512 512"><g fill-rule="nonzero"><path fill="#4D4D4D" d="M256 0c70.684 0 134.689 28.664 181.012 74.988C483.336 121.311 512 185.316 512 256s-28.664 134.689-74.988 181.013C390.689 483.336 326.684 512 256 512c-70.676 0-134.689-28.664-181.013-74.987C28.664 390.689 0 326.676 0 256c0-70.684 28.664-134.689 74.987-181.012C121.311 28.664 185.316 0 256 0z"/><path fill="#fff" d="M256.001 19.597c65.278 0 124.383 26.466 167.162 69.242 42.777 42.78 69.242 101.884 69.242 167.162S465.94 380.384 423.16 423.16c-42.776 42.78-101.881 69.246-167.159 69.246-65.278 0-124.382-26.466-167.162-69.243-42.776-42.779-69.242-101.884-69.242-167.162S46.063 131.619 88.839 88.839c42.78-42.776 101.884-69.242 167.162-69.242z"/><path fill="#CE1126" d="M364.98 442.99V69.01c64.253 37.527 107.428 107.213 107.428 186.991 0 79.779-43.175 149.461-107.428 186.989z"/><path fill="#FCD116" d="M364.98 69.01v373.98c-32.005 18.693-69.24 29.418-108.979 29.418-39.73 0-76.953-10.719-108.954-29.403V68.995c32.001-18.684 69.224-29.4 108.954-29.4 39.739 0 76.974 10.719 108.979 29.415z"/><path fill="#14B53A" d="M147.047 68.995v374.01C82.781 405.48 39.595 335.789 39.595 256.001c0-79.79 43.186-149.481 107.452-187.006z"/></g></svg>