<svg xmlns="http://www.w3.org/2000/svg" shape-rendering="geometricPrecision" text-rendering="geometricPrecision" image-rendering="optimizeQuality" fill-rule="evenodd" clip-rule="evenodd" viewBox="0 0 512 420.16"><path d="M74.31 0h363.38C478.59 0 512 33.41 512 74.31v271.54c0 40.9-33.41 74.31-74.31 74.31H74.31C33.41 420.16 0 386.75 0 345.85V74.31C0 33.41 33.41 0 74.31 0zm97.23 219.52v63.39h-46.61V137.25h46.61v59.43h.93l25.17-59.43h50.34l-34.96 71.55 36.12 74.11H198.8l-26.33-63.39h-.93zm84.59-9.32c0-26.57 4.97-45.95 14.91-58.15 9.95-12.19 27.9-18.29 53.84-18.29 25.95 0 43.89 6.1 53.84 18.29 9.94 12.2 14.91 31.58 14.91 58.15 0 13.2-1.05 24.31-3.15 33.33-2.09 9.01-5.71 16.85-10.83 23.53-5.13 6.68-12.2 11.58-21.21 14.69-9.01 3.1-20.2 4.65-33.56 4.65-13.36 0-24.54-1.55-33.55-4.65-9.02-3.11-16.09-8.01-21.22-14.69-5.12-6.68-8.74-14.52-10.83-23.53-2.1-9.02-3.15-20.13-3.15-33.33zm50.1-24.24v60.6h19.35c6.37 0 10.99-.74 13.86-2.22 2.88-1.48 4.32-4.85 4.32-10.14v-60.59h-19.58c-6.21 0-10.76.74-13.63 2.22-2.88 1.47-4.32 4.85-4.32 10.13z"/></svg>