<svg xmlns="http://www.w3.org/2000/svg" shape-rendering="geometricPrecision" text-rendering="geometricPrecision" image-rendering="optimizeQuality" fill-rule="evenodd" clip-rule="evenodd" viewBox="0 0 512 512"><g fill-rule="nonzero"><path fill="#4D4D4D" d="M256 0c70.683 0 134.689 28.663 181.012 74.987C483.336 121.311 512 185.316 512 256c0 70.683-28.664 134.689-74.988 181.012C390.689 483.336 326.683 512 256 512c-70.677 0-134.689-28.664-181.013-74.988C28.663 390.689 0 326.676 0 256c0-70.684 28.663-134.689 74.987-181.013C121.311 28.663 185.316 0 256 0z"/><path fill="#fff" d="M256.001 19.596c65.278 0 124.383 26.467 167.162 69.243 42.777 42.78 69.243 101.884 69.243 167.162S465.94 380.384 423.16 423.16c-42.776 42.78-101.881 69.246-167.159 69.246-65.278 0-124.382-26.466-167.162-69.243-42.776-42.779-69.243-101.884-69.243-167.162S46.063 131.619 88.839 88.839c42.78-42.776 101.884-69.243 167.162-69.243z"/><path fill="#ED1C24" d="M256.001 39.594c80.009 0 149.869 43.427 187.319 107.987H68.682C106.13 83.021 175.989 39.594 256.001 39.594zm187.216 325.002c-37.474 64.465-107.278 107.812-187.216 107.812S106.257 429.061 68.785 364.596h374.432z"/><path fill="#00A651" d="M253.052 147.58c-4.658 9.809-13.431 16.665-21.815 23.153-1.38 1.204-4.809 3.537-2.321 5.313 2.132-2.382 7.982.773 4.582 3.335-3.046 2.85-7.239 3.894-10.621 6.247-2.995 1.627-6.033 3.326-8.408 5.816-.162 3.892 4.828 1.738 6.852 3.359 2.637 2.818-1.117 7.571-4.578 6.484-4.424.136-7.48 4.029-9.153 7.743-3.461 5.352-10.019 6.937-15.242 9.983a100.559 100.559 0 00-8.666 5.7c-3.586 2.452-.467 7.306 3.349 6.115 4.118-.411 7.823-3.647 12.088-2.714 3.866 1.358 4.951 6.412 3.634 9.941-.977 2.825-3.342 4.815-5.237 7.021-3.076 3.117-7.1 5.14-11.343 6.105-4.099 1.377-7.785 3.888-10.474 7.28-3.121 3.142-6.23 6.335-9.818 8.955-1.134 2.892 2.065 5.356 4.731 5.279 5.619-.355 9.513-4.952 14.298-7.316 3.971-1.784 8.644 2.496 7.673 6.632-.308 4.025-4.076 6.067-7.426 7.306-9.849 4.951-18.4 12.131-25.994 20.052-1.57 3.204-5.888 2.261-8.212 4.494-1.514 2.826 2.286 4.316 4.554 4.026 9.744-1.172 18.837-5.291 27.45-9.823 3.204-1.531 6.211-3.546 9.542-4.767 3.128-.773 7.49.586 8.049 4.147-.004 3.759-3.728 5.84-6.676 7.308-9.093 4.778-19.072 7.419-28.791 10.577-3.639-1.017-6.38 5.457-2.389 6.621 4.221 1.447 8.708.286 13.025.097 13.35-2.046 25.026-9.269 37.504-13.939 5.188-1.691 11.312.669 13.872 5.53 2.573 4.333 2.337 10.032-.376 14.242-4.288 9.174-10.808 17.605-19.559 22.88-5.494 2.72-11.906 3.761-16.615 7.924-4.354 1.436 2.184 7.32 3.129 2.65 2.616-3.569 7.231-4.636 11.417-4.783 6.291-.685 12.972-1.845 17.86-6.2 4.383-3.404 8.702-8.098 14.652-8.171 3.289.389 6.542 3.032 9.882 1.42 2.922-1.339 7.506-.554 8.27 3.039 1.395 4.203 5.727 6.116 9.163 8.365 1.244 1.746 5.376 6.25 6.328 2.279-.768-2.832.331-7.166 4.046-6.22 3.245.145 6.338 1.342 9.577 1.538 4.313.894 7.911 3.847 10.36 7.412 1.685 2.327 5.376 6.325 8.118 3.239 1.702-3.19-1.546-5.852-4.191-6.991-3.856-2.389-7.152-5.572-10.524-8.584-4.969-4.642-9.261-10.545-10.05-17.478-1.07-6.912-.506-13.962.395-20.857 1.136-4.437 6.812-6.861 10.78-4.502 5.584 2.547 11.13 6.193 17.532 5.798 9.251.199 18.757-1.571 27.797 1.108 8.798 2.772 15.088 10.196 23.657 13.408 1.919 1.166 4.373.057 5.076-1.992.85-1.841.25-4.196-1.524-5.246-9.932-10.026-23.505-14.896-34.997-22.729-3.618-.919-4.277-6.74-.932-8.421 4.397-3.195 10.619-1.707 14.52 1.587 3.294 1.929 7.006 3.375 10.871 3.378 3.959-1.238 2.04-6.967-1.505-7.398-6.423-3.627-11.023-9.578-16.588-14.294-3.205-2.713-6.711-5.46-11.017-5.986-2.353-.429-4.76-.522-7.145-.363-2.237-2.43.743-6.152 3.635-5.848 2.968.2 5.918.421 8.882.008 3.312-.243 6.621-.585 9.944-.608 2.683 1.826 8.045-1.329 5.623-4.479-2.645-2.318-6.47-2.117-9.631-3.306a150.037 150.037 0 00-16.923-4.452c-4.003-.239-3.509-5.507.009-6.088 2.302-.859 4.304.91 6.514 1.184 3.775.811 7.672.8 11.444 1.623 3.2-1.579.726-6.252-2.167-6.525-6.828-2.441-12.728-6.847-18.497-11.135-6.369-4.789-12.147-10.328-18.594-15.008-2.339-1.449-6.173-1.866-6.788-5.078-.217-2.956 3.261-4.302 5.727-3.611 3.499 1.033 6.759 2.832 10.325 3.716 2.797.476 5.682 1.303 8.378.951 3.423-2.151-1.468-3.526-3.238-4.272-4.564-2.462-8.619-5.74-12.727-8.869-3.47-2.962 2.945-4.271 5.151-3.13 3.689 1.543 4.11-3.832 1.352-5.185-3.25-1.382-6.043-3.675-8.989-5.676-5.325-3.789-11.354-6.789-17.897-7.622-7.338-.737-14.186-4.956-18.079-11.231-2.413-3.576-4.185-7.53-5.897-11.474l-.003.003zm-24.094 41.162c3.781.112 3.2 6.927-.523 6.472-3.616-.232-3.394-7.205.523-6.472zm35.669 3.67c3.68-.658 4.459 6.056.783 6.372-3.831.685-5.25-6.797-.783-6.372zm-10.447.875c3.731.734 3.067 7.233-.698 7.289-2.755.613-5.724 2.493-8.51 1.085-2.267-2.397 1.009-5.941 3.539-6.72 1.94-.391 3.725-1.272 5.668-1.654h.001zm24.044.029c3.595 1.31 2.327 7.656-1.465 7.576-3.586.48-5.256-5.502-1.912-6.92 1.082-.384 2.217-.707 3.377-.656zm-40.561 7.198c2.644 2.516 1.083 7.371-2.177 8.532-2.349 1.306-5.552 4.398-8.111 1.854-1.389-3.107 2.097-5.447 4.147-7.171 1.829-1.423 3.848-2.714 6.141-3.215zm30.19 14.031c3.785 1.787 1.864 8.608-2.29 8.184-3.411-.864-2.966-6.716.47-7.182.65-.249 1.245-.615 1.82-1.002zm-12.008.678c3.539 1.657.836 7.564-2.729 6.713-3.697-.434-3.629-6.933.448-6.347.768-.037 1.561-.057 2.281-.366zm25.887 3.388c3.879-1.204 8.55 2.792 7.292 6.846-1.73 3.143-6.005 3.54-9.068 2.366-3.517-.174-5.882-5.461-2.749-7.7 1.296-.979 2.93-1.382 4.525-1.512zm-57.307 1.016c3.209-1.745 6.614 3.5 3.886 5.814-1.807 2.656-6.447 3.742-8.493.788-1.7-2.886 1.049-7.734 4.608-6.602h-.001zm-14.8 2.484c3.638.498 6.01 3.803 7.355 6.951.328 3.835-5.332 5.939-7.8 3.149-2.776-1.742-5.206-5.323-3.75-8.647.897-1.32 2.683-1.865 4.195-1.453zm88.546 13.862c3.95-1.04 6.816 5.271 3.425 7.554-3.1 2.816-9.129-.914-7.511-4.933.802-1.49 2.411-2.48 4.087-2.621h-.001zm-50.265 7.199c3.312.422 2.239 6.162-.823 5.968-3.286-.609-2.534-6.291.823-5.968zm-16.797 3.049c2.7-1.911 6.184 2.754 3.937 4.926-2.693 1.897-6.185-2.692-3.937-4.926zm26.707.565c3.131 1.903 4.989 5.449 5.378 9.028-1.5 3.344-7.295 2.538-7.948-1.023-1.145-2.816-.09-6.438 2.57-8.004v-.001zm9.321 5.534c4.034-1.014 2.586 7.419-.782 4.494-1.12-1.33-.52-3.517.781-4.494h.001zm-58.536 5.871c2.671-.782 6.565.041 7.303 3.106.311 2.881-2.858 4.38-5.18 5.094-3.72 1.149-7.36 3.035-11.361 2.781-3-1.714-4.076-5.223-5.146-8.282 2.894-2.715 7.158-1.918 10.746-2.598a83.258 83.258 0 013.638-.101zm90.799 13.213c3.407-1.671 7.072 3.739 4.22 6.265-3.568 4.107-10.438 4.87-14.706 1.42-.513-3.635 3.118-6.275 6.344-6.797 1.356-.383 2.704-.955 4.142-.888zm19.153 4.15c3.872-.666 6.922 4.857 4.157 7.716-2.617 3.946-8.858 4.98-12.425 1.746-1.391-3.271 1.43-6.68 4.434-7.729 1.291-.55 2.513-1.254 3.834-1.733zm-96.304 5.873c3.586-.355 6.87 3.203 6.4 6.738 2.596 2.554-2.001 7.314-4.587 4.668-2.278-2.761-2.267-6.507-3.15-9.812-.04-.734.505-1.685 1.337-1.594zm27.526 2.061c3.707-1.603 8.504 2.832 6.485 6.586-1.441 3.058-7.062 2.033-6.876-1.509-.009-1.695-.146-3.432.391-5.078v.001zm-13.391 2.399c3.716-.852 7.127 3.967 5.061 7.181-3.706.33-5.629-4.068-5.061-7.181z"/></g></svg>