<svg xmlns="http://www.w3.org/2000/svg" shape-rendering="geometricPrecision" text-rendering="geometricPrecision" image-rendering="optimizeQuality" fill-rule="evenodd" clip-rule="evenodd" viewBox="0 0 512 512"><g fill-rule="nonzero"><path fill="#999" d="M256 0c70.68 0 134.69 28.66 181.01 74.99C483.34 121.31 512 185.32 512 256c0 70.68-28.66 134.69-74.99 181.01C390.69 483.34 326.68 512 256 512c-70.68 0-134.69-28.66-181.01-74.99C28.66 390.69 0 326.68 0 256c0-70.68 28.66-134.69 74.99-181.01C121.31 28.66 185.32 0 256 0z"/><path fill="#fff" d="M256 19.48c65.31 0 124.45 26.5 167.23 69.28 42.79 42.79 69.28 101.93 69.28 167.23 0 65.31-26.49 124.47-69.28 167.25-42.78 42.79-101.92 69.28-167.23 69.28-65.3 0-124.46-26.49-167.24-69.28-42.79-42.78-69.28-101.94-69.28-167.25 0-65.3 26.49-124.44 69.28-167.23C131.54 45.98 190.7 19.48 256 19.48z"/><path d="m106.55 203.82 39.86-59.78 9.96 6.65-39.86 59.78-9.96-6.65zm14.95 9.96L161.36 154l9.96 6.65-39.86 59.78-9.96-6.65zm14.95 9.97 39.84-59.79 9.98 6.65-39.86 59.78-9.96-6.64zm189.29 126.21 39.86-59.79 9.96 6.65-39.84 59.77-9.98-6.63zm14.95 9.96 39.85-59.78 9.96 6.64-39.85 59.77-9.96-6.63zm14.95 9.96 39.85-59.78 9.96 6.64-39.85 59.79-9.96-6.65z"/><path fill="#fff" d="m342.35 314.25 49.82 33.21-3.33 4.98-49.81-33.2z"/><path fill="#CD2E3A" d="M196.23 220.43c22.01-33.02 66.61-41.93 99.63-19.92 33 21.99 41.93 66.62 19.92 99.63l-119.55-79.71z"/><path fill="#0047A0" d="M196.23 220.43c-22.01 33.02-13.08 77.62 19.92 99.63 33.01 22.01 77.62 13.08 99.63-19.92 11.01-16.51 6.54-38.82-9.96-49.82s-38.81-6.55-49.82 9.97l-59.77-39.86z"/><path fill="#CD2E3A" d="M246.04 210.47c-16.51-11.01-38.81-6.56-49.81 9.96-11.01 16.5-6.56 38.81 9.96 49.82 16.5 11 38.81 6.54 49.81-9.96 11.01-16.52 6.54-38.82-9.96-49.82z"/><path d="m146.41 376.53-39.86-59.79 9.96-6.64 39.86 59.78-9.96 6.65zm14.95-9.98-39.86-59.77 9.96-6.64 39.86 59.78-9.96 6.63zm14.93-9.96-39.84-59.77 9.96-6.65 39.86 59.79-9.98 6.63zm189.31-126.2-39.86-59.78 9.98-6.65 39.84 59.79-9.96 6.64zm14.94-9.96-39.85-59.78 9.96-6.65 39.85 59.78-9.96 6.65zm14.95-9.96-39.85-59.78 9.96-6.65 39.85 59.78-9.96 6.65z"/><path fill="#fff" d="m137.29 335.83 14.93-9.96 3.31 4.99-14.95 9.96-3.29-4.99zm201.74-134.48 17.45-11.62 3.31 4.95-17.44 11.62-3.32-4.95zm32.38-21.6 14.95-9.98 3.32 4.99-14.95 9.96-3.32-4.97z"/></g></svg>