<svg xmlns="http://www.w3.org/2000/svg" shape-rendering="geometricPrecision" text-rendering="geometricPrecision" image-rendering="optimizeQuality" fill-rule="evenodd" clip-rule="evenodd" viewBox="0 0 512 420.166"><path d="M74.316 0h363.369c20.398 0 38.963 8.366 52.425 21.816h.075C503.634 35.266 512 53.862 512 74.316V345.85c0 20.398-8.366 38.963-21.815 52.425l-.075.075c-13.462 13.45-32.027 21.816-52.425 21.816H74.316c-20.454 0-39.05-8.366-52.5-21.816l-1.065-1.165C7.926 383.822 0 365.703 0 345.85V74.316c0-20.454 8.366-39.05 21.816-52.5C35.266 8.366 53.862 0 74.316 0zm172.419 136.275h49.83l-36.608 147.616h-68.964l-36.608-147.616h49.837l20.072 93.768h2.129l20.312-93.768zm63.64 147.616V136.275h47.24v147.616h-47.24z"/></svg>