<svg viewBox="0 0 512 512" xmlns="http://www.w3.org/2000/svg" fill-rule="evenodd" clip-rule="evenodd" stroke-linejoin="round" stroke-miterlimit="2"><g fill-rule="nonzero"><path d="M256 0c70.68 0 134.69 28.66 181.01 74.99C483.34 121.31 512 185.32 512 256c0 70.68-28.66 134.69-74.99 181.01C390.69 483.34 326.68 512 256 512c-70.68 0-134.69-28.66-181.01-74.99C28.66 390.69 0 326.68 0 256c0-70.68 28.66-134.69 74.99-181.01C121.31 28.66 185.32 0 256 0z" fill="#999"/><path d="M256 19.48c65.31 0 124.44 26.47 167.24 69.28 42.81 42.8 69.28 101.93 69.28 167.24s-26.47 124.44-69.28 167.24c-42.8 42.81-101.93 69.28-167.24 69.28s-124.44-26.47-167.24-69.28C45.95 380.44 19.48 321.31 19.48 256S45.95 131.56 88.76 88.76C131.56 45.95 190.69 19.48 256 19.48z" fill="#fff"/><path d="M256 39.59c119.52 0 216.41 96.89 216.41 216.41S375.52 472.41 256 472.41 39.59 375.52 39.59 256 136.48 39.59 256 39.59z" fill="#ccc"/><path d="M436.07 135.95L75.93 376.05C52.98 341.7 39.59 300.41 39.59 256c0-119.52 96.89-216.41 216.41-216.41 75.11 0 141.27 38.27 180.07 96.36z" fill="#009739"/><path d="M75.93 376.05l360.14-240.1c22.95 34.36 36.34 75.64 36.34 120.05 0 119.52-96.89 216.41-216.41 216.41-75.11 0-141.27-38.27-180.07-96.36z" fill="#c8102e"/><path d="M41.94 287.93L367.81 70.68c54.03 32.67 92.62 88.31 102.25 153.39L144.19 441.32c-54.03-32.68-92.63-88.31-102.25-153.39z" fill="#ffcd00"/><path d="M47.91 315.6L391 86.87c34.63 27.68 60.58 65.77 73.09 109.53L121 425.13c-34.63-27.68-60.58-65.77-73.09-109.53z"/><path d="M120.24 288.91l79.09 62.47-100.71-4.05 83.85-55.91-34.97 94.52-27.26-97.03zm218.35-145.57l79.09 62.48-100.71-4.06 83.86-55.91-34.98 94.52-27.26-97.03z" fill="#fff"/></g></svg>