<svg xmlns="http://www.w3.org/2000/svg" shape-rendering="geometricPrecision" text-rendering="geometricPrecision" image-rendering="optimizeQuality" fill-rule="evenodd" clip-rule="evenodd" viewBox="0 0 512 512"><g fill-rule="nonzero"><path fill="#4D4D4D" d="M256-.001c70.684 0 134.69 28.664 181.013 74.988C483.337 121.31 512.001 185.316 512.001 256c0 70.684-28.664 134.69-74.988 181.013C390.69 483.337 326.684 512.001 256 512.001c-70.676 0-134.689-28.664-181.013-74.988C28.663 390.69 0 326.676 0 256c0-70.684 28.663-134.69 74.987-181.013C121.311 28.663 185.316-.001 256-.001z"/><path fill="#fff" d="M256.002 19.596c65.277 0 124.382 26.466 167.162 69.243 42.777 42.779 69.243 101.884 69.243 167.162s-26.466 124.383-69.246 167.16c-42.777 42.779-101.882 69.246-167.159 69.246-65.279 0-124.384-26.467-167.163-69.243-42.777-42.78-69.243-101.885-69.243-167.163S46.062 131.618 88.839 88.839c42.779-42.777 101.884-69.243 167.163-69.243z"/><path fill="#00732F" d="M458.658 179.96H53.345C84.13 97.955 163.242 39.594 256.002 39.594c92.756 0 171.871 58.361 202.656 140.366z"/><path d="M51.468 326.835h409.067c-29.338 84.727-109.826 145.574-204.533 145.574-94.711 0-175.193-60.847-204.534-145.574z"/><path fill="red" d="M162.9 60.598v390.806C89.979 416.598 39.594 342.186 39.594 256.001c0-86.188 50.385-160.597 123.306-195.403z"/></g></svg>