<?xml version="1.0" encoding="UTF-8"?>
<!-- Generated by Pixelmator Pro 3.1.1 -->
<svg width="512" height="420" viewBox="0 0 512 420" xmlns="http://www.w3.org/2000/svg" xmlns:xlink="http://www.w3.org/1999/xlink">
    <path id="Path" fill="#000000" fill-rule="evenodd" stroke="none" d="M 74.320313 420 C 33.440353 420 0 386.519684 0 345.679688 L 0 74.150391 C 0 33.240417 33.410355 -0.169922 74.320313 -0.169922 L 437.679688 -0.169922 C 478.549652 -0.169922 512 33.290436 512 74.150391 L 512 345.679688 C 512 386.499664 478.499664 420 437.679688 420 L 74.320313 420 Z M 195.886719 275.435547 C 210.390106 275.435547 222.452271 273.449829 232.070313 269.480469 L 228.634766 231.009766 C 218.558731 234.673782 207.031403 236.505859 194.054688 236.505859 C 187.947998 236.505859 181.918884 235.895157 175.964844 234.673828 L 175.964844 174.675781 C 175.964844 170.095749 177.567429 167.042297 180.773438 165.515625 C 183.979462 163.988953 189.705185 163.224609 197.949219 163.224609 C 206.193237 163.224609 215.275864 164.294296 225.199219 166.431641 L 232.070313 131.394531 C 228.253616 129.715179 222.413147 128.303223 214.550781 127.158203 C 206.688431 126.013184 199.856049 125.439453 194.054688 125.439453 C 167.948593 125.439453 150.010941 131.775879 140.240234 144.447266 C 135.202209 151.011963 131.691711 158.760376 129.707031 167.691406 C 127.722359 176.622437 126.730469 187.576019 126.730469 200.552734 C 126.730469 213.529449 127.722359 224.444138 129.707031 233.298828 C 131.691711 242.153534 135.202209 249.863037 140.240234 256.427734 C 145.278259 262.992432 152.186493 267.802124 160.964844 270.855469 C 169.74321 273.908813 181.383331 275.435547 195.886719 275.435547 Z M 240.771484 272 L 289.089844 272 L 294.357422 249.328125 L 332.142578 249.328125 L 337.410156 272 L 385.728516 272 L 348.630859 128.875 L 277.869141 128.875 L 240.771484 272 Z M 302.601563 212.917969 L 311.990234 172.84375 L 314.509766 172.84375 L 323.669922 212.917969 L 302.601563 212.917969 Z"/>
</svg>
