<?xml version="1.0" encoding="UTF-8"?>
<!-- Generated by Pixelmator Pro 3.1.1 -->
<svg width="512" height="420" viewBox="0 0 512 420" xmlns="http://www.w3.org/2000/svg" xmlns:xlink="http://www.w3.org/1999/xlink">
    <path id="Path" fill="#000000" fill-rule="evenodd" stroke="none" d="M 74.320313 420 C 33.440353 420 0 386.519684 0 345.679688 L 0 74.150391 C 0 33.240417 33.410355 -0.169922 74.320313 -0.169922 L 437.679688 -0.169922 C 478.549652 -0.169922 512 33.290436 512 74.150391 L 512 345.679688 C 512 386.499664 478.499664 420 437.679688 420 L 74.320313 420 Z M 181.917969 275.435547 C 190.161987 275.435547 196.764862 275.244934 201.726563 274.863281 C 206.688248 274.481628 212.450928 273.374969 219.015625 271.542969 C 225.580322 269.710938 230.656464 267.075653 234.244141 263.640625 C 237.831833 260.205627 240.924179 255.168381 243.519531 248.527344 C 246.114883 241.886307 247.412109 233.756699 247.412109 224.138672 C 247.412109 210.703949 243.596252 200.209381 235.962891 192.652344 C 228.329544 185.095306 214.513092 180.324509 194.513672 178.339844 L 178.025391 176.736328 L 178.025391 165.515625 C 183.979416 164.752289 191.231888 164.369141 199.78125 164.369141 C 208.330612 164.369141 219.704285 165.514679 233.902344 167.804688 L 239.626953 131.164063 C 223.291565 127.347382 204.970764 125.439453 184.666016 125.439453 C 164.361252 125.439453 149.973022 129.103607 141.5 136.431641 C 133.026978 143.759674 128.791016 157.194946 128.791016 176.736328 C 128.791016 190.934387 132.264557 201.658447 139.210938 208.910156 C 146.157303 216.16185 158.942947 220.627289 177.568359 222.306641 L 198.177734 224.138672 L 198.177734 235.589844 C 191.307693 236.505844 182.262054 236.962891 171.041016 236.962891 C 159.819977 236.962891 147.18602 235.206665 133.140625 231.695313 L 126.730469 269.480469 C 143.676529 273.449829 162.071213 275.435547 181.917969 275.435547 Z M 288.632813 272 L 355.5 272 L 390.996094 128.875 L 342.675781 128.875 L 322.982422 219.787109 L 320.921875 219.787109 L 301.457031 128.875 L 253.136719 128.875 L 288.632813 272 Z"/>
</svg>
