<svg xmlns="http://www.w3.org/2000/svg" shape-rendering="geometricPrecision" text-rendering="geometricPrecision" image-rendering="optimizeQuality" fill-rule="evenodd" clip-rule="evenodd" viewBox="0 0 512 512"><g fill-rule="nonzero"><path fill="#4D4D4D" d="M256 0c70.684 0 134.689 28.664 181.012 74.987C483.336 121.311 512 185.316 512 256c0 70.684-28.664 134.689-74.988 181.013C390.689 483.336 326.684 512 256 512c-70.677 0-134.689-28.664-181.013-74.987C28.664 390.689 0 326.676 0 256c0-70.684 28.664-134.689 74.987-181.013C121.311 28.664 185.316 0 256 0z"/><path fill="#fff" d="M256.001 19.597c65.278 0 124.382 26.466 167.162 69.242 42.776 42.78 69.242 101.884 69.242 167.162S465.939 380.384 423.16 423.16c-42.777 42.78-101.881 69.246-167.159 69.246-65.278 0-124.382-26.466-167.162-69.243-42.777-42.779-69.243-101.884-69.243-167.162S46.062 131.619 88.839 88.839c42.78-42.776 101.884-69.242 167.162-69.242z"/><path fill="#00A551" d="M256.001 39.594c119.517 0 216.407 96.887 216.407 216.407 0 119.518-96.89 216.407-216.407 216.407-119.521 0-216.407-96.889-216.407-216.407 0-119.52 96.886-216.407 216.407-216.407z"/><path fill="#FFD500" d="M443.243 364.555H68.758c-18.542-31.913-29.164-68.989-29.164-108.554 0-119.52 96.886-216.407 216.407-216.407 119.517 0 216.407 96.887 216.407 216.407 0 39.565-10.622 76.641-29.165 108.554z"/><path fill="#1A206D" d="M472.405 256.211H39.597l-.003-.21c0-119.52 96.886-216.407 216.407-216.407 119.517 0 216.407 96.887 216.407 216.407l-.003.21z"/><path fill="#EA2839" d="M443.489 147.864H68.513c37.41-64.719 107.358-108.27 187.488-108.27 80.127 0 150.081 43.551 187.488 108.27z"/></g></svg>