<svg viewBox="0 0 512 512" xmlns="http://www.w3.org/2000/svg" fill-rule="evenodd" clip-rule="evenodd" stroke-linejoin="round" stroke-miterlimit="2"><path d="M256 0c70.68 0 134.69 28.66 181.01 74.99C483.34 121.31 512 185.32 512 256c0 70.68-28.66 134.69-74.99 181.01C390.69 483.34 326.68 512 256 512c-70.68 0-134.69-28.66-181.01-74.99C28.66 390.69 0 326.68 0 256c0-70.68 28.66-134.69 74.99-181.01C121.31 28.66 185.32 0 256 0z" fill="#999" fill-rule="nonzero"/><path d="M256 19.48c65.31 0 124.44 26.47 167.24 69.28 42.81 42.8 69.28 101.93 69.28 167.24s-26.47 124.44-69.28 167.24c-42.8 42.81-101.93 69.28-167.24 69.28s-124.44-26.47-167.24-69.28C45.95 380.44 19.48 321.31 19.48 256S45.95 131.56 88.76 88.76C131.56 45.95 190.69 19.48 256 19.48z" fill="#fff" fill-rule="nonzero"/><path d="M256 39.59c119.52 0 216.41 96.89 216.41 216.41S375.52 472.41 256 472.41 39.59 375.52 39.59 256 136.48 39.59 256 39.59z" fill="#ccc" fill-rule="nonzero"/><path d="M256 39.59c119.52 0 216.41 96.89 216.41 216.41S375.52 472.41 256 472.41 39.59 375.52 39.59 256 136.48 39.59 256 39.59z" fill="#012169" fill-rule="nonzero"/><path d="M78.07 132.81l167.84 83.92m-.54-176.87l-155.9 77.95" fill="none"/><path d="M143.78 70.93l31.65-15.83c21.95-8.81 45.67-14.13 70.48-15.27V59.3l-137.7 68.86 137.7 68.85v19.72h-39.44L68.76 147.88l-.37.18a217.44 217.44 0 0175.39-77.13z" fill="#fff" fill-rule="nonzero"/><path d="M78.07 132.81l167.84 83.92m-.54-176.87l-155.9 77.95" fill="none"/><path d="M114.85 91.97l94.73-47.37c11.78-2.58 23.92-4.19 36.33-4.77v12.9L95.06 128.16l150.85 75.43v13.14h-26.29L71.59 142.72a217.433 217.433 0 0143.26-50.75z" fill="#c8102e" fill-rule="nonzero"/><path d="M107.46 98.63h138.45v59.05H98.29v59.05H43.16c8.46-46.15 31.55-87.18 64.3-118.1z" fill="#fff" fill-rule="nonzero"/><path d="M95.86 110.44h150.05v35.43H86.48v70.86H51.05v-30.37c9.65-28.42 25.05-54.19 44.81-75.92z" fill="#c8102e" fill-rule="nonzero"/><path d="M292.83 153.71c0 89.17 10.34 119.9 31.04 140.6 12.34 12.25 17.81 16.87 36.98 29.46 19.17-12.59 24.64-17.21 36.99-29.46 20.7-20.7 31.04-51.43 31.04-140.6-15.06 6.45-23.64 9.57-36.05 9.38-11.11-.17-22.88-5.33-31.98-9.38-9.1 4.05-20.87 9.21-31.97 9.38-12.42.19-21-2.93-36.05-9.38z" fill="#fff" fill-rule="nonzero"/><path d="M363 198.35c3.2 7.17 13.45 15.09 16.26 18.97-3.58 3.88-4.3 3.46-3.83 10.66 6.24-6.22 6.35-6.87 10.36-5.92 8.79 8.36 1.57 26.31-5.69 30.21-7.26 4.16-5.94-.14-16.82 5.08 4.99 4.06 10.77-.6 15.49.65 2.57 2.9-1.22 8.19.78 13.17 4.17-.38 3.67-8.41 4.64-11.33 3.05-10.67 21.39-18.12 22.32-27.91 3.86-1.73 7.73-.54 12.43 1.98-2.34-9.17-10.09-9.08-12.16-11.94-4.94-7.2-9.32-15.41-19.88-17.54-8.01-1.62-7.41.48-12.54-2.85-3.2-2.38-12.91-6.86-11.36-3.22v-.01z" fill="#f90" fill-rule="nonzero"/><path d="M386.04 206.51c0-.88-.74-1.59-1.66-1.59-.93 0-1.67.71-1.67 1.59 0 .88.74 1.59 1.67 1.59.92 0 1.66-.71 1.66-1.59z" fill="#fff"/><path d="M337.38 228.77c5.16-6.05 7.71-18.38 9.99-22.57 5.28 1.21 5.22 2.01 11.68-1.75-8.68-2.35-9.33-2.14-10.33-5.97 3.65-11.31 23.67-13.61 30.68-9.32 7.25 4.18 2.64 5.08 12.56 11.81 1.44-6.1-5.58-8.79-6.63-13.36 1.49-3.52 8.17-2.8 11.86-6.81-2.31-3.34-9.53.84-12.68 1.38-11.33 2.42-26.79-9.56-36.31-5.77-3.41-2.45-4.11-6.27-3.98-11.4-7.41 6.25-3.7 12.74-5.39 15.82-4.36 7.53-9.93 15.06-6.98 24.95 2.24 7.51 3.91 6.02 3.22 11.91-.71 3.8-.34 14.09 2.31 11.08z" fill="#f90" fill-rule="nonzero"/><path d="M334.18 205.53c-.82.41-1.13 1.38-.7 2.15.43.78 1.45 1.08 2.26.67.81-.41 1.13-1.38.7-2.15-.43-.78-1.45-1.08-2.26-.67z" fill="#fff"/><path d="M379.26 233.02c-8.09-1.08-20.48 3.21-25.42 3.52-1.64-4.93-.89-5.3-7.62-8.63 2.39 8.3 2.91 8.73 0 11.52-12.04 2.88-24.47-12.26-24.24-20.21 0-8.07 3.19-4.78 4.1-16.36-6.22 1.98-5.01 9.11-8.56 12.33-3.93.6-6.74-5.22-12.25-6.16-1.8 3.61 5.68 7.34 7.8 9.63 8.03 7.99 5.27 26.81 13.6 32.62-.44 4.05-3.5 6.59-8.18 9.14 9.45 2.81 13.35-3.57 17-3.79 9.01-.33 18.65.32 26-7.21 5.58-5.71 3.38-6.31 9.03-8.78 3.78-1.39 12.82-7.02 8.74-7.62z" fill="#f90" fill-rule="nonzero"/><path d="M360.07 247.65c.79.45 1.81.21 2.29-.55.47-.75.22-1.73-.57-2.18-.79-.45-1.82-.21-2.3.54-.47.76-.21 1.74.58 2.19z" fill="#fff"/><path d="M309.89 275.39c3.97 7.53 8.62 13.57 13.98 18.92 12.34 12.25 17.81 16.87 36.98 29.46 19.17-12.59 24.64-17.21 36.99-29.46 5.35-5.35 10.01-11.39 13.97-18.92H309.89z" fill="#9cf" fill-rule="nonzero"/><path d="M289.99 150.17c0 92.89 10.77 124.89 32.34 146.45 12.85 12.77 18.55 17.57 38.52 30.7 19.97-13.13 25.67-17.93 38.53-30.7 21.56-21.56 32.33-53.56 32.33-146.45-15.68 6.71-24.62 9.97-37.55 9.77-11.57-.18-23.83-5.55-33.31-9.77-9.48 4.22-21.74 9.59-33.3 9.77-12.94.2-21.88-3.06-37.56-9.77zm4.25 4.96c14.75 6.34 23.15 9.41 35.3 9.22 10.88-.17 22.4-5.24 31.31-9.22 8.91 3.98 20.44 9.05 31.31 9.22 12.16.19 20.56-2.88 35.3-9.22 0 87.68-10.12 117.9-30.39 138.25-12.09 12.05-17.45 16.59-36.22 28.98-18.77-12.39-24.12-16.93-36.21-28.98-20.27-20.35-30.4-50.57-30.4-138.25z" fill="#fdc301" fill-rule="nonzero"/></svg>