<svg xmlns="http://www.w3.org/2000/svg" shape-rendering="geometricPrecision" text-rendering="geometricPrecision" image-rendering="optimizeQuality" fill-rule="evenodd" clip-rule="evenodd" viewBox="0 0 512 512"><g fill-rule="nonzero"><path fill="#4D4D4D" d="M256 0c70.684 0 134.689 28.664 181.012 74.987C483.336 121.311 512 185.316 512 256c0 70.684-28.664 134.689-74.988 181.013C390.689 483.336 326.684 512 256 512c-70.677 0-134.689-28.664-181.013-74.987C28.664 390.689 0 326.676 0 256c0-70.684 28.664-134.689 74.987-181.013C121.311 28.664 185.316 0 256 0z"/><path fill="#fff" d="M256.001 19.597c65.278 0 124.382 26.466 167.162 69.242 42.776 42.78 69.242 101.884 69.242 167.162S465.939 380.384 423.16 423.16c-42.777 42.78-101.881 69.246-167.159 69.246-65.278 0-124.382-26.466-167.162-69.243-42.777-42.779-69.243-101.884-69.243-167.162S46.062 131.619 88.839 88.839c42.78-42.776 101.884-69.242 167.162-69.242z"/><path d="M54.172 334.215H457.83c-31.358 80.856-109.893 138.193-201.829 138.193-91.939 0-170.475-57.337-201.829-138.193z"/><path fill="#D21034" d="M457.768 177.625H54.234C85.633 96.851 164.124 39.594 256.001 39.594c91.874 0 170.368 57.257 201.767 138.031z"/><path fill="#007229" d="M87.218 120.569l180.471 135.353L87.141 391.333c-29.739-37.061-47.547-84.115-47.547-135.332 0-51.264 17.837-98.356 47.624-135.432z"/></g></svg>