<svg xmlns="http://www.w3.org/2000/svg" shape-rendering="geometricPrecision" text-rendering="geometricPrecision" image-rendering="optimizeQuality" fill-rule="evenodd" clip-rule="evenodd" viewBox="0 0 512 420.166"><path d="M74.316 0h363.368C478.549 0 512 33.458 512 74.316V345.85c0 40.814-33.501 74.316-74.316 74.316H74.316C33.439 420.166 0 386.689 0 345.85V74.316C0 33.408 33.408 0 74.316 0zm139.201 287.393c-4.527-6.564-40.988-66.792-41.317-66.792v66.792h-49.478V132.779h46.512c4.521 6.558 40.982 66.792 41.31 66.792v-66.792h49.478v154.614h-46.505zm175.767 0h-98.956V132.779h49.478v115.032h49.478v39.582z"/></svg>