<svg xmlns="http://www.w3.org/2000/svg" shape-rendering="geometricPrecision" text-rendering="geometricPrecision" image-rendering="optimizeQuality" fill-rule="evenodd" clip-rule="evenodd" viewBox="0 0 512 512"><g fill-rule="nonzero"><path fill="#4D4D4D" d="M256 0c70.684 0 134.689 28.664 181.012 74.987C483.336 121.311 512 185.316 512 256c0 70.684-28.664 134.689-74.988 181.013C390.689 483.336 326.684 512 256 512c-70.677 0-134.689-28.664-181.013-74.987C28.664 390.689 0 326.676 0 256c0-70.684 28.664-134.689 74.987-181.013C121.311 28.664 185.316 0 256 0z"/><path fill="#fff" d="M256.001 19.597c65.278 0 124.382 26.466 167.162 69.242 42.776 42.78 69.242 101.884 69.242 167.162S465.939 380.384 423.16 423.16c-42.777 42.78-101.881 69.246-167.159 69.246-65.278 0-124.382-26.466-167.162-69.243-42.777-42.779-69.243-101.884-69.243-167.162S46.062 131.619 88.839 88.839c42.78-42.776 101.884-69.242 167.162-69.242z"/><path fill="#0DB02B" d="M256.001 39.594c119.517 0 216.407 96.887 216.407 216.407 0 119.518-96.89 216.407-216.407 216.407-119.521 0-216.407-96.889-216.407-216.407 0-119.52 96.886-216.407 216.407-216.407z"/><path fill="#fff" d="M51.29 326.333h409.421c7.575-22.052 11.697-45.711 11.697-70.332 0-119.52-96.89-216.407-216.407-216.407-119.521 0-216.407 96.887-216.407 216.407 0 24.621 4.121 48.28 11.696 70.332z"/><path fill="#E05206" d="M53.434 179.73h405.134C427.721 97.846 348.669 39.594 256.001 39.594c-92.671 0-171.72 58.252-202.567 140.136zM318.321 253.032c0-34.411-27.898-62.309-62.308-62.309-34.413 0-62.308 27.898-62.308 62.309 0 34.413 27.895 62.307 62.308 62.307 34.41 0 62.308-27.894 62.308-62.307z"/></g></svg>