<svg xmlns="http://www.w3.org/2000/svg" shape-rendering="geometricPrecision" text-rendering="geometricPrecision" image-rendering="optimizeQuality" fill-rule="evenodd" clip-rule="evenodd" viewBox="0 0 512 512"><path fill="#4D4D4D" fill-rule="nonzero" d="M256 0c70.684 0 134.689 28.664 181.012 74.987C483.336 121.311 512 185.316 512 256c0 70.684-28.664 134.689-74.988 181.013C390.689 483.336 326.684 512 256 512c-70.677 0-134.689-28.664-181.013-74.987C28.664 390.689 0 326.676 0 256c0-70.684 28.664-134.689 74.987-181.013C121.311 28.664 185.316 0 256 0z"/><path fill="#fff" fill-rule="nonzero" d="M256.001 19.597c65.278 0 124.382 26.466 167.162 69.242 42.776 42.78 69.242 101.884 69.242 167.162S465.939 380.384 423.16 423.16c-42.777 42.78-101.881 69.246-167.159 69.246-65.278 0-124.382-26.466-167.162-69.243-42.777-42.779-69.243-101.884-69.243-167.162S46.062 131.619 88.839 88.839c42.78-42.776 101.884-69.242 167.162-69.242z"/><path fill="#003893" d="M154.689 64.741l254.619 159.451H175.98l207.028 207.025a217.254 217.254 0 01-18.725 12.186H147.719C83.711 406.336 40.459 337.419 39.624 258.327v-4.652c.865-81.931 47.249-152.939 115.065-188.934z"/><path fill="#dc143c" d="M141.668 72.245l221.313 138.6H143.766l219.215 219.209H127.394c-33.566-24.843-59.686-59.161-74.424-99V180.949c16.763-45.324 48.271-83.495 88.698-108.704z"/><path fill="#fff" fill-rule="nonzero" d="M71.132 143.448a66.345 66.345 0 0025.326 27.281l5.282-3.953-10.407-7.785 12.585-3.209.003-.006-6.63-11.168 12.862 1.851-1.851-12.862 11.168 6.63.006-.003 3.212-12.585 7.785 10.404 7.785-10.404 3.209 12.585.005.003 11.169-6.63-1.852 12.862 12.863-1.851-6.631 11.168.003.006 12.586 3.209-10.404 7.785v.006V166.773v.003l5.282 3.953a66.29 66.29 0 0027.729-32.689c.003 34.097-27.65 61.747-61.744 61.747-31.222 0-57.032-23.186-61.166-53.269.603-1.027 1.205-2.054 1.825-3.07zm30.608 23.331v-.003.003zm8.404-20.308l.021-.021-.012.009-.009.012zm20.326-8.425h.006l-.003-.003-.003.003zm20.331 8.428l-.026-.024.014.009.012.015zM100.724 350.207l-.006-.003v-.003l.006.006zm-.006-59.506l.003-.003-.003.003zm59.504-.003l.003.003.003.003-.006-.006zm.006 59.5l-.003.006-.006.003.009-.009zm10.893-40.633l-.003-.009 16.809-22.277-27.702 3.422 3.418-27.703-22.274 16.807-.011-.003-10.885-25.693-10.888 25.693-.008.003L97.3 262.998l3.418 27.703-27.703-3.422 16.81 22.277-.003.009-25.693 10.888 25.693 10.887.003.009-16.81 22.274 27.703-3.419-3.418 27.703 22.277-16.806.008.003 10.888 25.692 10.887-25.695h.009l22.274 16.806-3.418-27.703 27.702 3.419-16.809-22.274.003-.009 25.695-10.887-25.695-10.888z"/></svg>