<svg viewBox="0 0 512 512" xmlns="http://www.w3.org/2000/svg" fill-rule="evenodd" clip-rule="evenodd" stroke-linejoin="round" stroke-miterlimit="2"><g fill-rule="nonzero"><path d="M256 0c70.68 0 134.69 28.66 181.01 74.99C483.34 121.31 512 185.32 512 256c0 70.68-28.66 134.69-74.99 181.01C390.69 483.34 326.68 512 256 512c-70.68 0-134.69-28.66-181.01-74.99C28.66 390.69 0 326.68 0 256c0-70.68 28.66-134.69 74.99-181.01C121.31 28.66 185.32 0 256 0z" fill="#999"/><path d="M256 19.48c65.31 0 124.44 26.47 167.24 69.28 42.81 42.8 69.28 101.93 69.28 167.24s-26.47 124.44-69.28 167.24c-42.8 42.81-101.93 69.28-167.24 69.28s-124.44-26.47-167.24-69.28C45.95 380.44 19.48 321.31 19.48 256S45.95 131.56 88.76 88.76C131.56 45.95 190.69 19.48 256 19.48z" fill="#fff"/><path d="M256 39.59c119.52 0 216.41 96.89 216.41 216.41S375.52 472.41 256 472.41 39.59 375.52 39.59 256 136.48 39.59 256 39.59z" fill="#ccc"/><path d="M256 39.59c119.52 0 216.41 96.89 216.41 216.41S375.52 472.41 256 472.41 39.59 375.52 39.59 256 136.48 39.59 256 39.59z" fill="#ce1126"/><path d="M99.37 106.67h313.26c37.04 38.84 59.78 91.43 59.78 149.33 0 57.9-22.74 110.49-59.78 149.33H99.37C62.33 366.49 39.59 313.9 39.59 256c0-57.9 22.74-110.49 59.78-149.33z" fill="#007a5e"/><path d="M99.37 106.67h313.26c24.01 25.18 42.01 56.15 51.7 90.59L88.15 392.59c3.57 4.39 7.31 8.64 11.22 12.74h313.26c24.01-25.18 42.01-56.14 51.7-90.59L88.15 119.42c3.57-4.4 7.31-8.65 11.22-12.75z" fill="#fcd116"/><path d="M400.97 256c0-27.49-22.28-49.78-49.77-49.78-27.49 0-49.78 22.29-49.78 49.78 0 27.49 22.29 49.78 49.78 49.78 27.49 0 49.77-22.29 49.77-49.78zm-301.5.16c5.9 11.77 17.64 24.74 28.09 29.48.51-11.77-3.24-26.98-8.6-39.18l-19.49 9.7z" fill="#ce1126"/><path d="M88.88 216.58c8.78 18.93-24.24 63.4 29.67 74.63-6.55-9.19-10.14-24.55-8.36-36.58 11.2 4.76 22.42 15.85 26.83 26.23 18.59-51.83-36.58-46.9-48.14-64.28zM212.93 407.4l-15.85 48.78 41.49-30.15h-51.28l41.49 30.15-15.85-48.78zm138.27 0l-15.85 48.78 41.49-30.15h-51.29l30.29 22.01c2.45-1.28 4.88-2.6 7.27-3.97L351.2 407.4zm-3.08-347.26c2.47 1.16 4.91 2.37 7.33 3.62l11.6 35.69-41.5-30.15h39.93c2.08 1.23 4.14 2.48 6.18 3.77l-36.31 26.38 12.77-39.31zm-135.19-9.47l-15.85 48.78 41.49-30.15h-51.28l41.49 30.15-15.85-48.78zm138.27 159.7l-26.82 82.54 70.21-51.01H307.8l70.22 51.01-26.82-82.54z" fill="#fcd116"/></g></svg>