<svg xmlns="http://www.w3.org/2000/svg" shape-rendering="geometricPrecision" text-rendering="geometricPrecision" image-rendering="optimizeQuality" fill-rule="evenodd" clip-rule="evenodd" viewBox="0 0 512 512"><g fill-rule="nonzero"><path fill="#4D4D4D" d="M256-.002c70.684 0 134.689 28.664 181.013 74.987C483.336 121.31 512 185.316 512 256c0 70.684-28.664 134.69-74.987 181.014-46.324 46.324-110.329 74.988-181.013 74.988-70.676 0-134.689-28.664-181.013-74.988C28.664 390.69 0 326.677 0 256c0-70.684 28.664-134.69 74.987-181.015C121.311 28.662 185.316-.002 256-.002z"/><path fill="#fff" d="M256.001 19.595c65.277 0 124.381 26.46 167.161 69.243 42.783 42.78 69.243 101.885 69.243 167.162 0 65.278-26.463 124.383-69.243 167.163-42.78 42.78-101.884 69.243-167.161 69.243S131.619 465.945 88.84 423.163C46.057 380.383 19.597 321.278 19.597 256c0-65.277 26.46-124.382 69.24-167.165 42.782-42.78 101.887-69.24 167.164-69.24z"/><path fill="#CD2A3E" d="M455.473 171.943H56.527C89.337 94.175 166.291 39.592 256.001 39.592c89.708 0 166.661 54.583 199.472 132.351z"/><path fill="#506F53" d="M462.825 319.743c-10.504 34.117-29.214 64.639-53.829 89.254-39.154 39.155-93.25 63.375-152.995 63.375-59.745 0-113.841-24.218-152.996-63.375-24.616-24.615-43.326-55.137-53.829-89.254h413.649z"/></g></svg>