<svg xmlns="http://www.w3.org/2000/svg" shape-rendering="geometricPrecision" text-rendering="geometricPrecision" image-rendering="optimizeQuality" fill-rule="evenodd" clip-rule="evenodd" viewBox="0 0 512 512"><g fill-rule="nonzero"><path fill="#4D4D4D" d="M256 0c70.684 0 134.689 28.664 181.013 74.987C483.336 121.311 512 185.316 512 256c0 70.684-28.664 134.689-74.987 181.012C390.689 483.336 326.684 512 256 512c-70.676 0-134.689-28.664-181.012-74.988C28.664 390.689 0 326.676 0 256c0-70.684 28.664-134.689 74.988-181.013C121.311 28.664 185.316 0 256 0z"/><path fill="#fff" d="M256.002 19.596c65.277 0 124.382 26.467 167.161 69.243 42.777 42.78 69.243 101.884 69.243 167.162S465.94 380.383 423.16 423.16c-42.776 42.779-101.881 69.245-167.158 69.245-65.279 0-124.383-26.466-167.163-69.242-42.776-42.78-69.242-101.884-69.242-167.162S46.063 131.619 88.839 88.839c42.78-42.776 101.884-69.243 167.163-69.243z"/><path fill="#3F9C35" d="M459.77 329.011c-29.955 83.586-109.876 143.397-203.768 143.397-93.899 0-173.814-59.805-203.769-143.397l.053.147h407.431l.053-.147z"/><path fill="#ED2939" d="M459.717 329.158H52.286c-8.207-22.85-12.691-47.479-12.691-73.157 0-25.459 4.41-49.885 12.484-72.572h407.844c8.075 22.687 12.485 47.113 12.485 72.572 0 25.678-4.484 50.307-12.691 73.157z"/><path fill="#00B9E4" d="M459.923 183.429H52.079C81.914 99.606 161.94 39.594 256.002 39.594c94.057 0 174.087 60.012 203.921 143.835z"/><path fill="#fff" d="M293.998 216.835c-11.971-15.865-30.976-26.121-52.382-26.121-36.217 0-65.579 29.359-65.579 65.579 0 36.217 29.362 65.579 65.579 65.579 21.406 0 40.411-10.259 52.382-26.124-9.816 9.409-23.138 15.192-37.808 15.192-30.182 0-54.65-24.467-54.65-54.647 0-30.182 24.468-54.65 54.65-54.65 14.67 0 27.992 5.783 37.808 15.192z"/><path fill="#fff" d="M314.48 219.861l6.973 19.602 18.791-8.933-8.934 18.79 19.603 6.973-19.603 6.97 8.934 18.791-18.794-8.93-6.97 19.602-6.97-19.602-18.79 8.93 8.93-18.791-19.602-6.97 19.602-6.973-8.93-18.79 18.79 8.933z"/></g></svg>