<svg xmlns="http://www.w3.org/2000/svg" shape-rendering="geometricPrecision" text-rendering="geometricPrecision" image-rendering="optimizeQuality" fill-rule="evenodd" clip-rule="evenodd" viewBox="0 0 512 512"><g fill-rule="nonzero"><path fill="#4D4D4D" d="M256 0c70.684 0 134.689 28.664 181.013 74.987C483.336 121.311 512 185.316 512 256c0 70.684-28.664 134.689-74.987 181.012C390.689 483.336 326.684 512 256 512c-70.676 0-134.689-28.664-181.013-74.988C28.664 390.689 0 326.676 0 256c0-70.684 28.664-134.689 74.987-181.013C121.311 28.664 185.316 0 256 0z"/><path fill="#fff" d="M256.001 19.596c65.278 0 124.383 26.467 167.162 69.243 42.777 42.78 69.243 101.884 69.243 167.162S465.94 380.384 423.16 423.16c-42.776 42.78-101.881 69.245-167.159 69.245-65.278 0-124.382-26.465-167.162-69.242-42.776-42.779-69.243-101.884-69.243-167.162S46.063 131.619 88.839 88.839c42.78-42.776 101.884-69.243 167.162-69.243z"/><path fill="red" d="M276.858 471.404h-41.714c-109.731-10.495-195.55-102.923-195.55-215.403 0-119.521 96.887-216.407 216.407-216.407 119.518 0 216.407 96.886 216.407 216.407 0 112.48-85.819 204.908-195.55 215.403z"/><path fill="#ff0" d="M223.046 225.877c-8.146-5.061-16.786-9.257-25.673-12.713-7.653 11.355-12.096 24.932-12.096 39.62a69.692 69.692 0 003.209 20.982c3.703-8.516 8.393-16.786 14.071-24.685a137.072 137.072 0 0120.489-23.204zm-21.724-17.897c9.628 3.333 18.884 7.652 27.771 12.713 1.975-1.728 4.073-3.209 6.048-4.69-9.38-5.184-19.378-9.381-29.622-12.59-1.481 1.481-2.963 2.963-4.197 4.567zm8.64-8.763c11.109 2.962 21.724 7.035 31.721 12.343 2.345-1.482 4.69-2.839 6.912-4.197-10.615-5.431-21.847-9.38-33.449-12.219a41.911 41.911 0 00-5.184 4.073zm10.492-7.406c12.219 2.469 24.068 6.419 35.176 11.849 11.232-5.43 23.081-9.38 35.177-11.849-10.245-6.047-22.34-9.503-35.177-9.503a69.478 69.478 0 00-35.176 9.503zm75.66 3.456a152.563 152.563 0 00-33.448 12.096 206.673 206.673 0 016.912 4.197c10.12-5.308 20.735-9.381 31.72-12.343-1.604-1.481-3.332-2.839-5.184-3.95zm9.627 8.27c-10.244 3.085-20.118 7.282-29.622 12.466a115.816 115.816 0 016.171 4.69c8.764-5.06 18.02-9.38 27.648-12.713-1.234-1.604-2.592-3.086-4.197-4.443zm8.147 9.751a144.314 144.314 0 00-25.55 12.589c7.529 6.789 14.318 14.565 20.489 23.204a149.355 149.355 0 0114.071 24.686c1.974-6.789 3.085-13.701 3.085-20.983 0-14.688-4.443-28.264-12.095-39.496zm-6.048 48.383c-7.406-11.973-16.293-22.587-26.167-31.597-2.221 1.604-4.567 3.209-6.665 4.813 16.663 15.552 30.116 35.053 38.633 57.764 1.975-2.963 3.826-6.048 5.307-9.134-3.086-7.405-6.788-14.687-11.108-21.846zm-39.126-32.091c2.221-1.605 4.443-3.209 6.788-4.69-1.975-1.728-4.073-3.333-6.171-4.938-2.345 1.482-4.69 2.963-7.036 4.567h.123c2.099 1.605 4.197 3.333 6.295 5.061h.001zm-13.084-9.874c2.345-1.481 4.814-2.962 7.036-4.32-2.346-1.481-4.691-2.962-7.036-4.32-2.345 1.358-4.566 2.839-6.912 4.32 2.345 1.358 4.567 2.839 6.912 4.32zm-6.665 4.813a224.77 224.77 0 00-6.912-4.567l-6.295 4.814c2.346 1.605 4.567 3.086 6.789 4.691a126.157 126.157 0 016.418-4.937v-.001zm6.665 4.937c-2.098 1.605-4.196 3.333-6.418 5.184 2.222 1.728 4.32 3.58 6.418 5.431 2.098-1.851 4.197-3.703 6.418-5.431-2.098-1.728-4.196-3.579-6.418-5.184zm0 23.081a155.916 155.916 0 00-24.315 34.683c-4.567 8.64-8.146 17.65-10.861 26.66 10.368 5.801 22.34 9.257 35.176 9.257 12.837 0 24.809-3.456 35.177-9.257-2.715-9.01-6.295-18.02-10.862-26.66-6.665-12.96-14.811-24.562-24.315-34.683zm-40.73 46.779c8.022-20.489 19.871-38.386 34.436-53.197-2.099-1.975-4.197-3.826-6.418-5.801-16.91 16.416-30.487 36.781-38.756 60.356a68.766 68.766 0 007.528 7.158c.988-2.838 2.099-5.677 3.21-8.516zm47.025-53.197c14.564 14.811 26.413 32.708 34.559 53.197 1.111 2.839 2.099 5.678 3.086 8.516 2.716-2.221 5.308-4.566 7.652-7.158-8.392-23.575-21.97-43.94-38.879-60.356-2.221 1.975-4.32 3.826-6.418 5.801zm-64.305 46.532c8.516-22.711 21.97-42.089 38.756-57.64a136.095 136.095 0 00-6.789-4.937 152.58 152.58 0 00-26.167 31.72 156.988 156.988 0 00-11.108 21.723c1.481 3.209 3.333 6.171 5.308 9.134zM256 176.63c43.446 0 78.87 35.423 78.87 78.87 0 43.446-35.423 78.869-78.87 78.869-43.446 0-78.869-35.423-78.869-78.869 0-43.447 35.423-78.87 78.869-78.87zm34.807-17.28c-2.222 2.592-4.691 5.924-7.159 11.232-.617-1.358-.617-2.962-.247-4.69.617-5.678 2.222-9.134 5.184-13.948.988-1.728 1.975-3.209 2.469-5.06 1.851-5.555 1.481-12.96-2.592-18.761.617 6.541-1.358 11.972-3.58 15.305-.37.616-.74.987-1.234 1.481-2.345 2.345-4.937 4.69-8.27 10.121-1.851 2.962-3.702 6.541-5.43 12.219-.741-1.235-.988-2.715-.864-4.443-.247-5.801.74-9.381 2.839-14.688.74-1.852 1.481-3.456 1.728-5.431.864-5.677-.617-12.96-5.554-18.02 1.604 6.294.617 11.972-1.111 15.675-.37.617-.617 1.111-.988 1.604-1.975 2.716-4.073 5.431-6.665 11.232-1.234 3.333-2.592 7.159-3.333 12.96-.987-1.111-1.481-2.592-1.604-4.32-1.111-5.678-.74-9.38.494-14.934.493-1.852.987-3.58.863-5.555 0-5.801-2.591-12.713-8.269-17.033 2.592 6.048 2.468 11.849 1.358 15.799-.247.494-.494 1.111-.741 1.605-1.481 3.086-3.209 6.048-4.813 12.219-.741 3.456-1.482 7.529-1.358 13.33-.988-.987-1.728-2.345-2.222-3.949-1.975-5.554-2.222-9.134-1.728-14.935.124-1.975.247-3.703 0-5.554-.988-5.801-4.69-12.219-10.862-15.552 3.456 5.554 4.197 11.355 3.703 15.305l-.37 1.851c-.987 3.209-2.221 6.419-2.839 12.837-.247 3.456-.37 7.529.74 13.33-1.234-.864-2.098-2.098-2.838-3.58-2.839-5.184-3.58-8.763-4.073-14.44-.124-1.975-.247-3.703-.988-5.555-1.728-5.554-6.418-11.355-13.083-13.577 4.32 4.814 6.048 10.368 6.048 14.441 0 .617 0 1.235-.124 1.852-.493 3.332-1.111 6.788-.74 13.083.37 3.456.864 7.529 2.839 13.083-1.358-.617-2.469-1.728-3.456-3.085-3.579-4.567-4.814-8.023-6.171-13.578-.494-1.974-.864-3.579-1.852-5.43-2.592-5.061-8.146-10.121-15.058-11.356 4.937 4.197 7.529 9.504 8.27 13.454.123.617.123 1.234.123 1.852.123 3.332 0 6.788 1.358 13.083.864 3.332 1.975 7.282 4.813 12.342-1.357-.37-2.591-1.234-3.826-2.468-4.32-3.95-6.171-7.159-8.269-12.466-.741-1.852-1.481-3.456-2.592-5.061-3.456-4.566-9.627-8.64-16.786-8.763 5.678 3.333 9.01 8.023 10.368 11.849l.37 1.851c.617 3.333.988 6.789 3.333 12.713 1.358 3.209 3.209 6.912 6.788 11.479-1.481-.124-2.838-.864-4.196-1.852-4.814-3.209-7.159-6.171-10.244-10.985-.988-1.728-1.852-3.209-3.333-4.566-4.073-4.073-10.862-7.159-17.897-6.172 6.048 2.469 10.121 6.666 12.096 10.245.247.493.494 1.111.74 1.728 1.111 3.086 1.975 6.418 5.184 11.972 1.852 2.963 4.197 6.295 8.517 10.368-1.481 0-2.963-.493-4.443-1.234-5.308-2.469-8.023-4.937-11.726-9.257-1.358-1.481-2.468-2.839-4.073-4.073-4.69-3.333-11.849-5.308-18.637-3.209 6.418 1.481 11.108 4.937 13.453 8.146.494.493.741.987.988 1.604 1.604 2.962 3.085 6.172 7.159 10.985 2.221 2.715 5.06 5.678 9.874 9.011-1.358.246-2.84 0-4.567-.618-5.554-1.481-8.64-3.579-12.96-7.282-1.481-1.234-2.839-2.345-4.567-3.332-5.184-2.592-12.589-3.333-19.007-.247 6.541.37 11.725 3.209 14.687 5.924.371.494.741.864 1.112 1.481 2.098 2.592 3.949 5.555 8.763 9.751 2.592 2.222 5.924 4.69 11.232 7.282-1.358.494-2.963.494-4.567.124-5.801-.617-9.134-2.222-14.071-5.184-1.728-.988-3.209-1.975-5.06-2.469-5.555-1.851-12.837-1.481-18.638 2.592 6.419-.617 11.973 1.358 15.305 3.58.494.37.988.74 1.358 1.234 2.468 2.345 4.814 4.937 10.121 8.269 2.962 1.852 6.665 3.827 12.219 5.431-1.234.74-2.715.988-4.443.988-5.801.123-9.381-.864-14.688-2.963-1.851-.74-3.456-1.481-5.431-1.728-5.677-.863-12.96.617-18.02 5.555 6.295-1.605 12.096-.618 15.675 1.11.617.371 1.111.618 1.605.988 2.715 1.975 5.43 4.073 11.355 6.665 3.209 1.235 7.035 2.592 12.836 3.333-1.111.987-2.592 1.481-4.196 1.604-5.801 1.235-9.381.741-15.058-.493-1.852-.494-3.58-.864-5.555-.864-5.8 0-12.712 2.592-16.909 8.269 5.925-2.592 11.725-2.468 15.675-1.358.617.247 1.111.494 1.728.741 2.962 1.481 6.048 3.209 12.22 4.814 3.332.74 7.405 1.481 13.206 1.357-.988.988-2.345 1.728-3.95 2.222-5.43 1.975-9.133 2.222-14.811 1.728-1.975-.123-3.703-.247-5.677 0-5.678.988-12.096 4.69-15.428 10.985 5.43-3.579 11.231-4.32 15.304-3.826.617.123 1.111.247 1.728.37 3.21 1.111 6.418 2.222 12.837 2.839 3.456.247 7.529.37 13.33-.74-.864 1.234-2.099 2.098-3.58 2.838-5.06 2.84-8.763 3.58-14.441 4.074-1.974.246-3.702.37-5.554.987-5.554 1.728-11.232 6.418-13.577 13.083 4.937-4.32 10.492-5.924 14.565-6.048.617 0 1.234 0 1.851.124 3.209.494 6.665 1.111 13.083.74 3.456-.246 7.529-.864 12.96-2.838-.494 1.357-1.604 2.468-3.086 3.456-4.566 3.579-8.022 4.813-13.576 6.171-1.852.493-3.58.863-5.308 1.851-5.184 2.592-10.121 8.146-11.355 15.058 4.073-4.937 9.38-7.529 13.33-8.269.617-.124 1.234-.124 1.851-.124 3.333-.123 6.912 0 13.084-1.357 3.332-.864 7.282-1.975 12.466-4.814-.37 1.358-1.358 2.715-2.592 3.826-3.95 4.32-7.159 6.171-12.466 8.269-1.728.864-3.333 1.481-4.938 2.592-4.69 3.456-8.763 9.627-8.886 16.786 3.332-5.677 8.146-9.01 11.972-10.368.617-.123 1.111-.247 1.728-.37 3.332-.617 6.788-.987 12.713-3.333 3.209-1.357 6.912-3.209 11.602-6.665-.247 1.358-.864 2.716-1.975 4.073-3.209 4.814-6.048 7.159-10.985 10.245-1.605.987-3.085 1.851-4.567 3.333-4.072 4.072-7.035 10.861-6.047 17.896 2.345-6.048 6.541-10.12 10.121-12.096.616-.246 1.11-.493 1.728-.74 3.209-.988 6.541-1.975 11.972-5.184 2.962-1.851 6.294-4.196 10.368-8.516.123 1.481-.37 2.962-1.235 4.443-2.468 5.307-4.937 8.022-9.257 11.725-1.481 1.358-2.838 2.468-3.949 4.073-3.333 4.691-5.308 11.849-3.209 18.638 1.357-6.419 4.813-11.109 8.146-13.454.493-.37.987-.74 1.481-.987 2.962-1.605 6.171-3.086 11.108-7.159 2.592-2.222 5.554-5.061 8.887-9.874.247 1.357 0 2.962-.494 4.567-1.604 5.554-3.579 8.64-7.405 12.959-1.235 1.481-2.345 2.839-3.209 4.691-2.592 5.184-3.456 12.466-.371 18.884.494-6.542 3.209-11.726 6.048-14.564.371-.494.864-.864 1.358-1.235 2.715-2.098 5.554-3.949 9.751-8.763 2.221-2.592 4.69-5.925 7.282-11.232.493 1.358.493 2.962.246 4.566-.74 5.802-2.221 9.134-5.184 14.071-1.11 1.728-1.974 3.209-2.591 5.061-1.728 5.554-1.358 12.96 2.715 18.761-.617-6.542 1.234-12.096 3.579-15.429.371-.493.741-.987 1.111-1.357 2.345-2.469 4.938-4.814 8.394-10.121 1.728-2.962 3.702-6.665 5.307-12.22.74 1.235.987 2.716.987 4.444.247 5.801-.74 9.38-2.962 14.688-.74 1.851-1.358 3.456-1.728 5.43-.864 5.678.617 12.96 5.554 18.021-1.604-6.295-.617-12.096 1.235-15.675.247-.618.493-1.111.863-1.605 1.975-2.715 4.197-5.431 6.666-11.355 1.357-3.209 2.715-7.036 3.456-12.836.864 1.11 1.357 2.591 1.604 4.196 1.111 5.801.741 9.38-.617 15.058-.494 1.851-.864 3.579-.864 5.554 0 5.801 2.715 12.713 8.393 16.91-2.591-5.925-2.591-11.726-1.357-15.676.123-.616.37-1.11.617-1.728 1.481-2.962 3.209-6.047 4.813-12.219.741-3.333 1.482-7.405 1.358-13.207 1.111.988 1.728 2.346 2.222 3.95 2.098 5.431 2.221 9.134 1.851 14.935-.247 1.851-.37 3.579 0 5.554.864 5.801 4.567 12.219 10.862 15.551-3.456-5.554-4.32-11.355-3.703-15.304 0-.617.123-1.235.37-1.852.988-3.209 2.222-6.418 2.839-12.836.123-3.456.247-7.529-.741-13.33 1.112.864 2.099 2.098 2.84 3.579 2.838 5.061 3.579 8.764 4.072 14.441.124 1.975.247 3.703.864 5.554 1.852 5.555 6.418 11.232 13.207 13.577-4.32-4.937-6.048-10.491-6.171-14.564 0-.617 0-1.235.123-1.851.494-3.21 1.235-6.666.741-13.084-.247-3.456-.864-7.529-2.716-12.96 1.235.618 2.345 1.605 3.333 3.086 3.579 4.567 4.937 8.023 6.295 13.577.37 1.851.864 3.579 1.728 5.307 2.715 5.184 8.146 10.121 15.181 11.356-5.061-4.073-7.653-9.381-8.393-13.33-.124-.617-.124-1.235-.124-1.852 0-3.332.124-6.788-1.234-13.083-.864-3.333-2.098-7.282-4.937-12.466 1.481.37 2.715 1.358 3.826 2.592 4.32 3.949 6.171 7.159 8.393 12.466.741 1.728 1.358 3.333 2.592 4.937 3.456 4.69 9.627 8.764 16.663 8.887-5.555-3.333-8.887-8.146-10.245-11.972-.247-.617-.37-1.111-.493-1.728-.494-3.333-.988-6.789-3.333-12.713-1.358-3.21-3.086-6.912-6.665-11.479 1.481.123 2.839.741 4.196 1.851 4.814 3.21 7.159 6.048 10.121 10.985.988 1.605 1.975 3.209 3.333 4.567 4.073 4.073 10.861 7.036 17.897 6.048-6.048-2.345-10.121-6.542-11.973-10.121-.37-.617-.617-1.111-.74-1.728-1.111-3.209-2.098-6.542-5.307-11.972-1.852-2.963-4.197-6.295-8.393-10.368 1.357 0 2.838.37 4.443 1.234 5.184 2.469 8.023 4.937 11.725 9.257 1.234 1.481 2.345 2.839 3.95 3.95 4.69 3.456 11.849 5.307 18.637 3.332-6.295-1.481-10.985-4.937-13.453-8.269-.37-.494-.741-.988-.988-1.481-1.604-2.963-2.962-6.172-7.035-11.109-2.345-2.591-5.184-5.554-9.997-8.887 1.481-.246 2.962 0 4.566.494 5.554 1.605 8.64 3.703 13.083 7.406 1.481 1.234 2.839 2.345 4.567 3.209 5.184 2.592 12.466 3.456 18.884.37-6.542-.493-11.602-3.209-14.564-6.048-.494-.37-.864-.863-1.234-1.357-1.976-2.716-3.95-5.555-8.64-9.751-2.716-2.222-6.048-4.691-11.232-7.282 1.358-.494 2.838-.494 4.566-.247 5.678.74 9.134 2.222 13.948 5.307 1.728.988 3.209 1.852 5.06 2.469 5.554 1.728 12.96 1.358 18.761-2.716-6.542.618-11.972-1.234-15.305-3.579l-1.481-1.111c-2.345-2.345-4.69-4.937-10.121-8.393-2.962-1.728-6.542-3.703-12.219-5.307 1.234-.741 2.839-.988 4.443-.988 5.924-.247 9.504.74 14.688 2.962 1.851.741 3.456 1.358 5.431 1.728 5.677.864 12.959-.617 18.02-5.554-6.295 1.605-11.972.617-15.675-1.234-.494-.247-1.111-.494-1.605-.864-2.715-1.975-5.431-4.073-11.231-6.665-3.21-1.235-7.159-2.592-12.96-3.456 1.111-.864 2.592-1.358 4.32-1.605 5.677-1.111 9.38-.74 14.934.617 1.852.494 3.58.864 5.554.864 5.802 0 12.713-2.715 17.033-8.269-6.048 2.468-11.849 2.468-15.675 1.234-.617-.123-1.234-.37-1.728-.617-3.086-1.481-6.048-3.209-12.219-4.814-3.456-.74-7.406-1.481-13.33-1.357.987-1.112 2.345-1.728 3.949-2.222 5.555-2.098 9.258-2.222 14.935-1.852 1.975.247 3.703.371 5.678 0 5.677-.863 12.095-4.566 15.428-10.861-5.554 3.456-11.232 4.32-15.305 3.826-.617-.123-1.234-.247-1.851-.493-3.209-.988-6.419-2.222-12.713-2.84-3.456-.123-7.653-.246-13.33.864.74-1.234 1.974-2.221 3.579-2.962 5.061-2.839 8.64-3.579 14.317-4.073 1.976-.123 3.703-.247 5.555-.864 5.554-1.851 11.355-6.418 13.577-13.207-4.814 4.32-10.368 6.048-14.441 6.172-.617 0-1.235 0-1.852-.124-3.332-.493-6.788-1.234-13.083-.74-3.456.247-7.529.864-13.083 2.839.617-1.358 1.728-2.469 3.086-3.456 4.566-3.579 8.022-4.937 13.577-6.295 1.974-.37 3.579-.864 5.43-1.728 5.061-2.715 10.121-8.146 11.356-15.181-4.197 5.06-9.381 7.652-13.454 8.393-.617.123-1.234.123-1.851.123-3.333 0-6.789-.123-12.96 1.235-3.456.864-7.406 2.098-12.466 4.937.37-1.481 1.234-2.716 2.468-3.826 3.95-4.32 7.159-6.171 12.466-8.393 1.852-.741 3.456-1.358 5.061-2.592 4.566-3.456 8.64-9.628 8.763-16.663-3.332 5.554-8.023 8.887-11.849 10.245-.617.246-1.234.37-1.851.493-3.333.617-6.789.988-12.713 3.333-3.086 1.358-6.788 3.086-11.479 6.665.124-1.358.864-2.839 1.852-4.197 3.209-4.813 6.171-7.158 10.985-10.12 1.728-.988 3.209-1.975 4.566-3.333 4.074-4.073 7.159-10.861 6.172-17.897-2.469 6.048-6.666 10.121-10.245 12.096-.493.247-1.111.494-1.605.617-3.209 1.111-6.541 2.098-12.096 5.307-2.962 1.852-6.294 4.197-10.367 8.394 0-1.358.493-2.839 1.234-4.32 2.469-5.308 4.937-8.023 9.257-11.849 1.481-1.234 2.839-2.345 4.073-3.95 3.333-4.69 5.307-11.849 3.209-18.637-1.481 6.295-4.937 10.985-8.146 13.453-.494.371-.988.741-1.604.988-2.963 1.605-6.172 2.962-10.986 7.035-2.715 2.345-5.677 5.184-8.886 9.998-.37-1.358-.124-2.962.494-4.567 1.604-5.554 3.579-8.64 7.282-13.083 1.234-1.481 2.468-2.715 3.332-4.567 2.592-5.184 3.333-12.466.247-18.884-.37 6.542-3.086 11.602-5.925 14.565-.493.493-.863.863-1.357 1.234-2.715 1.974-5.678 3.95-9.874 8.763v-.001z"/></g></svg>