<?xml version="1.0" encoding="UTF-8"?>
<!-- Generated by Pixelmator Pro 3.1.1 -->
<svg width="512" height="420" viewBox="0 0 512 420" xmlns="http://www.w3.org/2000/svg" xmlns:xlink="http://www.w3.org/1999/xlink">
    <path id="Path" fill="#000000" fill-rule="evenodd" stroke="none" d="M 74.320313 420 C 33.440353 420 0 386.519684 0 345.679688 L 0 74.150391 C 0 33.240417 33.410355 -0.169922 74.320313 -0.169922 L 437.679688 -0.169922 C 478.549652 -0.169922 512 33.290436 512 74.150391 L 512 345.679688 C 512 386.499664 478.499664 420 437.679688 420 L 74.320313 420 Z M 154.667969 272 L 256.572266 272 L 256.572266 235.359375 L 200.466797 235.359375 L 200.466797 217.955078 L 246.267578 217.955078 L 246.267578 184.751953 L 200.466797 184.751953 L 200.466797 165.515625 L 249.703125 165.515625 L 255.427734 128.875 L 154.667969 128.875 L 154.667969 272 Z M 276.037109 272 L 367.636719 272 L 367.636719 235.359375 L 321.837891 235.359375 L 321.837891 128.875 L 276.037109 128.875 L 276.037109 272 Z"/>
</svg>
