<?xml version="1.0" encoding="UTF-8"?>
<!-- Generated by Pixelmator Pro 3.1.1 -->
<svg width="32" height="32" viewBox="0 0 32 32" xmlns="http://www.w3.org/2000/svg" xmlns:xlink="http://www.w3.org/1999/xlink">
    <g id="FilesFolder11">
        <g id="Group">
            <path id="Path" fill="#ffc10a" stroke="none" d="M 27 6 L 27 28 C 27 29.65 25.65 31 24 31 L 8 31 C 6.35 31 5 29.65 5 28 L 5 6 C 5 4.35 6.35 3 8 3 L 24 3 C 25.65 3 27 4.35 27 6 Z"/>
        </g>
        <g id="g1"/>
    </g>
    <g id="Group-copy">
        <path id="path1" fill="#95a5a6" stroke="none" d="M 9 29.000025 C 7.8954 29.000025 7 28.1 7 27.000025 L 7 19.000025 L 7 15.000025 L 7 9.000025 C 7 7.900049 7.8954 7.000025 9 7.000025 L 23 7.000025 C 24.105 7.000025 25 7.900049 25 9.000025 L 25 15.000025 L 25 19.000025 L 25 23.000025 L 19 29.000025 L 9 29.000025 Z"/>
        <path id="path2" fill="#bdc3c7" stroke="none" d="M 9 28.000025 C 7.8954 28.000025 7 27.1 7 26.000025 L 7 18.000025 L 7 14.000025 L 7 8.000025 C 7 6.900049 7.8954 6.000025 9 6.000025 L 23 6.000025 C 24.105 6.000025 25 6.900049 25 8.000025 L 25 14.000025 L 25 18.000025 L 25 22.000025 L 19 28.000025 L 9 28.000025 Z"/>
        <path id="path3" fill="#95a5a6" stroke="none" d="M 25 22.000025 L 19 28.000025 L 19 24.000025 C 19 22.900049 19.895 22.000025 21 22.000025 L 25 22.000025 Z"/>
        <path id="path4" fill="#95a5a6" stroke="none" d="M 10 21.00005 L 10 20.00005 L 22 20.00005 L 22 21.00005 L 10 21.00005 Z M 10 18.00005 L 10 17.00005 L 22 17.00005 L 22 18.00005 L 10 18.00005 Z M 10 15.00005 L 10 14.00005 L 22 14.00005 L 22 15.00005 L 10 15.00005 Z M 10 12.00005 L 10 11.00005 L 22 11.00005 L 22 12.00005 L 10 12.00005 Z"/>
    </g>
    <path id="path5" fill="#fe9803" stroke="none" d="M 21 3 L 21 5 C 21 6.1 20.1 7 19 7 L 13 7 C 11.9 7 11 6.1 11 5 L 11 3 C 11 1.9 11.9 1 13 1 L 19 1 C 20.1 1 21 1.9 21 3 Z"/>
</svg>
