<svg xmlns="http://www.w3.org/2000/svg" shape-rendering="geometricPrecision" text-rendering="geometricPrecision" image-rendering="optimizeQuality" fill-rule="evenodd" clip-rule="evenodd" viewBox="0 0 512 512"><path fill="#4D4D4D" fill-rule="nonzero" d="M256 0c70.684 0 134.689 28.664 181.012 74.987C483.336 121.311 512 185.316 512 256c0 70.684-28.664 134.689-74.988 181.013C390.689 483.336 326.684 512 256 512c-70.677 0-134.689-28.664-181.013-74.987C28.664 390.689 0 326.676 0 256c0-70.684 28.664-134.689 74.987-181.013C121.311 28.664 185.316 0 256 0z"/><path fill="#fff" fill-rule="nonzero" d="M256.001 19.597c65.278 0 124.382 26.466 167.162 69.242 42.776 42.78 69.242 101.884 69.242 167.162S465.939 380.384 423.16 423.16c-42.777 42.78-101.881 69.246-167.159 69.246-65.278 0-124.382-26.466-167.162-69.243-42.777-42.779-69.243-101.884-69.243-167.162S46.062 131.619 88.839 88.839c42.78-42.776 101.884-69.242 167.162-69.242z"/><path fill="#BF0A30" fill-rule="nonzero" d="M256.001 39.594c46.069 0 88.768 14.407 123.86 38.945H132.139c35.092-24.538 77.791-38.945 123.862-38.945zm167.66 79.584a216.47 216.47 0 0126.233 40.64H62.107a216.47 216.47 0 0126.233-40.64h335.321zM465.2 200.46a216.072 216.072 0 016.687 40.639H40.115a216.072 216.072 0 016.687-40.639H465.2zm5.677 81.281a215.245 215.245 0 01-8.857 40.639H49.981a215.321 215.321 0 01-8.856-40.639h429.752zm-26.751 81.281a216.985 216.985 0 01-29.942 40.64H97.817a216.985 216.985 0 01-29.942-40.64h376.251zm-81.417 81.279c-31.491 17.886-67.905 28.107-106.708 28.107-38.805 0-75.219-10.221-106.709-28.107h213.417z"/><path fill="#fff" fill-rule="nonzero" d="M132.138 78.539h247.723a217.697 217.697 0 0143.801 40.639H88.34a217.681 217.681 0 0143.798-40.639zm-70.031 81.279h387.787H62.107zm403.092 40.642H46.803h418.396zM40.114 241.099h431.774H40.114zm430.764 40.642H41.123h429.755zM49.983 322.38h412.036H49.983zm394.143 40.643H67.876h376.25zm-346.31 40.638h316.37-316.37zm264.893 40.64H149.293h213.416z"/><path fill="#002868" fill-rule="nonzero" d="M277.475 40.651v200.448H40.114C47.772 128.534 141.49 39.594 256.001 39.594c7.247 0 14.409.364 21.474 1.057z"/><path fill="#fff" fill-rule="nonzero" d="M175.044 90.058l-13.687 42.125h-44.282l35.824 26.034-13.684 42.116 35.829-26.028 35.834 26.036-13.688-42.126 35.828-26.029-44.287-.003z"/></svg>