<?xml version="1.0" encoding="UTF-8"?>
<!-- Generated by Pixelmator Pro 3.1.1 -->
<svg width="512" height="420" viewBox="0 0 512 420" xmlns="http://www.w3.org/2000/svg" xmlns:xlink="http://www.w3.org/1999/xlink">
    <path id="Path" fill="#000000" fill-rule="evenodd" stroke="none" d="M 74.320313 420 C 33.440353 420 0 386.519684 0 345.679688 L 0 74.150391 C 0 33.240417 33.410355 -0.169922 74.320313 -0.169922 L 437.679688 -0.169922 C 478.549652 -0.169922 512 33.290436 512 74.150391 L 512 345.679688 C 512 386.499664 478.499664 420 437.679688 420 L 74.320313 420 Z M 122.607422 272 L 168.408203 272 L 168.408203 221.390625 L 202.757813 221.390625 L 202.757813 272 L 248.556641 272 L 248.556641 128.875 L 202.757813 128.875 L 202.757813 179.484375 L 168.408203 179.484375 L 168.408203 128.875 L 122.607422 128.875 L 122.607422 272 Z M 271.457031 272 L 317.257813 272 L 317.257813 229.40625 L 327.105469 229.40625 L 345.882813 272 L 396.261719 272 L 371.53125 224.367188 C 385.72934 217.039154 392.828125 201.925476 392.828125 179.025391 C 392.828125 145.591248 376.415253 128.875 343.591797 128.875 L 271.457031 128.875 L 271.457031 272 Z M 317.257813 194.140625 L 317.257813 165.515625 L 327.791016 165.515625 C 333.287048 165.515625 337.295441 166.087418 339.814453 167.232422 C 342.333466 168.377426 343.591797 171.010803 343.591797 175.132813 L 343.591797 184.521484 C 343.591797 188.643509 342.333466 191.276871 339.814453 192.421875 C 337.295441 193.566879 333.287048 194.140625 327.791016 194.140625 L 317.257813 194.140625 Z"/>
</svg>
