<svg xmlns="http://www.w3.org/2000/svg" shape-rendering="geometricPrecision" text-rendering="geometricPrecision" image-rendering="optimizeQuality" fill-rule="evenodd" clip-rule="evenodd" viewBox="0 0 512 512"><g fill-rule="nonzero"><path fill="#4D4D4D" d="M256 0c70.684 0 134.689 28.664 181.012 74.987C483.336 121.311 512 185.316 512 256c0 70.684-28.664 134.689-74.988 181.013C390.689 483.336 326.684 512 256 512c-70.677 0-134.689-28.664-181.013-74.987C28.664 390.689 0 326.676 0 256c0-70.684 28.664-134.689 74.987-181.013C121.311 28.664 185.316 0 256 0z"/><path fill="#fff" d="M256.001 19.597c65.278 0 124.382 26.466 167.162 69.242 42.777 42.78 69.242 101.884 69.242 167.162S465.94 380.384 423.16 423.16c-42.777 42.78-101.881 69.246-167.159 69.246-65.278 0-124.383-26.466-167.162-69.243-42.777-42.779-69.243-101.884-69.243-167.162S46.062 131.619 88.839 88.839c42.779-42.776 101.884-69.242 167.162-69.242z"/><path fill="#1EB53A" d="M428.592 125.449L69.089 365.116c-18.743-32.037-29.495-69.32-29.495-109.115 0-119.52 96.886-216.407 216.407-216.407 70.479 0 133.079 33.699 172.591 85.855z"/><path fill="#00A3DD" d="M69.089 365.116l359.503-239.667c27.496 36.29 43.816 81.511 43.816 130.552 0 119.518-96.89 216.407-216.407 216.407-79.723 0-149.367-43.113-186.912-107.292z"/><path fill="#FCD116" d="M40.943 280.173L361.05 66.772c51.822 28.831 90.557 78.329 105.081 137.351L127.317 429.998c-47.116-34.909-79.554-88.5-86.374-149.825z"/><path d="M46.239 309.394L385.931 82.932c31.844 23.945 56.864 56.477 71.63 94.156L105.687 411.671C77.228 384.18 56.28 348.964 46.239 309.394z"/></g></svg>