<svg xmlns="http://www.w3.org/2000/svg" shape-rendering="geometricPrecision" text-rendering="geometricPrecision" image-rendering="optimizeQuality" fill-rule="evenodd" clip-rule="evenodd" viewBox="0 0 512 512"><path fill="#999" fill-rule="nonzero" d="M256 0c70.68 0 134.69 28.66 181.01 74.99C483.34 121.31 512 185.32 512 256c0 70.68-28.66 134.69-74.99 181.01C390.69 483.34 326.68 512 256 512c-70.68 0-134.69-28.66-181.01-74.99C28.66 390.69 0 326.68 0 256c0-70.68 28.66-134.69 74.99-181.01C121.31 28.66 185.32 0 256 0z"/><path fill="#fff" fill-rule="nonzero" d="M256 19.48c65.3 0 124.46 26.48 167.25 69.27l1.09 1.18c42.14 42.71 68.18 101.37 68.18 166.06 0 65.31-26.5 124.46-69.29 167.25l-1.18 1.09c-42.73 42.16-101.4 68.19-166.05 68.19-65.23 0-124.37-26.51-167.18-69.33-42.84-42.74-69.33-101.89-69.33-167.2 0-65.31 26.48-124.45 69.27-167.24C131.55 45.96 190.7 19.48 256 19.48z"/><path fill="none" d="m239.83 471.81-.47-.03-2.34-.22C127.44 460.42 41.96 367.91 41.96 255.41c0-85.69 49.6-159.77 121.65-195.14 28.03-13.25 59.34-20.68 92.39-20.68 119.52 0 216.41 96.89 216.41 216.4 0 119.52-96.89 216.42-216.41 216.42-5.44 0-10.81-.2-16.17-.6z"/><path fill="#CC0001" fill-rule="nonzero" d="M256 39.59c119.52 0 216.41 96.89 216.41 216.4 0 119.52-96.89 216.42-216.41 216.42-119.51 0-216.4-96.9-216.4-216.42 0-119.51 96.89-216.4 216.4-216.4z"/><path fill="#fff" fill-rule="nonzero" d="M156.47 448.2h199.06c-29.8 15.45-63.64 24.21-99.53 24.21-35.88 0-69.72-8.76-99.53-24.21zm-74.89-64.11h348.84a219.606 219.606 0 0 1-28.86 32.06H110.45a219.674 219.674 0 0 1-28.87-32.06zm-32.37-64.1h413.58c-3.43 11.1-7.76 21.8-12.84 32.05H62.06a215.431 215.431 0 0 1-12.85-32.05zm-9.61-64.22h432.81v.22c0 10.82-.8 21.45-2.33 31.84H41.93a217.052 217.052 0 0 1-2.33-31.84v-.22zm9.71-64.1H462.7a214 214 0 0 1 7.32 32.05H41.99c1.63-10.98 4.09-21.68 7.32-32.05zm32.53-64.11h348.33c7.43 10.06 14 20.78 19.62 32.05H62.22a216.782 216.782 0 0 1 19.62-32.05zm75.28-64.1h197.77a216.855 216.855 0 0 1 46.29 32.05H110.83a216.855 216.855 0 0 1 46.29-32.05z"/><path fill="#010066" fill-rule="nonzero" d="M274.63 40.4v215.37H39.6C39.73 136.35 136.57 39.59 256 39.59c6.28 0 12.48.29 18.63.81z"/><path fill="#FC0" fill-rule="nonzero" d="M159.34 115.46c-29.22 0-53.01 23.65-53.01 52.8 0 29.16 23.79 52.81 53.01 52.81 10.55 0 20.41-3.11 28.65-8.37a47.783 47.783 0 0 1-15.38 2.53c-25.91 0-47-20.97-47-46.86 0-25.83 21-46.83 47-46.83 5.73 0 11.26 1.03 16.33 2.93-8.44-5.7-18.6-9.01-29.6-9.01zm87.87 80.32-22.29-11.64 6.62 23.84-14.94-19.96-4.65 24.28-4.63-24.28-14.93 19.91 6.67-23.85-22.36 11.56 16.56-18.61-25.27.95 23.26-9.72-23.26-9.85 25.35 1.03-16.6-18.69 22.32 11.69-6.54-23.83 14.87 19.89 4.72-24.26 4.54 24.32 14.98-19.95-6.63 23.83 22.36-11.55-16.66 18.6 25.29-.94-23.27 9.79 23.27 9.79-25.29-1.03 16.51 18.68z"/></svg>