<?xml version="1.0" encoding="UTF-8"?>
<!-- Generated by Pixelmator Pro 3.1.1 -->
<svg width="1750" height="1750" viewBox="0 0 1750 1750" xmlns="http://www.w3.org/2000/svg" xmlns:xlink="http://www.w3.org/1999/xlink">
    <path id="Path" fill="#41a5ee" stroke="none" d="M 1652.795166 0 L 97.204811 0 C 43.519989 0 -0 35.904053 -0 80.19397 C -0 80.19397 -0 80.19397 -0 80.19397 L -0 437.5 L 901.515137 656.25 L 1750 437.5 L 1750 80.19397 C 1750 35.904053 1706.47998 0 1652.795166 0 L 1652.795166 0 Z"/>
    <path id="path1" fill="#2b7cd3" stroke="none" d="M 1750 437.5 L -0 437.5 L -0 875 L 901.515137 1006.25 L 1750 875 L 1750 437.5 Z"/>
    <path id="path2" fill="#185abd" stroke="none" d="M -0 875 L -0 1312.5 L 848.484863 1400 L 1750 1312.5 L 1750 875 L -0 875 Z"/>
    <path id="path3" fill="#103f91" stroke="none" d="M 97.204742 1750 L 1652.795288 1750 C 1706.480103 1750 1750 1714.095947 1750 1669.80603 L 1750 1669.80603 L 1750 1312.5 L -0 1312.5 L -0 1669.80603 C -0 1714.095947 43.519962 1750 97.204742 1750 L 97.204742 1750 Z"/>
    <path id="Path-copy-3" fill="#ffffff" stroke="none" d="M 950.143982 894.656982 C 938.257019 882.314026 905.799988 887.343018 898.028992 888.257019 C 886.601013 877.285034 878.830017 864.028015 876.087036 859.457031 C 880.200989 847.114014 882.942993 834.770996 883.401001 821.515015 C 883.401001 810.085999 878.830017 797.744019 866.028992 797.744019 C 861.458008 797.744019 857.343018 800.486023 855.057007 804.143005 C 849.572021 813.744019 851.856995 832.944031 860.54303 852.601013 C 855.515015 866.772034 850.942993 880.486023 838.143005 904.715027 C 824.885986 910.199036 797 923 794.713989 936.715027 C 793.799988 940.828003 795.171021 944.944031 798.370972 948.143005 C 801.570984 950.885986 805.684998 952.257019 809.799988 952.257019 C 826.713989 952.257019 843.171021 928.944031 854.599976 909.285034 C 864.200012 906.085999 879.286011 901.514038 894.372009 898.770996 C 912.200012 914.314026 927.742981 916.598999 935.971985 916.598999 C 946.942993 916.598999 951.057983 912.028015 952.429016 907.913025 C 954.713989 903.343018 953.343018 898.314026 950.143982 894.656982 Z M 938.713989 902.429016 C 938.257019 905.629028 934.143982 908.828003 926.828979 907 C 918.143005 904.715027 910.372009 900.600037 903.515015 895.114014 C 909.458008 894.199036 922.713989 892.828003 932.315002 894.656982 C 935.971985 895.570984 939.629028 897.856995 938.713989 902.429016 Z M 862.372009 808.257019 C 863.286011 806.885986 864.65802 805.971985 866.028992 805.971985 C 870.143005 805.971985 871.057007 811 871.057007 815.11499 C 870.599976 824.716003 868.770996 834.315002 865.572021 843.458008 C 858.713989 825.171997 860.085999 812.371033 862.372009 808.257019 Z M 861.458008 896.942993 C 865.11499 889.629028 870.143982 876.828003 871.971985 871.342041 C 876.085999 878.197998 882.942993 886.427979 886.601013 890.085022 C 886.601013 890.54303 872.429016 893.285034 861.458008 896.942993 Z M 834.486023 915.229004 C 823.971985 932.600037 813 943.570984 807.057007 943.570984 C 806.143005 943.570984 805.228027 943.114014 804.314026 942.656982 C 802.942017 941.742004 802.484985 940.371033 802.942017 938.54303 C 804.314026 932.143005 816.200012 923.457031 834.486023 915.229004 Z"/>
    <linearGradient id="linearGradient1" x1="560.2057" y1="331.0883" x2="1188.2943" y2="1418.9117" gradientUnits="userSpaceOnUse">
        <stop offset="1e-05" stop-color="#2368c4" stop-opacity="1"/>
        <stop offset="0.5" stop-color="#1a5dbe" stop-opacity="1"/>
        <stop offset="1" stop-color="#1146ac" stop-opacity="1"/>
    </linearGradient>
    <path id="path4" fill="url(#linearGradient1)" stroke="none" d="M 473.194 393.75 L 1275.30603 393.75 C 1319.595947 393.75 1355.5 429.654053 1355.5 473.94397 L 1355.5 1276.057007 C 1355.5 1320.347046 1319.595947 1356.250977 1275.30603 1356.250977 L 473.194 1356.250977 C 428.903992 1356.250977 393 1320.347046 393 1276.057007 L 393 473.94397 C 393 429.654053 428.903992 393.75 473.194 393.75 Z"/>
    <path id="Path-copy" fill="#000000" stroke="none" opacity="0.2" d="M 1319.30603 393.75 L 874.5 393.75 L 874.5 1400 L 1319.30603 1400 C 1363.536011 1399.855957 1399.355957 1364.036011 1399.5 1319.80603 L 1399.5 473.94397 C 1399.355957 429.713989 1363.536011 393.894043 1319.30603 393.75 Z"/>
    <path id="Path-copy-2" fill="#000000" stroke="none" opacity="0.2" d="M 429.69397 1400 L 874.5 1400 L 874.5 393.75 L 429.69397 393.75 C 385.463989 393.894043 349.643982 429.713989 349.5 473.94397 L 349.5 1319.80603 C 349.643982 1364.036011 385.463989 1399.855957 429.69397 1400 Z"/>
    <path id="path5" fill="#ffffff" stroke="none" d="M 722.088013 1008.788025 C 723.662964 1021.169006 724.713013 1031.932007 725.19397 1041.162964 L 727.031006 1041.162964 C 727.730957 1032.412964 729.188965 1021.869019 731.406006 1009.531982 C 733.622986 997.19397 735.620972 986.767029 737.399963 978.250977 L 821.75 614.338013 L 930.81897 614.338013 L 1018.31897 972.781982 C 1023.403015 995.070007 1027.041992 1017.663025 1029.213013 1040.418945 L 1030.656982 1040.418945 C 1032.287964 1018.372009 1035.328003 996.453003 1039.756958 974.794006 L 1109.537964 614.163086 L 1208.807007 614.163086 L 1086.218994 1135.662964 L 970.237976 1135.662964 L 887.112976 790.299988 C 884.70697 780.369019 881.950989 767.375 878.932007 751.406006 C 875.912964 735.437012 874.031982 723.755981 873.287964 716.406006 L 871.843994 716.406006 C 870.881958 724.893066 869 737.494019 866.200012 754.205994 C 863.399963 770.919006 861.153992 783.284973 859.461975 791.30603 L 781.323975 1135.574951 L 663.373962 1135.574951 L 540.130981 614.336914 L 641.192993 614.336914 L 717.187012 978.992981 C 718.893982 986.474976 720.513 996.450012 722.088013 1008.788025 Z"/>
</svg>
