<svg xmlns="http://www.w3.org/2000/svg" shape-rendering="geometricPrecision" text-rendering="geometricPrecision" image-rendering="optimizeQuality" fill-rule="evenodd" clip-rule="evenodd" viewBox="0 0 512 512"><g fill-rule="nonzero"><path fill="#4D4D4D" d="M256 0c70.684 0 134.69 28.664 181.013 74.987C483.337 121.311 512 185.316 512 256c0 70.684-28.663 134.689-74.987 181.013C390.69 483.336 326.684 512 256 512c-70.676 0-134.689-28.664-181.013-74.987C28.664 390.689 0 326.676 0 256c0-70.684 28.664-134.689 74.987-181.013C121.311 28.664 185.317 0 256 0z"/><path fill="#fff" d="M256.002 19.596c65.277 0 124.382 26.467 167.162 69.243 42.776 42.78 69.242 101.884 69.242 167.162s-26.466 124.383-69.245 167.16c-42.777 42.779-101.882 69.245-167.159 69.245-65.278 0-124.383-26.466-167.163-69.243-42.776-42.779-69.242-101.884-69.242-167.162S46.063 131.619 88.839 88.839c42.78-42.776 101.885-69.243 167.163-69.243z"/><path fill="#fff" d="M256.002 39.594c119.517 0 216.407 96.887 216.407 216.407 0 119.518-96.89 216.407-216.407 216.407-119.521 0-216.407-96.889-216.407-216.407 0-119.52 96.886-216.407 216.407-216.407z"/><path d="M467.434 209.735H44.569C65.76 112.45 152.364 39.594 256.002 39.594c103.635 0 190.242 72.856 211.432 170.141z"/><path fill="#FCD116" d="M114.006 209.735l72.369-13.851-61.561-40.495 72.162 14.9-41.377-60.968 60.968 41.377-14.897-72.162 40.492 61.561 13.851-72.369 13.852 72.369 40.491-61.561-14.896 72.162 60.968-41.377-41.378 60.968 72.162-14.9-61.561 40.495 72.369 13.851-142.007 27.181z"/><path fill="#0072C6" d="M44.569 209.735h422.865a217.192 217.192 0 014.975 46.266c0 16.641-1.884 32.843-5.441 48.406H45.035a217.046 217.046 0 01-5.44-48.406c0-15.882 1.727-31.357 4.974-46.266z"/><path fill="#CE1126" d="M47.255 198.786l202.163 273.513c-116.473-3.484-209.823-98.982-209.823-216.298 0-19.809 2.674-38.989 7.66-57.215zm416.563-3.306c5.585 19.209 8.591 39.511 8.591 60.521 0 119.518-96.89 216.407-216.407 216.407-.957 0-1.91-.02-2.864-.035l210.68-276.893z"/></g></svg>