<svg xmlns="http://www.w3.org/2000/svg" shape-rendering="geometricPrecision" text-rendering="geometricPrecision" image-rendering="optimizeQuality" fill-rule="evenodd" clip-rule="evenodd" viewBox="0 0 512 512"><path fill="#4D4D4D" fill-rule="nonzero" d="M256 0c70.684 0 134.689 28.664 181.012 74.987C483.336 121.311 512 185.316 512 256c0 70.684-28.664 134.689-74.988 181.013C390.689 483.336 326.684 512 256 512c-70.677 0-134.689-28.664-181.013-74.987C28.664 390.689 0 326.676 0 256c0-70.684 28.664-134.689 74.987-181.013C121.311 28.664 185.316 0 256 0z"/><path fill="#fff" fill-rule="nonzero" d="M256.001 19.597c65.278 0 124.382 26.466 167.162 69.242 42.776 42.78 69.242 101.884 69.242 167.162S465.939 380.384 423.16 423.16c-42.777 42.78-101.881 69.246-167.159 69.246-65.278 0-124.382-26.466-167.162-69.243-42.777-42.779-69.243-101.884-69.243-167.162S46.062 131.619 88.839 88.839c42.78-42.776 101.884-69.242 167.162-69.242z"/><path fill="#003580" d="M281.398 470.917h-50.797C123.051 458.344 39.594 366.925 39.594 256.001c0-119.52 96.886-216.407 216.407-216.407 119.517 0 216.407 96.887 216.407 216.407 0 110.924-83.463 202.343-191.01 214.916z"/><path fill="#009543" d="M284.784 470.498h-57.569c-49.027-6.518-92.857-29.448-125.806-63.081l353.873-235.918c11.024 25.964 17.126 54.52 17.126 84.502 0 109.758-81.716 200.418-187.624 214.497z"/><path fill="#FACE33" d="M136.79 82.947l11.195 30.336 24.916-20.656-5.488 31.921 31.924-5.488-20.658 24.919 30.335 11.195-30.335 11.194 20.658 24.916-31.924-5.488 5.488 31.925-24.916-20.656-11.195 30.333-11.194-30.333-24.919 20.656 5.488-31.925-31.922 5.488L94.9 166.368l-30.337-11.194L94.9 143.979l-13.324-16.074a218.287 218.287 0 015.134-6.701l19.455 3.344-3.631-21.116a222.406 222.406 0 015.145-4.998l17.914 14.849 11.197-30.336z"/><path fill="#003580" fill-rule="nonzero" d="M172.901 155.174c0-9.973-4.041-19.003-10.575-25.536-6.536-6.536-15.563-10.578-25.536-10.578-9.972 0-19.002 4.042-25.536 10.578-6.535 6.533-10.577 15.563-10.577 25.536 0 9.972 4.042 19 10.577 25.536 6.534 6.533 15.564 10.574 25.536 10.574 9.973 0 19-4.041 25.536-10.574 6.534-6.536 10.575-15.564 10.575-25.536zm-5.47-30.644c7.844 7.844 12.694 18.676 12.694 30.644 0 11.965-4.85 22.799-12.694 30.64-7.841 7.844-18.675 12.694-30.641 12.694-11.967 0-22.802-4.85-30.643-12.694-7.843-7.841-12.694-18.675-12.694-30.64 0-11.968 4.851-22.8 12.694-30.644 7.841-7.84 18.676-12.691 30.643-12.691 11.966 0 22.8 4.851 30.641 12.691z"/><path fill="#fff" d="M66.288 360.18l358.815-239.21c29.595 37.017 47.305 83.95 47.305 135.031 0 2.386-.054 4.756-.13 7.121L179.334 458.418c-48.33-18.315-88.393-53.437-113.046-98.238z"/><path fill="#D21034" d="M75.655 375.634l360.146-240.095c20.618 30.714 33.563 66.996 36.122 106.118L159.675 449.824c-34.091-16.977-63.075-42.679-84.02-74.19z"/></svg>