<?xml version="1.0" encoding="UTF-8"?>
<!-- Generated by Pixelmator Pro 3.1.1 -->
<svg width="14" height="14" viewBox="0 0 14 14" xmlns="http://www.w3.org/2000/svg" xmlns:xlink="http://www.w3.org/1999/xlink">
    <g id="Group">
        <path id="Path" fill="#b51700" stroke="none" d="M 12.383 1.82201 L 4.451 1.82201 C 4.19973 1.82189 3.95189 1.880301 3.72711 1.992599 C 3.50233 2.1049 3.3068 2.26801 3.156 2.46901 L 0.200003 6.41701 C 0.07391 6.58522 0.005753 6.78978 0.005753 7.00001 C 0.005753 7.21023 0.07391 7.41479 0.200003 7.58301 L 3.161 11.531 C 3.3118 11.732 3.50733 11.8951 3.73211 12.0074 C 3.95689 12.1197 4.20473 12.1781 4.456 12.178 L 12.388 12.178 C 12.816 12.1762 13.2259 12.0049 13.5279 11.7017 C 13.83 11.3985 13.9997 10.988 14 10.56 L 14 3.44001 C 13.9997 3.01114 13.8293 2.5999 13.5262 2.29655 C 13.223 1.99321 12.8119 1.82254 12.383 1.82201 Z M 9.811 5.92201 L 8.734 7.00001 L 9.811 8.07701 C 9.88574 8.1468 9.94567 8.23092 9.98722 8.32437 C 10.0288 8.41781 10.0511 8.51866 10.0528 8.6209 C 10.0546 8.72315 10.0357 8.8247 9.9974 8.91951 C 9.95908 9.01432 9.90206 9.10044 9.82975 9.17275 C 9.75744 9.24506 9.67132 9.30208 9.57651 9.3404 C 9.4817 9.37873 9.38015 9.39758 9.2779 9.39583 C 9.17565 9.39408 9.0748 9.37177 8.98136 9.33022 C 8.88792 9.28868 8.8038 9.22875 8.734 9.15401 L 7.657 8.07701 L 6.58 9.15401 C 6.50929 9.22492 6.42529 9.28121 6.33282 9.31966 C 6.24035 9.35812 6.14121 9.37798 6.04106 9.37812 C 5.94091 9.37826 5.84172 9.35867 5.74914 9.32048 C 5.65656 9.28228 5.57242 9.22622 5.5015 9.15551 C 5.43059 9.08479 5.3743 9.0008 5.33584 8.90833 C 5.29739 8.81585 5.27753 8.71672 5.27739 8.61657 C 5.27725 8.51642 5.29684 8.41722 5.33503 8.32465 C 5.37323 8.23207 5.42929 8.14792 5.5 8.07701 L 6.58 7.00001 L 5.5 5.92301 C 5.35718 5.77966 5.27716 5.58544 5.27753 5.38309 C 5.27791 5.18074 5.35865 4.98683 5.502 4.844009 C 5.64535 4.70119 5.83956 4.621161 6.04192 4.62154 C 6.24427 4.62191 6.43818 4.70266 6.581 4.84601 L 7.657 5.92301 L 8.734 4.84601 C 8.8038 4.77127 8.88792 4.71134 8.98136 4.66979 C 9.0748 4.62825 9.17565 4.60594 9.2779 4.60419 C 9.38015 4.60244 9.4817 4.62129 9.57651 4.65961 C 9.67132 4.697929 9.75744 4.75495 9.82975 4.82726 C 9.90206 4.89957 9.95908 4.98569 9.9974 5.0805 C 10.0357 5.17531 10.0546 5.27686 10.0528 5.37911 C 10.0511 5.481359 10.0288 5.5822 9.98722 5.67565 C 9.94567 5.769091 9.88574 5.85321 9.811 5.92301 L 9.811 5.92201 Z"/>
    </g>
</svg>
