<?xml version="1.0" encoding="UTF-8"?>
<!-- Generated by Pixelmator Pro 3.1.1 -->
<svg width="421" height="511" viewBox="0 0 421 511" xmlns="http://www.w3.org/2000/svg" xmlns:xlink="http://www.w3.org/1999/xlink">
    <path id="Path" fill="#d783ff" fill-rule="evenodd" stroke="none" d="M 95.705002 -0.591003 L 294.799011 -0.591003 L 421 135.942993 L 421 453.497986 C 421 485.037994 395.039001 511 363.497986 511 L 95.705002 511 C 64.154999 511 38.202999 485.126984 38.202999 453.497986 L 38.202999 56.910004 C 38.202999 25.281006 64.075996 -0.591003 95.705002 -0.591003 Z"/>
    <path id="path1" fill="#531b93" fill-rule="evenodd" stroke="none" d="M 341.028015 132.803009 L 341.009003 132.803009 L 421 188.165985 L 421 136.100006 L 366.643005 136.100006 C 357.184998 135.949982 348.644989 134.825989 341.028015 132.803009 Z"/>
    <path id="path2" fill="#ff85ff" fill-rule="evenodd" stroke="none" d="M 294.799988 -0.605011 L 421 135.928009 L 421 136.100006 L 366.643005 136.100006 C 321.575012 135.381989 297.312988 112.703003 294.799988 74.716003 L 294.799988 -0.605011 Z"/>
    <path id="path3" fill="#531b93" stroke="none" d="M -0 431.29599 L -0 252.799011 L 0.028 251.537994 C 0.696 235.09201 14.361 221.832001 30.964001 221.832001 L 38.202 221.832001 L 38.202 272.421021 L 381.177002 272.421021 C 394.039001 272.421021 404.549988 282.93103 404.549988 295.791992 L 404.549988 431.29599 C 404.549988 444.125977 394.006989 454.668976 381.177002 454.668976 L 23.372999 454.668976 C 10.541 454.668976 -0 444.144989 -0 431.29599 Z"/>
    <path id="path4" fill="#942193" stroke="none" d="M 143.447998 239.759003 C 141.19455 239.759003 139.033401 238.863739 137.440063 237.270233 C 135.846725 235.676697 134.951736 233.515442 134.951996 231.261993 C 134.951736 229.008545 135.846725 226.84729 137.440063 225.253784 C 139.033401 223.660248 141.19455 222.764984 143.447998 222.764984 L 306.623993 222.764984 C 308.877441 222.764984 311.038605 223.660248 312.631927 225.253784 C 314.225281 226.84729 315.12027 229.008545 315.119995 231.261993 C 315.12027 233.515442 314.225281 235.676697 312.631927 237.270233 C 311.038605 238.863739 308.877441 239.759003 306.623993 239.759003 L 143.447998 239.759003 Z M 143.447998 180.583008 C 138.755508 180.583008 134.951508 176.778992 134.951508 172.086487 C 134.951508 167.394012 138.755508 163.589996 143.447998 163.589996 L 315.752014 163.589996 C 320.444489 163.589996 324.248505 167.394012 324.248505 172.086487 C 324.248505 176.778992 320.444489 180.583008 315.752014 180.583008 L 143.447998 180.583008 Z"/>
    <path id="path5" fill="#ffffff" stroke="none" d="M 11.329 275.565979 L 11.329 430.293976 C 11.329 438.086975 17.709 444.471985 25.507999 444.471985 L 380.174988 444.471985 C 387.973999 444.471985 394.352997 438.092987 394.352997 430.293976 L 394.352997 296.799988 C 394.352997 289.002014 387.964996 282.622009 380.174988 282.622009 L 37.891998 282.622009 C 25.274 282.526001 18.306 280.984009 11.329 275.565979 Z"/>
    <path id="path6" fill="#1a1a1a" stroke="none" d="M 159.472 340.038025 L 140.473007 340.038025 L 140.473007 400.96698 L 114.266998 400.96698 L 114.266998 340.038025 L 95.267998 340.038025 L 95.267998 319.072998 L 159.472 319.072998 L 159.472 340.038025 Z M 193.802002 319.072998 L 202.843002 340.957031 L 204.153 340.957031 L 213.192993 319.072998 L 241.626999 319.072998 L 223.412994 358.643982 L 241.626999 400.96698 L 212.537994 400.96698 L 202.712006 377.382019 L 201.531998 377.382019 L 191.837006 400.96698 L 164.057999 400.96698 L 181.876999 359.432007 L 164.057999 319.072998 L 193.802002 319.072998 Z M 310.416992 340.038025 L 291.417999 340.038025 L 291.417999 400.96698 L 265.212006 400.96698 L 265.212006 340.038025 L 246.212997 340.038025 L 246.212997 319.072998 L 310.416992 319.072998 L 310.416992 340.038025 Z"/>
</svg>
