<svg xmlns="http://www.w3.org/2000/svg" shape-rendering="geometricPrecision" text-rendering="geometricPrecision" image-rendering="optimizeQuality" fill-rule="evenodd" clip-rule="evenodd" viewBox="0 0 512 512"><g fill-rule="nonzero"><path fill="#999" d="M256 0c70.683 0 134.689 28.664 181.012 74.987C483.336 121.311 512 185.316 512 256c0 70.684-28.664 134.689-74.988 181.012C390.689 483.336 326.683 512 256 512c-70.677 0-134.689-28.664-181.013-74.988C28.663 390.689 0 326.676 0 256c0-70.684 28.663-134.689 74.987-181.013C121.311 28.664 185.316 0 256 0z"/><path fill="#fff" d="M256.003 19.479c65.293 0 124.458 26.478 167.248 69.268l1.092 1.188c42.141 42.71 68.176 101.368 68.176 166.059 0 65.309-26.494 124.458-69.284 167.248l-1.188 1.092c-42.726 42.157-101.4 68.192-166.044 68.192-65.229 0-124.378-26.51-167.184-69.332-42.837-42.742-69.331-101.891-69.331-167.2 0-65.309 26.478-124.457 69.268-167.247 42.79-42.79 101.939-69.268 167.247-69.268z"/><path fill="#fff" d="M256.003 39.591c119.517 0 216.404 96.887 216.404 216.403 0 119.517-96.887 216.42-216.404 216.42-119.516 0-216.403-96.903-216.403-216.42 0-119.516 96.887-216.403 216.403-216.403z"/><path fill="#001489" d="M453.878 168.277H58.128C91.781 92.468 167.716 39.591 256.003 39.591c88.288 0 164.223 52.877 197.875 128.686z"/><path fill="#009A44" d="M57.622 342.556h396.763c-33.399 76.426-109.651 129.858-198.382 129.858-88.73 0-164.983-53.432-198.381-129.858z"/><path d="M258.671 175.241h.008a6.1 6.1 0 015.423 3.306c12.916 1.541 19.709 10.893 22.074 21.771 2.762 12.713-.163 30.002-9.134 48.155l34.46 45.727a123.324 123.324 0 005.428-2.695l12.667 26.812a154.44 154.44 0 01-70.926 17.267 154.368 154.368 0 01-70.917-17.268l12.667-26.813c1.756.93 3.612 1.858 5.422 2.695l34.461-45.727c-8.971-18.152-11.897-35.441-9.135-48.155 2.366-10.877 9.158-20.23 22.074-21.77a6.094 6.094 0 015.42-3.305h.008zm13.648 66.961c6.987-15.601 9.258-30.392 7.049-40.172-1.953-8.652-6.334-15.079-15.033-16.448v22.338l10.893 10.893h-8.714v15.686l5.805 7.703zm-19.312-56.62c-8.699 1.369-13.08 7.796-15.033 16.448-2.209 9.78.063 24.571 7.049 40.172l5.805-7.703v-15.686h-8.714l10.893-10.894v-22.337zm-48.365 117.387l-3.727 7.874 6.03-1.619-2.303-6.255zm-3.035 11.297a139.387 139.387 0 008.405 3.308l-1.86-5.058-6.545 1.75zm13.718-1.182l7.819-2.475-2.249-5.042a130.652 130.652 0 01-9.555-3.317l3.985 10.834zm9.243.731l-8.037 2.545 1.393 3.781c3.497 1.03 7.1 1.93 10.667 2.69l-4.023-9.016zm8.684 3.424l8.612-3.533-2.061-3.898a128.932 128.932 0 01-10.772-2.057l4.221 9.488zm10.254-.436l-8.839 3.618 1.712 3.851c3.901.597 7.857 1.056 11.795 1.338l-4.668-8.807zm8.684 2.443l10.745-5.617-1.556-2.475c-.891.013-1.826.029-2.73.029-3.662 0-7.323-.159-10.969-.46l4.51 8.523zm12.62-2.661l-10.986 5.742 1.929 3.642c.962.011 1.95.029 2.922.029 3.92 0 7.876-.159 11.779-.477l-5.644-8.936zm9.018 2.039l8.45-5.805-2.451-3.369a133.107 133.107 0 01-10.957 1.332l4.958 7.842zm10.504-2.988l-8.637 5.937 2 3.167c3.932-.504 7.906-1.228 11.773-2.058l-5.136-7.046zm7.858-.319l7.034-6.24-2.871-3.478c-3.109.932-6.28 1.788-9.45 2.486l5.287 7.232zm9.259-3.556l-7.197 6.388 2.085 2.864a147.46 147.46 0 0010.159-3.151l-5.047-6.101zm7.175-1.58l4.769-5.749-2.078-4.396a132.78 132.78 0 01-8.311 3.341l5.62 6.804zm6.418-2.271l-4.155 5.003 2.078 2.513a160.916 160.916 0 004.692-1.996l-2.615-5.52z"/></g></svg>