<?xml version="1.0" encoding="UTF-8"?>
<!-- Generated by Pixelmator Pro 3.1.1 -->
<svg width="1944" height="1944" viewBox="0 0 1944 1944" xmlns="http://www.w3.org/2000/svg" xmlns:xlink="http://www.w3.org/1999/xlink">
    <g id="Group">
        <g id="g1">
            <path id="Path" fill="#95a5a6" stroke="none" d="M 405 162.001953 C 315.527405 162.001953 243 234.903931 243 324.001953 L 243 972.002014 L 243 1296.001953 L 243 1782.001953 C 243 1871.099976 315.527405 1944.001953 405 1944.001953 L 1539 1944.001953 C 1628.505005 1944.001953 1701 1871.099976 1701 1782.001953 L 1701 1296.001953 L 1701 972.002014 L 1701 648.001953 L 1215 162.001953 L 405 162.001953 Z"/>
            <path id="path1" fill="#bdc3c7" stroke="none" d="M 405 81.001953 C 315.527405 81.001953 243 153.903931 243 243.001953 L 243 891.001953 L 243 1215.001953 L 243 1701.001953 C 243 1790.099976 315.527405 1863.001953 405 1863.001953 L 1539 1863.001953 C 1628.505005 1863.001953 1701 1790.099976 1701 1701.001953 L 1701 1215.001953 L 1701 891.001953 L 1701 567.001953 L 1215 81.001953 L 405 81.001953 Z"/>
            <path id="path2" fill="#95a5a6" stroke="none" d="M 1701 567.001953 L 1215 81.001953 L 1215 405.001953 C 1215 494.099976 1287.494995 567.001953 1377 567.001953 L 1701 567.001953 Z"/>
        </g>
        <g id="g2">
            <path id="path3" fill="#7f8c8d" stroke="none" d="M 1364.99585 1280.285889 C 1364.99585 1263.356934 1359.090942 1249.02002 1347.281128 1237.194092 L 1215.656128 1105.569092 C 1203.838257 1093.823975 1189.493164 1087.910889 1172.62085 1087.910889 C 1154.898071 1087.910889 1139.750977 1094.634033 1127.034058 1108.160889 C 1128.330078 1109.375977 1132.29895 1113.426025 1139.103027 1120.149048 C 1145.834106 1126.467041 1150.264771 1130.921997 1152.37085 1133.432983 C 1154.898071 1135.944092 1158.065063 1139.994019 1161.864014 1145.501953 C 1166.084106 1150.928955 1168.821899 1156.437012 1170.093628 1161.945068 C 1171.778442 1166.967041 1172.62085 1172.718018 1172.62085 1179.035889 C 1172.62085 1195.884033 1166.715942 1210.220947 1154.906128 1222.046997 C 1143.088257 1233.873047 1128.734985 1239.785889 1111.886963 1239.785889 C 1105.56897 1239.785889 1099.656006 1239.137939 1094.148071 1237.842041 C 1089.125977 1236.140991 1083.780029 1233.468018 1078.353027 1229.660889 C 1072.844971 1225.448975 1068.875977 1222.290039 1066.284058 1220.184082 C 1063.773071 1217.592041 1059.156006 1212.975098 1052.352051 1206.251953 C 1046.034058 1199.447998 1042.227051 1195.479004 1041.011963 1194.182983 C 1027.080078 1207.304932 1020.114075 1222.695068 1020.114075 1240.434082 C 1020.114075 1257.281982 1026.0271 1271.619019 1037.853027 1283.445068 L 1168.190063 1414.421997 C 1179.578735 1425.843018 1193.923828 1431.512939 1211.225464 1431.512939 C 1228.097778 1431.512939 1242.442871 1426.004883 1254.252563 1415.070068 L 1347.281128 1322.649048 C 1359.090942 1310.822998 1364.99585 1296.729004 1364.99585 1280.285889 M 920.160034 834.129883 C 920.160034 817.257568 914.24707 802.912476 902.421082 791.102661 L 772.010986 660.109497 C 760.266052 648.291626 745.929077 642.386719 729 642.386719 C 712.557007 642.386719 698.219971 648.080933 685.989075 659.477661 L 593.000977 751.866333 C 581.174988 763.676147 575.261963 777.810547 575.261963 794.261719 C 575.261963 811.14209 581.174988 825.479126 593.000977 837.296997 L 724.626038 968.921997 C 735.966064 980.342957 750.30304 986.013 767.637024 986.013 C 785.376038 986.013 800.52301 979.452026 813.159058 966.386719 C 811.944031 965.123108 807.893982 961.324219 801.171082 954.998108 C 794.448059 948.250854 789.75 943.609497 787.239075 941.074219 C 785.133057 938.546997 781.973999 934.537537 777.762024 929.053772 C 773.955017 923.570068 771.200989 918.296997 769.5 913.234497 C 768.285034 907.750854 767.637024 901.845825 767.637024 895.511719 C 767.637024 878.639404 773.549988 864.294312 785.376038 852.484497 C 797.121033 840.666626 811.458069 834.761719 828.387024 834.761719 C 834.705017 834.761719 840.375 835.604126 845.478027 837.296997 C 850.905029 838.560547 856.413025 841.306519 861.921082 845.518555 C 867.429077 849.317383 871.39801 852.484497 873.909058 855.011719 C 876.501038 857.125854 880.875 861.556519 887.192993 868.303833 C 893.99707 875.051025 897.966064 879.060547 899.262024 880.324219 C 913.194031 867.250854 920.160034 851.852661 920.160034 834.129883 M 1433.343628 1151.171997 C 1468.772949 1186.569092 1486.49585 1229.660889 1486.49585 1280.285889 C 1486.49585 1330.910889 1468.562378 1373.678955 1432.703735 1408.751953 L 1339.68335 1501.092041 C 1304.666992 1536.165039 1261.850464 1553.661011 1211.225464 1553.661011 C 1160.171143 1553.661011 1117.1521 1535.678955 1082.160034 1499.876953 L 951.75 1368.819092 C 916.758057 1333.827026 899.262024 1291.059082 899.262024 1240.434082 C 899.262024 1188.512939 917.811035 1144.448975 954.909058 1108.160889 L 899.262024 1052.432983 C 862.973999 1089.612061 819.072021 1108.160889 767.637024 1108.160889 C 717.012024 1108.160889 674.001038 1090.421997 638.52301 1054.944092 L 506.89798 923.359497 C 471.500977 887.921997 453.761993 844.886719 453.761993 794.261719 C 453.761993 743.636719 471.663025 700.820068 507.545959 665.803833 L 600.533997 573.415283 C 635.607056 538.398926 678.375 520.886719 729 520.886719 C 780.030029 520.886719 823.12207 538.820068 858.114075 574.678711 L 988.442993 705.671997 C 1023.516052 740.688354 1041.011963 783.504883 1041.011963 834.129883 C 1041.011963 886.018555 1022.463013 930.10675 985.284058 966.386719 L 1041.011963 1022.057983 C 1077.300049 984.959961 1121.121094 966.386719 1172.62085 966.386719 C 1223.24585 966.386719 1266.273071 984.069031 1301.718628 1019.546997 L 1433.343628 1151.171997"/>
        </g>
    </g>
</svg>
