<svg xmlns="http://www.w3.org/2000/svg" shape-rendering="geometricPrecision" text-rendering="geometricPrecision" image-rendering="optimizeQuality" fill-rule="evenodd" clip-rule="evenodd" viewBox="0 0 512 420.166"><path d="M74.316 0h363.369C478.549 0 512 33.458 512 74.316V345.85c0 40.814-33.501 74.316-74.315 74.316H74.316C33.439 420.166 0 386.689 0 345.85V74.316C0 33.408 33.408 0 74.316 0zm160.792 242.519l3.642 40.814c-10.202 4.209-23 6.314-38.388 6.314-15.381 0-27.732-1.619-37.046-4.858-9.313-3.239-16.642-8.337-21.985-15.306-5.344-6.963-9.074-15.143-11.179-24.538-2.104-9.389-3.157-20.971-3.157-34.739 0-13.769 1.053-25.389 3.157-34.86 2.105-9.477 5.835-17.694 11.179-24.663 10.366-13.441 29.396-20.165 57.091-20.165 6.156 0 13.402.612 21.745 1.828 8.337 1.21 14.532 2.709 18.583 4.493l-7.29 37.172c-10.524-2.269-20.165-3.403-28.911-3.403-8.746 0-14.815.807-18.218 2.426-3.402 1.619-5.103 4.858-5.103 9.723v63.65a95.576 95.576 0 0019.194 1.941c13.768 0 25.992-1.941 36.686-5.829zm21.866 40.814l6.799-36.75c14.903 3.731 28.306 5.59 40.209 5.59 11.904 0 21.5-.485 28.791-1.456v-15.489l-21.866-1.94c-19.761-1.784-33.321-6.522-40.694-14.216-7.366-7.694-11.053-19.068-11.053-34.129 0-20.731 4.493-34.985 13.485-42.761 8.986-7.776 24.254-11.664 45.792-11.664s40.978 2.029 58.307 6.075l-6.075 35.534c-15.06-2.433-27.127-3.643-36.195-3.643-9.074 0-16.768.404-23.082 1.21v15.249l17.493 1.695c21.217 2.111 35.874 7.171 43.971 15.187 8.098 8.015 12.149 19.15 12.149 33.403 0 10.202-1.38 18.829-4.134 25.874-5.318 13.604-11.758 20.435-25.993 24.418-14.014 3.907-24.953 4.127-39.358 4.127-21.053 0-40.568-2.105-58.546-6.314z"/></svg>