<svg xmlns="http://www.w3.org/2000/svg" shape-rendering="geometricPrecision" text-rendering="geometricPrecision" image-rendering="optimizeQuality" fill-rule="evenodd" clip-rule="evenodd" viewBox="0 0 512 512"><g fill-rule="nonzero"><path fill="#4D4D4D" d="M256 0c70.684 0 134.689 28.664 181.012 74.987C483.336 121.311 512 185.316 512 256c0 70.684-28.664 134.689-74.988 181.013C390.689 483.336 326.684 512 256 512c-70.677 0-134.689-28.664-181.013-74.987C28.664 390.689 0 326.676 0 256c0-70.684 28.664-134.689 74.987-181.013C121.311 28.664 185.316 0 256 0z"/><path fill="#fff" d="M256.001 19.597c65.278 0 124.382 26.466 167.162 69.242 42.777 42.78 69.242 101.884 69.242 167.162S465.94 380.384 423.16 423.16c-42.777 42.78-101.881 69.246-167.159 69.246-65.278 0-124.383-26.466-167.162-69.243-42.777-42.779-69.243-101.884-69.243-167.162S46.062 131.619 88.839 88.839c42.779-42.776 101.884-69.242 167.162-69.242z"/><path fill="#00267F" d="M364.897 68.962c64.3 37.516 107.511 107.225 107.511 187.039 0 79.812-43.211 149.523-107.511 187.039V68.962zM147.129 443.055C82.817 405.542 39.594 335.824 39.594 256.001c0-79.823 43.223-149.544 107.535-187.053v374.107z"/><path fill="#FFC726" d="M364.885 443.046V68.954c-31.984-18.661-69.184-29.36-108.884-29.36-39.692 0-76.883 10.696-108.86 29.348v374.119c31.977 18.649 69.168 29.347 108.86 29.347 39.7 0 76.9-10.701 108.884-29.362z"/><path d="M256.013 151.082c-7.077 19.298-14.289 39.385-29.722 54.762 4.791-1.576 13.172-2.993 18.563-2.857v81.166l-22.918 3.401c-.818-.083-1.089-1.361-1.089-3.103-2.205-25.202-8.166-46.378-15.024-68.289-.49-2.993-9.172-14.427-2.477-12.411.815.107 9.772 3.755 8.355 2.014-12.192-12.629-30.02-21.719-47.332-24.414-1.523-.381-2.421.38-1.06 2.149 22.971 35.357 42.187 77.08 42.024 126.59 8.927 0 30.567-5.281 39.521-5.281v57.269H267.172v-57.269c8.954 0 30.593 5.281 39.52 5.281-.162-49.51 19.053-91.233 42.024-126.59 1.361-1.769.463-2.53-1.06-2.149-17.311 2.695-35.139 11.785-47.332 24.414-1.417 1.741 7.54-1.907 8.355-2.014 6.695-2.016-1.987 9.418-2.477 12.411-6.858 21.911-12.818 43.087-15.023 68.289 0 1.742-.272 3.02-1.09 3.103l-22.917-3.401v-81.166c5.39-.136 13.772 1.281 18.563 2.857-15.434-15.377-22.646-35.464-29.722-54.762z"/></g></svg>