<svg xmlns="http://www.w3.org/2000/svg" shape-rendering="geometricPrecision" text-rendering="geometricPrecision" image-rendering="optimizeQuality" fill-rule="evenodd" clip-rule="evenodd" viewBox="0 0 512 511.998"><g fill-rule="nonzero"><path fill="#4D4D4D" d="M256 0c70.684 0 134.689 28.664 181.013 74.987C483.336 121.311 512 185.316 512 255.999s-28.664 134.689-74.987 181.012C390.689 483.335 326.684 511.998 256 511.998c-70.676 0-134.689-28.663-181.013-74.987C28.664 390.688 0 326.675 0 255.999c0-70.683 28.664-134.688 74.987-181.012C121.311 28.664 185.316 0 256 0z"/><path fill="#fff" d="M256.001 19.596c65.278 0 124.383 26.467 167.162 69.243C465.94 131.618 492.406 190.723 492.406 256c0 65.278-26.466 124.382-69.246 167.159-42.776 42.779-101.881 69.245-167.159 69.245-65.278 0-124.382-26.466-167.162-69.242C46.063 380.382 19.597 321.278 19.597 256c0-65.277 26.466-124.382 69.242-167.161 42.78-42.776 101.884-69.243 167.162-69.243z"/><path fill="#D82126" d="M300.329 44.146c53.9 11.221 100.444 42.493 131.483 85.661l-111.354 78.171a77.89 77.89 0 019.037 15.009l121.105-61.75a215.037 215.037 0 0120.725 73.016l-135.202 13.301a79.28 79.28 0 01.383 7.744c0 2.612-.133 5.192-.383 7.74l135.326 13.313c-2.408 25.809-9.344 50.301-20.009 72.674l-121.945-61.416a77.89 77.89 0 01-9.037 15.005l112.459 78.034c-31.031 43.968-78.041 75.847-132.579 87.204l-33.803-135.155a78.96 78.96 0 01-15.641 0l-34.647 136.052c-55.246-10.262-103.118-41.504-135.038-85.158l115.761-80.977a77.885 77.885 0 01-9.036-15.005L61.91 351.785c-11.335-22.916-18.724-48.127-21.295-74.75l140.691-13.997a78.9 78.9 0 01-.384-7.74c0-2.613.133-5.196.384-7.744l-140.56-13.986a214.961 214.961 0 0121.828-74.69l125.36 64.109a77.885 77.885 0 019.036-15.009L82.084 127.209c32.032-43.182 79.762-74.019 134.756-84.071l34.054 134.758a78.622 78.622 0 0115.641 0l33.794-133.75zm20.616 211.152c0-34.372-27.862-62.234-62.231-62.234s-62.231 27.862-62.231 62.234c0 34.368 27.862 62.231 62.231 62.231s62.231-27.863 62.231-62.231z"/><path fill="#F8E92E" d="M256.001 39.594c15.194 0 30.019 1.574 44.328 4.552l-33.794 133.75a78.657 78.657 0 00-15.641 0L216.84 43.138a217.611 217.611 0 0139.161-3.544zm175.811 90.213a216.178 216.178 0 0118.788 31.43l-121.105 61.75a77.89 77.89 0 00-9.037-15.009l111.354-78.171zm39.513 104.446A218.873 218.873 0 01472.408 256c0 6.865-.334 13.651-.959 20.351l-135.326-13.313c.25-2.548.383-5.128.383-7.74a79.28 79.28 0 00-.383-7.744l135.202-13.301zM451.44 349.025a216.24 216.24 0 01-18.523 31.623l-112.459-78.034a77.89 77.89 0 009.037-15.005l121.945 61.416zM300.338 467.852a217.321 217.321 0 01-44.337 4.554 217.508 217.508 0 01-39.754-3.657l34.647-136.052a78.925 78.925 0 0015.641 0l33.803 135.155zM81.209 383.591a216.561 216.561 0 01-19.299-31.806l126.024-64.176a77.885 77.885 0 009.036 15.005L81.209 383.591zM40.615 277.035A218.575 218.575 0 0139.594 256c0-7.575.393-15.058 1.152-22.432l140.56 13.986a78.967 78.967 0 00-.384 7.744 78.9 78.9 0 00.384 7.74L40.615 277.035zm21.959-118.157a216.437 216.437 0 0119.51-31.669l114.886 80.769a77.885 77.885 0 00-9.036 15.009l-125.36-64.109zm258.371 96.42c0-34.372-27.862-62.234-62.231-62.234s-62.231 27.862-62.231 62.234c0 34.368 27.862 62.231 62.231 62.231s62.231-27.863 62.231-62.231z"/></g></svg>