<svg xmlns="http://www.w3.org/2000/svg" shape-rendering="geometricPrecision" text-rendering="geometricPrecision" image-rendering="optimizeQuality" fill-rule="evenodd" clip-rule="evenodd" viewBox="0 0 512 420.17"><path d="M74.32 0h363.36C478.55 0 512 33.46 512 74.32v271.53c0 40.82-33.5 74.32-74.32 74.32H74.32C33.44 420.17 0 386.69 0 345.85V74.32C0 33.41 33.41 0 74.32 0zm302.11 228.1h-47.11v17.91h57.71v37.69H282.21V136.47h103.64l-5.89 37.69h-50.64v19.79h47.11v34.15zm-251.46 55.6V136.47h65.96c26.53 0 44.75 5.65 54.64 16.96 9.9 11.31 14.85 30.19 14.85 56.66 0 26.46-4.95 45.34-14.85 56.65-9.89 11.3-28.11 16.96-54.64 16.96h-65.96zm66.66-109.54h-19.55v71.85h19.55c6.44 0 11.12-.75 14.02-2.24 2.9-1.49 4.35-4.91 4.35-10.25v-46.88c0-5.33-1.45-8.75-4.35-10.24-2.9-1.5-7.58-2.24-14.02-2.24z"/></svg>