<svg viewBox="0 0 512 512" xmlns="http://www.w3.org/2000/svg" fill-rule="evenodd" clip-rule="evenodd" stroke-linejoin="round" stroke-miterlimit="2"><g fill-rule="nonzero"><path d="M256 0c70.68 0 134.69 28.66 181.01 74.99C483.34 121.31 512 185.32 512 256c0 70.68-28.66 134.69-74.99 181.01C390.69 483.34 326.68 512 256 512c-70.68 0-134.69-28.66-181.01-74.99C28.66 390.69 0 326.68 0 256c0-70.68 28.66-134.69 74.99-181.01C121.31 28.66 185.32 0 256 0z" fill="#999"/><path d="M256 19.48c65.31 0 124.44 26.47 167.24 69.28 42.81 42.8 69.28 101.93 69.28 167.24s-26.47 124.44-69.28 167.24c-42.8 42.81-101.93 69.28-167.24 69.28s-124.44-26.47-167.24-69.28C45.95 380.44 19.48 321.31 19.48 256S45.95 131.56 88.76 88.76C131.56 45.95 190.69 19.48 256 19.48z" fill="#fff"/><path d="M256 39.59c119.52 0 216.41 96.89 216.41 216.41S375.52 472.41 256 472.41 39.59 375.52 39.59 256 136.48 39.59 256 39.59z" fill="#fcd022"/><path d="M105.04 100.96v310.08C64.68 371.73 39.59 316.8 39.59 256s25.09-115.73 65.45-155.04z" fill="#002674"/><path d="M256 263.9l37.74 65.36L256 394.63l-37.74-65.37L256 263.9zm-45.29-78.44l37.74 65.36-37.74 65.37-37.74-65.37 37.74-65.36zm90.58 0l37.74 65.36-37.74 65.37-37.74-65.37 37.74-65.36zm105.67 225.58V100.96c40.37 39.31 65.45 94.24 65.45 155.04s-25.08 115.73-65.45 155.04z" fill="#007c2e"/></g></svg>