<svg xmlns="http://www.w3.org/2000/svg" shape-rendering="geometricPrecision" text-rendering="geometricPrecision" image-rendering="optimizeQuality" fill-rule="evenodd" clip-rule="evenodd" viewBox="0 0 512 512"><g fill-rule="nonzero"><path fill="#4D4D4D" d="M256 0c70.683 0 134.689 28.663 181.012 74.987C483.336 121.311 512 185.316 512 256c0 70.683-28.664 134.689-74.988 181.012C390.689 483.336 326.683 512 256 512c-70.677 0-134.689-28.664-181.013-74.988C28.663 390.689 0 326.676 0 256c0-70.684 28.663-134.689 74.987-181.013C121.311 28.663 185.316 0 256 0z"/><path fill="#fff" d="M256.001 19.596c65.278 0 124.383 26.467 167.162 69.243 42.777 42.78 69.243 101.884 69.243 167.162S465.94 380.384 423.16 423.16c-42.776 42.78-101.881 69.246-167.159 69.246-65.278 0-124.382-26.466-167.162-69.243-42.776-42.779-69.243-101.884-69.243-167.162S46.063 131.619 88.839 88.839c42.78-42.776 101.884-69.243 167.162-69.243z"/><path fill="#D01C1F" d="M256.001 39.594c119.518 0 216.407 96.887 216.407 216.407 0 119.518-96.889 216.407-216.407 216.407-119.52 0-216.407-96.889-216.407-216.407 0-119.52 96.887-216.407 216.407-216.407z"/><path fill="#00A95C" d="M83.262 125.638H428.74c27.407 36.258 43.668 81.408 43.668 130.363 0 49.195-16.423 94.546-44.076 130.892H83.67c-27.65-36.346-44.076-81.697-44.076-130.892 0-48.955 16.264-94.105 43.668-130.363z"/><path fill="gold" d="M210.417 200.53h33.309l10.451-31.351 10.45 31.351h33.309l-27.431 20.031 11.103 31.785-27.431-19.593-27.432 19.593 11.103-31.785-27.431-20.031zM90.891 184.42c13.158 66.025 82.273 114.517 163.286 114.517 81.012 0 150.128-48.492 163.28-114.525.006 87.767-73.116 158.937-163.28 158.937S90.891 272.179 90.891 184.42z"/></g></svg>