<?xml version="1.0" encoding="UTF-8"?>
<!-- Generated by Pixelmator Pro 3.1.1 -->
<svg width="1944" height="1944" viewBox="0 0 1944 1944" xmlns="http://www.w3.org/2000/svg" xmlns:xlink="http://www.w3.org/1999/xlink">
    <g id="Group">
        <path id="Path" fill="#c0392b" stroke="none" d="M 162 486.001953 C 72.527397 486.001953 0 558.903931 0 648.001953 L 0 810.001953 L 0 1458.001953 L 0 1620.001953 C 0 1709.099976 72.529831 1782.001953 162 1782.001953 L 1458 1782.001953 L 1782 1782.001953 C 1871.505005 1782.001953 1944 1709.099976 1944 1620.001953 L 1944 810.001953 L 1944 648.001953 C 1944 558.903931 1871.505005 486.001953 1782 486.001953 L 1458 486.001953 L 486 486.001953 L 162 486.001953 Z"/>
        <path id="path1" fill="#c0392b" stroke="none" d="M 162 243.001953 C 72.527397 243.001953 0 315.903931 0 405.001953 L 0 567.001953 L 0 1215.001953 L 0 1377.001953 C 0 1466.099976 72.529831 1539.001953 162 1539.001953 L 1458 1539.001953 L 1782 1539.001953 C 1871.505005 1539.001953 1944 1466.099976 1944 1377.001953 L 1944 567.001953 L 1944 405.001953 C 1944 315.903931 1871.505005 243.001953 1782 243.001953 L 1458 243.001953 L 486 243.001953 L 162 243.001953 Z"/>
        <path id="path2" fill="#e74c3c" stroke="none" d="M 162 405.001953 C 72.527397 405.001953 0 477.903931 0 567.001953 L 0 729.001953 L 0 1377.001953 L 0 1539.001953 C 0 1628.099976 72.529831 1701.001953 162 1701.001953 L 1458 1701.001953 L 1782 1701.001953 C 1871.505005 1701.001953 1944 1628.099976 1944 1539.001953 L 1944 729.001953 L 1944 567.001953 C 1944 477.903931 1871.505005 405.001953 1782 405.001953 L 1458 405.001953 L 486 405.001953 L 162 405.001953 Z"/>
        <path id="path3" fill="#c0392b" stroke="none" d="M 1458 1134 C 1458 1402.4104 1240.4104 1620 972 1620 C 703.5896 1620 486 1402.4104 486 1134 C 486 865.5896 703.5896 648 972 648 C 1240.4104 648 1458 865.5896 1458 1134 Z"/>
        <path id="path4" fill="#ecf0f1" stroke="none" d="M 1458 1053 C 1458 1321.4104 1240.4104 1539 972 1539 C 703.5896 1539 486 1321.4104 486 1053 C 486 784.5896 703.5896 567 972 567 C 1240.4104 567 1458 784.5896 1458 1053 Z"/>
        <path id="path5" fill="#34495e" stroke="none" d="M 1295.959473 1051.88623 C 1295.959473 1230.833252 1150.903442 1375.898438 971.967651 1375.898438 C 793.031799 1375.898438 647.975708 1230.833252 647.975708 1051.88623 C 647.975708 872.939331 793.031799 727.874146 971.967651 727.874146 C 1150.903442 727.874146 1295.959473 872.939331 1295.959473 1051.88623 Z"/>
        <path id="path6" fill="#2c3e50" stroke="none" d="M 1215 1046.054199 C 1215 1180.259033 1106.2052 1289.053467 972 1289.053467 C 837.7948 1289.053467 729 1180.259033 729 1046.054199 C 729 911.849487 837.7948 803.055054 972 803.055054 C 1106.2052 803.055054 1215 911.849487 1215 1046.054199 Z"/>
        <path id="path7" fill="#34495e" stroke="none" d="M 1134 1053 C 1134 1142.470215 1061.470093 1215 972 1215 C 882.529846 1215 810 1142.470215 810 1053 C 810 963.529846 882.529846 891 972 891 C 1061.470093 891 1134 963.529846 1134 1053 Z"/>
        <path id="path8" fill="#3498db" stroke="none" d="M 1053 1053 C 1053 1097.735107 1016.735107 1134 972 1134 C 927.264893 1134 891 1097.735107 891 1053 C 891 1008.264893 927.264893 972 972 972 C 1016.735107 972 1053 1008.264893 1053 1053 Z"/>
        <path id="path9" fill="#ecf0f1" stroke="none" d="M 972.004028 885.593262 C 972.004028 930.32782 935.738892 966.592407 891.003601 966.592407 C 846.268372 966.592407 810.003235 930.32782 810.003235 885.593262 C 810.003235 840.858643 846.268372 804.594116 891.003601 804.594116 C 935.738892 804.594116 972.004028 840.858643 972.004028 885.593262 Z"/>
        <path id="path10" fill="#ecf0f1" stroke="none" d="M 1539 648.001953 L 1782 648.001953 L 1782 729.001953 L 1539 729.001953 Z"/>
        <path id="path11" fill="#7f8c8d" stroke="none" d="M 1539 567.001953 L 1782 567.001953 L 1782 648.001953 L 1539 648.001953 Z"/>
        <path id="path12" fill="#c0392b" stroke="none" d="M 324 162 C 234.527405 162 162 234.527466 162 324 L 324 324 L 567 324 L 729 324 C 729 234.527466 656.472595 162 567 162 L 324 162 Z"/>
    </g>
</svg>
