<?xml version="1.0" encoding="UTF-8"?>
<!-- Generated by Pixelmator Pro 3.1.1 -->
<svg width="1944" height="1944" viewBox="0 0 1944 1944" xmlns="http://www.w3.org/2000/svg" xmlns:xlink="http://www.w3.org/1999/xlink">
    <g id="Group">
        <g id="g1">
            <path id="Path" fill="#16a085" stroke="none" d="M 405 0.001953 C 315.527405 0.001953 243 72.903931 243 162.001953 L 243 243.001953 L 243 810.001953 L 243 891.001953 L 243 1134.001953 L 243 1215.001953 L 243 1620.001953 L 243 1701.001953 C 243 1790.099976 315.527405 1863.001953 405 1863.001953 L 1539 1863.001953 C 1628.505005 1863.001953 1701 1790.099976 1701 1701.001953 L 1701 1620.001953 L 1701 1215.001953 L 1701 891.001953 L 1701 567.001953 L 1701 486.001953 L 1701 243.001953 L 1701 162.001953 C 1701 72.903931 1628.505005 0.001953 1539 0.001953 L 1215 0.001953 L 405 0.001953 Z"/>
            <path id="path1" fill="#ecf0f1" stroke="none" d="M 486 0.001953 C 396.527405 0.001953 324 72.903931 324 162.001953 L 324 810.001953 L 324 1134.001953 L 324 1620.001953 C 324 1709.099976 396.527405 1782.001953 486 1782.001953 L 1134 1782.001953 L 1458 1782.001953 C 1547.505005 1782.001953 1620 1709.099976 1620 1620.001953 L 1620 1134.001953 L 1620 810.001953 L 1620 486.001953 L 1620 162.001953 C 1620 72.903931 1547.505005 0.001953 1458 0.001953 L 1134 0.001953 L 486 0.001953 Z"/>
            <path id="path2" fill="#2ecc71" stroke="none" d="M 1215 1134.001953 L 1215 1215.001953 L 1215 1296.001953 L 1215 1377.001953 L 1215 1701.001953 L 1539 1701.001953 C 1628.505005 1701.001953 1701 1628.099976 1701 1539.001953 L 1701 1377.001953 L 1701 1215.001953 L 1701 1134.001953 L 1215 1134.001953 Z"/>
            <path id="path3" fill="#e74c3c" stroke="none" d="M 1215 729.001953 L 1215 810.001953 L 1215 891.001953 L 1215 972.002014 L 1215 1296.001953 L 1539 1296.001953 C 1628.505005 1296.001953 1701 1223.100098 1701 1134.001953 L 1701 972.002014 L 1701 810.001953 L 1701 729.001953 L 1215 729.001953 Z"/>
            <path id="path4" fill="#f1c40f" stroke="none" d="M 1215 324.001953 L 1215 405.001953 L 1215 486.001953 L 1215 567.001953 L 1215 891.001953 L 1539 891.001953 C 1628.505005 891.001953 1701 818.099976 1701 729.001953 L 1701 567.001953 L 1701 405.001953 L 1701 324.001953 L 1215 324.001953 Z"/>
            <path id="path5" fill="#2980b9" stroke="none" d="M 1215 0 L 1215 162 L 1539 162 L 1539 324 L 1539 486 C 1628.505005 486 1701 413.472534 1701 324 L 1701 162 C 1701 72.527344 1628.505005 0 1539 0 L 1215 0 Z"/>
            <path id="path6" fill="#1abc9c" stroke="none" d="M 405 0.001953 C 315.527405 0.001953 243 72.903931 243 162.001953 L 243 810.001953 L 243 1134.001953 L 243 1539.001953 L 324 1539.001953 L 324 1620.001953 L 324 1863.001953 C 324 1773.903931 396.527405 1701.001953 486 1701.001953 L 1134 1701.001953 L 1215 1701.001953 L 1318.760986 1701.001953 L 1377 1701.001953 L 1399.760986 1701.001953 C 1459.70105 1701.001953 1510.973999 1668.599976 1539 1620.001953 L 1539 1539.001953 L 1539 1134.001953 L 1539 810.001953 L 1539 486.001953 L 1539 162.001953 C 1539 72.903931 1466.505005 0.001953 1377 0.001953 L 1053 0.001953 L 405 0.001953 Z"/>
        </g>
        <g id="g2">
            <path id="path7" fill="#16a085" stroke="none" d="M 845.559021 858.599976 C 845.559021 899.099976 854.307007 931.502014 871.721985 955.796082 C 889.542053 980.100037 913.518005 996.296082 943.731018 996.296082 C 973.539001 996.296082 997.434021 980.100037 1015.172974 955.796082 C 1032.993042 931.502014 1041.822021 899.099976 1041.822021 858.599976 C 1041.822021 818.099976 1032.75 785.697998 1014.687012 761.403931 C 996.867004 737.099976 972.890991 729.001953 942.677979 729.001953 C 913.194031 729.001953 889.542053 737.099976 871.721985 761.403931 C 854.307007 785.697998 845.559021 818.099976 845.559021 858.599976 M 1051.947021 1012.502014 C 1041.822021 1036.796143 1025.541016 1053.001953 1003.104004 1069.197998 C 980.991028 1077.296143 954.98999 1085.404053 925.100952 1085.404053 C 867.428955 1085.404053 820.448975 1069.197998 784.201538 1020.600037 C 748.310425 980.100037 730.360779 931.502014 730.360779 858.599976 C 730.360779 793.796021 748.472412 737.099976 784.703735 696.599976 C 820.934998 656.099976 867.753052 631.796021 925.100952 631.796021 C 954.98999 631.796021 980.991028 639.903931 1003.104004 656.099976 C 1025.541016 664.197998 1041.822021 688.501953 1051.947021 712.796021 L 1051.947021 648.001953 L 1157.084961 648.001953 L 1157.084961 996.296082 C 1198.718994 988.198059 1231.361938 963.903992 1255.176025 931.502014 C 1278.98999 899.099976 1290.896973 858.599976 1290.896973 801.903931 C 1290.896973 769.501953 1286.036987 737.099976 1276.317017 712.796021 C 1266.597046 680.403931 1251.85498 656.099976 1232.091064 631.796021 C 1200.177002 591.296021 1160.244019 558.903931 1112.291992 534.599976 C 1064.664063 510.296021 1012.985962 502.197998 957.338989 502.197998 C 918.378052 502.197998 881.118042 502.197998 845.559021 518.403931 C 810 526.501953 777.15448 542.697998 746.965759 558.903931 C 697.312805 591.296021 658.570496 639.903931 630.722656 688.501953 C 603.215088 737.099976 589.461304 793.796021 589.461304 858.599976 C 589.461304 907.197998 598.355103 955.796082 616.134583 996.296082 C 634.246216 1044.904053 660.247253 1077.296143 694.129517 1117.796143 C 727.679688 1150.197998 766.089905 1174.501953 809.360107 1190.697998 C 853.010986 1206.904053 899.424011 1215.001953 948.753052 1215.001953 C 991.034973 1215.001953 1033.317017 1206.904053 1075.598999 1190.697998 C 1117.800049 1174.501953 1153.926025 1158.296143 1183.734009 1125.904053 L 1237.598999 1206.904053 C 1195.640991 1239.296143 1149.875977 1263.600098 1100.223022 1287.904053 C 1050.894043 1304.099976 1000.754944 1312.197998 949.725037 1312.197998 C 887.678955 1312.197998 829.116028 1296.001953 774.141296 1279.796143 C 719.118042 1255.501953 670.145447 1223.100098 627.199158 1182.600098 C 584.261108 1142.100098 551.553284 1093.501953 529.075806 1036.796143 C 506.598297 980.100037 495.363617 923.403992 495.363617 858.599976 C 495.363617 793.796021 506.768402 737.099976 529.578003 680.403931 C 552.387634 623.697998 584.933411 575.099976 627.199158 534.599976 C 669.473083 494.099976 718.615845 461.697998 774.643555 437.403931 C 830.979004 421.197998 889.379944 405.001953 949.725037 405.001953 C 1024.892944 405.001953 1093.176025 421.197998 1154.573975 453.599976 C 1215.972046 477.903931 1267.244995 518.403931 1308.555054 575.099976 C 1333.745972 607.501953 1352.700073 639.903931 1365.416992 680.403931 C 1378.458008 720.903931 1385.019043 761.403931 1385.019043 801.903931 C 1385.019043 891.001953 1357.721924 963.903992 1303.046997 1012.502014 C 1248.291016 1061.100098 1171.178955 1085.404053 1071.54895 1085.404053 L 1051.947021 1085.404053 L 1051.947021 1012.502014"/>
        </g>
        <g id="g3">
            <path id="path8" fill="#95a5a6" stroke="none" d="M 162 243.001953 L 162 324.001953 L 324 324.001953 L 324 243.001953 L 162 243.001953 Z M 162 486.001953 L 162 567.001953 L 324 567.001953 L 324 486.001953 L 162 486.001953 Z M 162 729.001953 L 162 810.001953 L 324 810.001953 L 324 729.001953 L 162 729.001953 Z M 162 972.002014 L 162 1053.001953 L 324 1053.001953 L 324 972.002014 L 162 972.002014 Z M 162 1215.001953 L 162 1296.001953 L 324 1296.001953 L 324 1215.001953 L 162 1215.001953 Z M 162 1458.001953 L 162 1539.001953 L 324 1539.001953 L 324 1458.001953 L 162 1458.001953 Z"/>
            <path id="path9" fill="#1abc9c" stroke="none" d="M 405 0.001953 C 315.527405 0.001953 243 72.903931 243 162.001953 L 243 243.001953 L 243 810.001953 L 243 891.001953 L 243 1134.001953 L 243 1215.001953 L 243 1620.001953 L 243 1701.001953 C 243 1790.099976 315.527405 1863.001953 405 1863.001953 L 486 1863.001953 C 396.527405 1863.001953 324 1790.099976 324 1701.001953 L 324 1620.001953 L 324 1215.001953 L 324 1134.001953 L 324 891.001953 L 324 810.001953 L 324 243.001953 L 324 162.001953 C 324 72.903931 396.527405 0.001953 486 0.001953 L 405 0.001953 Z"/>
            <path id="path10" fill="#16a085" stroke="none" d="M 243 243.001953 L 243 324.001953 L 324 324.001953 L 324 243.001953 L 243 243.001953 Z M 243 486.001953 L 243 567.001953 L 324 567.001953 L 324 486.001953 L 243 486.001953 Z M 243 729.001953 L 243 810.001953 L 324 810.001953 L 324 729.001953 L 243 729.001953 Z M 243 972.002014 L 243 1053.001953 L 324 1053.001953 L 324 972.002014 L 243 972.002014 Z M 243 1215.001953 L 243 1296.001953 L 324 1296.001953 L 324 1215.001953 L 243 1215.001953 Z M 243 1458.001953 L 243 1539.001953 L 324 1539.001953 L 324 1458.001953 L 243 1458.001953 Z"/>
        </g>
        <g id="g4">
            <path id="path11" fill="#bdc3c7" stroke="none" d="M 162 162.001953 L 162 243.001953 L 243 243.001953 L 243 162.001953 L 162 162.001953 Z M 162 405.001953 L 162 486.001953 L 243 486.001953 L 243 405.001953 L 162 405.001953 Z M 162 648.001953 L 162 729.001953 L 243 729.001953 L 243 648.001953 L 162 648.001953 Z M 162 891.001953 L 162 972.002014 L 243 972.002014 L 243 891.001953 L 162 891.001953 Z M 162 1134.001953 L 162 1215.001953 L 243 1215.001953 L 243 1134.001953 L 162 1134.001953 Z M 162 1377.001953 L 162 1458.001953 L 243 1458.001953 L 243 1377.001953 L 162 1377.001953 Z"/>
            <path id="path12" fill="#bdc3c7" stroke="none" d="M 162 162.001953 C 117.263702 162.001953 81 194.403931 81 243.001953 C 81 283.501953 117.263702 324.001953 162 324.001953 L 162 162.001953 Z"/>
            <path id="path13" fill="#bdc3c7" stroke="none" d="M 162 405.001953 C 117.263702 405.001953 81 437.403931 81 486.001953 C 81 526.501953 117.263702 567.001953 162 567.001953 L 162 405.001953 Z"/>
            <path id="path14" fill="#bdc3c7" stroke="none" d="M 162 648.001953 C 117.263702 648.001953 81 680.403931 81 729.001953 C 81 769.501953 117.263702 810.001953 162 810.001953 L 162 648.001953 Z"/>
            <path id="path15" fill="#bdc3c7" stroke="none" d="M 162 891.001953 C 117.263702 891.001953 81 923.403992 81 972.002014 C 81 1012.502014 117.263702 1053.001953 162 1053.001953 L 162 891.001953 Z"/>
            <path id="path16" fill="#bdc3c7" stroke="none" d="M 162 1134.001953 C 117.263702 1134.001953 81 1166.404053 81 1215.001953 C 81 1255.501953 117.263702 1296.001953 162 1296.001953 L 162 1134.001953 Z"/>
            <path id="path17" fill="#bdc3c7" stroke="none" d="M 162 1377.001953 C 117.263702 1377.001953 81 1409.403931 81 1458.001953 C 81 1498.501953 117.263702 1539.001953 162 1539.001953 L 162 1377.001953 Z"/>
        </g>
        <path id="path18" fill="#95a5a6" stroke="none" d="M 243 162.001953 L 243 243.001953 L 324 243.001953 L 324 162.001953 L 243 162.001953 Z M 243 405.001953 L 243 486.001953 L 324 486.001953 L 324 405.001953 L 243 405.001953 Z M 243 648.001953 L 243 729.001953 L 324 729.001953 L 324 648.001953 L 243 648.001953 Z M 243 891.001953 L 243 972.002014 L 324 972.002014 L 324 891.001953 L 243 891.001953 Z M 243 1134.001953 L 243 1215.001953 L 324 1215.001953 L 324 1134.001953 L 243 1134.001953 Z M 243 1377.001953 L 243 1458.001953 L 324 1458.001953 L 324 1377.001953 L 243 1377.001953 Z"/>
    </g>
</svg>
