<svg xmlns="http://www.w3.org/2000/svg" shape-rendering="geometricPrecision" text-rendering="geometricPrecision" image-rendering="optimizeQuality" fill-rule="evenodd" clip-rule="evenodd" viewBox="0 0 512 420.166"><path d="M74.316 0h363.369C478.549 0 512 33.458 512 74.316V345.85c0 40.814-33.501 74.316-74.315 74.316H74.316C33.439 420.166 0 386.689 0 345.85V74.316C0 33.408 33.408 0 74.316 0zm306.666 173.782H346.46v110.693h-47.607V173.782H264.33V135.69h116.652v38.092zm-171.398 74.747h-30.946v35.946h-47.613V135.69h74.983c34.124 0 51.183 18.335 51.183 54.989 0 32.977-12.652 57.85-47.607 57.85zm-30.946-74.747v36.662h10.945c5.716 0 9.879-.601 12.497-1.788 2.619-1.188 3.928-3.928 3.928-8.212v-16.668c0-4.285-1.309-7.018-3.928-8.212-2.618-1.188-6.781-1.782-12.497-1.782h-10.945z"/></svg>