<svg xmlns="http://www.w3.org/2000/svg" shape-rendering="geometricPrecision" text-rendering="geometricPrecision" image-rendering="optimizeQuality" fill-rule="evenodd" clip-rule="evenodd" viewBox="0 0 512 512"><path fill="#4D4D4D" fill-rule="nonzero" d="M256 0c70.684 0 134.689 28.664 181.013 74.988C483.336 121.311 512 185.316 512 256s-28.664 134.689-74.987 181.013C390.689 483.336 326.684 512 256 512c-70.676 0-134.689-28.664-181.013-74.987C28.664 390.689 0 326.676 0 256c0-70.684 28.664-134.689 74.987-181.012C121.311 28.664 185.316 0 256 0z"/><path fill="#fff" fill-rule="nonzero" d="M256.001 19.597c65.278 0 124.383 26.466 167.162 69.242 42.777 42.78 69.242 101.884 69.242 167.162S465.94 380.384 423.16 423.16c-42.776 42.78-101.881 69.246-167.159 69.246-65.278 0-124.382-26.466-167.162-69.243-42.776-42.779-69.242-101.884-69.242-167.162S46.063 131.619 88.839 88.839c42.78-42.776 101.884-69.242 167.162-69.242z"/><path fill="#0065BD" d="M256.001 39.595c119.518 0 216.407 96.886 216.407 216.406 0 119.518-96.889 216.407-216.407 216.407-119.52 0-216.406-96.889-216.406-216.407 0-119.52 96.886-216.406 216.406-216.406z"/><path fill="#fff" d="M90.049 117.118l165.92 99.558 165.972-99.573a216.379 216.379 0 0135.095 58.662l-134.629 80.782 134.269 80.567c-8.667 21.424-20.665 41.135-35.349 58.509l-165.358-99.204-165.308 99.192a216.408 216.408 0 01-35.34-58.505l134.254-80.559-134.612-80.77a216.365 216.365 0 0135.086-58.659z"/></svg>