<?xml version="1.0" encoding="UTF-8"?>
<!-- Generated by Pixelmator Pro 3.1.1 -->
<svg width="24" height="24" viewBox="0 0 24 24" xmlns="http://www.w3.org/2000/svg" xmlns:xlink="http://www.w3.org/1999/xlink">
    <g id="Group">
        <path id="Path-copy-3" fill="#95a5a6" stroke="none" d="M 5 2.000025 C 3.8954 2.000025 3 2.900049 3 4.000025 L 3 12.000025 L 3 16.000025 L 3 22.000025 C 3 23.1 3.8954 24.000025 5 24.000025 L 19 24.000025 C 20.105 24.000025 21 23.1 21 22.000025 L 21 16.000025 L 21 12.000025 L 21 8.000025 L 15 2.000025 L 5 2.000025 Z"/>
        <path id="Path-copy-2" fill="#bdc3c7" stroke="none" d="M 5 1.000025 C 3.8954 1.000025 3 1.900049 3 3.000025 L 3 11.000025 L 3 15.000025 L 3 21.000025 C 3 22.1 3.8954 23.000025 5 23.000025 L 19 23.000025 C 20.105 23.000025 21 22.1 21 21.000025 L 21 15.000025 L 21 11.000025 L 21 7.000025 L 15 1.000025 L 5 1.000025 Z"/>
        <path id="Path-copy" fill="#95a5a6" stroke="none" d="M 21 7.000025 L 15 1.000025 L 15 5.000025 C 15 6.1 15.895 7.000025 17 7.000025 L 21 7.000025 Z"/>
        <path id="Path" fill="#f39c12" stroke="none" d="M 5 8 L 19 8 L 19 22 L 5 22 Z"/>
        <path id="path1" fill="#f1c40f" stroke="none" d="M 16 13 C 16 15.209139 14.209139 17 12 17 C 9.790861 17 8 15.209139 8 13 C 8 10.790861 9.790861 9 12 9 C 14.209139 9 16 10.790861 16 13 Z"/>
        <path id="path2" fill="#3498db" stroke="none" d="M 5 14.000025 L 19 14.000025 L 19 17.000025 L 5 17.000025 Z"/>
    </g>
</svg>
