<?xml version="1.0" encoding="UTF-8"?>
<!-- Generated by Pixelmator Pro 3.1.1 -->
<svg width="1750" height="1750" viewBox="0 0 1750 1750" xmlns="http://www.w3.org/2000/svg" xmlns:xlink="http://www.w3.org/1999/xlink">
    <path id="Path" fill="#28b463" stroke="none" d="M 1652.795166 0 L 97.204811 0 C 43.519989 0 -0 35.904053 -0 80.19397 C -0 80.19397 -0 80.19397 -0 80.19397 L -0 437.5 L 901.515137 656.25 L 1750 437.5 L 1750 80.19397 C 1750 35.904053 1706.47998 0 1652.795166 0 L 1652.795166 0 Z"/>
    <path id="path1" fill="#239b56" stroke="none" d="M 1750 437.5 L -0 437.5 L -0 875 L 901.515137 1006.25 L 1750 875 L 1750 437.5 Z"/>
    <path id="path2" fill="#1d8348" stroke="none" d="M -0 875 L -0 1312.5 L 848.484863 1400 L 1750 1312.5 L 1750 875 L -0 875 Z"/>
    <path id="path3" fill="#186a3b" stroke="none" d="M 97.204742 1750 L 1652.795288 1750 C 1706.480103 1750 1750 1714.095947 1750 1669.80603 L 1750 1669.80603 L 1750 1312.5 L -0 1312.5 L -0 1669.80603 C -0 1714.095947 43.519962 1750 97.204742 1750 L 97.204742 1750 Z"/>
    <path id="Path-copy-copy" fill="#000000" stroke="none" opacity="0.2" d="M 1319.30603 371.75 L 874.5 371.75 L 874.5 1378 L 1319.30603 1378 C 1363.536011 1377.855957 1399.355957 1342.036011 1399.5 1297.80603 L 1399.5 451.94397 C 1399.355957 407.713989 1363.536011 371.894043 1319.30603 371.75 Z"/>
    <path id="Path-copy-2-copy" fill="#000000" stroke="none" opacity="0.2" d="M 429.69397 1378 L 874.5 1378 L 874.5 371.75 L 429.69397 371.75 C 385.463989 371.894043 349.643982 407.713989 349.5 451.94397 L 349.5 1297.80603 C 349.643982 1342.036011 385.463989 1377.855957 429.69397 1378 Z"/>
    <g id="Layer1-copy">
        <g id="Group" opacity="0.2">
            <g id="g1">
                <path id="path4" fill="#231f20" stroke="none" d="M 1259.297607 708.422607 L 1259.297607 515.922607 L 489.297607 515.922607 L 489.297607 708.422607 L 489.297607 1285.922607 L 1259.297607 1285.922607 Z"/>
            </g>
            <g id="g2"/>
        </g>
        <g id="g3">
            <g id="g4">
                <path id="path5" fill="#60c4fc" stroke="none" d="M 489.297607 1285.922607 C 462.828857 1285.922607 441.172607 1264.266357 441.172607 1237.797607 L 441.172607 467.797607 C 441.172607 441.328857 462.828857 419.672607 489.297607 419.672607 L 1259.297607 419.672607 C 1285.766357 419.672607 1307.422607 441.328857 1307.422607 467.797607 L 1307.422607 1237.797607 C 1307.422607 1264.266357 1285.766357 1285.922607 1259.297607 1285.922607 L 489.297607 1285.922607 Z"/>
            </g>
            <g id="g5">
                <path id="path6" fill="#ffffff" stroke="none" d="M 1259.297607 467.797607 L 1259.297607 660.297607 L 1259.297607 1237.797607 L 489.297607 1237.797607 L 489.297607 660.297607 L 489.297607 467.797607 L 1259.297607 467.797607 M 1259.297607 371.547607 L 489.297607 371.547607 C 436.360138 371.547607 393.047607 414.860107 393.047607 467.797607 L 393.047607 660.297607 L 393.047607 1237.797607 C 393.047607 1290.735107 436.360138 1334.047607 489.297607 1334.047607 L 1259.297607 1334.047607 C 1312.235107 1334.047607 1355.547607 1290.735107 1355.547607 1237.797607 L 1355.547607 660.297607 L 1355.547607 467.797607 C 1355.547607 414.860107 1312.235107 371.547607 1259.297607 371.547607 L 1259.297607 371.547607 Z"/>
            </g>
        </g>
        <g id="g6">
            <g id="g7">
                <path id="path7" fill="#047101" stroke="none" d="M 414 1236 L 1320 1236 L 1320 1147.835327 C 1320 1147.835327 1275.868164 1056.630615 1234.332275 1001.907776 C 1203.180542 959.345581 1159.048706 947.184937 1117.512817 998.867676 L 1044.825195 1077.911743 L 889.065857 846.859741 C 831.954163 761.735291 735.902527 761.735291 678.790833 846.859741 L 414 1236 Z"/>
            </g>
        </g>
        <g id="g8">
            <path id="path8" fill="#f9e231" stroke="none" d="M 1138.985107 660.297607 C 1138.985107 700.165649 1106.665649 732.485107 1066.797607 732.485107 C 1026.929565 732.485107 994.610107 700.165649 994.610107 660.297607 C 994.610107 620.429565 1026.929565 588.110107 1066.797607 588.110107 C 1106.665649 588.110107 1138.985107 620.429565 1138.985107 660.297607 Z"/>
        </g>
        <g id="g9">
            <path id="path9" fill="#ffffff" stroke="none" d="M 1259.297607 467.797607 L 1259.297607 660.297607 L 1259.297607 1237.797607 L 489.297607 1237.797607 L 489.297607 660.297607 L 489.297607 467.797607 L 1259.297607 467.797607 M 1259.297607 371.547607 L 489.297607 371.547607 C 436.360138 371.547607 393.047607 414.860107 393.047607 467.797607 L 393.047607 660.297607 L 393.047607 1237.797607 C 393.047607 1290.735107 436.360138 1334.047607 489.297607 1334.047607 L 1259.297607 1334.047607 C 1312.235107 1334.047607 1355.547607 1290.735107 1355.547607 1237.797607 L 1355.547607 660.297607 L 1355.547607 467.797607 C 1355.547607 414.860107 1312.235107 371.547607 1259.297607 371.547607 L 1259.297607 371.547607 Z"/>
        </g>
    </g>
</svg>
