<svg xmlns="http://www.w3.org/2000/svg" shape-rendering="geometricPrecision" text-rendering="geometricPrecision" image-rendering="optimizeQuality" fill-rule="evenodd" clip-rule="evenodd" viewBox="0 0 512 420.166"><path d="M74.316 0h363.368C478.549 0 512 33.458 512 74.316V345.85c0 40.814-33.501 74.316-74.316 74.316H74.316C33.439 420.166 0 386.689 0 345.85V74.316C0 33.408 33.408 0 74.316 0zm89.772 133.689v111.973h16.955c6.044 0 10.181-.762 12.41-2.273 2.229-1.511 3.344-4.973 3.344-10.385v-99.315h47.75v83.797c0 13.531-.873 24.435-2.625 32.709-1.753 8.279-5.017 15.283-9.791 21.011s-11.301 9.709-19.574 11.939c-8.279 2.223-19.024 3.338-32.232 3.338-13.209 0-23.916-1.115-32.114-3.338-8.193-2.23-14.683-6.211-19.457-11.939-4.774-5.728-8.038-12.732-9.79-21.011-1.747-8.274-2.626-19.178-2.626-32.709v-83.797h47.75zm152.075 84.274v64.94h-47.744V133.689h47.744v60.879c.669 0 23.81-54.686 26.745-60.879h51.565l-35.811 73.294 37.006 75.92h-51.571c-3.04-6.613-27.049-64.94-27.934-64.94z"/></svg>