<?xml version="1.0" encoding="UTF-8"?>
<!-- Generated by Pixelmator Pro 3.1.1 -->
<svg width="1750" height="1750" viewBox="0 0 1750 1750" xmlns="http://www.w3.org/2000/svg" xmlns:xlink="http://www.w3.org/1999/xlink">
    <path id="Path" fill="#9575cd" stroke="none" d="M 1652.795166 0 L 97.204811 0 C 43.519989 0 -0 35.904053 -0 80.19397 C -0 80.19397 -0 80.19397 -0 80.19397 L -0 437.5 L 901.515137 656.25 L 1750 437.5 L 1750 80.19397 C 1750 35.904053 1706.47998 0 1652.795166 0 L 1652.795166 0 Z"/>
    <path id="path1" fill="#7e57c2" stroke="none" d="M 1750 437.5 L -0 437.5 L -0 875 L 901.515137 1006.25 L 1750 875 L 1750 437.5 Z"/>
    <path id="path2" fill="#673ab7" stroke="none" d="M -0 875 L -0 1312.5 L 848.484863 1400 L 1750 1312.5 L 1750 875 L -0 875 Z"/>
    <path id="path3" fill="#522ca2" stroke="none" d="M 97.204742 1750 L 1652.795288 1750 C 1706.480103 1750 1750 1714.095947 1750 1669.80603 L 1750 1669.80603 L 1750 1312.5 L -0 1312.5 L -0 1669.80603 C -0 1714.095947 43.519962 1750 97.204742 1750 L 97.204742 1750 Z"/>
    <path id="Path-copy-copy" fill="#000000" stroke="none" opacity="0.2" d="M 1319.30603 371.75 L 874.5 371.75 L 874.5 1378 L 1319.30603 1378 C 1363.536011 1377.855957 1399.355957 1342.036011 1399.5 1297.80603 L 1399.5 451.94397 C 1399.355957 407.713989 1363.536011 371.894043 1319.30603 371.75 Z"/>
    <path id="Path-copy-2-copy" fill="#000000" stroke="none" opacity="0.2" d="M 429.69397 1378 L 874.5 1378 L 874.5 371.75 L 429.69397 371.75 C 385.463989 371.894043 349.643982 407.713989 349.5 451.94397 L 349.5 1297.80603 C 349.643982 1342.036011 385.463989 1377.855957 429.69397 1378 Z"/>
    <path id="path4-copy" fill="#352c48" stroke="none" d="M 473.194 393.75 L 1275.30603 393.75 C 1319.595947 393.75 1355.5 429.654053 1355.5 473.94397 L 1355.5 1276.057007 C 1355.5 1320.347046 1319.595947 1356.250977 1275.30603 1356.250977 L 473.194 1356.250977 C 428.903992 1356.250977 393 1320.347046 393 1276.057007 L 393 473.94397 C 393 429.654053 428.903992 393.75 473.194 393.75 Z"/>
    <path id="path4-copy-2" fill="none" stroke="#e1a8f5" stroke-width="8" stroke-linecap="round" stroke-linejoin="round" d="M 473.194 393.75 L 1275.30603 393.75 C 1319.595947 393.75 1355.5 429.654053 1355.5 473.94397 L 1355.5 1276.057007 C 1355.5 1320.347046 1319.595947 1356.250977 1275.30603 1356.250977 L 473.194 1356.250977 C 428.903992 1356.250977 393 1320.347046 393 1276.057007 L 393 473.94397 C 393 429.654053 428.903992 393.75 473.194 393.75 Z"/>
    <g id="Group-copy">
        <path id="path4" fill="#cacaca" stroke="none" d="M 538.420593 247 C 507.462677 247 482.367889 269.422485 482.367889 303.052734 L 482.367889 471.210815 C 482.367889 499.237183 507.462677 527.26355 538.420593 527.26355 C 569.378479 527.26355 594.473267 499.237183 594.473267 471.210815 L 594.473267 303.052734 C 594.473267 269.422485 569.378479 247 538.420593 247 Z M 762.631409 247 C 731.673462 247 706.578674 269.422485 706.578674 303.052734 L 706.578674 471.210815 C 706.578674 499.237183 731.673462 527.26355 762.631409 527.26355 C 793.57251 527.26355 818.684082 499.237183 818.684082 471.210815 L 818.684082 303.052734 C 818.684082 269.422485 793.57251 247 762.631409 247 Z M 986.842224 247 C 955.901123 247 930.789551 269.422485 930.789551 303.052734 L 930.789551 471.210815 C 930.789551 499.237183 955.901123 527.26355 986.842224 527.26355 C 1017.783325 527.26355 1042.894897 499.237183 1042.894897 471.210815 L 1042.894897 303.052734 C 1042.894897 269.422485 1017.783325 247 986.842224 247 Z M 1211.053101 247 C 1180.111938 247 1155.000366 269.422485 1155.000366 303.052734 L 1155.000366 471.210815 C 1155.000366 499.237183 1180.111938 527.26355 1211.053101 527.26355 C 1241.994141 527.26355 1267.105713 499.237183 1267.105713 471.210815 L 1267.105713 303.052734 C 1267.105713 269.422485 1241.994141 247 1211.053101 247 Z"/>
        <path id="path5" fill="#cacaca" stroke="none" d="M 538.420593 990.790588 L 1211.053101 990.790588 L 1211.053101 1046.843262 L 538.420593 1046.843262 Z"/>
        <path id="path6" fill="#cacaca" stroke="none" d="M 538.420593 818.632446 L 1211.053101 818.632446 L 1211.053101 874.685181 L 538.420593 874.685181 Z"/>
        <path id="path7" fill="#cacaca" stroke="none" d="M 538.420593 648.474365 L 1211.053101 648.474365 L 1211.053101 704.5271 L 538.420593 704.5271 Z"/>
        <path id="path8" fill="#cacaca" stroke="none" d="M 538.420593 1158.947266 L 762.631409 1158.947266 L 762.631409 1215 L 538.420593 1215 Z"/>
    </g>
    <g id="g1">
        <path id="path9" fill="#ecf0f1" stroke="none" d="M 1301.667969 510.664185 L 833.656738 978.675415 L 804.664368 1007.667786 L 763.247375 1049.084717 L 763.247375 1214.752686 L 928.915283 1214.752686 L 970.332214 1173.335693 L 999.324585 1144.343262 L 1467.335815 676.332153 L 1301.667969 510.664185 Z"/>
        <path id="path10" fill="#bdc3c7" stroke="none" d="M 1384.501953 593.498169 L 763.247375 1214.752686 L 928.915283 1214.752686 L 970.332214 1173.335693 L 999.324585 1144.343262 L 1467.335815 676.332153 L 1384.501953 593.498169 Z"/>
        <path id="path11" fill="#e67e22" stroke="none" d="M 1260.250977 552.081177 L 1425.918823 717.749023 L 970.332214 1173.335693 L 804.664368 1007.667786 Z"/>
        <path id="path12" fill="#7f8c8d" stroke="none" d="M 1508.752686 469.247314 C 1462.987061 423.481567 1388.645142 423.687134 1343.084839 469.247314 L 1301.667969 510.664185 L 1467.335815 676.332153 L 1508.752686 634.915161 C 1554.312866 589.35498 1554.518433 515.013062 1508.752686 469.247314 Z"/>
        <g id="Group">
            <path id="path13" fill="#34495e" stroke="none" d="M 763 1098.535645 L 763.247375 1214.752686 L 879.464355 1215 L 821.232178 1156.767822 L 763 1098.535645 Z"/>
            <path id="path14" fill="#2c3e50" stroke="none" d="M 821.232178 1156.767822 L 763.247375 1214.752686 L 879.464355 1215 L 821.232178 1156.767822 Z"/>
        </g>
        <path id="path15" fill="#95a5a6" stroke="none" d="M 1508.752686 469.247314 C 1462.987061 423.481567 1388.645142 423.687134 1343.084839 469.247314 L 1301.667969 510.664185 L 1384.501953 593.498169 L 1508.752686 469.247314 Z"/>
        <path id="path16" fill="#d35400" stroke="none" d="M 1343.084839 634.915161 L 1425.918823 717.749023 L 970.332214 1173.335693 L 887.498291 1090.501709 Z"/>
    </g>
</svg>
