<svg xmlns="http://www.w3.org/2000/svg" shape-rendering="geometricPrecision" text-rendering="geometricPrecision" image-rendering="optimizeQuality" fill-rule="evenodd" clip-rule="evenodd" viewBox="0 0 512 512"><g fill-rule="nonzero"><path fill="#4D4D4D" d="M256 0c70.684 0 134.689 28.664 181.012 74.987C483.336 121.311 512 185.316 512 256c0 70.684-28.664 134.689-74.988 181.013C390.689 483.336 326.684 512 256 512c-70.677 0-134.689-28.664-181.013-74.987C28.664 390.689 0 326.676 0 256c0-70.684 28.664-134.689 74.987-181.013C121.311 28.664 185.316 0 256 0z"/><path fill="#fff" d="M256.001 19.597c65.278 0 124.382 26.466 167.162 69.242 42.776 42.78 69.242 101.884 69.242 167.162S465.939 380.384 423.16 423.16c-42.777 42.78-101.881 69.246-167.159 69.246-65.278 0-124.382-26.466-167.162-69.243-42.777-42.779-69.243-101.884-69.243-167.162S46.062 131.619 88.839 88.839c42.78-42.776 101.884-69.242 167.162-69.242z"/><path fill="#00853F" d="M256.001 39.594c119.517 0 216.407 96.887 216.407 216.407 0 119.518-96.89 216.407-216.407 216.407-119.521 0-216.407-96.889-216.407-216.407 0-119.52 96.886-216.407 216.407-216.407z"/><path fill="#FDEF42" d="M146.792 69.145v373.709c32.061 18.779 69.373 29.554 109.209 29.554 119.517 0 216.407-96.889 216.407-216.407 0-119.52-96.89-216.407-216.407-216.407-39.836 0-77.148 10.776-109.209 29.551z"/><path fill="#E31B23" d="M365.233 69.16v373.682c64.112-37.566 107.175-107.168 107.175-186.841 0-79.672-43.063-149.278-107.175-186.841z"/><path fill="#00853F" d="M256.013 181.82l-16.349 50.313h-52.903l42.8 31.095-16.348 50.313 42.8-31.095 42.8 31.095-16.349-50.313 42.8-31.095h-52.902z"/></g></svg>