<svg xmlns="http://www.w3.org/2000/svg" shape-rendering="geometricPrecision" text-rendering="geometricPrecision" image-rendering="optimizeQuality" fill-rule="evenodd" clip-rule="evenodd" viewBox="0 0 512 512"><g fill-rule="nonzero"><path fill="#4D4D4D" d="M256 0c70.683 0 134.689 28.663 181.012 74.987C483.336 121.311 512 185.316 512 256c0 70.683-28.664 134.689-74.988 181.012C390.689 483.336 326.683 512 256 512c-70.677 0-134.689-28.664-181.013-74.988C28.663 390.689 0 326.676 0 256c0-70.684 28.663-134.689 74.987-181.013C121.311 28.663 185.316 0 256 0z"/><path fill="#fff" d="M256.001 19.596c65.278 0 124.383 26.467 167.162 69.243 42.777 42.78 69.243 101.884 69.243 167.162S465.94 380.384 423.16 423.16c-42.776 42.78-101.881 69.246-167.159 69.246-65.278 0-124.382-26.466-167.162-69.243-42.776-42.779-69.243-101.884-69.243-167.162S46.063 131.619 88.839 88.839c42.78-42.776 101.884-69.243 167.162-69.243z"/><path fill="#CE1126" d="M256.001 39.594c119.518 0 216.407 96.887 216.407 216.407 0 119.518-96.889 216.407-216.407 216.407-119.52 0-216.407-96.889-216.407-216.407 0-119.52 96.887-216.407 216.407-216.407z"/><path fill="#002868" d="M69.523 146.152h372.953c19.009 32.202 29.932 69.747 29.932 109.849 0 39.479-10.578 76.487-29.046 108.352H68.641c-18.469-31.865-29.047-68.873-29.047-108.352 0-40.102 10.92-77.647 29.929-109.849z"/><path fill="#fff" d="M343.281 255.254c0-48.205-39.074-87.28-87.28-87.28-48.202 0-87.28 39.075-87.28 87.28 0 48.203 39.078 87.28 87.28 87.28 48.206 0 87.28-39.077 87.28-87.28z"/></g></svg>