<svg xmlns="http://www.w3.org/2000/svg" shape-rendering="geometricPrecision" text-rendering="geometricPrecision" image-rendering="optimizeQuality" fill-rule="evenodd" clip-rule="evenodd" viewBox="0 0 512 512"><g fill-rule="nonzero"><path fill="#4D4D4D" d="M256 0c70.684 0 134.689 28.664 181.013 74.988C483.336 121.311 512 185.316 512 256s-28.664 134.689-74.987 181.013C390.689 483.336 326.684 512 256 512c-70.676 0-134.689-28.664-181.012-74.987C28.664 390.689 0 326.676 0 256c0-70.684 28.664-134.689 74.988-181.012C121.311 28.664 185.316 0 256 0z"/><path fill="#fff" d="M256.002 19.597c65.277 0 124.382 26.466 167.161 69.242 42.777 42.78 69.243 101.884 69.243 167.162S465.94 380.384 423.16 423.16c-42.776 42.78-101.881 69.246-167.158 69.246-65.279 0-124.383-26.466-167.163-69.243-42.776-42.779-69.242-101.884-69.242-167.162S46.063 131.619 88.839 88.839c42.78-42.776 101.884-69.242 167.163-69.242z"/><path fill="#4189DD" d="M256.002 39.595c119.517 0 216.406 96.886 216.406 216.406 0 119.518-96.889 216.407-216.406 216.407-119.521 0-216.407-96.889-216.407-216.407 0-119.52 96.886-216.406 216.407-216.406z"/><path fill="#fff" d="M256.069 149.379l-23.918 73.52h-77.37l62.592 45.519-23.874 73.629 62.526-45.454 62.615 45.454-23.874-73.629 62.594-45.519h-77.372z"/></g></svg>