<svg xmlns="http://www.w3.org/2000/svg" shape-rendering="geometricPrecision" text-rendering="geometricPrecision" image-rendering="optimizeQuality" fill-rule="evenodd" clip-rule="evenodd" viewBox="0 0 512 512"><g fill-rule="nonzero"><path fill="#4D4D4D" d="M256 0c70.684 0 134.689 28.664 181.012 74.988C483.336 121.311 512 185.316 512 256s-28.664 134.689-74.988 181.013C390.689 483.336 326.684 512 256 512c-70.676 0-134.689-28.664-181.013-74.987C28.664 390.689 0 326.676 0 256c0-70.684 28.664-134.689 74.987-181.012C121.311 28.664 185.316 0 256 0z"/><path fill="#fff" d="M256.001 19.597c65.278 0 124.383 26.466 167.162 69.242 42.777 42.78 69.242 101.884 69.242 167.162S465.94 380.384 423.16 423.16c-42.776 42.78-101.881 69.246-167.159 69.246-65.278 0-124.382-26.466-167.162-69.243-42.776-42.779-69.242-101.884-69.242-167.162S46.063 131.619 88.839 88.839c42.78-42.776 101.884-69.242 167.162-69.242z"/><path fill="#EE1C25" d="M459.799 328.922H52.203c29.932 83.637 109.867 143.486 203.798 143.486 93.928 0 173.867-59.849 203.798-143.486z"/><path fill="#0B4EA2" d="M52.203 328.922h407.596c8.154-22.787 12.609-47.332 12.609-72.921 0-25.486-4.417-49.935-12.508-72.64H52.103c-8.092 22.705-12.508 47.154-12.508 72.64 0 25.589 4.454 50.134 12.608 72.921z"/><path fill="#fff" d="M52.103 183.361H459.9C430.047 99.573 350.036 39.595 256.001 39.595c-94.034 0-174.049 59.978-203.898 143.766z"/><path fill="#fff" d="M295.309 140.419H115.453l-.617 5.866c-.133 1.275-3.283 32.004-3.283 99.484 0 31.706 10.716 59.678 31.856 83.138 14.811 16.438 34.151 30.277 59.129 42.308l2.843 1.369 2.843-1.369c24.978-12.031 44.32-25.87 59.131-42.308 21.138-23.46 31.857-51.432 31.857-83.138 0-67.48-3.15-98.209-3.283-99.484l-.62-5.866z"/><path fill="#EE1C25" d="M205.381 365.313c-35.91-17.296-87.277-51.63-87.277-119.544 0-67.914 3.247-98.799 3.247-98.799h168.063s3.247 30.885 3.247 98.799-51.368 102.248-87.28 119.544z"/><path fill="#fff" d="M213.071 227.965c9.724.156 28.695.537 45.587-5.116 0 0-.446 6.046-.446 13.087 0 7.044.446 13.087.446 13.087-15.496-5.184-34.629-5.294-45.587-5.155v37.513h-15.36v-37.513c-10.958-.139-30.091-.029-45.587 5.155 0 0 .446-6.043.446-13.087 0-7.041-.446-13.087-.446-13.087 16.893 5.653 35.863 5.272 45.587 5.116v-23.558c-8.862-.08-21.633.342-36.072 5.175 0 0 .446-6.043.446-13.087 0-7.041-.446-13.087-.446-13.087 14.418 4.824 27.174 5.255 36.034 5.178-.458-14.917-4.804-33.722-4.804-33.722s8.945.7 12.521.7c3.581 0 12.52-.7 12.52-.7s-4.343 18.805-4.8 33.722c8.862.077 21.615-.354 36.033-5.178 0 0-.445 6.043-.445 13.087 0 7.041.445 13.087.445 13.087-14.439-4.833-27.209-5.255-36.072-5.178v23.561z"/><path fill="#0B4EA2" d="M205.372 277.316c-18.088 0-27.777 25.087-27.777 25.087s-5.376-11.894-20.13-11.894c-9.988 0-17.344 8.88-22.023 17.105 18.167 28.895 47.148 46.729 69.927 57.699 22.785-10.97 51.786-28.798 69.954-57.699-4.679-8.225-12.036-17.105-22.023-17.105-14.758 0-20.154 11.894-20.154 11.894s-9.686-25.087-27.774-25.087z"/></g></svg>