<?xml version="1.0" encoding="UTF-8"?>
<!-- Generated by Pixelmator Pro 3.1.1 -->
<svg width="1944" height="1944" viewBox="0 0 1944 1944" xmlns="http://www.w3.org/2000/svg" xmlns:xlink="http://www.w3.org/1999/xlink">
    <g id="Group">
        <path id="Path" fill="#95a5a6" stroke="none" d="M 405 122.001953 C 315.527405 122.001953 243 194.903931 243 284.001953 L 243 932.002014 L 243 1256.001953 L 243 1742.001953 C 243 1831.099976 315.527405 1904.001953 405 1904.001953 L 1539 1904.001953 C 1628.505005 1904.001953 1701 1831.099976 1701 1742.001953 L 1701 1256.001953 L 1701 932.002014 L 1701 608.001953 L 1215 122.001953 L 405 122.001953 Z"/>
        <path id="path1" fill="#bdc3c7" stroke="none" d="M 405 41.001953 C 315.527405 41.001953 243 113.903931 243 203.001953 L 243 851.001953 L 243 1175.001953 L 243 1661.001953 C 243 1750.099976 315.527405 1823.001953 405 1823.001953 L 1539 1823.001953 C 1628.505005 1823.001953 1701 1750.099976 1701 1661.001953 L 1701 1175.001953 L 1701 851.001953 L 1701 527.001953 L 1215 41.001953 L 405 41.001953 Z"/>
        <path id="path2" fill="#95a5a6" stroke="none" d="M 1701 527.001953 L 1215 41.001953 L 1215 365.001953 C 1215 454.099976 1287.494995 527.001953 1377 527.001953 L 1701 527.001953 Z"/>
        <path id="path3" fill="#95a5a6" stroke="none" d="M 486 608 L 486 689 L 1458 689 L 1458 608 L 486 608 Z M 486 851 L 486 932 L 1458 932 L 1458 851 L 486 851 Z M 486 1094 L 486 1175 L 1458 1175 L 1458 1094 L 486 1094 Z M 486 1337 L 486 1418 L 1458 1418 L 1458 1337 L 486 1337 Z"/>
    </g>
</svg>
