<svg xmlns="http://www.w3.org/2000/svg" shape-rendering="geometricPrecision" text-rendering="geometricPrecision" image-rendering="optimizeQuality" fill-rule="evenodd" clip-rule="evenodd" viewBox="0 0 512 512"><g fill-rule="nonzero"><path fill="#4D4D4D" d="M256 0c70.684 0 134.689 28.664 181.013 74.988C483.336 121.311 512 185.316 512 256s-28.664 134.689-74.987 181.013C390.689 483.336 326.684 512 256 512c-70.676 0-134.689-28.664-181.012-74.987C28.664 390.689 0 326.676 0 256c0-70.684 28.664-134.689 74.988-181.012C121.311 28.664 185.316 0 256 0z"/><path fill="#fff" d="M256.002 19.597c65.277 0 124.382 26.466 167.161 69.242 42.777 42.78 69.243 101.884 69.243 167.162S465.94 380.384 423.16 423.16c-42.776 42.78-101.881 69.246-167.158 69.246-65.279 0-124.383-26.466-167.163-69.243-42.776-42.779-69.242-101.884-69.242-167.162S46.063 131.619 88.839 88.839c42.78-42.776 101.884-69.242 167.163-69.242z"/><path fill="#007A5E" d="M154.383 64.903v382.194C86.088 410.702 39.595 338.788 39.595 256.001c0-82.79 46.493-154.707 114.788-191.098z"/><path fill="#CE1126" d="M349.991 61.018v389.966c-28.426 13.728-60.309 21.424-93.989 21.424-36.731 0-71.319-9.167-101.619-25.311V64.903c30.3-16.145 64.888-25.308 101.619-25.308 33.68 0 65.563 7.696 93.989 21.423z"/><path fill="#FCD116" d="M349.991 450.984V61.018c72.443 34.983 122.417 109.144 122.417 194.983 0 85.837-49.974 159.998-122.417 194.983zM252.187 197.092l-13.125 40.396h-42.478l34.365 24.968-13.126 40.398 34.364-24.969 34.364 24.969-13.125-40.398 34.364-24.968h-42.477z"/></g></svg>