<svg xmlns="http://www.w3.org/2000/svg" shape-rendering="geometricPrecision" text-rendering="geometricPrecision" image-rendering="optimizeQuality" fill-rule="evenodd" clip-rule="evenodd" viewBox="0 0 512 512"><g fill-rule="nonzero"><path fill="#4D4D4D" d="M256 0c70.684 0 134.689 28.664 181.012 74.987C483.336 121.311 512 185.316 512 256c0 70.684-28.664 134.689-74.988 181.013C390.689 483.336 326.684 512 256 512c-70.677 0-134.689-28.664-181.013-74.987C28.664 390.689 0 326.676 0 256c0-70.684 28.664-134.689 74.987-181.013C121.311 28.664 185.316 0 256 0z"/><path fill="#fff" d="M256.001 19.597c65.278 0 124.382 26.466 167.162 69.242 42.776 42.78 69.242 101.884 69.242 167.162S465.939 380.384 423.16 423.16c-42.777 42.78-101.881 69.246-167.159 69.246-65.278 0-124.382-26.466-167.162-69.243-42.777-42.779-69.243-101.884-69.243-167.162S46.062 131.619 88.839 88.839c42.78-42.776 101.884-69.242 167.162-69.242z"/><path fill="#007A3D" d="M459.973 183.57H52.029C81.822 99.674 161.887 39.594 256.001 39.594c94.111 0 174.179 60.08 203.972 143.976z"/><path fill="#fff" d="M52.029 183.57h407.944c8.042 22.646 12.435 47.025 12.435 72.431s-4.393 49.782-12.435 72.431H52.029c-8.042-22.649-12.435-47.025-12.435-72.431s4.393-49.785 12.435-72.431z"/><path fill="#CE1126" d="M52.029 328.432h407.944c-29.793 83.894-109.861 143.976-203.972 143.976-94.114 0-174.179-60.082-203.972-143.976z"/><path d="M98.253 107.872l113.545 75.698v144.862L98.253 404.131c-36.367-38.718-58.659-90.817-58.659-148.13s22.292-109.412 58.659-148.129z"/></g></svg>