<svg xmlns="http://www.w3.org/2000/svg" shape-rendering="geometricPrecision" text-rendering="geometricPrecision" image-rendering="optimizeQuality" fill-rule="evenodd" clip-rule="evenodd" viewBox="0 0 512 512"><g fill-rule="nonzero"><path fill="#4D4D4D" d="M256 0c70.683 0 134.689 28.663 181.012 74.987C483.336 121.311 512 185.316 512 256c0 70.683-28.664 134.689-74.988 181.012C390.689 483.336 326.683 512 256 512c-70.677 0-134.689-28.664-181.013-74.988C28.663 390.689 0 326.676 0 256c0-70.684 28.663-134.689 74.987-181.013C121.311 28.663 185.316 0 256 0z"/><path fill="#fff" d="M256.001 19.596c65.278 0 124.383 26.467 167.162 69.243 42.777 42.78 69.243 101.884 69.243 167.162S465.94 380.384 423.16 423.16c-42.776 42.78-101.881 69.246-167.159 69.246-65.278 0-124.382-26.466-167.162-69.243-42.776-42.779-69.243-101.884-69.243-167.162S46.063 131.619 88.839 88.839c42.78-42.776 101.884-69.243 167.162-69.243z"/><path fill="#239E46" d="M256.001 39.594c119.518 0 216.407 96.887 216.407 216.407 0 119.518-96.889 216.407-216.407 216.407-119.52 0-216.407-96.889-216.407-216.407 0-119.52 96.887-216.407 216.407-216.407z"/><path d="M68.579 364.247h374.845c18.43-31.841 28.984-68.811 28.984-108.246 0-119.52-96.889-216.407-216.407-216.407-119.52 0-216.407 96.887-216.407 216.407 0 39.435 10.554 76.405 28.985 108.246z"/><path fill="#E70013" d="M69.733 145.798h372.533C404.571 82.223 335.269 39.594 256.001 39.594c-79.271 0-148.572 42.629-186.268 106.204z"/><path fill="#fff" d="M278.122 216.395c-9.884-9.878-23.532-15.986-38.609-15.986-30.162 0-54.614 24.453-54.614 54.615 0 30.159 24.452 54.612 54.614 54.612 15.077 0 28.725-6.108 38.609-15.986a47.245 47.245 0 01-27.565 8.824c-26.209 0-47.452-21.244-47.452-47.45 0-26.209 21.243-47.453 47.452-47.453a47.245 47.245 0 0127.565 8.824z"/><path fill="#fff" d="M266.068 255.024l73.455-23.868-45.398 62.485v-77.237l45.398 62.485z"/></g></svg>