<svg xmlns="http://www.w3.org/2000/svg" shape-rendering="geometricPrecision" text-rendering="geometricPrecision" image-rendering="optimizeQuality" fill-rule="evenodd" clip-rule="evenodd" viewBox="0 0 512 512"><path fill="#4D4D4D" fill-rule="nonzero" d="M256 0c70.684 0 134.689 28.664 181.013 74.987C483.336 121.311 512 185.316 512 256c0 70.684-28.664 134.689-74.987 181.013C390.689 483.336 326.684 512 256 512c-70.676 0-134.689-28.664-181.013-74.987C28.664 390.689 0 326.676 0 256c0-70.684 28.664-134.689 74.987-181.013C121.311 28.664 185.316 0 256 0z"/><path fill="#fff" fill-rule="nonzero" d="M256.001 19.597c65.278 0 124.383 26.466 167.162 69.242 42.777 42.78 69.243 101.884 69.243 167.162S465.94 380.384 423.16 423.16c-42.776 42.78-101.881 69.246-167.159 69.246-65.278 0-124.382-26.466-167.162-69.243-42.776-42.779-69.242-101.884-69.242-167.162S46.063 131.619 88.839 88.839c42.78-42.776 101.884-69.242 167.162-69.242z"/><path fill-rule="nonzero" d="M256.001 39.594c119.518 0 216.407 96.887 216.407 216.407 0 119.518-96.889 216.407-216.407 216.407-119.52 0-216.406-96.889-216.406-216.407 0-119.52 96.886-216.407 216.406-216.407z"/><path fill="#fff" fill-rule="nonzero" d="M50.547 187.881h410.908C432.908 101.74 351.718 39.594 256.001 39.594c-95.717 0-176.907 62.146-205.454 148.287z"/><path fill="#007168" fill-rule="nonzero" d="M55.595 174.233h400.812C424.149 95.254 346.582 39.594 256.001 39.594c-90.583 0-168.148 55.66-200.406 134.639z"/><path fill="#fff" fill-rule="nonzero" d="M461.444 324.154H50.559c28.553 86.123 109.737 148.254 205.442 148.254 95.706 0 176.887-62.131 205.443-148.254z"/><path fill="#FCE100" fill-rule="nonzero" d="M456.322 337.982H55.681c32.308 78.867 109.816 134.426 200.32 134.426 90.501 0 168.012-55.559 200.321-134.426z"/><path fill="#D21034" fill-rule="nonzero" d="M111.214 416.831l210.951-160.724-211.078-160.82c-43.896 39.606-71.492 96.933-71.492 160.714 0 63.84 27.649 121.218 71.619 160.83z"/><path fill="#FCE100" fill-rule="nonzero" d="M184.338 337.97l-53.239-38.98-53.165 38.992 20.618-62.68-53.511-38.516 65.984.242 20.095-62.795 20.16 62.827 65.93-.292-53.522 38.587z"/><path fill="#fff" d="M84.892 294.261h38.354c3.085 3.463 9.97 4.874 16.529-.041 12.022-6.581 35.276.041 35.276.041l4.578-4.865-11.162-36.633-4.006-4.296s-8.587-5.151-24.901-3.433-22.038-.573-22.038-.573-14.312 1.718-18.318 3.72c-.44.357-4.579 4.582-4.579 4.582l-9.733 41.498z"/><path fill-rule="nonzero" d="M85.615 293.688h37.295c.959-1.095 3.353-3.286 7.475-5.393-14.602-5.795-37.614-2.917-37.696-2.908a.572.572 0 11-.133-1.137c.083-.012 23.455-2.931 38.428 3.085l.277-39.154a.571.571 0 111.143.003l-.281 39.278c2.424-1.089 5.338-2.111 8.789-2.89 6.684-1.508 15.404-2.131 26.487-.605a.57.57 0 11-.151 1.13c-10.935-1.502-19.517-.894-26.085.588-3.147.711-5.828 1.618-8.077 2.586 2.746 1.346 5.116 3.052 6.872 5.208 11.493-5.855 32.067-.626 34.913.141l4.115-4.372-11.024-36.19-2.589-2.772 6.516 30.407a.567.567 0 01-.44.676.57.57 0 01-.679-.44l-6.87-32.054a.317.317 0 01-.009-.068c-1.573-.833-9.818-4.726-24.275-3.206-15.003 1.579-21.176-.221-22.159-.555-1.343.165-12.945 1.627-17.323 3.35l-3.808 16.515a.572.572 0 01-1.113-.257l3.507-15.218c-1.151 1.145-3.091 3.12-3.575 3.61l-9.53 40.642zm46.316-4.726a.567.567 0 01-.386.147.572.572 0 01-.204-.035c-4.012 1.966-6.368 4.03-7.371 5.119 1.594 1.591 4.091 2.645 6.978 2.639 2.495-.006 5.279-.806 8.03-2.739-1.783-2.149-4.218-3.826-7.047-5.131zm8.394 5.615a.637.637 0 01-.133.142l-.039.026c-3.073 2.099-5.981 3.239-8.862 3.318-2.902.083-5.745-.903-8.67-3.052a.55.55 0 01-.16-.177H84.892a.575.575 0 01-.558-.703l9.733-41.498a.593.593 0 01.148-.269c.012-.012 4.169-4.254 4.632-4.626a.583.583 0 01.103-.065c4.101-2.052 18.463-3.775 18.504-3.781a.585.585 0 01.272.038c.018.006 5.6 2.238 21.775.534 16.505-1.735 25.226 3.498 25.25 3.513a.542.542 0 01.127.104l4.009 4.292c.055.062.1.139.127.224l11.152 36.604a.572.572 0 01-.12.588l-4.579 4.865a.585.585 0 01-.57.159c-.065-.021-22.678-6.456-34.572-.236z"/><path fill-rule="nonzero" d="M131.831 248.181l-.286 40.359.286-40.359zm32.63.573l6.87 32.057-6.87-32.057zm-64.879-.502l-3.811 16.529 3.811-16.529zm0 0L256.001 39.594 99.582 248.252z"/><path d="M141.042 276.4c.071-.737.142-2.11.207-3.586.085 1.98.1 3.687-.122 3.61a.703.703 0 00-.085-.024zm-3.472-39.473c-.753.644-1.541 1.308-2.037 1.686-.133-.304-.422-.649-.667-.933l3.49-3.147a.584.584 0 00.153-.221l.41.824a83.998 83.998 0 01-1.349 1.791zm-19.316 14.493l.056.094c-1.402.856-10.902 9.683-10.931 9.71a.565.565 0 00-.169.295l-.221.879-1.385 1.187-.702-.525a.579.579 0 00-.724.029l-14.27 12.688h-1.922a.57.57 0 00-.407.166l-7.874 7.873c-.974.089-1.895.192-2.804.417a8.551 8.551 0 00-2.876 1.272l-.071.059-14.35 12.662a.574.574 0 00-.056.8l9.022 10.577c.041.05.088.092.141.121.621.369 1.22.544 1.81.537.596-.005 1.166-.194 1.727-.546a.596.596 0 00.154-.141c6.37-7.646 12.709-15.23 18.958-22.965a5.12 5.12 0 00.968-1.701 4.843 4.843 0 00.251-1.629l10.348-9.193c.313.027.584.056.856.086.36.041.723.082 1.187.112a.568.568 0 00.605-.535.566.566 0 00-.463-.596c-.387-.103-.706-.233-.827-.401-.068-.092-.036-.263.159-.55l1.884-1.467 1.254 1.609c-.637.845-2.184 2.893-2.22 2.893h-2.943a.574.574 0 00-.422.186l-5.574 5.049a.571.571 0 00-.041.805l.044.048 2.35 2.069 3.643 9.99a.572.572 0 00.865.272l4.546-3.203a.572.572 0 00.216-.635l-2.849-10.108 6.2-6.716a.57.57 0 00.052-.712l-2.184-3.395 1.051-1.402c3.188 1.949 22.732 13.551 30.85 10.002a.574.574 0 00.295-.753.563.563 0 00-.198-.239c.567-2.63.762-9.464.762-9.488a.576.576 0 00-.511-.585c-.065-.006-22.54-2.361-23.018-6.447-.466-3.962 4.552-4.443 4.567-4.443a.572.572 0 00.402-.909l-2.244-3.239.157-.543 3.321 4.207a.57.57 0 00.8.094l8.679-7.401 53.094 60.531a.57.57 0 00.644.153c1.55-.629 2.504-1.145 3.123-1.933.635-.8.868-1.795.977-3.372a.568.568 0 00-.165-.443c-.065-.065-47.562-54.596-52.034-59.733l3.666-3.909c.431-.487.724-.835.927-1.293.178-.404.263-.85.284-1.493l5.7-4.96c.72.28 1.326.643 1.848 1.077.603.499 1.11 1.102 1.571 1.789a.571.571 0 00.794.157l.05-.036 16.565-14.037c.342.195.788.357 1.251.422.567.083 1.181.03 1.71-.257a.52.52 0 00.121-.088l27.948-26.826a.572.572 0 00-.727-.88l-30.123 21.276-.443-.333c.032-.078.074-.151.115-.228.331-.602.661-1.205-.28-2.536l-.059-.074c-.892-1.027-1.907-.581-2.743.116a9.194 9.194 0 00-.856.838c-.118.124.162.213-.018.213-.144 0-1.736-.573-3.138-1.45-.744-.464-1.396-.998-1.665-1.547a.57.57 0 00-.762-.263.582.582 0 00-.322.479l-.289 4.696-7.404 6.897-5.644-.254a.573.573 0 00-.425.159l-8.553 8.29a.533.533 0 00-.147.242l-.423 1.257-.655-1.027a.575.575 0 00-.791-.171l-.026.018c-.145.106-.579.537-1.169 1.118l-.03.03c-1.219 1.211-3.109 3.076-3.926 3.64l-13.993-15.806.723-2.648a.577.577 0 00-.13-.537l-9.09-9.887a.567.567 0 00-.275-.165 11.836 11.836 0 00-2.075-.514c-1.435-.212-2.984-.136-4.372.526-1.396.67-2.612 1.922-3.348 4.053a12.985 12.985 0 00-.528 2.181c-.821 1.187-7.067-.103-7.085-.106a.569.569 0 00-.236 0l-3.741.803a.555.555 0 00-.348.231l-21.123 29.94a.572.572 0 00.056.724l11.738 14.137a.57.57 0 00.895-.021l24.051-30.466a.603.603 0 00.124-.306l.602-7.307 4.166 4.653a.573.573 0 00.354.186c.88.111 1.739.173 2.58.106a6.941 6.941 0 002.158-.514l13.609 15.189-1.98 1.933a.573.573 0 00-.013.809l.003.003c.446.499.768.845 1.09 1.19.325.348.652.703 1.048 1.142.2.225.537.254.77.074.399-.265.786-.558 1.172-.847.237-.177.473-.354.715-.528l.292.425c-.401.256-.767.528-1.134.803-.404.301-.808.602-1.245.868-.809-.546-1.583-1.152-2.152-1.863-.6-.75-.975-1.63-.916-2.704a.572.572 0 00-.959-.449l-7.994 6.663a.573.573 0 00-.198.328l-.228 1.139-23.511 19.546-1.971.248a.574.574 0 00-.499.517l-.538 6.149a.575.575 0 00.954.476l15.49-12.819a.56.56 0 00.209-.44v-.652l.665.555c.218.18.531.171.741-.009l11.982-9.585z"/></svg>