<svg xmlns="http://www.w3.org/2000/svg" shape-rendering="geometricPrecision" text-rendering="geometricPrecision" image-rendering="optimizeQuality" fill-rule="evenodd" clip-rule="evenodd" viewBox="0 0 512 512"><g fill-rule="nonzero"><path fill="#4D4D4D" d="M256 0c70.683 0 134.689 28.663 181.012 74.987C483.336 121.311 512 185.316 512 256c0 70.683-28.664 134.689-74.988 181.012C390.689 483.336 326.683 512 256 512c-70.677 0-134.689-28.664-181.013-74.988C28.663 390.689 0 326.676 0 256c0-70.684 28.663-134.689 74.987-181.013C121.311 28.663 185.316 0 256 0z"/><path fill="#fff" d="M256.001 19.596c65.278 0 124.383 26.467 167.162 69.243 42.777 42.78 69.243 101.884 69.243 167.162S465.94 380.384 423.16 423.16c-42.776 42.78-101.881 69.246-167.159 69.246-65.278 0-124.382-26.466-167.162-69.243-42.776-42.779-69.243-101.884-69.243-167.162S46.063 131.619 88.839 88.839c42.78-42.776 101.884-69.243 167.162-69.243z"/><path fill="#C1272D" d="M256.001 39.594c119.518 0 216.407 96.887 216.407 216.407 0 119.518-96.889 216.407-216.407 216.407-119.52 0-216.407-96.889-216.407-216.407 0-119.52 96.887-216.407 216.407-216.407z"/><path fill="#006233" d="M260.913 172.688l19.517 60.067h79.085l-63.982 46.485 24.432 75.192-63.963-46.471-63.963 46.471 24.431-75.192-63.982-46.485h79.085l24.429-75.184 4.911 15.117zm22.879 70.416l8.384 25.802 35.514-25.802h-43.898zm16.523 84.279l-13.568-41.759-21.955 15.951 35.523 25.808zm-16.926-52.093l-10.458-32.186h-33.859l-10.458 32.186 27.388 19.898 27.387-19.898zm-13.82-42.535l-13.567-41.757-13.567 41.757h27.134zm-22.358 68.82l-21.954-15.951-13.568 41.759 35.522-25.808zm-62.898-58.471l35.515 25.802 8.383-25.802h-43.898z"/></g></svg>