<svg xmlns="http://www.w3.org/2000/svg" shape-rendering="geometricPrecision" text-rendering="geometricPrecision" image-rendering="optimizeQuality" fill-rule="evenodd" clip-rule="evenodd" viewBox="0 0 512 512"><g fill-rule="nonzero"><path fill="#4D4D4D" d="M256 0c70.683 0 134.689 28.663 181.012 74.987C483.336 121.311 512 185.316 512 256c0 70.683-28.664 134.689-74.988 181.012C390.689 483.336 326.683 512 256 512c-70.677 0-134.689-28.664-181.013-74.988C28.663 390.689 0 326.676 0 256c0-70.684 28.663-134.689 74.987-181.013C121.311 28.663 185.316 0 256 0z"/><path fill="#fff" d="M256.001 19.596c65.278 0 124.383 26.467 167.162 69.243 42.777 42.78 69.243 101.884 69.243 167.162S465.94 380.384 423.16 423.16c-42.776 42.78-101.881 69.246-167.159 69.246-65.278 0-124.382-26.466-167.162-69.243-42.776-42.779-69.243-101.884-69.243-167.162S46.063 131.619 88.839 88.839c42.78-42.776 101.884-69.243 167.162-69.243z"/><path fill="#D21034" d="M256.001 39.594c119.518 0 216.407 96.887 216.407 216.407 0 119.518-96.889 216.407-216.407 216.407-119.52 0-216.407-96.889-216.407-216.407 0-119.52 96.887-216.407 216.407-216.407z"/><path fill="#007E3A" d="M70.68 367.805h370.639c19.729-32.631 31.089-70.89 31.089-111.804 0-40.734-11.263-78.831-30.829-111.366H70.421c-19.567 32.535-30.827 70.632-30.827 111.366 0 40.914 11.357 79.173 31.086 111.804z"/><path fill="#fff" d="M298.527 183.139a74.898 74.898 0 00-13.949-1.308c-41.082 0-74.388 33.304-74.388 74.389 0 41.084 33.306 74.391 74.388 74.391 4.768 0 9.429-.452 13.949-1.311-34.419-6.53-60.442-36.763-60.442-73.08 0-36.315 26.023-66.551 60.442-73.081z"/></g></svg>