<svg viewBox="0 0 512 512" xmlns="http://www.w3.org/2000/svg" fill-rule="evenodd" clip-rule="evenodd" stroke-linejoin="round" stroke-miterlimit="2"><path d="M256 0c70.68 0 134.69 28.66 181.01 74.99C483.34 121.31 512 185.32 512 256c0 70.68-28.66 134.69-74.99 181.01C390.69 483.34 326.68 512 256 512c-70.68 0-134.69-28.66-181.01-74.99C28.66 390.69 0 326.68 0 256c0-70.68 28.66-134.69 74.99-181.01C121.31 28.66 185.32 0 256 0z" fill="#999" fill-rule="nonzero"/><path d="M256 19.48c65.31 0 124.44 26.47 167.24 69.28 42.81 42.8 69.28 101.93 69.28 167.24s-26.47 124.44-69.28 167.24c-42.8 42.81-101.93 69.28-167.24 69.28s-124.44-26.47-167.24-69.28C45.95 380.44 19.48 321.31 19.48 256S45.95 131.56 88.76 88.76C131.56 45.95 190.69 19.48 256 19.48z" fill="#fff" fill-rule="nonzero"/><path d="M256 39.59c119.52 0 216.41 96.89 216.41 216.41S375.52 472.41 256 472.41 39.59 375.52 39.59 256 136.48 39.59 256 39.59z" fill="#ccc" fill-rule="nonzero"/><path d="M256 39.59c119.52 0 216.41 96.89 216.41 216.41S375.52 472.41 256 472.41c-50.72 0-97.36-17.46-134.25-46.68l.86.69L349.84 256 122.61 85.58C159.37 56.77 205.68 39.59 256 39.59z" fill="#012a87" fill-rule="nonzero"/><path d="M472.41 256H349.84L122.61 85.58C159.37 56.77 205.68 39.59 256 39.59c119.52 0 216.41 96.89 216.41 216.41z" fill="#dc171d" fill-rule="nonzero"/><path d="M122.61 426.42L349.84 256 122.61 85.58C72.07 125.2 39.59 186.8 39.59 256c0 69.2 32.48 130.81 83.02 170.42z" fill="#fff" fill-rule="nonzero"/><path d="M195.86 198.79l.1-3.61s-1.94-3.09.31-6.41c0 0-4.79-2.53-3.67-6.49 0 0-4.33-1.11-4.01-5.87 0 0-4.67-.32-5.15-4.3 0 0-4.67.77-6.73-3.1 0 0-4.55.89-5.84-2.31 0 0-4.42 1.54-7.05-2.22 0 0-4.68 1.89-6.64-1.65-1.93 3.53-6.61 1.65-6.61 1.65-2.59 3.75-7.05 2.19-7.05 2.19-1.24 3.21-5.79 2.3-5.79 2.3-2.04 3.87-6.71 3.1-6.71 3.1-.46 3.97-5.12 4.29-5.12 4.29.37 4.77-3.95 5.85-3.95 5.85 1.14 3.97-3.64 6.49-3.64 6.49 2.31 3.34.39 6.41.39 6.41l-.11 3.33 77.29.36-.02-.01z" fill="#f9d90f" fill-rule="nonzero"/><path d="M195.66 198.59l.09-3.36c-.24-.42-1.75-3.28.23-6.39-.89-.52-4.47-2.9-3.63-6.43-.85-.28-4.15-1.66-3.98-5.81-.9-.12-4.55-.79-5.11-4.26-.93.1-4.77.27-6.66-3.1-.79.12-4.56.53-5.84-2.28-.87.24-4.61 1.05-7.02-2.23-.81.29-4.65 1.44-6.56-1.5-1.89 2.94-5.73 1.78-6.53 1.5-2.38 3.27-6.15 2.44-7.01 2.19-1.25 2.83-5.01 2.4-5.8 2.28-1.88 3.37-5.71 3.2-6.64 3.1-.54 3.46-4.18 4.13-5.08 4.24.22 4.17-3.06 5.53-3.92 5.81.86 3.53-2.71 5.89-3.59 6.42 2.03 3.14.53 6 .29 6.39l-.09 3.07 76.85.36zm.5-3.4l-.09 3.61h-.19l-.01.2c-25.82 0-51.67-.26-77.49-.36.04-1.2.07-2.4.12-3.59l.02-.05c.01-.01 1.85-2.95-.38-6.18l-.13-.19.2-.11c.02-.01 4.63-2.45 3.54-6.25l-.06-.2.21-.06c.01 0 4.15-1.04 3.8-5.63l-.02-.21.2-.02c.02 0 4.5-.31 4.94-4.1l.02-.21.21.03c.01 0 4.52.74 6.5-3l.07-.13.15.03c.01 0 4.38.87 5.55-2.17l.07-.18.19.06c.01 0 4.32 1.5 6.82-2.11l.1-.13.15.05c.01.01 4.51 1.81 6.35-1.56l.18-.33.18.33c1.87 3.39 6.37 1.57 6.38 1.56l.15-.06.1.14c2.53 3.62 6.81 2.14 6.82 2.14l.18-.06.07.18c1.22 3.03 5.6 2.18 5.62 2.17l.14-.02.08.13c1.98 3.74 6.5 3 6.51 3l.21-.03.02.21c.46 3.8 4.96 4.11 4.97 4.12l.2.01-.01.21c-.31 4.58 3.84 5.64 3.85 5.65l.2.05-.05.2c-1.07 3.8 3.55 6.25 3.57 6.26l.2.11-.13.19c-2.18 3.2-.31 6.18-.31 6.18l.04.06-.01.06z" fill-rule="nonzero"/><path d="M157.32 177.01c2.07 2.09.14 3.24-1.77 2.16-4.72-3.57-10.24-5.55-17.83-3.39-10.91.04-22.49-.62-27.79 5.17-.38 1.12-3.33 5.32 8.1-.85-.71 4.27 4.61.78 8.73-1.16-2.84 2.97 4.34 3.45 8.87.54-2.23 2.99 1.69 2.91 5.41 2.93 5.43.17 2.43 4.9-6.87 5.1-.68-.05-3.29 1.17.23 2.08 1.63.08.3 2.35 5.94-.54-.35 1.69 2.07 1.36 5.48.31 1.94 1.52 3.51-.06 5.17-.85 7.13 2.78 16.54 5.57 19.07-4.09 5.94-.68 10.87-1.56 8.2-3.82 7.75 3.16 8.2 1.94 8.08.38 3.72 1.41 8.04 3.3 6.28.22 3.57.91 7.48 1.23 10.53 3.05 3.09 1.6 2.09-1.19 1.36-2.45-1.58-2.53-3.58-3.28-8.09-3.37-3.83-.08-21.76-5.08-31.09.32h.05c-.16 0-3.87-3.5-3.87-3.5.85-.02 1.47-.45 1.96-1.09 3.64.19 7.28-.16 10.92-1.14 1.66-.52 2.6.47 2.56 1.2 1.52-2.67-.58-3.22-2.13-3.11-6.15.35-9.85.02-12.82-.49-5.9-2.95-13 1.57-6.44 5.29l1.76 1.1z" fill="#bc715f" fill-rule="nonzero"/><path d="M157.47 176.87c.67.68.95 1.28.95 1.75 0 .28-.09.52-.25.71-.16.18-.38.32-.64.39-.56.16-1.33.06-2.08-.37l-.03-.01c-2.34-1.77-4.87-3.15-7.76-3.81-2.88-.66-6.13-.62-9.89.45l-.02.01h-3.24c-9.83-.03-19.67-.05-24.4 5.07-.05.12-.11.27-.18.43-.23.5-.53 1.17-.36 1.49.31.58 2.13.3 8.37-3.06l.37-.2-.07.41c-.2 1.17.09 1.68.67 1.77 1.14.19 3.39-.95 5.63-2.09.71-.36 1.43-.72 2.13-1.05l1.01-.48-.77.81c-.43.44-.61.82-.59 1.11.02.25.19.46.48.62.32.18.79.3 1.34.36 1.97.21 5.03-.37 7.38-1.87l.96-.62-.68.91c-.75 1.01-.75 1.61-.28 1.96.83.62 3 .64 5.16.65h.36c1.37.04 2.24.37 2.64.86.26.32.33.69.21 1.09-.12.37-.4.76-.83 1.13-1.38 1.19-4.42 2.33-8.89 2.42h-.02c-.24-.01-.78.17-1.12.44-.1.09-.18.18-.21.27-.02.07-.01.15.05.24.17.23.63.48 1.56.72.55.04.8.28 1.05.52.47.47.94.93 4.77-1.04l.38-.19-.09.42c-.13.67.3.94 1.13.94.96 0 2.4-.35 4.09-.87l.11-.03.08.07c1.43 1.12 2.69.4 3.94-.33.34-.19.68-.39 1.01-.55l.08-.04.09.04c3.54 1.38 7.65 2.77 11.17 2.61 3.47-.16 6.38-1.84 7.62-6.56l.04-.14.13-.02c2.96-.34 5.67-.72 7.29-1.3 1.43-.52 1.94-1.19.81-2.15l-.99-.84 1.2.49c3.84 1.56 5.86 2.04 6.89 1.94.89-.08.95-.68.9-1.35l-.02-.33 1.32.51c2.3.88 4.6 1.77 5.25 1.39.23-.12.19-.51-.24-1.27l-.24-.42.47.12c1.02.26 2.05.47 3.07.68 2.65.53 5.29 1.07 7.51 2.39.65.34 1.1.47 1.4.46.17-.01.28-.08.34-.18.07-.12.08-.31.06-.52-.06-.61-.41-1.4-.71-1.92-.77-1.23-1.64-2.02-2.85-2.52-1.24-.5-2.85-.71-5.08-.76-.86-.01-2.41-.27-4.41-.61-6.95-1.17-19.37-3.26-26.57.9l-.05-.08v.11h-.83l.46-.26c-1.01-.82-3.64-3.28-3.65-3.29l-.35-.34.49-.01c.39-.01.72-.12 1.02-.29.3-.17.56-.42.79-.73l.06-.08.11.01c1.81.09 3.62.05 5.43-.14 1.8-.19 3.61-.52 5.42-1 .39-.13.75-.17 1.07-.15.46.02.84.17 1.13.38.22.16.39.36.49.57.19-.44.27-.8.25-1.1-.02-.21-.08-.39-.18-.54-.11-.15-.25-.27-.42-.36-.49-.28-1.21-.35-1.83-.31-3.09.18-5.56.19-7.63.08-2.08-.1-3.76-.31-5.25-.57h-.03l-.03-.02c-2.54-1.27-5.32-1.12-7.06-.24-.56.28-1 .63-1.3 1.04-.29.38-.43.82-.39 1.28.07.89.81 1.89 2.51 2.85.37.25 1.58.9 1.81 1.14zm.54 1.75c0-.37-.24-.86-.82-1.44l-1.74-1.09c-1.83-1.04-2.64-2.16-2.72-3.18-.04-.56.13-1.09.48-1.56.33-.46.83-.85 1.44-1.16 1.84-.92 4.75-1.09 7.41.23 1.48.25 3.13.46 5.17.56 2.06.1 4.51.09 7.58-.08.69-.05 1.49.03 2.07.36.22.12.41.29.55.49.14.2.23.45.25.74.03.48-.12 1.08-.55 1.83l-.43.76.05-.87c0-.08-.01-.17-.04-.26-.06-.2-.21-.41-.43-.56-.22-.17-.52-.29-.9-.31-.27-.01-.58.03-.93.14h-.01a35.26 35.26 0 01-10.87 1.15c-.25.3-.53.56-.84.75-.23.13-.48.23-.76.29.83.78 3 2.82 3.36 3.1 7.34-4.16 19.77-2.07 26.74-.9 1.98.33 3.52.59 4.35.61 2.28.05 3.94.26 5.22.79 1.31.53 2.23 1.37 3.05 2.68.33.57.7 1.43.77 2.09.03.3 0 .57-.11.77-.13.23-.35.37-.68.39-.37.02-.89-.13-1.62-.5l-.01-.01c-2.15-1.29-4.77-1.82-7.38-2.35-.89-.18-1.79-.36-2.65-.57.35.76.27 1.2-.12 1.42-.82.47-3.21-.45-5.61-1.37l-.72-.27c.01.75-.2 1.37-1.29 1.47-1.01.1-2.87-.31-6.23-1.63.61.94-.08 1.63-1.58 2.17-1.63.58-4.31.97-7.24 1.31-1.31 4.84-4.35 6.56-7.96 6.73-3.57.16-7.69-1.22-11.26-2.6-.3.15-.6.32-.9.49-1.35.78-2.7 1.56-4.32.36-1.68.51-3.12.85-4.11.85-.98 0-1.56-.3-1.57-1.04-3.79 1.9-4.35 1.35-4.92.8-.19-.19-.39-.38-.79-.4l-.04-.01c-1.06-.27-1.6-.59-1.82-.89a.662.662 0 01-.11-.61c.06-.17.19-.33.35-.46.41-.33 1.08-.55 1.4-.53 4.36-.09 7.3-1.18 8.62-2.32.37-.32.61-.64.7-.94.08-.26.04-.51-.13-.71-.32-.4-1.09-.67-2.33-.71h-.35c-2.23-.01-4.47-.02-5.41-.72-.53-.4-.68-.97-.26-1.81-2.31 1.23-5.07 1.7-6.91 1.51-.61-.07-1.13-.21-1.5-.42-.41-.23-.66-.55-.69-.95-.02-.22.04-.47.18-.73l-1.37.68c-2.3 1.17-4.6 2.34-5.88 2.13-.75-.13-1.17-.67-1.06-1.84-6.25 3.34-8.17 3.46-8.58 2.7-.27-.49.08-1.27.35-1.85.08-.17.15-.33.18-.44l.02-.04.03-.03c4.84-5.29 14.79-5.26 24.73-5.24 1.06 0 2.12.01 3.18 0 3.81-1.08 7.12-1.12 10.07-.44 2.94.67 5.52 2.07 7.9 3.87.65.36 1.3.45 1.76.32.18-.05.33-.14.43-.26.1-.11.16-.26.16-.44z" fill-rule="nonzero"/><path d="M158.71 171.79c-1.24.18-2.51.33-3 1.19.03-1.41 2.13-1.51 3-1.19z" fill-rule="nonzero"/><path d="M158.59 172.31c0-.3-.24-.55-.54-.55-.29 0-.53.25-.53.55l-.001.033c0 .294.242.536.536.536a.539.539 0 00.536-.536l-.001-.033z" fill-rule="nonzero"/><path d="M91.13 189.38c2.44 13.83 5.15 28 6.48 42.48 2.89 21.44-10.15 39.44-4.8 60.62 3.19 10.16 14.37 16.07 24.6 17.24 13.57 2.57 29.97.01 39.88 10.16 9.91-10.15 26.31-7.59 39.88-10.16 10.23-1.17 21.41-7.08 24.6-17.24 5.35-21.18-7.69-39.18-4.79-60.62 1.33-14.48 4.03-28.65 6.47-42.48-23.89 12.97-47.5-3.9-66.16 6.88-18.67-10.78-42.27 6.09-66.16-6.88z" fill="#dc171d" fill-rule="nonzero"/><path d="M91.41 189.76l.86 4.84c2.17 12.16 4.38 24.57 5.54 37.23 1.36 10.04-.77 19.31-2.87 28.51-2.4 10.47-4.77 20.84-1.93 32.08 1.47 4.69 4.66 8.46 8.67 11.28 4.62 3.23 10.32 5.2 15.75 5.82h.02c3.89.73 8.03 1.05 12.18 1.36 10.24.78 20.56 1.56 27.66 8.71 7.1-7.15 17.42-7.93 27.66-8.71 4.15-.31 8.29-.63 12.18-1.36h.02c5.43-.62 11.13-2.59 15.74-5.82 4.02-2.82 7.21-6.59 8.68-11.28 2.84-11.24.47-21.61-1.93-32.08-2.1-9.2-4.23-18.47-2.87-28.51 1.16-12.67 3.38-25.08 5.54-37.24l.86-4.83c-12.46 6.6-24.8 5.21-36.42 3.9-10.57-1.19-20.54-2.31-29.36 2.78l-.1.06-.1-.06c-8.82-5.09-18.79-3.97-29.36-2.78-11.62 1.31-23.96 2.7-36.42-3.9zm.45 4.92l-.97-5.51h.3l.04.03c12.47 6.77 24.88 5.37 36.55 4.05 10.61-1.2 20.6-2.32 29.51 2.78 8.91-5.1 18.9-3.98 29.51-2.78 11.67 1.32 24.08 2.72 36.55-4.05l.38-.21-1.01 5.67c-2.17 12.16-4.38 24.58-5.54 37.22-1.34 9.97.77 19.21 2.87 28.37 2.4 10.52 4.79 20.93 1.92 32.28v.01c-1.5 4.78-4.75 8.63-8.84 11.5-4.67 3.27-10.44 5.26-15.93 5.89-3.92.74-8.06 1.05-12.22 1.37-10.23.77-20.54 1.55-27.54 8.72l-.15.16-.15-.16c-7-7.17-17.31-7.95-27.54-8.72-4.16-.32-8.31-.63-12.22-1.37-5.49-.63-11.26-2.62-15.93-5.89-4.09-2.87-7.34-6.72-8.84-11.5v-.01c-2.87-11.35-.48-21.76 1.92-32.28 2.1-9.16 4.21-18.4 2.87-28.37-1.16-12.63-3.37-25.05-5.54-37.2z" fill-rule="nonzero"/><path d="M100.04 200.55c2.1 11.41 4.44 23.1 5.59 35.05 2.5 17.69-8.77 32.54-4.15 50.01 2.76 8.39 12.42 13.27 21.25 14.23 11.72 2.12 25.89 0 34.45 8.38 8.55-8.37 22.72-6.26 34.44-8.38 8.84-.96 18.49-5.84 21.25-14.23 4.62-17.47-6.64-32.32-4.14-50.01 1.15-11.95 3.48-23.64 5.59-35.05-20.63 10.7-41.02-3.22-57.14 5.68-16.12-8.9-36.51 5.02-57.14-5.68z" fill="#62afe1" fill-rule="nonzero"/><path d="M100.32 200.93l.73 3.92c1.87 10.03 3.78 20.28 4.78 30.72 1.18 8.29-.66 15.94-2.48 23.54-2.07 8.63-4.12 17.17-1.67 26.44 1.27 3.86 4.02 6.97 7.48 9.29 3.99 2.66 8.91 4.28 13.59 4.79l.02.01c3.36.6 6.93.86 10.52 1.12 8.84.64 17.75 1.29 23.89 7.17 6.14-5.88 15.05-6.53 23.89-7.17 3.58-.26 7.16-.52 10.52-1.12l.01-.01c4.69-.51 9.61-2.13 13.59-4.79 3.46-2.32 6.21-5.43 7.48-9.29 2.45-9.27.4-17.81-1.66-26.44-1.82-7.6-3.66-15.25-2.49-23.54 1.01-10.44 2.92-20.69 4.79-30.72l.73-3.92c-10.75 5.41-21.4 4.27-31.42 3.19-9.13-.98-17.73-1.91-25.34 2.29l-.1.06-.1-.06c-7.61-4.2-16.22-3.27-25.35-2.29-10.01 1.08-20.66 2.22-31.41-3.19zm.32 4l-.88-4.76.37.2c10.77 5.58 21.48 4.42 31.56 3.34 9.16-.99 17.79-1.92 25.49 2.28 7.7-4.2 16.33-3.27 25.49-2.28 10.07 1.08 20.79 2.24 31.55-3.34l.38-.2-.88 4.76c-1.87 10.02-3.78 20.26-4.78 30.69h-.01c-1.16 8.22.67 15.84 2.48 23.39 2.08 8.68 4.14 17.29 1.66 26.66v.01c-1.3 3.95-4.11 7.13-7.65 9.5-4.04 2.7-9.02 4.35-13.77 4.87-3.39.61-6.96.87-10.55 1.13-8.84.63-17.74 1.28-23.78 7.19l-.14.14-.15-.14c-6.04-5.91-14.94-6.56-23.77-7.19-3.59-.26-7.17-.52-10.55-1.13-4.75-.52-9.74-2.17-13.78-4.87-3.53-2.37-6.34-5.55-7.64-9.5l-.01-.01c-2.47-9.38-.41-17.98 1.67-26.66 1.81-7.55 3.63-15.17 2.47-23.39-1-10.43-2.91-20.67-4.78-30.69z" fill-rule="nonzero"/><path d="M145.98 232.54l-24.14 16.54V269h70.68v-19.92l-24.14-16.54h-22.4z" fill="#fff" fill-rule="nonzero"/><path d="M146.12 233l-23.81 16.33v19.2h69.74v-19.2L168.23 233h-22.11zm-24.55 15.7l24.27-16.63h22.68c8.15 5.59 16.32 11.17 24.47 16.77v20.63h-71.62v-20.63l.2-.14z" fill-rule="nonzero"/><path d="M116.1 265.7v3.81h2.33v19.56h77.5v-19.56h2.32v-3.81H116.1z" fill="#fff" fill-rule="nonzero"/><path d="M116.57 266.17v2.87h2.33v19.57h76.56v-19.57h2.32v-2.87h-81.21zm-.93 3.81v-4.74h83.08v4.74h-2.33v19.56h-78.43v-19.56h-2.32z" fill-rule="nonzero"/><path d="M157.18 210.96l-11.2 10.9v10.68h22.4v-10.68l-11.2-10.9z" fill="#fff" fill-rule="nonzero"/><path d="M157.18 211.61l-10.73 10.45v10.01h21.46v-10.01l-10.73-10.45zm-11.52 9.92l11.52-11.22c3.89 3.78 7.78 7.57 11.66 11.36V233h-23.33v-11.33l.15-.14z" fill-rule="nonzero"/><path fill="#fff" fill-rule="nonzero" d="M125.33 251.78h7.08V263h-7.08z"/><path d="M124.86 251.32h8.02v12.14h-8.02v-12.14zm7.08.93h-6.15v10.28h6.15v-10.28z" fill-rule="nonzero"/><path fill="#fff" fill-rule="nonzero" d="M145.43 251.78h7.08V263h-7.08z"/><path d="M144.96 251.32h8.02v12.14h-8.02v-12.14zm7.09.93h-6.15v10.28h6.15v-10.28z" fill-rule="nonzero"/><path fill="#fff" fill-rule="nonzero" d="M181.95 251.78h7.08V263h-7.08z"/><path d="M188.56 252.25h-6.15v10.28h6.15v-10.28zm-7.08-.93h8.01v12.14h-8.01v-12.14z" fill-rule="nonzero"/><path fill="#fff" fill-rule="nonzero" d="M161.84 251.78h7.09V263h-7.09z"/><path d="M168.46 252.25h-6.15v10.28h6.15v-10.28zm-7.08-.93h8.01v12.14h-8.01v-12.14z" fill-rule="nonzero"/><path fill="#fff" fill-rule="nonzero" d="M125.33 271.28h7.08v11.22h-7.08z"/><path d="M124.86 270.82h8.02v12.14l-8.02.01v-12.15zm7.08.93h-6.15v10.29h6.15v-10.29z" fill-rule="nonzero"/><path fill="#fff" fill-rule="nonzero" d="M181.95 271.28h7.08v11.22h-7.08z"/><path d="M188.56 271.75h-6.15v10.29h6.15v-10.29zm-7.08-.93h8.01v12.15l-8.01-.01v-12.14z" fill-rule="nonzero"/><path fill="#fff" fill-rule="nonzero" d="M151.63 270.65h11.1v18.42h-11.1z"/><path d="M162.26 271.12h-10.17v17.49h10.17v-17.49zm-11.1-.94h12.04v19.36h-12.04v-19.36z" fill-rule="nonzero"/><path fill="#fff" fill-rule="nonzero" d="M140.19 265.7h4.98v23.37h-4.98z"/><path d="M144.71 266.17h-4.05v22.44h4.05v-22.44zm-4.98-.93h5.91v24.3h-5.91v-24.3z" fill-rule="nonzero"/><path fill="#fff" fill-rule="nonzero" d="M169.18 265.7h4.98v23.37h-4.98z"/><path d="M168.72 265.24h5.91v24.3h-5.91v-24.3zm4.98.93h-4.05v22.44h4.05v-22.44z" fill-rule="nonzero"/><path fill="#fff" fill-rule="nonzero" d="M138.34 260.73h37.67v5.77h-37.67z"/><path d="M175.55 266.04v-4.84h-36.74v4.84h36.74zm.93-5.78v6.71h-38.6v-6.71h38.6z" fill-rule="nonzero"/><path d="M145.98 221.86h22.4-22.4zm0 0L256 39.59 145.98 221.86z" fill="#fff" fill-rule="nonzero"/><path fill-rule="nonzero" d="M145.98 221.39h22.4v.94h-22.4z"/><path d="M121.84 249.08h70.68-70.68zm0 0L256 39.59 121.84 249.08z" fill="#fff" fill-rule="nonzero"/><path fill-rule="nonzero" d="M121.84 248.61h70.68v.94h-70.68z"/><path fill="#fff" fill-rule="nonzero" d="M114.33 286.63h85.7v6.06h-85.7z"/><path d="M113.86 286.16h86.64v6.99c-28.88 0-57.76-.02-86.64 0v-6.99zm85.7.94H114.8v5.12h84.76v-5.12z" fill-rule="nonzero"/><path fill="#fff" fill-rule="nonzero" d="M152.9 224.17h8.55v6.05h-8.55z"/><path d="M160.98 224.64h-7.61v5.12h7.61v-5.12zm-8.54-.94h9.48v6.99h-9.48v-6.99zm-10.89 37.03v5.77h-1.04v-5.77h1.04zm32.29 0v5.77h-1.04v-5.77h1.04zm-2.69 0v5.77h-1.04v-5.77h1.04zm-2.69 0v5.77h-1.04v-5.77h1.04zm-2.69 0v5.77h-1.04v-5.77h1.04zm-2.69 0v5.77h-1.04v-5.77h1.04zm-2.69 0v5.77h-1.04v-5.77h1.04zm-2.69 0v5.77h-1.04v-5.77h1.04zm-2.69 0v5.77h-1.04v-5.77h1.04zm-2.69 0v5.77h-1.04v-5.77h1.04zm-2.7 0v5.77h-1.03v-5.77h1.03zm-2.69 0v5.77h-1.03v-5.77h1.03zm-2.69 0v5.77h-1.03v-5.77h1.03zm32.24.39v5.38h-.93v-5.38h.93z" fill-rule="nonzero"/><path d="M120.87 209.85c5.32 3.39 7.84 6.53 7.85 9.44-6.62-.35-12.61-3.47-7.85-9.44z" fill="#008830" fill-rule="nonzero"/><path d="M121 209.65c2.68 1.71 4.65 3.36 5.96 4.96 1.33 1.61 1.98 3.17 1.99 4.68v.25l-.24-.01c-2.29-.12-4.5-.57-6.23-1.35-1.27-.57-2.29-1.31-2.9-2.23-.63-.95-.84-2.06-.48-3.36.25-.88.76-1.84 1.59-2.89l.13-.16.18.11zm5.61 5.25c-1.26-1.52-3.14-3.1-5.69-4.74-.71.93-1.16 1.78-1.37 2.55-.32 1.16-.14 2.15.42 2.98.56.84 1.51 1.53 2.69 2.06 1.62.73 3.68 1.16 5.82 1.3-.07-1.33-.69-2.71-1.87-4.15z" fill-rule="nonzero"/><path d="M125.15 212.94c5.13 2.91 8.01 6.08 8.9 9.49-5.2.9-10.75-1.55-8.9-9.49z" fill="#008830" fill-rule="nonzero"/><path d="M125.27 212.74c2.58 1.46 4.6 3 6.09 4.6 1.5 1.61 2.47 3.29 2.92 5.03l.06.25-.25.04c-1.47.25-2.97.25-4.33-.07-1.26-.29-2.4-.85-3.28-1.71-.9-.85-1.54-2.01-1.8-3.5-.22-1.25-.16-2.75.25-4.5l.07-.3.27.16zm5.75 4.92c-1.4-1.51-3.3-2.97-5.71-4.36-.33 1.55-.36 2.88-.17 4 .24 1.39.83 2.46 1.66 3.25.82.79 1.89 1.31 3.06 1.59 1.22.28 2.57.3 3.9.1-.46-1.58-1.37-3.1-2.74-4.58z" fill-rule="nonzero"/><path d="M118.53 217.95c.69 5.85-.15 10.06-2.37 12.79-3.81-3.65-5.13-9.58 2.37-12.79z" fill="#008830" fill-rule="nonzero"/><path d="M118.76 217.92c.35 2.95.31 5.49-.09 7.63-.41 2.17-1.19 3.94-2.33 5.34l-.16.19-.18-.17c-1.08-1.04-1.96-2.25-2.51-3.54-.51-1.18-.74-2.42-.58-3.65.17-1.23.72-2.43 1.76-3.52.88-.92 2.12-1.76 3.77-2.47l.29-.12.03.31zm-.55 7.55c.38-2.02.43-4.41.13-7.18-1.45.65-2.55 1.41-3.33 2.24-.97 1.01-1.48 2.12-1.63 3.25-.15 1.14.06 2.3.54 3.41.49 1.15 1.27 2.25 2.22 3.2 1-1.3 1.69-2.94 2.07-4.92z" fill-rule="nonzero"/><path d="M118.54 217.96c4.81 3.41 7.37 6.85 7.92 10.32-5.26.39-10.55-2.6-7.92-10.32z" fill="#008830" fill-rule="nonzero"/><path d="M118.67 217.77c2.43 1.72 4.29 3.45 5.61 5.19 1.34 1.75 2.13 3.51 2.41 5.29l.04.25-.25.02c-1.49.11-2.98-.05-4.31-.5-1.22-.41-2.3-1.08-3.1-2.02-.8-.94-1.33-2.15-1.44-3.66-.09-1.27.11-2.75.69-4.45l.1-.29.25.17zm5.24 5.47c-1.25-1.64-2.99-3.28-5.25-4.9-.48 1.51-.65 2.83-.56 3.97.1 1.4.58 2.52 1.33 3.39.74.87 1.75 1.49 2.89 1.88 1.19.4 2.53.56 3.87.49-.3-1.62-1.05-3.23-2.28-4.83z" fill-rule="nonzero"/><path d="M121.73 213.28l2.22 1.38 2.38-.23 1 1.64s-.27 3.38-.27 3.69c0 .31.74 2.2.74 2.2l-1.62 1.18-4.34 1.77-4.06-3.29-2.56.26-1.12-3.18 1.26-2.7 3.17-2.06 3.2-.66z" fill="#008830" fill-rule="nonzero"/><path d="M121.86 213.08l2.15 1.35 2.45-.25 1.11 1.84-.01.07c0 .01-.27 3.38-.27 3.67 0 .21.72 2.12.73 2.12l.05.17c-2.65 1.91-2.75 1.68-6.27 3.13l-4.09-3.32-2.65.27-1.21-3.44c.44-.95.88-1.91 1.33-2.85 1.08-.71 2.17-1.42 3.26-2.12l3.34-.69.08.05zm1.97 1.78l-2.14-1.33-3.07.63-3.08 1.99-1.19 2.57 1.03 2.91 2.47-.25 4.03 3.27 4.18-1.72 1.45-1.05c-.18-.47-.68-1.79-.68-2.12 0-.3.22-3.14.26-3.63l-.88-1.45-2.31.22-.07-.04z" fill-rule="nonzero"/><path d="M117.57 214.96c-2.08 5.51-4.77 8.86-8 10.26-1.7-5-.13-10.86 8-10.26z" fill="#008830" fill-rule="nonzero"/><path d="M117.79 215.04c-1.05 2.78-2.26 5.02-3.61 6.74-1.36 1.73-2.87 2.94-4.51 3.66l-.24.1-.08-.24c-.48-1.42-.71-2.9-.6-4.29.09-1.29.47-2.5 1.17-3.51.71-1.02 1.76-1.83 3.18-2.32 1.21-.41 2.69-.58 4.49-.45l.31.02-.11.29zm-3.97 6.45c1.27-1.62 2.41-3.72 3.42-6.32-1.59-.08-2.91.09-3.99.46-1.32.45-2.29 1.2-2.95 2.13-.65.94-1 2.07-1.09 3.28-.09 1.25.1 2.58.5 3.87 1.49-.7 2.86-1.83 4.11-3.42z" fill-rule="nonzero"/><path d="M117.56 215.36c-5.78-1.14-9.53-3.23-11.45-6.17 4.65-2.52 10.69-1.95 11.45 6.17z" fill="#008830" fill-rule="nonzero"/><path d="M117.51 215.59c-2.91-.57-5.31-1.39-7.23-2.43-1.94-1.06-3.39-2.34-4.37-3.85l-.14-.21.23-.12c1.31-.71 2.74-1.18 4.13-1.31 1.28-.12 2.54.05 3.66.58 1.11.53 2.09 1.42 2.81 2.75.6 1.12 1.02 2.55 1.19 4.34l.03.31-.31-.06zm-7.01-2.84c1.81.98 4.06 1.76 6.8 2.32-.18-1.58-.57-2.85-1.11-3.85-.67-1.23-1.57-2.06-2.6-2.55-1.04-.49-2.21-.65-3.42-.53-1.24.11-2.53.52-3.73 1.13.94 1.35 2.29 2.51 4.06 3.48z" fill-rule="nonzero"/><path d="M128.62 215.56c5.87.52 10.05-.45 12.72-2.74-3.76-3.7-9.73-4.85-12.72 2.74z" fill="#008830" fill-rule="nonzero"/><path d="M128.95 215.35c2.78.23 5.16.11 7.18-.33 1.97-.43 3.59-1.18 4.86-2.21-.97-.92-2.09-1.67-3.26-2.13-1.13-.44-2.3-.62-3.43-.44-1.12.18-2.22.72-3.21 1.72-.8.81-1.52 1.93-2.14 3.39zm7.28.13c-2.13.46-4.67.57-7.63.31l-.31-.03.11-.28c.66-1.68 1.46-2.93 2.36-3.84 1.06-1.08 2.25-1.66 3.47-1.86 1.22-.2 2.47-.01 3.67.47 1.3.51 2.54 1.36 3.6 2.41l.18.18-.19.16c-1.36 1.17-3.11 2-5.26 2.48z" fill-rule="nonzero"/><path d="M128.64 215.57c3.54 4.71 7.05 7.17 10.54 7.62.24-5.28-2.9-10.47-10.54-7.62z" fill="#008830" fill-rule="nonzero"/><path d="M129.01 215.68c1.69 2.21 3.38 3.9 5.05 5.11 1.64 1.17 3.28 1.88 4.9 2.13.03-1.34-.16-2.67-.6-3.85-.42-1.13-1.07-2.12-1.96-2.84-.9-.71-2.03-1.17-3.43-1.23-1.14-.05-2.46.15-3.96.68zm4.78 5.48c-1.77-1.27-3.55-3.08-5.34-5.45l-.19-.25.3-.11c1.68-.63 3.15-.87 4.43-.82 1.5.07 2.73.56 3.7 1.34.96.77 1.66 1.83 2.1 3.04.49 1.31.69 2.8.62 4.29l-.01.25-.25-.03c-1.78-.23-3.57-.97-5.36-2.26z" fill-rule="nonzero"/><path d="M126.79 218.45c4.41 3.9 6.59 7.6 6.75 11.12-5.27-.19-10.2-3.74-6.75-11.12z" fill="#008830" fill-rule="nonzero"/><path d="M126.95 218.27c2.22 1.97 3.88 3.89 5.01 5.76 1.13 1.89 1.73 3.73 1.82 5.53l.01.25-.25-.01c-1.5-.05-2.97-.37-4.23-.96-1.17-.55-2.17-1.33-2.86-2.35-.7-1.02-1.09-2.28-1.04-3.79.05-1.27.41-2.72 1.17-4.35l.13-.28.24.2zm4.61 6c-1.06-1.76-2.62-3.58-4.69-5.44-.64 1.45-.95 2.75-.99 3.89-.05 1.4.31 2.57.95 3.51.65.95 1.58 1.68 2.67 2.19 1.14.53 2.45.83 3.8.9-.13-1.63-.7-3.32-1.74-5.05z" fill-rule="nonzero"/><path d="M124.97 224.92c3.02 5.06 3.97 9.25 3.07 12.65-4.98-1.78-8.6-6.66-3.07-12.65z" fill="#008830" fill-rule="nonzero"/><path d="M125.17 224.8c1.53 2.55 2.53 4.89 3.03 7.01.51 2.14.52 4.08.06 5.82l-.07.24-.23-.08c-1.41-.51-2.72-1.25-3.74-2.2-.95-.88-1.66-1.92-2.02-3.11-.35-1.18-.34-2.5.17-3.92.43-1.2 1.21-2.48 2.43-3.8l.21-.23.16.27zm2.58 7.12c-.48-2.01-1.41-4.21-2.82-6.61-1.05 1.19-1.74 2.33-2.12 3.4-.47 1.32-.49 2.55-.16 3.64.33 1.1 1 2.07 1.88 2.89.92.85 2.08 1.54 3.34 2.02.38-1.6.35-3.38-.12-5.34z" fill-rule="nonzero"/><path d="M122.85 224.59c.67 5.86-.19 10.06-2.42 12.79-3.8-3.67-5.09-9.6 2.42-12.79z" fill="#008830" fill-rule="nonzero"/><path d="M123.08 224.57c.34 2.95.29 5.49-.12 7.63-.42 2.16-1.21 3.93-2.34 5.33l-.16.19-.19-.17c-1.07-1.04-1.95-2.26-2.5-3.55-.5-1.18-.72-2.43-.56-3.65.17-1.23.72-2.43 1.77-3.51.88-.92 2.12-1.76 3.78-2.46l.28-.12.04.31zm-.58 7.54c.39-2.02.44-4.41.15-7.18-1.45.65-2.54 1.41-3.34 2.23-.97 1.01-1.49 2.12-1.64 3.25-.15 1.13.06 2.3.53 3.41.49 1.15 1.26 2.25 2.21 3.21 1-1.3 1.7-2.93 2.09-4.92z" fill-rule="nonzero"/><path d="M119.01 218.03c-.42-.31-.74-.83-.82-1.35-.06-.44-.02-.72.18-1.34.1-.32.18-.58.17-.59 0-.01-.08-.04-.17-.05-.16-.04-.18-.03-.48.24-.99.93-1.9 1.37-2.53 1.23-.72-.16-1-1.16-.6-2.16.34-.86.99-1.38 1.8-1.47.31-.04.44-.03.79.07.23.07.41.1.4.08-.01-.03-.18-.15-.39-.28-1.01-.64-1.61-1.38-1.65-2.05-.03-.48.29-.94.83-1.2.9-.45 2.04-.13 2.56.72.26.41.32.73.32 1.57 0 .49.02.77.06.78.03.02.11.09.18.17l.13.15.5-.41c.51-.42.88-.68 1.29-.9.57-.3 1.25-.39 1.59-.2.74.41.73 1.76-.01 2.68-.6.75-1.52 1.01-2.36.68a5.99 5.99 0 00-.58-.21l-.26-.06.39.49c.52.66.81 1.13 1.01 1.64.38.96.19 1.7-.52 2.01-.55.25-1.27.15-1.83-.24z" fill="#f9d90f" fill-rule="nonzero"/><path d="M118.67 218.04c-.15-.14-.29-.3-.39-.49-.16-.25-.27-.55-.32-.83-.03-.24-.04-.44-.01-.67.03-.22.09-.46.19-.79l.11-.32-.2.17c-.51.48-1.01.84-1.46 1.05-.48.24-.91.32-1.28.24-.06-.02-.12-.03-.17-.05-.33-.14-.57-.42-.69-.78-.12-.34-.14-.75-.05-1.19.04-.15.08-.3.15-.46.18-.46.45-.84.79-1.11.34-.28.75-.45 1.2-.51l.24-.01c-.32-.24-.58-.5-.79-.75-.31-.39-.49-.78-.51-1.16-.02-.29.07-.58.24-.83.16-.24.41-.45.71-.6.51-.25 1.08-.29 1.6-.14.51.14.98.47 1.27.95.14.22.23.43.29.7.05.25.06.56.06.99 0 .23.01.42.02.55 0 .03-.06.02-.1.01h-.02l.01.01c.05.01.1.05.15.1l.11.1.32-.26c.26-.22.49-.39.7-.54.22-.14.42-.27.63-.38.31-.17.65-.27.96-.31.33-.05.64-.01.85.11.06.03.11.07.16.11.32.25.49.67.51 1.14.02.44-.1.94-.34 1.39-.08.13-.17.26-.27.39-.33.41-.75.69-1.21.82-.45.13-.94.11-1.41-.08l-.11-.04c.23.3.41.56.56.8.17.28.31.54.41.8.21.53.26 1 .16 1.39-.11.42-.38.74-.81.92-.31.14-.67.19-1.03.14-.36-.05-.71-.19-1.02-.4l-.23-.16.02-.02zm0-.73c.13.21.29.39.48.52l.05.04c.23.15.5.25.76.29.27.03.55 0 .78-.1.29-.13.47-.34.55-.61.07-.3.03-.67-.14-1.1-.1-.24-.21-.48-.37-.73s-.36-.53-.61-.86l-.82-1.04.92.25.3.09.32.12c.37.15.76.16 1.12.06.36-.1.7-.33.97-.67.339-.41.52-.928.51-1.46-.02-.34-.13-.63-.34-.8l-.1-.07c-.12-.06-.32-.08-.56-.05-.25.03-.54.12-.8.26-.2.1-.38.22-.59.36-.2.14-.41.3-.66.51l-.68.55c-.12-.14-.24-.27-.36-.41-.02-.01 0-.01-.01-.01-.11-.05-.17-.19-.19-.41-.01-.14-.01-.34-.01-.59 0-.4-.02-.68-.06-.9a1.54 1.54 0 00-.22-.55c-.24-.37-.6-.63-1.01-.75-.41-.11-.86-.08-1.26.12-.23.11-.41.26-.53.44-.12.17-.18.35-.17.54.02.28.16.59.41.9.27.33.65.65 1.14.96l.27.19c.11.07.18.14.2.19.02.03.03.06.03.1 0 .16-.08.22-.23.24l-.09-.01c-.08-.01-.22-.04-.38-.08-.16-.05-.27-.07-.37-.08-.1-.01-.19-.01-.33.01-.36.04-.69.18-.96.4-.27.22-.49.53-.65.92-.05.13-.09.26-.12.39-.07.35-.06.68.03.94.08.24.22.41.42.49l.1.04c.26.05.59-.02.98-.21.41-.19.86-.52 1.35-.97.16-.15.25-.23.34-.27.12-.07.2-.06.34-.03l.13.03c.11.03.18.08.21.17.02.05 0 .17-.04.32l-.13.42c-.1.29-.15.51-.18.7-.02.18-.01.34.02.54.03.23.12.46.24.66zm.9-5.3c-.02 0-.03-.01-.02 0h.02z" fill-rule="nonzero"/><path d="M120.01 213.87c-.27.67-.97 1.02-1.56.78-.59-.24-.86-.97-.59-1.64.26-.67.96-1.02 1.55-.78.6.24.86.97.6 1.64z" fill="#f9d90f" fill-rule="nonzero"/><path d="M119.79 213.78l.02-.04c.09-.27.09-.54 0-.77a.863.863 0 00-.47-.52h-.01c-.23-.1-.49-.07-.72.04-.23.12-.43.33-.54.61-.11.28-.11.57-.02.81.08.24.25.43.48.52l.02.01c.23.08.48.06.7-.05.23-.11.43-.33.54-.61zm.41.23c-.16.36-.43.64-.75.8-.33.17-.72.2-1.08.06l-.06-.03c-.33-.15-.58-.43-.7-.77a1.665 1.665 0 01.8-2c.32-.16.7-.19 1.04-.07l.05.01c.36.15.62.44.75.8.13.35.13.76-.03 1.14l-.02.06z" fill-rule="nonzero"/><path d="M124.32 211.81c0 .45.08.74.36 1.35.14.32.26.58.26.59 0 .01-.08.04-.16.06-.15.05-.17.04-.49-.21-1.1-.86-2.03-1.24-2.61-1.05-.67.22-.79 1.26-.26 2.25.46.84 1.15 1.32 1.95 1.35.29.01.41-.01.74-.14.21-.08.38-.13.37-.1 0 .02-.15.16-.33.31-.87.73-1.34 1.53-1.28 2.21.04.49.41.93.97 1.16.93.38 1.97-.03 2.35-.94.18-.43.2-.77.07-1.62-.07-.5-.09-.78-.06-.8.03-.02.1-.1.16-.19l.1-.15.54.38c.55.38.94.61 1.37.8.59.27 1.25.3 1.55.08.64-.48.44-1.84-.4-2.72-.69-.71-1.61-.91-2.36-.5-.17.09-.41.2-.54.25l-.23.09.3-.53c.4-.71.61-1.22.73-1.75.22-1-.07-1.74-.8-2-.57-.21-1.24-.05-1.66.34-.42.39-.65.95-.64 1.48z" fill="#f9d90f" fill-rule="nonzero"/><path d="M124.55 211.81c0 .2.02.37.07.55.05.2.14.41.27.71l.19.4c.06.15.09.27.09.32-.02.09-.09.16-.19.2l-.13.05c-.13.04-.21.05-.35-.01-.09-.04-.18-.11-.36-.25-.53-.41-1.02-.71-1.44-.88-.39-.16-.72-.2-.95-.13l-.09.04c-.16.09-.27.27-.31.5-.06.26-.03.58.08.92.05.15.12.3.2.46.21.39.47.69.77.9.29.2.62.31.97.33.14 0 .23 0 .31-.02.09-.01.19-.05.34-.1.15-.06.28-.11.36-.12l.08-.01c.15-.01.24.06.25.21.01.03.01.05 0 .08-.02.06-.08.14-.17.23l-.24.21c-.42.35-.74.71-.94 1.06-.19.33-.28.66-.26.95.02.2.11.38.24.55.14.17.35.31.59.41.41.17.84.17 1.21.02.36-.15.67-.43.84-.83.08-.19.12-.36.13-.57.01-.23-.02-.52-.08-.93-.03-.25-.06-.45-.07-.59-.01-.23.03-.38.13-.44.01-.01-.01 0 0-.01.11-.15.2-.31.3-.46l.74.52c.27.18.5.33.72.46.2.12.4.22.61.32.27.12.56.19.8.2.23.01.41-.02.52-.1l.06-.05c.18-.18.25-.49.22-.86-.04-.38-.21-.82-.49-1.19-.07-.1-.14-.19-.22-.27-.31-.32-.67-.53-1.04-.6-.35-.08-.72-.04-1.04.14l-.3.15-.27.12-.83.32.62-1.1c.19-.34.34-.64.45-.91.12-.27.19-.52.25-.77.1-.45.09-.84-.03-1.14-.11-.28-.32-.49-.62-.6-.24-.08-.5-.09-.75-.04-.25.05-.49.17-.67.34-.18.17-.33.38-.42.6-.09.21-.14.43-.15.65v.06zm-.38.67l-.04-.16-.04.05-.01-.56c0-.3.07-.61.19-.9.12-.27.3-.53.53-.75.24-.23.56-.39.9-.46.33-.06.67-.05.99.07.43.16.74.45.9.86.15.38.17.86.05 1.41-.06.28-.14.55-.27.85-.11.27-.25.56-.44.89l.12-.06c.42-.23.9-.29 1.36-.19.45.1.9.35 1.27.74.1.09.18.2.27.31.32.44.52.96.57 1.43.05.5-.06.95-.36 1.24l-.11.09c-.19.14-.48.2-.81.18-.3-.01-.64-.09-.97-.24-.22-.09-.43-.21-.66-.34-.23-.13-.47-.29-.75-.48l-.34-.24-.07.09c-.04.05-.09.1-.13.12l-.02.01h.01c.03 0 .12-.03.12-.01.01.14.03.33.07.57.06.44.09.75.08 1.01-.02.27-.07.49-.17.73-.22.51-.62.89-1.1 1.08-.48.19-1.03.2-1.56-.02-.31-.12-.57-.32-.76-.55-.2-.23-.33-.51-.35-.8-.03-.39.08-.81.32-1.22.16-.29.39-.57.67-.85-.08.01-.17.01-.27 0-.45-.01-.86-.15-1.23-.41-.36-.25-.67-.61-.91-1.06-.1-.18-.17-.36-.23-.54-.14-.41-.17-.82-.1-1.15.07-.37.26-.66.55-.82.05-.03.11-.05.17-.07.34-.11.77-.06 1.27.14.46.18.99.5 1.55.95l.17.13-.13-.29c-.15-.32-.24-.56-.3-.78zm2.13 3.96h.01-.01z" fill-rule="nonzero"/><path d="M124.38 214.47c.02-.04.06-.1.09-.15.35-.57 1.01-.82 1.55-.6.05.02.1.05.14.08.49.3.65.98.37 1.58-.03.06-.06.11-.09.17-.35.56-1.01.82-1.55.59a.61.61 0 01-.14-.07c-.5-.31-.65-.98-.37-1.59v-.01z" fill="#f9d90f" fill-rule="nonzero"/><path d="M124.18 214.36c.02-.04.06-.13.09-.17.21-.32.5-.56.82-.68.33-.13.69-.14 1.02 0l.18.09c.3.18.49.48.57.83.08.33.04.7-.12 1.05-.03.06-.06.13-.1.19-.21.33-.5.57-.82.69-.33.12-.69.13-1.02 0l-.18-.09c-.3-.19-.5-.49-.57-.83-.08-.33-.05-.7.11-1.04l.02-.04zm.45.15l-.04.07c-.12.25-.14.52-.09.75.05.23.18.42.37.54l.12.06c.2.08.44.08.66-.01.23-.08.44-.25.59-.49l.08-.15c.12-.25.14-.52.09-.75a.815.815 0 00-.37-.53l-.11-.06a.912.912 0 00-.67 0c-.23.09-.44.26-.59.49l-.04.08z" fill-rule="nonzero"/><path d="M117.81 224.63c-.11-.53-.1-.88.05-1.66.08-.4.15-.73.14-.74 0-.01-.09-.03-.2-.04-.19-.01-.21.01-.51.38-1.02 1.29-2 1.97-2.71 1.92-.83-.07-1.25-1.24-.91-2.52.3-1.09.96-1.83 1.87-2.08.34-.09.48-.1.89-.04.27.04.48.04.46.02-.01-.03-.22-.15-.47-.27-1.2-.6-1.95-1.4-2.06-2.19-.09-.58.22-1.19.79-1.6.97-.69 2.28-.5 2.96.44.33.45.44.83.53 1.84.05.59.1.93.14.94.04.01.14.09.23.17l.16.15.52-.58c.52-.59.91-.96 1.35-1.29.61-.47 1.36-.69 1.76-.51.88.37 1.02 1.99.28 3.23-.6 1.01-1.6 1.48-2.58 1.22-.21-.06-.52-.12-.68-.15l-.29-.03.49.52c.65.71 1.03 1.24 1.31 1.82.53 1.09.39 2.01-.38 2.52-.59.38-1.41.39-2 .05-.58-.34-1-.92-1.14-1.53v.01z" fill="#f9d90f" fill-rule="nonzero"/><path d="M117.59 224.67a2.6 2.6 0 01-.09-.78c.01-.27.05-.56.14-.97l.09-.5c-.05.04-.12.13-.26.3-.52.66-1.04 1.16-1.52 1.5-.5.36-.98.53-1.39.5a1.221 1.221 0 01-.2-.04c-.37-.1-.65-.37-.83-.76-.17-.37-.24-.83-.2-1.33.02-.22.06-.45.12-.68.15-.58.41-1.07.75-1.45.35-.38.78-.66 1.28-.79.17-.05.29-.08.43-.09-.45-.26-.81-.54-1.1-.85-.38-.4-.62-.84-.69-1.29-.04-.33.02-.68.18-1 .15-.31.4-.59.72-.82.53-.38 1.17-.52 1.76-.43.59.08 1.14.4 1.52.92.18.25.3.48.39.79.08.29.13.65.18 1.17.02.3.05.53.07.67.01.06-.17.04-.09.07.04.01.11.05.17.09l.13.12.36-.4c.27-.3.5-.54.73-.76.22-.21.43-.39.66-.57.33-.25.7-.43 1.04-.53.36-.11.7-.12.95-.01l.14.07c.41.24.66.73.73 1.3a3.487 3.487 0 01-.48 2.2c-.32.55-.76.95-1.25 1.18-.49.23-1.04.29-1.59.15l-.28-.07.03.03c.33.36.6.68.81.97.22.3.39.59.54.89.29.59.39 1.14.32 1.62-.08.5-.34.91-.78 1.2-.33.22-.72.33-1.11.34-.4.01-.8-.09-1.13-.28-.32-.18-.59-.43-.8-.71-.1-.13-.19-.28-.26-.42l-.05.09-.14-.64zm.38-.77c-.01.21.01.39.06.61l.01.06c.06.28.19.55.37.79.18.23.4.44.66.59.26.15.57.22.89.21.3-.01.61-.09.86-.26.33-.21.52-.52.58-.88.05-.38-.04-.84-.28-1.34-.13-.28-.29-.54-.5-.83-.2-.28-.46-.58-.77-.93l-.93-1 .93.12.34.07.37.09c.44.11.88.06 1.27-.12.41-.2.78-.53 1.05-1 .07-.11.13-.24.19-.37.22-.51.29-1.06.23-1.53-.05-.43-.23-.79-.5-.96l-.09-.04c-.15-.06-.38-.05-.64.03-.29.08-.6.24-.89.45-.21.16-.41.34-.62.54-.21.2-.44.44-.7.73l-.68.76-.33-.32-.11-.1c-.02-.01-.01-.01-.02-.02-.12-.03-.2-.18-.24-.44-.02-.17-.05-.4-.08-.7-.04-.49-.09-.83-.16-1.09-.07-.24-.17-.43-.32-.64-.3-.41-.74-.66-1.21-.73-.48-.07-.99.04-1.42.35-.26.18-.45.41-.58.65-.11.24-.16.49-.12.73.05.34.24.7.56 1.03.34.36.8.69 1.38.98l.33.18c.12.07.21.14.24.19l.03.08v.03c0 .12-.08.21-.21.24l-.09.01c-.09 0-.25-.02-.43-.04-.19-.03-.32-.04-.43-.03-.11 0-.21.02-.36.06-.42.12-.77.34-1.06.66-.29.33-.51.75-.65 1.26-.05.2-.09.4-.1.59-.04.43.02.81.15 1.1.12.27.3.45.53.51.03.01.07.02.11.02.31.03.68-.12 1.09-.41.45-.31.93-.79 1.43-1.41.16-.21.25-.31.34-.38.13-.1.21-.1.36-.09l.16.02c.12.02.21.07.24.15l.01.01c.01.04.01.18-.03.35l-.1.52c-.08.38-.12.66-.12.89z" fill-rule="nonzero"/><path d="M119.55 220.92c-.23.85-.97 1.39-1.67 1.2-.69-.18-1.07-1.02-.84-1.87.23-.85.98-1.4 1.67-1.21.69.19 1.07 1.03.84 1.88z" fill="#f9d90f" fill-rule="nonzero"/><path d="M119.57 221.48c-.14.25-.33.46-.54.62-.35.25-.77.36-1.17.26l-.04-.01c-.41-.11-.73-.42-.92-.82-.16-.38-.21-.85-.09-1.31l.01-.04c.13-.47.4-.87.74-1.12.35-.25.77-.35 1.18-.25h.03c.42.12.74.42.92.82.17.38.21.85.09 1.32v.95l-.21-.42zm-.82.24c.26-.18.46-.48.57-.83v-.93l-.06-.14a.97.97 0 00-.59-.55h-.02c-.28-.08-.57 0-.81.17-.26.19-.47.48-.57.85v.02c-.1.37-.07.74.06 1.03.12.27.33.48.6.56h.01c.28.07.57 0 .81-.18z" fill-rule="nonzero"/><path d="M125.23 219.11c-.1.51-.08.85.09 1.62.09.38.16.71.15.72 0 .01-.09.02-.19.03-.18.02-.2.01-.51-.35-1.03-1.23-2-1.88-2.7-1.81-.8.09-1.18 1.24-.81 2.48.31 1.06.98 1.77 1.87 1.99.33.08.48.08.87.02.26-.04.46-.06.45-.03-.01.02-.22.15-.45.27-1.16.62-1.87 1.41-1.97 2.19-.06.57.25 1.15.82 1.54.97.66 2.24.44 2.88-.5.31-.45.41-.82.47-1.81.03-.58.08-.91.12-.92.03-.01.13-.09.21-.18l.15-.15.53.56c.53.56.91.91 1.35 1.23.61.44 1.35.63 1.73.46.85-.39.94-1.98.19-3.17-.61-.97-1.6-1.41-2.54-1.13-.21.06-.51.14-.67.16l-.28.05.46-.53c.62-.71.98-1.23 1.24-1.8.49-1.08.33-1.98-.43-2.45-.59-.37-1.39-.35-1.95-.01-.57.34-.96.92-1.08 1.52z" fill="#f9d90f" fill-rule="nonzero"/><path d="M125.46 219.16c-.05.23-.07.43-.05.65.01.23.06.5.14.86l.11.51c.04.17.05.3.03.35-.03.08-.12.14-.23.16l-.16.02c-.15.02-.23.02-.36-.07-.09-.07-.18-.17-.34-.36-.51-.6-.99-1.05-1.43-1.35-.41-.27-.78-.4-1.07-.37l-.11.02c-.22.06-.39.25-.5.51-.12.28-.17.66-.13 1.07.02.19.06.38.12.58.15.49.37.9.67 1.21.28.3.64.51 1.04.61.15.04.25.06.36.06.11 0 .23-.01.42-.04.17-.03.33-.05.42-.05l.08.01c.14.02.22.09.22.23l-.01.08-.02.03c-.03.06-.11.13-.23.2l-.32.18c-.56.29-1 .63-1.32.98-.3.34-.48.69-.52 1.03-.03.23.02.48.14.7a1.91 1.91 0 001.96.93c.46-.08.89-.34 1.17-.75.14-.2.23-.38.29-.63.07-.26.11-.59.13-1.07.02-.29.04-.52.06-.68.04-.26.11-.41.23-.44.01-.01-.01-.01.01-.02l.11-.1.32-.32.69.73c.26.27.48.5.69.69.22.19.42.36.63.51.28.2.59.35.87.42.26.07.49.08.63.02l.08-.05c.27-.17.42-.52.47-.94.04-.46-.04-1-.27-1.49a3.092 3.092 0 00-.19-.36c-.28-.44-.65-.76-1.05-.94-.39-.17-.82-.21-1.24-.08l-.36.09c-.12.03-.24.06-.33.07l-.92.15.89-1.02c.3-.34.54-.64.74-.93.19-.27.34-.54.46-.81.22-.5.3-.94.23-1.32-.06-.35-.25-.64-.58-.84-.25-.15-.55-.23-.84-.23-.31 0-.61.08-.86.23-.25.15-.47.36-.63.59-.16.22-.27.47-.33.72l-.01.06zm-.52.68c-.01-.12 0-.22 0-.33l-.03.02.09-.47c.07-.33.21-.66.42-.95.2-.28.46-.53.76-.72.33-.19.72-.3 1.11-.3.38.01.76.1 1.09.31.44.27.71.67.79 1.15.08.47 0 1.01-.27 1.59-.13.3-.29.59-.5.89-.2.29-.45.61-.77.97l-.02.02.26-.07a2.26 2.26 0 011.56.1c.48.22.92.6 1.25 1.12.08.14.16.28.22.41.27.58.36 1.2.31 1.73-.06.57-.29 1.05-.68 1.29l-.14.08c-.24.11-.58.11-.94.01-.33-.08-.7-.26-1.02-.49-.23-.17-.45-.34-.67-.54-.22-.2-.45-.44-.72-.72l-.36-.38-.13.11c-.06.05-.12.09-.16.1-.07.02.1 0 .1.06-.02.14-.04.37-.06.65-.03.51-.07.87-.15 1.16-.07.3-.19.53-.36.77-.35.53-.89.85-1.47.95-.57.1-1.19-.02-1.73-.38-.32-.22-.56-.49-.72-.79-.17-.31-.24-.65-.2-.98.05-.43.28-.87.64-1.28.27-.3.62-.58 1.04-.84-.13-.01-.25-.04-.4-.07-.5-.13-.92-.38-1.27-.75-.35-.36-.61-.84-.78-1.4a3.815 3.815 0 01-.13-.66c-.05-.49.01-.95.16-1.31.17-.38.44-.66.79-.77.06-.02.13-.03.2-.04.4-.04.87.12 1.38.46.47.31.99.8 1.52 1.43.13.15.21.24.25.27l-.11-.47c-.08-.4-.13-.69-.15-.94z" fill-rule="nonzero"/><path d="M125.76 221.51c-.86.02-1.54.67-1.52 1.44.02.78.74 1.39 1.6 1.36.86-.02 1.54-.67 1.52-1.44-.02-.77-.73-1.38-1.59-1.36h-.01z" fill="#f9d90f" fill-rule="nonzero"/><path d="M125.76 221.74c-.37.01-.69.15-.93.38-.23.21-.37.51-.36.82v.01c.01.32.17.6.4.8.25.21.59.34.96.33h.01c.36-.01.69-.15.93-.37.23-.22.37-.52.36-.83-.01-.32-.16-.61-.4-.81a1.426 1.426 0 00-.84-.33h-.13zm-1.25.04c.29-.27.68-.46 1.12-.5h.13c.49-.02.94.15 1.27.43.34.29.55.7.56 1.16.01.45-.18.87-.5 1.17-.32.3-.76.49-1.25.51-.49.01-.94-.16-1.27-.44-.34-.29-.55-.7-.56-1.15v-.01c-.01-.45.18-.87.5-1.17z" fill-rule="nonzero"/><path d="M204.18 233.75h-2.97v-2.11h-2.53v-2.41h-2.89v-15.29l-3.3-5.76-3.29 5.76v15.29h-2.9v2.41h-2.52v2.11h-2.97v3.11l23.37.06v-3.17z" fill="#fff" fill-rule="nonzero"/><path d="M203.76 234.16h-2.96v-2.11h-2.53v-2.41h-2.89l-.01-15.58-2.88-5.05-2.88 5.04v15.59h-2.89v2.41h-2.53v2.11h-2.96v2.29l22.53.06v-2.35zm-2.14-.83h2.97v4.01c-8.06-.03-16.13-.05-24.19-.07v-3.94h2.96v-2.11h2.53v-2.41h2.89v-14.98l3.71-6.49 3.71 6.49v14.98h2.9v2.41h2.52v2.11z" fill-rule="nonzero"/><path d="M157.44 329.71c11.87.03 26.47-2.39 33.31-5.92l15.02-1.33.3 18.32c-12.73 7.02-42.1 8.52-48.57 8.47-6.47.05-36.21-1.48-48.99-8.52l.17-18.34 15.05 1.36c6.84 3.52 21.88 5.96 33.74 5.96h-.03z" fill="#f9d90f" fill-rule="nonzero"/><path d="M108.51 340.73l15.49-3.54-15.44-2.21-.05 5.75z" fill="#f9b60f" fill-rule="nonzero"/><path d="M69.84 251.54l13.24 4.21-4.01 21.43-12.52 1.94s-2.11-11.26 3.29-27.59v.01zm0 0L256 39.59 69.84 251.54z" fill="#f9d90f" fill-rule="nonzero"/><path d="M66.55 279.12l8.13-11.23 4.39 9.28-12.52 1.95z" fill="#f9b60f" fill-rule="nonzero"/><path d="M70.05 251.39l13.26 4.22c-1.36 7.25-2.72 14.5-4.06 21.75-4.29.66-8.58 1.33-12.87 2l-.04-.2c0-.04-2.11-11.3 3.3-27.66v-.24l.07.02.34-1.04v1.15zm12.79 4.5l-12.87-4.09c-4.9 14.93-3.5 25.52-3.25 27.09l12.18-1.9 3.94-21.1zm25.63 84.64l15.58-3.54.09.4-15.58 3.54-.09-.4z" fill-rule="nonzero"/><path d="M74.88 267.74l4.38 9.35-.37.17-4.38-9.35.37-.17z" fill-rule="nonzero"/><path d="M206.07 340.78l-15.49-3.54 15.44-2.21.05 5.75z" fill="#f9b60f" fill-rule="nonzero"/><path d="M244.73 251.59l-13.23 4.21 4 21.43 12.53 1.94s2.11-11.26-3.3-27.59v.01zm0 0l11.27-212-11.27 212z" fill="#f9d90f" fill-rule="nonzero"/><path d="M248.03 279.17l-8.14-11.22-4.39 9.28 12.53 1.94z" fill="#f9b60f" fill-rule="nonzero"/><path d="M244.6 251.85l-12.86 4.09 3.94 21.1 12.18 1.9c.25-1.56 1.64-12.16-3.26-27.09zm-13.16 3.76l13.09-4.17v-1.15l.34 1.04.07-.02v.24c5.41 16.36 3.3 27.63 3.29 27.66l-.03.2c-4.29-.67-8.58-1.34-12.87-2-1.36-7.25-2.72-14.5-4.07-21.75l.18-.05zm-25.42 85.37l-15.59-3.54.1-.4 15.58 3.54-.09.4z" fill-rule="nonzero"/><path d="M240.07 267.97l-4.38 9.34-.37-.17 4.37-9.35.38.18zm-82.6 61.53c6.03.02 12.76-.6 18.82-1.68 5.83-1.04 11.03-2.49 14.36-4.22l.04-.02 15.28-1.35c.1 6.22.19 12.45.31 18.67l-.11.06c-4.81 2.66-11.99 4.52-19.4 5.82-12.27 2.14-25.23 2.71-29.27 2.68-4.04.03-17.16-.55-29.55-2.71-7.48-1.3-14.71-3.18-19.54-5.84l-.11-.06c.04-6.22.11-12.46.17-18.68 5.1.45 10.22.89 15.32 1.37l.03.02c3.32 1.71 8.59 3.16 14.49 4.2 6.2 1.1 13.1 1.74 19.16 1.74zm18.89-1.27c-6.07 1.08-12.83 1.7-18.89 1.68-6.09 0-13.01-.64-19.24-1.74-5.91-1.04-11.2-2.5-14.56-4.22l-14.79-1.33-.16 17.99c4.78 2.6 11.91 4.45 19.3 5.73 12.37 2.15 25.45 2.74 29.48 2.71 4.03.03 16.95-.55 29.2-2.68 7.32-1.28 14.39-3.11 19.16-5.71l-.29-17.98-14.76 1.31c-3.38 1.74-8.6 3.2-14.45 4.24z" fill-rule="nonzero"/><path d="M252.65 267.02l-12.76.93c-.28 10.8-1.59 52.05-50.85 54.28l1.54 15.01c59.95.62 64.51-50.59 62.07-70.22zm0 0L256 39.59l-3.35 227.43z" fill="#f9d90f" fill-rule="nonzero"/><path d="M252.47 267.25l-12.37.89c-.15 5.53-.62 18.41-7.09 30.26-6.53 11.96-19.17 22.85-43.74 24.03l1.5 14.6c4.27.04 8.27-.19 12-.65 20.64-2.56 33.13-12.32 40.48-24.05 7.35-11.75 9.57-25.49 9.68-36.01.03-3.42-.15-6.51-.46-9.07zm-12.59.49c4.04-.29 9.01-.92 12.95-.92l.02.18c.33 2.61.53 5.79.49 9.33-.11 10.57-2.34 24.39-9.74 36.21-7.41 11.84-19.99 21.67-40.78 24.25-3.8.47-7.87.7-12.24.66l-.19-.01c-.52-5.13-1.06-10.27-1.57-15.4l.21-.01c24.54-1.12 37.13-11.94 43.62-23.83 6.5-11.89 6.89-24.87 7.04-30.26v-.19l.19-.01z" fill-rule="nonzero"/><path d="M61.93 266.97l12.75.92c.29 10.81 1.6 52.05 50.86 54.29L124 337.19c-59.95.62-64.51-50.59-62.07-70.22zm0 0L256 39.59 61.93 266.97z" fill="#f9d90f" fill-rule="nonzero"/><path d="M61.94 266.77l12.95.93v.19c.14 5.39.54 18.37 7.04 30.26 6.49 11.89 19.08 22.71 43.61 23.83l.22.01c-.52 5.13-1.06 10.27-1.57 15.4l-.19.01c-4.37.04-8.45-.19-12.24-.66-20.79-2.58-33.37-12.41-40.78-24.25-7.4-11.82-9.64-25.64-9.75-36.22-.03-3.53.17-6.71.49-9.32l.03-.19.19.01zm12.54 1.32l-12.37-.9c-.31 2.57-.5 5.66-.46 9.08.11 10.52 2.33 24.26 9.68 36 7.35 11.74 19.84 21.5 40.48 24.06 3.73.46 7.73.69 12 .65l1.5-14.6c-24.58-1.18-37.21-12.07-43.75-24.03-6.46-11.85-6.93-24.73-7.08-30.26z" fill-rule="nonzero"/><path d="M149.08 338.74c-.34.22-.8.27-1.33.25l-2.38-.12.21-2.97 2.36.12c.46.04.83.13 1.06.26.48.25.69.71.64 1.35-.03.54-.22.9-.57 1.11h.01zm-4 4.67l.23-3.62 2.77.2c.9.07 1.57-.17 2.02-.63.47-.44.71-1.03.74-1.69.06-.77-.14-1.4-.59-1.86-.44-.45-1.07-.68-1.85-.76l-3.96-.25-.55 8.53 1.18.07.01.01zm0 0L256 39.59 145.08 343.41zm9.01-7.13l2.9.04c.42.03.75.08 1 .2.44.21.65.63.65 1.24 0 .57-.16.96-.49 1.18-.31.21-.76.31-1.3.31l-2.79-.03.03-2.94zm-.05 7.55l.03-3.63 2.72.03c.48 0 .84.04 1.09.16.4.19.6.58.61 1.11l.08 1.43c.01.34.02.56.04.69.04.11.06.21.11.29h1.46l-.03-.18c-.16-.09-.29-.26-.35-.53-.05-.16-.08-.41-.09-.72l-.03-1.14c-.02-.51-.1-.87-.3-1.07a1.51 1.51 0 00-.77-.54c.41-.22.71-.47.93-.77.21-.34.32-.77.32-1.29 0-.98-.4-1.65-1.21-2.01-.44-.2-1-.3-1.66-.31l-4.09-.04-.04 8.55h1.18v-.03zm0 0L256 39.59 154.04 343.83zm9.69-1.78c-.52-.64-.8-1.43-.86-2.38-.06-1.18.17-2.08.71-2.69.55-.66 1.25-.98 2.18-1.03.92-.05 1.69.25 2.25.83.58.57.91 1.37.97 2.36.03.95-.13 1.8-.57 2.54-.43.76-1.15 1.19-2.22 1.21-1.1.06-1.93-.2-2.46-.84zm-1.4-5.38c-.55.84-.77 1.82-.71 3 .08 1.28.48 2.34 1.22 3.13.83.8 1.92 1.2 3.27 1.12 1.45-.06 2.53-.61 3.27-1.61.6-.91.89-1.97.82-3.27-.08-1.17-.42-2.11-1.05-2.82-.79-.95-1.96-1.37-3.54-1.3-1.48.09-2.58.64-3.28 1.75zm0 0L256 39.59l-93.67 297.08zm-94.56-53.82l.2 1.06c-.48.1-.86.29-1.14.54-.5.47-.68 1.17-.5 2.13.07.41.22.81.4 1.13.38.65.88.91 1.51.81.46-.09.77-.26.92-.59.14-.33.24-.82.27-1.46l.06-1.2c.04-.75.12-1.33.28-1.66.26-.58.76-.94 1.49-1.06.78-.15 1.47.03 2.06.48.59.41.99 1.13 1.14 2.09.18.87.1 1.65-.25 2.35-.33.69-.96 1.11-1.94 1.29l-.19-1.08c.46-.17.79-.33 1.02-.55.38-.42.49-1.04.34-1.89-.11-.68-.34-1.13-.7-1.35-.35-.26-.7-.37-1.08-.3-.43.06-.71.3-.84.68-.09.25-.15.78-.21 1.59l-.05 1.25c-.03.58-.12 1.07-.32 1.4-.31.61-.84.98-1.61 1.1-.97.17-1.73-.06-2.26-.68-.55-.61-.88-1.34-1.06-2.25-.19-1.08-.05-1.92.39-2.59.43-.7 1.13-1.1 2.07-1.23v-.01zm0 0L256 39.59 67.77 282.85zm-.54 11.27l8.41-2.53 1.96 5.92-1.03.33-1.6-4.87-2.56.77 1.49 4.5-.98.31-1.47-4.51-2.85.85 1.63 4.98-1.01.28-1.99-6.03zm0 0L256 39.59 67.23 294.12zm3.73 10.27l7.73-4.1.83 1.44-5.32 5.62 7.77-1.33.8 1.43-7.72 4.08-.54-.95 4.55-2.4c.17-.09.42-.23.79-.43.36-.16.77-.39 1.18-.6l-7.74 1.32-.56-1 5.28-5.61-.26.13c-.16.09-.45.23-.84.46-.38.23-.66.38-.85.46l-4.54 2.43-.56-.96v.01zm0 0L256 39.59 70.96 304.39zm14.41 11.39c-.38-.09-.77-.31-1.14-.7l-1.64-1.69 2.2-2.01 1.65 1.68c.32.31.52.61.63.87.15.51 0 .97-.46 1.4-.42.39-.84.54-1.24.45zm-6.21.78l2.7-2.47 1.91 1.94c.62.63 1.25.91 1.91.9.67-.04 1.25-.28 1.76-.77.57-.51.85-1.11.85-1.75-.01-.62-.3-1.21-.82-1.75l-2.75-2.81-6.4 5.88.82.83h.02zm0 0L256 39.59 79.16 316.56zm7.71 6.87l4.64-7.27 5.49 3.33-.58.87-4.5-2.7-1.39 2.2 4.14 2.51-.54.84-4.15-2.5-1.57 2.46 4.56 2.74-.55.86-5.55-3.34zm13.73-1.4l2.79.88c.39.12.68.27.87.45.36.33.45.81.24 1.4-.17.51-.43.84-.84.98-.36.06-.82.06-1.35-.1l-2.63-.84.92-2.77zm-2.4 7.14l1.15-3.47 2.6.85c.46.12.8.28.97.46.32.28.41.71.25 1.24l-.39 1.38c-.08.33-.13.56-.17.66 0 .11 0 .22.02.3l1.37.44.08-.2c-.14-.11-.23-.32-.22-.58.03-.16.08-.41.17-.71l.33-1.1c.13-.49.18-.85.06-1.11-.1-.27-.27-.52-.56-.76.43-.07.81-.21 1.13-.44.3-.26.55-.63.7-1.13.31-.93.14-1.7-.55-2.28-.34-.31-.83-.57-1.47-.81l-3.89-1.2-2.73 8.11 1.14.35h.01zm0 0L256 39.59 98.2 329.17zm103.74-5.4c.83-.13 1.54-.07 2.18.16.95.32 1.58 1.03 1.96 2.12l-1.18.15c-.24-.59-.6-1-1.08-1.23-.47-.22-1.07-.28-1.76-.19-.8.1-1.46.49-1.92 1.12-.46.69-.61 1.6-.43 2.77.15.97.49 1.8 1.06 2.36.53.57 1.33.78 2.36.65.78-.11 1.41-.41 1.86-.94.47-.5.62-1.27.48-2.26l-2.75.37-.12-.95 3.83-.51.66 4.53-.76.1-.45-1.05c-.33.47-.65.83-.94 1.03-.47.36-1.12.58-1.91.68-1.04.14-1.97-.06-2.82-.62-.92-.71-1.5-1.75-1.71-3.19-.22-1.41.03-2.6.69-3.54.64-.91 1.54-1.42 2.75-1.57v.01zm0 0L256 39.59l-54.06 284.18zm8.65-.5l2.75-.95c.38-.13.7-.17.98-.13.5.05.87.35 1.07.95.19.51.18.96-.05 1.27-.24.32-.61.55-1.15.73l-2.59.88-1.01-2.75zm2.6 7.11l-1.27-3.45 2.56-.87c.48-.14.81-.22 1.06-.19.45.06.79.34 1.01.87l.55 1.31c.13.33.23.53.31.62.03.12.11.19.17.26l1.39-.48-.07-.19c-.2 0-.4-.12-.54-.34-.1-.16-.2-.39-.34-.66l-.44-1.08c-.19-.47-.4-.76-.63-.94-.24-.13-.55-.23-.91-.26.29-.32.5-.64.58-1.02.09-.39.06-.82-.12-1.3-.33-.92-.96-1.43-1.86-1.51-.48-.05-1.03.05-1.66.26l-3.87 1.29 2.96 8.1 1.13-.39-.01-.03zm0 0L256 39.59l-42.81 290.79zm10.09-4.05l-4.75-7.21 5.42-3.32.57.87-4.44 2.73 1.46 2.2 4.1-2.53.54.84-4.1 2.54 1.61 2.42 4.52-2.77.57.85-5.51 3.38h.01zm0 0L256 39.59l-32.72 286.74zm4.5-12.5l1.42-1.52c.66-.67 1.36-.97 2.11-.87.74.08 1.5.49 2.3 1.22.22.17.41.4.61.65.35.47.55.88.68 1.29.1.51.07.97-.12 1.42-.11.22-.3.47-.6.78l-1.43 1.5-4.97-4.48v.01zm7.32 3.47c1.02-1.07 1.25-2.25.7-3.59-.32-.72-.83-1.43-1.53-2.05-.88-.82-1.81-1.24-2.79-1.33-1.09-.11-2.03.27-2.85 1.14l-2.44 2.51 6.48 5.86 2.43-2.53v-.01zm0 0L256 39.59 235.1 317.3zm5.22-6.54l-7.49-4.58.64-.97 7.5 4.56-.64 1-.01-.01zm0 0L256 39.59l-15.68 271.17zm3.06-5.11l-8.11-3.42 2.52-5.7.98.4-2.05 4.7 2.44 1.01 1.92-4.33.94.41-1.9 4.32 2.73 1.17 2.1-4.76.99.4-2.56 5.8zm0 0L256 39.59l-12.62 266.06zm3.94-9.97l-8.56-2.05.31-1.33 7.99-2.54-6.95-1.66.27-1.04 8.57 2.01-.3 1.28-8 2.6 6.95 1.63-.27 1.1h-.01zm0 0L256 39.59l-8.68 256.09z" fill="#012a87" fill-rule="nonzero"/><path d="M246.84 284.75l.13-1.08c.49.03.91-.04 1.24-.21.63-.33 1-.96 1.11-1.91.05-.44.04-.83-.06-1.2-.17-.71-.56-1.12-1.2-1.19-.48-.06-.83.05-1.08.3-.23.3-.47.73-.66 1.33l-.41 1.12c-.27.73-.52 1.24-.78 1.52-.41.53-.99.7-1.72.64-.78-.1-1.41-.42-1.85-1.03-.45-.56-.63-1.34-.5-2.31.09-.88.4-1.62.93-2.21.49-.53 1.25-.78 2.21-.66l-.11 1.08c-.47-.01-.85.07-1.12.25-.51.27-.79.84-.89 1.68-.08.7.01 1.17.27 1.53.26.31.59.51.99.54.42.05.75-.08.98-.4.17-.22.38-.7.66-1.47l.41-1.18c.2-.54.44-.96.71-1.25.49-.49 1.11-.69 1.89-.62.96.12 1.63.53 1.97 1.26.33.74.45 1.55.35 2.46-.13 1.04-.48 1.85-1.12 2.38-.63.55-1.41.72-2.35.63zm0 0L256 39.59l-9.16 245.16z" fill="#012a87" fill-rule="nonzero"/></svg>