<?xml version="1.0" encoding="UTF-8"?>
<!-- Generated by Pixelmator Pro 3.1.1 -->
<svg width="512" height="420" viewBox="0 0 512 420" xmlns="http://www.w3.org/2000/svg" xmlns:xlink="http://www.w3.org/1999/xlink">
    <path id="Path" fill="#000000" fill-rule="evenodd" stroke="none" d="M 74.320313 420 C 33.440353 420 0 386.519684 0 345.679688 L 0 74.150391 C 0 33.240417 33.410355 -0.169922 74.320313 -0.169922 L 437.679688 -0.169922 C 478.549652 -0.169922 512 33.290436 512 74.150391 L 512 345.679688 C 512 386.499664 478.499664 420 437.679688 420 L 74.320313 420 Z M 158.675781 272 L 204.474609 272 L 204.474609 165.515625 L 237.679688 165.515625 L 237.679688 128.875 L 125.470703 128.875 L 125.470703 165.515625 L 158.675781 165.515625 L 158.675781 272 Z M 250.275391 272 L 296.074219 272 L 296.074219 221.390625 L 330.425781 221.390625 L 330.425781 272 L 376.224609 272 L 376.224609 128.875 L 330.425781 128.875 L 330.425781 179.484375 L 296.074219 179.484375 L 296.074219 128.875 L 250.275391 128.875 L 250.275391 272 Z"/>
</svg>
