<svg xmlns="http://www.w3.org/2000/svg" shape-rendering="geometricPrecision" text-rendering="geometricPrecision" image-rendering="optimizeQuality" fill-rule="evenodd" clip-rule="evenodd" viewBox="0 0 512 512"><g fill-rule="nonzero"><path fill="#4D4D4D" d="M256 0c70.684 0 134.689 28.664 181.013 74.988C483.336 121.311 512 185.316 512 256s-28.664 134.689-74.987 181.013C390.689 483.336 326.684 512 256 512c-70.676 0-134.689-28.664-181.012-74.987C28.664 390.689 0 326.676 0 256c0-70.684 28.664-134.689 74.988-181.012C121.311 28.664 185.316 0 256 0z"/><path fill="#fff" d="M256.002 19.597c65.277 0 124.382 26.466 167.161 69.242 42.777 42.78 69.243 101.884 69.243 167.162S465.94 380.384 423.16 423.16c-42.776 42.78-101.881 69.246-167.158 69.246-65.279 0-124.383-26.466-167.163-69.243-42.776-42.779-69.242-101.884-69.242-167.162S46.063 131.619 88.839 88.839c42.78-42.776 101.884-69.242 167.163-69.242z"/><path fill="#0038A8" d="M393.479 255.411l.246.23h78.677l.006.36c0-119.52-96.889-216.406-216.406-216.406-85.439 0-144.065 54.924-142.89 53.894l280.367 161.922z"/><path fill="#CE1126" d="M393.078 255.641h.059L112.27 417.767c38.222 33.985 88.562 54.641 143.732 54.641 119.517 0 216.406-96.889 216.406-216.407l-.006-.36h-79.324z"/><path fill="#FCD116" d="M193.504 252.701a43.96 43.96 0 00-.274-2.817l39.818-5.222-4.8-4.688-35.49 7.047a44.039 44.039 0 00-6.657-16.007l30.141-20.198v-6.631l-31.83 24.485a43.444 43.444 0 00-1.783-2.167l32.81-28.724v-8.345h-8.233l-28.754 32.901a43.42 43.42 0 00-2.203-1.807l24.438-31.898h-6.746l-20.086 30.183a44.031 44.031 0 00-15.903-6.577l7.059-35.612-4.801-4.685-5.169 39.822a41.807 41.807 0 00-2.763-.272l2.902-43.668-5.834-5.718-5.83 5.718 2.899 43.665c-.968.065-1.931.159-2.881.286l-5.279-39.833-4.8 4.685 7.168 35.633a43.935 43.935 0 00-15.856 6.636l-20.243-30.263h-6.745l24.608 31.978a44.473 44.473 0 00-2.19 1.807L91.26 189.434h-8.118v8.345l32.922 28.775a45.983 45.983 0 00-1.777 2.164l-31.945-24.533v6.631l30.259 20.243a44.066 44.066 0 00-6.654 15.988l-35.73-7.073-4.573 4.688 39.836 5.225a42.472 42.472 0 00-.28 2.823l-43.674-2.899-5.83 5.83 5.83 5.828 43.674-2.899c.062.947.156 1.892.28 2.825l-39.836 5.222 4.573 4.688 35.73-7.073a43.934 43.934 0 006.628 15.944l-30.233 20.172v6.634l31.918-24.456a43.063 43.063 0 001.807 2.2L83.142 313.5v8.233h8.118l28.907-32.892a44.497 44.497 0 002.191 1.807l-24.579 31.883h6.745l20.214-30.162a43.995 43.995 0 0015.87 6.648l-7.153 35.52 4.8 4.806 5.279-39.836c.95.127 1.91.221 2.878.286l-2.896 43.553 5.83 5.831 5.834-5.831-2.896-43.553a44.735 44.735 0 002.757-.271l5.169 39.821 4.801-4.806-7.047-35.494a44.038 44.038 0 0015.909-6.615l20.068 30.103h6.746l-24.423-31.821a46.03 46.03 0 002.199-1.81l28.743 32.833h8.233V313.5l-32.834-28.745a46.03 46.03 0 001.81-2.199l31.827 24.426v-6.634l-30.139-20.142a44.001 44.001 0 006.643-15.948l35.502 7.047 4.8-4.688-39.83-5.222c.121-.93.219-1.869.281-2.817l43.44 2.891 5.831-5.828-5.831-5.83-43.435 2.89zM350.827 255.641l-16.697 5.828-.34 17.5-10.636-13.952-16.925 5.031 10.179-14.407-10.179-14.409 16.925 4.918 10.636-13.952.34 17.613z"/></g></svg>