<svg xmlns="http://www.w3.org/2000/svg" shape-rendering="geometricPrecision" text-rendering="geometricPrecision" image-rendering="optimizeQuality" fill-rule="evenodd" clip-rule="evenodd" viewBox="0 0 512 512"><g fill-rule="nonzero"><path fill="#4D4D4D" d="M256 0c70.683 0 134.689 28.663 181.012 74.987C483.336 121.311 512 185.316 512 256c0 70.683-28.664 134.689-74.988 181.012C390.689 483.336 326.683 512 256 512c-70.677 0-134.689-28.664-181.013-74.988C28.663 390.689 0 326.676 0 256c0-70.684 28.663-134.689 74.987-181.013C121.311 28.663 185.316 0 256 0z"/><path fill="#fff" d="M256.001 19.596c65.278 0 124.383 26.467 167.162 69.243 42.777 42.78 69.243 101.884 69.243 167.162S465.94 380.384 423.16 423.16c-42.776 42.78-101.881 69.246-167.159 69.246-65.278 0-124.382-26.466-167.162-69.243-42.776-42.779-69.243-101.884-69.243-167.162S46.063 131.619 88.839 88.839c42.78-42.776 101.884-69.243 167.162-69.243z"/><path fill="#001489" d="M256.001 39.594c63.011 0 119.727 26.939 159.277 69.919H96.724c39.55-42.98 96.263-69.919 159.277-69.919zm159.189 362.99c-39.547 42.924-96.222 69.824-159.189 69.824-62.966 0-119.644-26.9-159.188-69.824H415.19z"/><path fill="#DA291C" d="M52.306 182.782h407.39c8.222 22.87 12.712 47.518 12.712 73.219 0 25.737-4.502 50.42-12.745 73.314H52.339c-8.243-22.894-12.745-47.577-12.745-73.314 0-25.701 4.494-50.349 12.712-73.219z"/></g></svg>