<svg xmlns="http://www.w3.org/2000/svg" shape-rendering="geometricPrecision" text-rendering="geometricPrecision" image-rendering="optimizeQuality" fill-rule="evenodd" clip-rule="evenodd" viewBox="0 0 512 512.001"><path fill="#4D4D4D" fill-rule="nonzero" d="M256 0c70.684 0 134.689 28.664 181.013 74.987C483.337 121.311 512 185.316 512 256c0 70.684-28.663 134.69-74.987 181.013-46.324 46.324-110.329 74.988-181.013 74.988-70.676 0-134.689-28.664-181.013-74.988C28.664 390.69 0 326.677 0 256c0-70.684 28.664-134.689 74.987-181.013C121.311 28.664 185.316 0 256 0z"/><path fill="#fff" fill-rule="nonzero" d="M256.002 19.596c65.277 0 124.382 26.467 167.162 69.243 42.776 42.78 69.242 101.884 69.242 167.163 0 65.278-26.466 124.382-69.245 167.159-42.777 42.779-101.882 69.246-167.159 69.246-65.279 0-124.383-26.467-167.163-69.243-42.776-42.78-69.243-101.884-69.243-167.162 0-65.279 26.467-124.383 69.243-167.163 42.78-42.776 101.884-69.243 167.163-69.243z"/><path fill="#fff" fill-rule="nonzero" d="M256.002 39.016c59.915 0 114.165 24.292 153.43 63.555 39.263 39.265 63.555 93.515 63.555 153.431 0 59.915-24.292 114.165-63.557 153.428-39.263 39.265-93.513 63.557-153.428 63.557-59.916 0-114.166-24.292-153.431-63.555-39.263-39.265-63.555-93.515-63.555-153.43 0-59.916 24.292-114.166 63.555-153.431 39.265-39.263 93.515-63.555 153.431-63.555z"/><path fill="#0038A8" fill-rule="nonzero" d="M390.495 85.719a218.204 218.204 0 0118.938 16.85 218.119 218.119 0 0127.632 33.82H313.102v-50.67h77.393zm71.303 101.335a215.922 215.922 0 0110.427 50.668H313.102v-50.668h148.696zm8.786 101.333a215.454 215.454 0 01-14.064 50.664H55.483a215.55 215.55 0 01-14.064-50.664h429.165zm-43.692 101.335a218.004 218.004 0 01-56.456 50.665H141.567a217.992 217.992 0 01-38.998-30.953 218.921 218.921 0 01-17.461-19.712h341.784z"/><path fill="#7B3F00" fill-rule="nonzero" d="M180.007 194.971l-.463-.693 1.384-.927 9.298 13.883-.651.471c-17.946 12.987-20.632 23.147-22.709 31.009-1.956 7.4-3.4 12.865-15.364 16.775l-3.404 1.113 2.565-2.503c7.335-7.159 6.81-11.277 6.034-17.369-.811-6.369-1.884-14.784 4.566-30.354l.317-.77 1.54.634-.316.77c-6.283 15.167-5.242 23.331-4.455 29.511.738 5.796 1.265 9.938-4.028 16.125 8.067-3.518 9.311-8.225 10.932-14.357 2.119-8.017 4.852-18.352 22.695-31.462l-7.941-11.856z"/><path fill="#FCD116" fill-rule="nonzero" d="M180.699 194.507l8.386 12.522c-34.459 24.938-13.421 39.685-37.841 47.667 15.188-14.822-2.008-17.109 10.789-48.003l18.666-12.186zm0 0z"/><path fill="#7B3F00" fill-rule="nonzero" d="M164.044 183.036l.16-.82 1.639.32c-1.067 5.467-2.161 10.93-3.24 16.395l-.795-.128c-21.872-3.506-30.957 1.781-37.987 5.871-6.614 3.849-11.499 6.691-22.721.999l-3.195-1.621 3.581.043c10.282.126 12.93-3.224 16.827-8.155 4.045-5.118 9.368-11.853 24.898-18.285l.77-.317.634 1.542-.771.316c-15.127 6.266-20.297 12.806-24.225 17.777-3.699 4.68-6.355 8.038-14.523 8.679 8.196 3.219 12.405.77 17.889-2.421 7.165-4.17 16.403-9.543 38.29-6.197l2.769-13.998z"/><path fill="#FCD116" fill-rule="nonzero" d="M164.864 183.196l-2.925 14.785c-42-6.733-37.551 18.57-60.463 6.947 21.221.259 11.157-13.705 42.051-26.502l21.337 4.77zm0 0z"/><path fill="#7B3F00" fill-rule="nonzero" d="M164.418 183.503l-5.66-1.02.018.074-.371.091c-17.163 4.206-26.675 11.259-34.078 16.748l-.532.395c-1.882 1.392-3.636 2.682-5.369 3.79-1.741 1.113-3.454 2.038-5.238 2.688a16.095 16.095 0 01-4.512.969c6.041 1.318 9.829-.882 14.537-3.617 7.155-4.158 16.392-9.523 38.427-6.066l2.778-14.052zm-6.103-1.87l6.998 1.261c-1.026 5.174-2.05 10.349-3.069 15.525l-.361-.059c-22.031-3.53-31.197 1.796-38.29 5.917-5.562 3.232-9.878 5.74-17.952 2.872l-3.144-1.117 3.314.382a15.49 15.49 0 003.614-.01 15.306 15.306 0 003.501-.847l.003-.002c1.729-.63 3.395-1.529 5.09-2.613 1.704-1.089 3.45-2.373 5.323-3.76l.533-.395c7.403-5.489 16.901-12.53 33.981-16.784l-.118-.474.577.104z"/><path fill="#7B3F00" fill-rule="nonzero" d="M164.865 183.198l-6.617-1.192.068.274c-17.654 4.326-27.239 11.644-34.747 17.206-3.756 2.781-6.996 5.145-10.511 6.426a15.747 15.747 0 01-7.29.879c18.224 6.474 17.018-15.081 56.174-8.805l2.923-14.788z"/><path fill="#7B3F00" fill-rule="nonzero" d="M158.311 182.277c-17.233 4.218-26.857 11.355-34.232 16.823-7.989 5.924-13.43 9.959-22.881 6.615l.555-1.574c8.618 3.049 13.77-.77 21.333-6.379 7.492-5.556 17.269-12.806 34.833-17.105l.392 1.62z"/><path fill="#7B3F00" fill-rule="nonzero" d="M185.253 169.736l-10.525-10.526-47.366 68.418 57.891-57.892zm-10.049-12.414l24.351 24.353c-27.151 18.785-54.293 37.585-81.438 56.38 18.792-27.147 37.584-54.295 56.38-81.439l.707.706zm-46.661 71.488l68.418-47.366-10.525-10.526-57.893 57.892z"/><path fill="#FCD116" fill-rule="nonzero" d="M186.435 169.736l-11.823-11.823-53.202 76.849 76.848-53.203-11.822-11.823-65.026 65.025 65.025-65.025zm0 0z"/><path fill="#7B3F00" fill-rule="nonzero" d="M161.201 163.308l.692-.464.928 1.385-13.884 9.298-.471-.65c-12.987-17.947-23.147-20.632-31.008-22.71-7.4-1.956-12.865-3.4-16.776-15.364l-1.113-3.406 2.504 2.567c7.16 7.336 11.316 6.815 17.452 6.044 6.4-.804 14.845-1.865 30.412 4.584l.771.316-.634 1.542-.77-.317c-15.155-6.277-23.359-5.247-29.577-4.466-5.829.732-10.003 1.255-16.201-4.045 3.518 8.067 8.224 9.311 14.356 10.931 8.018 2.119 18.353 4.853 31.462 22.695l11.857-7.94z"/><path fill="#FCD116" fill-rule="nonzero" d="M161.665 164l-12.523 8.387c-24.937-34.46-39.684-13.422-47.666-37.842 14.822 15.188 17.25-1.979 48.144 10.817L161.665 164zm0 0z"/><path fill="#7B3F00" fill-rule="nonzero" d="M161.132 163.903l-3.281-4.723-.039.064-.325-.197c-15.109-9.161-26.823-10.9-35.94-12.254l-.657-.097c-2.321-.347-4.479-.676-6.476-1.115-2.019-.445-3.883-1.003-5.605-1.805a16.042 16.042 0 01-3.877-2.508c3.34 5.206 7.573 6.328 12.837 7.723 8 2.119 18.327 4.859 31.464 22.884l11.899-7.972zm-2.992-5.639l4.056 5.839a13085.49 13085.49 0 00-13.148 8.809l-.215-.296c-13.081-18.075-23.328-20.79-31.257-22.891-6.219-1.648-11.044-2.927-14.726-10.665l-1.432-3.01 2.072 2.612a15.368 15.368 0 005.637 4.425h.003c1.668.776 3.481 1.318 5.446 1.751 1.989.437 4.125.763 6.424 1.106l.657.098c9.116 1.353 20.81 3.09 35.896 12.161l.253-.42.334.481z"/><path fill="#7B3F00" fill-rule="nonzero" d="M161.663 164.003l-3.835-5.522-.145.242c-15.543-9.424-27.495-11.027-36.737-12.403-4.622-.69-8.586-1.309-11.976-2.888a15.761 15.761 0 01-5.777-4.534c8.309 17.464 22.697 1.369 45.948 33.495l12.522-8.39z"/><path fill="#7B3F00" fill-rule="nonzero" d="M157.684 158.718c-15.165-9.202-27.02-10.961-36.104-12.309-9.839-1.459-16.54-2.454-20.859-11.505l1.509-.718c3.936 8.247 10.279 9.189 19.592 10.571 9.224 1.368 21.261 3.155 36.724 12.537l-.862 1.424z"/><path fill="#7B3F00" fill-rule="nonzero" d="M185.599 168.9v-14.885L103.73 168.9h81.869zm1.672-15.883v34.438c-32.482-5.912-64.966-11.812-97.45-17.718l97.45-17.719v.999zm-83.544 17.555l81.872 14.886v-14.886h-81.872z"/><path fill="#FCD116" fill-rule="nonzero" d="M186.435 169.736v-16.719l-91.959 16.72 91.959 16.719v-16.72H94.476h91.959zm0 0z"/><path fill="#7B3F00" fill-rule="nonzero" d="M186.435 169.736v16.72-16.72H94.476l91.959 16.72v-16.72zm0 0zM173.135 147.345l.82.161-.32 1.639c-5.467-1.068-10.93-2.161-16.394-3.241l.127-.794c3.506-21.873-1.78-30.958-5.871-37.988-3.849-6.614-6.691-11.499-.998-22.721l1.621-3.195-.044 3.581c-.126 10.387 3.477 13.428 8.676 17.816 5.27 4.447 12.107 10.218 18.481 25.606l.317.771-1.541.633-.317-.771c-6.215-15.005-12.881-20.63-18.018-24.966-4.901-4.135-8.473-7.153-9.15-15.491-3.226 8.204-.777 12.414 2.416 17.901 4.17 7.165 9.544 16.404 6.198 38.291l13.997 2.768z"/><path fill="#FCD116" fill-rule="nonzero" d="M172.976 148.165l-14.785-2.925c6.733-42-18.571-37.551-6.947-60.463-.259 21.221 14.422 12.855 27.218 43.749l-5.486 19.639zm0 0z"/><path fill="#7B3F00" fill-rule="nonzero" d="M172.669 147.719l1.02-5.66-.074.019-.091-.372c-4.207-17.163-11.26-26.675-16.749-34.078l-.395-.532c-1.392-1.882-2.682-3.635-3.79-5.368-1.113-1.742-2.037-3.455-2.688-5.239a16.15 16.15 0 01-.968-4.512c-1.319 6.042.881 9.829 3.617 14.537 4.158 7.155 9.523 16.393 6.065 38.427l14.053 2.778zm1.869-6.103l-1.26 6.998c-5.175-1.024-10.35-2.049-15.524-3.069l.057-.361c3.531-22.03-1.795-31.197-5.916-38.29-3.233-5.562-5.74-9.879-2.873-17.951l1.118-3.145-.382 3.314a15.436 15.436 0 00.856 7.115l.002.003c.63 1.73 1.529 3.395 2.613 5.091 1.09 1.704 2.373 3.449 3.76 5.323l.395.532c5.489 7.404 12.531 16.902 16.784 33.982l.474-.118-.104.576z"/><path fill="#7B3F00" fill-rule="nonzero" d="M172.973 148.166l1.192-6.617-.273.068c-4.326-17.654-11.645-27.239-17.207-34.747-2.78-3.756-5.145-6.996-6.426-10.51a15.78 15.78 0 01-.879-7.291c-6.473 18.225 15.082 17.018 8.806 56.174l14.787 2.923z"/><path fill="#7B3F00" fill-rule="nonzero" d="M173.895 141.612c-4.219-17.233-11.355-26.857-16.824-34.231-5.924-7.989-9.959-13.43-6.614-22.882l1.574.555c-3.05 8.618.77 13.77 6.379 21.334 5.556 7.491 12.805 17.268 17.105 34.833l-1.62.391z"/><path fill="#7B3F00" fill-rule="nonzero" d="M186.435 168.554l10.525-10.525-68.412-47.363 57.887 57.888zm12.414-10.049l-24.352 24.352-56.382-81.44 81.441 56.382-.707.706zm-71.485-46.658l47.363 68.415 10.526-10.526-57.889-57.889z"/><path fill="#FCD116" fill-rule="nonzero" d="M186.435 169.736l11.823-11.822-76.848-53.203 53.202 76.848 11.823-11.823-65.025-65.025 65.025 65.025zm0 0z"/><path fill="#7B3F00" fill-rule="nonzero" d="M186.435 169.736l-11.823 11.823 11.823-11.823-65.025-65.025 53.202 76.848 11.823-11.823zm0 0zM192.863 144.502l.464.693-1.385.927-9.297-13.884.65-.471c17.947-12.987 20.632-23.147 22.709-31.008 1.956-7.4 3.401-12.865 15.365-16.776l3.405-1.113-2.566 2.504c-7.342 7.165-6.83 11.325-6.073 17.471.789 6.404 1.829 14.852-4.615 30.41l-.317.77-1.541-.633.317-.771c6.274-15.147 5.263-23.353 4.497-29.573-.719-5.839-1.232-10.018 4.073-16.221-8.066 3.519-9.31 8.225-10.931 14.357-2.119 8.017-4.852 18.352-22.695 31.461l7.94 11.857z"/><path fill="#FCD116" fill-rule="nonzero" d="M192.171 144.966l-8.386-12.523c34.459-24.937 13.421-39.684 37.842-47.666-15.189 14.822 1.919 17.266-10.878 48.161l-18.578 12.028zm0 0z"/><path fill="#7B3F00" fill-rule="nonzero" d="M192.268 144.433l4.723-3.281-.063-.039.197-.325c9.161-15.109 10.9-26.823 12.253-35.939l.098-.657c.345-2.319.675-4.475 1.115-6.475.443-2.019 1.001-3.883 1.804-5.607a16.19 16.19 0 012.508-3.877c-5.205 3.34-6.327 7.573-7.722 12.838-2.12 7.999-4.859 18.326-22.884 31.463l7.971 11.899zm5.639-2.992l-5.838 4.056-8.809-13.148.296-.215c18.074-13.081 20.79-23.328 22.891-31.257 1.648-6.219 2.927-11.045 10.665-14.726l3.01-1.432-2.612 2.072a15.477 15.477 0 00-2.548 2.562 15.301 15.301 0 00-1.877 3.076v.003c-.777 1.666-1.319 3.48-1.751 5.447-.437 1.983-.763 4.122-1.107 6.423l-.097.657c-1.353 9.116-3.09 20.809-12.162 35.895l.421.253-.482.334z"/><path fill="#7B3F00" fill-rule="nonzero" d="M192.168 144.965l5.522-3.836-.241-.145c9.424-15.542 11.027-27.495 12.403-36.737.689-4.622 1.308-8.585 2.888-11.976a15.77 15.77 0 014.534-5.777c-17.464 8.309-1.369 22.698-33.495 45.948l8.389 12.523z"/><path fill="#7B3F00" fill-rule="nonzero" d="M197.454 140.985c9.201-15.165 10.96-27.02 12.308-36.103 1.46-9.839 2.455-16.541 11.505-20.86l.719 1.509c-8.248 3.936-9.19 10.279-10.572 19.593-1.368 9.223-3.155 21.26-12.537 36.724l-1.423-.863z"/><path fill="#7B3F00" fill-rule="nonzero" d="M187.271 168.9h14.886l-14.886-81.869V168.9zm15.884 1.672h-34.438l17.718-97.45c5.906 32.484 11.806 64.968 17.719 97.45h-.999zm-17.556-83.544L170.713 168.9h14.886V87.028z"/><path fill="#FCD116" fill-rule="nonzero" d="M186.435 169.736h16.72l-16.72-91.959-16.72 91.959h16.72V77.777v91.959zm0 0z"/><path fill="#7B3F00" fill-rule="nonzero" d="M186.435 169.736h-16.72 16.72V77.777l-16.72 91.959h16.72zm0 0zM208.826 156.437l-.16.82-1.639-.321c1.067-5.466 2.159-10.93 3.241-16.394l.794.127c21.872 3.507 30.958-1.78 37.987-5.871 6.614-3.848 11.499-6.691 22.721-.998l3.196 1.621-3.581-.043c-10.333-.126-13.115 3.277-17.196 8.268-4.187 5.122-9.676 11.837-25.139 18.242l-.771.316-.633-1.541.771-.317c15.062-6.239 20.404-12.773 24.478-17.757 3.862-4.725 6.643-8.123 14.879-8.769-8.196-3.218-12.404-.769-17.889 2.422-7.165 4.17-16.403 9.543-38.29 6.197l-2.769 13.998z"/><path fill="#FCD116" fill-rule="nonzero" d="M208.006 156.277l2.925-14.785c42 6.733 37.552-18.57 60.464-6.947-21.222-.259-11.767 13.775-42.662 26.572l-20.727-4.84zm0 0z"/><path fill="#7B3F00" fill-rule="nonzero" d="M208.452 155.97l5.661 1.02-.019-.074.371-.091c17.163-4.207 26.675-11.26 34.078-16.749l.533-.394c1.881-1.393 3.634-2.682 5.368-3.79 1.741-1.114 3.454-2.038 5.238-2.688a16.108 16.108 0 014.513-.969c-6.042-1.319-9.829.881-14.537 3.617-7.155 4.157-16.393 9.522-38.428 6.065l-2.778 14.053zm6.104 1.87l-6.998-1.261 3.069-15.525.361.058c22.03 3.531 31.197-1.795 38.289-5.916 5.563-3.232 9.879-5.74 17.952-2.873l3.145 1.118-3.315-.382a15.482 15.482 0 00-3.613.01 15.301 15.301 0 00-3.502.847l-.003.001c-1.729.631-3.394 1.529-5.09 2.614-1.704 1.089-3.45 2.373-5.323 3.76l-.533.394c-7.403 5.49-16.901 12.531-33.981 16.784l.118.475-.576-.104z"/><path fill="#7B3F00" fill-rule="nonzero" d="M208.005 156.274l6.617 1.193-.068-.274c17.654-4.326 27.24-11.645 34.748-17.207 3.755-2.78 6.996-5.145 10.51-6.426a15.764 15.764 0 017.291-.878c-18.225-6.474-17.018 15.081-56.175 8.805l-2.923 14.787z"/><path fill="#7B3F00" fill-rule="nonzero" d="M214.559 157.196c17.233-4.218 26.857-11.356 34.232-16.824 7.989-5.924 13.43-9.959 22.881-6.614l-.555 1.574c-8.618-3.049-13.769.77-21.333 6.379-7.492 5.556-17.268 12.805-34.833 17.105l-.392-1.62z"/><path fill="#7B3F00" fill-rule="nonzero" d="M187.617 169.736l10.526 10.526 47.363-68.414-57.889 57.888zm10.05 12.414l-24.352-24.351c27.143-18.799 54.292-37.589 81.44-56.382-18.795 27.145-37.593 54.29-56.382 81.44l-.706-.707zm46.657-71.484l-68.414 47.363 10.525 10.525 57.889-57.888z"/><path fill="#FCD116" fill-rule="nonzero" d="M186.435 169.736l11.823 11.823 53.202-76.848-76.848 53.203 11.823 11.822 65.025-65.025-65.025 65.025zm0 0z"/><path fill="#7B3F00" fill-rule="nonzero" d="M186.435 169.736l-11.823-11.822 11.823 11.822 65.025-65.025-76.848 53.203 11.823 11.822zm0 0zM211.669 176.164l-.692.464-.928-1.385 13.884-9.297.471.65c12.987 17.946 23.147 20.632 31.008 22.709 7.4 1.956 12.866 3.401 16.776 15.365l1.114 3.406-2.505-2.567c-7.179-7.357-11.428-6.859-17.677-6.127-6.483.76-15.011 1.759-30.542-4.673l-.77-.317.634-1.541.77.316c15.128 6.267 23.417 5.295 29.718 4.557 5.928-.695 10.185-1.192 16.415 4.129-3.518-8.069-8.225-9.313-14.357-10.934-8.018-2.119-18.352-4.852-31.462-22.695l-11.857 7.94z"/><path fill="#FCD116" fill-rule="nonzero" d="M211.205 175.472l12.523-8.386c24.937 34.46 39.684 13.422 47.667 37.842-14.823-15.189-17.605 1.807-48.499-10.99l-11.691-18.466zm0 0z"/><path fill="#7B3F00" fill-rule="nonzero" d="M211.739 175.569l3.281 4.724.038-.064.326.197c15.108 9.161 26.822 10.9 35.939 12.253l.657.098c2.319.346 4.474.675 6.474 1.115 2.019.444 3.884 1.001 5.607 1.805a16.077 16.077 0 013.877 2.508c-3.339-5.206-7.573-6.328-12.837-7.723-8-2.119-18.327-4.859-31.463-22.884l-11.899 7.971zm2.991 5.64l-4.056-5.839c4.382-2.938 8.765-5.875 13.149-8.808l.215.295c13.081 18.075 23.328 20.79 31.256 22.891 6.22 1.648 11.045 2.927 14.727 10.665l1.432 3.01-2.073-2.611a15.407 15.407 0 00-5.637-4.426h-.003c-1.667-.776-3.48-1.318-5.448-1.751-1.983-.437-4.121-.763-6.422-1.106l-.657-.098c-9.116-1.353-20.809-3.09-35.895-12.161l-.253.42-.335-.481z"/><path fill="#7B3F00" fill-rule="nonzero" d="M211.207 175.47l3.835 5.522.146-.242c15.542 9.424 27.494 11.027 36.737 12.403 4.622.69 8.585 1.309 11.975 2.888a15.753 15.753 0 015.777 4.534c-8.309-17.464-22.697-1.369-45.947-33.495l-12.523 8.39z"/><path fill="#7B3F00" fill-rule="nonzero" d="M215.186 180.755c15.165 9.201 27.02 10.96 36.104 12.308 9.839 1.46 16.54 2.455 20.859 11.506l-1.509.718c-3.936-8.248-10.279-9.19-19.592-10.572-9.223-1.368-21.261-3.154-36.724-12.536l.862-1.424z"/><path fill="#7B3F00" fill-rule="nonzero" d="M187.271 170.572v14.886l81.871-14.886h-81.871zm-1.672 15.884v-34.438l97.451 17.718c-32.484 5.906-64.968 11.806-97.451 17.719v-.999zm83.543-17.556l-81.871-14.886V168.9h81.871z"/><path fill="#FCD116" fill-rule="nonzero" d="M186.435 169.736v16.72l91.96-16.72-91.96-16.72v16.72h91.96-91.96zm0 0z"/><path fill="#7B3F00" fill-rule="nonzero" d="M186.435 169.736v-16.719 16.719h91.96l-91.96-16.72v16.72zm0 0zM199.735 192.127l-.82-.16.32-1.639c5.467 1.067 10.93 2.159 16.394 3.241l-.127.794c-3.506 21.873 1.781 30.958 5.871 37.988 3.849 6.614 6.691 11.498.998 22.721l-1.621 3.195.044-3.581c.125-10.303-3.242-13.002-8.193-16.971-5.113-4.099-11.834-9.487-18.255-24.989l-.317-.771 1.541-.634.317.771c6.255 15.1 12.788 20.338 17.759 24.323 4.694 3.762 8.063 6.466 8.705 14.66 3.219-8.196.77-12.404-2.421-17.888-4.17-7.165-9.544-16.404-6.198-38.291l-13.997-2.769z"/><path fill="#FCD116" fill-rule="nonzero" d="M199.894 191.308l14.785 2.924c-6.733 42.001 18.571 37.552 6.948 60.464.258-21.221-13.714-11.393-26.511-42.287l4.778-21.101zm0 0z"/><path fill="#7B3F00" fill-rule="nonzero" d="M200.201 191.754l-1.02 5.66.075-.019.091.371c4.206 17.164 11.259 26.676 16.748 34.079l.395.532c1.392 1.881 2.682 3.635 3.79 5.368 1.113 1.741 2.037 3.454 2.688 5.239a16.1 16.1 0 01.969 4.512c1.318-6.041-.882-9.829-3.618-14.537-4.157-7.155-9.522-16.393-6.065-38.427l-14.053-2.778zm-1.869 6.103l1.261-6.998 15.524 3.069-.058.361c-3.53 22.031 1.796 31.197 5.917 38.29 3.232 5.562 5.74 9.878 2.872 17.951l-1.117 3.145.381-3.314a15.436 15.436 0 00-.856-7.116l-.002-.002c-.63-1.73-1.529-3.395-2.613-5.091-1.09-1.703-2.374-3.449-3.76-5.323l-.395-.532c-5.489-7.404-12.53-16.902-16.784-33.982l-.474.119.104-.577z"/><path fill="#7B3F00" fill-rule="nonzero" d="M199.897 191.307l-1.192 6.616.273-.068c4.327 17.654 11.645 27.24 17.207 34.748 2.78 3.756 5.145 6.996 6.426 10.51a15.764 15.764 0 01.879 7.291c6.474-18.224-15.081-17.018-8.805-56.174l-14.788-2.923z"/><path fill="#7B3F00" fill-rule="nonzero" d="M198.976 197.86c4.218 17.233 11.355 26.858 16.823 34.232 5.924 7.989 9.959 13.43 6.615 22.881l-1.575-.555c3.05-8.618-.769-13.769-6.379-21.333-5.555-7.491-12.805-17.268-17.104-34.833l1.62-.392z"/><path fill="#7B3F00" fill-rule="nonzero" d="M186.435 170.919l-10.525 10.525 68.414 47.364-57.889-57.889zm-12.414 10.049l24.352-24.352 56.382 81.44-81.44-56.381.706-.707zm71.484 46.656l-47.362-68.413-10.526 10.525 57.888 57.888z"/><path fill="#FCD116" fill-rule="nonzero" d="M186.435 169.736l-11.823 11.823 76.848 53.203-53.202-76.848-11.823 11.822 65.025 65.026-65.025-65.026zm0 0z"/><path fill="#7B3F00" fill-rule="nonzero" d="M186.435 169.736l11.823-11.822-11.823 11.822 65.025 65.026-53.202-76.849-11.823 11.823zm0 0zM180.602 195.04l-4.724 3.281.065.039-.198.325c-9.161 15.109-10.9 26.822-12.253 35.939l-.098.657c-.346 2.32-.675 4.476-1.115 6.476-.444 2.019-1.003 3.884-1.804 5.605a16.146 16.146 0 01-2.507 3.877c5.204-3.34 6.326-7.573 7.721-12.836 2.12-8.001 4.859-18.327 22.884-31.464l-7.971-11.899zm-5.639 2.992l5.839-4.056 8.807 13.149-.296.214c-18.074 13.081-20.79 23.328-22.89 31.257-1.648 6.218-2.927 11.044-10.665 14.725l-3.018 1.436 2.621-2.075a15.378 15.378 0 004.424-5.638c.777-1.671 1.319-3.484 1.752-5.449.436-1.985.763-4.123 1.106-6.424l.097-.657c1.353-9.116 3.09-20.809 12.162-35.895l-.42-.253.481-.334z"/><path fill="#7B3F00" fill-rule="nonzero" d="M180.702 194.508l-5.522 3.835.241.146c-9.424 15.542-11.026 27.495-12.403 36.737-.689 4.622-1.308 8.585-2.888 11.976a15.748 15.748 0 01-4.534 5.777c17.464-8.31 1.369-22.698 33.495-45.948l-8.389-12.523z"/><path fill="#7B3F00" fill-rule="nonzero" d="M175.416 198.487c-9.201 15.166-10.96 27.021-12.308 36.104-1.46 9.839-2.455 16.54-11.505 20.859l-.718-1.508c8.248-3.936 9.19-10.279 10.571-19.593 1.369-9.224 3.155-21.261 12.537-36.724l1.423.862z"/><path fill="#7B3F00" fill-rule="nonzero" d="M185.6 170.572h-14.887l14.887 81.874v-81.874zm-15.885-1.672h34.439c-5.915 32.482-11.813 64.966-17.719 97.449L168.717 168.9h.998zm17.556 83.546l14.886-81.874h-14.886v81.874z"/><path fill="#FCD116" fill-rule="nonzero" d="M186.435 169.736h-16.72l16.72 91.96 16.72-91.96h-16.72v91.96-91.96zm0 0z"/><path fill="#7B3F00" fill-rule="nonzero" d="M186.435 169.736h16.72-16.72v91.96l16.72-91.96h-16.72zm0 0z"/><path fill="#7B3F00" fill-rule="nonzero" d="M186.435 169.736l11.823 11.823-11.823-11.823-65.025 65.026 76.848-53.203-11.823-11.823zm0 0z"/><path fill="#7B3F00" fill-rule="nonzero" d="M209.338 146.833c5.861 5.861 9.487 13.959 9.487 22.902 0 8.944-3.626 17.042-9.487 22.903-5.862 5.861-13.959 9.487-22.903 9.487-8.944 0-17.041-3.626-22.903-9.487-5.861-5.861-9.487-13.959-9.487-22.903 0-8.943 3.626-17.041 9.487-22.902 5.862-5.862 13.96-9.487 22.903-9.487 8.943 0 17.041 3.625 22.903 9.487z"/><circle fill="#FCD116" fill-rule="nonzero" cx="186.435" cy="169.735" r="30.652"/><path fill="#7B3F00" fill-rule="nonzero" d="M209.007 157.475c-1.951 2.23-3.065-1.672-10.032-1.672-6.966 0-8.081 4.18-9.196 3.344-1.115-.836 5.852-5.852 8.082-6.13 2.229-.279 8.638 1.95 11.146 4.458zm-8.081 2.508c1.951 1.672.278 5.295-1.673 5.295-1.95 0-5.573-3.344-3.901-5.573l5.574.278zm0 0z"/><path fill="#7B3F00" fill-rule="nonzero" d="M191.73 162.491c.279-3.344 3.065-3.901 7.523-3.901 4.459 0 6.41 3.344 8.082 4.18-1.951 0-3.622-2.787-8.082-2.787-4.458 0-4.458 0-7.523 2.787v-.279zm.836.836c1.115-1.672 2.508 1.672 5.573 1.672 3.065 0 4.738-.836 6.688-2.229 1.951-1.394-2.786 3.344-5.852 3.344-3.065 0-7.245-1.672-6.409-2.787zM170.83 159.705c-1.394.557-3.623 3.343 0 5.294-2.787-1.951-.558-4.737 0-5.294z"/><path fill="#7B3F00" fill-rule="nonzero" d="M202.041 159.705c.557.557 2.786 3.343 0 5.294 3.622-1.951 1.393-4.737 0-5.294zM181.977 171.688c-2.509.557-1.673 4.179-3.902 4.458-2.23.279-3.344 2.787-3.065 2.508 1.393-1.115 4.458-1.951 6.688-1.951 2.229 0 2.786 1.394 4.737 1.394s2.508-1.394 4.737-1.394c2.23 0 5.295.836 6.689 1.951.278.279-.836-2.229-3.065-2.508-2.229-.279-1.394-3.901-3.902-4.458 0 1.114.835.835 1.114 2.507 0 1.393-2.508 1.393-3.065 0 .557 2.229-1.114 2.229-2.507 2.229-1.394 0-3.066 0-2.508-2.229-.558 1.393-3.065 1.393-3.065 0 .279-1.672 1.114-1.393 1.114-2.507zM173.337 181.162c-2.229 1.672-2.786 2.508-3.065 4.459.669-1.17.997-1.651 1.504-2.339-.134-.057-.249-.11-.388-.169.162.019.307.044.464.066.336-.455.636-.849 1.485-2.017z"/><path fill="#7B3F00" fill-rule="nonzero" d="M171.852 183.179a2 2 0 01-.036.048c.348.081.718.119 1.106.12-.341-.06-.699-.116-1.07-.168z"/><path fill="#7B3F00" fill-rule="nonzero" d="M172.922 183.347c1.737.307 3.102.707 4.352 1.112 1.56-.116 3.712-.511 9.161-.511s7.601.395 9.161.511c1.25-.405 2.615-.805 4.352-1.112-3.071.011-7.163-2.185-9.054-2.185-2.23 0-2.787.557-4.459.557-1.672 0-2.23-.557-4.459-.557-1.892 0-5.984 2.196-9.055 2.185h.001zM199.949 183.347a4.931 4.931 0 001.105-.12l-.035-.048c-.372.052-.73.108-1.07.168z"/><path fill="#7B3F00" fill-rule="nonzero" d="M201.019 183.179c.156-.022.301-.046.463-.066-.138.058-.254.112-.388.169.507.688.835 1.169 1.504 2.338-.279-1.951-.836-2.787-3.065-4.459.849 1.168 1.149 1.562 1.486 2.018z"/><path fill="#7B3F00" fill-rule="nonzero" d="M201.094 183.282a.097.097 0 00-.015-.019c-2.908 1.121-3.932 1.311-5.483 1.196-2.642.855-4.82 1.719-9.161 1.719-4.34 0-6.518-.864-9.16-1.719-1.552.115-2.576-.075-5.484-1.196a.078.078 0 01-.014.019c8.754 3.769 7.797 5.125 14.658 5.125 6.862 0 5.905-1.356 14.659-5.125zM171.791 183.262a.758.758 0 01.025-.035c-.145-.033-.291-.064-.428-.114.159.062.254.092.403.149zM201.079 183.262c.149-.057.244-.087.403-.149-.137.049-.283.08-.428.114l.025.035zM163.863 157.475c1.951 2.23 3.065-1.672 10.032-1.672 6.967 0 8.082 4.18 9.196 3.344 1.114-.836-5.852-5.852-8.082-6.13-2.229-.279-8.638 1.95-11.146 4.458zm8.082 2.508c-1.951 1.672-.279 5.295 1.672 5.295 1.95 0 5.573-3.344 3.901-5.573l-5.573.278zm0 0z"/><path fill="#7B3F00" fill-rule="nonzero" d="M181.14 162.491c-.278-3.344-3.065-3.901-7.523-3.901-4.459 0-6.41 3.344-8.082 4.18 1.951 0 3.623-2.787 8.082-2.787 4.458 0 4.458 0 7.523 2.787v-.279zm-.836.836c-1.115-1.672-2.508 1.672-5.573 1.672-3.065 0-4.737-.836-6.688-2.229-1.95-1.394 2.787 3.344 5.852 3.344 3.066 0 7.245-1.672 6.409-2.787zm0 0zM186.435 190.915c-1.393 0-5.016.836 0 .836s1.393-.836 0-.836z"/></svg>