<?xml version="1.0" encoding="UTF-8"?>
<!-- Generated by Pixelmator Pro 3.1.1 -->
<svg width="1750" height="1750" viewBox="0 0 1750 1750" xmlns="http://www.w3.org/2000/svg" xmlns:xlink="http://www.w3.org/1999/xlink">
    <path id="Path" fill="#48c9b0" stroke="none" d="M 1652.795166 0 L 97.204811 0 C 43.519989 0 0 35.904053 0 80.19397 C 0 80.19397 0 80.19397 0 80.19397 L 0 437.5 L 901.515137 656.25 L 1750 437.5 L 1750 80.19397 C 1750 35.904053 1706.47998 0 1652.795166 0 L 1652.795166 0 Z"/>
    <path id="path1" fill="#1abc9c" stroke="none" d="M 1750 437.5 L 0 437.5 L 0 875 L 901.515137 1006.25 L 1750 875 L 1750 437.5 Z"/>
    <path id="path2" fill="#17a589" stroke="none" d="M 0 875 L 0 1312.5 L 848.484863 1400 L 1750 1312.5 L 1750 875 L 0 875 Z"/>
    <path id="path3" fill="#148f77" stroke="none" d="M 97.204742 1750 L 1652.795288 1750 C 1706.480103 1750 1750 1714.095947 1750 1669.80603 L 1750 1669.80603 L 1750 1312.5 L 0 1312.5 L 0 1669.80603 C 0 1714.095947 43.519962 1750 97.204742 1750 L 97.204742 1750 Z"/>
    <path id="Path-copy-copy" fill="#000000" stroke="none" opacity="0.2" d="M 1319.30603 371.75 L 874.5 371.75 L 874.5 1378 L 1319.30603 1378 C 1363.536011 1377.855957 1399.355957 1342.036011 1399.5 1297.80603 L 1399.5 451.94397 C 1399.355957 407.713989 1363.536011 371.894043 1319.30603 371.75 Z"/>
    <path id="Path-copy-2-copy" fill="#000000" stroke="none" opacity="0.2" d="M 429.69397 1378 L 874.5 1378 L 874.5 371.75 L 429.69397 371.75 C 385.463989 371.894043 349.643982 407.713989 349.5 451.94397 L 349.5 1297.80603 C 349.643982 1342.036011 385.463989 1377.855957 429.69397 1378 Z"/>
    <path id="path4-copy" fill="#0b5d4d" stroke="none" d="M 473.194 393.75 L 1275.30603 393.75 C 1319.595947 393.75 1355.5 429.654053 1355.5 473.94397 L 1355.5 1276.057007 C 1355.5 1320.347046 1319.595947 1356.250977 1275.30603 1356.250977 L 473.194 1356.250977 C 428.903992 1356.250977 393 1320.347046 393 1276.057007 L 393 473.94397 C 393 429.654053 428.903992 393.75 473.194 393.75 Z"/>
    <path id="Path-copy-2" fill="#0b594a" stroke="none" d="M 1256.302612 876.00116 C 1256.302612 1087.140381 1085.140503 1258.302612 874.001221 1258.302612 C 662.861938 1258.302612 491.699738 1087.140381 491.699738 876.00116 C 491.699738 664.861938 662.861938 493.699707 874.001221 493.699707 C 1085.140503 493.699707 1256.302612 664.861938 1256.302612 876.00116 Z"/>
    <path id="Path-copy" fill="#ffffff" stroke="none" d="M 874.001221 476 C 653.439758 476 474.00235 655.439697 474.00235 876.00116 C 474.00235 1096.560303 653.439758 1276 874.001221 1276 C 1094.562622 1276 1274 1096.562622 1274 876.00116 C 1274 655.439697 1094.562622 476 874.001221 476 Z M 812.296326 516.642578 C 779.827454 544.439331 748.743774 579.043579 723.771545 615.880127 C 712.525452 632.470825 702.414368 649.601929 693.435852 667.171875 L 575.299866 667.171875 C 630.053284 589.088623 714.597229 533.367798 812.296326 516.642578 Z M 553.352783 702.56665 L 677.142456 702.56665 C 656.486084 752.810791 644.796387 805.997375 642.705688 860.167908 L 509.762878 860.167908 C 512.202759 803.323853 527.698608 749.807007 553.352783 702.56665 Z M 509.92572 895.562683 L 642.691528 895.562683 C 644.727905 950.582703 656.302063 1003.283142 677.243958 1053.163818 L 555.43396 1053.163818 C 529.12146 1006.036865 512.950806 952.517639 509.92572 895.562683 Z M 577.945068 1088.556396 L 693.938477 1088.556396 C 702.78479 1105.425415 712.740173 1121.945313 723.837646 1138.080688 C 753.281372 1180.891846 784.929016 1212.735352 811.65918 1235.248779 C 715.791199 1218.662842 632.637085 1164.515869 577.945068 1088.556396 Z M 856.303772 1225.394897 C 816.770203 1196.444336 770.230774 1150.268311 734.574036 1088.556396 L 856.303772 1088.556396 L 856.303772 1225.394897 Z M 856.303772 1053.161499 L 716.206482 1053.161499 C 695.125366 1007.471558 680.566345 954.763977 678.121704 895.560303 L 856.301453 895.560303 L 856.303772 1053.161499 L 856.303772 1053.161499 Z M 856.303772 860.167908 L 678.121704 860.167908 C 680.325623 805.140808 692.843628 752.412048 715.484436 702.56665 L 856.303772 702.56665 L 856.303772 860.167908 L 856.303772 860.167908 Z M 856.303772 667.171875 L 733.540527 667.171875 C 739.571777 656.548706 746.070313 646.067139 753.069031 635.741333 C 789.506775 581.988525 829.448608 546.789551 856.303772 526.843384 L 856.303772 667.171875 L 856.303772 667.171875 Z M 1238.239502 860.167908 L 1105.294312 860.167908 C 1103.203735 805.997375 1091.513916 752.810791 1070.857544 702.56665 L 1194.647217 702.56665 C 1220.301392 749.807007 1235.799561 803.323853 1238.239502 860.167908 Z M 1172.702515 667.171875 L 1054.568848 667.171875 C 1045.590454 649.601929 1035.476929 632.470825 1024.233154 615.880127 C 999.260986 579.04126 968.167847 544.446411 935.696655 516.640259 C 1033.398071 533.365479 1117.944458 589.086304 1172.702515 667.171875 Z M 891.698608 526.841064 C 918.553772 546.787231 958.495605 581.986084 994.93335 635.739014 C 1001.932068 646.064819 1008.430542 656.546387 1014.461853 667.169556 L 891.698608 667.169556 L 891.698608 526.841064 Z M 891.698608 702.56665 L 1032.517944 702.56665 C 1055.158813 752.412048 1067.676758 805.140808 1069.880737 860.167908 L 891.698608 860.167908 L 891.698608 702.56665 L 891.698608 702.56665 Z M 891.698608 895.562683 L 1069.878296 895.562683 C 1067.436035 954.766357 1052.874634 1007.473877 1031.793579 1053.163818 L 891.696228 1053.163818 L 891.698608 895.562683 L 891.698608 895.562683 Z M 891.698608 1088.556396 L 1013.428284 1088.556396 C 977.771606 1150.265869 931.232178 1196.444336 891.698608 1225.394897 L 891.698608 1088.556396 Z M 936.3479 1235.248779 C 963.075745 1212.737671 994.721008 1180.887207 1024.162476 1138.083008 C 1035.259888 1121.947754 1045.21521 1105.427734 1054.061523 1088.558594 L 1170.054932 1088.558594 C 1115.365356 1164.51355 1032.213501 1218.6604 936.3479 1235.248779 Z M 1192.568481 1053.161499 L 1070.756104 1053.161499 C 1091.697998 1003.280823 1103.272095 950.582703 1105.308472 895.560303 L 1238.074341 895.560303 C 1235.049194 952.517639 1218.880981 1006.036865 1192.568481 1053.161499 Z"/>
    <path id="path4" fill="#ffffff" stroke="none" d="M 1176.847046 1099.450806 L 1176.847046 1094.053711 C 1176.847046 1061.891357 1150.680664 1035.727539 1118.520874 1035.727539 C 1111.257324 1035.727539 1104.30481 1037.072876 1097.883911 1039.509644 C 1092.427002 1012.972534 1068.884033 992.954956 1040.752686 992.954956 C 1033.113281 992.954956 1025.821167 994.445557 1019.130554 997.12854 C 1012.071777 972.636719 988.629822 954.070923 961.688354 954.070923 C 954.435181 954.070923 947.441223 955.473267 940.950195 958.000793 L 940.950195 887.967896 C 940.950195 855.805542 914.783752 829.641724 882.624023 829.641724 C 850.464233 829.641724 824.297852 855.805542 824.297852 887.967896 L 824.297852 1059.729492 C 814.089478 1046.692871 801.815063 1035.330933 787.567932 1029.474976 C 771.669495 1022.942444 754.938965 1023.722717 739.177917 1031.735352 C 710.191162 1046.475098 698.240723 1081.99707 712.537109 1110.924194 L 784.991211 1257.551025 C 787.039124 1261.574219 836.139343 1356.078125 925.033569 1356.078125 L 1028.724609 1356.078125 C 1110.484863 1356.078125 1177 1289.213013 1177 1207.006836 L 1176.919678 1099.450806 Z"/>
    <path id="path5" fill="#000000" stroke="none" d="M 1176.777344 1099.410767 L 1176.777344 1094.014404 C 1176.777344 1061.856934 1150.614746 1035.697021 1118.459717 1035.697021 C 1111.197266 1035.697021 1104.24585 1037.042114 1097.825806 1039.478516 C 1092.369751 1012.945374 1068.8302 992.930786 1040.703125 992.930786 C 1033.064819 992.930786 1025.773804 994.421082 1019.084167 997.10376 C 1012.026428 972.61554 988.588013 954.052429 961.650513 954.052429 C 954.398376 954.052429 947.405457 955.454651 940.915405 957.98175 L 940.915405 887.959229 C 940.915405 855.801697 914.752869 829.641785 882.5979 829.641785 C 850.442871 829.641785 824.280334 855.801697 824.280334 887.959229 L 824.280334 1059.695313 C 814.073486 1046.660645 801.800903 1035.300415 787.555908 1029.445313 C 771.659851 1022.913757 754.931763 1023.693909 739.173096 1031.705444 C 710.190613 1046.442871 698.242004 1081.959595 712.536255 1110.882446 L 784.979553 1257.487549 C 787.027161 1261.510132 836.120117 1356 925.00116 1356 L 1028.676758 1356 C 1110.424927 1356 1176.930176 1289.144775 1176.930176 1206.950806 L 1176.849854 1099.410767 L 1176.777344 1099.410767 Z M 1028.679321 1317.121704 L 925.003784 1317.121704 C 860.978943 1317.121704 821.092346 1242.635986 819.653809 1239.893799 L 747.391968 1093.659424 C 742.405151 1083.569092 746.536621 1071.579102 756.797913 1066.361572 C 762.45343 1063.484619 767.375427 1063.19165 772.758789 1065.397461 C 794.222229 1074.196777 815.291687 1116.602783 823.523499 1141.249023 L 829.769958 1160.063477 L 863.161316 1148.24707 L 863.161316 887.959229 C 863.161316 877.239197 871.880371 868.520142 882.600464 868.520142 C 893.320496 868.520142 902.039612 877.239197 902.039612 887.959229 L 902.039612 1112.157715 L 902.39209 1112.157715 L 940.917969 1112.157715 L 941.270447 1112.157715 L 941.270447 1013.665894 C 941.270447 1002.81366 950.984863 992.930786 961.653076 992.930786 C 972.699707 992.930786 982.388184 1002.01532 982.388184 1012.369934 L 982.388184 1051.248291 L 982.388184 1118.637451 L 1021.266479 1118.637451 L 1021.266479 1051.248291 C 1021.266479 1040.52832 1029.985596 1031.809082 1040.705688 1031.809082 C 1051.425659 1031.809082 1060.144897 1040.52832 1060.144897 1051.248291 L 1060.144897 1094.014404 L 1060.144897 1136.78064 L 1099.023193 1136.78064 L 1099.023193 1094.014404 C 1099.023193 1083.294434 1107.74231 1074.575195 1118.462402 1074.575195 C 1129.182373 1074.575195 1137.901489 1083.294434 1137.901489 1094.014404 L 1137.901489 1121.817627 L 1137.992188 1121.817627 L 1138.057007 1206.966309 C 1138.054443 1267.707275 1088.987427 1317.121704 1028.679321 1317.121704 Z"/>
</svg>
