<svg viewBox="0 0 512 512" xmlns="http://www.w3.org/2000/svg" fill-rule="evenodd" clip-rule="evenodd" stroke-linejoin="round" stroke-miterlimit="2"><path d="M256 0c70.68 0 134.69 28.66 181.01 74.99C483.34 121.31 512 185.32 512 256c0 70.68-28.66 134.69-74.99 181.01C390.69 483.34 326.68 512 256 512c-70.68 0-134.69-28.66-181.01-74.99C28.66 390.69 0 326.68 0 256c0-70.68 28.66-134.69 74.99-181.01C121.31 28.66 185.32 0 256 0z" fill="#999" fill-rule="nonzero"/><path d="M256 19.48c65.31 0 124.44 26.47 167.24 69.28 42.81 42.8 69.28 101.93 69.28 167.24s-26.47 124.44-69.28 167.24c-42.8 42.81-101.93 69.28-167.24 69.28s-124.44-26.47-167.24-69.28C45.95 380.44 19.48 321.31 19.48 256S45.95 131.56 88.76 88.76C131.56 45.95 190.69 19.48 256 19.48z" fill="#fff" fill-rule="nonzero"/><path d="M256 39.59c119.52 0 216.41 96.89 216.41 216.41S375.52 472.41 256 472.41 39.59 375.52 39.59 256 136.48 39.59 256 39.59z" fill="#ccc" fill-rule="nonzero"/><path d="M256 39.59c119.52 0 216.41 96.89 216.41 216.41S375.52 472.41 256 472.41 39.59 375.52 39.59 256 136.48 39.59 256 39.59z" fill="#046a38" fill-rule="nonzero"/><path d="M52.16 183.2h407.68c8.13 22.75 12.57 47.26 12.57 72.8H39.59c0-25.54 4.44-50.05 12.57-72.8zM256 472.41c-25.54 0-50.05-4.44-72.8-12.57V52.16c22.75-8.13 47.26-12.57 72.8-12.57v432.82z" fill="#ffcd00" fill-rule="nonzero"/><path d="M39.59 256h432.82c0 25.55-4.44 50.05-12.57 72.8H52.16c-8.13-22.75-12.57-47.25-12.57-72.8zM256 39.59c25.55 0 50.05 4.44 72.8 12.57v407.68c-22.75 8.13-47.26 12.57-72.8 12.57V39.59z" fill="#fff" fill-rule="nonzero"/><path d="M40.95 231.73h430.1c.89 7.97 1.36 16.07 1.36 24.27 0 8.21-.47 16.3-1.36 24.27H40.95c-.88-7.97-1.36-16.06-1.36-24.27 0-8.2.48-16.3 1.36-24.27zM256 39.59c8.21 0 16.3.48 24.27 1.36v430.1c-7.97.88-16.06 1.36-24.27 1.36-8.2 0-16.3-.47-24.27-1.36V40.95c7.97-.88 16.07-1.36 24.27-1.36z" fill-rule="nonzero"/><path d="M401.61 256c0-80.45-65.15-145.61-145.61-145.61-80.46 0-145.61 65.16-145.61 145.61 0 80.46 65.15 145.61 145.61 145.61 80.46 0 145.61-65.15 145.61-145.61z" fill="#d50032" fill-rule="nonzero"/><path d="M256.71 126.3l4.39 13.49h14.18c.41 0 .75.33.75.75 0 .26-.14.49-.35.63l-11.44 8.31 4.39 13.48c.12.4-.09.82-.48.95-.25.08-.51.02-.7-.13L256 155.46l-11.48 8.34a.742.742 0 01-1.04-.17.74.74 0 01-.11-.67l4.39-13.48-11.48-8.34a.75.75 0 01.44-1.35h14.18l4.39-13.49c.13-.4.55-.61.94-.49.24.08.41.27.48.49zm3.13 14.47L256 128.95l-3.83 11.78a.751.751 0 01-.72.56h-12.42l10.02 7.28c.28.18.41.53.3.85l-3.84 11.81 10.04-7.29c.26-.19.62-.2.89-.01l10.05 7.3-3.84-11.81c-.1-.3 0-.64.27-.83l10.05-7.3h-12.42c-.31 0-.61-.2-.71-.52z" fill-rule="nonzero"/><path d="M256 126.53l4.55 14.01h14.73l-11.92 8.65 4.55 14-11.91-8.65-11.91 8.65 4.55-14-11.92-8.65h14.73l4.55-14.01z" fill="#046a38" fill-rule="nonzero"/><path d="M332.81 151.49l-4.38 13.49 11.47 8.33c.34.25.41.71.17 1.05-.15.21-.39.31-.64.31h-14.15l-4.38 13.48a.743.743 0 01-.94.48.721.721 0 01-.48-.48l-4.39-13.48-14.18-.01c-.41 0-.75-.33-.75-.74 0-.25.12-.47.31-.61l11.48-8.33-4.39-13.49c-.13-.39.09-.82.48-.94a.73.73 0 01.69.12l11.45 8.32 11.48-8.34c.34-.24.81-.17 1.05.17.14.2.18.45.1.67zm-5.97 13.54l3.84-11.82-10.05 7.3a.752.752 0 01-.89.01l-10.04-7.3 3.84 11.81c.09.3-.01.65-.28.84l-10.05 7.3h12.38c.34-.02.65.19.76.52l3.84 11.81 3.83-11.81c.1-.3.38-.52.72-.52h12.42l-10.02-7.28a.741.741 0 01-.3-.86z" fill-rule="nonzero"/><path d="M332.1 151.25l-4.55 14.02 11.91 8.65h-14.72l-4.55 14-4.55-14h-14.73l11.92-8.65-4.56-14.01 11.91 8.65 11.92-8.66z" fill="#046a38" fill-rule="nonzero"/><path d="M379.58 216.6l-11.48 8.34 4.38 13.48c.13.4-.09.82-.48.95-.24.08-.5.02-.69-.13l-11.45-8.32-11.48 8.34a.742.742 0 01-1.04-.17.74.74 0 01-.11-.67l4.39-13.49-11.48-8.33a.756.756 0 01.47-1.36l14.15.01 4.38-13.49c.13-.4.55-.61.95-.48.23.07.41.26.48.48l4.38 13.48h14.19c.41 0 .75.34.75.75 0 .25-.13.47-.31.61zm-12.8 7.45l10.06-7.31h-12.39a.764.764 0 01-.76-.52l-3.83-11.81-3.84 11.82c-.1.3-.38.51-.71.51h-12.43l10.03 7.28c.27.18.4.53.3.86l-3.84 11.81 10.03-7.29c.26-.19.62-.21.9-.01l10.05 7.3-3.84-11.81c-.1-.3 0-.64.27-.83z" fill-rule="nonzero"/><path d="M379.14 215.99l-11.92 8.66 4.55 14-11.91-8.65-11.91 8.65 4.55-14-11.92-8.66h14.73l4.55-14 4.55 14h14.73z" fill="#046a38" fill-rule="nonzero"/><path d="M379.11 296.76h-14.16l-4.38 13.49c-.13.39-.55.6-.95.48a.787.787 0 01-.48-.48l-4.38-13.49h-14.18c-.41 0-.75-.34-.75-.75 0-.25.13-.47.31-.6l11.48-8.34-4.39-13.49c-.12-.39.09-.82.48-.94.25-.08.51-.03.7.12l11.45 8.32 11.47-8.34a.742.742 0 011.04.17c.15.2.18.45.11.67l-4.38 13.48 11.48 8.35c.33.24.41.71.16 1.04-.15.21-.39.32-.63.31zm-14.7-1.5h12.43l-10.03-7.29a.728.728 0 01-.3-.85l3.83-11.81-10.03 7.29c-.26.2-.62.21-.89.01l-10.05-7.3 3.84 11.81c.09.3-.01.65-.28.84l-10.05 7.3h12.38c.33-.02.65.19.76.52l3.84 11.81 3.83-11.81c.1-.3.38-.52.72-.52z" fill-rule="nonzero"/><path d="M379.14 296.01h-14.73l-4.55 14-4.55-14h-14.73l11.92-8.66-4.55-14 11.91 8.66 11.91-8.66-4.55 14 11.92 8.66z" fill="#046a38" fill-rule="nonzero"/><path d="M331.64 361.34l-11.46-8.33-11.47 8.34a.742.742 0 01-1.04-.17.74.74 0 01-.11-.67l4.39-13.49-11.48-8.33a.753.753 0 01-.17-1.04c.16-.21.4-.32.64-.31h14.15l4.39-13.49c.12-.4.55-.61.94-.48.24.07.41.26.48.48l4.38 13.49 14.18-.01a.753.753 0 01.44 1.36l-11.47 8.33 4.38 13.5a.743.743 0 01-.48.94.741.741 0 01-.69-.12zm-11.02-9.86l10.06 7.31-3.84-11.82c-.1-.3 0-.64.27-.84l10.05-7.3h-12.38a.756.756 0 01-.76-.51l-3.83-11.82-3.84 11.82c-.1.29-.38.51-.71.51h-12.43l10.03 7.28c.27.18.4.53.3.86l-3.84 11.81 10.03-7.29c.26-.19.62-.2.89-.01z" fill-rule="nonzero"/><path d="M332.1 360.75l-11.92-8.66-11.91 8.65 4.56-14-11.92-8.65 14.73-.01 4.55-14 4.55 14h14.72l-11.91 8.66 4.55 14.01z" fill="#046a38" fill-rule="nonzero"/><path d="M255.29 385.71l-4.39-13.5h-14.18c-.41 0-.75-.33-.75-.75 0-.26.14-.49.35-.63l11.44-8.31-4.39-13.48c-.12-.39.09-.82.48-.94.25-.08.51-.03.7.12l11.45 8.32 11.48-8.34a.742.742 0 011.04.17c.15.2.18.45.11.67l-4.39 13.48 11.48 8.34c.33.24.4.71.16 1.04a.712.712 0 01-.6.31H261.1l-4.39 13.5c-.13.39-.55.6-.94.48a.742.742 0 01-.48-.48zm-3.13-14.48l3.84 11.82 3.83-11.78a.751.751 0 01.72-.56h12.42l-10.02-7.28a.728.728 0 01-.3-.85l3.84-11.81-10.04 7.29a.752.752 0 01-.89.01l-10.05-7.3 3.84 11.81c.1.3 0 .64-.27.84l-10.05 7.29h12.42c.31.01.61.21.71.52z" fill-rule="nonzero"/><path d="M256 385.48l-4.55-14.02h-14.73l11.92-8.65-4.55-14 11.91 8.65 11.91-8.65-4.55 14 11.92 8.65h-14.73L256 385.48z" fill="#046a38" fill-rule="nonzero"/><path d="M179.19 360.52l4.38-13.5-11.47-8.33a.752.752 0 01-.17-1.05c.15-.21.39-.31.64-.3h14.15l4.38-13.49c.13-.39.55-.61.94-.48.24.07.41.26.48.48l4.39 13.49h14.18c.41 0 .75.33.75.75 0 .24-.12.47-.31.6l-11.48 8.33 4.39 13.49c.13.4-.09.82-.48.95-.25.08-.51.02-.69-.13l-11.45-8.32-11.48 8.34a.75.75 0 01-1.05-.16.736.736 0 01-.1-.67zm5.97-13.55l-3.84 11.82 10.05-7.3c.25-.19.61-.2.89-.01l10.04 7.3-3.84-11.81a.772.772 0 01.28-.84l10.05-7.3h-12.38a.746.746 0 01-.76-.51l-3.84-11.82-3.83 11.82c-.1.29-.38.51-.72.51h-12.42l10.02 7.28c.28.18.41.53.3.86z" fill-rule="nonzero"/><path d="M179.9 360.75l4.55-14.01-11.91-8.66h14.72l4.55-14 4.55 14 14.73.01-11.92 8.65 4.56 14-11.91-8.65-11.92 8.66z" fill="#046a38" fill-rule="nonzero"/><path d="M132.42 295.41l11.48-8.35-4.38-13.48c-.13-.39.09-.82.48-.94.24-.08.5-.03.69.12l11.45 8.32 11.48-8.34a.742.742 0 011.04.17c.15.2.18.45.11.67l-4.39 13.49 11.48 8.34c.33.24.41.71.16 1.04-.15.21-.39.32-.63.31h-14.15l-4.38 13.49c-.13.39-.55.6-.95.48a.764.764 0 01-.48-.48l-4.38-13.49h-14.19c-.41 0-.75-.34-.75-.75 0-.25.13-.47.31-.6zm12.8-7.45l-10.06 7.3h12.39c.33-.02.65.19.76.52l3.83 11.81 3.84-11.81c.1-.3.38-.52.71-.52h12.43l-10.03-7.28a.77.77 0 01-.3-.86l3.84-11.81-10.03 7.29a.753.753 0 01-.9.01l-10.05-7.3 3.84 11.81c.1.3 0 .64-.27.84z" fill-rule="nonzero"/><path d="M132.86 296.01l11.92-8.66-4.55-14 11.91 8.66 11.91-8.66-4.55 14 11.92 8.66h-14.73l-4.55 14-4.55-14h-14.73z" fill="#046a38" fill-rule="nonzero"/><path d="M132.89 215.24h14.16l4.38-13.48c.13-.4.55-.61.95-.48.23.07.4.26.48.48l4.38 13.49 14.18-.01c.41 0 .75.34.75.75 0 .25-.13.47-.31.6l-11.48 8.34 4.39 13.49c.12.4-.09.82-.48.95-.25.08-.51.02-.7-.13l-11.45-8.32-11.47 8.34a.742.742 0 01-1.04-.17.74.74 0 01-.11-.67l4.38-13.48-11.48-8.34a.751.751 0 01-.16-1.05c.15-.21.39-.31.63-.31zm14.7 1.5h-12.43l10.03 7.29c.28.18.41.53.3.85l-3.83 11.81 10.03-7.29a.752.752 0 01.89-.01l10.05 7.3-3.84-11.81a.772.772 0 01.28-.84l10.05-7.3h-12.38a.756.756 0 01-.76-.51l-3.84-11.82-3.83 11.81c-.1.3-.38.52-.72.52z" fill-rule="nonzero"/><path d="M132.86 215.99h14.73l4.55-14 4.55 14h14.73l-11.92 8.66 4.55 14-11.91-8.65-11.91 8.65 4.55-14-11.92-8.66z" fill="#046a38" fill-rule="nonzero"/><path d="M180.36 150.67l11.46 8.32 11.47-8.34a.742.742 0 011.04.17c.15.2.18.45.11.67l-4.39 13.49 11.48 8.33c.33.24.41.71.17 1.05-.16.21-.4.31-.64.3l-14.15.01-4.39 13.48a.754.754 0 01-.94.49.754.754 0 01-.48-.49l-4.38-13.48h-14.18c-.42 0-.75-.34-.75-.75 0-.25.12-.47.31-.6l11.47-8.34-4.38-13.49a.742.742 0 011.17-.82zm11.02 9.85l-10.06-7.31 3.84 11.82c.1.3 0 .65-.27.84l-10.05 7.3h12.38c.33-.02.65.19.76.52l3.83 11.81 3.84-11.81c.1-.3.38-.52.71-.52h12.43l-10.03-7.28a.77.77 0 01-.3-.86l3.84-11.81-10.03 7.29a.752.752 0 01-.89.01z" fill-rule="nonzero"/><path d="M179.9 151.25l11.92 8.66 11.91-8.65-4.56 14.01 11.92 8.65h-14.73l-4.55 14-4.55-14h-14.72l11.91-8.65-4.55-14.02z" fill="#046a38" fill-rule="nonzero"/><path d="M278.94 336.99c2.25-.16 4-5.01 5.02-12.71 1.03-7.83 1.26-18.57.44-30.37v-.01c-.83-11.8-2.55-22.39-4.66-30-2.08-7.49-4.49-12.04-6.75-11.89-2.25.16-4.01 5.01-5.02 12.72-1.04 7.82-1.26 18.57-.44 30.36v.02c.83 11.79 2.55 22.39 4.66 29.99 2.08 7.49 4.49 12.04 6.75 11.89zm5.58-12.64c-1.05 7.99-2.99 13.02-5.55 13.2-2.55.18-5.17-4.53-7.33-12.3-2.12-7.64-3.84-18.28-4.67-30.1v-.03c-.83-11.83-.6-22.6.44-30.47 1.05-7.99 2.99-13.02 5.54-13.2 2.56-.18 5.18 4.54 7.33 12.3 2.12 7.64 3.85 18.28 4.68 30.1v.03c.83 11.83.6 22.61-.44 30.47z" fill-rule="nonzero"/><path d="M278.95 337.27c4.82-.34 7.38-19.76 5.73-43.38-1.65-23.62-6.89-42.49-11.71-42.16-4.81.34-7.37 19.76-5.72 43.38 1.65 23.62 6.89 42.49 11.7 42.16z" fill="#046a38" fill-rule="nonzero"/><path d="M287.44 336.88c2.39-.17 4.27-5.03 5.37-12.74 1.12-7.84 1.4-18.58.58-30.37v-.02c-.83-11.79-2.6-22.38-4.8-29.98-2.16-7.48-4.7-12.03-7.09-11.86-2.39.16-4.26 5.02-5.37 12.74-1.12 7.83-1.4 18.58-.58 30.36l.01.02c.82 11.8 2.59 22.39 4.79 29.99 2.17 7.48 4.7 12.03 7.09 11.86zm5.93-12.66c-1.14 7.99-3.2 13.04-5.89 13.22-2.69.19-5.42-4.51-7.67-12.27-2.21-7.64-3.99-18.27-4.82-30.09v-.02c-.83-11.83-.54-22.62.58-30.49 1.14-8 3.2-13.04 5.89-13.23 2.69-.18 5.43 4.52 7.67 12.28 2.21 7.64 3.99 18.27 4.82 30.09v.04c.83 11.82.55 22.6-.58 30.47z" fill-rule="nonzero"/><path d="M287.46 337.16c5.08-.36 7.86-19.79 6.21-43.41-1.65-23.62-7.11-42.48-12.19-42.12-5.08.35-7.86 19.79-6.21 43.41 1.65 23.62 7.11 42.48 12.19 42.12z" fill="#046a38" fill-rule="nonzero"/><path d="M283.78 343.7c1.87-.13 3.25-5.45 3.96-13.95.73-8.64.73-20.5-.18-33.54v-.02c-.92-13.04-2.56-24.79-4.48-33.23-1.9-8.32-4-13.4-5.87-13.27-1.87.13-3.24 5.46-3.96 13.95-.73 8.64-.73 20.5.18 33.53l.01.03c.91 13.05 2.55 24.79 4.48 33.24 1.89 8.31 4 13.39 5.86 13.26zm4.53-13.9c-.74 8.79-2.3 14.31-4.49 14.47-2.18.15-4.49-5.1-6.45-13.71-1.93-8.48-3.58-20.25-4.5-33.32v-.02c-.91-13.07-.92-24.96-.19-33.62.75-8.8 2.3-14.32 4.49-14.47 2.19-.15 4.5 5.1 6.46 13.71 1.92 8.47 3.58 20.25 4.49 33.31v.03c.91 13.07.92 24.96.19 33.62z" fill-rule="nonzero"/><path d="M283.8 343.98c4.06-.28 5.87-21.68 4.04-47.8-1.83-26.11-6.6-47.05-10.65-46.77-4.06.28-5.86 21.69-4.04 47.8 1.83 26.12 6.6 47.06 10.65 46.77z" fill="#046a38" fill-rule="nonzero"/><path d="M291.54 326.5c-6.99.73-26.6 1.26-43.67 1.32-14.82.05-27.75-.27-28.92-1.14-.92-.67-2-2.13-3-3.71-1.71-2.74-3.19-5.95-3.19-6.22 0-.16.13-.28.29-.28 4.33-.2 4.87-1.65 5.45-3.21.41-1.11.84-2.27 2.42-3.15h.01c1.82-1.07 4.02-1.29 5.99-.95 2.21.39 4.16 1.48 5.05 2.91l.01.02c.75 1.24.9 2.44 1.01 3.4.13 1.03.22 1.75 1.09 1.79.4 0 2.06-.07 4.61-.17 11.44-.44 40.67-1.58 52.84-.72 1.28.09 2.41.7 3.22 1.6.83.92 1.33 2.16 1.33 3.45s-.49 2.49-1.31 3.41c-.81.9-1.95 1.52-3.23 1.65zm-43.67.75c17.05-.05 36.64-.58 43.61-1.32 1.14-.11 2.15-.66 2.87-1.46.72-.81 1.17-1.88 1.17-3.03s-.45-2.25-1.19-3.07c-.72-.8-1.71-1.34-2.83-1.42-12.15-.86-41.35.28-52.79.73-2.58.1-4.27.16-4.63.16-1.38-.05-1.49-.97-1.65-2.29-.11-.91-.25-2.04-.93-3.17l-.01-.01c-.8-1.29-2.61-2.29-4.66-2.65-1.86-.32-3.92-.12-5.62.88l-.02.01c-1.39.77-1.79 1.83-2.16 2.84-.63 1.7-1.22 3.29-5.61 3.56.33.83 1.59 3.38 3.01 5.66.96 1.53 1.99 2.93 2.85 3.56 1.07.78 13.87 1.07 28.59 1.02z" fill-rule="nonzero"/><path d="M291.51 326.21c-13.02 1.38-69.97 2.03-72.4.25-2.42-1.78-6.06-9.31-6.06-9.71 7.44-.32 4.2-4.29 8-6.39 3.73-2.18 9.06-.73 10.68 1.86 1.62 2.67.33 5.26 2.35 5.34 2.1 0 42.55-1.94 57.43-.89 2.43.16 4.29 2.35 4.29 4.77 0 2.43-1.86 4.53-4.29 4.77z" fill="#9c4a00" fill-rule="nonzero"/><path d="M253.28 322.19c-.03 2.57 2.04 3.45 4.04 4.3 2.14.91 4.2 1.79 4.29 4.4v.05c-.06 1.25-.79 2.03-1.91 2.38-.76.23-1.7.25-2.72.08-.99-.16-2.07-.51-3.15-1.02-3.68-1.73-7.4-5.39-7.49-10.28v-.05c.3-4.8 3.98-8.37 7.59-10.03 1.09-.5 2.18-.84 3.17-.98 1.03-.15 1.97-.09 2.72.19 1.07.4 1.75 1.22 1.79 2.51.09 2.43-1.9 3.25-4.05 4.14-2.01.83-4.2 1.74-4.28 4.31zm3.57 5.4c-2.36-1-4.8-2.05-4.76-5.41v-.03c.09-3.34 2.66-4.4 5.02-5.38 1.75-.72 3.37-1.39 3.31-2.99-.02-.73-.41-1.2-1.02-1.43-.55-.21-1.29-.24-2.13-.12-.88.12-1.86.42-2.84.87-3.27 1.51-6.62 4.72-6.89 9.01.09 4.35 3.46 7.62 6.8 9.19.97.46 1.95.77 2.83.92.85.14 1.6.13 2.18-.04.62-.2 1.03-.61 1.07-1.28-.08-1.82-1.8-2.55-3.57-3.31z" fill-rule="nonzero"/><path d="M252.68 322.17c-.08 5.66 8.17 4.04 8.33 8.74-.24 4.93-13.91.32-14.07-8.82.57-9.06 13.91-13.51 14.07-8.33.17 4.28-8.16 2.83-8.33 8.41z" fill="#ffcd00" fill-rule="nonzero"/><path d="M258.13 322.19c-.03 2.57 2.05 3.45 4.04 4.3 2.14.91 4.21 1.79 4.3 4.4v.05c-.06 1.25-.79 2.03-1.92 2.38-.75.23-1.7.25-2.72.08-.99-.16-2.07-.51-3.15-1.02-3.68-1.73-7.4-5.39-7.48-10.28v-.05c.3-4.8 3.98-8.37 7.59-10.03 1.08-.5 2.17-.84 3.17-.98 1.03-.15 1.97-.09 2.72.19 1.07.4 1.75 1.22 1.79 2.51.09 2.43-1.9 3.25-4.05 4.14-2.02.83-4.21 1.74-4.29 4.31zm3.57 5.4c-2.35-1-4.8-2.05-4.76-5.41v-.03c.1-3.34 2.66-4.4 5.02-5.38 1.75-.72 3.37-1.39 3.31-2.99-.02-.73-.41-1.2-1.01-1.43-.56-.21-1.3-.24-2.14-.12-.88.12-1.85.42-2.83.87-3.28 1.51-6.62 4.72-6.9 9.01.09 4.35 3.46 7.62 6.8 9.19.98.46 1.95.77 2.84.92.84.14 1.6.13 2.17-.04.62-.2 1.03-.61 1.07-1.28-.08-1.82-1.79-2.55-3.57-3.31z" fill-rule="nonzero"/><path d="M257.54 322.17c-.08 5.66 8.17 4.04 8.33 8.74-.24 4.93-13.92.32-14.08-8.82.57-9.06 13.92-13.51 14.08-8.33.16 4.28-8.17 2.83-8.33 8.41z" fill="#ffcd00" fill-rule="nonzero"/><path d="M263.39 322.19c-.03 2.57 2.04 3.45 4.04 4.3 2.14.91 4.2 1.79 4.29 4.4v.05c-.06 1.25-.78 2.03-1.91 2.38-.76.23-1.7.25-2.72.08-.99-.16-2.07-.51-3.15-1.02-3.68-1.73-7.4-5.39-7.49-10.28v-.05c.3-4.8 3.99-8.37 7.59-10.03 1.09-.5 2.18-.84 3.17-.98 1.03-.15 1.97-.09 2.72.19 1.07.4 1.75 1.22 1.79 2.51.1 2.43-1.9 3.25-4.04 4.14-2.02.83-4.21 1.74-4.29 4.31zm3.57 5.4c-2.36-1-4.8-2.05-4.76-5.41v-.03c.09-3.34 2.66-4.4 5.02-5.38 1.75-.72 3.37-1.39 3.31-2.99-.02-.73-.41-1.2-1.01-1.43-.56-.21-1.3-.24-2.14-.12-.88.12-1.85.42-2.84.87-3.27 1.51-6.62 4.72-6.89 9.01.09 4.35 3.46 7.62 6.8 9.19.98.46 1.95.77 2.84.92.84.14 1.59.13 2.17-.04.62-.2 1.03-.61 1.07-1.28-.08-1.82-1.8-2.55-3.57-3.31z" fill-rule="nonzero"/><path d="M262.79 322.17c-.08 5.66 8.17 4.04 8.34 8.74-.25 4.93-13.92.32-14.08-8.82.57-9.06 13.91-13.51 14.08-8.33.16 4.28-8.17 2.83-8.34 8.41z" fill="#ffcd00" fill-rule="nonzero"/><path d="M268.33 322.19c-.03 2.57 2.04 3.45 4.03 4.3 2.14.91 4.21 1.79 4.3 4.4v.05c-.06 1.25-.79 2.03-1.92 2.38-.75.23-1.69.25-2.72.08-.99-.16-2.07-.51-3.15-1.02-3.68-1.73-7.39-5.39-7.48-10.28v-.05c.3-4.8 3.98-8.37 7.59-10.03 1.09-.5 2.18-.84 3.17-.98 1.03-.15 1.97-.09 2.72.19 1.07.4 1.75 1.22 1.79 2.51.09 2.43-1.9 3.25-4.05 4.14-2.02.83-4.21 1.74-4.28 4.31zm3.56 5.4c-2.35-1-4.8-2.05-4.76-5.41v-.03c.1-3.34 2.66-4.4 5.03-5.38 1.74-.72 3.36-1.39 3.3-2.99-.02-.73-.4-1.2-1.01-1.43-.56-.21-1.3-.24-2.13-.12-.88.12-1.86.42-2.84.87-3.28 1.51-6.62 4.72-6.9 9.01.1 4.35 3.47 7.62 6.8 9.19.98.46 1.95.77 2.84.92.84.14 1.6.13 2.17-.04.62-.2 1.03-.61 1.07-1.28-.08-1.82-1.79-2.55-3.57-3.31z" fill-rule="nonzero"/><path d="M267.73 322.17c-.08 5.66 8.17 4.04 8.33 8.74-.24 4.93-13.91.32-14.07-8.82.56-9.06 13.91-13.51 14.07-8.33.16 4.28-8.17 2.83-8.33 8.41z" fill="#ffcd00" fill-rule="nonzero"/><path d="M265.27 312.42c.77-1.47 1.14-3.6 1.11-5.86-.02-2.28-.46-4.68-1.29-6.64-.49-1.16-1.06-2.03-1.66-2.59-.43-.39-.85-.62-1.25-.67-.38-.05-.76.06-1.11.32-.35.26-.68.68-.99 1.26-.77 1.47-1.14 3.6-1.11 5.86.02 2.28.46 4.68 1.29 6.64.49 1.16 1.06 2.03 1.66 2.59.42.39.85.62 1.25.67.38.05.76-.06 1.11-.32.35-.26.68-.68.99-1.26zm2.31-5.87c.03 2.44-.39 4.78-1.25 6.43-.39.73-.84 1.28-1.34 1.65-.61.46-1.28.64-1.96.56-.66-.09-1.32-.42-1.92-.99-.72-.66-1.39-1.67-1.95-3-.9-2.1-1.36-4.66-1.39-7.09-.03-2.44.39-4.78 1.25-6.43.39-.73.84-1.28 1.34-1.65.61-.46 1.28-.64 1.96-.56.66.09 1.31.42 1.92.99.72.66 1.39 1.67 1.95 3 .89 2.1 1.36 4.66 1.39 7.09z" fill-rule="nonzero"/><path d="M265.8 312.7c1.64-3.11 1.57-8.94-.16-13.01-1.72-4.07-4.45-4.84-6.09-1.73-1.64 3.12-1.57 8.94.16 13.01 1.72 4.07 4.45 4.84 6.09 1.73z" fill="#046a38" fill-rule="nonzero"/><path d="M258.12 311.91c.77-1.47 1.15-3.6 1.12-5.86-.03-2.28-.46-4.68-1.29-6.64-.49-1.16-1.07-2.03-1.67-2.59-.42-.39-.85-.62-1.25-.67-.37-.05-.75.06-1.1.32-.35.26-.69.68-.99 1.26-.78 1.47-1.14 3.6-1.12 5.86.03 2.28.46 4.68 1.29 6.64.49 1.16 1.07 2.03 1.67 2.59.42.39.85.62 1.25.67.37.05.75-.06 1.1-.32.35-.26.69-.68.99-1.26zm2.32-5.87c.02 2.44-.39 4.78-1.26 6.43-.38.73-.84 1.28-1.33 1.65-.61.46-1.28.64-1.97.56-.66-.09-1.31-.42-1.92-.99-.71-.66-1.39-1.67-1.95-3-.89-2.1-1.36-4.66-1.38-7.09-.03-2.44.38-4.78 1.25-6.43.39-.73.84-1.28 1.33-1.65.62-.46 1.29-.64 1.97-.56.66.09 1.31.42 1.92.99.71.66 1.39 1.67 1.95 3 .89 2.1 1.36 4.66 1.39 7.09z" fill-rule="nonzero"/><path d="M258.65 312.19c1.64-3.11 1.57-8.94-.15-13.01-1.73-4.07-4.45-4.84-6.09-1.73-1.64 3.12-1.57 8.94.15 13.01 1.73 4.07 4.45 4.84 6.09 1.73z" fill="#046a38" fill-rule="nonzero"/><path d="M253 302.66c.78-1.46 1.15-3.6 1.12-5.86-.03-2.28-.46-4.67-1.29-6.64-.49-1.16-1.07-2.03-1.67-2.58-.42-.4-.85-.63-1.25-.68-.37-.05-.75.06-1.1.32-.35.27-.69.68-.99 1.26-.78 1.47-1.14 3.6-1.12 5.86.03 2.28.46 4.68 1.29 6.64.5 1.16 1.07 2.03 1.67 2.59.42.39.85.62 1.25.67.38.05.75-.05 1.1-.32.35-.26.69-.68.99-1.26zm2.32-5.87c.02 2.45-.39 4.79-1.26 6.43-.38.73-.84 1.29-1.33 1.66-.61.45-1.28.64-1.97.55-.65-.08-1.31-.42-1.92-.98-.71-.67-1.39-1.68-1.95-3.01-.89-2.1-1.36-4.66-1.38-7.08-.03-2.45.38-4.79 1.25-6.44.39-.73.84-1.28 1.33-1.65.62-.46 1.29-.64 1.97-.55.66.08 1.31.41 1.92.98.71.66 1.39 1.67 1.95 3 .89 2.11 1.36 4.66 1.39 7.09z" fill-rule="nonzero"/><path d="M253.53 302.94c1.64-3.11 1.57-8.94-.15-13.01-1.73-4.07-4.45-4.84-6.09-1.73-1.64 3.12-1.57 8.94.15 13.01 1.73 4.07 4.45 4.85 6.09 1.73z" fill="#046a38" fill-rule="nonzero"/><path d="M259.62 304.4c.9-.96 1.49-2.88 1.7-5.19.22-2.35.05-5.1-.56-7.67-.63-2.63-1.59-4.56-2.62-5.52l-.02-.02c-.27-.25-.55-.43-.82-.53a1.331 1.331 0 00-.76-.05c-.3.07-.59.25-.87.55-.9.97-1.49 2.88-1.71 5.19-.21 2.35-.04 5.1.57 7.68.63 2.62 1.59 4.55 2.61 5.51.29.27.57.45.85.55.26.1.51.12.76.06.29-.07.58-.25.87-.56zm2.49-5.11c-.23 2.47-.89 4.56-1.91 5.66-.4.42-.82.68-1.27.78-.4.09-.81.06-1.21-.08-.38-.14-.76-.38-1.12-.72-1.13-1.06-2.18-3.13-2.84-5.91-.63-2.66-.81-5.5-.58-7.93.23-2.48.88-4.56 1.91-5.66.4-.42.82-.68 1.26-.79.4-.09.81-.06 1.21.09.38.13.75.37 1.1.69l.02.02c1.14 1.06 2.18 3.13 2.85 5.91.63 2.66.81 5.5.58 7.94z" fill-rule="nonzero"/><path d="M259.91 304.67c1.93-2.06 2.48-7.99 1.23-13.23-1.25-5.23-3.83-7.81-5.76-5.74-1.93 2.07-2.48 7.99-1.23 13.23s3.82 7.81 5.76 5.74z" fill="#046a38" fill-rule="nonzero"/><path d="M257.22 295.22c.81-1.12 1.3-3.02 1.43-5.2.13-2.26-.12-4.8-.8-7.06-.46-1.55-1.06-2.76-1.7-3.57-.41-.51-.82-.85-1.22-.99-.33-.12-.66-.1-.97.07-.23.12-.47.34-.7.65-.83 1.11-1.33 3.03-1.46 5.24-.14 2.26.12 4.79.79 7.06.47 1.55 1.06 2.75 1.7 3.56.41.51.83.85 1.23 1 .33.12.66.1.96-.07.24-.13.48-.35.71-.66l.03-.03zm2.85-5.12c-.15 2.44-.73 4.62-1.71 5.96l-.03.04c-.35.48-.75.83-1.16 1.06-.69.38-1.42.42-2.13.16-.65-.24-1.29-.73-1.86-1.45-.76-.95-1.44-2.32-1.95-4.05-.73-2.42-1-5.13-.85-7.54.14-2.48.74-4.68 1.74-6.01.35-.48.74-.83 1.16-1.05.68-.38 1.41-.43 2.13-.16.65.23 1.28.73 1.86 1.45.75.94 1.43 2.31 1.95 4.04.72 2.42.99 5.13.85 7.55z" fill-rule="nonzero"/><path d="M257.76 295.68c1.83-2.45 2.18-8.24.78-12.93-1.4-4.69-4.02-6.5-5.85-4.06-1.83 2.45-2.18 8.24-.78 12.93 1.4 4.69 4.02 6.51 5.85 4.06z" fill="#046a38" fill-rule="nonzero"/><path d="M250.81 292.42c.83-1.11 1.33-3.03 1.46-5.24.13-2.26-.12-4.79-.79-7.06-.47-1.55-1.06-2.75-1.71-3.56-.4-.51-.82-.85-1.22-1-.33-.12-.66-.1-.97.07-.23.13-.47.35-.7.66-.83 1.11-1.33 3.03-1.46 5.24-.13 2.26.12 4.79.8 7.06.46 1.54 1.05 2.75 1.7 3.56.41.51.82.85 1.22.99.33.12.66.1.97-.07.23-.12.47-.34.7-.65zm2.88-5.15c-.15 2.47-.74 4.67-1.74 6-.35.48-.74.83-1.16 1.05-.68.38-1.41.43-2.13.16-.65-.23-1.28-.73-1.86-1.45-.75-.94-1.43-2.31-1.95-4.04-.72-2.42-.99-5.13-.85-7.55.15-2.47.74-4.67 1.74-6 .35-.48.75-.83 1.16-1.06.69-.38 1.41-.42 2.13-.16.65.24 1.28.73 1.86 1.45.76.95 1.44 2.32 1.95 4.05.73 2.42 1 5.13.85 7.55z" fill-rule="nonzero"/><path d="M251.38 292.85c1.83-2.45 2.18-8.24.78-12.93-1.4-4.69-4.02-6.51-5.85-4.06s-2.18 8.24-.78 12.93c1.4 4.69 4.02 6.51 5.85 4.06z" fill="#046a38" fill-rule="nonzero"/><path d="M241.91 205.48c-1.57 1.49-13.75 14.04-12.25 45.07 1.7 32.06 28.91 47.69 31.02 48.86h3.94v-93.93h-22.71zm-13.44 45.13c-1.59-32.73 11.96-45.41 12.78-46.14.11-.12.26-.19.43-.19h23.54c.33 0 .6.27.6.6v95.13c0 .33-.27.6-.6.6h-4.69a.705.705 0 01-.28-.08c-.09-.04-29.99-15.93-31.78-49.92z" fill-rule="nonzero"/><path d="M241.68 204.88s-14.23 12.29-12.62 45.7c1.78 33.65 31.47 49.43 31.47 49.43h4.69v-95.13h-23.54z" fill="#9063cd" fill-rule="nonzero"/><path d="M276.29 311.7c.81-2.02 1.23-4.44 1.23-6.73 0-2.28-.4-4.41-1.19-5.85-.31-.55-.64-.96-.99-1.21-.38-.27-.77-.37-1.17-.3h-.02c-.41.07-.85.32-1.28.73-.62.6-1.2 1.52-1.7 2.75-.82 2.02-1.23 4.45-1.23 6.74 0 2.27.39 4.4 1.19 5.84.3.55.64.96.99 1.21.37.27.77.37 1.16.31l.02-.01c.42-.07.86-.32 1.29-.73.61-.59 1.2-1.52 1.7-2.75zm2.23-6.73c0 2.41-.43 4.98-1.3 7.11-.54 1.36-1.21 2.4-1.93 3.09-.58.56-1.2.91-1.83 1.01h-.02c-.66.11-1.31-.05-1.91-.48-.47-.34-.91-.86-1.29-1.54-.87-1.59-1.31-3.9-1.31-6.33 0-2.42.44-4.99 1.3-7.12.55-1.36 1.22-2.4 1.93-3.09.58-.56 1.21-.9 1.83-1.01h.02c.66-.11 1.32.05 1.91.48.48.34.92.86 1.29 1.54.88 1.6 1.32 3.9 1.31 6.34z" fill-rule="nonzero"/><path d="M276.76 311.89c1.68-4.15 1.68-9.98.01-13.01-1.67-3.04-4.39-2.13-6.07 2.02-1.68 4.15-1.69 9.98-.02 13.01 1.68 3.04 4.39 2.13 6.08-2.02z" fill="#046a38" fill-rule="nonzero"/><path d="M269.41 309.91c.81-2.01 1.21-4.43 1.21-6.71.01-2.28-.39-4.41-1.18-5.85-.31-.55-.65-.96-1-1.21-.37-.26-.77-.37-1.16-.3-.43.06-.87.31-1.3.73-.62.6-1.21 1.52-1.7 2.75-.82 2.02-1.23 4.45-1.23 6.74 0 2.27.39 4.4 1.19 5.84.3.56.64.96.99 1.21.37.27.77.37 1.17.31.42-.07.86-.32 1.3-.74.61-.6 1.2-1.52 1.7-2.75l.01-.02zm2.22-6.71c0 2.4-.43 4.96-1.29 7.08l-.01.03c-.54 1.36-1.21 2.4-1.92 3.09-.6.57-1.23.92-1.86 1.01-.66.11-1.31-.05-1.91-.48-.47-.34-.91-.86-1.29-1.54-.88-1.59-1.31-3.9-1.31-6.33 0-2.42.44-4.99 1.3-7.12.55-1.36 1.22-2.4 1.93-3.09.59-.57 1.22-.91 1.85-1.01.67-.1 1.31.06 1.91.48.48.35.91.86 1.29 1.55.88 1.59 1.32 3.89 1.31 6.33z" fill-rule="nonzero"/><path d="M269.87 310.12c1.67-4.15 1.68-9.97.01-13.01-1.67-3.04-4.39-2.13-6.07 2.02-1.68 4.15-1.69 9.98-.02 13.01 1.68 3.04 4.39 2.13 6.08-2.02z" fill="#046a38" fill-rule="nonzero"/><path d="M265.96 300.06c.82-2.01 1.23-4.44 1.23-6.73.01-2.27-.39-4.41-1.18-5.85-.31-.55-.65-.96-1-1.21-.37-.27-.77-.37-1.16-.3h-.02c-.42.07-.85.32-1.29.74-.61.59-1.2 1.51-1.69 2.74-.82 2.02-1.23 4.45-1.23 6.74 0 2.27.39 4.4 1.19 5.84.3.56.64.96.99 1.21.37.27.77.37 1.16.31l.02-.01c.42-.07.86-.31 1.29-.73.61-.59 1.2-1.52 1.69-2.75zm2.24-6.73c0 2.41-.43 4.98-1.3 7.11-.55 1.36-1.21 2.4-1.93 3.09-.58.56-1.2.91-1.83 1.01h-.02c-.66.11-1.31-.05-1.91-.48-.47-.34-.91-.86-1.29-1.54-.88-1.59-1.31-3.9-1.31-6.33 0-2.42.44-4.99 1.3-7.12.55-1.36 1.22-2.4 1.92-3.08.59-.57 1.22-.91 1.84-1.02h.02c.66-.1 1.31.05 1.91.49.47.34.91.85 1.29 1.54.88 1.59 1.32 3.89 1.31 6.33z" fill-rule="nonzero"/><path d="M266.43 300.25c1.68-4.15 1.69-9.98.02-13.01-1.67-3.04-4.39-2.13-6.07 2.02-1.68 4.15-1.69 9.98-.02 13.01 1.68 3.04 4.39 2.13 6.07-2.02z" fill="#046a38" fill-rule="nonzero"/><path d="M274.01 298.93c.56-2.65.67-5.43.38-7.79-.28-2.32-.93-4.21-1.89-5.12-.29-.28-.59-.44-.88-.5-.3-.06-.6-.02-.91.11h-.01c-.32.14-.64.38-.95.71-1.02 1.08-1.95 3.11-2.52 5.8-.56 2.65-.66 5.43-.38 7.79.29 2.32.94 4.21 1.9 5.12.29.27.58.44.88.5.29.06.6.02.9-.11.32-.14.65-.38.96-.71 1.03-1.08 1.95-3.11 2.52-5.8zm.89-7.85c.29 2.4.19 5.25-.39 7.95-.58 2.79-1.56 4.91-2.64 6.05-.37.39-.75.67-1.13.83-.4.17-.81.22-1.22.14-.39-.08-.77-.29-1.12-.63-1.05-.99-1.76-3-2.06-5.44-.29-2.4-.18-5.24.39-7.95.59-2.78 1.56-4.9 2.65-6.05.36-.37.74-.65 1.12-.82l.01-.01c.4-.17.81-.22 1.22-.13.38.08.76.29 1.12.63 1.05.99 1.76 3 2.05 5.43z" fill-rule="nonzero"/><path d="M274.26 298.98c1.13-5.36.42-11.24-1.59-13.15-2.01-1.9-4.56.9-5.69 6.26-1.13 5.35-.42 11.24 1.59 13.15 2.01 1.9 4.56-.9 5.69-6.26z" fill="#046a38" fill-rule="nonzero"/><path d="M283.45 301.54c.64-2.37.85-4.96.67-7.25-.18-2.25-.74-4.18-1.63-5.26-.33-.41-.68-.65-1.03-.75-.25-.06-.5-.06-.76.01-.26.08-.54.23-.81.46-.97.79-1.87 2.42-2.5 4.71-.64 2.36-.84 4.96-.66 7.24.18 2.25.74 4.19 1.62 5.27.34.4.69.65 1.04.74l.02.01c.24.06.49.05.73-.02.27-.07.55-.23.82-.45.96-.79 1.87-2.42 2.49-4.71zm1.43-7.3c.19 2.36-.03 5.05-.69 7.5-.66 2.44-1.66 4.21-2.75 5.1-.35.29-.72.49-1.09.6-.38.1-.76.11-1.14.02l-.02-.01c-.5-.13-.99-.47-1.43-1-.98-1.21-1.6-3.29-1.79-5.69-.19-2.36.02-5.05.69-7.5.66-2.44 1.66-4.21 2.74-5.1.36-.29.73-.49 1.1-.6.39-.11.77-.12 1.15-.01.51.14.99.47 1.43 1 .99 1.2 1.61 3.29 1.8 5.69z" fill-rule="nonzero"/><path d="M283.82 301.64c1.31-4.81.84-10.57-1.03-12.85-1.88-2.29-4.46-.24-5.76 4.57-1.31 4.81-.85 10.56 1.03 12.85 1.88 2.28 4.45.24 5.76-4.57z" fill="#046a38" fill-rule="nonzero"/><path d="M278.67 297.23c.64-2.36.85-4.96.67-7.24-.18-2.25-.74-4.19-1.63-5.27-.33-.4-.68-.65-1.03-.75-.25-.06-.5-.06-.75.02-.27.07-.55.23-.82.45-.97.79-1.87 2.42-2.49 4.71-.65 2.37-.85 4.96-.67 7.24.18 2.26.74 4.19 1.62 5.27.34.4.69.65 1.04.75.25.06.5.06.75-.01.27-.08.55-.24.82-.46l.02-.01c.96-.8 1.85-2.43 2.47-4.7zm1.43-7.3c.19 2.36-.03 5.05-.69 7.5-.66 2.42-1.65 4.18-2.72 5.08l-.03.02c-.35.29-.72.49-1.09.6-.39.11-.78.12-1.16.01-.5-.13-.99-.46-1.42-1-.99-1.2-1.61-3.29-1.8-5.69-.19-2.36.03-5.05.69-7.5.66-2.44 1.66-4.21 2.75-5.1.35-.29.72-.49 1.09-.6.39-.11.78-.11 1.15-.01.51.14 1 .47 1.43 1 .99 1.2 1.61 3.29 1.8 5.69z" fill-rule="nonzero"/><path d="M279.04 297.33c1.31-4.81.85-10.56-1.03-12.85-1.88-2.28-4.46-.24-5.76 4.57-1.31 4.81-.85 10.56 1.03 12.85 1.88 2.28 4.46.24 5.76-4.57z" fill="#046a38" fill-rule="nonzero"/><path d="M272.68 291.27c.64-2.36.85-4.96.66-7.24-.18-2.25-.73-4.19-1.62-5.27-.33-.4-.69-.65-1.04-.74l-.02-.01c-.24-.06-.49-.05-.73.02-.27.07-.55.23-.82.45-.96.79-1.87 2.43-2.49 4.72-.64 2.36-.85 4.95-.67 7.24.19 2.25.74 4.18 1.63 5.26.33.41.68.65 1.03.75.25.06.51.06.76-.01.27-.08.54-.23.82-.46.96-.79 1.87-2.42 2.49-4.71zm1.42-7.3c.19 2.37-.02 5.05-.69 7.5-.66 2.44-1.66 4.21-2.74 5.1-.35.29-.72.49-1.09.6-.39.11-.78.12-1.16.02-.51-.14-.99-.47-1.43-1.01-.99-1.2-1.6-3.29-1.8-5.69-.19-2.36.03-5.05.69-7.49.66-2.45 1.67-4.22 2.75-5.11.35-.29.72-.49 1.09-.6.38-.1.77-.11 1.14-.01h.02c.5.14.99.47 1.43 1 .99 1.21 1.6 3.29 1.79 5.69z" fill-rule="nonzero"/><path d="M273.05 291.37c1.3-4.81.84-10.56-1.04-12.85-1.87-2.28-4.45-.23-5.76 4.58-1.31 4.81-.84 10.56 1.03 12.84 1.88 2.29 4.46.24 5.77-4.57z" fill="#046a38" fill-rule="nonzero"/><path d="M266.84 287.35c.64-2.36.85-4.95.67-7.24-.19-2.25-.74-4.18-1.63-5.26-.33-.41-.68-.65-1.04-.75h-.01a1.429 1.429 0 00-.74.01c-.27.08-.54.23-.82.46l-.01.01c-.96.8-1.86 2.42-2.48 4.7-.64 2.36-.85 4.96-.66 7.24.18 2.25.73 4.19 1.62 5.27.33.4.69.65 1.04.74l.02.01c.24.06.49.05.73-.02.27-.07.55-.23.82-.45l.02-.02c.95-.79 1.85-2.42 2.47-4.7zm1.43-7.29c.18 2.36-.03 5.05-.69 7.49-.66 2.43-1.65 4.19-2.73 5.09l-.02.02c-.35.28-.72.49-1.09.59-.38.11-.77.12-1.14.02h-.02c-.5-.14-.99-.47-1.43-1-.99-1.21-1.6-3.29-1.79-5.69-.19-2.37.02-5.05.69-7.5.65-2.43 1.64-4.19 2.72-5.08l.02-.02c.35-.29.72-.49 1.09-.6.39-.11.77-.12 1.14-.02h.02c.51.14.99.47 1.43 1.01.99 1.2 1.6 3.29 1.8 5.69z" fill-rule="nonzero"/><path d="M267.21 287.45c1.3-4.81.84-10.56-1.03-12.84-1.88-2.29-4.46-.24-5.77 4.57-1.3 4.81-.84 10.56 1.04 12.85 1.87 2.28 4.45.23 5.76-4.58z" fill="#046a38" fill-rule="nonzero"/><path d="M286.5 295.93c2.96-1.29 4.03-6.21 3.36-13.12-.67-6.97-3.11-15.94-7.17-25.27l-.01-.01c-4.05-9.32-8.94-17.23-13.58-22.47-4.6-5.2-8.93-7.78-11.88-6.49-2.96 1.29-4.03 6.21-3.36 13.12.67 6.97 3.11 15.94 7.17 25.27 4.05 9.32 8.95 17.23 13.59 22.48 4.6 5.2 8.92 7.77 11.88 6.49zm3.68-13.15c.68 7.05-.45 12.09-3.55 13.44-3.1 1.35-7.56-1.26-12.25-6.57-4.66-5.27-9.58-13.21-13.65-22.56-4.07-9.36-6.52-18.37-7.2-25.37-.68-7.06.45-12.1 3.56-13.45 3.1-1.35 7.56 1.27 12.25 6.58 4.66 5.26 9.58 13.2 13.64 22.55l.01.01c4.07 9.37 6.52 18.37 7.19 25.37z" fill-rule="nonzero"/><path d="M286.57 296.07c6.06-2.63 4.39-19.91-3.73-38.6-8.13-18.68-19.63-31.69-25.69-29.05-6.06 2.64-4.39 19.92 3.73 38.6s19.62 31.69 25.69 29.05z" fill="#d50032" fill-rule="nonzero"/><path d="M266.17 216.19c0-1.06-.49-2.03-1.3-2.73-.81-.71-1.95-1.16-3.21-1.16s-2.39.45-3.21 1.16c-.8.7-1.3 1.67-1.3 2.73s.5 2.03 1.3 2.73c.82.72 1.95 1.16 3.21 1.16s2.4-.44 3.21-1.16c.81-.7 1.3-1.67 1.3-2.73zm-.71-3.39c.99.86 1.6 2.06 1.6 3.39s-.61 2.53-1.6 3.4c-.98.85-2.32 1.38-3.8 1.38s-2.82-.53-3.79-1.38c-.99-.87-1.61-2.07-1.61-3.4s.62-2.53 1.61-3.39c.97-.86 2.32-1.38 3.79-1.38 1.48 0 2.82.52 3.8 1.38z" fill-rule="nonzero"/><path d="M266.62 216.19c0-2.39-2.22-4.33-4.96-4.33-2.73 0-4.95 1.94-4.95 4.33s2.22 4.33 4.95 4.33c2.74 0 4.96-1.94 4.96-4.33z" fill="#046a38" fill-rule="nonzero"/><path d="M265.57 210.76c0-1.06-.5-2.03-1.3-2.73-.82-.72-1.96-1.16-3.21-1.16-1.26 0-2.4.44-3.22 1.16-.8.7-1.3 1.67-1.3 2.73s.5 2.03 1.3 2.73c.82.71 1.96 1.16 3.22 1.16 1.25 0 2.39-.45 3.21-1.16.8-.7 1.3-1.67 1.3-2.73zm-.72-3.4c.99.87 1.6 2.07 1.6 3.4s-.61 2.53-1.6 3.39c-.97.85-2.32 1.38-3.79 1.38-1.48 0-2.83-.53-3.8-1.38-.99-.86-1.6-2.06-1.6-3.39s.61-2.53 1.6-3.4c.98-.85 2.32-1.38 3.8-1.38 1.47 0 2.81.53 3.79 1.38z" fill-rule="nonzero"/><path d="M266.01 210.76c0-2.39-2.22-4.33-4.95-4.33-2.74 0-4.96 1.94-4.96 4.33s2.22 4.33 4.96 4.33c2.73 0 4.95-1.94 4.95-4.33z" fill="#046a38" fill-rule="nonzero"/><path d="M258.39 217.29c0-1.15-.47-2.19-1.23-2.94a4.205 4.205 0 00-2.98-1.22c-1.16 0-2.22.46-2.98 1.22-.76.75-1.23 1.79-1.23 2.94s.47 2.19 1.23 2.94c.76.76 1.82 1.22 2.98 1.22s2.22-.46 2.98-1.22c.76-.75 1.23-1.79 1.23-2.94zm-.61-3.57c.92.91 1.49 2.18 1.49 3.57 0 1.39-.57 2.66-1.49 3.57-1.982 1.959-5.218 1.959-7.2 0a5.015 5.015 0 01-1.49-3.57c0-1.39.57-2.66 1.49-3.57 1.982-1.959 5.218-1.959 7.2 0z" fill-rule="nonzero"/><path d="M258.83 217.29c0-2.54-2.08-4.61-4.65-4.61-2.57 0-4.65 2.07-4.65 4.61 0 2.54 2.08 4.61 4.65 4.61 2.57 0 4.65-2.07 4.65-4.61z" fill="#046a38" fill-rule="nonzero"/><path d="M259.8 211.38c0-1.13-.47-2.16-1.22-2.89a4.243 4.243 0 00-2.99-1.21c-1.16 0-2.22.46-2.98 1.21a4.033 4.033 0 000 5.78c.76.74 1.82 1.2 2.98 1.2 1.17 0 2.23-.46 2.99-1.2a4.051 4.051 0 001.22-2.89zm-.61-3.53c.92.9 1.5 2.15 1.5 3.53 0 1.37-.58 2.62-1.5 3.52a5.133 5.133 0 01-3.6 1.46c-1.4 0-2.67-.56-3.59-1.46-.92-.9-1.5-2.15-1.5-3.52 0-1.38.58-2.63 1.5-3.53.92-.9 2.19-1.45 3.59-1.45 1.41 0 2.68.55 3.6 1.45z" fill-rule="nonzero"/><path d="M260.25 211.38c0-2.51-2.09-4.54-4.66-4.54-2.56 0-4.65 2.03-4.65 4.54 0 2.5 2.09 4.54 4.65 4.54 2.57 0 4.66-2.04 4.66-4.54z" fill="#046a38" fill-rule="nonzero"/><path d="M252.73 211.51c0-1.13-.54-2.17-1.39-2.92-.87-.76-2.09-1.24-3.43-1.24-1.34 0-2.55.48-3.43 1.24-.85.75-1.38 1.79-1.38 2.92 0 1.14.53 2.18 1.38 2.93.88.76 2.09 1.24 3.43 1.24 1.34 0 2.56-.48 3.43-1.24.85-.75 1.39-1.79 1.39-2.93zm-.81-3.58c1.04.91 1.69 2.18 1.69 3.58 0 1.41-.65 2.68-1.69 3.59-1.03.91-2.45 1.46-4.01 1.46-1.56 0-2.98-.56-4.01-1.46-1.04-.91-1.69-2.18-1.69-3.59 0-1.4.65-2.67 1.69-3.58 1.03-.9 2.45-1.46 4.01-1.46 1.56 0 2.98.55 4.01 1.46z" fill-rule="nonzero"/><path d="M253.17 211.51c0-2.54-2.36-4.6-5.26-4.6s-5.26 2.06-5.26 4.6c0 2.55 2.36 4.61 5.26 4.61s5.26-2.06 5.26-4.61z" fill="#046a38" fill-rule="nonzero"/><path d="M262.03 203.88c0-1.06-.5-2.03-1.3-2.73-.82-.71-1.95-1.16-3.21-1.16s-2.4.45-3.22 1.16c-.8.7-1.3 1.67-1.3 2.73 0 1.07.5 2.03 1.3 2.73.82.72 1.96 1.16 3.22 1.16 1.25 0 2.39-.44 3.21-1.16.8-.7 1.3-1.66 1.3-2.73zm-.72-3.39c.99.86 1.6 2.07 1.6 3.39 0 1.33-.61 2.53-1.6 3.4-.97.85-2.32 1.38-3.79 1.38-1.48 0-2.82-.53-3.8-1.38-.99-.87-1.6-2.07-1.6-3.4 0-1.32.61-2.53 1.6-3.39.98-.85 2.32-1.38 3.8-1.38 1.47 0 2.82.53 3.79 1.38z" fill-rule="nonzero"/><path d="M262.47 203.88c0-2.39-2.22-4.33-4.95-4.33-2.74 0-4.96 1.94-4.96 4.33 0 2.4 2.22 4.33 4.96 4.33 2.73 0 4.95-1.93 4.95-4.33z" fill="#046a38" fill-rule="nonzero"/><path d="M255.15 204.71c0-1.13-.47-2.16-1.22-2.89a4.243 4.243 0 00-2.99-1.21c-1.16 0-2.22.46-2.98 1.21a4.033 4.033 0 000 5.78c.76.74 1.82 1.2 2.98 1.2 1.17 0 2.23-.46 2.99-1.2a4.051 4.051 0 001.22-2.89zm-.61-3.53c.92.9 1.5 2.15 1.5 3.53 0 1.37-.58 2.62-1.5 3.52a5.133 5.133 0 01-3.6 1.46c-1.4 0-2.67-.56-3.59-1.46a4.895 4.895 0 010-7.05c.92-.9 2.19-1.45 3.59-1.45 1.41 0 2.68.55 3.6 1.45z" fill-rule="nonzero"/><path d="M255.59 204.71c0-2.51-2.08-4.54-4.65-4.54-2.56 0-4.65 2.03-4.65 4.54 0 2.5 2.09 4.54 4.65 4.54 2.57 0 4.65-2.04 4.65-4.54z" fill="#046a38" fill-rule="nonzero"/><path d="M245.24 211.79c0-1.15-.47-2.19-1.23-2.94a4.179 4.179 0 00-2.97-1.22c-1.17 0-2.22.46-2.98 1.22-.76.75-1.23 1.79-1.23 2.94s.47 2.19 1.23 2.94c.76.76 1.81 1.22 2.98 1.22 1.16 0 2.21-.46 2.97-1.22.76-.75 1.23-1.79 1.23-2.94zm-.61-3.57c.93.91 1.5 2.18 1.5 3.57 0 1.39-.57 2.66-1.5 3.57-1.977 1.962-5.213 1.962-7.19 0-.93-.91-1.5-2.18-1.5-3.57 0-1.39.57-2.66 1.5-3.57 1.977-1.962 5.213-1.962 7.19 0z" fill-rule="nonzero"/><path d="M245.69 211.79c0-2.54-2.09-4.61-4.65-4.61-2.57 0-4.66 2.07-4.66 4.61 0 2.54 2.09 4.61 4.66 4.61 2.56 0 4.65-2.07 4.65-4.61z" fill="#046a38" fill-rule="nonzero"/><path d="M246.86 208.35c0-1.13-.47-2.15-1.23-2.89-.76-.74-1.81-1.2-2.98-1.2-1.16 0-2.22.46-2.98 1.2a4.051 4.051 0 00-1.22 2.89c0 1.13.47 2.16 1.22 2.9.76.74 1.82 1.2 2.98 1.2 1.17 0 2.22-.46 2.98-1.2.76-.74 1.23-1.77 1.23-2.9zm-.61-3.52c.92.9 1.5 2.15 1.5 3.52 0 1.38-.58 2.63-1.5 3.53-.92.9-2.19 1.45-3.6 1.45-1.4 0-2.67-.55-3.59-1.45a4.895 4.895 0 010-7.05c.92-.9 2.19-1.46 3.59-1.46s2.68.56 3.6 1.46z" fill-rule="nonzero"/><path d="M247.3 208.35c0-2.5-2.08-4.54-4.65-4.54-2.57 0-4.65 2.04-4.65 4.54 0 2.51 2.08 4.54 4.65 4.54 2.57 0 4.65-2.03 4.65-4.54z" fill="#046a38" fill-rule="nonzero"/><path d="M248.78 204.5c0-1.13-.47-2.15-1.22-2.89-.77-.74-1.82-1.2-2.99-1.2-1.16 0-2.22.46-2.98 1.2a4.051 4.051 0 00-1.22 2.89c0 1.13.47 2.16 1.22 2.9.76.74 1.82 1.2 2.98 1.2 1.17 0 2.23-.46 2.99-1.2.75-.74 1.22-1.77 1.22-2.9zm-.61-3.52c.92.9 1.5 2.15 1.5 3.52 0 1.38-.58 2.63-1.5 3.53-.92.9-2.19 1.45-3.6 1.45-1.4 0-2.67-.55-3.59-1.45a4.895 4.895 0 010-7.05c.92-.9 2.19-1.46 3.59-1.46s2.68.56 3.6 1.46z" fill-rule="nonzero"/><path d="M249.23 204.5c0-2.5-2.09-4.54-4.66-4.54-2.56 0-4.65 2.04-4.65 4.54 0 2.51 2.09 4.54 4.65 4.54 2.57 0 4.66-2.03 4.66-4.54z" fill="#046a38" fill-rule="nonzero"/><path d="M292.96 296.5c3.72-1.64 5.16-7.57 4.48-15.82-.69-8.36-3.55-19.06-8.44-30.13-4.88-11.07-10.85-20.4-16.55-26.54-5.64-6.07-11-9.01-14.71-7.37-3.72 1.64-5.16 7.57-4.48 15.83.68 8.36 3.55 19.06 8.43 30.13 4.88 11.06 10.85 20.4 16.56 26.54 5.64 6.07 10.99 9 14.71 7.36zm5.04-15.87c.7 8.5-.85 14.64-4.81 16.39-3.97 1.75-9.54-1.25-15.35-7.5-5.75-6.18-11.76-15.57-16.66-26.7-4.91-11.12-7.79-21.89-8.49-30.3-.7-8.51.86-14.65 4.82-16.39 3.96-1.75 9.54 1.24 15.35 7.49 5.74 6.19 11.75 15.58 16.66 26.7 4.91 11.13 7.79 21.9 8.48 30.31z" fill-rule="nonzero"/><path d="M293.07 296.76c7.69-3.39 5.98-24.13-3.81-46.32-9.79-22.2-23.95-37.44-31.64-34.06-7.68 3.39-5.97 24.13 3.81 46.33 9.79 22.2 23.96 37.44 31.64 34.05z" fill="#046a38" fill-rule="nonzero"/><path d="M291.38 271.48c.47-.21.6-1.22.44-2.69-.18-1.68-.8-3.85-1.8-6.12-1-2.29-2.2-4.21-3.31-5.48l-.03-.03c-.96-1.09-1.79-1.66-2.26-1.46-.46.21-.6 1.22-.44 2.69.19 1.68.8 3.85 1.8 6.12 1.01 2.29 2.2 4.21 3.32 5.48l.03.03c.96 1.09 1.79 1.66 2.25 1.46zm1.63-2.82c.22 2.01-.14 3.47-1.14 3.92-1 .43-2.31-.27-3.64-1.76l-.03-.04c-1.19-1.35-2.46-3.39-3.51-5.77-1.05-2.4-1.7-4.7-1.9-6.49-.22-2.01.15-3.47 1.15-3.91.99-.44 2.31.26 3.63 1.75l.04.04c1.19 1.35 2.45 3.39 3.51 5.77 1.05 2.4 1.7 4.7 1.89 6.49z" fill-rule="nonzero"/><path d="M291.62 272.03c1.48-.65 1-4.95-1.05-9.61-2.06-4.66-4.92-7.92-6.39-7.27-1.47.65-1 4.96 1.06 9.61 2.05 4.67 4.91 7.92 6.38 7.27z" fill="#046a38" fill-rule="nonzero"/><path d="M287.04 263.23c6.26 7.64 9.01 13.93 10.02 19.32 1.02 5.41.31 9.9-.35 13.99a.6.6 0 01-1.03.31l-17.55-18.84a.59.59 0 01-.16-.41v-18.93a.605.605 0 01.95-.49l7.97 4.92.15.13zm8.85 19.54c-.98-5.19-3.64-11.27-9.72-18.71l-7-4.32v17.63l16.55 17.77c.57-3.67 1.05-7.68.17-12.37z" fill-rule="nonzero"/><path d="M286.58 263.61c12.37 15.12 10.84 24.75 9.54 32.84l-17.55-18.85v-18.93l8.01 4.94z" fill="#046a38" fill-rule="nonzero"/><path d="M288.12 275.48c6.28 7.63 9.04 13.9 10.07 19.29 1.03 5.41.31 9.89-.34 13.98-.06.33-.36.55-.69.5a.614.614 0 01-.41-.27l-23.86-36.96a.578.578 0 01-.1-.33v-24.83a.603.603 0 011.17-.19c.41 1.06.72 2.29 1.08 3.72 1.34 5.22 3.39 13.24 13.05 25.05l.03.04zm8.89 19.51c-.99-5.21-3.68-11.3-9.81-18.76l-.04-.03c-9.56-11.69-11.8-19.76-13.17-25.09v20.41l22.92 35.5c.54-3.58.96-7.49.1-12.03z" fill-rule="nonzero"/><path d="M287.63 275.82c12.46 15.13 10.92 24.75 9.62 32.84l-23.86-36.97v-24.83c1.86 4.85 1.86 13.83 14.24 28.96z" fill="#046a38" fill-rule="nonzero"/><path d="M288.51 285.32c12.82 14.97 11.46 24.8 10.31 33.08v.05a.6.6 0 01-1.16.11l-.51-1.17c-3.71-8.57-6.31-14.56-18.47-28.73-10.77-12.62-8.35-22.33-6.81-28.51.3-1.21.57-2.28.69-3.17.04-.33.34-.56.67-.52.22.03.4.18.48.38.45 1.09.81 2.34 1.23 3.82 1.47 5.18 3.72 13.12 13.55 24.64l.02.02zm9.41 30.84c.96-7.61 1.1-16.73-10.32-30.05l-.06-.08c-9.97-11.69-12.26-19.78-13.75-25.05l-.48-1.66-.28 1.11c-1.48 5.95-3.81 15.3 6.56 27.46 11.91 13.87 14.73 19.99 18.33 28.27z" fill-rule="nonzero"/><path d="M288.03 285.69c12.7 14.8 11.33 24.51 10.19 32.68-4.04-9.31-6.3-15.21-19.09-30.09-12.69-14.89-6.71-25.65-5.98-31.23 2.02 4.78 2.18 13.75 14.88 28.64z" fill="#046a38" fill-rule="nonzero"/><path d="M285.89 263.54c1.04-.53 1.36-2.51 1.02-5.31-.37-3.02-1.54-6.92-3.42-10.95-1.88-4.03-4.11-7.43-6.19-9.65-1.94-2.07-3.68-3.11-4.75-2.61-1.08.5-1.4 2.5-1.06 5.32.37 3.04 1.54 6.93 3.41 10.95 1.89 4.04 4.12 7.43 6.2 9.66 1.94 2.07 3.68 3.11 4.75 2.6l.04-.01zm2.21-5.45c.4 3.31-.13 5.75-1.69 6.52l-.05.03c-1.6.75-3.83-.41-6.13-2.88-2.17-2.31-4.48-5.82-6.41-9.96-1.94-4.15-3.14-8.17-3.52-11.32-.41-3.35.14-5.8 1.74-6.54 1.6-.75 3.83.41 6.13 2.88 2.17 2.31 4.48 5.82 6.41 9.96 1.93 4.14 3.14 8.17 3.52 11.31z" fill-rule="nonzero"/><path d="M286.11 264.1c2.67-1.25 1.74-8.89-2.07-17.07-3.82-8.18-9.07-13.8-11.75-12.55-2.67 1.25-1.74 8.89 2.07 17.06 3.81 8.18 9.07 13.8 11.75 12.56z" fill="#046a38" fill-rule="nonzero"/><path d="M279.53 269.39c.92-.41 1.26-2.05 1.05-4.35-.21-2.5-1.1-5.71-2.6-9.02V256c-1.5-3.31-3.32-6.09-5.05-7.91-1.59-1.67-3.04-2.5-3.96-2.08-.92.41-1.25 2.05-1.05 4.35.22 2.5 1.11 5.71 2.6 9.02 1.5 3.32 3.32 6.11 5.05 7.93 1.59 1.67 3.04 2.5 3.96 2.08zm2.25-4.45c.25 2.82-.32 4.89-1.76 5.54-1.43.65-3.36-.29-5.32-2.35-1.81-1.91-3.71-4.81-5.26-8.24l-.01-.02c-1.55-3.44-2.48-6.78-2.71-9.41-.24-2.82.32-4.9 1.76-5.54 1.44-.65 3.37.29 5.32 2.35 1.82 1.91 3.72 4.81 5.27 8.25l.01.01c1.55 3.44 2.47 6.79 2.7 9.41z" fill-rule="nonzero"/><path d="M279.78 269.94c2.36-1.07 1.8-7.41-1.25-14.17s-7.44-11.37-9.8-10.31c-2.37 1.07-1.81 7.41 1.25 14.17 3.05 6.76 7.44 11.37 9.8 10.31z" fill="#046a38" fill-rule="nonzero"/><path d="M273.41 275.26c.93-.4 1.29-2.02 1.13-4.33-.17-2.51-.99-5.73-2.42-9.07-1.44-3.35-3.21-6.17-4.9-8.02-1.56-1.71-2.99-2.56-3.92-2.16-.93.39-1.3 2.02-1.14 4.33.17 2.49.99 5.7 2.41 9.03l.04.08c1.43 3.33 3.19 6.14 4.87 7.98 1.56 1.7 3 2.56 3.93 2.16zm2.33-4.41c.19 2.83-.41 4.89-1.86 5.51-1.45.62-3.36-.36-5.28-2.46-1.77-1.94-3.62-4.87-5.1-8.33l-.01-.02c-1.49-3.47-2.34-6.84-2.52-9.46-.2-2.83.41-4.89 1.86-5.51 1.45-.62 3.36.36 5.27 2.45 1.78 1.94 3.62 4.88 5.11 8.34l.01.02c1.48 3.47 2.34 6.83 2.52 9.46z" fill-rule="nonzero"/><path d="M273.64 275.81c2.38-1.02 1.95-7.37-.97-14.19-2.93-6.82-7.22-11.51-9.61-10.49-2.38 1.02-1.94 7.37.98 14.19 2.92 6.81 7.22 11.51 9.6 10.49z" fill="#046a38" fill-rule="nonzero"/><path d="M277.76 251.27c.66-.35.84-1.58.6-3.28v-.02c-.27-1.89-1.09-4.27-2.39-6.71-1.29-2.44-2.82-4.46-4.24-5.74l-.03-.03c-1.26-1.13-2.37-1.65-3.02-1.31l-.04.02c-.63.37-.8 1.59-.56 3.26v.02c.27 1.88 1.08 4.26 2.37 6.68l.02.05c1.3 2.44 2.82 4.45 4.24 5.72 1.27 1.15 2.39 1.69 3.05 1.34zm1.78-3.45c.32 2.21-.06 3.89-1.22 4.5-1.15.62-2.76-.01-4.41-1.5-1.52-1.37-3.13-3.49-4.49-6.05l-.02-.02c-1.35-2.55-2.21-5.08-2.5-7.1l-.01-.02c-.31-2.18.06-3.84 1.17-4.47l.05-.04c1.15-.6 2.74 0 4.38 1.48l.04.03c1.52 1.37 3.14 3.5 4.5 6.07 1.36 2.55 2.22 5.08 2.51 7.1v.02z" fill-rule="nonzero"/><path d="M278.04 251.79c1.81-.96 1.13-5.8-1.54-10.81-2.66-5.01-6.29-8.29-8.1-7.33-1.82.97-1.13 5.81 1.53 10.82 2.67 5.01 6.3 8.29 8.11 7.32z" fill="#046a38" fill-rule="nonzero"/><path d="M272.23 255.35c.68-.3.93-1.52.8-3.23-.15-1.91-.81-4.35-1.96-6.87-1.14-2.52-2.54-4.62-3.87-5.99-1.2-1.23-2.29-1.83-2.97-1.52-.67.3-.93 1.52-.8 3.23.15 1.9.82 4.34 1.96 6.86v.01c1.14 2.52 2.54 4.62 3.88 5.99 1.2 1.23 2.28 1.83 2.96 1.52zm2-3.32c.17 2.22-.32 3.87-1.51 4.42-1.19.54-2.75-.19-4.31-1.78-1.42-1.46-2.9-3.68-4.1-6.32l-.02-.03c-1.19-2.64-1.89-5.23-2.05-7.26-.18-2.23.31-3.88 1.5-4.42s2.75.19 4.31 1.79c1.43 1.45 2.91 3.68 4.11 6.32l.01.01c1.2 2.65 1.9 5.23 2.06 7.27z" fill-rule="nonzero"/><path d="M272.48 255.9c1.87-.85 1.48-5.73-.86-10.89-2.34-5.17-5.76-8.67-7.63-7.82-1.87.85-1.49 5.72.85 10.89 2.35 5.17 5.76 8.67 7.64 7.82z" fill="#046a38" fill-rule="nonzero"/><path d="M291.51 316.39c.16 0 .28.12.28.28 0 .16-.12.28-.28.28-1.24 0-2.36.51-3.17 1.32-.82.81-1.32 1.93-1.32 3.17s.5 2.37 1.32 3.18c.81.81 1.93 1.31 3.17 1.31.16 0 .28.13.28.28 0 .16-.12.29-.28.29a5.048 5.048 0 01-3.57-1.48 5.038 5.038 0 01-1.49-3.58c0-1.39.57-2.66 1.49-3.57.91-.92 2.18-1.48 3.57-1.48zm-34.36-71.97c-.13-.31.02-.66.32-.78.31-.13.66.02.78.33 1.79 4.38 3.78 8.17 5.55 10.77 1.62 2.38 2.94 3.72 3.58 3.46.65-.26.66-2.2.15-5.1-.56-3.17-1.81-7.36-3.61-11.82l-.14-.34c-.13-.31.02-.66.33-.78.3-.13.65.02.78.33l.15.38c1.83 4.53 3.1 8.79 3.67 12.02.61 3.5.37 5.91-.88 6.42-1.24.5-3.07-1.02-5.02-3.9-1.81-2.65-3.84-6.53-5.66-10.99z" fill-rule="nonzero"/><path d="M257.7 244.19c3.62 8.85 8.02 15.32 9.9 14.56 1.91-.77.51-8.69-3.13-17.69-.05-.12-.09-.23-.14-.35l-6.63 3.48zm0 0L256 39.59l1.7 204.6z" fill="#046a38" fill-rule="nonzero"/><path d="M271.62 244.8c.67-.31.93-1.53.8-3.24-.15-1.91-.82-4.35-1.96-6.86-1.14-2.53-2.54-4.63-3.88-6-1.19-1.23-2.28-1.83-2.96-1.52h-.01c-.67.32-.92 1.53-.79 3.23.14 1.9.81 4.34 1.95 6.85l.01.03c1.14 2.51 2.54 4.62 3.87 5.98 1.2 1.23 2.28 1.84 2.97 1.53zm1.99-3.33c.18 2.23-.31 3.88-1.5 4.42s-2.76-.19-4.32-1.78c-1.42-1.46-2.89-3.67-4.09-6.3l-.04-.08c-1.19-2.64-1.88-5.21-2.04-7.23-.17-2.2.3-3.83 1.46-4.39l.1-.05c1.18-.49 2.72.23 4.26 1.81 1.42 1.45 2.9 3.68 4.1 6.32l.01.01c1.2 2.65 1.9 5.23 2.06 7.27z" fill-rule="nonzero"/><path d="M271.86 245.34c1.87-.85 1.49-5.72-.85-10.89-2.35-5.17-5.77-8.67-7.64-7.82-1.87.85-1.49 5.73.86 10.89 2.34 5.17 5.76 8.67 7.63 7.82z" fill="#046a38" fill-rule="nonzero"/><path d="M265.27 247.86c.69-.3.97-1.51.87-3.22-.11-1.91-.72-4.37-1.81-6.91s-2.45-4.68-3.75-6.07c-1.17-1.25-2.24-1.88-2.93-1.59-.69.3-.97 1.51-.87 3.22.11 1.91.72 4.37 1.81 6.91s2.44 4.68 3.75 6.07c1.17 1.25 2.24 1.88 2.93 1.59zm2.07-3.29c.12 2.23-.4 3.87-1.6 4.39-1.2.51-2.75-.24-4.27-1.87-1.4-1.5-2.84-3.76-3.98-6.43-1.15-2.67-1.79-5.26-1.91-7.3-.13-2.23.4-3.87 1.6-4.39 1.2-.51 2.74.24 4.27 1.87 1.4 1.5 2.84 3.75 3.98 6.43 1.14 2.66 1.79 5.26 1.91 7.3z" fill-rule="nonzero"/><path d="M265.51 248.41c1.88-.81 1.6-5.7-.63-10.91-2.24-5.22-5.58-8.79-7.47-7.98-1.89.81-1.61 5.69.63 10.91 2.23 5.22 5.58 8.79 7.47 7.98z" fill="#046a38" fill-rule="nonzero"/><path d="M253.06 232.13a.613.613 0 01.2-.83.603.603 0 01.82.2c1.79 2.94 3.64 5.43 5.2 7.07 1.37 1.46 2.4 2.25 2.76 2.04.36-.22.13-1.54-.54-3.5-.76-2.2-2.13-5.06-3.92-8.04l-.17-.29a.603.603 0 01.2-.82.603.603 0 01.82.2l.18.29c1.84 3.07 3.24 6 4.02 8.27.87 2.52.94 4.36.02 4.92-.91.54-2.46-.35-4.24-2.25-1.61-1.7-3.52-4.26-5.35-7.26z" fill-rule="nonzero"/><path d="M253.57 231.81c3.63 5.95 7.51 10.07 8.77 9.31 1.29-.77-.61-6.31-4.25-12.37-.05-.09-.11-.18-.17-.28l-4.35 3.34zm0 0L256 39.59l-2.43 192.22z" fill="#046a38" fill-rule="nonzero"/><path d="M255.55 228.05a.61.61 0 01.25-.81c.29-.15.65-.04.81.25l.31.54c1.65 2.75 3.4 5.08 4.89 6.63 1.32 1.37 2.32 2.1 2.68 1.88.35-.2.19-1.35-.34-3.06-.61-1.94-1.77-4.47-3.34-7.14a.596.596 0 01-.084-.305.6.6 0 011.114-.305c1.62 2.76 2.81 5.37 3.45 7.4.71 2.26.7 3.91-.18 4.44-.91.55-2.44-.29-4.16-2.08-1.55-1.61-3.35-4.02-5.05-6.84l-.35-.6z" fill-rule="nonzero"/><path d="M256.08 227.77c.11.2.21.38.31.54 3.37 5.6 7.13 9.52 8.41 8.75 1.23-.75-.29-5.59-3.47-11.02l-5.25 1.73zm0 0L256 39.59l.08 188.18z" fill="#046a38" fill-rule="nonzero"/><path d="M264.95 230.18a.603.603 0 01.2-.82.613.613 0 01.83.2c2.45 4.04 5 7.45 7.15 9.73 1.97 2.08 3.48 3.18 4.08 2.82l.02-.01c.59-.39.31-2.29-.64-5.04-1.03-3.03-2.9-6.96-5.36-11.06l-.22-.36a.603.603 0 01.2-.82.603.603 0 01.82.2l.22.37c2.51 4.17 4.42 8.18 5.48 11.28 1.12 3.3 1.26 5.7.15 6.44l-.05.03c-1.15.69-3.19-.51-5.58-3.03-2.2-2.33-4.8-5.82-7.3-9.93z" fill-rule="nonzero"/><path d="M265.46 229.87c4.96 8.15 10.31 13.81 12.06 12.75 1.78-1.07-.81-8.66-5.79-16.95-.07-.11-.14-.23-.21-.34l-6.06 4.54zm0 0L256 39.59l9.46 190.28z" fill="#046a38" fill-rule="nonzero"/><path d="M259.35 224.89a.605.605 0 01.26-.81c.29-.15.65-.03.8.26l.07.12c1.66 3.13 3.44 5.83 4.96 7.64 1.35 1.61 2.38 2.51 2.76 2.31.39-.21.22-1.57-.37-3.59-.65-2.27-1.89-5.25-3.56-8.4-.18-.37-.44-.8-.64-1.17a.603.603 0 01.23-.81c.29-.16.66-.05.82.24l.65 1.18c1.7 3.21 2.97 6.27 3.65 8.63.75 2.6.74 4.47-.22 4.97-.95.51-2.51-.52-4.24-2.59-1.57-1.88-3.4-4.64-5.1-7.85l-.07-.13z" fill-rule="nonzero"/><path d="M259.88 224.62c.03.04.04.08.06.11 3.38 6.35 7.2 10.92 8.54 10.2 1.34-.71-.31-6.44-3.68-12.79-.21-.39-.43-.79-.65-1.18l-4.27 3.66zm0 0L256 39.59l3.88 185.03z" fill="#046a38" fill-rule="nonzero"/><path d="M264.27 211.69l-.12.13c-.82.98-.8 2.32-.37 3.63.47 1.4 1.4 2.76 2.31 3.64l1.25 1.13c.83.75 2.01 1.84 3.45 2.99 5.1 4.05 13.45 8.83 20.03 1.62-3.39-.68-7.6-3.83-11.83-6.99-5.88-4.39-11.78-8.81-14.72-6.15zm-1.02-.65l.19-.21c3.67-3.37 9.99 1.35 16.27 6.05 4.56 3.41 9.11 6.81 12.27 6.89.14 0 .28.04.39.13.26.21.3.59.1.85-7.33 9.21-16.76 3.89-22.42-.61-1.46-1.15-2.67-2.27-3.52-3.04l-1.26-1.14c-1.04-1.01-2.09-2.54-2.62-4.13-.56-1.68-.55-3.43.58-4.78l.02-.01z" fill-rule="nonzero"/><path d="M263.85 211.27c-2.35 2.43.08 6.79 2.18 8.57 2.51 2.11 16.26 16.75 25.97 4.53-7.77-.16-22.33-18.44-28.15-13.1z" fill="#9063cd" fill-rule="nonzero"/><path d="M262.57 204.49l-.12.14c-.82.97-.8 2.31-.37 3.62.47 1.4 1.4 2.76 2.32 3.64.38.39.84.77 1.24 1.13.83.76 2.01 1.84 3.46 2.99 5.09 4.05 13.44 8.84 20.02 1.63-3.39-.69-7.6-3.84-11.82-6.99-5.88-4.4-11.79-8.81-14.73-6.16zm-1.02-.65l.19-.21c3.67-3.36 9.99 1.35 16.27 6.05 4.56 3.41 9.11 6.81 12.27 6.89.14 0 .28.04.39.13.26.21.3.59.1.85-7.33 9.21-16.76 3.89-22.42-.6a59.46 59.46 0 01-3.51-3.05l-1.27-1.14c-1.04-1.01-2.09-2.54-2.62-4.13-.56-1.68-.55-3.43.59-4.78l.01-.01z" fill-rule="nonzero"/><path d="M262.15 204.07c-2.35 2.43.08 6.79 2.18 8.57 2.51 2.11 16.26 16.75 25.97 4.53-7.77-.16-22.33-18.44-28.15-13.1z" fill="#9063cd" fill-rule="nonzero"/><path d="M260.38 197.62l-.12.13c-.82.97-.8 2.32-.36 3.63.46 1.4 1.39 2.75 2.31 3.64.4.4.89.76 1.29 1.16.81.75 1.97 1.81 3.41 2.95 5.1 4.05 13.45 8.84 20.02 1.63-3.38-.68-7.6-3.83-11.82-6.99-5.88-4.4-11.78-8.81-14.73-6.15zm-1.01-.66l.19-.21c3.67-3.36 9.98 1.36 16.27 6.06 4.56 3.41 9.11 6.8 12.27 6.89.13 0 .27.04.39.13.25.2.3.58.09.84-7.32 9.22-16.75 3.9-22.41-.6-1.42-1.13-2.63-2.24-3.48-3.01-.44-.38-.88-.79-1.31-1.18-1.04-1-2.09-2.53-2.61-4.12-.56-1.68-.56-3.44.58-4.78l.02-.02z" fill-rule="nonzero"/><path d="M259.96 197.19c-2.34 2.43.08 6.8 2.19 8.58 2.51 2.1 16.26 16.74 25.96 4.53-7.76-.16-22.32-18.44-28.15-13.11z" fill="#9063cd" fill-rule="nonzero"/><path d="M255.61 189.77l-.12.13c-.82.97-.8 2.32-.36 3.63.46 1.4 1.39 2.75 2.31 3.64.38.38.84.76 1.25 1.13.82.75 2.01 1.84 3.45 2.99 5.1 4.05 13.45 8.83 20.02 1.62-3.39-.68-7.6-3.83-11.82-6.99-5.88-4.39-11.79-8.81-14.73-6.15zm-1.02-.65l.2-.21c3.67-3.37 9.98 1.35 16.27 6.05 4.55 3.41 9.1 6.81 12.26 6.89.14 0 .28.04.39.13.26.21.31.59.1.84-7.32 9.22-16.75 3.9-22.42-.6a68.051 68.051 0 01-3.51-3.04l-1.27-1.14c-1.04-1.01-2.09-2.54-2.62-4.13-.55-1.68-.55-3.43.59-4.78l.01-.01z" fill-rule="nonzero"/><path d="M255.19 189.35c-2.34 2.42.08 6.79 2.18 8.57 2.51 2.11 16.26 16.75 25.97 4.53-7.76-.16-22.33-18.44-28.15-13.1z" fill="#9063cd" fill-rule="nonzero"/><path d="M237.95 181.33c2.64-1.99 6.41-3.24 10.43-3.47 3.74-.21 7.71.45 11.2 2.21 2.69 1.33 6.1 4.38 9.71 7.61 4.48 4 9.3 8.31 13.29 9.85a.603.603 0 01.35.77c-.08.2-.26.34-.46.37-2.65.46-4.8.48-6.71.19-1.79-.28-3.37-.83-4.97-1.54-3.16 2.24-5.36 3.57-7.58 4.45-2.3.92-4.58 1.35-7.93 1.84h-.04c-4.68.65-8.98.37-12.46-.67-3.61-1.08-6.37-2.98-7.84-5.52-1.46-2.45-1.87-5.61-1.31-8.59.54-2.93 2-5.7 4.29-7.48l.03-.02zm10.5-2.27c-3.79.22-7.33 1.38-9.79 3.23l-.01.01c-2.04 1.59-3.36 4.09-3.85 6.74-.5 2.71-.14 5.57 1.17 7.77 1.31 2.27 3.83 3.99 7.15 4.98 3.32 1 7.45 1.26 11.96.64h.02c3.28-.48 5.49-.9 7.67-1.77 2.17-.86 4.36-2.2 7.6-4.52.17-.12.4-.15.6-.06 1.61.75 3.18 1.32 4.97 1.59 1.29.2 2.7.24 4.33.09-3.75-2.01-7.89-5.71-11.77-9.19-3.56-3.18-6.91-6.17-9.45-7.42-3.3-1.67-7.05-2.3-10.6-2.09z" fill-rule="nonzero"/><path d="M238.28 181.82c4.94-3.72 14-4.77 21.04-1.21 5.9 2.91 15.69 14.64 23.05 17.47-5.18.89-8.33.08-11.65-1.45-6.55 4.69-8.9 5.42-15.53 6.39-9.3 1.29-16.99-1.13-19.74-5.91-2.75-4.61-1.53-11.89 2.83-15.29z" fill="#9063cd" fill-rule="nonzero"/><path d="M252.5 189.13c0-.48-.38-.93-.98-1.28-.7-.41-1.68-.66-2.77-.66s-2.07.25-2.76.66c-.61.35-.99.8-.99 1.28 0 .47.38.93.99 1.28.69.4 1.67.66 2.76.66 1.09 0 2.07-.26 2.77-.66.6-.35.98-.81.98-1.28zm-.43-2.24c.95.55 1.54 1.34 1.54 2.24 0 .9-.59 1.69-1.54 2.24-.85.5-2.03.81-3.32.81-1.28 0-2.46-.31-3.32-.81-.95-.55-1.54-1.34-1.54-2.24 0-.9.59-1.69 1.54-2.24.86-.5 2.04-.81 3.32-.81 1.29 0 2.46.31 3.32.81z" fill-rule="nonzero"/><path d="M253.06 189.13c0-1.38-1.93-2.49-4.31-2.49-2.37 0-4.3 1.11-4.3 2.49 0 1.38 1.93 2.49 4.3 2.49 2.38 0 4.31-1.11 4.31-2.49z" fill="#d50032" fill-rule="nonzero"/><path d="M250 188.96c0-.72-.66-1.3-1.47-1.3-.82 0-1.48.58-1.48 1.3 0 .72.66 1.3 1.48 1.3.81 0 1.47-.58 1.47-1.3zm-13.06 13.24c1.48-.55 2.68-1.41 3.42-2.36.71-.91.99-1.9.68-2.75l-.01-.01c-.31-.84-1.17-1.39-2.3-1.62-1.18-.23-2.65-.1-4.13.45s-2.68 1.41-3.42 2.36c-.71.91-.99 1.9-.68 2.75l.01.01c.32.84 1.17 1.39 2.3 1.62 1.18.23 2.66.1 4.13-.45zm3.86-2.01c-.8 1.02-2.09 1.96-3.66 2.54-1.58.59-3.16.72-4.44.47-1.31-.26-2.32-.94-2.72-1.96l-.01-.03c-.38-1.04-.06-2.22.77-3.28.8-1.03 2.09-1.96 3.66-2.55 1.58-.59 3.16-.72 4.44-.47 1.32.26 2.32.94 2.72 1.96l.01.03c.39 1.04.07 2.22-.77 3.29z" fill-rule="nonzero"/><path d="M237.04 202.47c3.06-1.14 4.97-3.59 4.27-5.47-.71-1.89-3.75-2.49-6.81-1.36-3.05 1.14-4.96 3.59-4.26 5.47.7 1.89 3.74 2.49 6.8 1.36z" fill="#ffcd00" fill-rule="nonzero"/><path d="M239.61 192.36c.24 1.07-.07 2.36-.91 3.47l-.02.02c-.71.93-1.82 1.74-3.29 2.17-1.51.64-2.84 1.69-3.96 3.17-1.1 1.45-2 3.32-2.66 5.63a.292.292 0 01-.35.19.245.245 0 01-.18-.16c-.92-2.12-1.55-4-1.92-5.67-.68-3.02-.55-5.35.15-7.11.71-1.77 2.01-2.96 3.63-3.66.52-.22 1.07-.4 1.64-.53 2.19-.7 3.95-1 5.27-.69 1.37.33 2.25 1.31 2.6 3.17zm-1.36 3.13c.73-.97 1.01-2.09.81-3.01-.3-1.62-1.04-2.46-2.18-2.74-1.21-.29-2.88.01-4.97.68l-.04.01c-.54.12-1.06.29-1.54.5-1.49.64-2.68 1.73-3.33 3.35-.67 1.66-.79 3.88-.13 6.78.33 1.45.84 3.06 1.58 4.86.66-2.05 1.51-3.73 2.53-5.07 1.18-1.57 2.59-2.67 4.2-3.35l.03-.01c1.36-.39 2.37-1.13 3.03-1.99l.01-.01z" fill-rule="nonzero"/><path d="M239.34 192.42c.4 1.86-.97 4.45-4.05 5.34-3.07 1.29-5.42 4.21-6.79 8.98-4.69-10.84-1.7-15.45 3.31-16.58 4.29-1.38 6.88-1.22 7.53 2.26z" fill="#ffcd00" fill-rule="nonzero"/><path d="M235.86 194.85c0-.576-.474-1.05-1.05-1.05-.576 0-1.05.474-1.05 1.05 0 .576.474 1.05 1.05 1.05.576 0 1.05-.474 1.05-1.05z" fill-rule="nonzero"/></svg>