<svg xmlns="http://www.w3.org/2000/svg" shape-rendering="geometricPrecision" text-rendering="geometricPrecision" image-rendering="optimizeQuality" fill-rule="evenodd" clip-rule="evenodd" viewBox="0 0 512 511.999"><g fill-rule="nonzero"><path fill="#4D4D4D" d="M256 0c70.684 0 134.689 28.664 181.011 74.988C483.335 121.311 512 185.316 512 256c0 70.683-28.665 134.688-74.988 181.012-46.323 46.324-110.328 74.987-181.012 74.987-70.677 0-134.689-28.663-181.013-74.987C28.664 390.688 0 326.676 0 256c0-70.684 28.664-134.689 74.987-181.012C121.311 28.664 185.316 0 256 0z"/><path fill="#fff" d="M256.001 19.596c65.277 0 124.382 26.467 167.161 69.244 42.777 42.779 69.243 101.883 69.243 167.161S465.939 380.383 423.16 423.16c-42.777 42.78-101.882 69.245-167.159 69.245-65.278 0-124.383-26.465-167.162-69.242C46.063 380.383 19.596 321.279 19.596 256c0-65.278 26.467-124.381 69.243-167.161 42.779-42.776 101.884-69.243 167.162-69.243z"/><path fill="#E8112D" d="M256.001 39.595c119.518 0 216.407 96.886 216.407 216.406 0 119.517-96.889 216.406-216.407 216.406-119.521 0-216.406-96.889-216.406-216.406 0-119.52 96.885-216.406 216.406-216.406z"/><path fill="#FCD116" d="M472.393 254.778H39.609c.661-118.955 97.279-215.183 216.392-215.183 119.109 0 215.73 96.227 216.391 215.183h.001z"/><path fill="#008751" d="M254.711 39.612V472.39c-118.924-.697-215.116-97.303-215.116-216.389 0-119.089 96.192-215.692 215.116-216.389z"/></g></svg>