<svg xmlns="http://www.w3.org/2000/svg" shape-rendering="geometricPrecision" text-rendering="geometricPrecision" image-rendering="optimizeQuality" fill-rule="evenodd" clip-rule="evenodd" viewBox="0 0 512 512"><path fill="#4D4D4D" fill-rule="nonzero" d="M256 0c70.683 0 134.689 28.663 181.012 74.987C483.336 121.311 512 185.316 512 256c0 70.683-28.664 134.689-74.988 181.012C390.689 483.336 326.683 512 256 512c-70.677 0-134.689-28.664-181.013-74.988C28.663 390.689 0 326.676 0 256c0-70.684 28.663-134.689 74.987-181.013C121.311 28.663 185.316 0 256 0z"/><path fill="#fff" fill-rule="nonzero" d="M256.001 19.596c65.278 0 124.383 26.467 167.162 69.243 42.777 42.78 69.243 101.884 69.243 167.162S465.94 380.384 423.16 423.16c-42.776 42.78-101.881 69.246-167.159 69.246-65.278 0-124.382-26.466-167.162-69.243-42.776-42.779-69.243-101.884-69.243-167.162S46.063 131.619 88.839 88.839c42.78-42.776 101.884-69.243 167.162-69.243z"/><path fill-rule="nonzero" d="M256.001 39.594c119.518 0 216.407 96.887 216.407 216.407 0 119.518-96.889 216.407-216.407 216.407-119.52 0-216.407-96.889-216.407-216.407 0-119.52 96.887-216.407 216.407-216.407z"/><path fill="#CC092F" fill-rule="nonzero" d="M472.405 255.821H39.597c.098-119.438 96.943-216.227 216.404-216.227 119.459 0 216.306 96.789 216.404 216.227z"/><path fill="#FFCB00" d="M202.571 187.464h26.591l8.063-25.062 8.28 25.062h26.587l-21.358 15.91 8.279 25.495-21.788-15.473-21.574 15.473 8.279-25.495z"/><path fill="#FFCB00" d="M299.766 324.544l-20.918-16.349c21.136-17.215 34.869-43.585 34.869-73.003 0-44.893-32.033-82.596-74.314-91.531l3.268-15.256c5.885 1.308 12.789 3.785 18.455 5.744l5.449-9.149c5.878 2.83 12.422 5.662 17.866 9.149l-4.138 9.809c5.45 3.489 12.028 8.89 15.685 13.143l8.183-6.392c4.36 4.792 9.592 9.801 13.297 15.035l-7.41 7.629c4.785 7.024 6.635 10.256 10.162 18.349l10.396-2.438c1.964 6.101 4.945 13.57 6.037 19.888l-9.844 3.869c1.176 4.91 2.698 13.486 2.601 20.699-.009.434-.041.926-.041 1.363l10.28 1.466c-.435 6.322-.651 13.515-1.962 19.834l-10.678.001c-1.523 6.534-3.49 14.527-5.884 20.626l8.931 5.234c-2.831 5.664-5.661 12.421-9.367 17.87l-9.806-4.138c-3.708 5.446-7.844 10.674-12.422 15.471l6.318 8.28c-1.74 1.523-3.267 3.051-5.013 4.796v.001zm-45.978-1.963l15.799 9.52c-1.474 1.348-5.887 3.633-7.057 4.096l2.584 9.917c-6.101 1.965-12.641 4.795-19.392 6.103l-3.923-9.805c-6.32 1.306-12.637 2.177-19.176 2.177l-1.311 10.242c-6.1-.434-13.51 0-20.266-1.526v-10.239c-6.103-1.093-11.987-2.616-17.651-4.58l-5.014 8.941c-5.23-2.184-12.202-4.8-17.871-8.284l3.707-9.806c-4.579-2.4-8.719-5.449-12.641-8.505l9.807-12.421c16.128 12.86 36.393 20.484 58.622 20.484 11.771 0 23.317-1.958 33.783-6.313v-.001zm0 0z"/><path fill="#FFCB00" d="M319.642 347.841l-104.297-79.372-.95 1.354 104.028 79.511-6.174 7.726-101.411-65.047c-27.458-17.216-26.368-30.727-20.701-45.328l4.795-11.768c2.616 15.255 18.303 26.809 34.648 39.663l92.094 70.748-2.032 2.513zm26.184 23.655a1.617 1.617 0 01-1.618-1.618v-.006-.001a1.622 1.622 0 013.243.001v.001c0 .897-.727 1.624-1.623 1.624h-.002v-.001zm-6.233-4.576a1.626 1.626 0 01-1.624-1.622v-.001a1.623 1.623 0 111.624 1.623zm-6.379-5.084a1.623 1.623 0 01-1.622-1.619 1.622 1.622 0 013.243 0 1.62 1.62 0 01-1.621 1.619zm21.446 8.998l-31.25-24.211-9.08 11.702 27.146 19.038c2.18 1.523 2.394 8.502 10.455 9.594 3.274.432 5.447-1.967 5.447-1.967 3.513-4.275 2.556-10.161-2.717-14.157l-.001.001zm0 0z"/></svg>