<svg xmlns="http://www.w3.org/2000/svg" shape-rendering="geometricPrecision" text-rendering="geometricPrecision" image-rendering="optimizeQuality" fill-rule="evenodd" clip-rule="evenodd" viewBox="0 0 512 512"><g fill-rule="nonzero"><path fill="#4D4D4D" d="M256 0c70.683 0 134.689 28.663 181.012 74.987C483.336 121.311 512 185.316 512 256c0 70.683-28.664 134.689-74.988 181.012C390.689 483.336 326.683 512 256 512c-70.677 0-134.689-28.664-181.013-74.988C28.663 390.689 0 326.676 0 256c0-70.684 28.663-134.689 74.987-181.013C121.311 28.663 185.316 0 256 0z"/><path fill="#fff" d="M256.001 19.596c65.278 0 124.383 26.467 167.162 69.243 42.777 42.78 69.243 101.884 69.243 167.162S465.94 380.384 423.16 423.16c-42.776 42.78-101.881 69.246-167.159 69.246-65.278 0-124.382-26.466-167.162-69.243-42.776-42.779-69.243-101.884-69.243-167.162S46.063 131.619 88.839 88.839c42.78-42.776 101.884-69.243 167.162-69.243z"/><path fill="#EA0437" d="M256.001 39.594c119.518 0 216.407 96.887 216.407 216.407 0 119.518-96.889 216.407-216.407 216.407-119.52 0-216.407-96.889-216.407-216.407 0-119.52 96.887-216.407 216.407-216.407z"/><path fill="#4189DD" d="M445.092 361.295l-306.38 76.594c33.794 21.833 74.061 34.519 117.289 34.519 81.293 0 152.103-44.834 189.091-111.113z"/><path fill="#12AD2B" d="M445.96 152.26L137.242 75.079c34.095-22.424 74.899-35.485 118.759-35.485 81.928 0 153.216 45.531 189.959 112.666z"/><path fill="#FFC726" d="M193.516 360.401c-9.41 2.599-14.805 9.898-14.668 16.787l46.321-.186c.416-7.402-5.673-14.248-14.943-16.944 45.351-.936 84.751-17.924 91.909-28.824-7.084-3.075-15.276 1.873-21.116.734 13.865-6.407 55.406-33.295 48.652-62.12-5.25 16.011-21.153 29.257-27.927 32.814 15.518-23.563 36.706-48.094 18.324-67.09.928 11.01-6.997 23.127-10.497 24.037 9.001-24.897 17.59-56.155-1.913-76.761 2.561 7.448 1.527 28.458-1.999 29.402-1.086-16.929-3.975-52.538-21.804-52.03 5.663 5.04 8.14 18.799 8.267 32.696-4.064-9.52-8.681-16.688-18.558-23.718-7.989-15.323-22.205-28.019-36.422-37.114 1.595 11.153 2.916 19.952 18.489 31.521-8.119-.505-16.236-15.898-24.914-16.324-6.903-.333-12.318 6.254-23.598 2.463 1.249 3.723 6.512 5.372 7.622 8.126-2.416 1.67-8.152-.26-12.919-2.742 6.559 8.934 16.721 14.186 25.35 12.414 10.26-1.973 21.261-.931 31.754 5.041-2.681 1.376-13.11 1.367-19.805.53 6.085 6.159 10.165 10.242 20.745 10.175 9.449-.062 14.403-5.04 16.83-1.957 5.927 7.022 9.915 14.041 14.873 22.309-10.951 1.211-7.65-12.385-19.847-19.339-6.852 14.183 7.883 30.997 17.913 37.986.135 10.662 1.693 19.582 6.215 27.699 3.048 5.723 6.989 11.58 5.503 24.496-6.004-4.373-11.873-19.121-9.714-30.83-7.514 2.05-10.453 15.264-6.911 21.917 2.646 5.064 4.413 14.756 1.361 19.088-2.975 4.037-3.286 3.585-3.247 12.249.106 5.184-2.79 11.314-7.506 15.588.984-3.653 2.107-9.937 1.016-13.865-3.728 6.325-13.082 12.869-16.028 19.67-2.892 6.815-3.626 18.62-17.623 21.342-18.008 3.575-24.223 6.696-35.811 11.437-1.286-8.801 2.564-27.154 9.923-26.107 7.185 1.278 28.971-7.507 21.178-25.86-1.539 5.784-6.673 11.43-12.225 11.68 5.999-7.782 16.701-15.839 11.489-28.877-2.898 5.542-7.455 12.193-14.366 15.935 7.408-14.198.86-18.445-7.938-6.751-3.323 4.511-5.329 13.551-7.44 25.032-3.456-9.338-3.228-21.63-7.323-31.611-4.278-10.793 5.677-13.643 10.362-12.777 11.471 3.062 30.64 3.06 29.216-15.89-4.954 6.411-13.642 8.39-23.025 6.083 10.537-7.694 18.857-22.168 7.115-29.723-.392 8.012-6.592 16.996-14.871 21.134-1.938-6.761-1.938-13.936-.276-21.802-4.622 4.866-7.999 14.99-10.684 26.499-.202-11.377 1.95-19.574 3.546-25.693 2.419-8.94 8.432-3.123 17.638-2.464 8.865.503 21.07-4.396 18.737-16.418-3.027 4.757-9.241 6.608-15.588 6.105 7.643-4.63 20.958-12.858 13.656-25.513-3.068 4.794-4.062 8.894-12.941 10.364 2.327-5.349 2.712-12.912 9.604-15.909-12.294-2.448-19.333 5.62-22.91 18.256-1.452-8.761-3.177-11.987-3.521-18.394 6.645-7.381 7.341-21.82-7.046-25.049-.854 7.448-.601 9.223 1.036 15.287-6.753-4.011-16.272-6.225-22.609-.552 4.293 4.633 10.939 8.712 21.181 3.659-2.42 7.916-8.712 6.561-17.36 3.543 5.286 9.927 11.956 11.691 19.317 10.547 3.855 10.162 4.024 17.882-7.239 32.681.521-9.196-.133-16.047-7.439-23.483-6.261-6.132-11.349.262-1.565 13.895-5.936-4.37-12.654-13.243-14.677-22.113-1.957 10.958-.195 23.874 5.872 31.114-2.869 3.066-6.132-.325-10.958-7.827 1.825 24.006 12.067 28.638 25.83 23.287.392 13.176.392 25.376 1.176 41.292-8.027-11.545-18.2-20.156-23.877-22.309-1.76 6.458 4.894 14.872 8.612 19.569-5.676-1.175-18.005-10.568-18.005-10.568-1.239 10.699 12.592 20.614 21.528 25.049-10.502-.457-15.136-4.435-21.92-10.958.132 29.68 32.159 24.526 38.161 19.96.783 14.612 1.9 31.505 2.681 46.117-9.053-1.58-8.341-4.302-16.089-5.019-21.501-.839-38.559-25.813-44.207-44.183-1.621 3.023-.335 6.186-1.818 9.901-3.491-9.018-7.951-20.663-13.932-26.083 1.523 5.257 1.684 10.598 1.155 20.424-2.053-6.366-3.963-8.318-4.1-15.791.13-5.737 5.534-9.969 5.235-18.039-.221-5.892-5.595-18.66-6.386-28.545-2.601 10.174-4.234 20.898-8.22 27.197 1.981-10.865 1.346-18.362 4.696-25.674 3.87-7.698 7.161-14.571 4.584-22.339-2.47 3.001-1.621 5.726-7.829 13.017-1.349-7.928 8.027-20.617 17.126-25.718 6.417-3.381 14.506-15.475 9.236-23.765-6.033 4.335-8.743 10.19-17.268 20.196 6.08-23.769 21.879-29.989 40.794-30.07 4.185-.019 12.623-1.53 14.992-7.069-5.332 2.058-11.635 2.32-17.245 1.197 4.083-5.993 12.68-5.214 20.692-5.249 6.284-.031 16.094-.883 20.06-9.832-7.665 3.321-19.621 4.012-27.149 1.66 11.972-6.203 30.724-6.872 40.341-15.011-10.962-8.182-38.393 1.906-55.719 13.788 4.843-4.428 12.497-12.283 16.719-18.624-9.476-4.544-33.441 22.006-41.697 37.78-7.84 4.427-10.977 11.369-14.022 16.213 4.178-14.118 4.621-24.363 8.107-35.988-26.879 9.253-15.707 58.915-21.554 70.796.689-13.116.132-29.968-5.269-38.658-8.279 6.316-8.947 43.49-1.174 74.438-2.807-8.281-8.105-16.013-9.804-26.093-12.253 22.347 7.183 48.712 23.435 69.538-12.235-6.372-24.332-20.08-32.279-31.572 2.194 39.998 43.961 48.309 50.446 58.139-8.801-4.097-25.627-12.204-32.766-3.709 11.622 2.683 20.894 5.785 28.365 10.682 10.84 13.534 31.366 19.453 67.115 20.948z"/></g></svg>