<svg xmlns="http://www.w3.org/2000/svg" shape-rendering="geometricPrecision" text-rendering="geometricPrecision" image-rendering="optimizeQuality" fill-rule="evenodd" clip-rule="evenodd" viewBox="0 0 512 512"><path fill="#4D4D4D" fill-rule="nonzero" d="M256-.001c70.684 0 134.69 28.664 181.013 74.988C483.337 121.31 512.001 185.316 512.001 256c0 70.684-28.664 134.69-74.988 181.013C390.69 483.337 326.684 512.001 256 512.001c-70.677 0-134.69-28.664-181.013-74.988C28.663 390.69-.001 326.676-.001 256c0-70.684 28.664-134.69 74.988-181.013C121.31 28.663 185.316-.001 256-.001z"/><path fill="#fff" fill-rule="nonzero" d="M256.001 19.596c65.278 0 124.383 26.466 167.163 69.243 42.776 42.779 69.243 101.884 69.243 167.162s-26.467 124.383-69.246 167.16c-42.777 42.779-101.882 69.246-167.16 69.246-65.278 0-124.383-26.467-167.162-69.243-42.777-42.78-69.243-101.885-69.243-167.163S46.062 131.618 88.839 88.839c42.779-42.777 101.884-69.243 167.162-69.243z"/><path fill="#063" fill-rule="nonzero" d="M255.939 39.594v432.815c-119.491-.033-216.345-96.911-216.345-216.408 0-119.5 96.854-216.375 216.345-216.407z"/><path fill="#D21034" fill-rule="nonzero" d="M351.787 196.335c-19.747-34.233-56.313-55.338-95.848-55.338-61.115 0-110.676 49.561-110.676 110.676 0 61.113 49.561 110.677 110.676 110.677 39.535 0 76.086-21.094 95.854-55.333a88.607 88.607 0 01-69.122 33.197c-48.893 0-88.541-39.65-88.541-88.541 0-48.893 39.648-88.541 88.541-88.541a88.558 88.558 0 0169.116 33.206v-.003zm4.259 55.338l-100.107-32.526 61.871 85.154V199.042L255.939 284.2l100.107-32.527z"/></svg>