<svg xmlns="http://www.w3.org/2000/svg" shape-rendering="geometricPrecision" text-rendering="geometricPrecision" image-rendering="optimizeQuality" fill-rule="evenodd" clip-rule="evenodd" viewBox="0 0 512 512"><g fill-rule="nonzero"><path fill="#4D4D4D" d="M256-.001c70.684 0 134.69 28.664 181.013 74.988C483.337 121.31 512.001 185.316 512.001 256c0 70.684-28.664 134.69-74.988 181.013C390.69 483.337 326.684 512.001 256 512.001c-70.677 0-134.69-28.664-181.013-74.988C28.663 390.69-.001 326.676-.001 256c0-70.684 28.664-134.69 74.988-181.013C121.31 28.663 185.316-.001 256-.001z"/><path fill="#fff" d="M256.001 19.596c65.278 0 124.383 26.466 167.163 69.243 42.776 42.779 69.243 101.884 69.243 167.162s-26.467 124.383-69.246 167.16c-42.777 42.779-101.882 69.246-167.16 69.246-65.278 0-124.383-26.467-167.162-69.243-42.777-42.78-69.243-101.885-69.243-167.163S46.062 131.618 88.839 88.839c42.779-42.777 101.884-69.243 167.162-69.243z"/><path fill="#DA0000" d="M453.474 344.645c-33.862 75.319-109.54 127.764-197.473 127.764-87.927 0-163.593-52.431-197.463-127.737l.008.018h394.907l.021-.045z"/><path fill="#239F40" d="M58.254 167.98h395.491C420.02 92.331 344.173 39.594 256.001 39.594c-88.175 0-164.024 52.737-197.747 128.386z"/><path fill="#fff" d="M440.39 142.683a218.21 218.21 0 014.124 6.991v5.936h3.232c.718 1.364 1.42 2.74 2.108 4.125h-9.464v-8.249h-12.37v4.124h8.245v4.125h-12.369v-12.37h16.494v-4.682zm11.46 21.173a219.502 219.502 0 013.69 8.248h-31.644v-8.248h27.954zm-395.388 8.248a217.862 217.862 0 013.688-8.248h28.538v8.248H56.462zm5.686-12.369c.591-1.19 1.187-2.374 1.801-3.549v3.549h-1.801zm4.325-8.249a230.244 230.244 0 012.335-4.121h3.389v8.245h12.37v-4.124h-8.248v-4.121h12.372v12.37H68.073v-8.249h-1.6zm4.789-8.245c.847-1.385 1.706-2.76 2.582-4.124h31.338v4.124h-33.92zm311.401 20.615h37.109v8.248h-37.109v-8.248zm0-24.739h53.602v4.124h-53.602v-4.124zm0 20.618v-12.37h20.618v8.245h12.367v-4.124h-8.246v-4.121h12.373v12.37h-20.621v-8.249h-12.367v8.249h-4.124zm8.245-4.125h4.125v4.125h-4.125v-4.125zm-91.014 8.246h37.108v8.248h-37.108v-8.248zm41.229 0h37.109v8.248h-37.109v-8.248zm-41.229-24.739h53.602v4.124h-53.602v-4.124zm0 20.618v-12.37h20.615v8.245h12.369v-4.124h-8.248v-4.121h12.372v12.37h-20.618v-8.249h-12.366v8.249h-4.124zm8.245-4.125h4.121v4.125h-4.121v-4.125zm45.357 4.125h-12.373v-12.37h16.494v-8.248h4.124v16.493h4.122v-16.493h4.123v16.493h4.122v-16.493h4.127v20.618h-20.618v-8.249h-12.369v4.124h8.248v4.125zm-136.375 4.121h37.109v8.248h-37.109v-8.248zm41.233 0h37.108v8.248h-37.108v-8.248zm-41.233-24.739h53.603v4.124h-53.603v-4.124zm0 20.618v-12.37h20.615v8.245h12.372v-4.124h-8.248v-4.121h12.373v12.37h-20.618v-8.249h-12.37v8.249h-4.124zm8.246-4.125h4.124v4.125h-4.124v-4.125zm45.357 4.125h-12.37v-12.37h16.491v-8.248h4.127v16.493h4.121v-16.493h4.124v16.493h4.121v-16.493h4.127v20.618h-20.62v-8.249h-12.367v4.124h8.246v4.125zm-136.375 4.121h37.111v8.248h-37.111v-8.248zm41.235 0h37.109v8.248h-37.109v-8.248zm-41.235-24.739h53.605v4.124h-53.605v-4.124zm0 20.618v-12.37h20.621v8.245h12.366v-4.124h-8.245v-4.121h12.369v12.37h-20.617v-8.249h-12.367v8.249h-4.127zm8.248-4.125h4.124v4.125h-4.124v-4.125zm45.357 4.125h-12.37v-12.37h16.491v-8.248h4.125v16.493h4.121v-16.493h4.124v16.493h4.124v-16.493h4.124v20.618h-20.618v-8.249h-12.369v4.124h8.248v4.125zm-95.142 4.121h37.109v8.248H92.812v-8.248zm12.37-4.121h-12.37v-12.37h16.494v-8.248h4.124v16.493h4.121v-16.493h4.127v16.493h4.121v-16.493h4.122v20.618h-20.615v-8.249h-12.37v4.124h8.246v4.125zM455.256 340.565c-1.18 2.781-2.42 5.53-3.716 8.249h-29.787v-8.249h33.503zm-5.735 12.37a208.676 208.676 0 01-3.029 5.83v-5.83h3.029zm-7.151 13.096a215.895 215.895 0 01-4.124 6.716v-7.443h-12.369v4.125h8.245v4.124h-12.369v-12.37h16.493v-8.248h4.124v13.096zm-368.086 7.522a225.376 225.376 0 01-2.606-4.124h11.968v-4.125H75.4v-4.121h12.37v12.37H74.284zm-3.008-4.771a215.553 215.553 0 01-4.428-7.599h4.428v7.599zm-6.669-11.723a210.984 210.984 0 01-2.128-4.124h41.785v4.124H64.607zm-4.144-8.245a209.415 209.415 0 01-3.717-8.249H87.77v8.249H60.463zm320.057 4.121h53.602v4.124H380.52v-4.124zm0 20.618v-12.37h20.618v8.246h12.366v-4.125h-8.245v-4.121h12.37v12.37H397.01v-8.249h-12.366v8.249h-4.124zm8.248-4.124h4.121v4.124h-4.121v-4.124zm-8.248-28.864h37.109v8.249H380.52v-8.249zm-82.466 12.37h53.603v4.124h-53.603v-4.124zm0 20.618v-12.37h20.618v8.246h12.367v-4.125h-8.243v-4.121h12.367v12.37h-20.615v-8.249h-12.369v8.249h-4.125zm8.249-4.124h4.121v4.124h-4.121v-4.124zm45.354 4.124h-12.37v-12.37h16.494v-8.248h4.124v16.494h4.121v-16.494h4.124v16.494h4.122v-16.494h4.127v20.618h-20.618v-8.249h-12.37v4.125h8.246v4.124zm-53.603-32.988h37.112v8.249h-37.112v-8.249zm41.233 0h37.112v8.249h-37.112v-8.249zm-123.698 12.37h53.602v4.124h-53.602v-4.124zm0 20.618v-12.37h20.618v8.246h12.37v-4.125h-8.246v-4.121H252.7v12.37h-20.617v-8.249h-12.367v8.249h-4.127zm8.248-4.124h4.125v4.124h-4.125v-4.124zm45.354 4.124h-12.369v-12.37h16.494v-8.248h4.124v16.494h4.121v-16.494h4.124v16.494h4.121v-16.494h4.127v20.618h-20.617v-8.249h-12.37v4.125h8.245v4.124zm-53.602-32.988H252.7v8.249h-37.111v-8.249zm41.233 0h37.111v8.249h-37.111v-8.249zm-123.698 12.37h53.602v4.124h-53.602v-4.124zm0 20.618v-12.37h20.617v8.246h12.37v-4.125h-8.245v-4.121h12.369v12.37h-20.617v-8.249h-12.367v8.249h-4.127zm8.248-4.124h4.124v4.124h-4.124v-4.124zm45.354 4.124H174.36v-12.37h16.49v-8.248h4.124v16.494h4.121v-16.494h4.128v16.494h4.121v-16.494h4.124v20.618H190.85v-8.249h-12.366v4.125h8.242v4.124zm-53.602-32.988h37.111v8.249h-37.111v-8.249zm41.232 0h37.112v8.249h-37.112v-8.249zm-70.092 32.988h-12.37v-12.37h16.491v-8.248h4.127v16.494h4.121v-16.494h4.124v16.494h4.121v-16.494h4.125v20.618h-20.618v-8.249H96.018v4.125h8.246v4.124zm-12.37-32.988h37.109v8.249H91.894v-8.249z"/><path fill="#DA0000" d="M295.736 300.164a50.597 50.597 0 0025.308-43.829c0-23.217-15.804-43.479-38.32-49.114a66.294 66.294 0 0126.448 52.971 66.242 66.242 0 01-13.436 39.972zm-81.942 0a50.597 50.597 0 01-25.308-43.829c0-23.217 15.804-43.479 38.319-49.114a66.294 66.294 0 00-26.448 52.971 66.243 66.243 0 0013.437 39.972zm40.934-105.09a9.028 9.028 0 01-7.814 4.508 9.066 9.066 0 01-8.891-7.389 9.643 9.643 0 00-.677 3.557 9.567 9.567 0 009.568 9.567c3.105 0 6.036-1.527 7.851-4.064 1.816 2.537 4.746 4.064 7.851 4.064a9.567 9.567 0 009.568-9.567c0-1.203-.225-2.43-.676-3.557-.802 4.283-4.559 7.389-8.892 7.389-3.23 0-6.285-1.729-7.888-4.508zm36.357 116.684a60.876 60.876 0 01-18.705 2.958c-4.243 0-8.383-.439-12.379-1.274l-.084 2.062-5.156 7.097-5.156-7.097-.083-2.06a60.553 60.553 0 01-12.372 1.272 60.876 60.876 0 01-18.705-2.958c1.052.05 2.175.077 3.227.077a66.104 66.104 0 0022.707-3.996c-19.272-10.102-32.433-30.301-32.433-53.558a60.464 60.464 0 0121.014-45.808 66.137 66.137 0 00-11.371 37.092c0 22.052 10.781 41.591 27.356 53.638l-2.005-49.522-.005-38.954a20.357 20.357 0 007.826-6.562 20.353 20.353 0 007.827 6.562l-.005 38.954-2.006 49.528c16.58-12.046 27.365-31.588 27.365-53.644a66.145 66.145 0 00-11.371-37.092 60.467 60.467 0 0121.013 45.808c0 23.257-13.16 43.456-32.433 53.558a66.104 66.104 0 0022.707 3.996c1.052 0 2.175-.027 3.227-.077z"/></g></svg>