<svg xmlns="http://www.w3.org/2000/svg" shape-rendering="geometricPrecision" text-rendering="geometricPrecision" image-rendering="optimizeQuality" fill-rule="evenodd" clip-rule="evenodd" viewBox="0 0 512 512"><g fill-rule="nonzero"><path fill="#4D4D4D" d="M256 0c70.684 0 134.689 28.664 181.012 74.987C483.336 121.311 512 185.316 512 256c0 70.684-28.664 134.689-74.988 181.013C390.689 483.336 326.684 512 256 512c-70.677 0-134.689-28.664-181.013-74.987C28.664 390.689 0 326.676 0 256c0-70.684 28.664-134.689 74.987-181.013C121.311 28.664 185.316 0 256 0z"/><path fill="#fff" d="M256.001 19.597c65.278 0 124.382 26.466 167.162 69.242 42.776 42.78 69.242 101.884 69.242 167.162S465.939 380.384 423.16 423.16c-42.777 42.78-101.881 69.246-167.159 69.246-65.278 0-124.382-26.466-167.162-69.243-42.777-42.779-69.243-101.884-69.243-167.162S46.062 131.619 88.839 88.839c42.78-42.776 101.884-69.242 167.162-69.242z"/><path fill="#CD1125" d="M460.177 184.155H51.825C81.453 99.957 161.668 39.594 256.001 39.594c94.33 0 174.545 60.363 204.176 144.561z"/><path d="M52.433 329.584h407.136c-30.112 83.294-109.888 142.824-203.568 142.824-93.683 0-173.456-59.53-203.568-142.824z"/><path fill="#017B3D" d="M251.827 287.442h-106.59c-.778 7.006-7.617 12.358-15.792 12.358-1.459 0-2.912-.175-4.314-.516 14.928-7.326 13.992-14.763 4.572-31.288 5.234-1.873 6.06-2.369 11.348-5.95-3.746 11.348 9.695 9.971 19.611 9.971 0-3.966.385-8.483-2.589-9.09 3.855-1.376 4.186-1.817 10.301-6.995v15.258l73.538.001v-10.466a2.203 2.203 0 10-4.407 0v6.059c0 .912-.74 1.653-1.652 1.653h-56.188v-9.915l42.196-40.764c-.275 2.094 4.076 7.712 5.894 8.649-1.377.22-2.919-.055-3.911.936l-34.539 33.382h38.285c0-8.868 8.262-8.868 12.119-12.009 3.856 3.141 12.118 3.141 12.118 12.009v26.717zm7.988 0v-69.684c3.911 2.149 6.941 4.627 11.788 5.839-.22 2.755-2.699 3.636-2.699 5.564v42.857c5.398 1.212 6.61-1.928 9.199-3.526.661 6.831 5.013 13.552 4.848 18.95h-23.136zm72.824-46.548l8.537-7.161v37.459l6.06-.001V228.61c2.975-2.479 6.831-5.178 8.538-8.318v67.15h-53.708c-.771-13.882-.771-28.149 15.424-25.064v-5.674c0-1.322-1.983-.275-1.983-1.487l11.072-9.255v25.229h6.06v-30.297zm-2.81-19.169c-1.047.054-2.644-5.675-2.258-6.776.385-1.267 1.818-1.267 2.423-.661.992.937.881 7.381-.165 7.437zm-9.971 7.767c-3.029-1.763-2.533-2.479.111-1.708 4.572 1.377 6.885.22 10.191-3.14l2.479 1.267c3.25 1.652 5.233.936 6.389-3.03.331-1.212 1.323-.881 1.598.496 1.046 5.509-3.14 7.216-7.382 5.674-2.313-.771-2.699-.771-3.855.11-2.534 1.983-6.17 2.314-9.53.331h-.001zm43.904 57.95v-69.684c3.911 2.149 6.941 4.627 11.788 5.839-.22 2.755-2.699 3.636-2.699 5.564v42.857c5.398 1.212 6.61-1.928 9.199-3.526.661 6.831 5.013 13.552 4.848 18.95h-23.136zm-208.83 7.712a3.25 3.25 0 116.502.002 3.25 3.25 0 01-6.502-.003v.001zm157.6-25.339c0 1.033 1.11 1.872 2.478 1.872 1.369 0 2.479-.839 2.479-1.873s-1.11-1.873-2.479-1.873c-1.368 0-2.478.839-2.478 1.873v.001z"/></g></svg>