<svg xmlns="http://www.w3.org/2000/svg" shape-rendering="geometricPrecision" text-rendering="geometricPrecision" image-rendering="optimizeQuality" fill-rule="evenodd" clip-rule="evenodd" viewBox="0 0 512 512.001"><defs><clipPath id="prefix__a"><path d="M256 39.593c119.519 0 216.407 96.888 216.407 216.407S375.519 472.407 256 472.407c-119.518 0-216.406-96.888-216.406-216.407S136.482 39.593 256 39.593z"/></clipPath></defs><path fill="#4D4D4D" fill-rule="nonzero" d="M256 0c70.684 0 134.689 28.664 181.013 74.988C483.336 121.311 512 185.317 512 256c0 70.684-28.664 134.69-74.987 181.013-46.324 46.324-110.329 74.988-181.013 74.988-70.676 0-134.689-28.664-181.013-74.988C28.664 390.69 0 326.677 0 256c0-70.683 28.664-134.689 74.987-181.012C121.311 28.664 185.316 0 256 0z"/><path fill="#fff" fill-rule="nonzero" d="M256.002 19.597c65.277 0 124.382 26.466 167.162 69.242 42.776 42.78 69.242 101.885 69.242 167.163s-26.466 124.382-69.245 167.159c-42.777 42.779-101.882 69.246-167.159 69.246-65.279 0-124.383-26.467-167.163-69.243-42.776-42.78-69.243-101.884-69.243-167.162S46.063 131.619 88.839 88.839c42.78-42.776 101.884-69.242 167.163-69.242z"/><g fill-rule="nonzero" clip-path="url(#prefix__a)"><path fill="#007749" d="M-112.178 34.908h736.382v438.278h-736.382z"/><path d="M-112.177 473.186L624.204 34.908v438.278h-.001L-112.178 34.909v438.277z"/><path fill="#FFB81C" d="M-125.841 440.658l313.537-186.611-313.537-186.61L-98.514 2.38l354.527 211.007L610.541 2.38l27.326 65.057-313.538 186.61 313.538 186.611-27.327 65.057-354.527-211.007-354.527 211.007z"/></g><path fill="none" d="M256 39.593c119.519 0 216.407 96.888 216.407 216.407S375.519 472.407 256 472.407c-119.518 0-216.406-96.888-216.406-216.407S136.482 39.593 256 39.593z"/></svg>