<?xml version="1.0" encoding="UTF-8"?>
<!-- Generated by Pixelmator Pro 3.1.1 -->
<svg width="512" height="512" viewBox="0 0 512 512" xmlns="http://www.w3.org/2000/svg" xmlns:xlink="http://www.w3.org/1999/xlink">
    <path id="Path" fill="#4d4d4d" stroke="none" d="M 256 0 C 326.68399 0 390.688995 28.664001 437.011993 74.987 C 483.335999 121.311005 512 185.315979 512 256 C 512 326.68399 483.335999 390.688995 437.011993 437.013 C 390.688995 483.335999 326.68399 512 256 512 C 185.322998 512 121.310997 483.335999 74.987 437.013 C 28.664 390.688995 0 326.675995 0 256 C 0 185.315979 28.664 121.311005 74.987 74.987 C 121.310997 28.664001 185.315994 0 256 0 Z"/>
    <path id="path1" fill="#ffffff" stroke="none" d="M 256.001007 19.596985 C 321.278992 19.596985 380.382996 46.062988 423.162994 88.838989 C 465.938995 131.619019 492.404999 190.723022 492.404999 256.001007 C 492.404999 321.278992 465.938995 380.384003 423.160004 423.160004 C 380.382996 465.940002 321.278992 492.406006 256.001007 492.406006 C 190.723007 492.406006 131.619003 465.940002 88.838997 423.162994 C 46.062 380.384003 19.596001 321.278992 19.596001 256.001007 C 19.596001 190.723022 46.062 131.619019 88.838997 88.838989 C 131.619003 46.062988 190.723007 19.596985 256.001007 19.596985 Z"/>
    <path id="Path-copy-2" fill="#2394e0" fill-rule="evenodd" stroke="none" d="M 256.299042 40.220001 C 375.805115 40.220001 472.699036 137.113922 472.699036 256.619995 C 472.699036 376.126068 375.805115 473.019989 256.299042 473.019989 C 136.792969 473.019989 39.899029 376.126068 39.899029 256.619995 C 39.899029 137.113922 136.792969 40.220001 256.299042 40.220001 L 256.299042 40.220001 L 256.299042 40.220001 Z"/>
    <path id="Path-copy" fill="#a1e367" fill-rule="evenodd" stroke="none" d="M 86.612183 366.117676 C 74.007523 347.00177 64.571442 325.587769 59.035141 302.641724 L 96.709831 320.817505 L 96.918747 332.064209 C 96.918747 336.207703 89.885208 344.982239 87.621948 348.32489 L 86.612183 366.117676 L 86.612183 366.117676 L 86.612183 366.117676 Z M 318.335876 64.302338 C 390.133667 88.153687 443.99942 151.351074 454.37561 228.302124 L 447.585846 227.570923 C 446.367157 232.793854 445.25293 232.898315 445.25293 239.165833 C 445.25293 244.702118 452.216827 248.392975 452.216827 260.057495 C 452.216827 263.191254 444.869904 269.42395 444.556519 270.538177 L 433.658051 257.75943 L 433.658051 274.020142 L 432.021515 273.9505 L 429.09668 243.936096 L 423.003296 245.851166 L 415.760834 223.53186 L 391.909485 248.462616 L 391.63092 266.708008 L 383.83136 271.930939 L 375.544312 225.133545 L 370.599945 228.754791 L 359.388062 213.608307 L 342.639893 214.095795 L 336.233093 206.748871 L 329.652222 208.559479 L 316.734192 193.7612 L 314.227173 195.467346 L 322.235657 215.941223 L 331.532471 215.941223 L 331.532471 211.310242 L 336.163452 211.310242 C 339.506134 220.572205 343.12735 215.070709 343.12735 220.607025 C 343.12735 239.931824 319.276031 254.138184 303.642059 257.75943 C 304.477722 261.241394 304.164337 264.723328 308.273041 264.723328 C 317.012756 264.723328 312.660309 263.191254 322.200836 262.390411 C 321.748199 282.133057 299.568176 305.705872 290.09726 320.364868 L 294.345245 350.623016 C 295.459473 357.203888 280.696014 364.132965 275.682007 371.5495 L 278.084564 383.144409 L 271.294769 385.895142 C 270.110901 397.803406 258.550812 411 245.563156 411 L 231.635361 411 C 231.635361 394.704468 220.005646 371.410217 220.005646 359.88501 C 220.005646 350.100708 224.636642 348.777557 224.636642 336.6604 C 224.636642 325.448486 213.041748 309.396729 213.041748 306.471893 L 213.041748 287.878296 L 203.744949 287.878296 C 202.352158 282.690186 203.222656 280.914368 196.781052 280.914368 L 194.448135 280.914368 C 184.315674 280.914368 186.021835 285.54538 175.854523 285.54538 L 166.557739 285.54538 C 158.166229 285.54538 143.33313 258.664734 143.33313 255.356873 L 143.33313 227.501282 C 143.33313 215.488556 154.33609 202.396423 161.926727 197.312775 L 161.926727 185.717896 L 172.372574 175.097961 L 178.187439 174.123016 C 190.652817 174.123016 189.155579 167.159119 196.781052 167.159119 L 217.672745 167.159119 L 217.672745 183.41983 L 240.65361 193.238922 L 242.812408 183.315369 C 253.223434 185.752716 255.939362 190.383728 268.75293 190.383728 L 273.383942 190.383728 C 282.193268 190.383728 282.680725 178.684357 282.680725 169.492035 L 264.087128 171.337463 L 255.974182 153.718811 L 247.930878 155.842773 C 249.393295 162.145111 250.159317 159.53363 250.159317 164.861023 C 250.159317 167.994781 247.582687 168.342987 245.493515 169.492035 L 237.450211 149.087799 L 220.144928 136.726868 L 217.846832 138.990143 L 232.575485 154.484833 C 230.62558 160.055939 230.381851 176.107727 222.268921 164.861023 L 229.859573 161.204987 L 210.917755 141.35788 L 199.566605 145.779938 L 188.354721 156.504333 C 187.170868 165.139587 184.837967 169.492035 175.784882 169.492035 C 169.761124 169.492035 173.382355 167.92514 164.155182 167.159119 L 164.155182 143.934509 L 185.046875 143.934509 L 178.25708 128.47467 L 175.750076 130.006714 L 175.750076 125.340912 L 209.699081 109.70697 C 209.072327 104.832245 208.271484 107.443695 208.271484 102.116302 C 208.271484 101.802917 210.534744 97.520142 210.604385 97.4505 L 219.378891 102.917145 L 217.289734 92.923981 L 203.744949 95.709503 L 201.237946 83.557526 C 211.962341 77.916748 235.604767 58 243.125778 58 L 250.089676 58 C 257.436584 58 277.074799 65.242462 280.278168 69.59491 L 261.64975 67.71463 L 275.473083 79.100616 L 276.796234 74.225891 L 287.102783 71.405518 L 287.242065 64.963898 L 291.907898 64.963898 L 291.907898 71.927795 L 318.335876 64.302338 L 318.335876 64.302338 L 318.335876 64.302338 Z"/>
</svg>
