<svg xmlns="http://www.w3.org/2000/svg" shape-rendering="geometricPrecision" text-rendering="geometricPrecision" image-rendering="optimizeQuality" fill-rule="evenodd" clip-rule="evenodd" viewBox="0 0 512 512"><g fill-rule="nonzero"><path fill="#4D4D4D" d="M256 0c70.684 0 134.689 28.664 181.013 74.987C483.336 121.311 512 185.316 512 256c0 70.684-28.664 134.69-74.987 181.013C390.689 483.337 326.684 512 256 512c-70.677 0-134.69-28.663-181.013-74.987C28.663 390.69 0 326.676 0 256c0-70.684 28.663-134.689 74.987-181.013C121.31 28.664 185.316 0 256 0z"/><path fill="#fff" d="M256.001 19.596c65.278 0 124.383 26.466 167.162 69.243 42.777 42.779 69.243 101.884 69.243 167.162s-26.466 124.383-69.246 167.16c-42.776 42.779-101.881 69.245-167.159 69.245-65.278 0-124.383-26.466-167.162-69.242-42.777-42.78-69.243-101.885-69.243-167.163S46.062 131.618 88.839 88.839c42.779-42.777 101.884-69.243 167.162-69.243z"/><path fill="#169B62" d="M175.454 55.093V456.91c-79.628-31.951-135.86-109.858-135.86-200.909 0-91.05 56.232-168.954 135.86-200.908z"/><path fill="#fff" d="M336.574 55.105v401.793c-24.905 9.999-52.094 15.51-80.573 15.51-28.471 0-55.648-5.505-80.547-15.498V55.093c24.899-9.99 52.076-15.499 80.547-15.499 28.479 0 55.668 5.512 80.573 15.511z"/><path fill="#FF883E" d="M336.574 456.898V55.105c79.61 31.96 135.834 109.855 135.834 200.896 0 91.039-56.224 168.937-135.834 200.897z"/></g></svg>