<svg xmlns="http://www.w3.org/2000/svg" shape-rendering="geometricPrecision" text-rendering="geometricPrecision" image-rendering="optimizeQuality" fill-rule="evenodd" clip-rule="evenodd" viewBox="0 0 512 420.166"><path d="M74.316 0h363.368C478.549 0 512 33.458 512 74.316V345.85c0 40.814-33.501 74.316-74.316 74.316H74.316C33.439 420.166 0 386.689 0 345.85V74.316C0 33.408 33.408 0 74.316 0zm164.076 173.674h-34.616v111.019h-47.75V173.674h-34.617v-38.195h116.983v38.195zm152.205 111.019h-52.525l-19.581-44.406h-10.267v44.406H260.48V135.479h75.202c34.219 0 51.329 17.426 51.329 52.283 0 23.872-7.4 39.632-22.2 47.273l25.786 49.658zm-82.373-111.019v29.848h10.986c5.728 0 9.908-.601 12.533-1.796 2.626-1.189 3.939-3.938 3.939-8.236v-9.784c0-4.298-1.313-7.047-3.939-8.236-2.625-1.195-6.805-1.796-12.533-1.796h-10.986z"/></svg>