<?xml version="1.0" encoding="UTF-8"?>
<!DOCTYPE svg PUBLIC "-//W3C//DTD SVG 1.1//EN" "http://www.w3.org/Graphics/SVG/1.1/DTD/svg11.dtd">
<!-- Creator: CorelDRAW -->
<svg xmlns="http://www.w3.org/2000/svg" xml:space="preserve" width="512px" height="512px" version="1.1" shape-rendering="geometricPrecision" text-rendering="geometricPrecision" image-rendering="optimizeQuality" fill-rule="evenodd" clip-rule="evenodd"
viewBox="0 0 512 512"
 xmlns:xlink="http://www.w3.org/1999/xlink"
 xmlns:xodm="http://www.corel.com/coreldraw/odm/2003">
 <g id="Layer_x0020_1">
  <metadata id="CorelCorpID_0Corel-Layer"/>
  <g id="_2300072032224">
   <path fill="#4D4D4D" fill-rule="nonzero" d="M256 0c70.684,0 134.689,28.664 181.012,74.987 46.324,46.324 74.988,110.329 74.988,181.013 0,70.684 -28.664,134.689 -74.988,181.013 -46.323,46.323 -110.328,74.987 -181.012,74.987 -70.677,0 -134.689,-28.664 -181.013,-74.987 -46.323,-46.324 -74.987,-110.337 -74.987,-181.013 0,-70.684 28.664,-134.689 74.987,-181.013 46.324,-46.323 110.329,-74.987 181.013,-74.987z"/>
   <path fill="white" fill-rule="nonzero" d="M256.001 19.597c65.278,0 124.382,26.466 167.162,69.242 42.777,42.78 69.242,101.884 69.242,167.162 0,65.278 -26.465,124.383 -69.245,167.159 -42.777,42.78 -101.881,69.246 -167.159,69.246 -65.278,0 -124.383,-26.466 -167.162,-69.243 -42.777,-42.779 -69.243,-101.884 -69.243,-167.162 0,-65.278 26.466,-124.382 69.243,-167.162 42.779,-42.776 101.884,-69.242 167.162,-69.242z"/>
   <path fill="#CF142B" fill-rule="nonzero" d="M460.159 327.901c-29.642,84.171 -109.849,144.507 -204.158,144.507 -94.312,0 -174.516,-60.336 -204.158,-144.507l408.316 0z"/>
   <path fill="#00247D" fill-rule="nonzero" d="M460.159 327.901l-408.316 0c-7.924,-22.498 -12.249,-46.691 -12.249,-71.9 0,-25.692 4.484,-50.331 12.703,-73.195l407.408 0c8.216,22.864 12.703,47.503 12.703,73.195 0,25.209 -4.325,49.402 -12.249,71.9z"/>
   <path fill="#FFCC00" fill-rule="nonzero" d="M459.705 182.806l-407.408 0c30.006,-83.496 109.876,-143.212 203.704,-143.212 93.825,0 173.698,59.716 203.704,143.212z"/>
   <path fill="white" fill-rule="nonzero" d="M281.826 195.949l-6.188 11.631 -12.974 -2.288 9.151 9.48 -6.187 11.637 11.847 -5.777 9.152 9.476 -1.837 -13.042 11.847 -5.778 -12.977 -2.288 -1.834 -13.051zm-56.448 34.159l1.834 -13.042 -11.845 -5.778 12.975 -2.288 1.837 -13.051 6.184 11.631 12.978 -2.288 -9.155 9.482 6.188 11.635 -11.844 -5.777 -9.152 9.476zm-36.565 17.249l-2.739 -12.886 -13.102 -1.378 11.407 -6.59 -2.737 -12.888 9.79 8.815 11.415 -6.59 -5.36 12.039 9.792 8.821 -13.108 -1.382 -5.358 12.039zm-28.456 28.713l-6.981 -11.177 -12.789 3.189 8.473 -10.094 -6.985 -11.177 12.222 4.939 8.466 -10.093 -0.918 13.143 12.216 4.936 -12.785 3.188 -0.919 13.146zm-16.924 36.713l-10.383 -8.113 -10.923 7.366 4.508 -12.378 -10.386 -8.116 13.167 0.461 4.511 -12.382 3.634 12.665 13.166 0.463 -10.922 7.366 3.628 12.668zm217.841 -20.034l13.167 -0.463 3.634 -12.665 4.511 12.382 13.166 -0.461 -10.385 8.113 4.508 12.381 -10.923 -7.366 -10.383 8.113 3.628 -12.665 -10.923 -7.369zm-23.334 -33.013l12.22 -4.936 -0.919 -13.143 8.467 10.093 12.222 -4.939 -6.985 11.18 8.473 10.091 -12.792 -3.186 -6.982 11.174 -0.918 -13.146 -12.786 -3.188zm-33.217 -23.036l9.795 -8.821 -5.364 -12.039 11.416 6.59 9.793 -8.815 -2.74 12.888 11.41 6.59 -13.105 1.378 -2.739 12.886 -5.358 -12.039 -13.108 1.382z"/>
  </g>
 </g>
</svg>
