<?xml version="1.0" encoding="UTF-8"?>
<!-- Generated by Pixelmator Pro 3.1.1 -->
<svg width="1944" height="1944" viewBox="0 0 1944 1944" xmlns="http://www.w3.org/2000/svg" xmlns:xlink="http://www.w3.org/1999/xlink">
    <g id="Group">
        <path id="Path" fill="#bdc3c7" stroke="none" d="M 405 162.001953 C 315.527405 162.001953 243 234.903931 243 324.001953 L 243 972.002014 L 243 1296.001953 L 243 1782.001953 C 243 1871.099976 315.527405 1944.001953 405 1944.001953 L 1539 1944.001953 C 1628.505005 1944.001953 1701 1871.099976 1701 1782.001953 L 1701 1296.001953 L 1701 972.002014 L 1701 648.001953 L 1701 324.001953 C 1701 234.903931 1628.505005 162.001953 1539 162.001953 L 1215 162.001953 L 405 162.001953 Z"/>
        <g id="g1">
            <path id="path1" fill="#95a5a6" stroke="none" d="M 486 0.001953 C 441.263702 0.001953 405 32.403931 405 81.001953 L 405 324.001953 C 405 364.501953 441.263702 405.001953 486 405.001953 C 530.736328 405.001953 567 364.501953 567 324.001953 L 567 81.001953 C 567 32.403931 530.736328 0.001953 486 0.001953 Z M 810 0.001953 C 765.263672 0.001953 729 32.403931 729 81.001953 L 729 324.001953 C 729 364.501953 765.263672 405.001953 810 405.001953 C 854.711975 405.001953 891 364.501953 891 324.001953 L 891 81.001953 C 891 32.403931 854.711975 0.001953 810 0.001953 Z M 1134 0.001953 C 1089.287964 0.001953 1053 32.403931 1053 81.001953 L 1053 324.001953 C 1053 364.501953 1089.287964 405.001953 1134 405.001953 C 1178.712036 405.001953 1215 364.501953 1215 324.001953 L 1215 81.001953 C 1215 32.403931 1178.712036 0.001953 1134 0.001953 Z M 1458 0.001953 C 1413.287964 0.001953 1377 32.403931 1377 81.001953 L 1377 324.001953 C 1377 364.501953 1413.287964 405.001953 1458 405.001953 C 1502.712036 405.001953 1539 364.501953 1539 324.001953 L 1539 81.001953 C 1539 32.403931 1502.712036 0.001953 1458 0.001953 Z"/>
            <path id="path2" fill="#95a5a6" stroke="none" d="M 486 1215.001953 L 1458 1215.001953 L 1458 1296.001953 L 486 1296.001953 Z"/>
            <path id="path3" fill="#95a5a6" stroke="none" d="M 486 972.002014 L 1458 972.002014 L 1458 1053.001953 L 486 1053.001953 Z"/>
            <path id="path4" fill="#95a5a6" stroke="none" d="M 486 729.001953 L 1458 729.001953 L 1458 810.001953 L 486 810.001953 Z"/>
            <path id="path5" fill="#95a5a6" stroke="none" d="M 486 1458 L 810 1458 L 810 1539 L 486 1539 Z"/>
        </g>
        <path id="path6" fill="#7f8c8d" stroke="none" d="M 405 324.001953 C 405 364.501953 441.263702 405.001953 486 405.001953 C 530.736328 405.001953 567 364.501953 567 324.001953 L 405 324.001953 Z M 729 324.001953 C 729 364.501953 765.263672 405.001953 810 405.001953 C 854.711975 405.001953 891 364.501953 891 324.001953 L 729 324.001953 Z M 1053 324.001953 C 1053 364.501953 1089.287964 405.001953 1134 405.001953 C 1178.712036 405.001953 1215 364.501953 1215 324.001953 L 1053 324.001953 Z M 1377 324.001953 C 1377 364.501953 1413.287964 405.001953 1458 405.001953 C 1502.712036 405.001953 1539 364.501953 1539 324.001953 L 1377 324.001953 Z"/>
        <path id="path7" fill="#95a5a6" stroke="none" d="M 243 1701.001953 L 243 1782.001953 C 243 1871.099976 315.527405 1944.001953 405 1944.001953 L 1539 1944.001953 C 1628.505005 1944.001953 1701 1871.099976 1701 1782.001953 L 1701 1701.001953 C 1701 1790.099976 1628.505005 1863.001953 1539 1863.001953 L 405 1863.001953 C 315.527405 1863.001953 243 1790.099976 243 1701.001953 Z"/>
        <g id="g2">
            <path id="path8" fill="#ecf0f1" stroke="none" d="M 1551.788208 564.26709 L 904.571106 1211.484253 L 864.477234 1251.578125 L 807.201294 1308.854004 L 807.201294 1537.957642 L 1036.305054 1537.957642 L 1093.580933 1480.681641 L 1133.674683 1440.587891 L 1780.891846 793.37085 L 1551.788208 564.26709 Z"/>
            <path id="path9" fill="#bdc3c7" stroke="none" d="M 1666.340088 678.81897 L 807.201294 1537.957642 L 1036.305054 1537.957642 L 1093.580933 1480.681641 L 1133.674683 1440.587891 L 1780.891846 793.37085 L 1666.340088 678.81897 Z"/>
            <path id="path10" fill="#e67e22" stroke="none" d="M 1494.512329 621.542969 L 1723.615967 850.646729 L 1093.580933 1480.681641 L 864.477234 1251.578125 Z"/>
            <path id="path11" fill="#7f8c8d" stroke="none" d="M 1838.167725 506.991211 C 1774.87793 443.701416 1672.069702 443.985596 1609.064087 506.991211 L 1551.788208 564.26709 L 1780.891846 793.37085 L 1838.167725 736.094849 C 1901.17334 673.089355 1901.45752 570.281128 1838.167725 506.991211 Z"/>
            <g id="g3">
                <path id="path12" fill="#34495e" stroke="none" d="M 806.859192 1377.240112 L 807.201294 1537.957642 L 967.918823 1538.299805 L 887.388977 1457.77002 L 806.859192 1377.240112 Z"/>
                <path id="path13" fill="#2c3e50" stroke="none" d="M 887.388977 1457.77002 L 807.201294 1537.957642 L 967.918884 1538.299805 L 887.388977 1457.77002 Z"/>
            </g>
            <path id="path14" fill="#95a5a6" stroke="none" d="M 1838.167725 506.991211 C 1774.87793 443.701416 1672.069702 443.985596 1609.064087 506.991211 L 1551.788208 564.26709 L 1666.340088 678.81897 L 1838.167725 506.991211 Z"/>
            <path id="path15" fill="#d35400" stroke="none" d="M 1609.064087 736.094849 L 1723.615967 850.646729 L 1093.580933 1480.681641 L 979.029053 1366.129883 Z"/>
        </g>
    </g>
</svg>
