<svg xmlns="http://www.w3.org/2000/svg" shape-rendering="geometricPrecision" text-rendering="geometricPrecision" image-rendering="optimizeQuality" fill-rule="evenodd" clip-rule="evenodd" viewBox="0 0 512 512"><g fill-rule="nonzero"><path fill="#4D4D4D" d="M256 0c70.683 0 134.689 28.664 181.013 74.987C483.336 121.311 512 185.316 512 256c0 70.683-28.664 134.689-74.987 181.013C390.689 483.336 326.683 512 256 512c-70.676 0-134.689-28.664-181.013-74.987C28.664 390.689 0 326.676 0 256c0-70.684 28.664-134.689 74.987-181.013C121.311 28.664 185.316 0 256 0z"/><path fill="#fff" d="M256.001 19.597c65.278 0 124.383 26.465 167.162 69.242 42.777 42.779 69.243 101.885 69.243 167.162 0 65.278-26.466 124.383-69.246 167.159-42.776 42.78-101.881 69.246-167.159 69.246-65.278 0-124.383-26.466-167.162-69.243-42.777-42.779-69.242-101.884-69.242-167.162 0-65.277 26.465-124.383 69.242-167.162 42.779-42.777 101.884-69.242 167.162-69.242z"/><path fill="#F7E017" d="M256.001 39.6c119.514 0 216.401 96.887 216.401 216.401 0 119.514-96.887 216.401-216.401 216.401-119.514 0-216.401-96.887-216.401-216.401C39.6 136.487 136.487 39.6 256.001 39.6z"/><path fill="#fff" d="M41.575 285.248l418.257 43.568c8.13-22.755 12.57-47.264 12.57-72.815a216.75 216.75 0 00-6.418-52.468L84.487 124.055C56.348 160.579 39.6 206.331 39.6 256.001c0 9.919.682 19.679 1.975 29.247z"/><path d="M46.313 309.677l380.443 79.259c18.684-23.962 32.423-51.96 39.715-82.465L42.892 218.225a217.9 217.9 0 00-3.292 37.776c0 18.528 2.332 36.512 6.713 53.676z"/><path fill="#CF1126" d="M237.401 382.622c-11.712-1.555-22.449-5.281-29.908-10.387-1.446-.991-2.807-1.802-3.019-1.802-.217 0-.393 1.101-.393 2.462 0 3.853-1.549 5.795-5.444 6.805-3.726.968-9.413-.985-14.023-4.808-4.772-3.963-10.283-6.987-14.948-8.197-3.841-1.004-8.94-.841-12.624.393-1.712.575-3.66 1.385-4.338 1.803-.671.417-1.427.756-1.67.756-.653 0-.562-4.144.121-5.469.902-1.736 3.122-3.448 5.711-4.392 1.307-.478 2.377-1.088 2.377-1.36 0-.273-.441-1.271-.98-2.208-1.754-3.074-1.034-6.05 2.027-8.391 3.134-2.395 8.439-2.807 13.127-1.022 1.18.448 2.281.816 2.444.816.617 0 .242-.864-1.458-3.338-1.96-2.868-2.347-4.283-2.105-7.696.315-4.318 3.835-7.852 8.148-8.166 3.521-.254 5.711.932 10.907 5.88 15.517 14.797 32.388 22.951 52.066 25.159 4.967.556 14.96.26 20.822-.623 17.706-2.668 35.546-11.572 49.477-24.693 3.86-3.636 5.717-4.598 8.881-4.61 2.752-.011 4.682.877 6.653 3.055 1.797 1.996 2.408 3.89 2.214 6.92-.126 1.942-.441 2.898-1.596 4.78-1.706 2.776-1.415 3.03 1.96 1.723 4.561-1.778 10.181-.955 13.211 1.925 2.668 2.534 2.922 5.068.847 8.504-.756 1.258-1.373 2.438-1.373 2.626 0 .344.575.508 3.345.955 3.624.582 5.699 3.273 5.699 7.387 0 1.234-.152 2.238-.339 2.238-.181 0-1.555-.502-3.049-1.119-4.222-1.742-6.624-2.19-11.56-2.16-3.757.025-5.051.2-7.671 1.053-4.01 1.312-8.299 3.841-11.796 6.956-3.853 3.437-6.279 4.52-10.029 4.489-3.485-.036-5.868-1.046-7.126-3.037-.672-1.064-.769-1.712-.605-4.119.108-1.567.084-2.849-.043-2.849-.133 0-1.488.859-3.018 1.917-4.017 2.759-6.576 4.126-11.174 5.946-14.022 5.548-34.257 7.95-49.749 5.899l.001-.001zm140.488-60.384c1.529-.239 3.216 1.266 2.64 2.842-1.103 1.592-3.003 2.371-4.718 3.133-4.109 1.646-8.577 2.288-12.988 2.182 1.52-.005-.522.015-1.09-.001-3.493.01-6.967-.62-10.25-1.803-1.826-.642-4.152-1.225-4.901-3.244-.73-1.315.593-2.629 1.928-2.366 1.857.406 3.595 1.249 5.438 1.729 3.976 1.121 8.163 1.554 12.282 1.217 3.011-.368 5.93-1.331 8.717-2.506.965-.427 1.873-1.048 2.943-1.183h-.001zm-251.626 0c-1.529-.239-3.216 1.266-2.639 2.842 1.103 1.592 3.003 2.371 4.717 3.133 4.109 1.646 8.577 2.288 12.989 2.182-1.52-.005.522.015 1.09-.001 3.493.01 6.966-.62 10.25-1.803 1.825-.642 4.152-1.225 4.9-3.244.731-1.315-.593-2.629-1.927-2.366-1.858.406-3.595 1.249-5.439 1.729-3.975 1.121-8.162 1.554-12.281 1.217-3.012-.368-5.931-1.331-8.717-2.506-.966-.427-1.873-1.048-2.943-1.183zm1.7-6.279c-1.546-.23-2.878 1.55-2.233 2.97 1.189 1.722 3.186 2.64 5.055 3.447 3.249 1.3 6.777 1.843 10.268 1.739-1.326-.004.456.016.947 0a22.757 22.757 0 008.666-1.713c1.677-.653 3.732-1.285 4.43-3.131.542-1.015.129-2.49-1.149-2.57-1.167-.058-2.174.684-3.253 1.017-3.923 1.623-8.241 2.31-12.47 1.945-2.636-.339-5.154-1.311-7.544-2.438-.899-.434-1.706-1.111-2.716-1.265l-.001-.001zm2.087-6.019c-1.325-.159-2.237 1.337-2.014 2.53.199 1.048 1.138 1.753 1.918 2.396 3.223 2.358 7.309 3.361 11.267 3.23-1.538-.005 2.062.026.965-.004 2.506-.01 4.983-.624 7.238-1.709 1.506-.654 3.274-1.413 3.781-3.131.243-.802.394-1.952-.509-2.402-.946-.529-1.886.284-2.746.615-2.897 1.474-6.124 2.294-9.38 2.279-2.814.095-5.464-1.088-7.905-2.364-.886-.451-1.616-1.235-2.614-1.439l-.001-.001zm-22.231-88.845c-1.97 1.972-.466 5.608-.572 8.192 1.021 7.96 2.289 16.021 5.261 23.514 3.638 7.321 11.367 11.235 16.05 17.705 1.675 3.118 1.08 6.868 1.432 10.279.278 9.296.192 18.598.029 27.895 4.197 2.106 8.756 4.226 13.585 3.416 2.861-.684 8.173-1.109 8.769-3.959l-.595-48.096c-1.627-4.91-6.625-7.452-10.362-10.594a94.127 94.127 0 01-8.583-9.738c-1.585-2.674-7.784-3.635-5.541 1.013 1.314 4.026 4.67 7.023 5.51 11.253.184 2.318 2.951 6.581.589 7.933-1.503-2.554-3.679-4.727-6.462-6.024-2.682-1.998-7.114-2.83-8.082-6.361-.71-5.01-3.275-9.547-6.586-13.3.854-4.499.003-10.125-3.885-13l-.557-.129v.001zm5.995.9c-1.793.29-1.731 2.574-.902 3.775.882 2.594 1.122 5.411.644 8.111 3.187 3.73 5.654 8.193 6.398 13.091.018 1.841 1.956 2.45 3.212 3.36 2.946 1.877 6.26 3.237 8.884 5.586.553.59.969 1.226.579.021-.41-1.54-.62-3.241-1.828-4.407-1.654-1.778-3.72-3.365-6.13-3.907-.2-2.489-1.385-4.774-2.48-6.976-1.215-2.105-2.483-4.36-4.562-5.724.083-3.69.022-7.56-1.565-10.963-.465-.875-1.151-1.914-2.25-1.967zm5.015 1.471c-1.249.37-1.011 1.911-.615 2.853.599 2.61.692 5.307.643 7.975 2.294 1.815 3.727 4.446 5.034 7.009.819 1.712 1.596 3.479 1.909 5.363 1.862.616 3.489 1.781 4.943 3.071-.576-1.744-1.861-3.093-2.724-4.685-.939-1.656-1.835-3.382-2.232-5.258-1.79-1.91-2.775-4.615-2.384-7.23.08-2.889-.853-5.875-2.787-8.052-.486-.48-1.068-1.01-1.786-1.047l-.001.001zm5.704.816c-.678.12-1.092.766-1.455 1.293-.141.528.507 1.095.609 1.67a13.142 13.142 0 01.857 6.307c-.052 1.514.489 2.992 1.26 4.274.223-.946 1.099-1.624 2.049-1.718.345-.061.853.113.652-.414-.242-2.894-.683-5.806-1.694-8.541-.393-.976-.837-2.005-1.684-2.673-.172-.122-.377-.227-.595-.197l.001-.001zm251.656 91.677c1.547-.23 2.879 1.55 2.234 2.97-1.189 1.722-3.186 2.64-5.055 3.447-3.249 1.3-6.778 1.843-10.269 1.739 1.326-.004-.455.016-.946 0a22.766 22.766 0 01-8.667-1.713c-1.677-.653-3.731-1.285-4.43-3.131-.542-1.015-.128-2.49 1.15-2.57 1.167-.058 2.173.684 3.253 1.017 3.923 1.623 8.24 2.31 12.47 1.945 2.636-.339 5.153-1.311 7.544-2.438.898-.434 1.706-1.111 2.716-1.265v-.001zm-2.087-6.019c1.325-.159 2.237 1.337 2.014 2.53-.198 1.048-1.138 1.753-1.917 2.396-3.224 2.358-7.31 3.361-11.267 3.23 1.537-.005-2.063.026-.965-.004-2.507-.01-4.984-.624-7.239-1.709-1.505-.654-3.273-1.413-3.78-3.131-.243-.802-.395-1.952.508-2.402.946-.529 1.886.284 2.746.615 2.897 1.474 6.125 2.294 9.381 2.279 2.813.095 5.464-1.088 7.905-2.364.886-.451 1.616-1.235 2.614-1.439v-.001zm22.232-88.845c1.969 1.972.466 5.608.571 8.192-1.02 7.96-2.289 16.021-5.26 23.514-3.639 7.321-11.368 11.235-16.051 17.705-1.674 3.118-1.08 6.868-1.432 10.279-.277 9.296-.192 18.598-.029 27.895-4.197 2.106-8.755 4.226-13.584 3.416-2.862-.684-8.174-1.109-8.769-3.959l.595-48.096c1.627-4.91 6.624-7.452 10.361-10.594a94.01 94.01 0 008.583-9.738c1.586-2.674 7.785-3.635 5.542 1.013-1.315 4.026-4.67 7.023-5.51 11.253-.184 2.318-2.951 6.581-.589 7.933 1.502-2.554 3.679-4.727 6.461-6.024 2.682-1.998 7.114-2.83 8.082-6.361.711-5.01 3.276-9.547 6.586-13.3-.853-4.499-.003-10.125 3.885-13l.558-.129v.001zm-5.995.9c1.792.29 1.731 2.574.902 3.775-.882 2.594-1.123 5.411-.645 8.111-3.186 3.73-5.654 8.193-6.397 13.091-.019 1.841-1.957 2.45-3.213 3.36-2.946 1.877-6.259 3.237-8.883 5.586-.553.59-.97 1.226-.579.021.409-1.54.619-3.241 1.827-4.407 1.655-1.778 3.721-3.365 6.13-3.907.201-2.489 1.386-4.774 2.481-6.976 1.214-2.105 2.482-4.36 4.562-5.724-.083-3.69-.023-7.56 1.564-10.963.466-.875 1.151-1.914 2.251-1.967zm-5.015 1.471c1.249.37 1.01 1.911.615 2.853-.599 2.61-.692 5.307-.644 7.975-2.293 1.815-3.727 4.446-5.034 7.009-.818 1.712-1.595 3.479-1.909 5.363-1.861.616-3.489 1.781-4.943 3.071.576-1.744 1.862-3.093 2.724-4.685.939-1.656 1.836-3.382 2.233-5.258 1.789-1.91 2.775-4.615 2.384-7.23-.08-2.889.852-5.875 2.786-8.052.487-.48 1.069-1.01 1.787-1.047l.001.001zm-5.705.816c.679.12 1.092.766 1.456 1.293.14.528-.507 1.095-.61 1.67a13.142 13.142 0 00-.857 6.307c.053 1.514-.489 2.992-1.26 4.274-.223-.946-1.099-1.624-2.049-1.718-.345-.061-.853.113-.652-.414.242-2.894.683-5.806 1.695-8.541.392-.976.837-2.005 1.684-2.673.172-.122.377-.227.594-.197l-.001-.001zm-124.537-77.354l13.206 6.451-7.446-9.957 10.168-3.297-15.967-8.229-.001-.239c1.346-.295 2.224-.939 2.224-1.665 0-.992-1.639-1.827-3.871-1.827s-3.884.835-3.884 1.827c0 .628.662 1.195 1.712 1.527v29.506l3.896.018-.037-14.115zm-5.625 178.988c-8.162-.777-15.526-6.727-18.045-14.518.136-1.342 1.807.751 2.597.892 1.482.823 3.085 1.5 4.792 1.605 2.152.925 3.481 3.046 5.536 4.152.953.743 4.327 2.202 3.701-.16-.791-1.234-1.335-2.797-.654-4.211 1.145-2.51 2.905-4.697 4.677-6.791 1.302-.435 2.174 2.133 3.106 2.998 1.288 1.984 2.843 4.404 2.084 6.868-.737.913-1.223 3.658.751 2.736 2.433-1.071 4.426-2.87 6.444-4.548 1.765-1.233 4.025-1.32 5.874-2.402.858-.217 2.644-1.932 3.016-.982-1.013 2.716-2.711 5.147-4.525 7.388-2.94 3.357-6.916 5.882-11.365 6.594-2.629.482-5.327.584-7.99.38l.001-.001zm6.654-146.967l-3.103 2.456-2.783-2.099v13.598a21.773 21.773 0 01-1.664-1.536c-4.216-4.277-8.976-6.006-16.459-5.977-8.106.037-14.465 2.378-22.262 8.209-4.077 3.043-10.036 6.074-14.519 7.368-2.679.775-4.016.908-9.043.895-3.594-.005-6.575-.211-7.616-.52-.938-.272-1.809-.399-1.936-.272-.526.526 2.16 5.087 4.053 6.884 2.898 2.741 4.912 3.654 8.481 3.872 3.914.23 5.995-.4 13.424-4.053 5.783-2.843 9.055-3.914 11.191-3.66 1.657.194 1.566 1.029-.14 1.3-3.792.611-5.426 1.198-10.936 3.945-3.503 1.748-7.169 3.266-9.02 3.732-1.712.436-3.206.884-3.321.998-.121.115.127.847.551 1.628 2.443 4.536 10.035 4.93 15.069.78 4.294-3.545 11.487-6.915 15.11-7.072 1.87-.084 2.487.762.811 1.113-5.275 1.107-11.923 4.277-15.432 7.356-.81.708-2.038 1.597-2.722 1.96-.683.369-1.246.853-1.246 1.071 0 .829 2.463 3.151 3.811 3.599 1.911.629 6.213.272 8.402-.696.975-.429 2.832-1.754 4.121-2.946 4.385-4.028 10.168-7.791 11.971-7.791 1.391 0 .883.732-1.258 1.815-2.638 1.331-7.955 5.166-9.739 7.023-.757.793-1.948 1.797-2.656 2.233-1.537.955-1.61 1.844-.279 3.423 2.595 3.092 8.282 2.468 14.235-1.548 1.034-.702 4.143-3.575 6.908-6.389 3.466-3.526 5.154-4.99 5.432-4.712.284.285-.236 1.186-1.664 2.904-1.785 2.141-2.063 2.704-2.014 4.029.108 2.71 1.627 3.544 4.809 2.631 1.978-.569 2.232.042.835 1.978-.95 1.307-1.216 2.087-1.216 3.527 0 2.813.671 4.235 2.704 5.723.998.737 1.839 1.342 1.863 1.348.018.007.545-.792 1.168-1.778 1.79-2.825 3.405-2.843 5.245-.049.526.792 1.155 1.44 1.403 1.44.254 0 1.186-.623 2.075-1.379 2.861-2.45 3.206-6.013.87-8.923-1.566-1.948-1.191-2.535 1.198-1.887 2.335.628 3.473.248 4.156-1.398.774-1.857.382-3.146-1.663-5.432-1.652-1.851-2.154-3.007-1.301-3.007.23 0 2.462 2.124 4.967 4.719 6.406 6.648 10.483 9.171 15.71 9.721 2.619.278 4.639-.423 5.861-2.02 1.198-1.567 1.24-2.42.151-3.001-.46-.248-1.845-1.373-3.073-2.51-2.601-2.39-6.134-4.852-9.57-6.672-2.613-1.386-3.278-2.203-1.796-2.203 1.815 0 7.483 3.642 13.496 8.675 2.849 2.384 5.601 3.327 8.765 3 2.444-.254 4.701-1.548 5.596-3.218.539-1.01.526-1.131-.157-1.531-.406-.241-2.003-1.378-3.54-2.534-4.984-3.732-9.853-6.055-14.004-6.691-1.228-.187-1.802-.477-1.892-.949-.46-2.372 11.463 2.068 16.247 6.049 2.862 2.377 4.641 3.079 7.84 3.091 3.351.006 5.723-1.016 7.12-3.079 1.319-1.936 1.277-2.813-.139-2.813-1.947 0-5.233-1.173-11.083-3.956-5.407-2.565-9.285-3.914-11.293-3.914-.538 0-.902-.236-.902-.587 0-1.694 6.909.006 12.686 3.116 9.267 4.997 15.855 5.021 20.918.072 2.771-2.704 5.13-7.319 3.745-7.319-.23 0-1.682.29-3.23.641-3.757.853-11.083.557-15.239-.623-4.107-1.167-11.058-4.664-14.458-7.277-3.387-2.614-6.944-4.622-10.15-5.746-7.61-2.656-17.083-2.571-22.558.205-2.535 1.282-4.906 3.393-5.547 4.936a2.784 2.784 0 01-.375.655v-13.951zm-19.225-17.41c-.617 7.931-2.631 13.466-5.432 19.57l6.715-6.225 4.67 5.547 5.057-5.644 5.16 4.767 4.961-4.961 5.154 6.032 4.476-4.961 7.586 5.444c-2.753-6.103-6.479-11.275-6.013-19.866-7.35 5.463-24.814 6.449-32.334.297zm13.345-4.047c-2.698.049-5.541.085-8.1.587-1.772.351-3.382.926-4.724 1.875.218 5.16 24.802 7.314 31.395.097-1.385-1.01-3.079-1.609-4.941-1.972-2.463-.478-5.185-.526-7.768-.569l.012 4.259-5.874-.018v-4.259zm8.82 158.891c.18-1.639-.194-3.312-1.03-4.801-1.285-2.617-3.098-4.939-4.868-7.235-1.667-.977-2.593 2.213-3.701 3.128-1.729 2.587-3.898 5.236-4.003 8.491-.973 1.512-2.785-1.235-3.567-2.139-1.492-2.112-2.623-4.61-2.438-7.252-.177-4.256.64-8.494 2.19-12.45 1.17-3.377 3.07-6.658 2.877-10.347.136-2.777-.428-5.842-2.677-7.71-2.141-1.679 1.386-2.037 2.506-1.166 1.917.129 2.954 3.296 4.705 2.512.697-1.655.836-3.628 2.274-4.918 1.412-1.934 2.888.82 3.371 2.11.996 1.132-.056 3.936 1.562 4.009 1.939-1.359 3.322-3.643 5.802-4.141 1.006-.573 2.724-.076 1.398 1.081-1.835 1.72-3.403 3.871-3.738 6.43-.56 3.21.242 6.467 1.641 9.359 2.69 5.68 4.77 12.096 3.41 18.416-.631 2.81-2.54 5.229-4.858 6.861-.294.176-.757.164-.856-.239v.001zm-2.904-42.702c-.881-1.588-1.95-3.152-3.431-4.232-1.441-.003-2.33 1.814-3.308 2.766-.686 1.277-1.52 3.412-3.209 1.742-2.688-1.568-3.164-5.006-3.147-7.838-.17-4.593 1.68-8.877 3.322-13.059 1.045-2.619.788-5.565.15-8.247-.803-3.081-3.275-5.217-5.178-7.62.129-.929 2.562-.421 3.477-.245 2.032.515 3.246 2.314 4.761 3.585 1.078-.326.638-2.504 1.14-3.528.037-1.441 1.955-3.341 2.747-1.278 1.185 1.311-.038 3.91 1.493 4.727 1.459-.54 2.179-2.134 3.55-2.855 1.348-.92 3.253-1.022 4.705-.301.511 1.339-1.598 2.454-2.208 3.616-2.451 3.029-3.313 7.205-2.263 10.957.832 2.943 2.307 5.69 2.816 8.731.613 3.419.592 7.011-.293 10.38-.529 2.046-2.3 3.412-4.129 4.262-.451-.42-.689-1.036-.995-1.563zm-12.334 81.992c-23.338-2.241-45.669-14.396-59.246-33.669-14.742-20.105-19.388-46.65-14.888-70.921 2.391-11.051 7.216-22.109 15.452-29.977-6.563 13.915-8.781 29.864-5.281 44.94 5.437 30.097 30.873 55.575 61.304 59.982 12.038 3.485 24.491-.196 35.991-3.927 25.368-8.941 44.692-33.019 47.05-59.936 2.017-14.566-.218-29.711-6.78-42.9 3.74 1.978 8.461 9.732 11.245 14.946 9.68 18.755 10.122 41.229 4.424 61.244-7.731 25.465-27.201 47.776-52.939 55.884-11.68 3.815-24.101 4.979-36.331 4.336l-.001-.002z"/><path fill="#F7E017" d="M246.662 379.054c2.414-.799 3.787-2.263 4.773-5.082.49-1.403.822-2.861.738-3.243-.205-.901-1.246-.853-2.396.103-.786.659-.883.992-.659 2.335.575 3.388-.629 4.229-7.041 4.919-.635.066-2.474-.043-4.096-.242-3.049-.381-4.137-.079-3.031.84.334.279 1.18.654 1.882.829 1.712.442 7.997.146 9.83-.459zm13.291-.563c.362-.333 1.609-.908 2.77-1.283 1.549-.496 2.347-1.028 3-2.002 1.882-2.801 1.531-5.215-1.234-8.469-1.5-1.767-2.165-1.718-3.363.242-1.034 1.693-1.01 1.802.478 2.19.78.199 1.53.774 1.941 1.481 1.622 2.808 1.144 4.543-1.258 4.562-2.177.018-2.776.327-3.363 1.736-.309.732-.557 1.513-.557 1.736 0 .593.823.49 1.585-.193h.001zm-4.362-3.171c.411-1.113.556-3.114.508-7.198-.03-3.109-.151-5.746-.272-5.868-.363-.363-2.153.793-2.39 1.537-.12.387.079 1.282.442 1.984.557 1.083.629 2.093.46 6.334-.219 5.359.133 6.26 1.252 3.211zm-10.236-2.551c.218-.999.497-3.044.624-4.538.127-1.494.435-3.381.677-4.198.617-2.093-.006-2.644-1.657-1.47l-1.229.877.254 3.007c.236 2.709-.193 7.76-.817 9.721-.169.52.073.387.757-.411.55-.641 1.179-1.991 1.391-2.988zm-9.079 1.457c2.208-1.848 1.954-5.003 2.443-7.574-.05-1.709 1.092-3.758.355-5.252-2.064.377-3.336 2.332-2.279 4.28.087 2.261.007 4.723-1.155 6.722-.95 1.308-3.958.982-3.819-.872.755-2.786-2.585-1.43-3.887-.7-1.009.702-3.136.753-2.396-1.002-.488-2.339-3.496-.876-5.131-.886-1.544-.029-.128-3.129-2.344-2.584-4.117-.325-8.662.037-12.225-2.451-2.086-1.003-1.777-3.512-.69-5.135 1.297-2.217 1.666-4.99 3.725-6.71 2.038-1.955-1.922-1.13-2.814-.471-1.985 1.087-.14 3.886-1.765 5.437-.949 1.61-2.2 3.833-4.398 3.527-3.17-.599-4.997-3.548-7.269-5.524-1.947-.388-.853 3.159.153 3.904 1.988 1.489 4.312 2.575 6.709 3.218 2.386-.383 2.464 2.742 4.503 3.232 3.743 1.744 7.915 2.267 11.998 2.48 1.603.133.701 2.99 2.811 2.426 1.178.305 3.84-.439 3.973.93-1.787 2.121 1.714 2.073 3.01 1.693 1.659-.253 3.778-.886 4.217 1.388 1.384 1.458 3.927 1.243 5.614.408.237-.137.459-.299.661-.484zm-36.151-18.311c.671-.853 1.676-2.577 2.232-3.836.551-1.264 1.38-2.697 1.833-3.188 1.065-1.149.472-1.857-1.246-1.476-.908.2-1.276.532-1.428 1.319-.514 2.565-1.445 5.19-2.274 6.412-1.5 2.215-1.536 2.305-.92 2.305.321 0 1.132-.69 1.804-1.536h-.001zm-22.66-14.204c-1.694 0-1.767 1.071-.116 1.646.799.277 1.477.949 2.021 2.044 1.609 3.2 2.553 3.769 6.823 4.138l2.741.248.133 1.663c.067.92.285 1.682.496 1.682.212 0 1.27-.46 2.341-1.004 2.009-1.016 3.914-3.388 3.914-4.858 0-.962-1.603-2.002-3.061-2.002-.647 0-1.882.52-2.855 1.228-3.049 2.208-6.31 1.76-8.094-1.113-1.464-2.372-2.995-3.672-4.343-3.672zm14.796 5.898c.81 0 1.01.599.569 1.742-.303.786-1.289.811-1.585.037-.351-.914.139-1.779 1.016-1.779zm114.767-3.72c-1.107.042-1.434.284-2.135 1.324-1.149 1.706-1.265 5.402-.206 6.709.659.811.756.829 2.153.248 1.948-.816 2.275-.786 2.269.26-.013 2.674-3.847 7.828-7.864 10.568-1.083.739-2.051 1.561-2.154 1.833-.29.762 1.198.594 3.025-.339 2.492-1.27 5.765-4.609 7.108-7.241 1.065-2.099 1.216-2.812 1.343-6.485.115-3.381.024-4.373-.551-5.498-.641-1.264-.847-1.379-2.456-1.379-.193 0-.369-.006-.532 0zm.133 2.359c.835 0 .98.188 1.077 1.385.084.992-.091 1.597-.642 2.094-.749.677-.81.671-1.475-.339-.932-1.428-.357-3.14 1.04-3.14zm-18.366 25.818c3.539-1.742 5.626-3.703 6.969-6.539.635-1.349 1.156-2.619 1.156-2.837 0-.49-1.742-1.301-2.789-1.301-1.041 0-1.252-.72-.805-2.709.436-1.942-.09-4.375-.943-4.375-.309 0-.853.455-1.216 1.005-.557.853-.587 1.216-.176 2.456.605 1.839.128 3.212-1.518 4.385-.78.557-1.21 1.198-1.21 1.821 0 .527.067.956.145.956.085 0 .944-.448 1.912-.986l1.766-.986 1.041.816c.568.448 1.04 1.18 1.04 1.628 0 2.154-6.139 5.771-10.356 6.11-2.245.181-2.625.102-3.406-.672-.635-.635-.817-1.168-.659-1.917l.484-2.324c.387-1.875-.418-1.621-1.809.569-1.144 1.809-1.482 3.738-.841 4.755.526.829 4.023 1.621 6.497 1.47 1.555-.091 3.091-.527 4.718-1.325zm23.617-13.175c2.226-2.22 3.17-4.924 3.182-9.104l.006-3.14 1.839-.871c2.389-1.137 4.652-3.4 4.652-4.658 0-1.294-.575-1.228-1.616.182-.756 1.022-1.766 1.639-5.462 3.339-.932.429-.993.659-1.204 4.567-.248 4.507-.859 6.195-3.375 9.274-1.543 1.875-1.598 2.123-.527 2.123.442 0 1.567-.768 2.505-1.712zm-24.246-2.517c.212-.647-1.016-1.106-1.549-.581-.223.224-.284.612-.133.86.351.562 1.464.374 1.682-.279zm33.434-8.656c.218-.647-1.016-1.107-1.542-.581-.23.23-.29.617-.139.866.351.562 1.464.375 1.681-.285zm-40.239-23.435c-.865.412-1.313 1.345-1.915 2.058-.432.295-.086.57.164.847 1.525 1.644 2.171 3.863 2.896 5.934.712 2.444 1.608 5.068.864 7.615-.293.975-1.061 1.985-2.206 1.661-1.833-.114-3.637-.601-5.476-.582-1.636.085-2.901 1.573-4.574 1.412-1.068.07-1.023-2.189-2.016-1.584-.492 1.177-.25 2.492-.308 3.738.185.178.705.023 1.016.074h3.294c.233 1.138.204 2.442 1.021 3.346 1.143.406 2.429.056 3.516-.389 1.165-.542 1.321-1.942 1.649-3.033.351-1.173 1.886-.866 2.792-1.326 2.218-.647 3.67-2.952 3.54-5.219-.143-3.461-1.463-6.717-2.465-9.994-.504-1.443-.853-2.949-1.438-4.358-.069-.121-.21-.223-.354-.199v-.001zm-5.487 19.793c1.232-.08 1.767 1.434 1.506 2.437-.461 1.365-2.138.49-2.477-.493-.623-.878-.239-2.059.971-1.944zm-45.612-11.36c-.55-.012-1.167.193-1.778.623-3.212 2.251-4.035 4.912-1.851 5.953 1.603.767 1.198 1.669-1.325 2.933-3.611 1.803-6.8 1.579-12.855-.925-1.488-.618-1.875-.382-1.53.98.333 1.337 1.554 2.068 4.592 2.758 3.266.75 7.216.508 9.757-.587 1.24-.532 2.71-1.651 3.95-3l1.966-2.159 2.287.284c2.818.344 2.873.374 2.873 1.724 0 1.07.061 1.095 2.65 1.337 1.458.139 3.376.266 4.271.266 1.143.006 1.79.206 2.171.738.509.708.811.744 5.07.363 3.98-.363 4.76-.333 6.557.278 1.276.436 2.68.611 3.745.496 3.049-.344 7.253-2.837 7.863-4.67.073-.224 1.18-.616 2.457-.87 3.079-.618 3.212-1.289.339-1.646-1.246-.158-3.116-.611-4.156-1.022-1.047-.412-2.475-.757-3.176-.757-1.549 0-3.007.968-3.007 1.966 0 .654.23.72 2.063.533 1.724-.175 2.226-.079 3.133.641.599.472.999 1.028.872 1.228-.406.659-4.005 2.299-5.596 2.553-1.065.169-1.924.054-2.758-.375-1.398-.726-3.455-.835-3.842-.212a.243.243 0 01-.153.117l-.101.052h-.167l-.173-.046-.094-.04-.08-.057-.108-.094-.11-.096-.949-.827-.138-.104-.062-.034-.14-.015h-.185l-.108.019-.086.018-.207.078-1.624.638-.003.001-.098.039-.268.104-.295.116.029-.019c-1.548.55-2.139.399-2.139-.492 0-.472-.636-.525-3.835-.32-3.527.23-3.896.169-4.555-.568-.194-.215-.327-.385-.405-.539l-.003.001-.353-.737-.716-1.468-2.811.224.022-.009c-2.041.253-2.673-.523-2.673-2.711 0-1.646-.944-2.643-2.154-2.662zm-.871 2.517c.188 0 .345.114.587.357.308.308.472.847.339 1.191-.315.817-1.803.786-2.117-.037-.151-.399.042-.846.49-1.173.314-.23.514-.345.701-.339v.001zm-6.29 2.552c2.135-1.355 2.086-1.252 2.395-5.015.211-2.655.175-2.855-.544-2.855-1.047 0-1.592 1.149-1.592 3.339 0 1.404-.218 2.032-.967 2.777-1.779 1.778-6.195.967-6.752-1.24-.187-.756.055-1.44.98-2.753 1.93-2.741 1.495-3.412-.87-1.331-1.628 1.422-1.918 1.464-1.61.236.285-1.131-.308-1.579-1.633-1.246-.677.17-1.046.593-1.21 1.416-.157.804-.526 1.252-1.168 1.409-1.07.272-2.897-.744-2.897-1.609 0-.641 2.734-3.981 6.243-7.622 1.324-1.38 2.407-2.662 2.407-2.855 0-.194-.708-.351-1.573-.351-1.264 0-1.573.139-1.573.726 0 .399-1.766 2.716-3.931 5.154-4.513 5.081-4.888 6.14-2.656 7.495 1.797 1.101 4.101 1.016 5.91-.212l1.464-.998v1.808c0 2.312.46 3.141 2.275 4.102 2.28 1.203 5.039 1.059 7.301-.375h.001zm94.707-31.401c-1.674.999-.365 3.099-.111 4.493-.683 1.903-3.129 2.416-4.911 2.769-2.525.418-4.314 2.53-5.274 4.775-.52 1.457-1.777 3.716-3.146 1.498-1.189-1.206-3.376-2.162-4.783-.754-1.069 1.017-1.34 2.514-1.739 3.872-.631-1.043-.913-2.598-2.25-2.928-2.134.3-1.363 2.99-.359 4.1.912 1.293 1.788 2.999.894 4.535-.789 1.846-3.514 3.091-5.116 1.512-1.495-.789-.496-3.608-1.969-3.763-.728.526-.788 3.476-1.953 1.877-.842-1.367-.396-3.238-1.425-4.468-1.217.152-2.194 2.246-1.789 3.371 1.623 2.188 2.289 4.933 2.922 7.542.395 1.043-.057 3.161.919 3.576.678-1.682.049-3.589.581-5.286 1.584-.198 3.346.524 5.007.14 2.376-.308 4.213-2.314 5.046-4.45.252-1.605-.047-3.235-.093-4.849 1.878.291 3.829.284 5.634.895.895 1.373-.284 3.296-.532 4.796-.943 3.056-3.336 5.275-5.665 7.318-.974.576-1.105 2.104.333 1.281 3.13-1.338 5.462-4.172 6.805-7.24.979-2.36.192-4.989.831-7.403.945-1.813 3.219-1.431 4.902-1.425 1.742-.066 3.228-2.095 2.647-3.788-.554-1.964 1.524-2.91 2.944-3.612 1.882-.95 3.325-2.879 3.18-5.055-.078-1.114-.023-3.227-1.532-3.328l.002-.001zm-6.673 11.341c2.017.537-.365 4.388-1.437 1.948-.329-.931.454-1.98 1.437-1.948zm-9.359 2.759c2.624-.153 1.683 3.679-.535 1.939-1.15-.577-.769-2.011.535-1.939zm-95.009 14.808c.073-.38-.121-.653-.466-.653-.731 0-1.173.642-.829 1.198.357.575 1.144.248 1.295-.545zm30.755-3.435c0-.563-.212-.775-.684-.684-1.029.194-1.144 1.5-.133 1.5.563 0 .817-.254.817-.816zm-38.056-18.462c-1.228-.253-1.999.786-2.42 1.776-.918 1.543-2.038 3.121-3.686 3.938-1.184.329-2.476-.121-3.497-.731-1.219-.607-.942-2.073-1.465-3.086-.881-.692-2.443.297-2.409 1.374-.097 1.443 1.253 2.277 2.374 2.835.953.583 2.334.908 2.714 2.088-.026 1.004.378 2.152 1.6 1.765 1.367-.022 1.721 1.643 1.169 2.642-.562 1.126-.941 2.445-.672 3.699.653.55 1.32-.926 1.793-1.347l.964-1.286c2.419.131 4.836.44 7.26.355 1.724-.032 3.193-1.096 4.29-2.345 1.55-1.621 2.824-3.526 4.595-4.925 1.261-.308.584-2.683-.733-1.997-1.186.446-1.56 1.786-2.382 2.64-1.4 1.696-2.828 3.416-4.593 4.744-1.286.533-2.765.301-4.086 0-.551-.481 1.095-.873 1.324-1.409.757-.757 1.657-1.475 2.095-2.469-.42-.916-1.703-.99-2.608-1.009-2.23.267-3.933 2.139-6.184 2.316-1.709.06-.82-1.792-.049-2.423 1.507-1.79 3.136-3.476 4.709-5.207.447-.537 2.063-1.048 1.03-1.803-.362-.13-.752-.13-1.131-.135h-.002zm1.096 9.055c1.125.632-.717 1.667-1.492 1.526-1.018.304-1.036-.733-.133-.94.509-.264 1.045-.54 1.625-.586zm-3.459 2.362c.64-.012 1.981.603.721.997-.876.679-1.867-.692-.721-.997zm27.237 1.564c0-.852-1.53-.732-1.699.133-.11.557.066.69.78.587.508-.073.919-.393.919-.72zm67.783-6.001c.157-.816-.98-1.361-1.579-.762-.6.599-.049 1.736.762 1.579.375-.073.744-.442.817-.817zm-105.488-8.305c1.065-.914 1.077-.974.617-2.983-.653-2.813-.611-3.115.46-3.381 1.355-.345 4.797 1.5 5.559 2.976.593 1.144.575 1.222-.429 2.154-1.083.998-1.077 2.166.006 2.166.895 0 3.369-2.342 3.369-3.183 0-1.167-2.746-3.925-4.918-4.936-1.343-.629-2.686-.919-4.24-.925-2.784 0-3.159.599-2.408 3.835.883 3.793-.314 4.307-3.369 1.446-2.269-2.124-3.164-4.331-3.152-7.81.006-3.732 1.433-5.577 4.652-6.013 2.135-.284 2.081-.786-.115-1.113-3.206-.484-5.916 1.658-6.945 5.481-1.144 4.24 1.476 9.406 6.11 12.068 2.426 1.391 3.393 1.434 4.803.218zm126.333-4.652c.261-.26.472-.847.472-1.301 0-.454.442-1.428.98-2.16.544-.731.986-1.482.986-1.663 0-.744-1.228-.72-2.195.048-.993.774-1.736.793-1.736.037 0-.188.471-.575 1.052-.859 1.439-.702 1.561-1.398.345-1.954-1.561-.708-3.128.587-3.291 2.722-.103 1.428.012 1.675 1.113 2.323 1.004.593 1.191.907 1.022 1.754-.29 1.47.321 1.984 1.252 1.053zm11.875-1.343c.871-.781 1.579-1.67 1.579-1.966 0-.297.751-1.083 1.67-1.742 2.607-1.876 3.182-3.769 2.015-6.679-.454-1.143-1.882-2.722-4.985-5.517-2.384-2.153-4.58-3.914-4.864-3.914-.847 0-.696 3.116.163 3.388 1.549.496 2.486 1.131 4.924 3.327 2.831 2.559 4.138 4.948 3.424 6.279-.684 1.289-1.591.889-4.09-1.791-1.312-1.409-2.613-2.558-2.879-2.558-.29.005-.496.514-.496 1.228 0 .895.478 1.747 1.772 3.188 2.111 2.347 2.317 3.757.732 5.002-.568.448-1.155.817-1.3.817-.14 0-.605-.702-1.029-1.554-.883-1.791-6.285-7.496-7.096-7.496-.369 0-.55.46-.55 1.367 0 1.095.218 1.483 1.089 1.93 1.071.556 3.72 3.224 6.382 6.443.762.919 1.513 1.663 1.675 1.669.158 0 .999-.641 1.863-1.421h.001zm5.299-15.166c-.351-1.131-7.598-8.59-8.342-8.59-.387 0-.508.46-.417 1.646.103 1.439.26 1.687 1.252 1.947.617.164 2.528 1.664 4.241 3.328 1.705 1.663 3.205 2.927 3.327 2.801.121-.122.096-.63-.061-1.132zm-43.283 83.952l.001.023c0 .545-.482.987-1.078.987-.594 0-1.077-.442-1.077-.987v-.023-.024c0-.545.483-.987 1.077-.987.596 0 1.078.442 1.078.987l-.001.024zm3.806-1.27v.022c0 .546-.482.988-1.077.988-.596 0-1.078-.442-1.078-.988v-.023-.023c0-.545.482-.987 1.078-.987.595 0 1.077.442 1.077.987v.024z"/><path fill="#F7E017" d="M268.541 340.162l.114-.206 1.134 1.852-.074.093.828 1.227-.889.622.845 1.232v.47l-.275-.062-.158-.05-.116-.078-.146-.111-.118-.104-.208-.241-.172-.224-.131-.202-.219-.396-.156-.355-.026-.076-.019-.075v-.002h-.001l-1.366-2.727 1.016-.79.137.203zm26.735 21.447l.144.093.177.121.075.074.056.076.083.13.064.161.045.147.031.201v.085l.005.189-.027 1.015-.117.769-.053.32-.05.301-.071.474-.02.074-.019.09-.077.184-.301.435.087-.719-.032-4.22zm-77.072 8.751l1.464.014-.912-.421-.552.407zm34.105-29.41l-3.113 1.403 2.794-.054.255-1.077.526-.01.316-.107-.01-.106-.056-.045-.064-.045-.127-.047-.102-.029-.095-.011-.085.005-.073.021-.068.036-.095.063-.003.003zm-59.204 10.409l-.004.002.007.001-.026.006-.246.095-.366.099-.071.014-.141.022-.289-.001.002-.002-.597.001-.48-.047-.355-.06-.207-.047-.18-.046-.2-.094-.16-.1-.053-.054-.135-.13-.018-.016-.003-.006-.001-.001h.001l-.138-.254 2.002.34.829-.174.823.448-.012.004.008.001.01-.001zm11.823 4.544l-.792 1.4.495.187.26-.922.037-.665zm-4.745 6.419l1.25.285-.805-.422.041-.025-.118-.016-.144-.076-.048.05-.447-.062-.028-.007-.008.002-.253-.035-.117.126-.029.008.686.171.02.001zM320.216 338.743l.187.428.08.361.067.468-.067.414-.08.428-.201.481-.347.655-.375.575 1.333.774 1.071-1.444.149-.373.087-.414.067-.321-.013-.287-.047-.247-.06-.321-.153-.548-.187-.334-.147-.267-.126-.16-.125-.073-.102-.053-.132-.035-.076-.024-.118-.021-.12-.01-.078.012-.09.019-.113.038-.139.068-.076.066-.042.066z"/></g></svg>