<svg viewBox="0 0 512 512" xmlns="http://www.w3.org/2000/svg" fill-rule="evenodd" clip-rule="evenodd" stroke-linejoin="round" stroke-miterlimit="2"><path d="M256 0c70.68 0 134.69 28.66 181.01 74.99C483.34 121.31 512 185.32 512 256c0 70.68-28.66 134.69-74.99 181.01C390.69 483.34 326.68 512 256 512c-70.68 0-134.69-28.66-181.01-74.99C28.66 390.69 0 326.68 0 256c0-70.68 28.66-134.69 74.99-181.01C121.31 28.66 185.32 0 256 0z" fill="#999" fill-rule="nonzero"/><path d="M256 19.48c65.31 0 124.44 26.47 167.24 69.28 42.81 42.8 69.28 101.93 69.28 167.24s-26.47 124.44-69.28 167.24c-42.8 42.81-101.93 69.28-167.24 69.28s-124.44-26.47-167.24-69.28C45.95 380.44 19.48 321.31 19.48 256S45.95 131.56 88.76 88.76C131.56 45.95 190.69 19.48 256 19.48z" fill="#fff" fill-rule="nonzero"/><path d="M256 39.59c119.52 0 216.41 96.89 216.41 216.41S375.52 472.41 256 472.41 39.59 375.52 39.59 256 136.48 39.59 256 39.59z" fill="#ccc" fill-rule="nonzero"/><path d="M256 39.59c119.52 0 216.41 96.89 216.41 216.41S375.52 472.41 256 472.41 39.59 375.52 39.59 256 136.48 39.59 256 39.59z" fill="#012169" fill-rule="nonzero"/><path d="M266 173.01h161.59l-.19 114.98c1.34 46.23-27.47 74.91-80.48 87.84-37.63-9.35-81.04-28.68-81.1-86.53l.19-116.29H266z" fill="#fff" fill-rule="nonzero"/><path d="M269.58 176.48H424l-.18 110.18c1.28 44.29-26.25 71.77-76.91 84.16-35.97-8.95-77.45-27.48-77.51-82.91l.18-111.43z" fill="#00a2bd" fill-rule="nonzero"/><path d="M269.01 175.91h155.56l-.18 110.73c.64 21.97-5.77 39.84-18.55 53.82-13.13 14.37-32.98 24.6-58.79 30.92l-.14.03-.13-.03c-18.06-4.5-37.5-11.4-52.46-24.15-14.99-12.78-25.46-31.41-25.49-59.32l.18-112zm154.42 1.14H270.15l-.18 110.86c.03 27.52 10.33 45.87 25.09 58.45 14.75 12.58 33.98 19.42 51.86 23.88 25.53-6.26 45.14-16.37 58.09-30.55 12.56-13.75 18.87-31.36 18.24-53.02l.18-109.62z" fill-rule="nonzero"/><path d="M422.81 299.71c-5.62 42.28-38.18 60.75-75.9 70.55-33.39-8.95-69.3-23.25-76.27-70.34l152.17-.21z" fill="#a53d08" fill-rule="nonzero"/><path d="M340.8 197l-.22-13.88 10.98.1.11 13.78h30.03l.11 10.77-30.14.11-.24 126.94-10.71.07-.14-127.12-29.93.11.01-10.98 30.14.1z" fill-rule="nonzero"/><path d="M316.48 304.95l27.49 28.52c9.51-10.45 2.91-49.5-9.59-56.7-1.5 4.63-4.04 10.17-6.75 11.96-5.96 4.06-20.57 8.81-15.69 11.85 1.12-1.54 4.03-3 5.4.43 1.63 5.39-6.08 5.74-6.08 5.74s-4.88-.6-5.74-5.57c-.86-4.97 7.27-9.5 7.96-9.85.69-.26 11.31-3.08 13.11-12.5 2.22-9.25 4.54-7.88 4.97-8.05 13.87 1.37 22.95 26.2 23.46 43.67.52 17.48-7.11 29.04-8.48 29.81-1.37.77-33.06-37.6-33.06-37.6l3-1.71z" fill="#ff9a08"/><path d="M316.97 305.02l26.99 28c.44-.51.83-1.08 1.19-1.71 3.39-5.9 3.77-16.72 2-27.26-1.77-10.55-5.68-20.78-10.84-25.48-.57-.52-1.16-.97-1.76-1.34-.82 2.46-1.92 5.15-3.18 7.38-1.1 1.94-2.31 3.54-3.57 4.37-1.88 1.28-4.58 2.61-7.28 3.94-4.01 1.99-7.99 3.96-9.02 5.61-.36.58-.3 1.13.38 1.64.45-.54 1.09-1.04 1.79-1.32.43-.17.88-.26 1.33-.24.45.03.91.17 1.33.48.49.36.94.94 1.29 1.81l.01.02c.49 1.64.2 2.84-.48 3.72h.48l-.66.38zm26.78 28.66l-27.3-28.33c-.53.42-1.15.74-1.77.98l-.73.42c2.85 3.44 31.36 37.85 32.44 37.24.84-.47 4.09-5.15 6.3-12.9 1.3-4.58 2.22-10.2 2.03-16.63-.28-9.51-3.11-21.23-7.88-30.11-3.91-7.27-9.12-12.63-15.26-13.26-.08.01-.17.01-.27.01-.69-.02-2.53-.07-4.42 7.78-1.73 9.03-11.33 12.1-13.08 12.66l-.21.07c-.5.26-4.01 2.22-6.17 4.89-1.13 1.41-1.89 3-1.61 4.63.78 4.54 5.07 5.26 5.45 5.31.22-.01 1.72-.11 3.16-.67l1.56-.89-.22-.24h.52c.81-.78 1.25-1.91.76-3.54-.3-.74-.67-1.23-1.08-1.52a1.883 1.883 0 00-1.01-.36c-.35-.02-.71.05-1.06.19-.7.28-1.32.81-1.71 1.35l-.17.23-.24-.15c-1.25-.78-1.4-1.67-.8-2.63 1.12-1.8 5.19-3.81 9.27-5.83 2.68-1.32 5.37-2.65 7.2-3.9h.01c1.17-.78 2.33-2.31 3.38-4.17 1.3-2.3 2.43-5.1 3.25-7.63l.12-.36.32.19c.76.43 1.49.98 2.19 1.62 5.27 4.79 9.24 15.15 11.03 25.82 1.79 10.66 1.39 21.64-2.07 27.66-.45.77-.94 1.46-1.48 2.06l-.22.24-.23-.23zm-30.57-26.91c-1.07.24-1.9.28-1.91.28h-.05c-.02 0-5.1-.63-6-5.82-.32-1.83.51-3.58 1.74-5.11 2.26-2.79 5.93-4.83 6.39-5.06.07-.04.19-.07.27-.09 1.7-.55 11.02-3.53 12.67-12.2v-.01c2.01-8.35 4.21-8.29 5.03-8.27h.12l.07-.02h.07c6.4.64 11.78 6.13 15.79 13.6 4.81 8.96 7.67 20.77 7.96 30.38.19 6.5-.74 12.18-2.06 16.8-2.25 7.92-5.69 12.77-6.58 13.27-1.6.9-33.35-37.55-33.44-37.67l-.07-.08z" fill-rule="nonzero"/><path d="M336.52 278.4l.17 51.47-.17-51.47z" fill="#ff9a08" fill-rule="nonzero"/><path d="M336.83 278.4l.17 51.47h-.61l-.17-51.47h.61z" fill-rule="nonzero"/><path d="M333.44 279.34l.17 46.76-.17-46.76z" fill="#ff9a08" fill-rule="nonzero"/><path d="M333.74 279.34l.17 46.76h-.6l-.17-46.76h.6z" fill-rule="nonzero"/><path d="M330.1 286.11l.17 37.17-.17-37.17z" fill="#ff9a08" fill-rule="nonzero"/><path d="M330.4 286.11l.17 37.16-.6.01-.17-37.17h.6z" fill-rule="nonzero"/><path d="M327.36 288.76l.17 30.75-.17-30.75z" fill="#ff9a08" fill-rule="nonzero"/><path d="M327.66 288.76l.17 30.75h-.6l-.17-30.75h.6z" fill-rule="nonzero"/><path d="M324.45 290.13v25.95-25.95z" fill="#ff9a08" fill-rule="nonzero"/><path fill-rule="nonzero" d="M324.14 290.13h.61v25.95h-.61z"/><path d="M321.28 292.19v20.55-20.55z" fill="#ff9a08" fill-rule="nonzero"/><path fill-rule="nonzero" d="M320.97 292.19h.61v20.55h-.61z"/><path d="M318.54 293.82v15.75-15.75z" fill="#ff9a08" fill-rule="nonzero"/><path fill-rule="nonzero" d="M318.23 293.82h.61v15.75h-.61z"/><path d="M315.83 308.4c-.11-.12-.1-.32.02-.43.13-.11.32-.09.43.03l28.35 32.46c.11.13.1.32-.03.43-.12.11-.32.1-.43-.03l-28.34-32.46zm29.42-20.43c-.12-.29 0-.63.29-.75.29-.13.62 0 .75.28.04.08 12.96 28.34.93 51.71-.14.28-.49.39-.77.24a.553.553 0 01-.24-.76c11.78-22.88-.92-50.64-.96-50.72zm-32.01 14.53a.568.568 0 11-1.05-.42c0-.01 1.21-3.24 3.03-1.67.24.2.27.56.07.8-.21.24-.57.26-.81.06-.57-.49-1.24 1.23-1.24 1.23zm-3.13-7.83c.24-.2.6-.18.8.05.21.24.19.6-.05.8-.01.02-4.69 4.15-2.28 6.63a.572.572 0 01-.81.8c-3.24-3.34 2.32-8.26 2.34-8.28z" fill="#ffdf00" fill-rule="nonzero"/><path d="M351.75 223.66c1.9-1.63 2.89-2.63 4.07-2.45 1.18.18 2.78.09 3.96-.27 1.18-.36 7.03-1.09 9.43-.27.82.09 1.91.54 3.58 1.95 1.68 1.41 4.13 3.85 3.32 10.66-.82 6.8-.55 9.71-.91 13.51-.63 6.71-2.12 12.24-4.81 11.79 3.63 6.35 3.99 11.79 6.35 16.15 2.36 4.35 3.81 13.24 2.9 22.85-.9 9.62-3.44 31.2 4.17 45.71-1.27.91-4.35 0-7.07-2.9-2.72-2.9-3.91-2.81-6.17-1.09-6.89 5.26-13.34 11.6-22.85 5.26-2.18-1.45-2.87-3.19-1.27-7.62 3.99-11.06 5.93-26.24 5.3-33.37v-79.91z" fill="#008021" fill-rule="nonzero"/><path d="M351.67 223.57l.57-.5c1.57-1.36 2.49-2.15 3.6-1.98.59.09 1.29.11 1.99.06.67-.04 1.34-.15 1.91-.33.72-.22 3.13-.57 5.46-.64 1.55-.04 3.07.04 4.04.37.42.05.91.18 1.5.49.59.3 1.29.77 2.14 1.48.84.71 1.89 1.69 2.62 3.35.73 1.66 1.14 3.99.73 7.42-.5 4.18-.59 6.89-.67 9.24-.05 1.47-.1 2.8-.24 4.27-.13 1.4-.3 2.74-.51 3.99-.39 2.35-.92 4.36-1.61 5.77-.69 1.4-1.54 2.21-2.58 2.17 1.97 3.5 2.95 6.72 3.85 9.62.7 2.31 1.35 4.42 2.38 6.32 1.24 2.27 2.22 5.78 2.76 9.98.49 3.87.59 8.32.16 12.94l-.14 1.48c-.99 10.2-2.94 30.39 4.3 44.17l.05.09-.09.06c-.71.51-1.93.49-3.33-.09-1.23-.5-2.61-1.44-3.91-2.82-1.34-1.43-2.3-2.12-3.19-2.24-.87-.12-1.71.32-2.81 1.16-.6.46-1.19.92-1.78 1.38-6.28 4.91-12.46 9.73-21.22 3.89-1.11-.75-1.85-1.57-2.1-2.78-.25-1.19-.02-2.75.78-4.99 1.88-5.2 3.3-11.31 4.21-17.07 1.03-6.47 1.42-12.49 1.08-16.25-1.95-22.8 0-55.99 0-79.94l.02-.05.03-.02zm.73-.31l-.53.46v79.85c.34 3.78-.05 9.81-1.08 16.3-.92 5.77-2.34 11.9-4.22 17.12-.79 2.19-1.02 3.71-.78 4.85.24 1.14.94 1.91 2 2.62 8.61 5.74 14.72.98 20.93-3.88.59-.46 1.18-.92 1.78-1.38 1.15-.88 2.04-1.34 3-1.21.95.13 1.95.84 3.33 2.31 1.28 1.36 2.63 2.28 3.83 2.77 1.26.52 2.34.57 2.99.18-7.2-13.84-5.26-34.01-4.27-44.2l.14-1.48c.43-4.6.33-9.04-.16-12.89-.53-4.16-1.51-7.64-2.73-9.89-1.04-1.92-1.69-4.05-2.4-6.36-.91-2.96-1.91-6.23-3.95-9.79l-.12-.22.25.04.13.01c.96.1 1.77-.67 2.43-2.02.69-1.38 1.21-3.38 1.6-5.7.21-1.25.37-2.58.5-3.97.14-1.46.19-2.79.24-4.26.08-2.36.17-5.07.67-9.26.41-3.37 0-5.67-.71-7.28-.71-1.62-1.73-2.57-2.56-3.26-.83-.7-1.51-1.16-2.08-1.46-.57-.29-1.03-.42-1.43-.47h-.03c-.94-.32-2.43-.4-3.96-.36-2.31.07-4.69.41-5.39.63-.59.18-1.28.3-1.98.34-.71.05-1.43.03-2.04-.06-1-.16-1.88.61-3.4 1.92z" fill-rule="nonzero"/><path d="M358.29 216.86c.49 1.54.76 3.54-.05 5.35-.82 1.82-1 3.99.36 6.62 2.18-3.08 5.26-2.45 7.08-4.26 1.81-1.81 2.17-3.54 3.53-3.9-1.36-1.18-3.44-2.45-2.99-5.9.45-3.44 5.26-6.25.91-11.51-2.81-3.4-6.9-2.45-8.66-1.14-.84.62-1.55 1.5-1.82 2.09-.27.59.07 1.93-.59 2.72-.45.54-1 1.08-1.63 1.54-.41.3-.66.72-.23 1.22.18.2.5.25.85.37-.21.41-.44.81-.67 1.11-.21.28-.12.54.14.76-.34 1.09.32 1.21-.14 2.03-.39.7-.92 1.54.55 2.36.41.22 2.34.67 3.36.54z" fill="#ffe1cf" fill-rule="nonzero"/><path d="M358.41 216.82c.27.86.48 1.87.47 2.91 0 .84-.16 1.7-.53 2.53-.4.89-.64 1.87-.62 2.95.02 1.03.29 2.16.89 3.38 1.27-1.69 2.82-2.22 4.24-2.7 1.03-.35 1.99-.67 2.73-1.41.75-.75 1.25-1.49 1.68-2.12.56-.82.99-1.46 1.69-1.74l-.28-.24c-1.35-1.11-3-2.47-2.58-5.62.14-1.09.7-2.11 1.28-3.15 1.26-2.28 2.6-4.71-.35-8.28-1.17-1.41-2.56-2.06-3.91-2.23-1.83-.24-3.58.38-4.58 1.12-.39.29-.75.63-1.05.98-.33.38-.59.76-.72 1.06-.1.21-.11.54-.13.9-.02.62-.05 1.33-.48 1.85-.24.28-.51.57-.8.85-.26.25-.55.49-.86.71l-.11.09c-.13.12-.24.25-.28.4-.03.14 0 .3.12.48l.07.07c.1.12.29.18.52.25.08.02.17.05.27.08l.13.05-.06.12c-.11.22-.23.44-.35.65-.11.18-.22.34-.33.48-.07.11-.1.2-.09.29.02.11.1.21.21.31l.06.05-.02.08c-.16.5-.09.79-.03 1.03.07.3.14.56-.12 1.02l-.03.07c-.36.64-.78 1.39.53 2.12.22.12.93.32 1.69.44.52.08 1.07.13 1.48.1v-.69l.25.76zm.22 2.91c.01-.97-.18-1.92-.43-2.73-.44.03-1.01-.02-1.56-.11-.79-.12-1.53-.33-1.77-.47-1.54-.85-1.05-1.71-.63-2.45l.04-.07c.2-.38.15-.59.09-.84-.07-.26-.14-.57.01-1.09-.12-.12-.21-.25-.23-.39a.592.592 0 01.14-.49c.1-.13.2-.29.31-.46.09-.16.18-.33.27-.5l-.12-.03c-.26-.08-.49-.15-.64-.32l-.08-.1c-.17-.24-.21-.47-.16-.68.05-.2.19-.38.36-.53.04-.04.08-.07.13-.1.29-.22.57-.45.83-.7.28-.26.54-.54.77-.82.38-.45.41-1.12.43-1.7.02-.39.03-.75.15-1 .15-.32.42-.72.76-1.11.31-.36.69-.72 1.09-1.02 1.04-.77 2.86-1.42 4.76-1.17 1.41.18 2.86.86 4.07 2.33 3.06 3.7 1.68 6.2.38 8.55-.57 1.02-1.12 2.02-1.26 3.06-.39 3.01 1.2 4.33 2.5 5.4.15.13.3.25.46.38l.17.16-.22.06c-.75.2-1.19.85-1.77 1.71-.44.64-.95 1.39-1.72 2.16-.77.78-1.76 1.11-2.82 1.47-1.43.48-2.99 1.01-4.24 2.77l-.12.17-.09-.18c-.69-1.33-.99-2.55-1.01-3.67-.02-1.12.23-2.14.64-3.06.36-.79.51-1.63.51-2.43z" fill-rule="nonzero"/><path d="M340.64 234.91c-2.54.63-6.62-.45-9.7-.09-1.36.16-2.45-.55-2.27-1.91.18-1.36.36-3.44.09-5.35-.42-2.97 1-7.07 2.99-11.61 2-4.53 3-7.07 3-9.2 0-1.41.13-3 1.4-3.81.94-.61 1.12-1.19 1.46-1.68.77-1.13 1.49-1.41 1.58-.73.06.41-.09.78-.45 1.32.81-.68 2.2-1.48 2.51-1.7.32-.23 1.93-1.36 2.02-.3.64-.31 1.07-.29 1.23.05.17.37.07.52-.25.79.45-.09.97.71.06 1.41.48-.16.96.63.12 1.36-.87.75-1.86 1.27-2.18 1.86-.32.59-2.47 2.24-3.33 2.61-.86.36-.91.86-.91 2.13 0 13.97-1.67 12.83-1.67 16.19 0 .9-.19 1.72.72 1.45.91-.27 2.22-.68 3.59-.68v7.89h-.01z" fill="#ffe1cf" fill-rule="nonzero"/><path d="M340.67 235.03c-1.38.35-3.21.19-5.08.03-1.59-.14-3.23-.28-4.64-.12-.27.03-.53.03-.78 0-.43-.06-.81-.22-1.1-.47-.29-.25-.48-.6-.53-1.03-.02-.17-.02-.35.01-.54.09-.68.18-1.54.21-2.46.04-.93.01-1.91-.12-2.86-.22-1.5.03-3.29.59-5.27.55-1.97 1.41-4.14 2.41-6.41.99-2.26 1.74-4.03 2.24-5.49.49-1.46.74-2.61.74-3.66 0-.71.04-1.47.23-2.16.2-.7.57-1.33 1.24-1.76.7-.45.97-.9 1.2-1.3.07-.12.14-.23.21-.34.34-.5.68-.85.96-1.02.15-.08.28-.13.4-.13.128-.006.25.05.33.15.06.08.11.19.13.33.03.22 0 .43-.08.66-.02.06-.05.12-.08.18.51-.36 1.09-.72 1.51-.99.24-.14.42-.26.51-.32.16-.12.66-.47 1.12-.65.49-.19.94-.22 1.07.27.28-.12.52-.18.72-.16.24.01.41.12.51.32l.01.02c.1.21.12.37.06.53-.03.08-.08.15-.14.22.04.02.08.05.12.08.1.07.18.17.23.3.05.12.07.27.05.42-.03.19-.13.39-.31.59.03.01.06.02.09.04.1.06.18.15.23.27.05.1.08.23.07.38-.01.26-.16.58-.5.87-.32.28-.65.52-.96.75-.53.39-1 .73-1.19 1.08-.16.3-.77.86-1.45 1.39-.7.55-1.49 1.08-1.94 1.27-.4.17-.6.36-.71.65-.11.31-.12.74-.12 1.37 0 9.39-.76 11.97-1.26 13.67-.24.82-.42 1.43-.42 2.52 0 .11 0 .26-.01.4-.01.31-.01.59.04.77.05.18.2.26.54.16l.08-.03c.92-.27 2.2-.66 3.54-.66h.12v8.05l-.04.08-.06.01zm-5.06-.22c1.81.15 3.57.31 4.91 0v-7.67c-1.26.03-2.47.39-3.33.65l-.09.03c-.52.15-.75 0-.85-.33-.07-.22-.06-.51-.05-.85.01-.12.01-.24.01-.39 0-1.12.19-1.75.43-2.59.5-1.69 1.25-4.25 1.25-13.6 0-.65.01-1.1.14-1.45.13-.37.37-.6.84-.8.43-.18 1.2-.7 1.89-1.24.66-.51 1.24-1.04 1.38-1.31.22-.4.71-.76 1.26-1.16.31-.23.64-.47.95-.74.28-.24.4-.49.41-.7a.526.526 0 00-.04-.26.339.339 0 00-.14-.15.237.237 0 00-.23-.03l-.69.23.58-.45c.28-.22.41-.44.44-.64.02-.1.01-.2-.03-.29a.353.353 0 00-.15-.19.25.25 0 00-.23-.06l-.47.09.37-.31c.14-.12.23-.22.27-.31.03-.09.01-.19-.06-.34v-.01c-.06-.11-.16-.17-.31-.18-.17-.01-.4.04-.67.17l-.24.12-.01-.19c-.04-.4-.38-.37-.76-.23-.44.18-.91.51-1.06.62-.1.07-.29.19-.53.34-.56.35-1.42.88-1.98 1.36l-.66.55.47-.72c.18-.26.3-.48.37-.68.07-.19.09-.37.07-.55a.422.422 0 00-.07-.2.186.186 0 00-.14-.06c-.07 0-.16.04-.27.1-.25.15-.56.47-.88.94-.07.11-.14.22-.2.33-.25.42-.53.9-1.29 1.38-.6.39-.94.97-1.12 1.61-.19.67-.23 1.4-.23 2.1 0 1.08-.25 2.26-.75 3.74-.5 1.47-1.25 3.24-2.25 5.51-1 2.27-1.85 4.42-2.4 6.38-.55 1.95-.79 3.7-.59 5.16.14.96.17 1.97.13 2.91-.03.93-.12 1.8-.21 2.48-.03.17-.03.33-.01.48.04.37.2.66.45.87.25.22.58.36.97.41.22.03.46.03.71 0 1.44-.16 3.08-.02 4.69.12z" fill-rule="nonzero"/><path d="M341.19 265.02c4.1-2.05 8.8-2.81 11.24-3.45 2.45-.63 6.35-2.54 8.26-3.53 1.9-1 3.44-2.36 4.53-2.72 1.09-.37 2.31-1.12 3-2.45 3.53-6.9 5.44-12.43 5.44-17.24 0-3.17-.82-6.71-3.9-4.17-2.9 2.39-6.06 6.99-6.89 10.34-1.28 5.08-2.36 6.17-2.64 7.17-.27.99-1.29.99-2.54 1.27-5.35 1.18-6.62 1.99-10.61 4.99-3.99 2.99-8.34 5.62-11.24 7.25-2.91 1.63-3.45 1.81-4.09 3.13-.63 1.32-1.22 2.31-1.76 2.9-.55.59-.7 1.28-.59 2 .09.59-.19 3.31-.23 4.22-.05.9.18 1.13.55 1.17.36.05.86-.13 1.04-1.22-.18 1.09 1.31.73 1.4-.09-.04 1.18 1.54.5 1.64-.59 0 .77 1.2.24 1.31-.14.27-.9.5-1.9.86-2.63.53-1.05 1.1-2.41 2.13-3.17 1.18-.86.64-1.82 3.09-3.04z" fill="#ffe1cf" fill-rule="nonzero"/><path d="M341.13 264.91c3.25-1.62 6.86-2.44 9.45-3.03.69-.15 1.31-.29 1.82-.43 1-.26 2.25-.73 3.51-1.27 1.79-.77 3.6-1.67 4.72-2.25.88-.47 1.69-1.01 2.41-1.5.83-.55 1.55-1.03 2.14-1.23.58-.2 1.2-.5 1.76-.95.45-.38.86-.85 1.16-1.44 1.77-3.44 3.13-6.54 4.04-9.38.92-2.83 1.39-5.4 1.39-7.8 0-1.24-.12-2.54-.46-3.5-.19-.5-.43-.91-.74-1.16-.3-.23-.68-.32-1.14-.19-.39.1-.84.35-1.35.78-1.47 1.2-3 2.98-4.26 4.87-1.22 1.83-2.19 3.77-2.59 5.4-.9 3.59-1.71 5.2-2.2 6.18-.21.41-.36.71-.44.99-.24.9-1.02 1.05-2.02 1.24a9.002 9.002 0 00-.61.12c-2.67.59-4.31 1.08-5.79 1.8-1.47.73-2.79 1.67-4.77 3.16a86.284 86.284 0 01-5.28 3.66 112.258 112.258 0 01-5.98 3.61l-.89.5c-2.11 1.17-2.59 1.44-3.14 2.57-.32.67-.63 1.25-.93 1.74-.29.49-.58.9-.86 1.2-.25.27-.41.56-.5.86-.1.33-.11.68-.06 1.03.07.42-.05 1.86-.14 3.01-.04.51-.07.96-.08 1.23-.03.43.01.69.1.85.07.13.19.18.33.2.17.02.38-.02.56-.23.15-.17.27-.45.35-.89l.24.04-.24-.04.24.04c-.04.25.02.4.12.47.06.04.13.06.21.06.08.01.18-.01.27-.04.27-.09.53-.32.56-.61l.25.02c-.01.24.06.38.16.44.06.04.14.05.22.04.09-.01.2-.04.3-.09.34-.17.66-.55.7-1l.25.01c0 .11.03.18.08.22.05.04.11.05.19.05s.18-.02.27-.06c.25-.08.49-.25.53-.38.07-.23.13-.46.19-.68.2-.71.4-1.42.68-1.97l.21-.43c.48-.98 1.03-2.11 1.96-2.79.43-.32.62-.65.83-1.01.34-.59.72-1.25 2.2-2.01l.07-.03zm9.5-2.78c-2.55.58-6.12 1.38-9.32 2.97l-.07.03c-1.47.74-1.83 1.37-2.16 1.95-.22.38-.43.73-.9 1.08-.88.64-1.42 1.74-1.89 2.7l-.21.43c-.27.54-.46 1.23-.65 1.92-.07.24-.13.47-.2.69-.06.2-.37.44-.68.55-.12.04-.25.07-.36.07-.13 0-.25-.03-.34-.1l-.02-.02c-.15.37-.45.66-.75.81-.13.07-.26.11-.39.12a.668.668 0 01-.37-.07.57.57 0 01-.2-.23c-.14.19-.35.33-.56.4-.12.04-.25.06-.36.05-.13 0-.24-.04-.34-.1a.345.345 0 01-.12-.12c-.08.19-.16.34-.26.46a.87.87 0 01-.78.31c-.22-.03-.4-.11-.52-.33-.11-.2-.16-.5-.13-.98.01-.29.05-.74.09-1.24.08-1.14.19-2.56.13-2.95-.06-.39-.04-.77.07-1.14.1-.34.28-.66.56-.96.26-.29.54-.68.83-1.16.29-.49.6-1.06.91-1.71.59-1.21 1.08-1.49 3.25-2.69l.88-.5c1.64-.92 3.74-2.16 5.98-3.6a90.572 90.572 0 005.26-3.65c2-1.5 3.32-2.45 4.81-3.18 1.5-.73 3.16-1.23 5.85-1.83l.61-.12c.92-.17 1.63-.3 1.83-1.06.09-.3.24-.61.45-1.03.49-.98 1.29-2.57 2.18-6.13.42-1.66 1.4-3.62 2.63-5.47 1.27-1.92 2.82-3.71 4.31-4.93.54-.45 1.02-.72 1.44-.83.55-.15 1-.05 1.37.24.35.27.62.72.81 1.27.35.99.48 2.32.48 3.58 0 2.42-.48 5.02-1.4 7.88-.92 2.85-2.28 5.96-4.05 9.41a4.702 4.702 0 01-1.24 1.52c-.57.47-1.22.79-1.83.99-.56.19-1.26.66-2.08 1.21-.72.49-1.54 1.04-2.44 1.51a68.977 68.977 0 01-4.73 2.26c-1.27.54-2.53 1.02-3.55 1.29-.51.13-1.13.27-1.83.43z" fill-rule="nonzero"/><path d="M370.57 339.3c.28 1 .77 2.13.95 2.81.19.68-.13.9-.31 1.27-.95 2-1.98 5.18-2.13 6.9-.09 1-.77 1.95-1.09 2.54-.35.65-.22 1.15.59 1.76.38.3 1.63-.09 1.77-.72.45.45 1.26.27 1.63-.41.41.41 1.09.14 1.54-.54.41.27 1-.28 1.22-.64.64.32 1.32-.07 1.34-1.31.01-.25.16-.68.34-.98.18-.29.25-.86.23-1.36-.02-.5.3-1.5.73-2.2.43-.7 1.18-1.95.86-3.13-.3-1.1-.77-.99-1.18-2.58-1-1.05-2.36-2.5-3.76-2.59-1.41-.09-2.23.86-2.73 1.18z" fill="#ffe1cf" fill-rule="nonzero"/><path d="M370.72 339.36c.14.49.34 1.03.52 1.52.16.46.32.88.4 1.2.16.57-.01.84-.18 1.12-.05.08-.1.16-.14.24-.48 1.02-.99 2.35-1.39 3.63-.37 1.22-.65 2.39-.73 3.22-.07.83-.54 1.62-.89 2.21-.07.13-.15.26-.21.38-.16.29-.21.55-.13.8.08.25.3.51.68.81.04.02.09.04.15.05.18.04.44.01.69-.08.26-.09.49-.23.63-.41.05-.07.09-.14.1-.22l.05-.22.16.16c.06.05.11.1.17.13.16.08.35.1.53.07.19-.04.37-.14.53-.29.08-.08.15-.18.21-.29l.08-.15.12.12c.02.03.05.05.08.07.13.09.3.11.47.06.18-.05.37-.16.55-.34.08-.09.17-.19.25-.31l.07-.11.11.08c.15.09.34.04.52-.08.2-.12.38-.32.49-.49l.09-.13.1.05c.12.06.24.09.35.09.13 0 .25-.03.35-.1.11-.07.21-.18.28-.33.11-.21.17-.5.18-.86 0-.14.04-.32.11-.51.06-.18.15-.38.25-.53.07-.13.13-.31.16-.52.04-.24.06-.52.05-.77-.02-.27.06-.67.2-1.09.13-.4.32-.83.54-1.18.21-.35.5-.83.7-1.37.19-.52.3-1.11.15-1.66-.13-.48-.3-.72-.47-.99-.23-.33-.48-.7-.7-1.57l-.03-.03c-.98-1.02-2.3-2.41-3.63-2.49-1.07-.07-1.8.5-2.29.89-.1.08-.2.16-.28.22zm.28 1.61c-.19-.52-.4-1.09-.55-1.63-.01-.04 0-.07 0-.11l.06-.03c.09-.07.21-.16.33-.26.53-.41 1.3-1.02 2.46-.94 1.43.09 2.79 1.51 3.8 2.57l.07.08.01.03c.22.85.46 1.2.67 1.52.19.29.37.55.51 1.06.16.62.05 1.25-.16 1.82-.2.56-.5 1.05-.72 1.41-.2.33-.38.74-.51 1.13-.13.39-.2.76-.19 1 .01.27-.01.56-.05.82-.04.24-.1.45-.2.61-.09.14-.17.31-.23.48-.06.17-.09.32-.09.43-.01.41-.08.73-.2.97-.1.19-.23.34-.37.43a.868.868 0 01-.49.14c-.12 0-.24-.02-.36-.07-.13.18-.33.38-.54.51-.22.14-.47.22-.69.13-.07.09-.14.18-.22.26-.2.2-.44.35-.66.41-.24.06-.47.03-.67-.1a.906.906 0 01-.18.21c-.19.19-.42.32-.65.36-.24.05-.48.02-.69-.09l-.09-.05c-.02.04-.05.09-.08.13-.17.22-.45.39-.74.5-.29.1-.61.14-.84.09a.664.664 0 01-.24-.11c-.42-.32-.67-.62-.77-.93-.1-.32-.04-.64.15-.99.06-.11.13-.24.22-.39.33-.57.78-1.33.85-2.1.08-.85.36-2.04.74-3.27.4-1.3.92-2.64 1.41-3.67.04-.09.09-.18.14-.26.15-.23.29-.45.16-.92-.08-.31-.23-.73-.4-1.18z" fill-rule="nonzero"/><path d="M344.77 347.1c1.27 1.27 4.13 1.32 6.12-.82-.72-.31-2.31-1.04-3.04-1.63-.99 1-2.13 2.13-3.08 2.45z" fill="#ffe1cf" fill-rule="nonzero"/><path d="M344.74 347.25l-.28-.27h.29c.92-.32 2.03-1.43 3.02-2.41l.08-.09.08.08c.36.28.93.61 1.5.9.58.3 1.15.55 1.51.71l.17.07-.27.28c-1 1-2.19 1.49-3.3 1.58-1.11.09-2.14-.23-2.8-.85zm.26-.1c.61.51 1.53.78 2.52.7 1.06-.09 2.19-.56 3.15-1.51l.01-.01c-.37-.16-.87-.39-1.36-.65-.54-.27-1.08-.58-1.45-.86-.93.92-1.96 1.94-2.87 2.33z" fill-rule="nonzero"/><path d="M357.61 202.89c.49-3.22 2.77-3.14 4.21-2.81.59.14 2.04.27 3.4-.09 2.69-.72 4.72.23 4.45 2.81.72.55 1.49 1.82 1.36 2.9-.14 1.09.09 1.55 1.09 1.68.99.14 3.13 1.36 1.72 3.09 1.36.81 2.4 2.9 1.68 4.3-.73 1.41-2.91 1.64-3.81.37-1 .45-2.63.54-3.63-.5-.68.81-2.4.72-2.72 0-.32-.73-.86-1.12-1.5-1.32-.73-.22-.77-2.22.32-2.45-.14-.59-.09-1.27.18-1.58.27-.32.05-.91-.59-1.41-.64-.5-1.18-2.4-.54-3.45-1.09.37-3.49-.68-3.99-1.4-.5-.73-1.18-.77-1.64-.14h.01z" fill="#870f00" fill-rule="nonzero"/><path d="M357.49 202.84c.26-1.64.98-2.45 1.82-2.8.85-.36 1.8-.25 2.54-.08.34.08.96.15 1.69.13a6.958 6.958 0 001.65-.22c.78-.21 1.51-.28 2.15-.21.59.06 1.11.24 1.52.55.41.31.71.74.85 1.29.1.36.13.78.09 1.25.39.3.78.81 1.04 1.37.24.51.38 1.07.31 1.6-.06.52-.05.88.1 1.12.15.23.42.36.88.42.43.06 1.06.31 1.55.7.23.2.44.43.57.69.14.26.21.56.17.89-.04.28-.17.58-.4.89.69.46 1.28 1.22 1.6 2.04.31.8.37 1.66.01 2.36-.17.32-.41.59-.69.79-.38.27-.83.43-1.28.47-.46.04-.92-.04-1.32-.25a1.87 1.87 0 01-.67-.55c-.56.23-1.29.36-1.99.26-.58-.08-1.14-.3-1.6-.73-.14.14-.31.25-.5.33-.35.15-.76.21-1.13.19-.38-.03-.74-.15-.97-.35a.78.78 0 01-.24-.3c-.15-.35-.35-.61-.59-.81a2.494 2.494 0 00-.82-.44c-.22-.06-.38-.25-.49-.5-.09-.23-.14-.53-.13-.82.02-.29.09-.59.23-.83.14-.23.33-.42.59-.51-.05-.28-.06-.58-.03-.85.03-.29.12-.55.27-.72l.01-.02c.09-.11.09-.28.02-.47-.08-.21-.26-.45-.52-.67l-.09-.07c-.36-.29-.7-1.01-.82-1.77-.09-.55-.07-1.13.13-1.6-.52.07-1.2-.06-1.85-.29-.89-.31-1.73-.81-2.02-1.22-.11-.16-.23-.28-.35-.37a.814.814 0 00-.41-.16.676.676 0 00-.4.13c-.09.06-.17.14-.25.24l-.01.08h-.35l.13-.18zm1.92-2.57c-.71.3-1.32.95-1.61 2.24l.03-.02c.17-.12.35-.17.54-.17.19.01.38.08.56.2.14.11.28.25.41.44.25.37 1.05.83 1.89 1.13.73.25 1.48.38 1.96.23l.32-.11-.18.29c-.27.45-.31 1.07-.22 1.67.12.71.42 1.36.74 1.61l.09.08c.29.25.5.52.59.77.11.28.09.53-.06.72l-.01.02c-.12.13-.19.34-.22.59-.03.28-.01.59.06.89l.03.12-.13.03c-.24.05-.42.21-.54.41-.12.21-.19.47-.2.72-.01.26.03.51.11.71.08.19.19.32.33.36.34.11.65.26.91.49.27.22.5.52.66.9.04.08.09.15.17.21.19.16.49.26.83.29.33.02.7-.03 1.01-.17.2-.08.37-.21.5-.36l.09-.11.1.1c.43.45.98.68 1.54.75.7.1 1.42-.04 1.95-.28l.09-.04.06.08c.17.24.39.43.64.56a2.308 2.308 0 002.34-.2c.25-.18.47-.42.62-.7.32-.64.27-1.42-.02-2.16-.32-.82-.93-1.57-1.62-1.99l-.12-.07.09-.11c.26-.32.39-.62.43-.89.04-.26-.02-.51-.14-.74-.12-.22-.3-.43-.51-.6-.45-.37-1.03-.6-1.42-.65-.54-.08-.87-.24-1.06-.54-.18-.3-.21-.71-.14-1.28.06-.48-.06-1-.28-1.47-.26-.55-.65-1.04-1.03-1.32l-.05-.04v-.07c.05-.47.03-.87-.07-1.23-.13-.49-.39-.87-.76-1.15-.37-.28-.85-.45-1.4-.5-.61-.07-1.3 0-2.06.2-.57.15-1.16.22-1.7.24-.76.02-1.41-.07-1.76-.15-.7-.16-1.6-.26-2.38.07zm-1.14 16.47c.84-.11 1.41-.42 1.92-.7.57-.31 1.07-.58 1.78-.53l-.02.25c-.64-.04-1.11.21-1.64.5-.53.29-1.12.61-2.01.72l-.03-.24zm-3.67-4.9c.06.05.12.09.18.13.07.04.15.09.23.13.29.16.62.2.92.23l.15.02-.03.25-.14-.02c-.34-.04-.69-.08-1.02-.26-.08-.04-.16-.09-.24-.14-.08-.05-.15-.1-.21-.15l.16-.19zm.49-1.9c.13.04.26.1.39.18.14.07.27.17.4.3l-.18.18c-.11-.11-.22-.2-.34-.27a2.761 2.761 0 00-.36-.15l.09-.24z" fill-rule="nonzero"/><path d="M359.06 202.98a.763.763 0 01-.19-.91c.08-.18.23-.36.43-.5.2-.15.44-.27.73-.34.98-.26 2.44-.02 3.92 1.44.21.2.56.32.93.39.53.09 1.08.06 1.3-.01l.08.23c-.25.09-.86.12-1.42.02-.41-.07-.81-.21-1.06-.45-1.41-1.39-2.78-1.62-3.69-1.38-.25.07-.47.17-.64.3-.16.12-.28.26-.35.4-.09.22-.06.45.13.63l-.17.18zm4.14 1.33c.79-.18 1.81-.26 2.66 0 .65.2 1.2.6 1.47 1.3.27.7.67.84 1.12.99.52.18 1.09.38 1.6 1.36.47.89 1.07 1.84 1.73 2.39.63.52 1.31.67 1.97.03l.17.17c-.78.77-1.57.6-2.3 0-.69-.58-1.31-1.56-1.79-2.48-.47-.88-.99-1.06-1.47-1.23-.5-.17-.95-.33-1.26-1.14-.24-.62-.73-.97-1.32-1.15-.79-.25-1.77-.17-2.52.01l-.06-.25zm4.78 10.4c-.22-.29-.38-.76-.44-1.25-.06-.45-.04-.93.08-1.34-.23-.3-.31-.71-.31-1.13 0-.57.15-1.16.34-1.53l.22.11c-.17.34-.31.89-.31 1.42 0 .39.08.78.3 1.03l.04.05-.02.07c-.13.38-.15.84-.09 1.28.05.46.19.88.39 1.14l-.2.15zm-3.68-3.85c.03.28.25.7.63 1.04.31.27.7.5 1.18.57l-.04.25c-.53-.08-.97-.33-1.3-.63-.43-.39-.69-.87-.72-1.21l.25-.02zm7.31 4.35c-.33-.43-.48-.83-.52-1.26-.04-.43.02-.86.09-1.37l.24.03c-.06.5-.12.92-.08 1.31.04.39.17.75.47 1.14l-.2.15z" fill-rule="nonzero"/><path d="M365.21 206.12c-.02.41.1.89.34 1.3.21.37.52.68.9.84l.05.03.02.04c.1.27.47.82 1.13 1.17.42.22.97.36 1.64.3l.03.25c-.74.07-1.33-.09-1.79-.33-.69-.37-1.08-.94-1.23-1.25-.41-.18-.73-.52-.96-.92-.27-.46-.4-.99-.38-1.44l.25.01zm4.38-3.22c-.49-.38-1.07-.81-1.75-1.17-.67-.36-1.44-.65-2.32-.76l.04-.25c.91.12 1.7.42 2.4.79.69.37 1.28.8 1.79 1.19l-.16.2zm-10.89 26.01c-.76 1.03-1.39 2.26-1.73 3.74-.35 1.48-.42 3.21-.06 5.23l.07.38c.73 4.09 1.75 9.84-1.2 12.52l-.17-.18c2.85-2.59 1.84-8.26 1.12-12.29l-.06-.39c-.37-2.06-.3-3.82.05-5.33.36-1.51 1-2.78 1.78-3.83l.2.15zm11.67 29.79c-1.13-.24-2.53-.35-3.83-.21-1.07.11-2.07.4-2.79.92-.82.59-1.91.92-3.02.98-1.15.07-2.33-.14-3.27-.61l.11-.22c.9.45 2.03.65 3.14.58 1.07-.06 2.12-.37 2.9-.94.76-.54 1.8-.84 2.9-.96 1.33-.15 2.76-.03 3.91.22l-.05.24z" fill-rule="nonzero"/><path d="M366.02 258.57c-.87.15-1.52.53-1.94 1.27-.43.75-.64 1.89-.64 3.55 0 1.06-.07 2.29-.15 3.63-.17 2.84-.37 6.15.06 9.41l-.25.03c-.43-3.28-.23-6.61-.06-9.46.08-1.32.15-2.54.15-3.61 0-1.7.22-2.88.68-3.68.46-.81 1.16-1.22 2.1-1.39l.05.25zm-3.31 1.4l-.26.07c-1.04.26-2.02.51-1.82 3.34l-.25.02c-.21-3.04.87-3.32 2.01-3.6l.26-.07.06.24zm-6.27 3.51c.01-.6.08-1.18.21-1.7.14-.55.34-1.02.61-1.36.27-.35.62-.56 1.04-.55.09 0 .19.02.29.04l-.06.24a.968.968 0 00-.24-.03c-.33-.01-.61.16-.84.46-.24.31-.43.75-.56 1.26-.12.5-.19 1.07-.2 1.64h-.25zm13.06.36c.04-2.14-.17-3.5-.55-4.32-.31-.68-.73-.98-1.22-1.03l-.24-.01v-.25c.09 0 .18 0 .27.01.78.04 1.45.18 2.02 1.07.61.96 1.1 2.79 1.46 6.33.4 3.85 1.1 5.88 1.94 8.32.3.87.62 1.8.96 2.91 1.92 6.29 2.15 14.58 2.34 21.53.14 4.88.26 9.1.93 11.48l-.25.07c-.67-2.41-.79-6.65-.93-11.54-.19-6.94-.42-15.21-2.33-21.47-.33-1.08-.65-2.02-.96-2.9-.84-2.45-1.54-4.49-1.95-8.37-.36-3.5-.83-5.3-1.42-6.22-.27-.43-.58-.67-.91-.8.19.18.37.43.52.76.39.86.61 2.26.57 4.43h-.25zm-2.25 1.23c1.72 5 3.04 10.27 3.22 16.52.18 6.24-.77 13.45-3.57 22.34 1.53 4.22 3.06 7.97 4.38 11.24 1.98 4.85 3.52 8.62 3.95 11.23l-.25.04c-.43-2.58-1.96-6.34-3.93-11.18-1.33-3.27-2.87-7.04-4.4-11.29l-.02-.04.02-.04c2.8-8.87 3.75-16.07 3.57-22.29-.18-6.22-1.49-11.47-3.21-16.45l.24-.08zm-11.13 23.59c.22-.77.08-1.31-.1-2.03-.34-1.35-.83-3.3.46-8.49.43-1.72.68-3.1.76-4.18.07-1.06-.03-1.83-.29-2.35l.22-.12c.28.57.39 1.38.32 2.49-.08 1.1-.33 2.49-.76 4.22-1.28 5.13-.8 7.05-.46 8.37.18.75.33 1.32.09 2.15l-.24-.06z" fill-rule="nonzero"/><path d="M357.18 276.29c-.34 1.5.09 3.58.57 5.84.63 3.03 1.33 6.37.34 9.14l-.24-.08c.97-2.7.28-6.02-.35-9.01-.48-2.29-.92-4.39-.56-5.94l.24.05zm-3.35 15.85c0 1.35.14 2.88.28 4.42.18 1.98.36 4.01.26 5.74-.14 2.42.62 3.81 1.66 5.73.27.51.57 1.04.87 1.65 2.63 5.26 4.84 9.78 6.34 14.21 1.49 4.45 2.26 8.82 2.01 13.79-.01.38 0 .85.02 1.37.05 1.96.13 4.55-1.44 5.44l-.12-.22c1.43-.82 1.36-3.32 1.3-5.22-.01-.52-.02-1 0-1.39.24-4.93-.53-9.27-2.01-13.69-1.49-4.42-3.7-8.92-6.32-14.18-.3-.6-.6-1.14-.87-1.64-1.06-1.96-1.83-3.38-1.69-5.86.1-1.72-.08-3.73-.26-5.71-.14-1.56-.28-3.09-.28-4.44h.25zm.02 54.79c.24.02.49-.03.76-.27.29-.25.6-.71.93-1.51.41-.99 1.39-5.03 1.87-9.56.31-2.86.42-5.92.07-8.52l.25-.03c.35 2.62.24 5.7-.07 8.58-.49 4.55-1.47 8.62-1.89 9.63-.35.83-.68 1.32-.99 1.6-.33.29-.65.36-.95.33l.02-.25zm4.97-12.27c.15 1.21.22 3.14-.01 5.2-.17 1.53-.51 3.13-1.09 4.57l-.23-.1c.57-1.41.9-2.99 1.07-4.5.23-2.04.16-3.95.01-5.14l.25-.03z" fill-rule="nonzero"/><path d="M362.26 328.4c.4 2.13.58 4.16.59 6.01.02 2.01-.16 3.81-.5 5.28l-.24-.05c.33-1.46.51-3.24.49-5.23-.01-1.83-.19-3.85-.58-5.97l.24-.04zm-1.81 11.26c.02.37.07.85.12 1.38.22 2.15.52 5.14-.67 5.46l-.06-.24c.98-.27.69-3.14.48-5.19-.05-.54-.1-1.03-.12-1.4l.25-.01zm6.78-21.1c1.61 2.52 3.05 6.8 4.42 10.88 1.5 4.44 2.91 8.64 4.36 10.04l-.17.18c-1.49-1.44-2.92-5.67-4.42-10.14-1.37-4.07-2.81-8.33-4.4-10.83l.21-.13zm2.68 18.94l-.01-.19c-.09-1.41-.21-3.25-.96-4.09l.19-.17c.81.9.92 2.8 1.01 4.25l.02.18-.25.02zm-36.24-63.51c.01-.15.01-.29.01-.44.01-.87.02-1.77.97-3.11l.2.14c-.9 1.28-.91 2.14-.92 2.97 0 .15 0 .31-.01.45l-.25-.01zm-1.63.59l.02-.58c.11-2.99.13-3.33 1.11-4.26l.17.18c-.91.86-.92 1.19-1.03 4.09l-.02.58-.25-.01zm-1.41.1c.01-.57.01-1.05 0-1.47-.03-1.48-.04-2.28.75-3.54l.21.13c-.75 1.2-.74 1.98-.71 3.4.01.43.01.91 0 1.48h-.25zm12.71-74.72c-.15.1-.59.42-1.12.82-.82.61-1.89 1.43-2.47 1.87l-.16-.2c.58-.43 1.63-1.24 2.48-1.87.54-.41.98-.73 1.14-.83l.13.21zm.93.86c-.33.05-1.27.78-2.88 2.03l-.96.75-.16-.19.97-.75c1.64-1.28 2.59-2.03 2.99-2.09l.04.25zm.1 1.39c-.39.18-.99.67-1.66 1.22-.51.42-1.06.87-1.59 1.24l-.14-.2c.52-.37 1.07-.82 1.57-1.23.69-.56 1.3-1.07 1.71-1.26l.11.23zm-5.56-.26c-.17.13-.44.39-.7.65-.23.23-.45.45-.61.57l-.15-.19c.14-.12.36-.33.59-.56.26-.26.54-.53.72-.67l.15.2zm31.44 151.99c-.13-.14-.19-.46-.16-.86.03-.34.13-.75.3-1.17l.23.09c-.16.4-.25.78-.28 1.1-.02.33.01.58.1.68l-.19.16zm1.64-.4c-.14-.14-.16-.45-.12-.81.06-.43.2-.96.34-1.36l.24.08c-.14.39-.28.9-.33 1.31-.04.29-.03.53.05.6l-.18.18zm1.58-.52h-.01c-.18-.09-.3-.31-.31-.63-.01-.28.06-.65.26-1.07l.04-.1.23.11-.05.1c-.17.38-.24.71-.23.95.01.22.07.36.17.41h.01l-.11.23zm1.24-.63h-.01c-.14-.05-.24-.18-.26-.43-.01-.21.04-.51.19-.95l.07-.19.23.09-.06.18c-.14.41-.19.68-.18.86.01.13.05.18.09.2l-.07.24zM356.9 205.75c.66.86 1.34.77 1.46 1.33.12.55.2.59.33.75.13.17-.31.14-.52.05-.21-.09-.75-.08-1.07-.08-.33.01-.71-.37-.47-.42.24-.04.21-.12.17-.29-.03-.17.14-.43.24-.48.1-.05.03-.04-.06-.27-.1-.23-.22-.78-.08-.59zm.4-.79c.74.09 2.01.48 2.69 1.25.55.6.1.44-.17.46-.28.02-.81-.17-1.08-.51-.27-.34-1.07-.78-1.5-.89-.26-.06-.5-.38.06-.31z" fill-rule="nonzero"/><path d="M78.45 132.27c29.89-42.82 74.88-74.32 127.24-86.79h3.16v21.59l-130.4 65.2zm-28.49 57.42c4.15-12.92 9.48-25.32 15.87-37.05l143.02 71.51v22.49h-44.99l-113.9-56.95z" fill="#fff" fill-rule="nonzero"/><path d="M52.13 183.28c3.03-8.49 6.57-16.74 10.59-24.7l146.13 73.07v14.99h-29.99L52.13 183.28zm35.33-63.02c30.08-37.28 72.26-64.39 120.58-75.32h.81v14.63L87.46 120.26z" fill="#c8102e" fill-rule="nonzero"/><path d="M53.6 179.28c9.48-24.99 23.45-47.77 40.93-67.35h114.32v67.35H53.6z" fill="#fff" fill-rule="nonzero"/><path d="M59.23 165.81a216.483 216.483 0 0124.21-40.41h125.41v40.41H59.23z" fill="#c8102e" fill-rule="nonzero"/></svg>