<svg xmlns="http://www.w3.org/2000/svg" shape-rendering="geometricPrecision" text-rendering="geometricPrecision" image-rendering="optimizeQuality" fill-rule="evenodd" clip-rule="evenodd" viewBox="0 0 512 512"><g fill-rule="nonzero"><path fill="#4D4D4D" d="M256 0c70.684 0 134.689 28.664 181.012 74.987C483.336 121.311 512 185.316 512 256c0 70.684-28.664 134.689-74.988 181.013C390.689 483.336 326.684 512 256 512c-70.677 0-134.689-28.664-181.013-74.987C28.664 390.689 0 326.676 0 256c0-70.684 28.664-134.689 74.987-181.013C121.311 28.664 185.316 0 256 0z"/><path fill="#fff" d="M256.001 19.597c65.278 0 124.382 26.466 167.162 69.242 42.776 42.78 69.242 101.884 69.242 167.162S465.939 380.384 423.16 423.16c-42.777 42.78-101.881 69.246-167.159 69.246-65.278 0-124.382-26.466-167.162-69.243-42.777-42.779-69.243-101.884-69.243-167.162S46.062 131.619 88.839 88.839c42.78-42.776 101.884-69.242 167.162-69.242z"/><path fill="#007934" d="M459.654 329.338c-30.046 83.422-109.881 143.07-203.653 143.07-93.775 0-173.61-59.648-203.653-143.07h407.306z"/><path fill="#F9E300" d="M52.348 329.338h407.306c8.249-22.902 12.754-47.591 12.754-73.337 0-25.822-4.532-50.585-12.827-73.543H52.421c-8.295 22.958-12.827 47.721-12.827 73.543 0 25.746 4.505 50.435 12.754 73.337z"/><path fill="#D52B1E" d="M52.421 182.458h407.16C429.477 99.142 349.696 39.594 256.001 39.594c-93.698 0-173.477 59.548-203.58 142.864z"/></g></svg>