<svg xmlns="http://www.w3.org/2000/svg" shape-rendering="geometricPrecision" text-rendering="geometricPrecision" image-rendering="optimizeQuality" fill-rule="evenodd" clip-rule="evenodd" viewBox="0 0 512 420.17"><path d="M74.32 0h363.36C478.55 0 512 33.46 512 74.32v271.53c0 40.82-33.5 74.32-74.32 74.32H74.32C33.44 420.17 0 386.69 0 345.85V74.32C0 33.41 33.41 0 74.32 0zm174.47 284.01h-52.14l-19.43-44.09h-10.19v44.09h-47.4V135.88h74.65c33.97 0 50.96 17.31 50.96 51.9 0 23.71-7.34 39.35-22.04 46.93l25.59 49.3zm60.44-148.13v111.16h16.83c6 0 10.11-.75 12.33-2.26 2.21-1.5 3.31-4.93 3.31-10.3v-98.6h47.4v83.19c0 13.43-.86 24.25-2.61 32.47-1.74 8.22-4.97 15.17-9.71 20.85-4.74 5.69-11.22 9.64-19.44 11.85-8.21 2.22-18.88 3.32-31.99 3.32-13.12 0-23.74-1.1-31.88-3.32-8.14-2.21-14.57-6.16-19.32-11.85-4.73-5.68-7.98-12.63-9.71-20.85-1.74-8.22-2.61-19.04-2.61-32.47v-83.19h47.4zm-142.2 37.92v29.62h10.9c5.69 0 9.84-.59 12.44-1.77 2.61-1.18 3.91-3.91 3.91-8.18v-9.72c0-4.26-1.3-6.98-3.91-8.17-2.6-1.18-6.75-1.78-12.44-1.78h-10.9z"/></svg>