<svg xmlns="http://www.w3.org/2000/svg" shape-rendering="geometricPrecision" text-rendering="geometricPrecision" image-rendering="optimizeQuality" fill-rule="evenodd" clip-rule="evenodd" viewBox="0 0 511.998 511.998"><path fill="#4D4D4D" fill-rule="nonzero" d="M255.999 0c70.683 0 134.688 28.663 181.012 74.987 46.323 46.323 74.987 110.328 74.987 181.012 0 70.683-28.664 134.688-74.987 181.012-46.324 46.323-110.329 74.987-181.012 74.987-70.676 0-134.689-28.664-181.012-74.987C28.663 390.687 0 326.675 0 255.999 0 185.315 28.663 121.31 74.987 74.987 121.31 28.663 185.315 0 255.999 0z"/><path fill="#fff" fill-rule="nonzero" d="M256 19.596c65.278 0 124.382 26.466 167.161 69.243 42.777 42.779 69.243 101.883 69.243 167.161s-26.466 124.382-69.246 167.158c-42.776 42.78-101.88 69.246-167.158 69.246-65.278 0-124.382-26.466-167.161-69.243C46.062 380.382 19.596 321.278 19.596 256S46.062 131.618 88.839 88.839C131.618 46.062 190.722 19.596 256 19.596z"/><g fill-rule="nonzero"><path d="M256 39.594c119.517 0 216.406 96.886 216.406 216.406 0 119.517-96.889 216.406-216.406 216.406-119.52 0-216.406-96.889-216.406-216.406C39.594 136.48 136.48 39.594 256 39.594z"/><path fill="#FCDC04" d="M97.078 109.132h317.844c19.39 20.969 34.681 45.784 44.604 73.171H52.474c9.923-27.387 25.211-52.202 44.604-73.171z"/><path fill="#D90000" d="M52.474 182.303h407.052c8.275 22.846 12.812 47.479 12.874 73.169H39.6c.062-25.69 4.599-50.323 12.874-73.169z"/><path fill="#FCDC04" d="M52.102 328.64h407.796c-9.742 27.346-24.822 52.155-43.993 73.172H96.095c-19.171-21.017-34.251-45.826-43.993-73.172z"/><path fill="#D90000" d="M96.095 401.812h319.81c-39.576 43.375-96.561 70.594-159.905 70.594-63.347 0-120.329-27.219-159.905-70.594z"/></g><circle fill="#fff" fill-rule="nonzero" cx="256" cy="242.701" r="106.885"/><path fill="#D90000" fill-rule="nonzero" d="M237.161 160.839l-6.932-12.769c2.675-2.674 7.175-4.743 14.35-4.743 0 .487-.729 13.987-.729 13.987l-6.689 3.525z"/><path fill-rule="nonzero" d="M236.661 161.112l-7.136-13.143.299-.3c1.489-1.49 3.515-2.797 6.206-3.687 2.322-.766 5.144-1.226 8.549-1.226h.572v.571c0 .483-.731 13.98-.733 14.019l-.018.323-7.47 3.938-.269-.495zm-5.726-12.932l6.458 11.893 5.904-3.112c.097-1.804.575-10.675.688-13.057-3.012.05-5.521.478-7.598 1.164-2.33.77-4.114 1.864-5.452 3.112z"/><path fill="#FCDC04" fill-rule="nonzero" stroke="#000" stroke-miterlimit="22.926" d="M243.849 157.435l.973-14.106s14.352-.852 22.134 8.511c.122-.121-7.661 10.945-7.661 10.945l-15.446-5.35z"/><path fill="#D90000" fill-rule="nonzero" d="M259.538 162.664l7.054-10.945c4.743 4.987 6.687 8.514 7.418 13.865.121.121-11.189 2.796-11.189 2.674 0-.122-3.161-5.473-3.283-5.594z"/><path fill-rule="nonzero" d="M259.058 162.355l7.448-11.553.499.525c2.406 2.53 4.108 4.696 5.303 6.918 1.182 2.196 1.866 4.435 2.246 7.115.117.211.07.423-.141.634-.17.17-2.958.893-5.748 1.557-2.743.653-5.546 1.283-5.828 1.283-.392 0-.589-.23-.589-.576 0-.051-.623-.991-1.31-2.162-.845-1.44-1.765-2.99-1.804-3.029l-.325-.324.249-.388zm7.618-9.713l-6.463 10.028c.375.602 1.071 1.765 1.708 2.85.475.81.923 1.6 1.197 2.125.787-.154 3.041-.673 5.284-1.206a898.92 898.92 0 004.983-1.196c-.367-2.42-1.007-4.461-2.082-6.458-1.061-1.971-2.552-3.913-4.627-6.143z"/><path fill-rule="nonzero" d="M240.687 343.382s13.257-15.202 39.039-11.918c-3.892-6.325-16.418-5.595-16.418-5.595s-3.891-29.551-.851-31.011c3.041-1.46 15.93.121 15.93.121 1.703 0 4.622-4.621 2.312-7.539-2.312-2.92-9.123-14.108-6.325-16.297 2.799-2.189 17.999 1.216 17.999 1.216l-42.929-54.97s-4.378-20.674 4.379-30.646c10.581-8.757 9.486-18.242 9.121-18.121-1.46-9.607-16.053-16.54-25.904-7.661-5.838 7.053-1.947 12.405-1.947 12.405s-15.323 4.135-15.931 6.809c-.608 2.677 17.27-.485 17.27-.485l-1.703 12.283s-34.782 31.619-8.148 58.982c.243-.121.851-1.217.851-1.217s9.365 11.554 19.216 14.107c9.242 9.487 8.39 8.027 8.39 8.027s1.825 14.96.123 17.878c-2.311-.73-25.905-1.581-29.431-.244-3.162.974-15.323.365-12.283 20.189 2.31-5.352 4.379-10.095 4.379-10.095s-.367 7.175 2.553 9.728c-.485-7.54 2.798-12.646 2.798-12.646s.608 8.269 2.431 9.484c1.825 1.216 1.825-13.377 11.92-12.16 10.092 1.216 17.389.851 17.389.851s3.406 28.579 2.311 31.254c-7.297-1.702-24.687.732-25.782 5.109 10.215-.609 14.959.607 14.959.607s-8.269 7.297-5.715 11.553l-.003.002z"/><path fill-rule="nonzero" d="M240.871 342.364c2.831-2.821 15.516-13.94 37.61-11.617-4.374-4.934-15.115-4.31-15.147-4.308l-.522.025-.069-.521c-.012-.085-3.94-29.96-.532-31.6 3.098-1.486 15.399-.032 16.2.065.188-.01.426-.131.682-.333.464-.367.934-.97 1.292-1.694s.598-1.562.598-2.393c0-.772-.211-1.539-.73-2.196l-.056-.07c-1.201-1.536-3.491-5.092-5.127-8.533-1.719-3.615-2.703-7.166-1.065-8.478l.018-.016c2.44-1.907 12.965-.017 16.941.785l-42.051-53.846-.028-.134c-.012-.06-4.435-20.946 4.509-31.132l.065-.065c6.907-5.715 8.728-11.716 9.067-15.043a10.31 10.31 0 00.043-1.802l-.002-.127-.09.027-.098-.651c-.337-2.22-1.418-4.296-2.996-6.047-1.645-1.826-3.829-3.295-6.273-4.205-2.443-.91-5.149-1.261-7.843-.852-2.707.411-5.404 1.594-7.812 3.753-5.519 6.698-1.904 11.67-1.894 11.684l.46.662-.779.213c-.043.012-14.995 4.053-15.524 6.386-.417 1.835 16.568-1.167 16.617-1.175l.771-.136-1.841 13.262-.151.139c-.097.09-33.951 30.876-8.552 57.708.173-.285.376-.642.376-.643l.412-.721.526.643c.026.032 9.25 11.412 18.916 13.915l.155.04.11.114c5.406 5.55 7.068 8.026 7.41 8.579-1.292-.959-3.71-3.152-8.119-7.674-8.609-2.312-16.753-11.22-18.841-13.64-.216.321-.473.653-.67.752l-.373.186-.291-.298c-26.061-26.771 5.587-57.378 8.018-59.656l1.571-11.315c-3.514.579-17.858 2.758-17.156-.33.598-2.635 12.551-6.169 15.622-7.036-.87-1.716-2.504-6.525 2.373-12.418l.058-.06c2.594-2.338 5.509-3.619 8.438-4.063 2.888-.439 5.79-.062 8.41.914 2.62.975 4.96 2.55 6.725 4.508 1.693 1.879 2.864 4.114 3.256 6.518.102.212.187.541.22.955a11.5 11.5 0 01-.047 2.005c-.359 3.511-2.262 9.824-9.44 15.779-8.135 9.322-4.598 28.224-4.247 29.99l43.821 56.111-1.542-.336c-.042-.009-14.945-3.342-17.528-1.325l-.006.004c-1.105.876-.131 3.92 1.383 7.105 1.6 3.367 3.828 6.829 4.991 8.316l.053.068c.698.883.98 1.894.98 2.902 0 1.014-.288 2.026-.719 2.898-.432.873-1.018 1.615-1.608 2.083-.467.37-.957.582-1.412.582l-.065-.004c-.037-.004-12.737-1.559-15.62-.177-2.462 1.185.605 26.01 1.103 29.911 2.452-.057 12.822.057 16.407 5.884l.625 1.014-1.183-.15c-23.341-2.974-36.227 9.309-38.255 11.425l.009.015-.314.314-.423-.393-.47.282c-2.263-3.769 2.921-9.448 5.005-11.499-1.893-.312-6.36-.823-13.726-.383l-.776.046.188-.754c.572-2.286 4.803-4.039 9.918-5.053 5.448-1.08 11.966-1.375 15.999-.591.598-4.061-1.964-26.295-2.397-29.992-1.852.056-8.405.156-16.951-.873-6.45-.778-8.537 5.518-9.756 9.196-.358 1.087-.649 1.964-.981 2.463-.403.606-.858.792-1.431.411-1.435-.958-2.174-5.394-2.49-7.999-.905 2.033-2.166 5.818-1.854 10.648l.089 1.368-1.033-.903c-1.922-1.681-2.52-5.127-2.696-7.542l-4.125 9.53-.302-1.965c-2.751-17.945 6.662-19.672 11.228-20.508.584-.107 1.084-.199 1.439-.307 1.596-.59 6.805-.771 12.438-.724 6.93.057 14.559.455 16.85.853 1.232-3.308-.196-15.72-.352-17.039l.055.094.054-.029-.111-.082-.358-2.982 1.411 2.539c.003.007.579 1.025.169 1.08.36 3.259 1.492 14.717-.05 17.36l-.231.396-.435-.137c-1.285-.407-9.533-.853-17.011-.915-5.536-.045-10.614.118-12.046.66l-.033.011c-.416.128-.953.227-1.583.343-4.033.739-12.164 2.232-10.57 17.172 1.909-4.414 3.552-8.18 3.558-8.193l1.218-2.784-.127 3.035c0 .016-.256 5.058 1.366 7.999.051-6.762 2.929-11.236 2.938-11.25l.924-1.428.123 1.698c.002.022.553 7.525 2.04 8.939.243-.379.508-1.18.836-2.169 1.33-4.005 3.602-10.863 10.973-9.974 10.054 1.211 17.28.849 17.3.849l.527-.021.063.524c.01.082 3.42 28.726 2.27 31.535l-.185.451-.472-.11c-3.824-.891-10.503-.619-16.07.483-4.028.799-7.436 1.998-8.622 3.448 9.62-.482 14.124.671 14.137.675l1.048.262-.807.718c-.021.019-6.994 6.179-5.913 10.112zm13.596-70.338l.018.029-.002-.017-.016-.012z"/><path fill="#9CA69C" fill-rule="nonzero" d="M244.787 187.44s-25.309 27.897-14.389 49.243c.581-2.977.327-4.847.692-4.726-.608-.366 3.139 2.569 2.854 1.997.08-1.543-1.141-4.85-1.141-4.85l3.423.856-1.998-3.71 4.852.571s-1.713-4.566-1.141-4.566c.57 0 3.994.286 3.994.286-7.197-12.918-.407-23.644 2.853-35.101h.001zm8.792-23.926s1.337 9.608-3.892 12.406c-.851.608-4.134 1.703-3.649 3.649.609 2.675 2.067 2.189 4.135 1.702 5.473-.973 11.797-12.648 3.406-17.755v-.002z"/><path fill="#9CA69C" fill-rule="nonzero" d="M243.421 189.943c-5.357 6.625-20.467 27.536-13.3 44.775.071-.636.108-1.18.136-1.613.037-.565.064-.963.148-1.211a.943.943 0 01.233-.397c.181-.19.432-.216.746-.026l1.846 1.119c-.302-1.499-.961-3.286-.963-3.293l-.367-1.008 3.212.803-1.906-3.536 5.027.59c-.512-1.512-1.373-4.462-.296-4.462.381 0 1.934.118 3.001.203-5.166-10.108-2.087-18.857 1.02-27.684.498-1.415.997-2.833 1.463-4.26zm-13.529 47c-10.728-20.971 12.727-47.92 14.378-49.778l.085-.296h1.707l-.764.855c-.66 2.303-1.463 4.584-2.264 6.858-3.117 8.855-6.205 17.628-.604 27.682l.524.94-1.071-.093c-.009-.001-3.393-.284-3.946-.284-.307 0 1.675 3.786 1.679 3.797l.32.872-4.685-.551 2.092 3.882-3.663-.916c.303.942.713 2.365.814 3.445l1.319.799-1.296-.438.001.136c.094.303-.023.531-.311.679l-.006.004c-.338.167-1.295-.41-2.145-1.044a7.235 7.235 0 01-.645-.545l-.015.23c-.056.84-.138 2.081-.436 3.614l-.316 1.62-.752-1.468zm24.364-72.264c.165 2.763.072 9.358-4.257 11.718-.217.151-.523.31-.88.495-1.105.573-2.798 1.451-2.527 2.54l.002.011c.451 1.987 1.573 1.719 3.161 1.34l.321-.074c1.862-.331 3.857-2.051 5.246-4.333a12.433 12.433 0 001.478-3.54c.295-1.23.372-2.497.156-3.713-.291-1.638-1.126-3.19-2.7-4.444zm-4.837 10.738c4.876-2.609 3.599-11.798 3.596-11.824l-.168-1.191 1.029.626c2.527 1.538 3.805 3.644 4.205 5.899.243 1.37.157 2.794-.173 4.173a13.623 13.623 0 01-1.612 3.87c-1.543 2.533-3.817 4.457-5.993 4.857l-.285.068c-2.242.535-3.825.912-4.533-2.191-.489-1.96 1.689-3.089 3.111-3.826.329-.17.611-.316.761-.423l.062-.038z"/><circle fill="#fff" fill-rule="nonzero" cx="242.282" cy="171.825" r="2.057"/><path fill="#D90000" fill-rule="nonzero" d="M236.067 179.811c-1.338 1.095-8.391 8.392-1.46 11.067 7.176-1.946 5.229-3.284 6.811-4.864.04-3.283-3.568-4.135-5.351-6.203z"/><path fill-rule="nonzero" d="M236.034 180.606c-.93.88-2.704 2.842-3.488 4.873-.251.65-.396 1.302-.369 1.915.025.576.209 1.128.611 1.62.391.478.991.909 1.851 1.263 4.724-1.302 5.1-2.245 5.473-3.189.165-.419.332-.839.732-1.295-.086-1.749-1.501-2.733-2.915-3.716-.662-.46-1.325-.921-1.895-1.471zm-4.551 4.463c1.005-2.606 3.473-5.087 4.222-5.699l.43-.351.362.42c.544.63 1.315 1.166 2.084 1.7 1.717 1.194 3.437 2.389 3.406 4.882l-.002.233-.165.165c-.354.352-.5.722-.645 1.089-.484 1.223-.968 2.443-6.418 3.922l-.178.048-.177-.068c-1.153-.445-1.963-1.018-2.498-1.673a3.8 3.8 0 01-.866-2.294c-.034-.781.142-1.587.445-2.374z"/><path fill="#9CA69C" fill-rule="nonzero" d="M251.389 248.767c-.365 1.581-1.945 7.418.243 11.918 6.082-2.554 8.879-1.825 10.946-.487-4.985-4.013-6.931-5.716-11.189-11.432v.001z"/><path fill="#9CA69C" fill-rule="nonzero" d="M250.766 248.931l.35-1.486.731.983c2.11 2.833 3.646 4.67 5.266 6.29 1.621 1.621 3.344 3.041 5.821 5.036l8.581 6.91-9.249-5.988c-.955-.619-2.08-1.097-3.666-1.124-1.641-.029-3.785.417-6.748 1.661l-.497.208-.238-.488c-2.156-4.435-.821-10.035-.351-12.002zm.902 1.154c-.49 2.225-1.18 6.404.257 9.862 2.857-1.148 5-1.564 6.693-1.534.336.006.654.029.956.067-1.219-1.022-2.257-1.947-3.264-2.955-1.468-1.467-2.861-3.098-4.642-5.44z"/><path fill="#fff" fill-rule="nonzero" d="M261.848 276.372l.366 13.621s4.742.852 6.931 0c2.19-.852-.122-9.486-7.296-13.621h-.001z"/><path fill="#fff" fill-rule="nonzero" d="M262.446 277.414l.326 12.092c1.204.182 4.514.598 6.169-.045a.469.469 0 00.226-.215c.182-.316.242-.849.18-1.529-.069-.744-.291-1.636-.666-2.599-.996-2.563-3.062-5.586-6.235-7.704zm-.8 12.592l-.394-14.635.88.508c3.93 2.266 6.45 5.84 7.612 8.828.414 1.063.659 2.06.737 2.907.084.912-.026 1.676-.328 2.199a1.578 1.578 0 01-.802.711c-2.336.908-7.227.032-7.241.029l-.452-.085-.012-.462z"/><path fill="#9CA69C" fill-rule="nonzero" d="M296.265 278.075s-8.756-21.159-31.133-26.511c-22.378-5.351-19.459-29.188-17.635-30.647.974-2.068 1.703-5.229 8.149-2.188 6.446 3.04 36.119 17.997 40.376 18.727 4.256.73.608 41.107.244 40.619h-.001z"/><path fill-rule="nonzero" d="M295.742 278.298c-.026-.059-8.649-20.896-30.743-26.181-6.545-1.566-10.979-4.687-13.93-8.381-2.974-3.721-4.434-8.013-5.028-11.875-.595-3.854-.324-7.303.16-9.325.222-.933.517-1.612.82-1.948l.185-.412c1.002-2.261 2.222-5.01 8.683-1.962 1.405.662 4.14 2.004 7.516 3.659 11.177 5.481 29.508 14.471 32.713 15.019 3.294.566 2.631 19.501 1.726 31.561a242.57 242.57 0 01-.61 6.924c-.208 1.973-.518 3.186-.832 3.258l-.034.007a.548.548 0 01-.557-.225l-.043-.058-.026-.061zm-30.48-27.289c19.019 4.55 28.302 20.323 30.811 25.314a6.427 6.427 0 01.026-1.062c.18-1.699.396-4.101.606-6.893.875-11.656 1.681-29.928-.778-30.35-3.357-.575-21.787-9.613-33.022-15.123-3.289-1.612-5.952-2.919-7.502-3.65-5.405-2.549-6.364-.387-7.152 1.391l-.292.64-.106.085c-.154.123-.352.63-.545 1.439-.456 1.91-.708 5.19-.138 8.892.569 3.696 1.96 7.796 4.787 11.334 2.806 3.512 7.039 6.484 13.305 7.983z"/><path fill="#D90000" fill-rule="nonzero" d="M274.983 251.443c-.366.242 29.917 17.875 20.795 33.078 8.636-5.716 5.838-15.688 5.838-15.688s7.054 18.364-10.094 27.363c1.825 1.582 3.041 1.216 3.041 1.216l-2.919 2.919s-1.338 2.189 10.216-3.407c-3.163 2.555-3.406 4.379-3.406 4.379s.851 2.433 8.391-4.134c-6.081 6.567-7.419 9.972-7.419 9.85 16.418-1.46 52.174-54.847-11.309-70.658 3.407 3.528 2.919 3.041 2.919 3.041l-16.053 12.041z"/><path fill-rule="nonzero" d="M274.512 251.779c-.219-.326-.167-.598.155-.813l15.522-11.642-3.862-3.998 1.927.48c18.576 4.627 28.756 12.475 33.441 21.323 2.961 5.592 3.725 11.573 3.024 17.391-.699 5.792-2.854 11.425-5.737 16.35-5.437 9.288-13.517 16.077-19.35 16.702a.742.742 0 01-.203.023h-.375l-.46-1.072.479-.042c.355-.683 1.394-2.577 3.808-5.597-4.257 2.599-4.957.625-4.959.618l-.053-.144.024-.149c.001-.003.127-.942 1.256-2.39-9.91 4.428-8.006 1.238-8.002 1.229l.036-.063 2.115-2.113c-.585-.171-1.321-.528-2.148-1.246l-.631-.547.74-.389c10.342-5.426 11.648-14.336 11.141-20.346-.526 3.183-2.134 6.891-6.306 9.653l-2.098 1.388 1.294-2.157c7.642-12.739-13.784-27.527-19.335-31.359-.821-.565-1.325-.914-1.443-1.09zm1.4-.321l.69.474c5.421 3.742 25.495 17.601 20.735 30.643 5.98-5.562 3.736-13.569 3.729-13.594l-3.097-11.529 4.182 11.183c.019.054 7.017 18.272-9.589 27.642 1.183.789 1.862.583 1.863.582l1.999-.5-4.278 4.275c.096.036 1.039-.142 9.467-4.224l4.474-2.168-3.869 3.126c-2.383 1.925-2.999 3.338-3.152 3.834.296.246 1.654.544 7.405-4.463l8.006-6.973-7.214 7.79c-4.039 4.36-5.956 7.299-6.781 8.724 5.41-1.187 12.553-7.506 17.518-15.986 2.807-4.795 4.905-10.277 5.584-15.908.676-5.604-.056-11.359-2.898-16.726-4.379-8.269-13.776-15.653-30.752-20.238 24.651 25.543 22.967 24.28 16.155 17.664 2.674 3.112.694 1.377-14.767-14.591l-.342-.341-15.068 11.304z"/><path fill="#fff" fill-rule="nonzero" d="M276.32 246.213c4.135 2.918 5.594 3.891 6.081 5.351-3.77-.851-7.176-.609-7.176-.609s-8.147-7.783-9.607-8.39c-1.095 0-7.419-4.014-7.419-4.014-3.161-1.581-6.079-12.526 5.596-9.365 12.038 5.716 13.741 6.202 13.741 6.202 4.784 1.5 9.567 3.001 14.351 4.5l8.269 9.244s-14.714-7.298-16.539-7.419c4.013 3.283 6.324 7.782 6.324 7.782-4.662-1.337-8.715-2.554-13.621-3.283v.001z"/><path fill-rule="nonzero" d="M276.582 247.095l-2.551-1.802 2.372.353c4.464.665 8.212 1.724 12.337 2.91-.949-1.531-2.835-4.234-5.485-6.4l-1.379-1.129 1.777.117c1.434.095 9.788 4.079 14.131 6.191l-6.216-6.948-14.211-4.458c-.005-.002-1.742-.501-13.758-6.205-3.191-.856-5.182-.621-6.325.18-.582.408-.946.976-1.139 1.62-.203.678-.222 1.447-.107 2.215.283 1.904 1.343 3.761 2.426 4.302l.054.029c.017.011 6.169 3.924 7.11 3.924h.112l.106.044c1.419.59 8.392 7.182 9.603 8.334.767-.033 3.117-.08 5.847.389-.728-.861-2.124-1.846-4.704-3.666zm2.116.099c2.71 1.932 3.795 2.842 4.244 4.187l.321.959-.986-.221c-3.684-.829-6.993-.595-7.002-.595l-.257.022-.188-.18c-.022-.022-7.843-7.496-9.371-8.246-1.522-.272-7.29-3.914-7.557-4.083-1.366-.715-2.675-2.917-3.004-5.133-.137-.923-.11-1.859.143-2.705.263-.88.767-1.659 1.58-2.228 1.408-.986 3.731-1.308 7.32-.336l.096.035c11.543 5.479 13.525 6.131 13.668 6.175l14.5 4.545c3.432 3.852 6.879 7.691 10.32 11.536l-2.62-1.283c-.033-.016-9.337-4.628-13.951-6.542 2.873 2.981 4.483 6.116 4.489 6.127l.634 1.189-2.211-.636c-3.474-1-6.654-1.916-10.168-2.587zM219.041 180.906s14.107-3.405 15.81-2.918l-15.81 2.918zm0 0z"/><path fill="#fff" fill-rule="nonzero" d="M218.907 180.353c.041-.01 14.263-3.439 16.101-2.913l-.313 1.098c-1.566-.448-15.48 2.913-15.52 2.923l-.268-1.108z"/></svg>