<?xml version="1.0" encoding="UTF-8"?>
<!-- Generated by Pixelmator Pro 3.1.1 -->
<svg width="1750" height="1750" viewBox="0 0 1750 1750" xmlns="http://www.w3.org/2000/svg" xmlns:xlink="http://www.w3.org/1999/xlink">
    <path id="Path" fill="#aab7b8" stroke="none" d="M 1652.795166 0 L 97.204811 0 C 43.519989 0 -0 35.904053 -0 80.19397 C -0 80.19397 -0 80.19397 -0 80.19397 L -0 437.5 L 901.515137 656.25 L 1750 437.5 L 1750 80.19397 C 1750 35.904053 1706.47998 0 1652.795166 0 L 1652.795166 0 Z"/>
    <path id="path1" fill="#95a5a6" stroke="none" d="M 1750 437.5 L -0 437.5 L -0 875 L 901.515137 1006.25 L 1750 875 L 1750 437.5 Z"/>
    <path id="path2" fill="#839192" stroke="none" d="M -0 875 L -0 1312.5 L 848.484863 1400 L 1750 1312.5 L 1750 875 L -0 875 Z"/>
    <path id="path3" fill="#717d7e" stroke="none" d="M 97.204742 1750 L 1652.795288 1750 C 1706.480103 1750 1750 1714.095947 1750 1669.80603 L 1750 1669.80603 L 1750 1312.5 L -0 1312.5 L -0 1669.80603 C -0 1714.095947 43.519962 1750 97.204742 1750 L 97.204742 1750 Z"/>
    <path id="Path-copy-copy" fill="#000000" stroke="none" opacity="0.2" d="M 1319.30603 371.75 L 874.5 371.75 L 874.5 1378 L 1319.30603 1378 C 1363.536011 1377.855957 1399.355957 1342.036011 1399.5 1297.80603 L 1399.5 451.94397 C 1399.355957 407.713989 1363.536011 371.894043 1319.30603 371.75 Z"/>
    <path id="Path-copy-2-copy" fill="#000000" stroke="none" opacity="0.2" d="M 429.69397 1378 L 874.5 1378 L 874.5 371.75 L 429.69397 371.75 C 385.463989 371.894043 349.643982 407.713989 349.5 451.94397 L 349.5 1297.80603 C 349.643982 1342.036011 385.463989 1377.855957 429.69397 1378 Z"/>
    <linearGradient id="linearGradient1" x1="560.2057" y1="331.0883" x2="1188.2943" y2="1418.9117" gradientUnits="userSpaceOnUse">
        <stop offset="1e-05" stop-color="#4d5656" stop-opacity="1"/>
        <stop offset="0.5" stop-color="#4d5656" stop-opacity="1"/>
        <stop offset="1" stop-color="#4d5656" stop-opacity="1"/>
    </linearGradient>
    <path id="path4-copy" fill="url(#linearGradient1)" stroke="none" d="M 473.194 393.75 L 1275.30603 393.75 C 1319.595947 393.75 1355.5 429.654053 1355.5 473.94397 L 1355.5 1276.057007 C 1355.5 1320.347046 1319.595947 1356.250977 1275.30603 1356.250977 L 473.194 1356.250977 C 428.903992 1356.250977 393 1320.347046 393 1276.057007 L 393 473.94397 C 393 429.654053 428.903992 393.75 473.194 393.75 Z"/>
    <path id="Rounded-Rectangle-copy" fill="#d5d5d5" fill-rule="evenodd" stroke="none" d="M 486 1225.5 C 486 1236.821777 495.178162 1246 506.5 1246 L 1243.5 1246 C 1254.821777 1246 1264 1236.821777 1264 1225.5 L 1264 1225.5 C 1264 1214.178223 1254.821777 1205 1243.5 1205 L 506.5 1205 C 495.178162 1205 486 1214.178223 486 1225.5 Z"/>
    <path id="Rounded-Rectangle-copy-4" fill="#d5d5d5" fill-rule="evenodd" stroke="none" d="M 486 1082.5 C 486 1093.821777 495.178162 1103 506.5 1103 L 1243.5 1103 C 1254.821777 1103 1264 1093.821777 1264 1082.5 L 1264 1082.5 C 1264 1071.178223 1254.821777 1062 1243.5 1062 L 506.5 1062 C 495.178162 1062 486 1071.178223 486 1082.5 Z"/>
    <path id="Rounded-Rectangle-copy-5" fill="#d5d5d5" fill-rule="evenodd" stroke="none" d="M 486 930.5 C 486 941.821838 495.178162 951 506.5 951 L 1243.5 951 C 1254.821777 951 1264 941.821838 1264 930.5 L 1264 930.5 C 1264 919.178162 1254.821777 910 1243.5 910 L 506.5 910 C 495.178162 910 486 919.178162 486 930.5 Z"/>
    <path id="Rounded-Rectangle-copy-3" fill="#d5d5d5" fill-rule="evenodd" stroke="none" d="M 486 770.5 C 486 781.821838 495.178162 791 506.5 791 L 1243.5 791 C 1254.821777 791 1264 781.821838 1264 770.5 L 1264 770.5 C 1264 759.178162 1254.821777 750 1243.5 750 L 506.5 750 C 495.178162 750 486 759.178162 486 770.5 Z"/>
    <path id="Rounded-Rectangle-copy-2" fill="#d5d5d5" fill-rule="evenodd" stroke="none" d="M 926 609.5 C 926 620.821777 935.178162 630 946.5 630 L 1243.5 630 C 1254.821777 630 1264 620.821777 1264 609.5 L 1264 609.5 C 1264 598.178223 1254.821777 589 1243.5 589 L 946.5 589 C 935.178162 589 926 598.178223 926 609.5 Z"/>
    <path id="TEXT" fill="#d5d5d5" fill-rule="evenodd" stroke="none" d="M 794.96698 539.736328 L 794.96698 519.09375 L 887.668152 519.09375 L 887.668152 539.736328 L 854.381042 539.736328 L 854.381042 630 L 827.644714 630 L 827.644714 539.736328 Z M 685.172852 630 L 716.936523 574.089844 L 686.010742 519.09375 L 716.479492 519.09375 L 734.608398 555.960938 L 752.737305 519.09375 L 783.282227 519.09375 L 752.280273 574.089844 L 784.120117 630 L 753.270508 630 L 734.608398 592.447266 L 715.946289 630 Z M 674.706848 519.09375 L 674.706848 539.736328 L 624.890442 539.736328 L 624.890442 563.121094 L 666.937317 563.121094 L 666.937317 583.001953 L 624.890442 583.001953 L 624.890442 609.433594 L 674.554504 609.433594 L 674.554504 630 L 598.154114 630 L 598.154114 519.09375 Z M 486.379486 539.736328 L 486.379486 519.09375 L 579.080688 519.09375 L 579.080688 539.736328 L 545.793579 539.736328 L 545.793579 630 L 519.057251 630 L 519.057251 539.736328 Z"/>
</svg>
