<svg xmlns="http://www.w3.org/2000/svg" shape-rendering="geometricPrecision" text-rendering="geometricPrecision" image-rendering="optimizeQuality" fill-rule="evenodd" clip-rule="evenodd" viewBox="0 0 512 512"><g fill-rule="nonzero"><path fill="#4D4D4D" d="M256 0c70.684 0 134.689 28.664 181.012 74.987C483.336 121.311 512 185.316 512 256c0 70.684-28.664 134.689-74.988 181.013C390.689 483.336 326.684 512 256 512c-70.677 0-134.689-28.664-181.013-74.987C28.664 390.689 0 326.676 0 256c0-70.684 28.664-134.689 74.987-181.013C121.311 28.664 185.316 0 256 0z"/><path fill="#fff" d="M256.001 19.597c65.278 0 124.382 26.466 167.162 69.242 42.776 42.78 69.242 101.884 69.242 167.162S465.939 380.384 423.16 423.16c-42.777 42.78-101.881 69.246-167.159 69.246-65.278 0-124.382-26.466-167.162-69.243-42.777-42.779-69.243-101.884-69.243-167.162S46.062 131.619 88.839 88.839c42.78-42.776 101.884-69.242 167.162-69.242z"/><path fill="#E70013" d="M256.001 39.594c119.517 0 216.407 96.887 216.407 216.407 0 119.518-96.89 216.407-216.407 216.407-119.521 0-216.407-96.889-216.407-216.407 0-119.52 96.886-216.407 216.407-216.407z"/><path fill="#fff" d="M366.698 255.591c0-61.131-49.555-110.687-110.686-110.687-61.13 0-110.685 49.556-110.685 110.687 0 61.13 49.555 110.687 110.685 110.687 61.131 0 110.686-49.557 110.686-110.687z"/><path fill="#E70013" d="M323.128 206.735c-15.096-20.703-39.533-34.16-67.116-34.16-45.846 0-83.016 37.168-83.016 83.016 0 45.846 37.17 83.016 83.016 83.016 27.583 0 52.02-13.456 67.116-34.16-11.83 10.898-27.626 17.555-44.979 17.555-36.677 0-66.413-29.733-66.413-66.411s29.736-66.411 66.413-66.411c17.353 0 33.149 6.658 44.979 17.555z"/><path fill="#E70013" d="M228.341 255.591l90.104-29.277-55.681 76.651v-94.748l55.675 76.651z"/></g></svg>