<svg viewBox="0 0 512 512" xmlns="http://www.w3.org/2000/svg" fill-rule="evenodd" clip-rule="evenodd" stroke-linejoin="round" stroke-miterlimit="2"><g fill-rule="nonzero"><path d="M256 0c70.68 0 134.69 28.66 181.01 74.99C483.34 121.31 512 185.32 512 256c0 70.68-28.66 134.69-74.99 181.01C390.69 483.34 326.68 512 256 512c-70.68 0-134.69-28.66-181.01-74.99C28.66 390.69 0 326.68 0 256c0-70.68 28.66-134.69 74.99-181.01C121.31 28.66 185.32 0 256 0z" fill="#999"/><path d="M256 19.48c65.31 0 124.44 26.47 167.24 69.28 42.81 42.8 69.28 101.93 69.28 167.24s-26.47 124.44-69.28 167.24c-42.8 42.81-101.93 69.28-167.24 69.28s-124.44-26.47-167.24-69.28C45.95 380.44 19.48 321.31 19.48 256S45.95 131.56 88.76 88.76C131.56 45.95 190.69 19.48 256 19.48z" fill="#fff"/><path d="M256 39.59c119.52 0 216.41 96.89 216.41 216.41S375.52 472.41 256 472.41 39.59 375.52 39.59 256 136.48 39.59 256 39.59z" fill="#fff"/><path d="M256 39.59c119.52 0 216.41 96.89 216.41 216.41 0 24.41-4.05 47.88-11.5 69.77L157.32 63.36l-.12.06c29.62-15.23 63.21-23.83 98.8-23.83zm98.68 409.06c-29.59 15.19-63.13 23.76-98.68 23.76-119.52 0-216.41-96.89-216.41-216.41 0-24.43 4.05-47.92 11.52-69.83l-.02.06 303.59 262.42z" fill="#da1a35"/><path d="M62.05 159.93l317.06 274.05c30-20.79 54.49-48.97 70.84-81.9L132.89 78.02c-30 20.79-54.49 48.97-70.84 81.91z"/></g></svg>