<svg xmlns="http://www.w3.org/2000/svg" shape-rendering="geometricPrecision" text-rendering="geometricPrecision" image-rendering="optimizeQuality" fill-rule="evenodd" clip-rule="evenodd" viewBox="0 0 512 512"><path fill="#4D4D4D" fill-rule="nonzero" d="M256 0c70.683 0 134.689 28.663 181.012 74.987C483.336 121.311 512 185.316 512 256c0 70.683-28.664 134.689-74.988 181.012C390.689 483.336 326.683 512 256 512c-70.677 0-134.689-28.664-181.013-74.988C28.663 390.689 0 326.676 0 256c0-70.684 28.663-134.689 74.987-181.013C121.311 28.663 185.316 0 256 0z"/><path fill="#fff" fill-rule="nonzero" d="M256.001 19.596c65.278 0 124.383 26.467 167.162 69.243 42.777 42.78 69.243 101.884 69.243 167.162S465.94 380.384 423.16 423.16c-42.776 42.78-101.881 69.246-167.159 69.246-65.278 0-124.382-26.466-167.162-69.243-42.776-42.779-69.243-101.884-69.243-167.162S46.063 131.619 88.839 88.839c42.78-42.776 101.884-69.243 167.162-69.243z"/><path fill="#fff" fill-rule="nonzero" d="M256.001 39.594c119.518 0 216.407 96.887 216.407 216.407 0 119.518-96.889 216.407-216.407 216.407-119.52 0-216.407-96.889-216.407-216.407 0-119.52 96.887-216.407 216.407-216.407zM133.319 77.721h245.362-245.362zm339.057 175.83H39.627h432.749zM126.473 429.38h259.053-259.053zM63.82 355.565L256.001 39.594 63.82 355.565z"/><path fill="#E00" fill-rule="nonzero" d="M82.545 385.423h346.912c-39.461 52.802-102.469 86.985-173.456 86.985-70.99 0-133.995-34.183-173.456-86.985zM468.414 297.508H43.588a217.536 217.536 0 01-3.994-41.507c0-15.932 1.736-31.455 5.004-46.407h422.806a217.115 217.115 0 015.004 46.407c0 14.2-1.385 28.072-3.994 41.507zM425.675 121.679H86.327c39.641-50.004 100.907-82.085 169.674-82.085 68.767 0 130.036 32.081 169.674 82.085z"/><path fill="#0050F0" fill-rule="nonzero" d="M399.886 253.551L116.858 90.268c-47.234 39.697-77.264 99.204-77.264 165.733 0 64.912 28.586 123.14 73.848 162.805l286.444-165.255z"/><path fill="#fff" fill-rule="nonzero" d="M215.997 230.84L102.44 313.627l43.225-134.072 43.225 134.072L75.333 230.84z"/></svg>