<svg xmlns="http://www.w3.org/2000/svg" shape-rendering="geometricPrecision" text-rendering="geometricPrecision" image-rendering="optimizeQuality" fill-rule="evenodd" clip-rule="evenodd" viewBox="0 0 512 512"><path fill="#4D4D4D" fill-rule="nonzero" d="M256 0c70.684 0 134.689 28.664 181.013 74.987C483.336 121.311 512 185.316 512 256c0 70.684-28.664 134.689-74.987 181.013C390.689 483.337 326.684 512 256 512c-70.676 0-134.689-28.663-181.013-74.987C28.664 390.689 0 326.676 0 256c0-70.684 28.664-134.689 74.987-181.013C121.311 28.664 185.316 0 256 0z"/><path fill="#fff" fill-rule="nonzero" d="M256.001 19.596c65.278 0 124.383 26.467 167.162 69.243 42.777 42.78 69.243 101.884 69.243 167.162s-26.466 124.383-69.246 167.16c-42.776 42.779-101.881 69.245-167.159 69.245-65.278 0-124.383-26.466-167.162-69.242-42.777-42.78-69.243-101.885-69.243-167.163S46.062 131.619 88.839 88.839c42.779-42.776 101.884-69.243 167.162-69.243z"/><path fill="red" fill-rule="nonzero" d="M52.486 329.728h407.03c-30.156 83.218-109.888 142.68-203.515 142.68-93.63 0-173.362-59.462-203.515-142.68z"/><path fill="#005CE5" fill-rule="nonzero" d="M459.537 329.675H52.466c-8.325-22.997-12.872-47.804-12.872-73.674 0-26.398 4.735-51.692 13.388-75.082H459.02c8.656 23.39 13.388 48.684 13.388 75.082 0 25.87-4.546 50.677-12.871 73.674z"/><path fill="#005CE5" d="M177.625 110.437h-2.973a131.023 131.023 0 00-50.393 11.691l-4.098 1.738 4.408 69.508c1.948 30.974 23.254 57.364 53.112 65.816 29.819-8.485 51.095-34.865 53.053-65.818l4.407-69.305a46.398 46.398 0 00-4.106-1.996h.003a130.457 130.457 0 00-53.357-11.587l-.006.003-.05-.05z"/><path fill="#fff" d="M177.675 158.518l-13.019 25.374-8.251-10.92-22.044 29.014c.36 1.795.821 3.536 1.334 5.125a16.506 16.506 0 0013.223 8.871c4.768 0 9.589-3.844 14.354-3.844 4.764 0 9.585 3.844 14.403 3.844s9.586-3.844 14.353-3.844c4.765 0 9.586 3.844 14.404 3.844a16.455 16.455 0 0013.125-8.768c.511-1.742.971-3.451 1.381-5.125l-21.887-28.963-8.407 10.92-12.969-25.528zm-14.403 57.565c-4.768 0-9.586 3.843-14.354 3.843a15.882 15.882 0 01-9.583-3.277 62.839 62.839 0 002.87 5.485 12.675 12.675 0 006.713 2.046c4.768 0 9.589-3.844 14.354-3.844 4.764 0 9.585 3.844 14.403 3.844s9.586-3.844 14.353-3.844c4.765 0 9.586 3.844 14.404 3.844a12.684 12.684 0 006.616-1.998c1.027-1.742 1.948-3.587 2.872-5.432a15.981 15.981 0 01-9.486 3.179c-4.817 0-9.585-3.843-14.403-3.843-4.821 0-9.589 3.843-14.353 3.843-4.765 0-9.586-3.843-14.404-3.843l-.002-.003zm0 8.1c-4.768 0-9.586 3.844-14.354 3.844a14.576 14.576 0 01-2.766-.31 66.932 66.932 0 0031.523 22.557 66.616 66.616 0 0031.682-22.761c-.939.204-1.898.307-2.857.307h-.066c-4.817 0-9.585-3.844-14.403-3.844-4.821 0-9.589 3.844-14.353 3.844-4.765 0-9.586-3.844-14.404-3.844l-.002.207z"/><path fill="#FFE500" d="M156.042 125.968l1.795-3.126-1.795-3.127h3.642l1.793-3.126 1.795 3.126h3.639l-1.795 3.127 1.795 3.126h-3.639l-1.795 3.177-1.793-3.177h-3.642zm16.148 21.784l1.848-3.176-1.848-3.127h3.64l1.795-3.129 1.845 3.129h3.587l-1.792 3.127 1.792 3.176h-3.587l-1.845 3.126-1.795-3.126h-3.64zm16.198-21.734l1.848-3.126-1.848-3.126h3.897l1.845-3.127 1.795 3.127h3.64l-1.848 3.126 1.848 3.126h-3.64l-1.795 3.177-1.845-3.227-3.897.05z"/><path fill="red" d="M124.262 122.122l-4.101 1.744 4.408 69.508c1.948 30.974 23.254 57.364 53.112 65.816 29.819-8.485 51.095-34.865 53.053-65.818l4.407-69.305a46.398 46.398 0 00-4.106-1.996l-4.101 68.998c-1.366 29.536-21.054 55.111-49.259 63.973-28.226-8.854-47.94-34.416-49.307-63.976l-4.106-68.944zM177.625 110.437zm-53.363 11.685l53.363-11.685z"/></svg>