<svg xmlns="http://www.w3.org/2000/svg" shape-rendering="geometricPrecision" text-rendering="geometricPrecision" image-rendering="optimizeQuality" fill-rule="evenodd" clip-rule="evenodd" viewBox="0 0 512 512"><g fill-rule="nonzero"><path fill="#4D4D4D" d="M256 0c70.684 0 134.689 28.664 181.013 74.987C483.336 121.311 512 185.316 512 256c0 70.684-28.664 134.69-74.987 181.013C390.689 483.337 326.684 512 256 512c-70.677 0-134.69-28.663-181.013-74.987C28.663 390.69 0 326.676 0 256c0-70.684 28.663-134.689 74.987-181.013C121.31 28.664 185.316 0 256 0z"/><path fill="#fff" d="M256.001 19.596c65.278 0 124.383 26.466 167.162 69.243 42.777 42.779 69.243 101.884 69.243 167.162s-26.466 124.383-69.246 167.16c-42.776 42.779-101.881 69.245-167.159 69.245-65.278 0-124.383-26.466-167.162-69.242-42.777-42.78-69.243-101.885-69.243-167.163S46.062 131.618 88.839 88.839c42.779-42.777 101.884-69.243 167.162-69.243z"/><path fill="#D52B1E" d="M471.67 273.841c-9.072 111.172-102.159 198.567-215.669 198.567-113.513 0-206.597-87.395-215.669-198.567H471.67z"/><path fill="#0039A6" d="M252.771 273.841H40.332a218.86 218.86 0 01-.738-17.84c0-118.44 95.147-214.636 213.177-216.365v234.205z"/><path fill="#fff" d="M147.719 109.295l-13.353 41.109H91.137l34.972 25.406-13.361 41.127 34.976-25.408 34.975 25.408-13.361-41.124 34.972-25.409h-43.238z"/></g></svg>