<svg xmlns="http://www.w3.org/2000/svg" shape-rendering="geometricPrecision" text-rendering="geometricPrecision" image-rendering="optimizeQuality" fill-rule="evenodd" clip-rule="evenodd" viewBox="0 0 512 420.166"><path d="M74.316 0h363.368C478.549 0 512 33.458 512 74.316V345.85c0 40.814-33.501 74.316-74.316 74.316H74.316C33.439 420.166 0 386.689 0 345.85V74.316C0 33.408 33.408 0 74.316 0zm125.608 281.956v-50.89h-34.542v50.89h-46.059V138.03h46.059v50.89h34.542v-50.89h46.053v143.926h-46.053zM315.067 138.03v108.003h16.348c5.834 0 9.828-.731 11.976-2.186 2.149-1.461 3.227-4.799 3.227-10.019V138.03h46.053v80.83c0 13.048-.842 23.563-2.532 31.545-1.691 7.989-4.837 14.738-9.444 20.268-4.601 5.524-10.899 9.363-18.881 11.512-7.982 2.149-18.348 3.226-31.086 3.226-12.744 0-23.067-1.077-30.975-3.226-7.908-2.149-14.162-5.988-18.77-11.512-4.6-5.53-7.753-12.279-9.437-20.268-1.69-7.982-2.532-18.497-2.532-31.545v-80.83h46.053z"/></svg>