<svg xmlns="http://www.w3.org/2000/svg" shape-rendering="geometricPrecision" text-rendering="geometricPrecision" image-rendering="optimizeQuality" fill-rule="evenodd" clip-rule="evenodd" viewBox="0 0 512 420.166"><path d="M74.316 0h363.368C478.549 0 512 33.458 512 74.316V345.85c0 40.814-33.501 74.316-74.316 74.316H74.316C33.439 420.166 0 386.689 0 345.85V74.316C0 33.408 33.408 0 74.316 0zm140.916 250.517h-35.173v37.891h-47.633v-156.83h79.041c35.966 0 53.949 19.32 53.949 57.967 0 21.247-4.682 36.969-14.051 47.175-3.511 3.845-8.366 7.115-14.552 9.784-6.186 2.675-13.388 4.013-21.581 4.013zm-35.173-78.787v38.641h14.094c6.025 0 10.422-.626 13.177-1.883 2.756-1.251 4.137-4.142 4.137-8.657v-17.562c0-4.52-1.387-7.406-4.137-8.657-2.761-1.251-7.158-1.882-13.177-1.882h-14.094zm206.426 116.678H286.117v-156.83h50.184v116.685h50.184v40.145z"/></svg>