<svg xmlns="http://www.w3.org/2000/svg" shape-rendering="geometricPrecision" text-rendering="geometricPrecision" image-rendering="optimizeQuality" fill-rule="evenodd" clip-rule="evenodd" viewBox="0 0 512 512"><path fill="#4D4D4D" fill-rule="nonzero" d="M256 0c70.684 0 134.689 28.664 181.012 74.987C483.336 121.311 512 185.316 512 256c0 70.684-28.664 134.689-74.988 181.013C390.689 483.336 326.684 512 256 512c-70.677 0-134.689-28.664-181.013-74.987C28.664 390.689 0 326.676 0 256c0-70.684 28.664-134.689 74.987-181.013C121.311 28.664 185.316 0 256 0z"/><path fill="#fff" fill-rule="nonzero" d="M256.001 19.597c65.278 0 124.382 26.466 167.162 69.242 42.776 42.78 69.242 101.884 69.242 167.162S465.939 380.384 423.16 423.16c-42.777 42.78-101.881 69.246-167.159 69.246-65.278 0-124.382-26.466-167.162-69.243-42.777-42.779-69.243-101.884-69.243-167.162S46.062 131.619 88.839 88.839c42.78-42.776 101.884-69.242 167.162-69.242z"/><path fill="red" fill-rule="nonzero" d="M256.001 39.594c119.517 0 216.407 96.887 216.407 216.407 0 119.518-96.89 216.407-216.407 216.407-119.521 0-216.407-96.889-216.407-216.407 0-119.52 96.886-216.407 216.407-216.407z"/><path d="M272.457 371.231c-3.817-3.309-8.445-10.012-8.38-16.472.342-4.818 3.646-7.617 5.781-1.736 3.018 6.491 9.49 17.224 18.41 10.928 3.897-2.861 3.836-7.071-1.507-6.589-6.598-.451-10.652-4.082-13.605-13.429-.537-5.141 1.602-5.013 4.586-1.706 3.836 4.401 11.47 11.053 19.891 7.488 4.681-1.961 6.002-6.009-1.069-7.004-6.694.097-12.158-4.243-17.597-10.862-2.983-3.662 1.416-7.359 4.057-4.242 2.356 2.023 5.655 5.752 8.482 6.266 3.27.641 7.322.322 11.813-2.055 4.84-4.052 3.268-6.975-2.608-7.648-4.554.226-7.036 1.958-12.91-1.961-10.562-7.138-18.957-16.676-20.269-28.148-.861-7.546 3.196-9.831 6.569-8.962 9.174 2.359 15.176 19.504 21.523 28.922 2.078 2.715 3.988 2.759 5.338 1.922 2.547-2.183 4.58-3.978 7.126-6.418 0 0 18.675 3.355 28.844 6.67l-11.323 4.024c-4.287-2.367-9.462.185-9.462 4.293-4.057 2.805-3.73 6.094-1.98 9.269.534-2.211.99-5.081 4.194-5.463 4.575 1.892 9.904-.808 9.904-4.381l13.357-5.25 13.495 7.64c0 5.164 4.893 6.801 9.984 5.407 2.399 1.49 3.942 4.074 4.754 6.838 1.502-3.986 1.189-6.8-1.164-8.756 1.35-5.154-5.872-10.11-11.463-6.81l-9.708-5.574 16.617-.466c1.929 3.414 8.899 3.603 10.933 0 1.738-.475 3.206-.779 6.595 1.74-1.068-4.075-3.146-5.818-6.263-5.818-2.369-4.196-10.941-4.177-12.178.548l-17.307.481 10.269-7.311c3.833 2.263 9.211-.253 10.288-4.364 1.528-1.816 3.413-2.67 7.122-1.437-1.911-3.386-4.605-4.397-9.471-2.098-4.438-3.363-10.287.716-9.4 4.102l-13.662 9.295c-9.917-2.959-27.877-7.567-27.877-7.567 2.139-2.25 4.308-4.339 6.443-6.62.771-1.336-.407-2.891-2.044-3.215-16.025-3.308-25.2-9.767-30.759-26.186-2.325-6.877 2.702-8.931 4.429-4.725 2.39 5.85 5.027 12.243 12.223 17.194 2.481 1.736 9.868.319 5.499-3.826-4.525-3.728-6.473-5.331-8.703-14.394 0-4.593 4.681-6.652 7.292-2.25 2.793 9.028 3.078 12.916 8.135 18.733 3.832 4.402 8.829 7.36 11.31 7.294 4.464-.062 8.958-4.885 2.987-8.387-8.767-3.502-11.971-8.288-13.262-12.854-1.412-7.966.13-11.822 4.936-7.903 6.815 7.744 19.826 22.17 26.641 28.887 7.638 5.85 16.402 6.04 23.377.097 3.992-4.595 2.576-9.542-3.675-8.483-14.107 1.19-24.789-5.815-36.51-24.743-2.294-4.274-2.923-10.411 2.139-5.845 5.841 7.903 14.357 14.62 22.278 17.512 7.949 2.856 14.512 1.278 17.058-1.222 3.068-3.068 2.261-10.795-3.048-8.932-4.369 1.542-10.525 1.927-16.933-.548-6.413-2.507-13.073-7.904-20.143-17.061-2.421-5.172-1.633-9.542 3.268-6.878 11.595 9.836 26.552 17.801 34.185 13.015 5.625-3.503 5.72-12.5-1.412-11.92-14.362 1.957-19.795-1.222-33.59-13.399-3.14-2.347-2.923-8.293 2.073-4.499 11.595 7.488 27.429 10.41 33.652 6.492 5.595-3.503 4.776-14.206-4.65-10.415-7.543 4.596-15.869 4.467-32.552-7.452-4.209-3.503-1.07-8.068 2.386-6.106 13.418 7.647 32.963 10.923 38.051-4.627 1.979-5.943-1.602-9.414-6.85-5.301-11.531 10.667-24.603 5.428-31.92.062-2.095-1.235-5.94-7.487.813-6.327 17.472 3.985 34.752.514 37.895-11.857 1.824-4.017-1.762-11.119-8.139-5.172-8.387 8.288-17.281 8.576-28.465 8.514-5.689-1.19-5.749-7.456-.974-8.386 8.829.19 17.532-3.666 24.507-7.585 6.82-3.919 12.475-9.414 14.267-17.03 1.099-6.81-5.468-14.04-9.426-6.81-5.846 10.569-18.791 20.532-33.184 22.33-.75-1.254-2.637-4.468-4.962-3.564-4.226 1.638-9.262 3.831-14.446 6.293-11.175 5.307-15.832 7.864-14.491 17.033 1.401 9.567-5.975 15.613-12.067 13.943-5.313-1.43-8.244-6.23-7.292-14.554.763-6.633 7.422-14.657 14.926-18.864 4.858-2.719 12.192-4.206 21.021-6.167 5.373-1.059 8.11-3.149 8.422-5.336 0 0-3.673 2.687-9.551 2.284-2.78-.198-4.642-1.422-5.344-2.669 2.044-.416 5.751.066 9.08.066 4.429-.035 14.713-1.027 17.441-7.262.848-4.113-1.854-4.852-4.369-2.218-2.702 2.847-3.815 5.406-9.236 6.363-3.299.58-6.598 1.253-10.842.226 2.39-2.838 6.188-5.743 9.427-5.208 1.065.178 2.481 1.161 3.615 2.927.692-4.499-.537-9.577-12.57-7.456.191-3.405-6.976-4.884-11.279-4.818-2.45.063-7.447 1.511-11.058 3.242-5.72 1.771-11.375 3.055-18.039 3.538 3.868 3.307 4.591 3.502 8.452 6.296-5.841 2.183-10.366 6.682-12.409 9.64 0 0 6.82-.19 8.548.58-7.136 2.085-10.341 3.339-14.111 7.195 1.32.226 3.298.611 4.147.935.883.319.654.898-.06 1.443-1.538 1.174-7.889 8.55-9.742 10.317-1.854-1.767-8.205-9.143-9.742-10.317-.714-.545-.944-1.124-.061-1.443.849-.323 2.828-.709 4.148-.935-3.771-3.856-6.975-5.11-14.111-7.195 1.728-.77 8.547-.58 8.547-.58-2.044-2.958-6.568-7.456-12.41-9.64 3.863-2.794 4.586-2.989 8.453-6.297-6.664-.482-12.319-1.766-18.039-3.538-3.611-1.73-8.607-3.178-11.058-3.24-4.304-.067-11.47 1.413-11.279 4.816-12.032-2.12-13.262 2.959-12.569 7.458 1.134-1.767 2.55-2.75 3.615-2.927 3.239-.535 7.036 2.369 9.426 5.207-4.243 1.028-7.543.354-10.842-.225-5.421-.956-6.534-3.516-9.237-6.363-2.514-2.635-5.216-1.896-4.368 2.218 2.728 6.235 13.011 7.227 17.441 7.262 3.329 0 7.036-.483 9.08-.066-.702 1.248-2.564 2.47-5.344 2.669-5.879.403-9.551-2.285-9.551-2.285.312 2.188 3.048 4.277 8.422 5.336 8.829 1.962 16.163 3.45 21.021 6.168 7.504 4.207 14.163 12.231 14.925 18.864.953 8.324-1.979 13.124-7.292 14.554-6.091 1.67-13.468-4.376-12.067-13.944 1.342-9.168-3.315-11.726-14.49-17.032-5.185-2.463-10.22-4.656-14.446-6.294-2.325-.903-4.213 2.312-4.962 3.565-14.393-1.798-27.338-11.761-33.184-22.33-3.958-7.231-10.525 0-9.426 6.81 1.792 7.616 7.447 13.111 14.266 17.029 6.976 3.919 15.679 7.776 24.508 7.586 4.775.93 4.715 7.195-.974 8.386-11.185.062-20.078-.225-28.465-8.515-6.377-5.946-9.963 1.156-8.14 5.172 3.144 12.371 20.424 15.843 37.895 11.858 6.753-1.161 2.909 5.092.813 6.327-7.317 5.367-20.388 10.605-31.919-.062-5.247-4.113-8.829-.642-6.85 5.301 5.088 15.55 24.633 12.274 38.051 4.627 3.455-1.962 6.594 2.603 2.386 6.106-16.683 11.919-25.009 12.048-32.552 7.452-9.426-3.791-10.245 6.912-4.65 10.415 6.221 3.918 22.056.996 33.651-6.492 4.997-3.794 5.213 2.152 2.074 4.499-13.795 12.177-19.229 15.356-33.59 13.398-7.132-.579-7.037 8.418-1.412 11.921 7.633 4.786 22.588-3.179 34.183-13.014 4.902-2.666 5.69 1.705 3.27 6.877-7.07 9.156-13.73 14.554-20.143 17.06-6.407 2.475-12.564 2.09-16.933.549-5.309-1.864-6.116 5.864-3.048 8.932 2.547 2.5 9.109 4.078 17.059 1.221 7.919-2.891 16.436-9.609 22.277-17.511 5.061-4.566 4.433 1.571 2.139 5.844-11.721 18.929-22.402 25.934-36.51 24.743-6.252-1.058-7.667 3.888-3.676 8.484 6.976 5.942 15.739 5.752 23.377-.097 6.815-6.717 19.826-21.143 26.641-28.888 4.806-3.918 6.348-.062 4.937 7.904-1.291 4.565-4.494 9.352-13.263 12.854-5.971 3.502-1.477 8.324 2.988 8.386 2.481.067 7.478-2.891 11.309-7.292 5.057-5.818 5.343-9.706 8.136-18.735 2.611-4.401 7.291-2.342 7.291 2.25-2.229 9.064-4.178 10.667-8.703 14.394-4.369 4.145 3.018 5.562 5.499 3.827 7.196-4.951 9.833-11.345 12.222-17.194 1.728-4.206 6.756-2.151 4.43 4.725-5.559 16.418-14.734 22.878-30.758 26.186-1.637.323-2.815 1.879-2.045 3.215 2.135 2.281 4.305 4.37 6.443 6.62 0 0-17.96 4.608-27.877 7.567l-13.662-9.296c.887-3.386-4.962-7.464-9.4-4.102-4.867-2.298-7.56-1.287-9.472 2.099 3.71-1.233 5.594-.38 7.123 1.437 1.077 4.112 6.455 6.627 10.288 4.363l10.269 7.313-17.306-.482c-1.238-4.724-9.81-4.744-12.18-.548-3.116 0-5.196 1.743-6.263 5.818 3.389-2.518 4.858-2.216 6.596-1.74 2.034 3.603 9.004 3.415 10.932 0l16.617.466-9.708 5.574c-5.591-3.3-12.813 1.656-11.463 6.809-2.352 1.956-2.666 4.771-1.164 8.757.812-2.764 2.355-5.349 4.755-6.839 5.09 1.395 9.984-.241 9.984-5.407l13.494-7.639 13.358 5.25c0 3.572 5.329 6.273 9.904 4.381 3.204.382 3.66 3.252 4.194 5.462 1.75-3.174 2.076-6.463-1.98-9.269 0-4.107-5.175-6.66-9.462-4.292l-11.323-4.024c10.169-3.315 28.844-6.67 28.844-6.67 2.546 2.44 4.579 4.235 7.126 6.419 1.351.836 3.26.792 5.338-1.923 6.348-9.418 12.349-26.562 21.524-28.923 3.373-.869 7.43 1.417 6.568 8.963-1.312 11.472-9.708 21.01-20.268 28.148-5.875 3.918-8.356 2.187-12.911 1.961-5.876.673-7.448 3.596-2.608 7.648 4.491 2.377 8.544 2.696 11.813 2.054 2.827-.514 6.126-4.242 8.482-6.265 2.641-3.117 7.04.579 4.057 4.242-5.439 6.619-10.903 10.959-17.598 10.861-7.07.997-5.749 5.044-1.068 7.005 8.422 3.565 16.055-3.086 19.891-7.488 2.983-3.307 5.123-3.436 4.585 1.705-2.953 9.348-7.006 12.978-13.604 13.43-5.343-.483-5.404 3.729-1.507 6.589 8.92 6.296 15.393-4.437 18.411-10.928 2.134-5.88 5.437-3.082 5.78 1.735.065 6.461-4.563 13.164-8.38 16.473-3.813 3.31 16.457 24.354 16.457 24.354s20.271-21.045 16.454-24.355h.001zm27.165-238.321c-3.155 0-5.104 1.105-5.104 2.446 0 1.362 1.949 2.472 5.104 2.472 3.136 0 5.129-1.21 5.129-2.574 0-1.341-1.993-2.344-5.129-2.344zm-87.239 0c3.155 0 5.104 1.105 5.104 2.446 0 1.362-1.949 2.472-5.104 2.472-3.136 0-5.129-1.21-5.129-2.574 0-1.341 1.993-2.344 5.129-2.344z"/></svg>