<svg xmlns="http://www.w3.org/2000/svg" shape-rendering="geometricPrecision" text-rendering="geometricPrecision" image-rendering="optimizeQuality" fill-rule="evenodd" clip-rule="evenodd" viewBox="0 0 512 512"><g fill-rule="nonzero"><path fill="#4D4D4D" d="M256 0c70.684 0 134.689 28.664 181.013 74.987C483.336 121.311 512 185.316 512 256c0 70.684-28.664 134.689-74.987 181.013C390.689 483.336 326.684 512 256 512c-70.676 0-134.689-28.664-181.013-74.987C28.664 390.689 0 326.676 0 256c0-70.684 28.664-134.689 74.987-181.013C121.311 28.664 185.316 0 256 0z"/><path fill="#fff" d="M256.001 19.597c65.277 0 124.381 26.46 167.161 69.242 42.782 42.78 69.242 101.884 69.242 167.161s-26.462 124.382-69.242 167.161c-42.78 42.78-101.884 69.243-167.161 69.243s-124.382-26.46-167.161-69.243C46.057 380.382 19.597 321.277 19.597 256s26.46-124.381 69.24-167.163c42.782-42.78 101.887-69.24 167.164-69.24z"/><path fill="#CE1126" d="M442.987 364.987c-37.529 64.25-107.213 107.42-186.986 107.42-79.777 0-149.457-43.17-186.986-107.42h373.972z"/><path fill="#003893" d="M442.987 364.987H69.015C50.319 332.981 39.594 295.745 39.594 256l432.813-.005c0 38.397-10.052 75.832-29.42 108.992z"/><path fill="#FCD116" d="M472.407 255.995H39.594c.003-119.518 96.889-216.401 216.407-216.401 119.515 0 216.404 96.883 216.406 216.401z"/></g></svg>