<?xml version="1.0" encoding="UTF-8"?>
<!-- Generated by Pixelmator Pro 3.1.1 -->
<svg width="512" height="420" viewBox="0 0 512 420" xmlns="http://www.w3.org/2000/svg" xmlns:xlink="http://www.w3.org/1999/xlink">
    <path id="Path" fill="#000000" fill-rule="evenodd" stroke="none" d="M 74.320313 420 C 33.440353 420 0 386.519684 0 345.679688 L 0 74.150391 C 0 33.240417 33.410355 -0.169922 74.320313 -0.169922 L 437.679688 -0.169922 C 478.549652 -0.169922 512 33.290436 512 74.150391 L 512 345.679688 C 512 386.499664 478.499664 420 437.679688 420 L 74.320313 420 Z M 182.949219 275.435547 C 191.193237 275.435547 197.796112 275.244934 202.757813 274.863281 C 207.719498 274.481628 213.482178 273.374969 220.046875 271.542969 C 226.611572 269.710938 231.687714 267.075653 235.275391 263.640625 C 238.863083 260.205627 241.955429 255.168381 244.550781 248.527344 C 247.146118 241.886307 248.443359 233.756699 248.443359 224.138672 C 248.443359 210.703949 244.625549 200.209381 236.992188 192.652344 C 229.358841 185.095306 215.544327 180.324509 195.544922 178.339844 L 179.056641 176.736328 L 179.056641 165.515625 C 185.010666 164.752289 192.261185 164.369141 200.810547 164.369141 C 209.359909 164.369141 220.733582 165.514679 234.931641 167.804688 L 240.65625 131.164063 C 224.320847 127.347382 206.002014 125.439453 185.697266 125.439453 C 165.392502 125.439453 151.004272 129.103607 142.53125 136.431641 C 134.058228 143.759674 129.820313 157.194946 129.820313 176.736328 C 129.820313 190.934387 133.293869 201.658447 140.240234 208.910156 C 147.186615 216.16185 159.972244 220.627289 178.597656 222.306641 L 199.207031 224.138672 L 199.207031 235.589844 C 192.337006 236.505844 183.293304 236.962891 172.072266 236.962891 C 160.851227 236.962891 148.21727 235.206665 134.171875 231.695313 L 127.759766 269.480469 C 144.705826 273.449829 163.102463 275.435547 182.949219 275.435547 Z M 265.617188 272 L 311.417969 272 L 311.417969 209.712891 L 312.333984 209.712891 C 312.639313 214.292908 313.401703 217.955124 314.623047 220.703125 L 338.210938 272 L 387.675781 272 L 352.179688 199.177734 L 386.529297 128.875 L 337.066406 128.875 L 314.623047 176.277344 C 313.401703 179.02536 312.639313 182.689499 312.333984 187.269531 L 311.417969 187.269531 L 311.417969 128.875 L 265.617188 128.875 L 265.617188 272 Z"/>
</svg>
