<?xml version="1.0" encoding="UTF-8"?>
<!-- Generated by Pixelmator Pro 3.1.1 -->
<svg width="1944" height="1944" viewBox="0 0 1944 1944" xmlns="http://www.w3.org/2000/svg" xmlns:xlink="http://www.w3.org/1999/xlink">
    <g id="Group">
        <g id="g1">
            <path id="Path" fill="#c0392b" stroke="none" d="M 405 122.001953 C 315.527405 122.001953 243 194.903931 243 284.001953 L 243 932.002014 L 243 1256.001953 L 243 1742.001953 C 243 1831.099976 315.527405 1904.001953 405 1904.001953 L 1539 1904.001953 C 1628.505005 1904.001953 1701 1831.099976 1701 1742.001953 L 1701 1256.001953 L 1701 932.002014 L 1701 608.001953 L 1215 122.001953 L 405 122.001953 Z"/>
            <path id="path1" fill="#e74c3c" stroke="none" d="M 405 41.001953 C 315.527405 41.001953 243 113.903931 243 203.001953 L 243 851.001953 L 243 1175.001953 L 243 1661.001953 C 243 1750.099976 315.527405 1823.001953 405 1823.001953 L 1539 1823.001953 C 1628.505005 1823.001953 1701 1750.099976 1701 1661.001953 L 1701 1175.001953 L 1701 851.001953 L 1701 527.001953 L 1215 41.001953 L 405 41.001953 Z"/>
            <path id="path2" fill="#c0392b" stroke="none" d="M 1701 527.001953 L 1215 41.001953 L 1215 365.001953 C 1215 454.099976 1287.494995 527.001953 1377 527.001953 L 1701 527.001953 Z"/>
        </g>
        <path id="path3" fill="#ecf0f1" stroke="none" d="M 1548.071899 851.001953 L 1524.582031 851.001953 C 1517.291992 859.099976 1475.901001 915.796021 1458 932.002014 C 1453.140015 940.100037 1445.849976 948.198059 1441.718994 948.198059 C 1381.536011 1021.100037 1253.55603 1142.600098 1176.767944 1207.404053 C 1166.723999 1215.501953 1157.004028 1223.600098 1155.222046 1223.600098 C 1149.875977 1231.697998 1098.68396 1264.099976 1075.679932 1280.296021 C 1002.375 1328.903931 916.352966 1369.403931 849.528015 1385.599976 C 717.651917 1418.001953 614.757629 1409.903931 481.172424 1345.099976 C 440.802002 1328.903931 383.283905 1296.501953 351.75058 1272.197998 C 320.808594 1247.904053 324.072876 1247.904053 324.121521 1288.403931 L 324.121521 1328.903931 L 345.003326 1337.001953 C 371.790009 1353.197998 429.607819 1385.599976 467.305176 1401.796021 C 496.027771 1418.001953 504.978302 1426.099976 488.907898 1426.099976 C 474.101074 1418.001953 390.071716 1418.001953 357.785095 1426.099976 L 325.385101 1426.099976 C 324.639923 1426.099976 324.03241 1442.296021 324.03241 1458.501953 L 324.03241 1490.903931 L 334.829681 1490.903931 C 381.291321 1474.697998 481.010376 1474.697998 527.431519 1482.796021 C 582.090271 1490.903931 620.549072 1499.001953 666.743347 1523.296021 C 754.879517 1563.796021 827.981995 1644.796021 859.815002 1725.796021 L 866.294983 1742.001953 L 901.934998 1742.001953 L 937.575012 1742.001953 L 935.630981 1733.903931 C 924.209961 1685.296021 892.133972 1628.599976 852.444031 1588.099976 C 826.362 1555.697998 780.297302 1523.296021 762.145203 1507.099976 L 756.021606 1507.099976 C 753.073242 1499.001953 722.285095 1482.796021 709.130676 1482.796021 C 701.646301 1474.697998 695.546997 1474.697998 695.546997 1474.697998 C 695.546997 1466.599976 701.21698 1466.599976 708.142517 1474.697998 C 725.436035 1474.697998 795.079773 1466.599976 826.60498 1458.501953 C 913.922974 1442.296021 996.54303 1409.903931 1080.053955 1361.296021 C 1110.024048 1345.099976 1178.063965 1288.403931 1205.280029 1272.197998 C 1225.530029 1247.904053 1232.01001 1247.904053 1223.747925 1256.001953 C 1220.831909 1264.099976 1215.243042 1272.197998 1211.192993 1280.296021 C 1207.223999 1288.403931 1200.257935 1296.501953 1195.802979 1304.599976 C 1132.784912 1401.796021 1092.365967 1523.296021 1081.43103 1661.001953 C 1079.891968 1685.296021 1078.595947 1709.599976 1078.595947 1717.697998 L 1078.595947 1742.001953 L 1267.488037 1742.001953 L 1456.380005 1742.001953 L 1450.223999 1733.903931 C 1416.203979 1685.296021 1374.00293 1580.001953 1359.828003 1507.099976 C 1348.16394 1450.403931 1344.68103 1361.296021 1351.970947 1312.697998 C 1373.192871 1183.100098 1445.526001 1069.697998 1569.779907 996.796082 C 1582.578003 988.698059 1599.102051 980.600037 1606.473022 972.502014 L 1620 964.403992 L 1620 940.100037 C 1620 923.903992 1619.028076 907.697998 1617.812988 907.697998 C 1588.328979 923.903992 1522.718994 964.403992 1492.587036 980.600037 C 1476.468018 996.796082 1475.495972 996.796082 1490.642944 980.600037 C 1512.350952 956.296082 1549.772949 915.796021 1589.544067 867.197998 L 1608.093018 851.001953 L 1567.511963 851.001953 L 1548.071899 851.001953 Z"/>
    </g>
</svg>
