<?xml version="1.0" encoding="UTF-8"?>
<!-- Generated by Pixelmator Pro 3.1.1 -->
<svg width="512" height="420" viewBox="0 0 512 420" xmlns="http://www.w3.org/2000/svg" xmlns:xlink="http://www.w3.org/1999/xlink">
    <path id="Path" fill="#000000" fill-rule="evenodd" stroke="none" d="M 74.320313 420 C 33.440353 420 0 386.519684 0 345.679688 L 0 74.150391 C 0 33.240417 33.410355 -0.169922 74.320313 -0.169922 L 437.679688 -0.169922 C 478.549652 -0.169922 512 33.290436 512 74.150391 L 512 345.679688 C 512 386.499664 478.499664 420 437.679688 420 L 74.320313 420 Z M 124.667969 272 L 170.46875 272 L 170.46875 210.169922 L 171.384766 210.169922 C 171.690094 215.818619 172.452484 219.482758 173.673828 221.162109 L 208.710938 272 L 251.763672 272 L 251.763672 128.875 L 205.962891 128.875 L 205.962891 190.705078 L 205.046875 190.705078 C 204.741547 185.056381 203.979141 181.392242 202.757813 179.712891 L 167.720703 128.875 L 124.667969 128.875 L 124.667969 272 Z M 274.664063 272 L 356.875 272 C 369.546387 272 378.934357 268.526428 385.041016 261.580078 C 391.147705 254.633698 394.201172 245.436371 394.201172 233.986328 C 394.201172 212.002243 384.964905 199.407181 366.492188 196.201172 L 366.492188 194.826172 C 372.751556 193.146835 377.751862 189.521591 381.492188 183.949219 C 385.232544 178.376862 387.101563 170.476761 387.101563 160.248047 C 387.101563 150.019348 384.162811 142.233978 378.285156 136.890625 C 372.40744 131.547241 362.599457 128.875 348.859375 128.875 L 274.664063 128.875 L 274.664063 272 Z M 320.462891 238.337891 L 320.462891 214.978516 L 338.326172 214.978516 C 344.585541 214.978516 347.714844 218.872177 347.714844 226.658203 C 347.714844 234.444229 344.507751 238.337891 338.095703 238.337891 L 320.462891 238.337891 Z M 320.462891 181.544922 L 320.462891 160.248047 L 334.890625 160.248047 C 340.539307 160.248047 343.363281 163.797455 343.363281 170.896484 C 343.363281 177.995514 340.46347 181.544922 334.662109 181.544922 L 320.462891 181.544922 Z"/>
</svg>
