<svg xmlns="http://www.w3.org/2000/svg" shape-rendering="geometricPrecision" text-rendering="geometricPrecision" image-rendering="optimizeQuality" fill-rule="evenodd" clip-rule="evenodd" viewBox="0 0 512 512"><path fill="#4D4D4D" fill-rule="nonzero" d="M256 0c70.684 0 134.689 28.664 181.013 74.987C483.336 121.311 512 185.316 512 256c0 70.684-28.664 134.689-74.987 181.013C390.689 483.336 326.684 512 256 512c-70.676 0-134.689-28.664-181.013-74.987C28.664 390.689 0 326.676 0 256c0-70.684 28.664-134.689 74.987-181.013C121.311 28.664 185.316 0 256 0z"/><path fill="#fff" fill-rule="nonzero" d="M256.001 19.597c65.277 0 124.381 26.46 167.161 69.242 42.782 42.78 69.242 101.884 69.242 167.161s-26.46 124.382-69.242 167.161c-42.78 42.783-101.884 69.243-167.161 69.243s-124.382-26.46-167.161-69.243C46.057 380.382 19.597 321.277 19.597 256s26.46-124.381 69.24-167.163c42.782-42.78 101.887-69.24 167.164-69.24z"/><path fill-rule="nonzero" d="M458.282 333.026c-31.047 81.484-109.896 139.381-202.281 139.381-92.386 0-171.234-57.897-202.281-139.381h404.562z"/><path fill="#CE1126" fill-rule="nonzero" d="M459.634 182.604H52.367c30.061-83.392 109.88-143.01 203.634-143.01 93.751 0 173.57 59.618 203.633 143.01z"/><path fill="#fff" fill-rule="nonzero" d="M256.997 259.928l51.834 48.119-3.69-87.392c-.542-13.244-12.052-10.206-20.413-5.428-8.469 5.428-18.132 5.428-28.34 1.844-10.206 3.584-19.87 3.584-28.339-1.844-8.36-4.778-19.868-7.817-20.412 5.428l-3.692 87.391 53.052-48.118z"/><path fill="#C09300" fill-rule="nonzero" d="M257.323 259.577l50.98 47.325-3.641-86.228c-.102-2.489-.598-4.374-1.39-5.76-.717-1.253-1.679-2.099-2.809-2.614-1.148-.524-2.481-.717-3.916-.658-3.638.149-7.912 1.906-11.58 4.002-4.304 2.752-8.909 4.13-13.735 4.364-4.765.23-9.74-.654-14.844-2.429-5.104 1.774-10.078 2.659-14.843 2.429-4.826-.235-9.432-1.612-13.735-4.364-3.668-2.096-7.94-3.853-11.577-4.002-1.436-.059-2.769.133-3.917.657-1.13.516-2.092 1.361-2.809 2.616-.792 1.386-1.289 3.271-1.391 5.759l-3.645 86.248 52.205-47.349a.48.48 0 01.647.004zm51.181 48.821l-51.511-47.819-52.713 47.809a.478.478 0 01-.814-.361l3.692-87.391c.109-2.654.65-4.685 1.515-6.199.822-1.437 1.934-2.411 3.245-3.009 1.294-.591 2.774-.808 4.352-.744 3.814.157 8.239 1.967 12.017 4.126l.021.013c4.16 2.667 8.615 4 13.282 4.227 4.686.227 9.593-.659 14.64-2.431a.473.473 0 01.315 0c5.048 1.772 9.956 2.658 14.642 2.431 4.66-.226 9.108-1.556 13.264-4.215l.038-.025c3.78-2.159 8.206-3.97 12.02-4.126 1.579-.064 3.058.154 4.352.744 1.311.598 2.422 1.572 3.244 3.009.864 1.516 1.406 3.547 1.515 6.199l3.689 87.371a.48.48 0 01-.805.391z"/><path fill="#C09300" fill-rule="nonzero" d="M213.6 217.614l-3.583 85.007-6.081 5.425 3.693-87.391c1.736-1.195 4.778-3.041 5.971-3.041zm7.281 6.085l-3.04 71.108-6.079 6.221 3.691-82.109c1.195 1.194 4.779 4.125 5.428 4.776v.004zm6.622 5.426l-2.388 59.307-4.885 4.775 3.04-67.665c1.192 1.194 3.58 2.932 4.233 3.583zm7.167 3.043l-2.388 50.546-4.778 3.875 2.388-56.266c1.195.542 3.584 1.845 4.778 1.845zm6.622 0l-1.738 42.123-4.885 4.777 1.846-46.357c1.192 0 4.233 0 4.777-.543zM299.168 217.614l3.583 85.007 6.08 5.425-3.692-87.391c-1.737-1.195-4.778-3.041-5.971-3.041zm-7.281 6.085l3.04 71.108 6.079 6.221-3.691-82.109c-1.195 1.194-4.779 4.125-5.428 4.776v.004zm-6.622 5.426l2.387 59.307 4.886 4.775-3.041-67.665c-1.191 1.194-3.58 2.932-4.232 3.583zm-7.168 3.043l2.389 50.546 4.778 3.875-2.389-56.266c-1.195.542-3.583 1.845-4.778 1.845zm-6.622 0l1.738 42.123 4.886 4.777-1.847-46.357c-1.192 0-4.233 0-4.777-.543zM258.775 269.51l7.276 33.115-2.39 2.388-2.497-1.846-4.127-29.53 1.738 29.53-2.389 3.039-2.389-3.039 1.738-29.53-4.125 29.53-2.5 1.846-2.387-2.388 7.274-33.115z"/><path fill="#C09300" fill-rule="nonzero" d="M259.172 269.424l7.323 33.33-2.795 2.792-2.914-2.155-2.749-19.673 1.152 19.579-2.803 3.566c-.934-1.189-1.871-2.375-2.803-3.566l1.152-19.573-2.747 19.667-2.917 2.155-2.792-2.792c2.453-11.219 4.921-22.436 7.392-33.651h5.43l.071.321zm6.435 33.072l-7.158-32.58h-4.126l-7.156 32.58 1.983 1.984 2.082-1.537 4.101-29.361.806.079-1.728 29.376 1.975 2.513 1.975-2.513-1.728-29.376.806-.079 4.103 29.361 2.079 1.537 1.986-1.984z"/><path fill="#fff" fill-rule="nonzero" d="M240.097 254.963l-14.441 51.242 19.871 3.04 8.467-38.541-13.898-15.741z"/><path fill="#C09300" fill-rule="nonzero" d="M240.306 255.878l-14.079 49.959 18.951 2.9 8.329-37.908-13.201-14.951zm-15.082 50.205l14.44-51.241a.447.447 0 01.432-.327.447.447 0 01.363.182l13.849 15.686c.107.104.159.26.126.417l-8.465 38.527a.45.45 0 01-.509.363l-19.87-3.041-.055-.012a.45.45 0 01-.311-.554z"/><path fill="#C09300" fill-rule="nonzero" d="M235.764 272.264l1.471 3.583 8.882-8.482.661.694-9.389 8.967a.478.478 0 01-.773-.165l-1.738-4.233.886-.364z"/><path fill="#C09300" fill-rule="nonzero" d="M242.299 261.785l1.837 17.229 5.242-6.86.761.582-2.223 2.91 2.445 8.439 1.15-1.745.8.526-1.599 2.428.38 1.312-.92.266-.153-.526-4.239 6.438 2.06 9.745-.938.195-1.882-8.898-3.869 6.019a.48.48 0 01-.86-.111l-2.063-6.285-3.802 6.252a.478.478 0 01-.871-.123l-3.14-11.518a.48.48 0 01.111-.485l6.176-6.334a.479.479 0 01.816.193l1.674 5.958 3.839-5.198a.48.48 0 01.856.201l1.64 9.034 4.142-6.292-2.476-8.545-3.024 3.959a.479.479 0 01-.859-.239l-1.964-18.426.953-.101zm2.446 30.697l-1.602-8.827-3.763 5.095a.479.479 0 01-.846-.156l-1.714-6.101-5.416 5.555 2.781 10.203 3.765-6.19a.48.48 0 01.865.102l2.074 6.316 3.856-5.997z"/><path fill="#C09300" fill-rule="nonzero" d="M229.497 304.735l4.011-5.634a.48.48 0 01.849.141l2.298 7.621 3.027-5.134a.478.478 0 01.868.094l2.391 7.276-.913.296-2.059-6.268-3.029 5.139a.48.48 0 01-.889-.079l-2.33-7.733-3.443 4.836-.781-.555z"/><path fill="#fff" fill-rule="nonzero" d="M272.671 254.963l14.44 51.242-19.87 3.04-8.468-38.541 13.898-15.741z"/><path fill="#C09300" fill-rule="nonzero" d="M273.169 255.076l14.513 51.496-20.79 3.182c-2.873-13.057-5.75-26.114-8.607-39.174l13.887-15.729-.095-.337h1.589l-.497.562zm13.372 50.761l-14.08-49.959-13.2 14.951 8.328 37.908 18.952-2.9z"/><path fill="#fff" fill-rule="nonzero" d="M277.447 272.446l-1.738 4.233-9.389-8.967 11.127 4.734zm0 0z"/><path fill="#C09300" fill-rule="nonzero" d="M277.89 272.628l-2.004 4.883-9.896-9.452.661-.694 8.882 8.482 1.47-3.583z"/><path fill="#fff" fill-rule="nonzero" d="M270.945 261.836l-1.965 18.425-5.971-7.816 7.936-10.609zm-5.548 13.645l-3.261 11.258 3.261-11.258zm-4.54 7.122l6.598 10.021-6.598-10.021zm4.54 20.024l2.111-9.989 1.844-10.159 4.42 5.986 1.939-6.902 6.187 6.346-3.147 11.543-4.342-7.141-2.389 7.275-4.458-6.934-2.165 9.975zm0 0z"/><path fill="#C09300" fill-rule="nonzero" d="M271.422 261.886l-2.092 19.622-3.756-4.916-2.476 8.545 4.143 6.292 1.838-10.126 4.496 6.089 1.899-6.758 6.958 7.136c-1.175 4.293-2.342 8.588-3.512 12.882l-4.38-7.203-2.378 7.244-4.415-6.867-1.881 8.898-.939-.195 2.06-9.745-4.239-6.438-.152.526-.92-.266.38-1.312-1.599-2.428.8-.526 1.149 1.745 2.445-8.439-2.223-2.91.762-.582 5.241 6.86 1.837-17.229.954.101zm-1.797 21.769l-1.602 8.827 3.856 5.997 2.398-7.306 4.305 7.078 2.782-10.203-5.416-5.555-1.979 7.045-4.344-5.883z"/><path fill="#fff" fill-rule="nonzero" d="M282.88 305.013l-4.01-5.634-2.614 8.671-3.583-6.079-2.39 7.276 12.597-4.234zm0 0z"/><path fill="#C09300" fill-rule="nonzero" d="M282.49 305.29l-3.443-4.836-2.647 8.783-3.602-6.11-2.059 6.268-.912-.296 2.721-8.284 3.565 6.048 2.579-8.559 4.579 6.431z"/><path fill="#fff" fill-rule="nonzero" d="M256.384 329.11c15.093 0 29.534-1.194 38.002-3.583 3.584-.65 3.584-2.496 3.584-4.885 3.584-1.194 1.737-5.427 4.234-5.427-2.497.652-3.039-4.234-6.08-3.581 0-4.236-4.234-4.778-7.817-3.586-7.167 2.39-19.871 2.933-31.924 2.933-12.052-.543-24.648-.543-31.922-2.933-3.583-1.192-7.816-.65-7.816 3.586-3.041-.653-3.584 4.233-6.08 3.581 2.496 0 .65 4.233 4.234 5.427 0 2.389 0 4.235 3.691 4.885 8.36 2.389 22.802 3.583 37.893 3.583h.001z"/><path fill="#C09300" fill-rule="nonzero" d="M256.384 328.211c7.75 0 15.305-.313 21.944-.939 6.272-.592 11.747-1.462 15.816-2.609a.776.776 0 01.134-.027c1.439-.268 2.136-.725 2.453-1.321.339-.637.339-1.594.339-2.673a.9.9 0 01.689-.875c1.381-.497 1.676-1.718 1.924-2.746.126-.52.244-1.01.426-1.425-.49-.392-.913-.934-1.345-1.488-.688-.884-1.417-1.818-2.453-1.595a.9.9 0 01-1.085-.879 4.092 4.092 0 00-.184-1.274 2.55 2.55 0 00-1.238-1.472l-.003-.001c-.628-.339-1.422-.491-2.282-.491-.954 0-1.97.183-2.932.503-3.665 1.222-8.704 1.969-14.344 2.408-5.611.437-11.82.574-17.86.574l-.109-.007c-2.161-.097-4.294-.175-6.409-.253-9.968-.365-19.595-.719-25.682-2.719l-.062-.022c-.944-.308-1.938-.484-2.872-.484-.86 0-1.653.152-2.28.492l-.057.028a2.55 2.55 0 00-1.185 1.443 4.044 4.044 0 00-.182 1.275.9.9 0 01-1.131.87c-1.013-.187-1.731.733-2.41 1.604-.432.555-.855 1.096-1.345 1.488.183.415.301.905.427 1.425.251 1.045.553 2.29 1.994 2.77a.898.898 0 01.615.851h.003c0 1.964 0 3.481 2.947 4l.115.027c4.013 1.144 9.446 2.012 15.684 2.602 6.627.626 14.186.94 21.94.94zm22.113.846c-6.74.636-14.352.953-22.113.953-7.765 0-15.381-.318-22.109-.954-6.347-.6-11.884-1.484-15.986-2.651-4.069-.731-4.367-2.648-4.389-5.159-1.851-.876-2.233-2.457-2.558-3.803-.145-.6-.27-1.117-.568-1.277a3.054 3.054 0 01-.434-.083.896.896 0 01.225-1.765c.199-.003.38.011.544.038.506-.099.983-.712 1.482-1.352.849-1.088 1.737-2.228 3.225-2.33.048-.31.118-.601.21-.877a4.287 4.287 0 012.015-2.448l.07-.043c.904-.49 1.992-.71 3.138-.71 1.114 0 2.302.212 3.433.582l.057.016c5.859 1.925 15.355 2.273 25.189 2.634 2.153.079 4.322.159 6.428.254l.027-.001c6.013 0 12.183-.135 17.727-.567 5.517-.429 10.414-1.149 13.915-2.316 1.149-.383 2.36-.602 3.494-.602 1.146 0 2.234.22 3.138.71a4.31 4.31 0 012.087 2.491c.091.276.162.568.209.877 1.488.102 2.376 1.242 3.224 2.33.499.64.976 1.252 1.482 1.352.165-.027.346-.041.545-.041a.9.9 0 01.143 1.788 3.167 3.167 0 01-.353.063c-.297.16-.422.677-.567 1.277-.325 1.346-.706 2.927-2.559 3.803-.012 1.067-.085 2.031-.555 2.913-.569 1.069-1.637 1.853-3.706 2.239-4.162 1.172-9.737 2.059-16.11 2.659z"/><path fill="#fff" fill-rule="nonzero" d="M235.866 306.201c4.885.652 10.314 1.194 14.55.652 2.387 0 4.124 4.125-.653 4.778-4.233.541-10.857 0-14.44-.653-3.041-.543-9.664-1.737-13.899-2.933-4.234-1.844-1.193-5.425 1.194-4.883 3.692 1.193 8.47 2.388 13.248 3.039zm41.043 0c-4.886.652-10.314 1.194-14.441.652-2.498 0-4.235 4.125.543 4.778 4.235.541 10.858 0 14.439-.653 3.041-.543 9.663-1.737 13.898-2.933 4.236-1.844 1.196-5.425-1.194-4.883-3.691 1.193-8.469 2.388-13.245 3.039z"/><path fill="#C09300" fill-rule="nonzero" d="M235.97 305.731c2.416.322 4.969.617 7.443.765 2.473.148 4.861.149 6.943-.118l.06-.004c1.027-.002 1.951.624 2.451 1.465.22.368.361.779.395 1.196.036.431-.037.871-.247 1.283-.427.837-1.413 1.545-3.188 1.788l-.025.002c-1.94.246-4.361.27-6.763.161-2.916-.132-5.818-.459-7.8-.82a283.52 283.52 0 01-6.511-1.223c-2.581-.519-5.311-1.12-7.434-1.719l-.08-.031c-1.441-.632-2.136-1.481-2.327-2.338a2.383 2.383 0 01.108-1.381c.158-.42.424-.806.758-1.129.767-.744 1.918-1.172 2.97-.933l.041.011c1.946.629 4.2 1.259 6.597 1.809 2.107.483 4.321.904 6.53 1.206l.079.01zm7.386 1.722c-2.499-.149-5.084-.448-7.532-.775l-.021-.002a75.635 75.635 0 01-6.655-1.226 80.658 80.658 0 01-6.655-1.825c-.721-.155-1.524.158-2.072.689a2.171 2.171 0 00-.529.781 1.442 1.442 0 00-.07.837c.128.574.65 1.169 1.763 1.66 2.108.593 4.794 1.185 7.331 1.695 2.478.498 4.939.941 6.491 1.218 1.944.356 4.798.677 7.673.807 2.358.106 4.724.084 6.603-.154l.016-.002c1.412-.193 2.164-.693 2.46-1.273.125-.245.168-.509.147-.769a1.872 1.872 0 00-.261-.787c-.337-.566-.946-.988-1.615-.994-2.142.27-4.57.27-7.074.12zm33.594-.774c-2.45.326-5.033.625-7.519.774-2.49.15-4.893.15-6.98-.119-.715.006-1.355.438-1.705 1.014a1.823 1.823 0 00-.267.784 1.39 1.39 0 00.145.763c.296.574 1.048 1.069 2.451 1.261l.016.002c1.88.238 4.246.26 6.603.154 2.876-.13 5.729-.451 7.671-.805 1.548-.278 4.001-.719 6.493-1.22 2.536-.51 5.222-1.102 7.329-1.695 1.113-.491 1.636-1.087 1.765-1.663l.003-.015a1.45 1.45 0 00-.072-.819 2.187 2.187 0 00-.53-.781c-.549-.531-1.352-.844-2.073-.689a81.026 81.026 0 01-6.654 1.825c-2.139.49-4.394.919-6.653 1.226l-.023.003zm-7.575-.183c2.461-.148 5.012-.443 7.431-.765l.079-.01a75.158 75.158 0 006.528-1.206 79.616 79.616 0 006.595-1.809l.041-.011c1.054-.239 2.205.189 2.972.933.334.323.6.709.758 1.129.162.429.213.892.112 1.36l-.004.023c-.192.856-.887 1.704-2.329 2.336l-.08.031c-2.122.599-4.852 1.2-7.433 1.719-2.637.53-5.018.959-6.513 1.225-1.981.359-4.881.686-7.796.818-2.402.109-4.823.085-6.764-.161l-.025-.002c-1.763-.241-2.748-.942-3.175-1.772a2.326 2.326 0 01-.25-1.285c.036-.419.18-.831.405-1.2.514-.845 1.467-1.477 2.541-1.477l.062.006c2.028.266 4.388.266 6.845.118z"/><path fill="#fff" fill-rule="nonzero" d="M220.881 303.817c-3.691-.652-5.429 3.581-4.233 5.969.542-1.194 3.039-1.194 3.583-2.388.65-1.845-.544-1.845.65-3.581zm14.44 11.103c0-2.386 2.388-2.093 2.388-4.482 0-1.194-.65-3.04-1.845-3.04-1.194 0-2.389 1.194-2.389 2.388-.544 2.389 1.846 2.748 1.846 5.134zm17.188-6.872c3.58 0 3.225 4.778 1.487 7.167 0-1.737-3.039-2.388-3.039-3.581 0-1.848 2.744-1.848 1.552-3.586zm39.378-4.231c3.691-.652 5.43 3.581 4.235 5.969-.544-1.194-3.041-1.194-3.583-2.388-.652-1.845.543-1.845-.652-3.581zm-14.44 11.103c0-2.386-2.387-2.093-2.387-4.482 0-1.194.65-3.04 1.845-3.04 1.194 0 2.388 1.194 2.388 2.388.544 2.389-1.847 2.748-1.847 5.134h.001zm-17.188-6.872c-3.582 0-3.226 4.778-1.489 7.167 0-1.737 3.039-2.388 3.039-3.581.001-1.848-2.744-1.848-1.55-3.586z"/><path fill="#C09300" fill-rule="nonzero" d="M220.082 304.23c-.5.007-.947.122-1.336.317a3.37 3.37 0 00-1.273 1.151 4.353 4.353 0 00-.653 1.649c-.09.513-.09 1.03.009 1.504.405-.301.921-.504 1.436-.706.659-.259 1.319-.518 1.521-.927.24-.692.175-1.08.117-1.425-.079-.468-.148-.882.179-1.563zm-1.764-.539c.745-.373 1.634-.525 2.645-.347.065.013.13.038.188.079a.478.478 0 01.096.704c-.521.773-.464 1.112-.398 1.508.078.463.165.983-.165 1.92l-.017.042c-.352.774-1.203 1.108-2.053 1.442-.669.262-1.338.525-1.529.944a.48.48 0 01-.865.017c-.414-.827-.519-1.839-.346-2.818a5.3 5.3 0 01.804-2.017 4.303 4.303 0 011.64-1.474zm17.042 9.485c.241-.331.54-.594.839-.856.514-.451 1.029-.903 1.029-1.882 0-.594-.179-1.367-.519-1.928-.223-.368-.511-.631-.845-.631-.465 0-.941.242-1.305.605-.362.362-.604.836-.604 1.302a.492.492 0 01-.02.139c-.221 1.029.248 1.633.741 2.268.24.308.484.622.684.983zm1.47-.135c-.514.451-1.028.901-1.028 1.879a.481.481 0 11-.961 0c0-.952-.472-1.558-.923-2.138-.633-.814-1.234-1.588-.923-3.044.015-.712.367-1.412.889-1.934.532-.531 1.252-.887 1.98-.887.721 0 1.275.457 1.664 1.097.433.715.661 1.685.661 2.424 0 1.411-.68 2.007-1.359 2.603zm15.679-5.473c.796-.001 1.433.21 1.929.57.469.342.803.814 1.015 1.363.204.525.298 1.119.298 1.734 0 1.473-.537 3.12-1.368 4.261a.478.478 0 01-.865-.281c-.002-.699-.802-1.249-1.527-1.748-.791-.544-1.515-1.042-1.515-1.833 0-1.062.656-1.597 1.244-2.077.428-.348.797-.65.393-1.239a.48.48 0 01.396-.75zm1.365 1.347a1.875 1.875 0 00-.567-.278c.148.741-.387 1.177-.982 1.663-.42.343-.888.724-.888 1.334 0 .289.525.65 1.099 1.045.584.401 1.205.83 1.584 1.393.418-.867.669-1.891.669-2.837 0-.506-.072-.983-.229-1.388-.148-.382-.373-.705-.686-.932zm37.93-5.571c1.012-.178 1.901-.025 2.645.347.679.34 1.23.86 1.642 1.474.407.608.679 1.309.805 2.018.172.979.067 1.99-.347 2.817a.478.478 0 01-.862-.015c-.192-.42-.863-.683-1.532-.946-.85-.334-1.702-.669-2.054-1.444l-.015-.037c-.331-.939-.244-1.46-.166-1.923.066-.398.123-.736-.407-1.517a.474.474 0 01.102-.695.474.474 0 01.189-.079zm2.217 1.203a3.064 3.064 0 00-1.333-.317c.326.68.256 1.094.178 1.563-.058.345-.123.732.118 1.425.2.408.861.668 1.521.927.515.203 1.031.406 1.435.706.099-.473.1-.99.009-1.503a4.322 4.322 0 00-.654-1.649 3.353 3.353 0 00-1.274-1.152zm-17.056 10.354c-.006-.964-.517-1.412-1.027-1.86-.679-.596-1.359-1.192-1.359-2.603 0-.739.228-1.709.662-2.424.389-.64.943-1.097 1.664-1.097.729 0 1.45.356 1.982.887l.027.03c.505.518.844 1.206.859 1.904.312 1.456-.29 2.23-.923 3.044-.449.576-.917 1.178-.923 2.119v.019a.481.481 0 11-.962 0v-.019zm-.396-2.581c.299.262.598.525.839.856.2-.362.443-.675.683-.983.494-.635.963-1.239.743-2.268a.459.459 0 01-.021-.139c0-.456-.232-.92-.581-1.279l-.025-.023c-.363-.363-.838-.605-1.302-.605-.334 0-.622.262-.845.631-.341.561-.519 1.334-.519 1.928 0 .979.514 1.431 1.028 1.882zm-17.107-3.683c-.218.066-.407.16-.57.278-.312.227-.537.551-.685.932-.157.405-.23.882-.23 1.388 0 .945.252 1.968.671 2.836.378-.563.999-.991 1.582-1.392.574-.395 1.098-.756 1.098-1.045.003-.608-.466-.991-.887-1.334-.595-.485-1.129-.922-.979-1.663zm-1.132-.499c.495-.36 1.132-.571 1.929-.571a.479.479 0 01.394.751c-.404.588-.035.89.393 1.239.588.479 1.242 1.013 1.242 2.077.002.791-.722 1.289-1.513 1.833-.725.499-1.525 1.049-1.525 1.748a.482.482 0 01-.869.281c-.829-1.14-1.365-2.786-1.365-4.261 0-.615.094-1.209.297-1.734.213-.549.546-1.021 1.017-1.363z"/><path fill="#fff" fill-rule="nonzero" d="M222.076 305.013c1.196 0 3.041.543 3.585 1.193l-3.588-1.196.003.003zm5.965 1.846c.652 0 3.041.542 4.235 1.193l-4.239-1.197.004.004zm21.721 2.384c-1.194 0-3.583 0-4.233.542l4.23-.545.003.003zm-6.623 0c-.65-.652-3.04-.652-4.233 0H243.139zm47.56-4.23c-1.195 0-2.933.543-3.584 1.193l3.584-1.193zm-5.972 1.846c-.651 0-3.04.542-4.235 1.193l4.238-1.197-.003.004zm-21.721 2.384c1.196 0 3.584 0 4.235.542l-4.238-.545.003.003zm6.622 0c.651-.652 3.042-.652 4.235 0h-4.238.003z"/><path fill="#C09300" fill-rule="nonzero" d="M222.096 304.675c.65.003 1.479.157 2.205.399.699.232 1.316.555 1.617.916a.336.336 0 01-.387.527l-3.519-1.173a.346.346 0 01-.123-.051l-.003-.002a.341.341 0 01-.132-.386.338.338 0 01.342-.23zm5.99 1.848c.415.012 1.336.186 2.273.45.754.212 1.53.486 2.078.783a.337.337 0 01-.252.619l-4.194-1.183a.333.333 0 01-.207-.115l-.003-.004a.335.335 0 01.305-.55zm21.676 3.057l-4.191.538a.336.336 0 01-.257-.591c.737-.614 3.159-.621 4.406-.621a.339.339 0 01.326.158l.003.003a.338.338 0 01-.287.513zm-8.536-1.163c.89 0 1.726.189 2.127.566a.338.338 0 01-.214.598h-4.233a.341.341 0 01-.295-.177.335.335 0 01.134-.455c.648-.355 1.605-.532 2.481-.532zm47.329-3.356c.711-.237 1.502-.386 2.144-.386a.34.34 0 01.318.232.335.335 0 01-.213.424l-3.565 1.188a.336.336 0 01-.361-.551c.355-.355.983-.676 1.677-.907zm-6.146 1.912c.937-.264 1.858-.438 2.273-.45a.336.336 0 01.287.569.335.335 0 01-.19.099l-4.195 1.184a.336.336 0 01-.252-.619c.547-.297 1.323-.571 2.077-.783zm-19.367 1.933c1.247 0 3.674.007 4.413.621a.335.335 0 01-.256.591l-4.193-.537a.339.339 0 01-.247-.11l-.003-.004a.336.336 0 01.286-.561zm6.389.062c.408-.368 1.233-.551 2.111-.551.876 0 1.833.177 2.482.532a.335.335 0 01-.161.63l-4.238.002a.337.337 0 01-.194-.613zM221.07 314.557c-.404-.077-.616-.398-.515-.776.124-.461.493-.725.842-.601.222.078.628.488.63.635.002.168-.212.569-.305.57-.039 0-.101.035-.137.077-.076.09-.313.133-.515.094v.001zm41.573 2.966c-.151-.056-.39-.392-.39-.547.001-.293.434-.771.703-.773.133-.002.496.187.631.328.246.256.192.676-.116.915-.153.117-.606.16-.828.077zm.272 1.877c-.318-.108-.434-.263-.46-.616-.027-.367.009-.424.397-.636l.277-.151.262.117c.363.162.525.337.538.581.013.263-.182.532-.485.668-.266.119-.282.121-.529.037z"/><path fill="#C09300" fill-rule="nonzero" d="M224.408 311.158c-.262-.008-.622.233-.828.355-.492.115-1.063.417-1.538.095-.467-.145-1.088-.031-1.158.544.119.493.811.775 1.229.449.312-.407 1.16-.645 1.254.047-.346.525-.306 1.218-.591 1.774a2.42 2.42 0 01-.379.97c-.35.035-.722-.007-1.017.213-.474.026-.957.261-1.23.662-.305.437-.596.882-.686 1.419.082.548.71.706 1.183.733.505.139 1.01.321 1.514.473.821.184 1.591.481 2.413.662 1.198.362 2.457.528 3.665.852.127.042.246.078.379.095.501.104.763-.441.804-.852.249-.877.438-1.77.686-2.649.17-.352.376-1.148-.307-.969-.39.233-.721.585-1.206.614-.662.039-.285.716-.024.994.057.444-.083.975-.379 1.324-.393.25-.887-.042-1.301-.142-.434.008-1.304-.214-.899-.804.144-.437.157-.914.332-1.348.222-.465.253-.973.354-1.466-.273-.589-.74.193-1.111.26-.256.177-1.215.253-.71.709.436.331.102.906.024 1.325-.027.583-.634.722-1.111.591-.475-.023-1.136-.377-.734-.899.092-.435.244-.863.332-1.301.179-.528.331-1.031.52-1.561.082-.469.251-.914.473-1.324.013-.519.362-.965.355-1.49-.035-.257-.15-.35-.308-.355zm-2.72 5.487a.27.27 0 01.165.024c.189.081.195.234 0 .402-.085.073-.181.144-.213.142-.353-.03-.458-.083-.473-.213-.013-.114.024-.147.261-.26a1.06 1.06 0 01.26-.095zm-.784 3.799c-.376-.352-.316-.61.24-1.024.237-.177.381-.157.653.091.418.382.435.623.066.95-.183.161-.262.195-.475.197-.222.002-.285-.026-.484-.214zm2.308.697a.65.65 0 01-.471-.824c.097-.328.153-.361.636-.365.54-.006.646.085.651.561.002.268-.018.33-.152.454a.81.81 0 01-.664.174zm67.441.06c-.172-.142-.206-.207-.208-.389-.002-.311.177-.539.565-.715.516-.233.726-.201.92.141.259.455.247.641-.063.948-.171.169-.203.179-.594.183-.385.002-.428-.008-.62-.168zm-64.376.87c-.276-.073-.418-.28-.422-.61-.003-.253.015-.293.192-.431.115-.09.295-.167.438-.186.202-.028.276-.01.438.104.417.293.506.583.265.864-.258.3-.501.369-.911.259zm16.59.743c-.061-.077-.196-.122-.211-.218.025-.42.045-.845.179-1.247.072-.396.008-.809.147-1.195.142-.701.141-1.424.304-2.122.008-.359.042-.718.146-1.064.119-.545.01-1.117.171-1.656-.017-.203.216-.744.421-.424.297.437.69.791 1.075 1.147.332.191.028.473-.202.567-.314.124-.39.471-.368.774-.044.314-.17.611-.183.931-.066.471-.053.949-.114 1.42-.138.461-.085.954-.131 1.429.006.301-.138.575-.118.878-.037.307-.05.677-.308.887-.249.126-.609.104-.808-.107zm22.478-7.418c-.365.276-.692.602-1.017.923-.449.339.368.537.473.828.119.443.112.916.141 1.372.136.417.196.861.166 1.301-.039.471-.654.371-.922.638-.373.157-.521.523-.805.78-.186.366-.236.815-.26 1.231.027.339-.229.718 0 1.016.029.043.065.1.095.142.077.11.259.023.378.048.381-.021.779.035 1.136-.119.915-.158 1.839-.171 2.767-.212.567.018 1.113-.18 1.679-.166.444.099.644-.383.639-.733-.251-.494-.034-1.081-.237-1.584-.178-.509-.107-1.081-.189-1.609-.011-.415-.538-.569-.804-.26-.258.261-.676.313-.875.639-.225.456.475.456.591.804.134.351.09.742.119 1.111.086.449-.401.474-.71.521-.406.152-.977.254-1.206-.237-.145-.363-.125-.751-.165-1.135-.011-.675-.173-1.338-.214-2.01-.038-.83-.182-1.655-.236-2.484-.007-.344-.053-.907-.544-.804v-.001zm-.473 6.244l.236.024.024.284.024.283-.308.095a2.656 2.656 0 01-.307.071 1.526 1.526 0 01-.142-.095c-.166-.12-.124-.291.094-.52.123-.129.181-.154.379-.142zm-22.679-7.023c-.287.102-.653.525-.946.52-.666.047-.573.696-.095.922.064.197.005.445.024.663.093.597-.284 1.078-.212 1.679-.034.659-.233 1.3-.261 1.963-.187.684-.189 1.386-.308 2.081-.078.623-.529.404-.922.237-.003-.27-.021-.534-.024-.804.164-.619-.333-.799-.827-.875-.52.048-.774-.396-.662-.852.223-.266.783-.192 1.135-.236.742.154.712-.842.331-1.183-.261-.481-.907-.688-1.088-1.182.072-.656-.363-1.312-.899-1.632-.823-.058-1.446.653-1.75 1.347-.343.099-.684.202-1.017.332-.537.134-1.302 1.065-.568 1.419.412.113 1.666.399 1.112.97-.312.535-.909.544-1.443.402-.547 0-1.157-.267-1.135-.899-.112-.568-.093-1.179-.355-1.703-.112-.635-.833-.487-.875.095-.555.404-.481 1.058-.095 1.537.241.552.003 1.194-.236 1.703-.145.662-.875.685-1.396.899-.255.099-1.232-.059-.875.496.57.201 1.251.382 1.845.237.623-.078 1.163-.503 1.466-1.041.418-.424 1.137-.202 1.679-.212.585-.002 1.183.41 1.751.141.164-.427.924-1.132 1.159-.402-.04.653.537 1.004 1.135.923.654-.038.412.462.402.851.043.707.499 1.078 1.088 1.372.2.054.412.035.615 0 .566-.178 1.176-.431 1.348-1.064.23-.516.235-1.099.402-1.632.135-.856.308-1.711.331-2.578.209-.786.149-1.617.308-2.413.1-.591.174-1.183.236-1.774-.069-.315-.205-.368-.378-.307zm-5.132 3.145c.115.014.178.155.189.403.012.275.157.5.332.543.138.035.126.181-.024.284-.088.06-.243.096-.521.095-.437-.002-.708-.116-.946-.355l-.141-.142.212-.142c.149-.117.293-.245.426-.378.216-.22.359-.322.473-.308zm49.975-5.961c-.429.02-.861.09-1.254.19-.787-.049-1.182.777-.426 1.182.455 1.162 1.166-.239 1.892-.142 1.088.212 1.18 1.387 1.349 2.271.061.875.313 1.726.567 2.554.728.81-.546 1.317-1.088.686-.463-.503-1.453-1.12-2.01-.426-.684.29-.712 1.204-1.277 1.466-.915.279-1.031-.846-1.514-1.324-.444-.624-1.295-.679-1.987-.899-.325-.657-.155-1.775-.828-2.223-.564.23-1.599 1.288-.733 1.774.846.727-.369 1.06-.757 1.561-.554.616-.642 1.465-.733 2.247-.953.526-1.139-.597-1.254-1.301-.074-.842-.784-.595-1.277-.284-.721.292-1.08.977-1.584 1.514-.061.49.028 1.026.024 1.537.163.614.909.326 1.371.284.741-.31 1.044.475.45.923-.403.511-1.68.244-1.561 1.064.412.048.84.032 1.253 0 .825-.226 1.712-.808 1.798-1.727.108-.801 1.262-.655 1.892-.828.787-.227 1.736-.285 1.916.71.536.564 1.701 1.199 2.294.425.601-.367.89-1.012.851-1.702-.123-.594.96-.616 1.23-.284.394.649 1.628.457 2.223.094.633-.467.77-1.29 1.68-1.301 1.348-.403 2.75-.636 4.067-1.135 1.067-.233-.158-.906-.425-1.301-.813-.402-1.52 1.243-2.436.426-.709-.542-.66-1.572-.923-2.365-.179-1.028-.134-2.212-.875-3.027-.509-.542-1.2-.672-1.916-.639h.001zm-5.156 7.167c.095-.002.202.045.378.142.331.183.568.486.568.733-.001.161-.042.172-.284.284-.15.069-.319.142-.379.142-.137-.002-.472-.27-.472-.379a1.853 1.853 0 00-.095-.355c-.089-.242-.075-.239.047-.402.078-.104.141-.163.236-.165h.001zm4.943.26c.281-.018.449.07.567.284.138.249.044.44-.307.591a1.673 1.673 0 01-.332.118 1.708 1.708 0 01-.283-.165c-.205-.135-.234-.2-.237-.355-.002-.238.265-.451.592-.473zm-6.765.071c.083-.013.158.03.261.118.136.117.179.211.212.449.024.166.02.38 0 .473-.037.171-.04.163-.425.165-.485.005-.53-.048-.521-.496.006-.286.009-.362.166-.521.121-.122.225-.176.307-.189v.001zm-4.162 1.088a.431.431 0 01.331.331c.049.24.006.35-.189.449-.169.086-.556.114-.663.047a.468.468 0 01-.141-.141c-.052-.092-.042-.137.023-.19.046-.037.095-.09.095-.118 0-.028.051-.123.118-.213a.412.412 0 01.426-.165zm7.001.899a.49.49 0 01.331.118c.14.123.135.303-.024.426-.103.079-.66.071-.851 0-.086-.033-.118-.075-.119-.166-.001-.107.029-.173.213-.26.155-.074.315-.118.45-.118zm-12.996 3.647c-.072-.048-.18-.089-.072-.168.131-.229.392-.308.624-.393.414-.18.772-.485 1.039-.847.038-.252.321-.388.32-.652.002-.359.023-.728-.064-1.079-.097-.322-.342-.57-.626-.737-.194-.153-.51-.195-.582-.465-.039-.259.192-.457.273-.688.169-.319.312-.654.493-.965.196-.218.499-.012.6.199.143.21.27.435.341.679.229.251.432.545.514.879.113.235.29.456.28.731 0 .315.178.596.167.913.01.424.01.866-.146 1.267-.106.222-.318.356-.459.555-.241.223-.507.438-.817.557-.219.07-.346.322-.62.26-.389.007-.785.06-1.171-.002.024.041-.118-.069-.095-.044h.001zm-5.185.34c-.183-.189-.223-.269-.225-.454-.002-.188.034-.262.214-.444.331-.334.494-.343 1.066-.053.547.277.732.302.781.106.047-.189.363-.362.661-.364a.625.625 0 01.449.154c.19.148.199.171.204.514.003.351-.002.364-.22.558-.21.185-.244.196-.504.17-.331-.034-.529-.185-.583-.445-.039-.19-.106-.235-.155-.106-.016.041-.098.092-.181.113-.154.039-.415.203-.601.378-.07.067-.193.098-.393.1-.269.002-.306-.014-.513-.227zm-15-6.735c-.503.005-1.045.428-1.112.922.115.569.588 1.127.284 1.726.21.767-.576 1.058-1.112.615-.323-.735-.487-1.54-.969-2.199-.609-.173-.875.8-1.301 1.135.211.572.829 1.084.898 1.798.148.692-.273 1.461-.875 1.821-.519.495-1.23.318-1.868.425-.775.454.569.619.922.639.793.081 1.616-.024 2.2-.615.582-.278.537-1.284 1.23-1.395 1.202-.054 2.393.184 3.595.213.643.153 1.637-.077 2.081.402.001.838.712 1.355 1.396 1.679.377.105.775-.363 1.158-.449.731-.233.508-1.137.946-1.49 1.249-.068 2.51-.054 3.761-.071.238.006.308-.333.473-.473-.027-.484-.045-.963-.118-1.443-.241-.61.039-1.396-.402-1.916-.629-.171-1.163.404-1.798.45-.701.312-1.291.959-1.324 1.75-.415.678-1.081-.121-.852-.686-.026-.246.053-.533-.023-.757-.384-.46-1.056-.31-1.585-.378-.771.03-1.523-.136-2.294-.119-.676-.051-1.379.059-2.034-.118-.781-.022-.674-.786-.804-1.324a.769.769 0 00-.473-.142zm1.514 2.79c.26.006.504.039.757.071.326.054.673-.112.993 0 .739.126 1.479.096 2.223.165.197-.002.338.14.473.261.002.517.001 1.043 0 1.561-.022.195.058.452-.118.591a.535.535 0 01-.189.095c-.205-.053-.422-.188-.52-.379-.032-.27.013-.533.024-.804-.006-.07.03-.179 0-.237a.947.947 0 00-.544-.189c-.643-.022-1.273-.069-1.916-.094-.535-.034-1.085.045-1.608-.095-.204-.074-.468-.049-.592-.26-.177-.206.079-.452.26-.544.241-.11.498-.147.757-.142zm8.537.189c.121-.002.159.038.213.26.035.143.076.316.095.379.028.089-.016.118-.142.165-.374.141-.746.127-.875-.047-.059-.079.01-.329.118-.426.22-.195.462-.33.591-.331z"/><path fill="#fff" fill-rule="nonzero" d="M265.7 222.609c.505.03-.682-2.7-.682-2.7 1.335 1.365 6.379 1.691 6.379 1.691-3.027-1.337-6.052-11.425-5.697-19.467.327-8.07-1.157-11.246-2.344-12.433-1.514-1.513-6.38-2.848-9.584-3.027-1.811-.089-1.514 1.365-1.514 1.365-3.353-.86-6.706-1.186-8.219-.178-1.426.951-1.722 5.698-.683 4.867 2.521-2.018 4.718-.178 6.231 2.018 1.334 1.929 1.246 7.388-.683 13.768-2.018 6.706-7.538 13.412-7.538 13.412 2.997 0 7.211-2.67 7.211-2.67l-1.008 4.184c3.174-1.514 5.697-3.857 5.697-3.857l3.027 3.174c1.009-1.335 3.027-3.174 3.027-3.174s2.522 2.671 6.379 3.027h.001z"/><path fill="#C09300" fill-rule="nonzero" d="M265.727 222.15c.21.012-1.127-2.05-1.129-2.056l-1.036-2.33 1.783 1.822c.776.793 3.036 1.207 4.57 1.403-1.177-1.349-2.269-3.723-3.098-6.556-1.09-3.723-1.755-8.276-1.576-12.319.138-3.402-.049-5.919-.399-7.776-.457-2.427-1.181-3.683-1.81-4.312-.662-.66-2.062-1.299-3.684-1.812-1.845-.582-3.952-.99-5.602-1.082-1.215-.058-1.036.814-1.036.816l.143.717-.709-.182c-1.759-.451-3.515-.753-4.988-.785-1.226-.027-2.24.131-2.862.545-.71.475-1.089 2.185-1.098 3.354-.002.249.014.468.047.636l.148-.105c1.204-.829 2.348-.893 3.394-.497.996.376 1.882 1.177 2.634 2.117.195.244.377.491.546.736.744 1.075 1.083 3.106.954 5.715-.119 2.402-.628 5.319-1.574 8.447-1.615 5.363-5.422 10.704-6.96 12.725 2.725-.463 5.937-2.498 5.947-2.504l.957-.601-1.039 4.309a25.723 25.723 0 004.704-3.332l.333-.306 2.975 3.121c1.085-1.301 2.736-2.805 2.741-2.81l.331-.314.317.329c.007.007 2.395 2.536 6.065 2.886l.011.001zm.16-1.181c.291.956.501 2.112-.187 2.1l-.042-.003c-3.201-.296-5.519-2.113-6.341-2.853-.605.57-1.917 1.842-2.657 2.82l-.326.433-3.095-3.246c-.799.69-2.929 2.422-5.472 3.635l-.871.415.982-4.074c-1.447.8-4.281 2.19-6.512 2.19h-.974l.62-.753c.015-.018 5.459-6.633 7.451-13.252.925-3.062 1.422-5.901 1.537-8.226.12-2.409-.161-4.238-.791-5.149-.166-.24-.336-.471-.507-.686-.659-.822-1.417-1.517-2.242-1.829-.773-.292-1.63-.238-2.547.394-.088.06-.178.127-.269.2-.283.226-.554.255-.808.128-.236-.118-.391-.37-.474-.713a3.888 3.888 0 01-.084-.907c.01-1.388.529-3.466 1.505-4.116.789-.525 1.984-.727 3.391-.697 1.388.029 3.001.284 4.633.674.101-.58.516-1.312 1.986-1.24h.004c1.726.096 3.919.519 5.828 1.121 1.75.553 3.285 1.268 4.057 2.039.732.734 1.565 2.149 2.064 4.795.361 1.916.554 4.502.413 7.983-.174 3.944.475 8.388 1.54 12.025 1.056 3.608 2.489 6.386 3.884 7.001l2.333 1.031-2.545-.15c-.012-.001-3.409-.222-5.484-1.09z"/><path fill="#C09300" fill-rule="nonzero" d="M253.922 203.358c-.005.036-1.712 12.582-4.985 16.222l-.713-.642c3.077-3.422 4.744-15.673 4.748-15.707l.95.127zm2.675-.363c-.002.036-.658 12.686-2.907 16.82l-.841-.458c2.143-3.938 2.79-16.379 2.791-16.414l.957.052zm2.371.481c0 .039 0 13.688.803 15.953l-.905.319c-.859-2.423-.859-16.232-.859-16.272h.961zm2.995.653c.002.032.676 11.441 3.449 15.514l-.792.541c-2.923-4.293-3.612-15.965-3.614-15.999l.957-.056zM250.39 197.27c-.149-1.097-.416-1.959-.802-2.523-1.514-2.195-3.708-4.035-6.231-2.017 0 0 .86-2.671 2.7-2.76 1.425-.089 4.658 1.068 7.508 5.934 0 0-2.107-.474-2.611-.029-.95.831-.564 1.395-.564 1.395z"/><path fill="#C09300" fill-rule="nonzero" d="M250.187 196.841a7.938 7.938 0 00-.24-1.002 3.858 3.858 0 00-.469-1.016c-.745-1.081-1.655-2.073-2.683-2.543-1.008-.462-2.141-.417-3.355.553l-.352.283.142-.428c.003-.008.888-2.756 2.819-2.852.855-.053 2.34.326 3.998 1.636 1.173.928 2.438 2.324 3.634 4.365l.158.27-.305-.072c-.005-.001-2.038-.461-2.491-.06-.402.351-.547.639-.587.847l.062.398.006.009v2.026l-.263-1.941a.817.817 0 01-.074-.473zm.015-1.083c.06.186.113.386.161.597.105-.177.265-.372.503-.58.427-.377 1.814-.174 2.431-.061-1.131-1.87-2.315-3.163-3.415-4.032-1.597-1.263-3.01-1.629-3.816-1.578-1.306.062-2.099 1.513-2.419 2.248 1.168-.776 2.267-.77 3.259-.315 1.078.493 2.023 1.52 2.792 2.634.199.29.367.656.504 1.087z"/><path fill="#C09300" fill-rule="nonzero" d="M243.094 189.437c.207-.683.534-1.306.949-1.573 1.514-1.009 4.867-.683 8.22.178 0 0-.297-1.454 1.514-1.364 3.204.177 8.07 1.513 9.583 3.026.356.386.772.95 1.128 1.81h-.059c-.742-1.039-2.849-.979-3.354-.92-.801.089-1.305.059-2.374.326-.504.119-1.276.267-1.691.593-.326.268-.594 1.247-1.098 1.247-.801 0-.742-.208-.95-.445-.267-.326-.415-.802-.682-.772-.831.149-2.166-.504-3.857-1.839-1.692-1.336-2.345-1.662-4.54-1.514-2.166.178-2.849 1.395-2.849 1.395l.06-.148z"/><path fill="#C09300" fill-rule="nonzero" d="M242.968 189.39c.112-.367.258-.718.433-1.008.164-.27.354-.491.569-.629.728-.486 1.86-.673 3.203-.644 1.469.031 3.2.321 4.938.757-.013-.432.127-1.398 1.672-1.322 1.7.094 3.861.511 5.747 1.107 1.705.539 3.193 1.226 3.925 1.959l.004.004c.181.196.379.44.577.745.197.302.395.666.576 1.104l.076.186-.328-.002-.04-.056c-.258-.36-.701-.58-1.179-.712-.822-.224-1.742-.188-2.051-.152-.227.025-.425.041-.617.056a9.2 9.2 0 00-1.74.267l-.175.04c-.482.11-1.12.257-1.466.528-.099.084-.206.268-.318.463-.223.387-.467.813-.862.813-.713 0-.819-.159-.959-.368-.028-.041-.057-.084-.091-.123l-.003-.003c-.093-.113-.171-.243-.245-.364-.12-.198-.226-.371-.32-.36-.439.075-1.001-.052-1.663-.368-.66-.315-1.43-.82-2.291-1.5-.834-.658-1.411-1.068-2.043-1.291-.629-.223-1.326-.266-2.404-.194-2.096.172-2.742 1.325-2.744 1.328l-.934 1.603.753-1.864zm.663-.869c-.085.14-.162.294-.232.459.44-.373 1.216-.82 2.473-.923 1.118-.076 1.846-.03 2.515.207.665.236 1.261.658 2.118 1.335.843.665 1.596 1.16 2.241 1.466.617.295 1.127.415 1.51.346l.009-.001c.263-.029.41.212.577.487.068.112.141.232.224.333.046.054.078.102.109.147.094.141.166.249.737.249.242 0 .445-.355.631-.677.124-.219.242-.425.382-.539.396-.311 1.066-.465 1.573-.581l.171-.039c.785-.196 1.269-.234 1.783-.275.194-.015.394-.03.608-.054.322-.038 1.287-.076 2.151.161.327.09.641.219.903.402a6.08 6.08 0 00-.302-.52 5.246 5.246 0 00-.547-.705c-.699-.7-2.148-1.365-3.815-1.892-1.868-.59-4.005-1.003-5.681-1.096-1.637-.08-1.375 1.201-1.375 1.205l.042.208-.206-.053c-1.781-.457-3.562-.763-5.062-.795-1.291-.028-2.37.146-3.05.6-.18.115-.344.307-.487.545z"/><circle fill="#fff" fill-rule="nonzero" cx="255.494" cy="190.505" r=".89"/><path fill="#fff" fill-rule="nonzero" d="M256.369 278.72c24.704-19.001 22.586-46.835 22.586-46.835a9.654 9.654 0 01-1.923.196c-5.182 0-17.542-2.965-20.425-6.73-3.089 3.408-15.72 6.73-20.869 6.73a9.411 9.411 0 01-1.923-.196s-2.151 27.834 22.554 46.835z"/><path fill="#C09300" fill-rule="nonzero" d="M256.369 278.168c22.376-17.406 22.322-42.032 22.177-45.77a9.754 9.754 0 01-1.514.118c-2.934 0-8.126-.934-12.639-2.421-3.343-1.102-6.334-2.519-7.812-4.105-1.615 1.489-4.841 2.926-8.381 4.067-4.535 1.463-9.618 2.459-12.462 2.459a9.952 9.952 0 01-1.516-.116c-.148 3.743-.226 28.364 22.147 45.768zm23.019-46.312c.006.081 2.136 28.064-22.754 47.207l-.119.092h-.292l-.12-.092c-24.89-19.144-22.727-47.126-22.722-47.207l.034-.499.488.103a9 9 0 001.835.185c2.768 0 7.743-.977 12.197-2.414 3.69-1.189 7.001-2.683 8.35-4.171l.35-.386.316.413c1.213 1.584 4.255 3.042 7.714 4.182 4.43 1.46 9.51 2.376 12.367 2.376a9.026 9.026 0 001.838-.187l.485-.096.033.494z"/><path fill="#C09300" fill-rule="nonzero" d="M276.654 233.593l.311-.015.02.344h.345l-.001.327c-.004.282-.013.604-.025.942a94.278 94.278 0 01-.086 1.82 53.813 53.813 0 01-.661 5.541 57.063 57.063 0 01-1.239 5.544c-1.566 5.667-3.948 10.911-7.084 15.652-3.146 4.755-7.052 9.006-11.653 12.67l-.216.172-.215-.172c-4.597-3.661-8.499-7.908-11.642-12.66-3.133-4.737-5.511-9.976-7.073-15.639a56.99 56.99 0 01-1.237-5.544 54.128 54.128 0 01-.74-7.094 32.98 32.98 0 01-.027-1.606l.005-.411.403.074c.093.017.191.032.294.043.092.01.187.016.286.016 2.492 0 6.899-.794 11.103-2.052 3.494-1.046 6.837-2.411 8.803-3.9l.222-.168.211.182c1.82 1.563 4.946 2.904 8.269 3.914 4.21 1.28 8.722 2.024 11.316 2.024l.311-.004zm-.017.692l-.294.005c-2.645 0-7.239-.756-11.516-2.056-3.282-.998-6.387-2.32-8.306-3.873-2.058 1.478-5.364 2.818-8.801 3.847-4.265 1.277-8.751 2.082-11.301 2.082-.097 0-.197-.005-.298-.015.002.391.012.788.027 1.181.02.51.05 1.032.083 1.536.12 1.823.34 3.652.65 5.467a56.338 56.338 0 001.221 5.476c1.542 5.591 3.89 10.765 6.982 15.441 3.054 4.616 6.834 8.75 11.281 12.328 4.452-3.58 8.236-7.718 11.292-12.339 3.097-4.68 5.449-9.857 6.994-15.453a56.434 56.434 0 001.224-5.477 53.29 53.29 0 00.653-5.465c.032-.58.064-1.228.086-1.804.011-.317.02-.618.023-.881z"/></svg>