<svg xmlns="http://www.w3.org/2000/svg" shape-rendering="geometricPrecision" text-rendering="geometricPrecision" image-rendering="optimizeQuality" fill-rule="evenodd" clip-rule="evenodd" viewBox="0 0 512 512"><g fill-rule="nonzero"><path fill="#4D4D4D" d="M256 0c70.684 0 134.689 28.664 181.012 74.987C483.336 121.311 512 185.316 512 256c0 70.684-28.664 134.689-74.988 181.013C390.689 483.336 326.684 512 256 512c-70.677 0-134.689-28.664-181.013-74.987C28.664 390.689 0 326.676 0 256c0-70.684 28.664-134.689 74.987-181.013C121.311 28.664 185.316 0 256 0z"/><path fill="#fff" d="M256.001 19.597c65.278 0 124.382 26.466 167.162 69.242 42.776 42.78 69.242 101.884 69.242 167.162S465.939 380.384 423.16 423.16c-42.777 42.78-101.881 69.246-167.159 69.246-65.278 0-124.382-26.466-167.162-69.243-42.777-42.779-69.243-101.884-69.243-167.162S46.062 131.619 88.839 88.839c42.78-42.776 101.884-69.242 167.162-69.242z"/><path d="M461.071 325.303c-28.892 85.529-109.79 147.105-205.07 147.105-95.284 0-176.178-61.576-205.07-147.105h410.14z"/><path fill="#CE1126" d="M451.394 162.882H60.608C95.416 89.97 169.819 39.594 256.001 39.594c86.179 0 160.585 50.376 195.393 123.288z"/><path fill="#007A3D" d="M124.084 293.881l32.354-99.577 32.355 99.577-84.707-61.542h104.702l-84.704 61.542zm199.151 0l32.355-99.577 32.355 99.577-84.707-61.542H407.94l-84.705 61.542z"/></g></svg>