<svg xmlns="http://www.w3.org/2000/svg" shape-rendering="geometricPrecision" text-rendering="geometricPrecision" image-rendering="optimizeQuality" fill-rule="evenodd" clip-rule="evenodd" viewBox="0 0 512 512"><path fill="#4D4D4D" fill-rule="nonzero" d="M256 0c70.684 0 134.689 28.664 181.012 74.987C483.336 121.311 512 185.316 512 256c0 70.684-28.664 134.689-74.988 181.013C390.689 483.336 326.684 512 256 512c-70.677 0-134.689-28.664-181.013-74.987C28.664 390.689 0 326.676 0 256c0-70.684 28.664-134.689 74.987-181.013C121.311 28.664 185.316 0 256 0z"/><path fill="#fff" fill-rule="nonzero" d="M256.001 19.597c65.278 0 124.382 26.466 167.162 69.242 42.776 42.78 69.242 101.884 69.242 167.162S465.939 380.384 423.16 423.16c-42.777 42.78-101.881 69.246-167.159 69.246-65.278 0-124.382-26.466-167.162-69.243-42.777-42.779-69.243-101.884-69.243-167.162S46.062 131.619 88.839 88.839c42.78-42.776 101.884-69.242 167.162-69.242z"/><path fill="#060" fill-rule="nonzero" d="M61.375 350.712h389.249c-35.128 72.05-109.073 121.696-194.623 121.696-85.553 0-159.498-49.646-194.626-121.696z"/><path fill="#fff" fill-rule="nonzero" d="M450.624 350.712H61.375c-13.946-28.606-21.781-60.744-21.781-94.711 0-33.568 7.646-65.348 21.285-93.701h390.244c13.639 28.353 21.285 60.133 21.285 93.701 0 33.967-7.838 66.105-21.784 94.711z"/><path fill="#C00" fill-rule="nonzero" d="M451.123 162.3H60.879C95.803 89.701 170.049 39.594 256.001 39.594c85.951 0 160.195 50.107 195.122 122.706z"/><path fill="#F8C300" fill-rule="nonzero" d="M238.427 250.454a7.853 7.853 0 0114.634 3.708v18.858-.003c-1.104 12.302-11.419 21.731-23.768 21.731a23.877 23.877 0 01-16.329-6.459 24.816 24.816 0 01-23.044 15.629 24.812 24.812 0 01-14.468-4.659c2.291 22.876 36.583 18.206 39.139-4.039 10.77 18.909 34.452 13.498 41.389-9.656h.065c6.938 23.154 30.62 28.565 41.389 9.656 2.557 22.245 36.849 26.915 39.14 4.039a24.818 24.818 0 01-14.469 4.659 24.816 24.816 0 01-23.044-15.629 23.877 23.877 0 01-16.328 6.459c-12.349 0-22.664-9.429-23.768-21.731v-18.855a7.851 7.851 0 0114.634-3.705 18.59 18.59 0 00.941-5.833c0-10.232-8.298-18.528-18.527-18.528-10.229 0-18.528 8.296-18.528 18.528 0 1.98.322 3.953.942 5.83zm-85.273 19.833h29.867l-24.16 17.553 9.228-28.403 9.228 28.403-24.163-17.553zm87.927-87.927h29.864l-24.161 17.556 9.229-28.405 9.228 28.405-24.16-17.556zm73.827 11.782h-29.867l24.163 17.554-9.228-28.403-9.229 28.403 24.161-17.554zm43.963 76.145h-29.866l24.16 17.553-9.229-28.403-9.228 28.403 24.163-17.553zm-11.782-43.963h-29.864l24.161 17.553-9.229-28.403-9.228 28.403 24.16-17.553zm-149.971-32.182h29.866l-24.163 17.554 9.228-28.403 9.229 28.403-24.16-17.554zm-32.182 32.182H194.8l-24.16 17.553 9.228-28.403 9.228 28.403-24.16-17.553zm65.228 87.318c-4.786 10.329-14.348 12.104-22.714 3.764 0 0 3.362-2.374 6.964-3.029-.676-2.872.709-6.849 2.66-8.998 2.046 1.399 4.9 4.201 5.627 7.46 5.042-.656 7.463.803 7.463.803zm-36.483 18.235a218.68 218.68 0 0130.856-6.801 218.52 218.52 0 0131.476-2.291c10.504 0 21.022.77 31.467 2.288a219.638 219.638 0 0130.87 6.793l-2.828 9.615a209.505 209.505 0 00-29.457-6.477 208.75 208.75 0 00-30.052-2.17 208.614 208.614 0 00-59.506 8.658l-2.826-9.615zm111.033-14.465c-7.849 8.245-17.477 6.852-22.72-3.732 0 0 3.95-1.169 7.57-.631.283-2.938 2.869-6.256 5.408-7.664 1.488 1.981 3.292 5.55 2.935 8.868 4.983 1.001 6.807 3.159 6.807 3.159zm-37.12-4.939c-6.403 9.411-16.128 9.606-23.024.018 0 0 3.705-1.798 7.363-1.857-.198-2.947 1.816-6.64 4.089-8.443 1.791 1.712 4.153 4.941 4.339 8.272 5.081.176 7.233 2.01 7.233 2.01z"/><path fill="#fff" fill-rule="nonzero" d="M242.637 242.259a12.56 12.56 0 0113.376 5.999 12.56 12.56 0 0113.376-5.999 13.502 13.502 0 00-26.752 0zm0 0l13.364-202.665-13.364 202.665z"/></svg>