<svg xmlns="http://www.w3.org/2000/svg" shape-rendering="geometricPrecision" text-rendering="geometricPrecision" image-rendering="optimizeQuality" fill-rule="evenodd" clip-rule="evenodd" viewBox="0 0 512 512"><path fill="#4D4D4D" fill-rule="nonzero" d="M256 0c70.683 0 134.689 28.664 181.013 74.987C483.336 121.311 512 185.316 512 256c0 70.683-28.664 134.689-74.987 181.013C390.689 483.336 326.683 512 256 512c-70.676 0-134.689-28.664-181.013-74.987C28.664 390.689 0 326.676 0 256c0-70.684 28.664-134.689 74.987-181.013C121.311 28.664 185.316 0 256 0z"/><path fill="#fff" fill-rule="nonzero" d="M256.001 19.597c65.278 0 124.383 26.465 167.162 69.242 42.777 42.779 69.243 101.885 69.243 167.162 0 65.278-26.466 124.383-69.246 167.159-42.776 42.78-101.881 69.246-167.159 69.246-65.278 0-124.383-26.466-167.162-69.243-42.777-42.779-69.242-101.884-69.242-167.162 0-65.277 26.465-124.383 69.242-167.162 42.779-42.777 101.884-69.242 167.162-69.242z"/><path fill="#002B7F" d="M256 39.599c119.515 0 216.401 96.886 216.401 216.401 0 119.515-96.886 216.401-216.401 216.401-119.515 0-216.401-96.886-216.401-216.401 0-119.515 96.886-216.401 216.401-216.401z"/><path fill="#CE1126" d="M256 256h216.401c0 119.515-96.886 216.401-216.401 216.401-119.515 0-216.401-96.886-216.401-216.401H256z"/><path fill="#FFD83D" fill-rule="nonzero" d="M162.102 146.201l-1.319 44.851h-45.511c-5.599-10.885-10.223-20.13-10.223-32.649 0-10.477 8.24-18.798 20.117-18.798 12.572 0 26.386 4.237 36.936 6.596zM110.49 148.262v25.889-25.889zm0 0z"/><path fill-rule="nonzero" d="M109.951 148.262a.54.54 0 011.077 0v25.889a.538.538 0 01-1.077 0v-25.889z"/><path fill="#FFD83D" fill-rule="nonzero" d="M114.146 145.62v34.471-34.471zm0 0z"/><path fill-rule="nonzero" d="M113.607 145.619a.538.538 0 011.076 0v34.472a.538.538 0 01-1.076 0v-34.472z"/><path fill="#FFD83D" fill-rule="nonzero" d="M117.8 143.807v41.065-41.065zm0 0z"/><path fill-rule="nonzero" d="M117.262 143.807a.539.539 0 011.077 0v41.066a.54.54 0 01-1.077 0v-41.066z"/><path fill="#FFD83D" fill-rule="nonzero" d="M121.456 142.959v32.208-32.208zm0 0z"/><path fill-rule="nonzero" d="M120.917 142.959a.538.538 0 011.077 0v32.208a.538.538 0 11-1.077 0v-32.208z"/><path fill="#FFD83D" fill-rule="nonzero" d="M125.111 142.799v32.527-32.527zm0 0z"/><path fill-rule="nonzero" d="M124.573 142.799a.539.539 0 011.076 0v32.527a.538.538 0 11-1.076 0v-32.527z"/><path fill="#FFD83D" fill-rule="nonzero" d="M128.766 141.663v33.645-33.645zm0 0z"/><path fill-rule="nonzero" d="M128.228 141.663a.538.538 0 111.076 0v33.645a.539.539 0 01-1.076 0v-33.645z"/><path fill="#FFD83D" fill-rule="nonzero" d="M132.421 141.663v33.645-33.645zm0 0z"/><path fill-rule="nonzero" d="M131.883 141.663a.538.538 0 011.077 0v33.645a.54.54 0 01-1.077 0v-33.645z"/><path fill="#FFD83D" fill-rule="nonzero" d="M136.076 141.992v33.646-33.646zm0 0z"/><path fill-rule="nonzero" d="M135.538 141.992a.538.538 0 011.077 0v33.646a.538.538 0 01-1.077 0v-33.646z"/><path fill="#FFD83D" fill-rule="nonzero" d="M139.732 142.322v33.646-33.646zm0 0z"/><path fill-rule="nonzero" d="M139.193 142.322a.54.54 0 011.077 0v33.647a.538.538 0 01-1.077 0v-33.647z"/><path fill="#FFD83D" fill-rule="nonzero" d="M143.387 144.466v33.646-33.646zm0 0z"/><path fill-rule="nonzero" d="M142.848 144.466a.54.54 0 011.077 0v33.646a.538.538 0 11-1.077 0v-33.646z"/><path fill="#FFD83D" fill-rule="nonzero" d="M147.042 144.796v37.933-37.933zm0 0z"/><path fill-rule="nonzero" d="M146.504 144.795a.538.538 0 011.076 0v37.934a.538.538 0 11-1.076 0v-37.934z"/><path fill="#FFD83D" fill-rule="nonzero" d="M150.697 144.796v33.646-33.646zm0 0z"/><path fill-rule="nonzero" d="M150.159 144.795a.538.538 0 011.077 0v33.647a.54.54 0 01-1.077 0v-33.647z"/><path fill="#FFD83D" fill-rule="nonzero" d="M154.352 144.796v33.646-33.646zm0 0z"/><path fill-rule="nonzero" d="M153.814 144.795a.538.538 0 011.077 0v33.647a.54.54 0 01-1.077 0v-33.647z"/><path fill-rule="nonzero" d="M133.41 143.068c7.724 1.274 24.691 9.212 22.756 19.952-2.742 15.22-11.631 9.112-23.415 6.926l-8.905 2.968c-3.185 3.252-7.878 6.232-11.047 2.309h-5.277v20.612h58.373v-49.799l-32.485-2.968z"/><path fill-rule="nonzero" d="M133.6 143.646l-.279-.048a.537.537 0 01.138-1.064l32.436 2.964a.539.539 0 01.537.539v49.797c0 .297-.24.538-.538.538h-58.372a.538.538 0 01-.539-.538v-20.612c0-.297.241-.538.539-.538h5.277a.54.54 0 01.419.202c.145.18.294.344.446.493 1.125 1.102 2.433 1.346 3.77 1.066 1.413-.296 2.874-1.166 4.211-2.246a21.198 21.198 0 001.818-1.661.537.537 0 01.215-.132l8.878-2.959a.52.52 0 01.291-.028c2.278.422 4.442.988 6.474 1.52 1.845.483 3.583.937 5.176 1.225 5.509.992 9.477-.053 11.135-9.209l.028-.17c.826-5.022-2.736-9.438-7.449-12.776-4.787-3.39-10.738-5.66-14.585-6.359l-.026-.004zm5.617.491c3.142 1.165 6.603 2.866 9.612 4.998 5.017 3.553 8.8 8.312 7.891 13.826l-.035.192c-1.818 10.039-6.236 11.172-12.377 10.066-1.643-.296-3.396-.754-5.256-1.241-1.974-.516-4.073-1.066-6.265-1.479l-8.648 2.883a22.348 22.348 0 01-1.821 1.654c-1.454 1.174-3.066 2.125-4.665 2.461-1.676.351-3.32.04-4.742-1.353a6.676 6.676 0 01-.361-.384h-4.49v19.536h57.296v-48.77l-26.139-2.389z"/><circle fill="#FFD83D" fill-rule="nonzero" cx="159.546" cy="139.523" r="3.545"/><path fill-rule="nonzero" d="M162.374 139.522c0-.78-.316-1.487-.828-1.998a2.819 2.819 0 00-1.999-.828 2.82 2.82 0 00-2.828 2.826 2.825 2.825 0 002.828 2.829 2.82 2.82 0 002.827-2.829zm.187-3.013a4.249 4.249 0 011.248 3.013 4.247 4.247 0 01-1.248 3.012 4.252 4.252 0 01-3.014 1.252 4.25 4.25 0 01-3.015-1.249 4.252 4.252 0 01-1.248-3.015c0-1.175.478-2.24 1.251-3.013a4.248 4.248 0 013.012-1.248 4.25 4.25 0 013.014 1.248z"/><circle fill="#FFD83D" fill-rule="nonzero" cx="151.579" cy="137.605" r="3.545"/><path fill-rule="nonzero" d="M154.406 137.606c0-.781-.317-1.489-.828-2l-.033-.036a2.819 2.819 0 00-1.965-.793c-.781 0-1.489.317-2.001.829a2.821 2.821 0 00-.828 2 2.821 2.821 0 002.829 2.826c.782 0 1.489-.315 1.998-.825v-.003a2.814 2.814 0 00.828-1.998zm.187-3.015a4.25 4.25 0 011.248 3.015 4.258 4.258 0 01-7.274 3.013 4.247 4.247 0 01-1.251-3.013c0-1.178.477-2.244 1.249-3.015a4.253 4.253 0 015.983-.041l.045.041z"/><circle fill="#FFD83D" fill-rule="nonzero" cx="143.496" cy="135.575" r="3.545"/><path fill-rule="nonzero" d="M146.325 135.576c0-.781-.318-1.488-.829-2a2.817 2.817 0 00-2-.828 2.824 2.824 0 00-2.826 2.828c0 .78.316 1.488.827 1.999l.033.035c.508.49 1.201.793 1.966.793a2.827 2.827 0 002.829-2.827zm.186-3.015a4.253 4.253 0 011.249 3.015 4.25 4.25 0 01-1.252 3.013 4.247 4.247 0 01-3.012 1.249 4.247 4.247 0 01-2.969-1.207l-.045-.041a4.251 4.251 0 01-1.248-3.014c0-1.176.477-2.241 1.248-3.012a4.25 4.25 0 013.014-1.251c1.177 0 2.243.477 3.015 1.248z"/><circle fill="#FFD83D" fill-rule="nonzero" cx="135.382" cy="134.222" r="3.545"/><path fill-rule="nonzero" d="M138.209 134.222a2.822 2.822 0 00-2.826-2.829c-.781 0-1.489.317-2 .829a2.817 2.817 0 00-.828 2c0 .781.316 1.488.828 2a2.821 2.821 0 002 .828c.782 0 1.489-.316 1.998-.826v-.003a2.815 2.815 0 00.828-1.999zm.188-3.012a4.25 4.25 0 011.248 3.012 4.265 4.265 0 01-8.526 0c0-1.178.477-2.244 1.249-3.015a4.255 4.255 0 016.029.003z"/><circle fill="#FFD83D" fill-rule="nonzero" cx="127.268" cy="133.422" r="3.545"/><path fill-rule="nonzero" d="M130.096 133.422a2.823 2.823 0 00-2.828-2.828 2.822 2.822 0 00-2.827 2.828c0 .781.317 1.488.828 1.999l.033.035c.508.49 1.201.793 1.966.793a2.821 2.821 0 002.828-2.827zm.187-3.015a4.254 4.254 0 011.248 3.015 4.246 4.246 0 01-1.249 3.014h-.003a4.246 4.246 0 01-3.011 1.248 4.245 4.245 0 01-2.969-1.207l-.045-.041a4.25 4.25 0 01-1.248-3.014c0-1.175.477-2.241 1.248-3.012a4.25 4.25 0 013.014-1.251c1.177 0 2.243.477 3.015 1.248z"/><circle fill="#FFD83D" fill-rule="nonzero" cx="119.312" cy="133.875" r="3.545"/><path fill-rule="nonzero" d="M122.14 133.874a2.821 2.821 0 00-2.828-2.827c-.781 0-1.488.317-1.999.828l-.035.033a2.817 2.817 0 00-.793 1.966 2.825 2.825 0 004.827 2 2.823 2.823 0 00.828-2zm.183-3.013a4.245 4.245 0 011.252 3.013 4.249 4.249 0 01-1.249 3.015 4.25 4.25 0 01-3.014 1.249 4.246 4.246 0 01-3.014-1.252 4.247 4.247 0 01-1.248-3.012c0-1.152.46-2.199 1.207-2.969l.041-.045a4.252 4.252 0 013.014-1.248c1.175 0 2.24.478 3.011 1.249z"/><circle fill="#FFD83D" fill-rule="nonzero" cx="111.727" cy="136.472" r="3.545"/><path fill-rule="nonzero" d="M114.555 136.471c0-.781-.316-1.488-.826-1.998h-.003a2.82 2.82 0 00-1.999-.828c-.781 0-1.488.317-1.999.828l-.036.033c-.49.507-.792 1.2-.792 1.965a2.825 2.825 0 004.826 2 2.818 2.818 0 00.829-2zm.185-3.012a4.257 4.257 0 01.001 6.028 4.25 4.25 0 01-3.014 1.248 4.247 4.247 0 01-3.014-1.251 4.252 4.252 0 01-.041-5.981l.041-.045a4.249 4.249 0 013.014-1.249c1.177 0 2.243.478 3.013 1.25z"/><circle fill="#FFD83D" fill-rule="nonzero" cx="105.337" cy="141.172" r="3.545"/><path fill-rule="nonzero" d="M108.165 141.171c0-.78-.317-1.487-.829-1.998l-.032-.035a2.823 2.823 0 00-1.967-.793c-.781 0-1.488.317-1.999.828l-.036.033c-.49.507-.792 1.2-.792 1.965a2.82 2.82 0 002.827 2.829c.78 0 1.488-.317 2-.829a2.821 2.821 0 00.828-2zm.186-3.013a4.246 4.246 0 011.249 3.013 4.249 4.249 0 01-1.249 3.015 4.25 4.25 0 01-3.014 1.249 4.252 4.252 0 01-3.014-1.252 4.25 4.25 0 01-.041-5.98l.041-.045a4.25 4.25 0 013.014-1.249c1.154 0 2.202.461 2.97 1.208l.044.041z"/><circle fill="#FFD83D" fill-rule="nonzero" cx="100.803" cy="147.726" r="3.545"/><path fill-rule="nonzero" d="M103.63 147.727c0-.781-.316-1.489-.828-2a2.817 2.817 0 00-2-.828 2.824 2.824 0 00-2.826 2.828c0 .782.315 1.489.825 1.999h.003a2.816 2.816 0 001.998.827c.781 0 1.489-.316 2-.828l.036-.033c.49-.507.792-1.2.792-1.965zm.187-3.015a4.249 4.249 0 011.249 3.015c0 1.152-.46 2.199-1.208 2.969l-.041.045a4.25 4.25 0 01-3.015 1.248 4.263 4.263 0 113.015-7.277z"/><circle fill="#FFD83D" fill-rule="nonzero" cx="98.618" cy="155.435" r="3.545"/><path fill-rule="nonzero" d="M101.446 155.435a2.827 2.827 0 00-4.827-1.999l-.036.033a2.82 2.82 0 00-.793 1.966 2.821 2.821 0 002.827 2.828c.781 0 1.489-.317 2-.829a2.816 2.816 0 00.829-1.999zm.183-3.014a4.255 4.255 0 01.003 6.029 4.252 4.252 0 01-3.015 1.248 4.254 4.254 0 01-3.014-1.252 4.246 4.246 0 01-1.248-3.011c0-1.152.46-2.2 1.208-2.969l.041-.045a4.249 4.249 0 013.013-1.248 4.25 4.25 0 013.012 1.248z"/><circle fill="#FFD83D" fill-rule="nonzero" cx="98.7" cy="163.433" r="3.545"/><path fill-rule="nonzero" d="M101.528 163.432a2.82 2.82 0 00-.829-1.999l-.032-.035a2.825 2.825 0 00-1.967-.792 2.822 2.822 0 00-2.827 2.826c0 .781.317 1.489.828 2l.033.036c.507.49 1.2.792 1.966.792.781 0 1.488-.316 2-.828a2.817 2.817 0 00.828-2zm.187-3.014a4.253 4.253 0 011.248 3.014 4.252 4.252 0 01-1.248 3.015 4.255 4.255 0 01-5.984.041l-.045-.041a4.25 4.25 0 01-1.248-3.015 4.25 4.25 0 011.248-3.014 4.25 4.25 0 013.014-1.248c1.154 0 2.202.461 2.97 1.208l.045.04z"/><circle fill="#FFD83D" fill-rule="nonzero" cx="100.225" cy="171.265" r="3.545"/><path fill-rule="nonzero" d="M103.053 171.266a2.825 2.825 0 00-4.827-2 2.821 2.821 0 00-.828 2c0 .782.316 1.488.825 1.998h.003a2.819 2.819 0 002 .828c.782 0 1.489-.316 1.998-.825l.004-.003c.509-.51.825-1.216.825-1.998zm.187-3.012a4.247 4.247 0 011.248 3.012 4.25 4.25 0 01-1.247 3.008l-.003.003a4.252 4.252 0 01-3.012 1.251 4.26 4.26 0 01-3.015-7.277 4.25 4.25 0 013.015-1.249c1.175 0 2.241.479 3.014 1.252z"/><path fill="#FFD83D" fill-rule="nonzero" d="M161.113 144.222l-.33 4.617c-8.821-1.351-21.324-6.266-32.979-6.266-10.769 0-19.128 4.308-19.128 15.171 0 10.706 4.534 20.441 10.553 30.34l-6.266 2.968c-5.599-10.885-10.223-20.13-10.223-32.649 0-10.477 8.241-20.777 22.426-20.777 12.572 0 25.396 4.237 35.947 6.596z"/><path fill-rule="nonzero" d="M161.827 144.273l-.33 4.617a.717.717 0 01-.765.665l-.057-.007c-3.17-.485-6.818-1.429-10.731-2.443-6.942-1.797-14.732-3.814-22.14-3.814-5.549 0-10.422 1.16-13.752 3.802-2.909 2.307-4.657 5.783-4.657 10.651 0 5.263 1.115 10.291 2.971 15.221 1.867 4.961 4.485 9.832 7.474 14.747a.716.716 0 01-.238.984l-.067.036-6.266 2.969a.717.717 0 01-.953-.341c-2.808-5.46-5.372-10.51-7.239-15.781-1.882-5.31-3.054-10.828-3.054-17.176a21.157 21.157 0 016.785-15.48c3.931-3.642 9.469-6.014 16.358-6.014 9.666 0 19.44 2.473 28.237 4.698 2.759.698 5.423 1.372 7.864 1.917a.717.717 0 01.56.749zm-1.704 3.733l.232-3.222c-2.385-.544-4.802-1.155-7.299-1.787-8.714-2.203-18.394-4.652-27.89-4.652-6.504 0-11.709 2.218-15.388 5.626a19.728 19.728 0 00-6.32 14.432c0 6.171 1.14 11.536 2.97 16.699 1.772 4.999 4.193 9.824 6.855 15.007l4.923-2.332c-2.859-4.754-5.363-9.481-7.18-14.308-1.915-5.089-3.066-10.282-3.066-15.725 0-5.351 1.951-9.195 5.201-11.773 3.605-2.859 8.787-4.115 14.643-4.115 7.572 0 15.465 2.044 22.499 3.865 3.547.918 6.873 1.779 9.82 2.285z"/><path fill="#FFD83D" fill-rule="nonzero" d="M170.127 146.201l1.32 44.851h45.511c5.599-10.885 10.223-20.13 10.223-32.649 0-10.477-8.241-18.798-20.117-18.798-12.572 0-26.386 4.237-36.937 6.596zM221.74 148.262v25.889-25.889zm0 0z"/><path fill-rule="nonzero" d="M221.023 148.262a.717.717 0 111.435 0v25.889a.718.718 0 01-1.435 0v-25.889z"/><path fill="#FFD83D" fill-rule="nonzero" d="M218.084 145.62v34.471-34.471zm0 0z"/><path fill-rule="nonzero" d="M217.367 145.619a.718.718 0 011.436 0v34.472a.717.717 0 01-1.436 0v-34.472z"/><path fill="#FFD83D" fill-rule="nonzero" d="M214.429 143.807v41.065-41.065zm0 0z"/><path fill-rule="nonzero" d="M213.713 143.807a.718.718 0 111.435 0v41.066a.718.718 0 01-1.435 0v-41.066z"/><path fill="#FFD83D" fill-rule="nonzero" d="M210.774 142.959v32.208-32.208zm0 0z"/><path fill-rule="nonzero" d="M210.057 142.959a.719.719 0 011.436 0v32.208a.718.718 0 01-1.436 0v-32.208z"/><path fill="#FFD83D" fill-rule="nonzero" d="M207.119 142.799v32.527-32.527zm0 0z"/><path fill-rule="nonzero" d="M206.402 142.799a.718.718 0 011.435 0v32.527a.717.717 0 11-1.435 0v-32.527z"/><path fill="#FFD83D" fill-rule="nonzero" d="M203.464 141.663v33.645-33.645zm0 0z"/><path fill-rule="nonzero" d="M202.747 141.663a.718.718 0 111.435 0v33.645a.719.719 0 01-1.435 0v-33.645z"/><path fill="#FFD83D" fill-rule="nonzero" d="M199.809 141.663v33.645-33.645zm0 0z"/><path fill-rule="nonzero" d="M199.092 141.663a.718.718 0 111.435 0v33.645a.718.718 0 01-1.435 0v-33.645z"/><path fill="#FFD83D" fill-rule="nonzero" d="M196.153 141.992v33.646-33.646zm0 0z"/><path fill-rule="nonzero" d="M195.436 141.992a.718.718 0 011.436 0v33.646a.718.718 0 01-1.436 0v-33.646z"/><path fill="#FFD83D" fill-rule="nonzero" d="M192.498 142.322v33.646-33.646zm0 0z"/><path fill-rule="nonzero" d="M191.781 142.322a.718.718 0 011.435 0v33.647a.717.717 0 11-1.435 0v-33.647z"/><path fill="#FFD83D" fill-rule="nonzero" d="M188.843 144.466v33.646-33.646zm0 0z"/><path fill-rule="nonzero" d="M188.126 144.466a.718.718 0 011.435 0v33.646a.717.717 0 11-1.435 0v-33.646z"/><path fill="#FFD83D" fill-rule="nonzero" d="M185.188 144.796v37.933-37.933zm0 0z"/><path fill-rule="nonzero" d="M184.471 144.795a.717.717 0 111.435 0v37.934a.717.717 0 11-1.435 0v-37.934z"/><path fill="#FFD83D" fill-rule="nonzero" d="M181.533 144.796v33.646-33.646zm0 0z"/><path fill-rule="nonzero" d="M180.815 144.795a.718.718 0 011.436 0v33.647a.719.719 0 01-1.436 0v-33.647z"/><path fill="#FFD83D" fill-rule="nonzero" d="M177.878 144.796v33.646-33.646zm0 0z"/><path fill-rule="nonzero" d="M177.16 144.795a.718.718 0 011.435 0v33.647a.718.718 0 11-1.435 0v-33.647z"/><path fill-rule="nonzero" d="M198.819 143.068c-7.724 1.274-24.69 9.212-22.755 19.952 2.742 15.22 11.631 9.112 23.415 6.926l8.904 2.968c3.186 3.252 7.878 6.232 11.048 2.309h5.277v20.612h-58.373v-49.799l32.484-2.968z"/><path fill-rule="nonzero" d="M198.94 143.774l-.321.055c-3.828.699-9.74 2.957-14.498 6.326-4.662 3.302-8.187 7.661-7.376 12.6l.031.186c1.634 8.993 5.526 10.02 10.928 9.046 1.582-.285 3.317-.739 5.159-1.221 2.035-.532 4.2-1.099 6.488-1.523a.707.707 0 01.386.036l8.87 2.957a.705.705 0 01.285.178 21.44 21.44 0 001.802 1.643c1.318 1.065 2.756 1.923 4.138 2.213 1.281.269 2.534.035 3.61-1.02.146-.143.29-.302.431-.476a.716.716 0 01.558-.268l5.276-.002c.396 0 .718.322.718.718v20.612a.719.719 0 01-.718.718h-58.372a.718.718 0 01-.718-.718v-49.797c0-.396.32-.716.715-.718l32.423-2.963a.715.715 0 01.185 1.418zm-15.642 5.215c2.646-1.874 5.64-3.417 8.464-4.558l-24.71 2.258v48.427h56.937V175.94h-4.228a7.129 7.129 0 01-.315.33c-1.472 1.442-3.173 1.765-4.905 1.401-1.632-.342-3.271-1.307-4.744-2.498a22.217 22.217 0 01-1.805-1.636l-8.561-2.854c-2.167.411-4.249.955-6.209 1.468-1.86.487-3.613.946-5.265 1.243-6.245 1.126-10.737-.02-12.586-10.191-.012-.053-.039-.166-.039-.213-.922-5.596 2.898-10.412 7.966-14.001z"/><circle fill="#FFD83D" fill-rule="nonzero" cx="172.683" cy="139.523" r="3.545"/><path fill-rule="nonzero" d="M168.421 139.522c0-1.177.477-2.243 1.248-3.013a4.25 4.25 0 013.014-1.248c1.175 0 2.241.477 3.012 1.248a4.25 4.25 0 011.252 3.013 4.253 4.253 0 01-1.249 3.015 4.249 4.249 0 01-3.015 1.249 4.247 4.247 0 01-3.013-1.251 4.247 4.247 0 01-1.249-3.013zm2.263-1.999a2.82 2.82 0 00-.827 1.999c0 .784.316 1.492.827 2.004.51.51 1.216.825 1.999.825a2.823 2.823 0 002.828-2.829 2.825 2.825 0 00-2.828-2.826c-.781 0-1.488.317-1.999.827z"/><circle fill="#FFD83D" fill-rule="nonzero" cx="180.651" cy="137.605" r="3.545"/><path fill-rule="nonzero" d="M176.389 137.606c0-1.176.477-2.241 1.248-3.012a4.255 4.255 0 016.029-.003 4.25 4.25 0 011.248 3.015 4.247 4.247 0 01-1.251 3.013 4.248 4.248 0 01-3.012 1.248 4.251 4.251 0 01-3.014-1.247l-.041-.045a4.245 4.245 0 01-1.207-2.969zm2.263-2.004a2.825 2.825 0 00-.828 2.004c0 .764.302 1.458.793 1.966l.035.033a2.818 2.818 0 001.999.827 2.817 2.817 0 002.828-2.826c0-.781-.317-1.489-.828-2a2.82 2.82 0 00-2-.829c-.783 0-1.49.316-1.999.825z"/><circle fill="#FFD83D" fill-rule="nonzero" cx="188.734" cy="135.575" r="3.545"/><path fill-rule="nonzero" d="M184.471 135.576c0-1.177.477-2.244 1.248-3.015a4.254 4.254 0 013.015-1.248c1.174 0 2.239.478 3.012 1.25a4.237 4.237 0 011.25 3.013 4.25 4.25 0 01-1.248 3.01l-.003.003a4.255 4.255 0 01-6.023 0 4.249 4.249 0 01-1.251-3.013zm2.263-2a2.823 2.823 0 00-.828 2 2.824 2.824 0 002.828 2.827c.782 0 1.489-.316 1.999-.826l.003-.003c.51-.509.825-1.216.825-1.998 0-.781-.317-1.488-.828-1.999v-.004a2.82 2.82 0 00-1.999-.825 2.82 2.82 0 00-2 .828z"/><circle fill="#FFD83D" fill-rule="nonzero" cx="196.848" cy="134.222" r="3.545"/><path fill-rule="nonzero" d="M192.584 134.222c0-1.177.478-2.244 1.249-3.015a4.253 4.253 0 013.015-1.249c1.175 0 2.241.478 3.013 1.252a4.248 4.248 0 011.249 3.012 4.25 4.25 0 01-1.249 3.012 4.247 4.247 0 01-3.013 1.251 4.252 4.252 0 01-3.015-1.248 4.255 4.255 0 01-1.249-3.015zm2.264-2a2.818 2.818 0 00-.829 2c0 .781.317 1.488.829 2a2.821 2.821 0 002 .828 2.817 2.817 0 002.826-2.828 2.824 2.824 0 00-4.826-2z"/><circle fill="#FFD83D" fill-rule="nonzero" cx="204.962" cy="133.422" r="3.545"/><path fill-rule="nonzero" d="M200.699 133.422a4.25 4.25 0 011.248-3.012 4.25 4.25 0 013.014-1.251c1.177 0 2.243.477 3.015 1.248a4.254 4.254 0 011.248 3.015 4.251 4.251 0 01-1.25 3.012 4.239 4.239 0 01-3.013 1.25 4.25 4.25 0 01-3.011-1.248h-.003a4.25 4.25 0 01-1.248-3.014zm2.263-2.002a2.824 2.824 0 00-.828 2.002c0 .78.317 1.488.828 1.999.51.512 1.218.828 1.999.828.781 0 1.488-.317 1.999-.828h.003c.51-.51.826-1.217.826-1.999a2.823 2.823 0 00-2.828-2.828c-.782 0-1.489.316-1.999.826z"/><circle fill="#FFD83D" fill-rule="nonzero" cx="212.918" cy="133.875" r="3.545"/><path fill-rule="nonzero" d="M208.655 133.874a4.25 4.25 0 011.249-3.013l.045-.041a4.251 4.251 0 015.98.041 4.254 4.254 0 01.003 6.028 4.253 4.253 0 01-3.015 1.249 4.251 4.251 0 01-3.013-1.252 4.251 4.251 0 01-1.249-3.012zm2.263-1.998a2.818 2.818 0 00-.827 1.998 2.826 2.826 0 105.654 0 2.821 2.821 0 00-2.828-2.827c-.765 0-1.459.303-1.965.793l-.034.036z"/><circle fill="#FFD83D" fill-rule="nonzero" cx="220.503" cy="136.472" r="3.545"/><path fill-rule="nonzero" d="M216.24 136.471a4.25 4.25 0 011.249-3.013l.044-.041a4.248 4.248 0 012.97-1.208 4.25 4.25 0 013.014 1.249l.041.045a4.25 4.25 0 011.208 2.968 4.251 4.251 0 01-1.249 3.016 4.25 4.25 0 01-3.014 1.248 4.25 4.25 0 01-3.014-1.252 4.248 4.248 0 01-1.249-3.012zm2.264-1.998a2.821 2.821 0 00-.829 1.998 2.822 2.822 0 002.828 2.829c.78 0 1.488-.317 1.999-.829a2.817 2.817 0 00.828-2c0-.765-.302-1.458-.793-1.965l-.035-.033a2.82 2.82 0 00-1.999-.828c-.765 0-1.458.302-1.967.793l-.032.035z"/><circle fill="#FFD83D" fill-rule="nonzero" cx="226.893" cy="141.172" r="3.545"/><path fill-rule="nonzero" d="M222.63 141.171c0-1.173.478-2.239 1.25-3.011a4.251 4.251 0 016.024-.002h.003a4.25 4.25 0 011.249 3.013 4.249 4.249 0 01-1.249 3.015 4.253 4.253 0 01-3.015 1.249 4.254 4.254 0 01-3.014-1.252 4.247 4.247 0 01-1.248-3.012zm2.261-1.998a2.813 2.813 0 00-.825 1.998 2.82 2.82 0 002.826 2.829c.781 0 1.489-.317 2-.829a2.817 2.817 0 00.828-2c0-.78-.317-1.487-.828-1.998a2.812 2.812 0 00-2-.828c-.78 0-1.487.317-1.998.828h-.003z"/><circle fill="#FFD83D" fill-rule="nonzero" cx="231.427" cy="147.726" r="3.545"/><path fill-rule="nonzero" d="M227.164 147.727c0-1.175.478-2.24 1.249-3.012a4.252 4.252 0 013.014-1.252c1.177 0 2.243.477 3.014 1.249a4.249 4.249 0 011.249 3.015 4.248 4.248 0 01-1.251 3.012 4.235 4.235 0 01-3.012 1.25 4.25 4.25 0 01-3.014-1.248l-.041-.045a4.247 4.247 0 01-1.208-2.969zm2.264-2.003a2.827 2.827 0 00-.828 2.003c0 .764.302 1.458.793 1.966l.035.032a2.815 2.815 0 001.999.828c.78 0 1.488-.316 1.999-.828h.003c.51-.509.826-1.216.826-1.998 0-.781-.317-1.489-.829-2a2.817 2.817 0 00-1.999-.828c-.783 0-1.49.315-1.999.825z"/><circle fill="#FFD83D" fill-rule="nonzero" cx="233.612" cy="155.435" r="3.545"/><path fill-rule="nonzero" d="M229.35 155.435a4.25 4.25 0 011.248-3.014 4.25 4.25 0 013.014-1.248c1.175 0 2.24.477 3.011 1.248h.003a4.246 4.246 0 011.249 3.014 4.25 4.25 0 01-1.249 3.015 4.25 4.25 0 01-3.014 1.248 4.246 4.246 0 01-3.014-1.249l-.041-.044a4.247 4.247 0 01-1.207-2.97zm2.263-1.999a2.82 2.82 0 00-.828 1.999c0 .765.302 1.458.793 1.967l.035.032a2.817 2.817 0 001.999.829c.78 0 1.488-.317 2-.829a2.819 2.819 0 00.828-1.999c0-.78-.317-1.488-.829-1.999a2.811 2.811 0 00-1.999-.828 2.82 2.82 0 00-1.999.828z"/><circle fill="#FFD83D" fill-rule="nonzero" cx="233.53" cy="163.433" r="3.545"/><path fill-rule="nonzero" d="M229.267 163.432c0-1.174.478-2.239 1.25-3.012a4.238 4.238 0 013.012-1.25 4.25 4.25 0 013.012 1.248h.003a4.253 4.253 0 011.248 3.014 4.252 4.252 0 01-1.248 3.015 4.253 4.253 0 01-3.015 1.249 4.252 4.252 0 01-3.014-1.252 4.25 4.25 0 01-1.248-3.012zm2.26-1.998a2.817 2.817 0 00-.825 1.998c0 .783.317 1.491.828 2.003.51.51 1.217.825 1.999.825.781 0 1.489-.316 2-.828a2.817 2.817 0 00.828-2 2.82 2.82 0 00-.829-1.999 2.809 2.809 0 00-1.999-.827c-.78 0-1.487.316-1.999.828h-.003z"/><circle fill="#FFD83D" fill-rule="nonzero" cx="232.004" cy="171.265" r="3.545"/><path fill-rule="nonzero" d="M227.741 171.266c0-1.178.477-2.244 1.249-3.015a4.246 4.246 0 013.014-1.249c1.177 0 2.244.477 3.015 1.249a4.251 4.251 0 011.249 3.015c0 1.174-.479 2.24-1.252 3.013a4.248 4.248 0 01-3.012 1.249 4.247 4.247 0 01-3.011-1.249 4.247 4.247 0 01-1.252-3.013zm2.263-2a2.821 2.821 0 00-.828 2 2.82 2.82 0 002.828 2.826 2.822 2.822 0 002.829-2.826c0-.781-.317-1.489-.829-2a2.82 2.82 0 00-2-.829c-.78 0-1.488.317-2 .829z"/><path fill="#FFD83D" fill-rule="nonzero" d="M171.117 144.222l.33 4.617c8.82-1.351 21.324-6.266 32.979-6.266 10.769 0 19.128 4.308 19.128 15.171 0 10.706-4.534 20.441-10.554 30.34l6.266 2.968c5.6-10.885 10.224-20.13 10.224-32.649 0-10.477-8.241-20.777-22.426-20.777-12.572 0-25.397 4.237-35.947 6.596z"/><path fill-rule="nonzero" d="M171.876 144.784l.23 3.222c2.946-.506 6.272-1.367 9.819-2.285 7.034-1.821 14.928-3.865 22.501-3.865 5.857 0 11.039 1.256 14.643 4.115 3.25 2.578 5.202 6.422 5.202 11.773 0 5.443-1.151 10.636-3.067 15.725-1.817 4.827-4.322 9.554-7.181 14.308l4.923 2.332c2.663-5.183 5.085-10.008 6.856-15.007 1.83-5.163 2.97-10.528 2.97-16.699a19.72 19.72 0 00-6.32-14.431c-3.679-3.409-8.885-5.627-15.389-5.627-9.496 0-19.178 2.449-27.892 4.653-2.496.631-4.913 1.242-7.295 1.786zm-1.144 4.106l-.33-4.617a.719.719 0 01.561-.749c2.44-.545 5.103-1.219 7.861-1.916 8.798-2.226 18.573-4.699 28.239-4.699 6.889 0 12.427 2.372 16.359 6.014a21.157 21.157 0 016.785 15.48c0 6.348-1.172 11.867-3.054 17.176-1.867 5.271-4.432 10.321-7.24 15.781a.717.717 0 01-.953.341l-6.266-2.969-.067-.036a.715.715 0 01-.238-.984c2.989-4.915 5.608-9.786 7.476-14.747 1.855-4.93 2.97-9.958 2.97-15.221 0-4.868-1.747-8.344-4.657-10.651-3.329-2.642-8.202-3.802-13.752-3.802-7.409 0-15.199 2.017-22.142 3.814-3.912 1.014-7.56 1.958-10.731 2.444l-.056.006a.717.717 0 01-.765-.665z"/><path fill="#FFD83D" fill-rule="nonzero" d="M166.115 96.568l-3.7 6.929 3.7 6.907 3.7-6.907-3.7-6.929zm0 17.492l-3.7 6.907 3.7 6.929 3.7-6.929-3.7-6.907z"/><path fill-rule="nonzero" d="M166.115 98.085l-2.89 5.411 2.89 5.395 2.89-5.395-2.89-5.411zm-4.331 5.076l3.7-6.93a.714.714 0 011.261 0l3.702 6.93a.714.714 0 010 .672l-3.702 6.908a.714.714 0 01-1.261 0l-3.7-6.908a.714.714 0 010-.672zm4.331 12.413l-2.89 5.393 2.89 5.412 2.89-5.412-2.89-5.393zm-4.331 5.056l3.7-6.906a.714.714 0 011.261 0l3.702 6.906a.716.716 0 010 .673l-3.702 6.93a.714.714 0 01-1.261 0l-3.7-6.93a.716.716 0 010-.673z"/><path fill="#FFD83D" fill-rule="nonzero" d="M152.924 112.232l5.835 3.7 5.817-3.7-5.817-3.7-5.835 3.7zm14.73 0l5.816 3.7 5.836-3.7-5.836-3.7-5.816 3.7z"/><path fill-rule="nonzero" d="M154.263 112.232l4.496 2.851 4.484-2.852-4.482-2.852-4.498 2.853zm4.112 4.306l-5.826-3.694a.715.715 0 01-.009-1.217l5.835-3.702a.722.722 0 01.768.003l5.766 3.669a.716.716 0 01.051 1.241l-5.804 3.692a.718.718 0 01-.781.008zm10.612-4.307l4.485 2.852 4.496-2.851-4.498-2.853-4.483 2.852zm4.1 4.307l-5.817-3.7a.715.715 0 010-1.208l5.765-3.669a.719.719 0 01.82-.036l5.827 3.696a.716.716 0 01.009 1.217l-5.824 3.693a.718.718 0 01-.78.007z"/><circle fill="#FFD83D" fill-rule="nonzero" cx="166.115" cy="112.315" r="2.803"/><path fill-rule="nonzero" d="M168.201 112.315a2.079 2.079 0 00-2.086-2.085 2.08 2.08 0 00-1.475.611l-.035.033a2.08 2.08 0 00-.576 1.441c0 .578.233 1.099.608 1.474h.003a2.08 2.08 0 001.475.611 2.083 2.083 0 002.086-2.085zm.401-2.489a3.51 3.51 0 010 4.979 3.508 3.508 0 01-2.487 1.031 3.522 3.522 0 01-3.521-3.521c0-.947.377-1.808.989-2.443l.042-.046a3.51 3.51 0 012.49-1.031c.97 0 1.85.394 2.487 1.031z"/><circle fill="#FFD83D" fill-rule="nonzero" cx="166.115" cy="130.206" r="7.503"/><path fill-rule="nonzero" d="M172.901 130.206c0-1.874-.76-3.57-1.988-4.798a6.77 6.77 0 00-4.798-1.987c-1.874 0-3.571.76-4.798 1.987a6.763 6.763 0 00-1.987 4.798 6.76 6.76 0 001.987 4.797 6.762 6.762 0 004.798 1.988c1.873 0 3.57-.76 4.798-1.988a6.763 6.763 0 001.988-4.797zm-.973-5.813a8.195 8.195 0 012.408 5.813 8.19 8.19 0 01-2.408 5.812 8.196 8.196 0 01-5.813 2.408c-2.27 0-4.326-.92-5.813-2.408a8.19 8.19 0 01-2.408-5.812c0-2.27.92-4.325 2.408-5.813a8.196 8.196 0 015.813-2.407 8.2 8.2 0 015.813 2.407z"/><path fill-rule="nonzero" d="M163.692 122.94a.538.538 0 011.077 0c0 1.359-.01 2.66-.017 3.776l-.007.981a.536.536 0 01-.513.533 44.157 44.157 0 00-5.272.555.537.537 0 11-.177-1.059 44.815 44.815 0 014.893-.542l.003-.472c.006-.837.013-1.821.013-3.772zm9.755 4.786a.537.537 0 01-.177 1.059 43.65 43.65 0 00-5.272-.554.536.536 0 01-.513-.537l-.002-4.754a.538.538 0 011.077 0v4.244a44.893 44.893 0 014.887.542zm-14.51 4.849a.537.537 0 01-.177-1.06 44.354 44.354 0 0114.71 0 .537.537 0 01-.177 1.06 43.74 43.74 0 00-7.178-.598 43.661 43.661 0 00-7.178.598z"/><path fill="#FFD83D" fill-rule="nonzero" d="M158.782 142.899c-.712 12.259-2.159 24.743-6.93 33.818l7.76-3.139c2.709-10.283 3.279-23.569 4.103-29.849l-4.933-.83zm14.666 0l-4.933.83c.824 6.28 1.393 19.566 4.103 29.849l7.76 3.139c-4.771-9.075-6.218-21.559-6.93-33.818z"/><path fill-rule="nonzero" d="M159.45 143.738c-.357 5.887-.898 11.814-1.907 17.39-.932 5.151-2.264 9.995-4.218 14.221l5.684-2.299c1.896-7.373 2.715-16.244 3.331-22.918.206-2.224.388-4.206.581-5.81l-3.471-.584zm-3.315 17.138c1.039-5.741 1.577-11.896 1.931-17.999l.01-.095a.716.716 0 01.824-.589l4.934.829a.717.717 0 01.591.799c-.224 1.703-.428 3.914-.661 6.44-.631 6.837-1.473 15.959-3.46 23.5a.715.715 0 01-.426.482l-7.745 3.133a.716.716 0 01-.914-.993c2.349-4.468 3.882-9.789 4.916-15.507zm16.646-17.138l-3.471.584c.192 1.603.375 3.585.58 5.808.616 6.674 1.435 15.547 3.331 22.92l5.684 2.299c-1.955-4.226-3.286-9.07-4.218-14.221-1.009-5.576-1.549-11.503-1.906-17.39zm-4.384-.716l4.933-.829.079-.009a.718.718 0 01.754.676c.354 6.109.892 12.27 1.931 18.016 1.035 5.718 2.568 11.039 4.917 15.507a.717.717 0 01-.9.998l-7.756-3.137a.716.716 0 01-.429-.483c-1.987-7.542-2.829-16.665-3.46-23.502-.231-2.507-.434-4.704-.656-6.401l-.002-.011a.718.718 0 01.589-.825z"/><path fill="#FFD83D" fill-rule="nonzero" d="M166.104 169.451c-9.267 0-16.074 4.368-16.483 15.496-2.265-3.986-11.848-16.523-20.789-14.845-5.317.997-10.016 8.371-9.217 16.819-4.403-12.652-17.299-14.725-26.709-7.244 8.355 6.87 12.071 27.152 19.107 35.949h108.182c7.035-8.797 10.774-29.079 19.129-35.949-9.41-7.481-22.307-5.408-26.71 7.244.8-8.448-3.921-15.822-9.239-16.819-8.94-1.678-18.501 10.859-20.766 14.845-.409-11.128-7.238-15.496-16.505-15.496z"/><path fill-rule="nonzero" d="M166.104 170.169c-4.696 0-8.721 1.149-11.515 3.776-2.516 2.365-4.067 5.958-4.253 11.028a.715.715 0 01-1.337.328c-1.366-2.403-5.444-7.976-10.421-11.53-3.037-2.169-6.394-3.57-9.614-2.966-2.529.475-4.929 2.555-6.571 5.552-1.572 2.868-2.438 6.56-2.066 10.497a.715.715 0 01-1.388.302c-.762-2.191-1.787-4.052-3.007-5.586-2.087-2.625-4.75-4.298-7.651-5.049-2.91-.753-6.067-.582-9.131.484a19.528 19.528 0 00-5.115 2.711c4.441 4.131 7.537 11.841 10.577 19.41 2.42 6.03 4.806 11.97 7.746 15.783h107.491c2.939-3.813 5.329-9.751 7.755-15.779 3.045-7.571 6.148-15.282 10.59-19.414a19.593 19.593 0 00-5.113-2.711c-3.064-1.066-6.222-1.237-9.132-.484-2.901.751-5.564 2.424-7.652 5.049-1.22 1.535-2.245 3.395-3.007 5.586a.717.717 0 01-1.386-.323c.367-3.926-.502-7.607-2.074-10.47-1.649-3.001-4.056-5.083-6.587-5.558-3.219-.604-6.573.797-9.605 2.965-4.971 3.553-9.041 9.128-10.406 11.531a.716.716 0 01-1.339-.345c-.189-5.058-1.742-8.646-4.258-11.008-2.801-2.629-6.833-3.779-11.531-3.779zm-12.497 2.733c3.085-2.9 7.448-4.168 12.497-4.168 5.051 0 9.421 1.269 12.512 4.171 2.405 2.259 4.014 5.485 4.54 9.846 1.975-2.882 5.513-7.189 9.652-10.148 3.316-2.37 7.033-3.893 10.699-3.205 2.959.556 5.727 2.906 7.578 6.275 1.218 2.217 2.046 4.885 2.271 7.776a18.73 18.73 0 011.82-2.77c2.289-2.878 5.218-4.716 8.413-5.543 3.186-.824 6.632-.641 9.963.518 2.153.75 4.26 1.907 6.216 3.462a.714.714 0 01.009 1.113c-4.522 3.719-7.714 11.652-10.844 19.434-2.509 6.235-4.98 12.375-8.134 16.349a.714.714 0 01-.605.332H112.013v-.003a.715.715 0 01-.558-.269c-3.176-3.972-5.656-10.145-8.173-16.413-3.117-7.764-6.295-15.679-10.802-19.406a.718.718 0 01-.02-1.137c1.957-1.555 4.065-2.713 6.219-3.463 3.331-1.159 6.776-1.341 9.961-.517 3.196.827 6.125 2.664 8.413 5.543a18.757 18.757 0 011.819 2.768c.225-2.892 1.05-5.562 2.265-7.779 1.845-3.367 4.605-5.714 7.563-6.27 3.666-.688 7.387.835 10.708 3.207 4.143 2.958 7.689 7.265 9.666 10.146.525-4.362 2.131-7.59 4.533-9.849z"/><path fill-rule="nonzero" d="M220.035 215.622c0 4.005-24.156 8.409-53.92 8.409-29.764 0-53.921-4.404-53.921-8.409 0-4.005 24.157-6.101 53.921-6.101s53.92 2.096 53.92 6.101z"/><path fill-rule="nonzero" d="M220.574 215.622c0 2.369-6.665 4.745-17.342 6.411-9.695 1.511-22.762 2.536-37.117 2.536-14.355 0-27.422-1.025-37.116-2.537-10.677-1.665-17.342-4.041-17.342-6.41 0-2.248 5.713-3.897 15.04-4.952 9.866-1.116 23.883-1.687 39.418-1.687s29.552.571 39.418 1.687c9.327 1.055 15.041 2.704 15.041 4.952zm-17.506 5.351c10.115-1.577 16.429-3.568 16.429-5.351 0-1.585-5.349-2.896-14.082-3.883-9.815-1.111-23.791-1.679-39.3-1.679-15.509 0-29.485.568-39.3 1.679-8.732.987-14.082 2.298-14.082 3.883 0 1.782 6.315 3.773 16.429 5.351 9.628 1.501 22.634 2.52 36.953 2.52 14.319 0 27.325-1.019 36.953-2.52z"/><circle fill="#FFD83D" fill-rule="nonzero" cx="166.115" cy="140.572" r="2.515"/><path fill-rule="nonzero" d="M168.091 140.572a1.975 1.975 0 00-1.976-1.976 1.973 1.973 0 00-1.977 1.976c0 .546.222 1.04.579 1.397.357.358.852.579 1.398.579a1.975 1.975 0 001.976-1.976zm.182-2.157a3.046 3.046 0 010 4.314l-.002.002a3.045 3.045 0 01-4.315-.001 3.044 3.044 0 01-.895-2.158c0-.843.343-1.606.895-2.158a3.045 3.045 0 014.315 0l.002.001z"/><circle fill="#FFD83D" fill-rule="nonzero" cx="166.115" cy="146.013" r="2.679"/><path fill-rule="nonzero" d="M168.256 146.013c0-.593-.239-1.128-.625-1.514l-.002-.002a2.135 2.135 0 00-1.514-.625 2.13 2.13 0 00-1.514.624 2.141 2.141 0 00-.627 1.517 2.135 2.135 0 002.141 2.142 2.136 2.136 0 002.141-2.142zm.131-2.276l.003.003a3.212 3.212 0 010 4.549 3.207 3.207 0 01-2.275.943 3.206 3.206 0 01-2.275-.945 3.208 3.208 0 010-4.547 3.212 3.212 0 014.547-.003z"/><circle fill="#FFD83D" fill-rule="nonzero" cx="166.115" cy="151.867" r="2.927"/><path fill-rule="nonzero" d="M168.503 151.867a2.383 2.383 0 00-2.388-2.388 2.385 2.385 0 00-2.389 2.388 2.39 2.39 0 004.777 0zm.062-2.448a3.453 3.453 0 011.015 2.448c0 .956-.388 1.823-1.016 2.451a3.455 3.455 0 01-2.449 1.014 3.465 3.465 0 112.448-5.915l.002.002z"/><circle fill="#FFD83D" fill-rule="nonzero" cx="166.115" cy="158.381" r="3.339"/><path fill-rule="nonzero" d="M168.915 158.381a2.793 2.793 0 00-2.8-2.8c-.774 0-1.475.314-1.981.82a2.79 2.79 0 00-.82 1.98c0 .774.314 1.475.82 1.981s1.207.82 1.981.82c.773 0 1.473-.314 1.98-.82.506-.506.82-1.207.82-1.981zm-.059-2.739a3.864 3.864 0 011.136 2.739 3.87 3.87 0 01-1.136 2.742 3.868 3.868 0 01-2.741 1.136 3.867 3.867 0 01-2.742-1.136 3.865 3.865 0 01-1.136-2.742c0-1.07.434-2.04 1.136-2.741a3.863 3.863 0 012.742-1.136c1.068 0 2.037.434 2.739 1.136l.002.002z"/><circle fill="#FFD83D" fill-rule="nonzero" cx="166.115" cy="165.636" r="3.669"/><path fill-rule="nonzero" d="M169.246 165.635a3.124 3.124 0 00-3.131-3.129 3.129 3.129 0 00-3.131 3.129 3.126 3.126 0 003.131 3.132c.864 0 1.647-.351 2.214-.917.566-.566.917-1.35.917-2.215zm-.158-2.974a4.2 4.2 0 01.002 5.95 4.197 4.197 0 01-2.975 1.233 4.191 4.191 0 01-2.975-1.233 4.202 4.202 0 01-1.232-2.976c0-1.161.471-2.213 1.232-2.974a4.2 4.2 0 012.975-1.232c1.16 0 2.211.471 2.973 1.232zM164.657 172.694c-.397-.005-.772.329-.673.964.117.749.264 2.149.404 3.095.159 1.071.783.811.942-.023.159-.833.095-1.368.135-2.915.02-.774-.411-1.116-.808-1.121zm2.915 0c-.396.005-.827.347-.807 1.121.04 1.547-.024 2.082.135 2.915.159.834.783 1.094.941.023.141-.946.287-2.346.404-3.095.1-.635-.276-.969-.673-.964zm-5.516.403c-.363.051-.74.417-.718.808.04.714.237 1.57.314 2.646.079 1.111.863.679.942.045.079-.635.169-1.573.09-2.803-.03-.462-.231-.665-.471-.696a.634.634 0 00-.157 0zm7.961 0c-.24.031-.441.234-.471.696-.079 1.23.011 2.168.09 2.803.079.634.862 1.066.941-.045.078-1.076.275-1.932.315-2.646.021-.391-.355-.757-.718-.808a.634.634 0 00-.157 0zm-11.079 1.256c-.332.086-.637.486-.537.942.198.913.381 1.922.381 2.848 0 .794.678.511.717-.045.04-.556.113-1.732.113-2.803 0-.8-.341-1.028-.674-.942zm14.129 0c-.236.066-.449.342-.449.942 0 1.071.073 2.247.112 2.803.04.556.718.839.718.045 0-.926.183-1.935.381-2.848.099-.456-.206-.856-.538-.942a.397.397 0 00-.224 0zm-42.407.123c-.398-.014-.677.526-.404 1.121.436.953.9 1.554 1.346 2.579.397.913 1.005.344.807-.292-.198-.635-.414-1.341-1.009-2.691-.223-.506-.501-.709-.74-.717zm70.91 0c-.239.008-.517.211-.74.717-.595 1.35-.811 2.056-1.009 2.691-.199.636.41 1.205.807.292.446-1.025.909-1.626 1.346-2.579.273-.595-.007-1.135-.404-1.121zm-68.04.045c-.293.089-.47.46-.291.897.357.873.873 1.768 1.233 2.713.317.833 1.023.597.785-.157-.238-.754-.309-1.195-.785-2.623-.238-.715-.649-.92-.942-.83zm64.945 0c-.25.053-.539.294-.718.83-.476 1.428-.546 1.869-.784 2.623-.238.754.467.99.784.157.361-.945.876-1.84 1.234-2.713.178-.437.001-.808-.291-.897a.419.419 0 00-.225 0zm-61.357.695c-.369.07-.654.633-.403 1.323.317.873.769 1.699 1.166 2.691.397.992 1.056.792.897.157-.159-.635-.353-1.687-.83-3.274-.208-.695-.542-.952-.83-.897zm57.993 0c-.287-.055-.621.202-.829.897-.477 1.587-.671 2.639-.83 3.274-.159.635.5.835.897-.157s.848-1.818 1.166-2.691c.251-.69-.035-1.253-.404-1.323zm-66.873.493c-.4.041-.764.693-.516 1.189.397.793.649 1.064 1.032 1.906.396.873.831.197.672-.359-.159-.556-.362-1.202-.56-1.996-.145-.581-.388-.764-.628-.74zm75.754 0c-.24-.024-.483.159-.628.74-.198.794-.402 1.44-.561 1.996-.159.556.276 1.232.673.359.383-.842.634-1.113 1.032-1.906.247-.496-.116-1.148-.516-1.189zm-48.103 2.008c-.419 0-.867.556-.718 1.076.238.834.606 1.573.875 2.646.238.953.914.479.874-.156-.04-.635-.148-1.499-.426-2.848-.104-.506-.354-.718-.605-.718zm20.452 0c-.251 0-.501.212-.606.718-.277 1.349-.386 2.213-.426 2.848-.039.635.637 1.109.875.156.268-1.073.637-1.812.875-2.646.149-.52-.299-1.076-.718-1.076zm-10.226.852c-.516 0-.587.693-.606 1.256-.059 1.845-.825 3.637-1.48 4.53-.654.893-1.618.655-2.511.179-.894-.476-1.425-.832-2.378-1.547-.952-.714-1.674-.296-.538 1.323 3.314 4.722 6.907 8.759 6.907 16.46 0 .997.174 1.301.606 1.301s.628-.304.628-1.301c0-7.701 3.571-11.738 6.885-16.46 1.136-1.619.414-2.037-.539-1.323-.952.715-1.484 1.071-2.377 1.547-.893.476-1.857.714-2.511-.179-.655-.893-1.421-2.685-1.481-4.53-.018-.563-.089-1.256-.605-1.256zm-25.319-1.155a.397.397 0 00-.134.022c-.193.061-.322.293-.247.695.133.72.631 2.129.83 2.804.198.674 1.028.531.829-.382-.198-.913-.187-1.188-.426-2.22-.13-.564-.535-.911-.852-.919zm50.637 0c-.316.008-.722.355-.852.919-.238 1.032-.227 1.307-.426 2.22-.198.913.631 1.056.83.382.198-.675.697-2.084.83-2.804.074-.402-.054-.634-.247-.695a.398.398 0 00-.135-.022zm-65.684.291c-.416.032-.713.554-.292 1.324.455.83 1.235 1.871 1.592 2.466.357.595.975.194.539-.56-.437-.754-.583-1.62-1.099-2.691-.194-.403-.491-.558-.74-.539zm80.732 0c-.249-.019-.547.136-.74.539-.516 1.071-.662 1.937-1.099 2.691-.436.754.182 1.155.538.56.357-.595 1.138-1.636 1.593-2.466.421-.77.124-1.292-.292-1.324zm-103.472 2.389c-.479-.025-.63.84-.179 1.413.655.833 1.11 1.275 1.861 1.951.595.536.768-.16.471-.695-.298-.536-.728-1.08-1.323-1.974-.326-.489-.612-.683-.83-.695zm126.212 0c-.218.012-.504.206-.83.695-.595.894-1.026 1.438-1.323 1.974-.297.535-.125 1.231.471.695.751-.676 1.206-1.118 1.861-1.951.45-.573.3-1.438-.179-1.413zm-122.601.718c-.382.005-.635.287-.337.942.426.937.988 1.999 1.345 2.713.358.715 1.446.954 1.01-.157-.437-1.111-.523-1.681-.92-2.713-.198-.516-.717-.79-1.098-.785zm118.99 0c-.382-.005-.9.269-1.099.785-.396 1.032-.483 1.602-.919 2.713-.436 1.111.652.872 1.009.157.358-.714.92-1.776 1.346-2.713.297-.655.045-.937-.337-.942zm-125.987.247c-.556.005-.604.562-.113.919.655.476 1.436 1.004 2.198 1.615.893.714 1.239.057.763-.539-.476-.595-.94-1.198-2.131-1.794-.297-.149-.532-.203-.717-.201zm132.984 0c-.185-.002-.42.052-.717.201-1.191.596-1.655 1.199-2.131 1.794-.476.596-.13 1.253.762.539.763-.611 1.543-1.139 2.198-1.615.491-.357.444-.914-.112-.919zm-78.692.515c-.31.044-.578.397-.448.852.238.833.508 1.717.672 2.579.159.834 1.124.844.965.09-.159-.754-.238-1.697-.516-2.848-.104-.431-.322-.639-.538-.673a.47.47 0 00-.135 0zm24.265 0c-.217.034-.434.242-.539.673-.277 1.151-.357 2.094-.515 2.848-.159.754.806.744.964-.09.164-.862.435-1.746.673-2.579.13-.455-.138-.808-.448-.852a.47.47 0 00-.135 0zm-45.861-1.424c-.244.067-.384.534-.202 1.188 1.013 3.631 1.323 5.543 1.144 6.436-.178.893-.668 1.016-1.323.718a13.5 13.5 0 01-2.018-1.144c-.595-.416-1.214.082-.359.785 4.345 3.571 7.357 7.653 8.522 12.603.238 1.012.873 1.131.695 0-.985-6.236-1.174-11.362.314-14.576.559-1.208-.004-2.369-.897-.404-.595 1.31-1.559 1.826-2.333.695-.773-1.131-2.371-4.148-2.847-5.516-.179-.514-.399-.751-.584-.785a.25.25 0 00-.112 0zm67.479 0c-.184.034-.404.271-.583.785-.476 1.368-2.074 4.385-2.848 5.516-.774 1.131-1.737.615-2.332-.695-.893-1.965-1.456-.804-.897.404 1.488 3.214 1.299 8.34.314 14.576-.179 1.131.457 1.012.695 0 1.165-4.95 4.177-9.032 8.522-12.603.855-.703.236-1.201-.359-.785a13.51 13.51 0 01-2.019 1.144c-.654.298-1.144.175-1.322-.718-.179-.893.131-2.805 1.143-6.436.183-.654.042-1.121-.202-1.188a.249.249 0 00-.112 0zm-89.321 1.738c-.392.005-.717.279-.538.875.286.953.878 1.984 1.076 2.579.198.595.837.317.718-.516s-.178-1.33-.337-2.243c-.079-.456-.527-.7-.919-.695zm111.276 0c-.392-.005-.84.239-.919.695-.159.913-.218 1.41-.337 2.243-.119.833.519 1.111.718.516.198-.595.79-1.626 1.076-2.579.179-.596-.146-.87-.538-.875zm-97.798-1.245c-.456-.082-.522 1.094-.135 1.569.516.636 1.233 1.403 1.951 2.265.595.715.963.08.605-.515-.357-.596-.886-1.228-1.838-2.736-.238-.377-.431-.556-.583-.583zm84.32 0c-.152.027-.345.206-.583.583-.952 1.508-1.482 2.14-1.839 2.736-.357.595.011 1.23.606.515.718-.862 1.435-1.629 1.951-2.265.387-.475.321-1.651-.135-1.569zm-94.726 2.837c-.283-.02-.523.21-.404.785.166.801.407 1.467.606 2.221.198.754.717.624.717-.09s-.127-1.511-.246-2.265c-.06-.377-.39-.631-.673-.651zm105.132 0c-.283.02-.614.274-.673.651-.119.754-.247 1.551-.247 2.265 0 .714.52.844.718.09.198-.754.439-1.42.605-2.221.12-.575-.12-.805-.403-.785zm-95.736 1.02c-.444.067-.834.496-.314 1.167.834 1.071 1.746 1.822 2.064 2.219.317.397 1.121.251.605-.583-.527-.851-1.325-1.876-1.682-2.511-.134-.239-.406-.332-.673-.292zm86.16 0c-.195.021-.393.113-.493.292-.357.635-1.155 1.66-1.683 2.511-.515.834.289.98.606.583.318-.397 1.23-1.148 2.064-2.219.52-.671.129-1.1-.314-1.167a.638.638 0 00-.18 0zm-100.983 2.995c-.351-.032-.472.25 0 .897 1.071 1.468 2.253 3.69 2.332 4.642.08.952-.391.942-.83.942-1.309 0-1.949-.956-3.139-1.234-1.191-.278-1.364.348-.516.965 4.365 3.174 8.74 6.716 10.495 9.934.715 1.31 1.68 1.788 1.144.538-1.641-3.83-2.039-7.073-1.682-9.037.358-1.964.844-3.287.785-4.418-.06-1.131-.701-1.054-.964 0-.179.714-.525 1.661-.763 2.018-.238.357-1.195.558-2.108-.673-.912-1.229-3.215-3.598-3.969-4.193-.283-.223-.575-.362-.785-.381zm115.986 0c-.211.019-.502.158-.785.381-.754.595-3.057 2.964-3.97 4.193-.912 1.231-1.87 1.03-2.108.673-.237-.357-.584-1.304-.762-2.018-.263-1.054-.905-1.131-.964 0-.06 1.131.427 2.454.785 4.418.357 1.964-.041 5.207-1.682 9.037-.536 1.25.429.772 1.143-.538 1.756-3.218 6.131-6.76 10.496-9.934.847-.617.674-1.243-.516-.965-1.19.278-1.83 1.234-3.14 1.234-.438 0-.909.01-.829-.942.078-.952 1.26-3.174 2.332-4.642.471-.647.35-.929 0-.897z"/><path fill="#FFD83D" fill-rule="nonzero" d="M114.559 211.047l1.4 4.431-1.4-4.431zm2.879-.84l1.239 4.478-1.239-4.478zm3.109-.511l.851 4.568-.851-4.568zm2.884-.577l.912 4.556-.912-4.556zm3.7-.366l.741 4.588-.741-4.588zm3.936.005l.799 4.578-.799-4.578zm3.842-1.299l.577 4.611-.577-4.611zm3.615.234l.576 4.61-.576-4.61zm3.498-.467l.576 4.61-.576-4.61zm3.511-.362l.317 4.635-.317-4.635zm3.752-.001l.275 4.638-.275-4.638zm3.402-.235l.234 4.641-.234-4.641zm3.75-.234l.195 4.642-.195-4.642zm4.315-.117l.194 4.643-.194-4.643zm56.918 4.77l-1.399 4.431 1.399-4.431zm-2.878-.84l-1.24 4.478 1.24-4.478zm-3.109-.511l-.852 4.568.852-4.568zm-2.885-.577l-.912 4.556.912-4.556zm-3.699-.366l-.742 4.588.742-4.588zm-3.936.005l-.799 4.578.799-4.578zm-3.842-1.299l-.577 4.611.577-4.611zm-3.615.234l-.576 4.61.576-4.61zm-3.498-.467l-.576 4.61.576-4.61zm-3.511-.362l-.317 4.635.317-4.635zm-3.752-.001l-.275 4.638.275-4.638zm-3.402-.235l-.234 4.641.234-4.641zm-3.751-.234l-.195 4.642.195-4.642zm-4.314-.117l-.195 4.643.195-4.643zm-5.363-.301v5.111-5.111zm0 0z"/><path fill-rule="nonzero" d="M114.046 211.209a.537.537 0 111.026-.323l1.4 4.43a.538.538 0 11-1.026.323l-1.4-4.43zm2.874-.858a.537.537 0 011.035-.286l1.24 4.478a.536.536 0 11-1.034.286l-1.241-4.478zm3.099-.557a.536.536 0 111.056-.194l.85 4.567a.537.537 0 01-1.055.194l-.851-4.567zm2.885-.57a.54.54 0 011.056-.21l.911 4.555a.538.538 0 01-1.056.211l-.911-4.556zm3.699-.387a.537.537 0 111.059-.168l.74 4.587a.536.536 0 11-1.06.168l-.739-4.587zm3.934.011a.538.538 0 011.06-.18l.798 4.577a.538.538 0 01-1.06.181l-.798-4.578zm3.838-1.324a.537.537 0 111.068-.131l.576 4.612a.537.537 0 11-1.068.13l-.576-4.611zm3.614.233a.538.538 0 111.068-.13l.578 4.61a.539.539 0 11-1.068.13l-.578-4.61zm3.498-.465a.538.538 0 111.068-.13l.578 4.61a.538.538 0 11-1.068.13l-.578-4.61zm3.509-.392a.538.538 0 011.073-.071l.317 4.635a.537.537 0 11-1.072.071l-.318-4.635zm3.753-.006a.538.538 0 011.072-.063l.275 4.639a.538.538 0 01-1.072.063l-.275-4.639zm3.402-.241a.537.537 0 011.072-.051l.234 4.642a.537.537 0 11-1.073.05l-.233-4.641zm3.751-.238a.538.538 0 011.073-.042l.193 4.642a.536.536 0 11-1.072.042l-.194-4.642zm4.314-.116a.537.537 0 011.072-.042l.194 4.642a.536.536 0 11-1.072.042l-.194-4.642zm56.941 4.587a.537.537 0 111.026.323l-1.399 4.43a.538.538 0 11-1.026-.323l1.399-4.43zm-2.882-.821a.538.538 0 011.035.286l-1.24 4.478a.536.536 0 11-1.035-.286l1.24-4.478zm-3.119-.465a.537.537 0 011.055.194l-.852 4.567a.538.538 0 01-1.056-.194l.853-4.567zm-2.886-.586a.54.54 0 011.056.21l-.912 4.556a.538.538 0 11-1.056-.211l.912-4.555zm-3.702-.345a.537.537 0 011.06.168l-.741 4.587a.537.537 0 01-1.06-.168l.741-4.587zm-3.934-.004a.538.538 0 111.059.186l-.799 4.577a.539.539 0 01-1.06-.185l.8-4.578zm-3.847-1.272a.537.537 0 111.068.131l-.576 4.611a.538.538 0 11-1.068-.13l.576-4.612zm-3.615.234a.537.537 0 111.068.13l-.576 4.61a.539.539 0 11-1.068-.13l.576-4.61zm-3.498-.465a.538.538 0 111.068.13l-.576 4.61a.539.539 0 01-1.068-.13l.576-4.61zm-3.513-.333a.537.537 0 111.072.071l-.317 4.635a.537.537 0 11-1.072-.071l.317-4.635zm-3.752.002a.538.538 0 011.073.063l-.275 4.639a.538.538 0 01-1.073-.063l.275-4.639zm-3.402-.229a.538.538 0 011.073.051l-.235 4.641a.537.537 0 01-1.073-.05l.235-4.642zm-3.751-.229a.536.536 0 011.072.042l-.193 4.642a.537.537 0 01-1.073-.042l.194-4.642zm-4.314-.116a.536.536 0 011.072.042l-.193 4.642a.537.537 0 01-1.073-.042l.194-4.642zm-5.366-.282a.538.538 0 011.077 0v5.112a.539.539 0 01-1.077 0v-5.112z"/></svg>