<svg xmlns="http://www.w3.org/2000/svg" shape-rendering="geometricPrecision" text-rendering="geometricPrecision" image-rendering="optimizeQuality" fill-rule="evenodd" clip-rule="evenodd" viewBox="0 0 512 512"><path fill="#4D4D4D" fill-rule="nonzero" d="M256 0c70.684 0 134.689 28.664 181.012 74.987C483.336 121.311 512 185.316 512 256c0 70.684-28.664 134.689-74.988 181.013C390.689 483.336 326.684 512 256 512c-70.677 0-134.689-28.664-181.013-74.987C28.664 390.689 0 326.676 0 256c0-70.684 28.664-134.689 74.987-181.013C121.311 28.664 185.316 0 256 0z"/><path fill="#fff" fill-rule="nonzero" d="M256.001 19.597c65.278 0 124.382 26.466 167.162 69.242 42.776 42.78 69.242 101.884 69.242 167.162S465.939 380.384 423.16 423.16c-42.777 42.78-101.881 69.246-167.159 69.246-65.278 0-124.382-26.466-167.162-69.243-42.777-42.779-69.243-101.884-69.243-167.162S46.062 131.619 88.839 88.839c42.78-42.776 101.884-69.242 167.162-69.242z"/><path fill="#DE2010" fill-rule="nonzero" d="M372.587 438.349V198.201H243.342V472.03c4.192.239 8.408.378 12.659.378 42.927 0 82.937-12.499 116.586-34.059z"/><path fill="#EF7D00" fill-rule="nonzero" d="M464.576 198.151h-140.46v263.305c86.14-28.547 148.292-109.737 148.292-205.455 0-20.039-2.737-39.434-7.832-57.85z"/><path fill-rule="nonzero" d="M404.898 413.032V198.31h-80.782v263.146c30.498-10.108 57.992-26.809 80.782-48.424z"/><path fill="#198A00" fill-rule="nonzero" d="M464.629 198.346H243.333V472.03C129.711 465.471 39.594 371.265 39.594 256.001c0-119.52 96.886-216.407 216.407-216.407 99.549 0 183.39 67.224 208.628 158.752z"/><path fill="#EF7D00" fill-rule="nonzero" d="M419.195 113.882c-4.44-.127-9.151-.658-14.135-1.712 5.043 1.199 9.81 1.771 14.289 1.886a223.556 223.556 0 013.637 4.284c-2.064.139-4.723.354-8.13.679a142.3 142.3 0 008.325-.44c.664.809 1.316 1.63 1.972 2.447-4.603 2.037-12.81 4.305-22.05.576 11.142 2.807 12.364 2.92 12.609 3.817-.735 1.125-9.917 2.808-18.729-1.57 7.1 2.695 13.465 3.144 13.586 4.153-.121.337-4.65 2.695-8.691 1.01-4.039-1.683-41.256-22.682-41.256-22.682l41.088-10.329a217.287 217.287 0 0117.485 17.881z"/><path fill-rule="nonzero" d="M425.386 121.322c-2.74 1.225-6.766 2.538-11.546 2.633 1.692.505 2.069.806 2.22 1.37a.358.358 0 01-.044.292c-.393.602-2.846 1.358-6.285 1.432.729.262 1.157.543 1.201.912a.358.358 0 01-.183.357l-.026.015c-.414.325-1.464.895-2.82 1.252-1.638.437-3.773.64-5.827-.106a7.03 7.03 0 01-.337-.13c-4.05-1.689-41.188-22.641-41.294-22.703a.359.359 0 01-.136-.492.36.36 0 01.227-.172l40.855-10.273.638.587-40.436 10.168c5.385 3.034 36.739 20.676 40.424 22.214l.304.118c1.889.688 3.873.494 5.396.089 1.234-.328 2.132-.738 2.421-.933-.325-.233-1.697-.552-3.69-1.01l-.195-.047c-2.908-.313-6.193-1.113-9.432-2.722a.366.366 0 01-.165-.487.364.364 0 01.454-.177c3.475 1.317 6.781 2.099 9.252 2.669l.629.059c4.275.36 7.54-.298 8.293-.889-.266-.354-1.208-.634-4.804-1.532a27.677 27.677 0 01-7.512-1.877.362.362 0 01.224-.688c2.166.546 3.843.962 5.249 1.311l2.173.54c5.963.608 11.035-.924 14.305-2.362l.467.582zm-6.515-7.809l.808.918c-4.596-.094-9.505-.67-14.701-1.907a.362.362 0 01.159-.708l.021.003c4.827 1.021 9.399 1.55 13.713 1.694zm3.834 4.493l.753.919c-2.686.23-5.547.383-8.594.457a.366.366 0 01-.372-.354.364.364 0 01.328-.369c3.2-.307 5.792-.517 7.885-.653z"/><path fill="#EF7D00" fill-rule="nonzero" d="M351.813 147.971c-5.577 0-5.73 4.552-5.73 4.552s-.461.327-.154 2.533c.921-1.503 1.382-1.972 1.382-1.972.614.094 3.17.8 7.215-2.111-3.685 3.519-1.485 4.833-1.485 4.833s-.871 2.769 1.942 3.332c-.868-1.127-.357-2.11-.357-2.11s3.941-.375 3.684-4.789c.154 3.989 2.507 4.975 2.507 4.975s0 2.205 2.559 2.394c-1.382-1.128-1.074-2.864-1.074-2.864s3.324-2.205.51-5.957c1.689-.894 3.07-3.38 3.07-3.38s-2.302-.892-3.377-1.642c-.511-.986-.05-6.382-.05-6.382l-1.382-6.991-3.941 10.885c.154-1.547.257 4.694-5.319 4.694z"/><path fill-rule="nonzero" d="M351.813 148.334c-5.226 0-5.367 4.192-5.367 4.203a.362.362 0 01-.145.272c-.032.036-.174.239-.118 1.178.575-.859.871-1.157.871-1.16a.376.376 0 01.336-.098l.148.027c.791.142 3.153.531 6.775-2.075a.361.361 0 01.461.555c-3.345 3.194-1.544 4.263-1.539 4.265.14.089.198.254.154.405 0 .006-.558 1.783.842 2.58-.293-.918.07-1.618.073-1.621a.355.355 0 01.287-.197c.011-.003 3.592-.346 3.356-4.408a.363.363 0 01.726-.038l.003.097c.175 3.679 2.273 4.558 2.279 4.561a.362.362 0 01.225.334c0 .005.003 1.246 1.207 1.792-.655-1.125-.445-2.318-.445-2.321a.371.371 0 01.15-.239c.009-.006 3.014-1.995.431-5.443a.358.358 0 01.071-.505l.05-.033c1.213-.641 2.273-2.181 2.707-2.881-.714-.293-2.223-.942-3.052-1.524a.341.341 0 01-.116-.129c-.525-1.01-.141-5.943-.094-6.524l-1.119-5.666-3.436 9.497-.015.11a6.273 6.273 0 01-.221.968c-.49 1.559-1.869 4.018-5.485 4.018zm-6.087 4.076c.062-.684.646-4.803 6.087-4.803 3.158 0 4.363-2.146 4.791-3.51.092-.289.144-.54.177-.729-.009-.041-.012-.082-.009-.127.015-.141.033-.239.045-.286l.097-.328c.08-.342.174-.579.266-.72.062-.133.121-.239.177-.31l3.368-9.308a.362.362 0 01.278-.254.366.366 0 01.428.286l1.378 6.991a.397.397 0 01.006.103c0 .015-.431 5.031-.02 6.111 1.021.679 3.032 1.47 3.206 1.538l.059.027a.362.362 0 01.138.493c-.003.009-1.248 2.247-2.863 3.312 2.303 3.401-.083 5.574-.694 6.049-.032.396-.032 1.559.951 2.371a.368.368 0 01.144.319.363.363 0 01-.387.336c-2.367-.174-2.798-1.901-2.878-2.53-.448-.263-1.523-1.054-2.119-2.831-.794 2.078-2.787 2.619-3.46 2.743-.08.274-.148.867.363 1.543a.363.363 0 01-.343.6c-2.677-.538-2.435-2.811-2.279-3.552-.416-.389-1.189-1.473.104-3.445-2.716 1.382-4.553 1.107-5.288.977-.183.222-.581.744-1.207 1.763a.353.353 0 01-.263.177.367.367 0 01-.41-.31c-.233-1.677-.003-2.406.157-2.696z"/><path fill="#EF7D00" fill-rule="nonzero" d="M379.353 132.268c.121.112 4.163 4.269 8.08 4.045 1.47-1.125-3.061-3.593-3.061-4.157 1.591 1.349 8.325 6.625 12.611 4.718 1.713-2.247-3.061-1.911-8.325-7.974 3.673 2.246 12.854 7.188 17.137 5.278 1.837-1.798-9.547-7.41-13.343-11.791l-9.793-4.602-13.343 9.993 10.037 4.49z"/><path fill-rule="nonzero" d="M379.607 132.008l.036.036c.404.401 4.085 4.023 7.64 3.912.147-.192.035-.47-.201-.78-.419-.549-1.19-1.16-1.828-1.668-.687-.546-1.245-.992-1.245-1.352a.362.362 0 01.614-.26c1.006.847 3.988 3.2 7.097 4.363 1.759.659 3.557.933 5.027.319.346-.493.213-.808-.248-1.163-.322-.245-.785-.514-1.343-.841-1.659-.966-4.154-2.418-6.772-5.435a.365.365 0 01.035-.514.37.37 0 01.428-.035c2.209 1.352 6.421 3.681 10.336 4.888 2.465.759 4.797 1.072 6.394.399.177-.248-.1-.699-.676-1.287-1.063-1.089-3.07-2.486-5.222-3.983-2.769-1.927-5.781-4.023-7.451-5.924l-9.527-4.479-12.677 9.494 9.477 4.24a.326.326 0 01.106.07zm7.847 4.665c-3.885.224-7.823-3.622-8.307-4.101l-9.979-4.464a.362.362 0 01-.071-.619l13.338-9.987a.362.362 0 01.378-.045l9.777 4.597c.051.02.098.053.137.097 1.596 1.842 4.605 3.935 7.365 5.86 2.185 1.52 4.221 2.937 5.328 4.071.925.942 1.252 1.748.629 2.356a.41.41 0 01-.106.071c-1.783.794-4.322.478-6.973-.337-2.893-.891-5.934-2.379-8.239-3.651 1.859 1.72 3.56 2.709 4.788 3.427.582.337 1.06.617 1.42.891.874.668 1.083 1.267.331 2.253a.383.383 0 01-.139.112c-1.692.753-3.708.467-5.662-.265-1.237-.461-2.448-1.102-3.531-1.766.266.522.248 1.013-.271 1.417a.37.37 0 01-.213.083z"/><path fill="#EF7D00" fill-rule="nonzero" d="M364.297 98.135s4.529-2.47 22.646-1.236c1.482.168 7.794-1.78 12.21-3.177a211.296 211.296 0 014.461 4.053c-1.875.281-3.502.393-4.674.248 6.61.112 2.938 5.051-8.079 2.696 5.263 2.692 3.306 3.143 3.306 3.143s-9.305.449-11.753-1.461c6.244 2.135 3.673 2.92 3.673 2.92s-6.365.561-9.305-.673c4.528 1.234 2.205 2.022 2.205 2.022s-3.672.561-6.734-.451c-3.061-1.01-7.714-8.084-7.956-8.084z"/><path fill-rule="nonzero" d="M364.144 97.805c.286-.148 5.151-2.471 22.823-1.267h.017c1.388.16 7.475-1.715 11.853-3.096l.635.563c-4.44 1.406-10.952 3.425-12.555 3.257-14.932-1.019-20.527.469-22.015 1.009.166.198.358.449.576.736 1.524 1.998 4.688 6.14 6.887 6.866 2.811.93 6.15.496 6.528.443.132-.056.652-.351-.969-.936a7.73 7.73 0 01-1.281-.398.365.365 0 01.266-.677c.472.13.88.257 1.231.381 2.937.659 7.365.319 7.867.278.145-.062.679-.387-1.275-1.278-1.066-.234-1.972-.556-2.542-.998a.365.365 0 01-.062-.508.366.366 0 01.402-.121c1.009.342 1.809.661 2.438.953 3.369.718 8.567.514 9.131.491.13-.06.546-.44-3.38-2.451a.36.36 0 01-.213-.41.365.365 0 01.431-.281c4.978 1.066 8.402.629 10.02-.168.464-.227.756-.472.868-.702.074-.151.044-.305-.091-.44-.278-.275-.866-.499-1.784-.603a9.886 9.886 0 01-1.054-.065.363.363 0 01.08-.723c.355.009.679.03.977.062.939.012 2.07-.086 3.324-.262l.676.631c-.682.106-1.334.189-1.948.251.091.062.171.127.239.195.381.378.455.824.23 1.275-.18.369-.584.732-1.195 1.031-1.482.729-4.337 1.186-8.364.611 3.56 2.235 1.349 2.757 1.343 2.757a.296.296 0 01-.088.012c-.225.012-4.148.186-7.561-.231 1.308 1.143-.404 1.671-.413 1.674a.445.445 0 01-.091.018c-.216.018-3.286.272-6.129.006.658.8-.865 1.32-.871 1.32a.378.378 0 01-.074.017c-.239.036-3.852.541-6.893-.463-2.409-.794-5.668-5.06-7.236-7.118-.439-.573-.487-.947-.605-.947a.366.366 0 01-.366-.364c0-.147.089-.271.213-.33z"/><path fill="#EF7D00" fill-rule="nonzero" d="M371.56 134.598l.667 10.978s-.36.564-.667.892c-.308.328-8.491-1.172-7.366 4.552 0 2.347.05 2.955 1.792 4.272-.464-1.55-.307-2.631-.307-2.631s2.3 1.27 4.552-2.205c-1.535 3.428-.461 4.647-.103 4.741.357.612-.614 3.378 2.456 3.331-1.175-1.031-.614-2.533-.614-2.533s3.224-.47 2.099-5.819c1.175-1.081 1.635-.047 1.635-.047s.357 3.191 3.174 2.532c1.278.659-.207 2.395-.207 2.395s2.046.047 2.663-1.55c.614-1.594 1.328-4.458-2.049-5.63-.407-1.125 1.332-1.219 1.332-1.219s2.149.655 2.763 1.641c.614.986.407-2.58-2.252-2.955-3.275-.094-3.478-.706-3.478-.844 0-.142-.564-7.977-.821-10.229l-5.269.328z"/><path fill-rule="nonzero" d="M371.943 134.937l.644 10.619a.354.354 0 01-.059.221c0 .003-.36.573-.703.939a.23.23 0 01-.05.044.333.333 0 01-.1.053c-.219.08-.582.077-1.066.068-.815-.012-2.046-.029-3.203.198-1.762.345-3.363 1.299-2.855 3.87l.006.071c0 1.134.012 1.845.218 2.394.119.316.31.597.615.898-.166-1.022-.074-1.68-.074-1.683a.364.364 0 01.543-.281c.174.089 2.093.957 4.068-2.087a.366.366 0 01.502-.109.366.366 0 01.13.458 10.891 10.891 0 00-.576 1.591l-.003.015c-.248.956-.221 1.617-.097 2.054.106.364.254.535.345.579.1.027.18.097.224.186.127.233.133.558.142.945.015.741.039 1.792 1.175 2.099-.564-1.072-.136-2.214-.136-2.22a.362.362 0 01.296-.225c.197-.035 2.792-.593 1.783-5.384a.364.364 0 01.109-.34c1.544-1.417 2.205.053 2.208.056.018.039.029.08.036.118.003.009.315 2.79 2.73 2.226a.364.364 0 01.281.048c1.027.554.714 1.567.339 2.246.558-.13 1.281-.449 1.58-1.225.292-.756.608-1.81.454-2.79-.148-.942-.75-1.839-2.282-2.37a.354.354 0 01-.221-.219c-.576-1.585 1.644-1.706 1.65-1.706a.383.383 0 01.151.023c.186.059 1.558.508 2.426 1.225-.251-.732-.879-1.661-2.081-1.839-1.219-.035-2.028-.144-2.559-.274-1.143-.275-1.246-.768-1.246-.93 0-.089-.231-3.324-.464-6.232a207.38 207.38 0 00-.316-3.617l-4.564.287zm-.085 10.542l-.658-10.861a.36.36 0 01.339-.384l5.261-.327a.363.363 0 01.392.321c.092.821.224 2.353.354 3.983.234 2.925.467 6.193.467 6.288 0 .014.059.074.688.227.493.118 1.252.219 2.421.254l.055.003c1.612.227 2.421 1.488 2.714 2.427l.005.018c.095.309.137.593.133.797-.009.433-.203.667-.54.602l-.02-.003c-.139-.03-.275-.136-.399-.334-.481-.773-2.134-1.349-2.495-1.467-.224.024-.994.13-.98.581 1.704.65 2.389 1.733 2.569 2.873.18 1.142-.172 2.32-.493 3.159-.709 1.836-2.991 1.783-3 1.783a.367.367 0 01-.23-.086.36.36 0 01-.047-.507c.003-.003 1.086-1.279.419-1.778-2.822.558-3.383-2.314-3.46-2.804-.077-.115-.331-.366-.889.071.904 4.655-1.44 5.75-2.205 5.981-.089.372-.206 1.284.564 1.96a.372.372 0 01.124.269c0 .2-.159.363-.36.365-2.657.042-2.693-1.718-2.719-2.895a4.795 4.795 0 00-.026-.535c-.222-.142-.505-.458-.656-.992-.148-.511-.189-1.248.05-2.264-1.331 1.175-2.562 1.122-3.22.959.003.437.055 1.149.315 2.023a.364.364 0 01-.056.324.367.367 0 01-.51.071c-.928-.703-1.409-1.228-1.668-1.91-.251-.667-.266-1.426-.266-2.619-.596-3.12 1.322-4.271 3.436-4.687 1.219-.24 2.503-.222 3.351-.207.434.006.629.115.679.062.201-.212.443-.567.561-.741z"/><path fill="#EF7D00" fill-rule="nonzero" d="M382.949 143.953c.038-.502-5.585-7.451-4.16-8.349 1.429.269 3.767 3.43 5.663 2.403-.573-1.231-2.268-.537-4.19-3.69-1.921-3.563-2.205-8.915-8.936-14.755 4.358 6.179 14.247 9.798 14.667 7.997.416-1.8-8.709-8.611-8.24-10.252 1.813 3.371 10.976 10.881 17.728 10.261.463-1.446-5.53-4.366-7.071-7.091-4.313-2.657-15.853-11.782-16.086-13.899-4.198-5.617-6.819-7.318-8.041-7.964-.473-.511-.591-.998-.683-1.308-2.606-5.636.845-7.466 2.867-7.738 1.665-.171 2.146.059 3.345-.472-1.42-.511-2.834-.986-4.251-1.494 1.845 1.243 6.565.148 5.544 3.729 2.069-.721 6.471-5.527-4.992-6.61-3.729-3.926-19.068-6.182-22.906 10.949.307.243.467.437 1.444 1.107-4.845-2.155-17.908-3.814-22.617-4.511-12.72-3.368-25.931-11.477-27.201-10.479-1.697.69 7.685 8.697 7.198 8.874-8.136-4.352-15.57-7.434-22.484-10.238-4.865-1.668-9.739-5.553-10.276-4.816-1.792 3.404 7.799 11.957 9.582 12.963 1.786.963 15.818 6.932 15.611 7.006-21.134-8.797-24.677-10.395-25.739-11.407-1.863-.387-6.401-6.005-7.664-5.644-.694.625.697 9.502 10.781 13.488 1.644 1.101 21.619 7.672 21.421 8.186-.048.13-22.876-8.641-23.762-8.954-4.401-1.582-9.804-7.132-10.814-6.509-.962.566 2.492 6.574 6.938 8.458 2.332.941 11.274 5.003 19.331 7.59.513.171-14.481-5.217-21.693-7.98-3.268-1.662-4.806-3.738-5.305-3.292-.735.446 1.19 9.32 24.358 14.324.611.239 8.154-1.638 7.782-1.39-.094.065-7.492 1.541-8.213 1.491-.64-.092-4.694.439-4.767.631-.246.6 1.47 3.779 13.432 3.115 1.529-.083 9.828-2.772 9.131-2.194-.348.29-11.301 3.555-12.136 3.619-.724.092-4.573.461-4.715.836-.174.514 2.849 2.775 9.273 3.135 5.688.278 16.496-3.185 16.278-2.961-.216.224-10.418 3.431-10.687 3.625-.369.192-4.104.378-4.236.641-.305.655 5.39 5.538 22.229.328-1.691 2.096-9.854 3.527-9.842 3.905-.038.275 1.798 1.901 4.652 2.483 1.426.292 3.378.233 5.164-.026 3.203-.588 6.583-1.751 10.872-5.391.514 1.142-10.719 6.356-10.19 6.855 2.435 2.069 10.524-.269 11.056-.54.528-.272 15.578-8.054 15.528-8.957.233 1.154-19.405 10.941-19.192 11.342 1.261 1.845 7.968-.094 8.289-.266.319-.168 8.562-4.251 8.786-4.372.227-.121-9.683 5.32-8.8 6.149-.428 3.531 15.475-2.438 16.724-3.182.623-.372-7.641 3.33-7.664 5.093 2.66 4.124 11.182 2.816 12.496 1.907.659-.452-.773 3.067-.313 2.748.16-.068 1.854-1.904 2.504-3.232-.207 1.154-1.143 2.969-1.686 5.054-.546 2.084-.703 4.434-1.452 6.934-.172 1.095 5.252-2.146 4.463-9.898.464 4.032-1.712 11.572-1.142 11.965 1.139.782 4.289-3.755 4.605-6.826.936 1.55 2.899 4.786 4.588 5.53-.183-2.345.032-2.238-.729-4.541.439-3.061.501-7.297.605-12.08 4.59 8.062 6.421 11.466 5.136 17.639 1.364.523 3.546-4.307 3.369-6.796 1.753 6.911 9.314 7.944 9.435 7.744z"/><path fill-rule="nonzero" d="M382.362 143.575l-.88-1.296a77.862 77.862 0 01-1.603-2.418c-1.252-1.987-2.215-3.977-1.281-4.564a.352.352 0 01.259-.047c.6.112 1.275.617 2.005 1.166.98.735 2.078 1.562 3.005 1.414-.183-.159-.431-.275-.717-.407-.842-.39-1.978-.916-3.197-2.917l-.012-.018c-.526-.977-.927-2.072-1.367-3.271-.83-2.258-1.795-4.894-3.994-7.729-1.347-1.095-2.581-2.344-3.552-3.716a.36.36 0 01.024-.446c.13-.15.36-.168.51-.036a26.602 26.602 0 013.552 3.699 26.317 26.317 0 005.42 3.351c1.314.602 2.518 1.016 3.46 1.205.844.168 1.432.171 1.618-.021a.075.075 0 00.026-.044c.166-.715-1.998-2.84-4.124-4.93-2.22-2.182-4.401-4.325-4.112-5.344a.363.363 0 01.676-.059c1.027 1.896 4.437 5.131 8.422 7.437 2.82 1.632 5.914 2.787 8.62 2.645-.194-.564-1.437-1.514-2.83-2.583-1.583-1.214-3.345-2.563-4.148-3.909-2.48-1.544-7.212-5.104-10.899-8.289-2.796-2.415-5.008-4.65-5.258-5.719-2.064-2.754-3.735-4.546-5.04-5.73-1.304-1.178-2.237-1.751-2.831-2.064a.365.365 0 01-.115-.097c-.484-.528-.629-1.024-.726-1.364l-.012-.038c-.505-1.096-.788-2.061-.903-2.902-.18-1.355.079-2.4.567-3.197.489-.797 1.207-1.335 1.939-1.674a5.542 5.542 0 011.556-.455h.012a18.07 18.07 0 011.352-.082c.322-.009.593-.018.868-.057l-1.562-.543c-.652-.133-1.263-.307-1.733-.623a.362.362 0 01.325-.64c.528.189 1.06.375 1.591.558.269.056.549.1.83.147.543.089 1.086.18 1.573.319 1.201.342 2.078.951 1.928 2.397.508-.319 1.039-.803 1.381-1.364.234-.383.37-.797.331-1.204-.039-.399-.254-.812-.723-1.202-.971-.805-2.95-1.496-6.512-1.833a.378.378 0 01-.231-.109c-.927-.977-2.63-1.851-4.706-2.318a14.583 14.583 0 00-6.24-.026 13.018 13.018 0 00-6.274 3.318c-2.175 2.067-3.991 5.155-5.018 9.586l.065.056c.209.18.478.41 1.177.889a.363.363 0 01-.372.622c-4.224-1.869-14.79-3.374-20.467-4.18l-2.034-.295-.059-.012c-7.118-1.886-14.374-5.243-19.623-7.672-4.038-1.869-6.854-3.174-7.241-2.87a.333.333 0 01-.089.053l.083.207c.484 1.187 3.123 3.79 5.072 5.712 1.195 1.181 2.143 2.117 2.261 2.436.091.254.021.431-.227.522a.354.354 0 01-.296-.02 178.73 178.73 0 00-11.678-5.686c-3.711-1.654-7.298-3.127-10.761-4.529-2.506-.862-5.001-2.294-6.92-3.395-1.632-.936-2.804-1.612-2.931-1.556-.555 1.134.342 2.988 1.771 4.919 2.498 3.38 6.581 6.893 7.685 7.519.903.484 5.012 2.285 8.782 3.935 2.749 1.201 5.317 2.326 6.427 2.902l.366.153-.015.039c.13.076.207.136.222.168l.012.05c.05.192-.012.322-.216.411a.358.358 0 01-.28 0c-10.54-4.387-16.709-6.985-20.406-8.626-3.557-1.58-4.785-2.262-5.372-2.787-1.001-.281-2.507-1.671-3.968-3.02-1.379-1.273-2.716-2.507-3.283-2.604-.094.428.018 1.461.481 2.816.52 1.518 1.488 3.386 3.109 5.187 1.63 1.807 3.92 3.548 7.088 4.8a.46.46 0 01.088.047c.21.136.709.361 1.418.644l2.736 1.045c1.925.711 4.29 1.553 6.637 2.388 2.857 1.019 5.691 2.031 7.72 2.799 1.954.741 3.17 1.355 3.028 1.73v.003a.363.363 0 01-.696-.074c-1.784-.449-6.719-2.273-11.644-4.148l-5.497-2.093c-.847-.316-1.609-.605-2.246-.856a551.927 551.927 0 00-4.139-1.573l-.03-.012c-2.358-.856-4.962-2.796-7.055-4.355-1.733-1.29-3.094-2.302-3.398-2.184-.036.115.006.351.115.676.133.404.369.9.688 1.444 1.172 1.992 3.442 4.59 6.061 5.7.46.186 1.219.511 2.193.93 1.993.853 4.895 2.102 8.139 3.389 2.76 1.007 5.264 1.913 6.923 2.515a32.48 32.48 0 011.47.561l.591.189a.358.358 0 01.238.446l-.002.009a.361.361 0 01-.452.239l-.018-.006c-3.011-.966-6.14-2.138-9.007-3.274-4.372-1.597-9.381-3.439-12.7-4.712l-.035-.014c-1.692-.859-2.926-1.828-3.797-2.513-.643-.505-1.045-.818-1.098-.832-.059.224.042.776.461 1.591.469.918 1.343 2.096 2.834 3.395 3.274 2.852 9.485 6.247 20.892 8.712l.062.021c.018.005.05.008.095.008a70.835 70.835 0 002.19-.369l.393-.071c.803-.165 1.674-.354 2.453-.522l.015-.003c1.47-.316 2.642-.57 2.81-.316l.009.012c.121.192.089.369-.121.508l-.056.018a.314.314 0 01-.083.02c-.599.148-2.979.644-5.03 1.019a31.22 31.22 0 01-1.996.345c-.635.1-1.104.159-1.272.147l-.036-.005c-.31-.036-1.452.073-2.527.218-.977.127-1.827.145-1.842.186l.003.003c.006.127.109.34.375.605.31.31.818.656 1.609.977 1.866.762 5.222 1.361 11.085 1.037.703-.039 3.032-.691 5.146-1.282 2.14-.599 4.077-1.142 4.322-.844.159.192.138.387-.086.576-.213.174-3.082 1.086-6.002 1.957-2.908.868-5.895 1.709-6.338 1.742l-.523.062c-1.142.13-3.504.395-3.837.519.065.086.271.254.617.487.525.352 1.322.756 2.406 1.122 1.455.496 3.415.921 5.889 1.06h.003c4.31.207 11.646-1.771 14.729-2.604.997-.268 1.606-.434 1.78-.268l.005.006c.157.156.178.342-.003.522a.349.349 0 01-.191.1c-.753.334-3.454 1.217-5.961 2.035-2.338.764-4.502 1.473-4.575 1.526l-.048.029c-.221.116-1.068.204-1.978.295-.856.089-1.753.139-2.022.172.121.165.437.425.98.732.768.431 1.943.883 3.596 1.166 3.463.599 8.971.463 17.14-2.067a.367.367 0 01.455.242.365.365 0 01-.065.334c-1.216 1.505-5.37 2.636-7.947 3.339-1.06.289-1.819.165-1.813.331l-.003.056c-.012.076.602.549 1.647 1.104.723.387 1.645.759 2.716.977.656.133 1.435.189 2.256.186a20.345 20.345 0 002.787-.219h.003c1.57-.289 3.185-.72 4.927-1.52 1.75-.806 3.64-1.99 5.759-3.784a.36.36 0 01.591.212c.192.989-3.407 3.002-6.451 4.703-1.606.897-3.046 1.703-3.598 2.128.82.502 2.152.623 3.586.552 3.047-.147 6.474-1.157 6.805-1.328.349-.18 7.026-3.631 11.505-6.215 2.19-1.263 3.835-2.261 3.826-2.4a.358.358 0 01.342-.38.358.358 0 01.381.342c.009.133-.13.325-.387.564-1.579 1.517-7.696 4.818-12.588 7.46-3.35 1.807-6.253 2.973-6.258 3.159.369.496 1.34.637 2.462.602 2.308-.077 5.139-.906 5.34-1.012.168-.089 2.563-1.279 4.812-2.395 1.202-.599 2.775-1.496 3.974-1.975a.358.358 0 01.487.148.363.363 0 01-.142.487l-.08.044c-.782.437-6.972 3.891-8.387 5.403-.118.121-.318.07-.262.121a.36.36 0 01.109.307.578.578 0 00.021.248l.003.015c.121.318.675.445 1.502.442.963-.005 2.247-.218 3.655-.543 3.362-.779 7.386-2.199 9.538-3.055a29.43 29.43 0 011.128-.529c.133-.059.254-.109.366-.15.201-.186.34-.207.41-.136.585-.148.603.103.057.688l-.018.021a.472.472 0 01-.112.085c-.189.115-.706.342-1.444.641l-.092.044c-2.101 1.024-5.706 2.958-5.936 4.003l.009.012c1.284 1.857 3.917 2.494 6.4 2.562 2.503.068 4.821-.431 5.482-.853l.056-.038c.266-.168.467-.121.62.1.201.289-.027 1.098-.239 1.848l-.03.109c.198-.236.428-.516.662-.817.398-.514.791-1.078 1.027-1.565a.363.363 0 01.682.224c-.109.606-.39 1.343-.717 2.197-.328.862-.706 1.848-.975 2.884-.233.88-.395 1.833-.563 2.825-.207 1.199-.422 2.459-.789 3.764l.009-.003c.242-.124.546-.339.877-.649 1.051-.989 2.326-2.876 2.719-5.689.094-.977.139-1.913.091-2.734-.014-.165-.044-.378-.044-.534a.36.36 0 01.325-.396.358.358 0 01.395.319 14.025 14.025 0 01-.044 3.41c-.165 1.73-.484 3.563-.753 5.101-.313 1.801-.549 3.162-.499 3.197a.157.157 0 00.068.024c.189.018.473-.148.803-.44.387-.339.806-.835 1.211-1.42.95-1.382 1.803-3.241 1.957-4.729a.362.362 0 01.673-.148c.463.768 1.181 1.955 1.99 3.038.602.806 1.254 1.556 1.875 2.013l-.036-.673c-.05-1.042-.068-1.396-.629-3.091a.408.408 0 01-.012-.18c.402-2.81.485-6.624.579-10.943l.023-1.075a.359.359 0 01.37-.354c.132 0 .245.074.307.183 2.305 4.05 3.92 6.931 4.8 9.591.847 2.56 1.015 4.898.469 7.832.231-.121.496-.401.765-.779.401-.564.791-1.328 1.104-2.149.46-1.205.756-2.512.688-3.448a.364.364 0 01.717-.109c.759 2.984 2.642 4.829 4.502 5.942a12.182 12.182 0 003.023 1.287c.393.107.723.177.969.219zm-.281-1.706c.59.867 1.063 1.558 1.193 1.927a.373.373 0 01.038.16v.026a.372.372 0 01-.248.319l-.053.018c-.171.044-.877-.009-1.81-.263a12.849 12.849 0 01-3.203-1.364c-1.63-.974-3.277-2.477-4.272-4.744-.13.655-.333 1.34-.584 1.993-.334.873-.753 1.694-1.193 2.311-.481.673-1.01 1.116-1.52 1.154a.952.952 0 01-.411-.062.364.364 0 01-.227-.413c.626-3.017.493-5.355-.357-7.923-.777-2.347-2.152-4.898-4.089-8.319-.091 4.215-.18 7.938-.57 10.722.561 1.715.582 2.099.635 3.203.018.339.039.753.086 1.346a.354.354 0 01-.033.174.363.363 0 01-.478.186c-.909-.401-1.869-1.441-2.719-2.577a32.691 32.691 0 01-1.535-2.282c-.345 1.39-1.095 2.914-1.91 4.098-.437.637-.894 1.177-1.323 1.555-.481.426-.953.656-1.358.614a.883.883 0 01-.407-.147c-.434-.298-.162-1.857.198-3.918l.171-.992a8.897 8.897 0 01-1.65 2.167c-.387.36-.75.617-1.042.768-.39.198-.721.224-.927.091-.171-.106-.251-.277-.225-.505 0-.026.006-.052.015-.082.416-1.391.649-2.749.868-4.036.172-.998.337-1.957.579-2.884.251-.956.576-1.845.876-2.642-.425.51-.832.933-1.053 1.128a.324.324 0 01-.083.082c-.227.157-.413.127-.555-.053l-.027-.032c-.165-.237.009-.859.198-1.527l.254-.909c-1.03.419-3.209.833-5.494.771-2.672-.071-5.529-.786-6.976-2.867l-.091-.136a.348.348 0 01-.059-.206c.008-.724 1.095-1.671 2.465-2.572-1.769.588-3.711 1.172-5.468 1.577-1.449.336-2.786.555-3.811.561-1.142.006-1.939-.26-2.185-.918l-.008-.024a1.146 1.146 0 01-.065-.422c-.145-.275-.003-.612.354-.992.313-.334.839-.753 1.479-1.211l-1.278.641c-.216.115-3.242 1.015-5.653 1.092-1.365.045-2.569-.177-3.094-.93l-.033-.047c-.13-.248.641-.815 1.937-1.588-1.379.333-3.197.682-4.886.765-1.751.082-3.389-.116-4.334-.898l-.038-.032c-.213-.201-.192-.425.029-.674l.021-.023c.242-.254.889-.667 1.748-1.169-.727.204-1.441.36-2.144.49l-.035.009c-.942.136-1.939.218-2.884.221-.868.006-1.698-.056-2.403-.2a10.894 10.894 0 01-2.914-1.046c-.954-.51-1.606-1.109-1.881-1.499a.369.369 0 01-.147-.284l.003-.056c.079-.378 1.027-.634 2.344-.995 1.665-.451 4.012-1.092 5.703-1.86-7.073 1.928-12 1.987-15.218 1.432-1.745-.301-2.999-.785-3.826-1.251-.906-.508-1.349-1.057-1.397-1.367a.587.587 0 01.018-.245l.024-.062c.162-.325 1.473-.458 2.677-.582.836-.085 1.615-.165 1.719-.218v.003c.254-.121 1.313-.481 2.677-.93-2.837.59-5.86 1.057-8.109.947h-.015c-2.548-.144-4.573-.581-6.081-1.095-1.146-.39-2.005-.823-2.575-1.207-.623-.42-.941-.839-.962-1.125l-.003-.056a.594.594 0 01.024-.127l.005-.015c.201-.525 3.115-.853 4.479-1.006l.549-.065c.221-.018 1.252-.29 2.627-.68-5.73.281-9.077-.336-10.973-1.11-.894-.362-1.482-.767-1.851-1.136-.41-.413-.57-.809-.587-1.081a.81.81 0 01.035-.271l.009-.03c.089-.23 1.225-.487 2.427-.646.277-.036.561-.071.835-.101-10.164-2.447-15.888-5.65-19.014-8.372-1.571-1.369-2.498-2.624-3.006-3.613-.543-1.054-.614-1.86-.484-2.206a.561.561 0 01.212-.283c.467-.375 1.046.08 2.002.83.841.661 2.034 1.594 3.664 2.426l.442.168c-2.072-1.369-3.799-3.448-4.782-5.119-.345-.59-.602-1.13-.75-1.579-.171-.508-.206-.927-.088-1.204a.635.635 0 01.268-.313c.694-.414 2.241.738 4.222 2.214 1.018.758 2.158 1.606 3.324 2.37a17.64 17.64 0 01-1.703-1.65c-1.698-1.883-2.711-3.843-3.257-5.435-.561-1.641-.628-2.943-.442-3.413a.683.683 0 01.15-.238.378.378 0 01.163-.098c.85-.242 2.453 1.237 4.109 2.766 1.437 1.329 2.922 2.698 3.723 2.87.065.011.13.044.182.094.502.478 1.627 1.113 5.238 2.716.933.413 2.031.892 3.33 1.45-1.766-1.4-4.783-4.204-6.781-6.906-1.591-2.155-2.557-4.28-1.822-5.709l.035-.062c.458-.626 1.884.192 3.888 1.343 1.896 1.09 4.358 2.501 6.802 3.339l.018.009c3.448 1.399 7.032 2.87 10.796 4.544a181.53 181.53 0 0110.04 4.826l-.906-.897c-1.993-1.966-4.694-4.632-5.234-5.958-.222-.543-.157-.941.289-1.139.827-.472 3.764.889 7.935 2.819 5.226 2.415 12.447 5.757 19.499 7.628l2.017.29c4.983.708 13.718 1.954 18.731 3.53a.408.408 0 01.003-.135c1.054-4.706 2.97-7.983 5.278-10.173a13.77 13.77 0 016.619-3.505 15.318 15.318 0 016.551.033c2.152.481 3.941 1.39 4.98 2.424 3.646.357 5.716 1.104 6.772 1.98.635.529.93 1.11.986 1.695.053.578-.127 1.142-.436 1.65-.567.933-1.598 1.695-2.356 1.966a.355.355 0 01-.243.018.367.367 0 01-.25-.449c.309-1.08-.009-1.65-.614-1.986a.383.383 0 01-.184.18c-.867.384-1.378.401-2.152.425-.351.008-.761.023-1.299.076a4.887 4.887 0 00-1.337.393c-.62.287-1.219.735-1.627 1.394-.407.664-.619 1.555-.463 2.724.103.777.372 1.677.85 2.716l.039.119c.079.265.192.652.54 1.047.629.34 1.6.942 2.922 2.144 1.35 1.222 3.074 3.07 5.187 5.895.039.05.062.112.068.18.092.812 2.259 2.961 5.034 5.358 3.696 3.195 8.437 6.761 10.873 8.263a.4.4 0 01.135.136c.706 1.246 2.445 2.578 4.003 3.773 1.807 1.381 3.386 2.592 3.106 3.581a.365.365 0 01-.322.278c-2.952.271-6.329-.954-9.376-2.719a30.962 30.962 0 01-2.627-1.704c1.679 1.707 3.035 3.274 2.834 4.136a.81.81 0 01-.21.387c-.372.381-1.193.446-2.282.224-.995-.197-2.255-.629-3.619-1.255a27.02 27.02 0 01-3.805-2.143c1.399 2.22 2.157 4.287 2.828 6.111.428 1.172.82 2.244 1.322 3.171 1.101 1.806 2.123 2.279 2.876 2.627.581.269 1.033.478 1.316 1.069v.003a.364.364 0 01-.147.493c-1.408.762-2.893-.354-4.195-1.331-.573-.434-1.11-.836-1.527-.987-.194.452.629 1.94 1.589 3.463.525.833 1.101 1.68 1.591 2.395zm-89.155-41.797c.021-.068-.292-.124-.823-.251.51.201.803.298.823.251zm-15.469 4.629l-.003.006.003-.006z"/><path fill="#EF7D00" fill-rule="nonzero" d="M306.53 92.774s-3.123 2.164-7.009 2.037c.972 3.564 9.022.827 9.022.827s-3.888 3.947-6.663 4.582c1.665 1.275 8.674.829 9.854.192 1.181-.638 3.262-3.118 3.262-3.118s-7.218 7.637-8.257 7.572c-.141.892 7.564.573 9.161-.761 1.594-1.337 5.621-3.313 5.621-3.313s-10.551 6.749-11.035 6.749c3.956.954 11.867-1.146 16.933-4.009-7.496 4.582-8.189 5.408-12.006 6.937 3.401.7 5.134 2.799 16.656-1.783 6.592-2.863 10.338-8.083 10.338-8.083-4.095 5.028-10.548 9.294-17.695 13.495-.416.761 7.631 3.882 17.902-5.919L306.53 92.774zm0 0l-50.529-53.18 50.529 53.18z"/><path fill-rule="nonzero" d="M306.323 92.476a.362.362 0 01.505.092.367.367 0 01-.092.505c-.008.005-2.928 2.028-6.671 2.104 1.47 2.456 8.342.124 8.363.118a.36.36 0 01.458.231.37.37 0 01-.083.366c-.012.009-3.212 3.259-5.952 4.39.809.248 1.993.363 3.236.386 2.347.045 4.844-.236 5.476-.575.216-.116.464-.298.724-.52a201.815 201.815 0 002.435-2.518.365.365 0 01.508-.041.36.36 0 01.044.51c-.003.006-1.376 1.642-2.56 2.631-1.759 1.768-4.002 3.92-5.24 4.738l.319.044c.529.062 1.231.083 2.002.062 2.232-.062 5.027-.466 5.872-1.175 1.629-1.364 5.682-3.35 5.694-3.356a.361.361 0 01.484.168.361.361 0 01-.144.472c-.363.23-7.321 4.676-10.105 6.25 1.783.18 4.115-.094 6.559-.673 3.156-.747 6.483-2.002 9.06-3.454l.024-.015a.361.361 0 01.366.623c-2.234 1.37-3.897 2.424-5.207 3.253-2.599 1.648-3.812 2.415-5.834 3.292l.552.162c2.58.768 5.314 1.583 14.808-2.193 2.217-.963 4.104-2.194 5.63-3.398 1.724-1.461 3.262-2.976 4.558-4.564a.362.362 0 11.59.422c-.005.012-1.641 2.288-4.652 4.673a56.103 56.103 0 01-3.132 2.466c-2.935 2.16-6.232 4.221-9.701 6.267.127.073.316.156.564.242.484.162 1.154.295 1.983.336 3.13.157 8.447-1.009 14.602-6.881a.36.36 0 01.511.012.363.363 0 01-.012.513c-6.335 6.046-11.868 7.245-15.136 7.082-.9-.047-1.638-.194-2.179-.377-.567-.189-.947-.437-1.104-.659l-.023-.032a.502.502 0 01-.03-.531.385.385 0 01.136-.139c2.633-1.55 5.175-3.109 7.54-4.709-9.63 3.811-12.476 2.964-15.162 2.164a19.392 19.392 0 00-1.559-.416.36.36 0 01-.071-.691c2.627-1.051 3.764-1.771 6.731-3.655l.575-.363a38.753 38.753 0 01-4.259 1.278c-3.032.718-5.92.975-7.892.508a.363.363 0 01.054-.723c.135 0 1.508-.824 3.232-1.89-1.213.251-2.648.399-3.902.434-.812.024-1.554.003-2.108-.065-.662-.079-1.128-.25-1.273-.522a.511.511 0 01-.056-.322.362.362 0 01.381-.307c.413.024 2.25-1.674 4.053-3.457-1.18.227-3.011.378-4.738.343-1.851-.036-3.613-.284-4.401-.871a.371.371 0 01-.148-.218.365.365 0 01.274-.435c1.793-.413 4.089-2.279 5.412-3.471-2.445.617-7.212 1.417-8.03-1.462a.337.337 0 01-.024-.135.364.364 0 01.375-.352c3.767.124 6.781-1.966 6.79-1.972z"/><path fill="#EF7D00" fill-rule="nonzero" d="M362.322 114.033s.697 2.99 3.472 5.284c2.775 2.291 2.985 4.517 2.985 4.517l-6.457-9.801zm0 0L256.001 39.594l106.321 74.439z"/><path fill-rule="nonzero" d="M361.971 114.116a.362.362 0 11.706-.166c.002.009.667 2.875 3.347 5.086 2.893 2.389 3.115 4.76 3.115 4.768a.364.364 0 01-.723.062c0-.006-.196-2.078-2.852-4.271-2.873-2.371-3.593-5.471-3.593-5.479z"/><path fill="#EF7D00" fill-rule="nonzero" d="M360.935 94.558s.971 2.671 3.817 4.389c2.917 1.718 7.289 7.13 7.634 8.083.337 1.157 2.014 9.486 1.875 10.377l-13.326-22.849zm0 0L256.001 39.594l104.934 54.964z"/><path fill-rule="nonzero" d="M360.595 94.682a.366.366 0 01.216-.467.365.365 0 01.466.216c.003.008.927 2.553 3.664 4.206l.009.006c1.225.723 2.686 2.07 4.009 3.469 1.91 2.022 3.551 4.201 3.77 4.797l.008.036c.207.717.871 3.899 1.355 6.571.34 1.886.591 3.537.526 3.944a.363.363 0 01-.413.304.36.36 0 01-.302-.413c.048-.319-.194-1.887-.525-3.708-.478-2.645-1.133-5.789-1.334-6.495-.204-.543-1.769-2.586-3.614-4.537-1.284-1.361-2.692-2.657-3.852-3.345l-.012-.006c-2.955-1.786-3.968-4.57-3.971-4.578z"/><path fill="#EF7D00" fill-rule="nonzero" d="M343.24 98.694c.209 1.018-4.095 6.172 1.803 12.221-5.343 5.982-5.343 6.746-5.343 6.746s2.985 1.526 8.328-2.675c8.812 9.931 5.878 14.475 5.878 14.475L343.24 98.694zm0 0l-87.239-59.1 87.239 59.1z"/><path fill-rule="nonzero" d="M342.885 98.764a.36.36 0 01.284-.425.363.363 0 01.428.28c.065.326-.115.774-.36 1.394-.797 2.005-2.406 6.061 2.066 10.648a.364.364 0 010 .508c-3.776 4.228-4.833 5.754-5.128 6.279.865.237 3.472.523 7.629-2.745a.363.363 0 01.51.059c8.975 10.123 5.908 14.876 5.899 14.89a.366.366 0 01-.499.119.366.366 0 01-.118-.499c.009-.015 2.742-4.242-5.615-13.79-5.081 3.87-8.104 2.657-8.411 2.519a.366.366 0 01-.23-.384c0-.003.012-.851 5.21-6.693-4.51-4.824-2.825-9.066-1.986-11.177.2-.505.345-.867.321-.983z"/><path fill="#EF7D00" fill-rule="nonzero" d="M353.203 122.452s-.812-1.068.635-5.051c1.305 1.441 2.751 1.748 3.389 2.332.635.582 7.289 1.465 7.711 5.545l-11.735-2.826zm0 0l-97.202-82.858 97.202 82.858z"/><path fill-rule="nonzero" d="M353.495 122.24a.361.361 0 01-.079.505.365.365 0 01-.508-.08c0-.003-.924-1.222.59-5.388a.363.363 0 01.62-.106c.777.856 1.627 1.296 2.297 1.641.428.222.788.408 1.057.653.088.082.546.227 1.169.425 2.214.703 6.312 2.002 6.657 5.349a.362.362 0 11-.72.074c-.298-2.873-4.101-4.077-6.159-4.73-.705-.224-1.228-.392-1.44-.584-.195-.18-.517-.345-.895-.543-.608-.313-1.355-.7-2.096-1.388-1.121 3.345-.493 4.169-.493 4.172z"/><path fill="#EF7D00" fill-rule="nonzero" d="M361.026 85.066c0-.301-1.34-2.937-6.338.358 2.678.15 5.323 1.558 6.338-.358z"/><path fill-rule="nonzero" d="M360.636 85.013l-.07-.109a1.58 1.58 0 00-.535-.49c-.271-.154-.637-.266-1.13-.266-.75-.003-1.765.263-3.121 1.03.446.068.883.154 1.305.237 1.571.307 2.929.573 3.551-.402zm.535-.508c.153.231.218.455.218.561a.35.35 0 01-.044.169c-.838 1.588-2.483 1.266-4.398.891-.736-.144-1.515-.295-2.28-.34a.352.352 0 01-.283-.162.365.365 0 01.103-.502c1.952-1.287 3.386-1.7 4.414-1.7.631-.003 1.119.153 1.488.363.378.216.628.49.782.72z"/><path fill="#EF7D00" fill-rule="nonzero" d="M410.876 104.878c-3.02-.307-6.202-.93-7.897-1.804 4.228 1.22 6.849 1.934 8.499 2.421l-.602-.617zm2.743 2.855c-3.62.561-17.235-1.276-18.596-3.197 4.898 3.48 7.59 4.153 10.283 5.727-3.304 1.346-9.427 2.692-20.689-4.606 14.814 12.352 28.157 11.567 30.239 13.811-5.143 6.964-25.096-4.154-34.278-9.769-9.181-5.612 20.078 13.589 22.77 13.249-1.346 1.91-11.017.227-11.631-.673l21.902-14.542zm-14.87-14.371L256.001 39.594l142.748 53.768z"/><path fill-rule="nonzero" d="M413.908 108.043a7.39 7.39 0 01-1.101.133c-.895.047-2.076.017-3.404-.071-3.345-.225-7.658-.856-10.76-1.659 1.549.903 2.84 1.511 4.012 2.063 1.003.473 1.921.907 2.833 1.438a.367.367 0 01.134.499.37.37 0 01-.192.156c-1.692.691-4.104 1.376-7.526.96-2.326-.281-5.122-1.075-8.478-2.731 8.399 5.698 15.947 7.484 20.668 8.6 2.556.605 4.31 1.018 5.027 1.791a.366.366 0 01.009.485c-2.707 3.622-9.122 2.592-16.027-.068-3.032-1.169-6.164-2.648-9.11-4.178 5.901 3.629 12.195 7.269 13.311 7.127a.362.362 0 01.404.319.354.354 0 01-.091.286 1.5 1.5 0 01-.369.343c-1.084.741-3.67.761-6.138.478-2.447-.28-4.82-.862-5.473-1.323a.832.832 0 01-.219-.209.366.366 0 01.095-.505.365.365 0 01.505.094l.035.027c.57.402 2.796.927 5.14 1.196 2.06.233 4.183.268 5.281-.166-3.409-1.16-13.648-7.46-19.555-11.259a184.004 184.004 0 01-3.468-2.276c-.44-.299-.839-.573-1.193-.821-.842-.472-1.231-.785-1.299-.942-1.417-1.089-.826-.98 2.131.57l.021.012c.236.124.77.437 1.656.98 4.579 2.799 11.844 6.973 18.593 9.571 6.456 2.486 12.423 3.542 14.994.552-.718-.502-2.27-.868-4.423-1.376-5.626-1.331-15.221-3.599-25.533-12.192a.364.364 0 01-.085-.487.361.361 0 01.501-.107c5.577 3.614 9.87 5.087 13.173 5.488 2.813.343 4.906-.097 6.462-.643-.679-.36-1.367-.685-2.102-1.033-1.783-.839-3.837-1.807-6.648-3.72-.466-.227-.803-.463-.971-.7a.363.363 0 01.511-.502c.377.269.741.52 1.092.756 2.495 1.104 8.667 2.081 13.122 2.383 1.302.085 2.453.115 3.318.068l.546-.042.591.635zm-1.904-2.013c-.824-.251-1.987-.582-3.649-1.048l-.579-.163c-1.989-.348-3.811-.827-4.962-1.42a.366.366 0 01-.157-.49.365.365 0 01.446-.174c1.833.528 3.499.998 4.892 1.391a43.08 43.08 0 002.489.348l1.52 1.556z"/><path fill="#EF7D00" fill-rule="nonzero" d="M412.529 110.036c-1.712.227-6.855.227-7.59.115l7.59-.115zm0 0L256.001 39.594l156.528 70.442z"/><path fill-rule="nonzero" d="M412.482 109.678a.364.364 0 01.408.313.364.364 0 01-.313.405c-.774.1-2.224.159-3.661.18-1.807.026-3.607-.003-4.03-.068a.365.365 0 01-.307-.413.364.364 0 01.414-.304c.398.059 2.146.085 3.914.059 1.411-.021 2.831-.074 3.575-.172z"/><path fill="#EF7D00" fill-rule="nonzero" d="M302.228 90.737s11.171 5.412 15.892 5.028c-1.252 1.083-3.124 1.529-3.124 1.529 1.179.446 4.441 2.037 9.368 1.019-1.178 1.08-2.708 2.29-2.708 2.29s4.234 1.465 9.022-.829c-1.455 1.656-2.288 2.867-2.288 2.867l3.33.189-29.492-12.093zm0 0l-46.227-51.143 46.227 51.143z"/><path fill-rule="nonzero" d="M302.072 91.065a.365.365 0 01-.171-.484.36.36 0 01.481-.171c.032.014 11.085 5.367 15.708 4.995a.36.36 0 01.39.333.358.358 0 01-.145.319c-.708.605-1.591 1.019-2.258 1.27 1.562.59 4.372 1.423 8.216.628a.367.367 0 01.428.284.365.365 0 01-.112.339 51.528 51.528 0 01-2.167 1.857c1.346.298 4.549.703 8.08-.986a.365.365 0 01.484.171.355.355 0 01-.056.393 38.672 38.672 0 00-1.878 2.303l2.669.153a.362.362 0 11-.041.723l-3.33-.191a.354.354 0 01-.198-.071.366.366 0 01-.074-.508c.003-.003.484-.697 1.337-1.745-4.318 1.506-7.879.275-7.89.272a.382.382 0 01-.169-.121.362.362 0 01.056-.508c.003-.003.833-.658 1.745-1.44-3.929.504-6.66-.591-7.962-1.111l-.349-.136a.362.362 0 01.036-.69c.006 0 1.048-.251 2.067-.821-5.252-.387-14.868-5.045-14.897-5.057z"/></svg>