<svg xmlns="http://www.w3.org/2000/svg" shape-rendering="geometricPrecision" text-rendering="geometricPrecision" image-rendering="optimizeQuality" fill-rule="evenodd" clip-rule="evenodd" viewBox="0 0 512 420.166"><path d="M74.316 0h363.369c20.398 0 38.963 8.366 52.425 21.816h.075C503.634 35.266 512 53.862 512 74.316V345.85c0 20.398-8.366 38.963-21.815 52.425l-.075.075c-13.462 13.45-32.027 21.816-52.425 21.816H74.316c-20.454 0-39.05-8.366-52.5-21.816l-1.065-1.165C7.926 383.822 0 365.703 0 345.85V74.316c0-20.454 8.366-39.05 21.816-52.5C35.266 8.366 53.862 0 74.316 0zm148.528 285.433V134.732h67.515c27.162 0 45.814 5.789 55.936 17.361 10.129 11.578 15.194 30.907 15.194 57.993 0 27.087-5.065 46.415-15.194 57.987-10.122 11.571-28.774 17.36-55.936 17.36h-67.515zm68.239-112.118H271.07v73.542h20.013c6.589 0 11.373-.765 14.346-2.296 2.973-1.524 4.457-5.023 4.457-10.485v-47.987c0-5.461-1.484-8.96-4.457-10.485-2.973-1.531-7.757-2.289-14.346-2.289zM150.511 285.433V134.732h48.227v150.701h-48.227z"/></svg>