<svg xmlns="http://www.w3.org/2000/svg" shape-rendering="geometricPrecision" text-rendering="geometricPrecision" image-rendering="optimizeQuality" fill-rule="evenodd" clip-rule="evenodd" viewBox="0 0 512 512"><g fill-rule="nonzero"><path fill="#4D4D4D" d="M256 0c70.684 0 134.69 28.664 181.013 74.987C483.337 121.311 512 185.316 512 256c0 70.684-28.663 134.689-74.987 181.013C390.69 483.336 326.684 512 256 512c-70.676 0-134.689-28.664-181.013-74.987C28.664 390.689 0 326.676 0 256c0-70.684 28.664-134.689 74.987-181.013C121.311 28.664 185.316 0 256 0z"/><path fill="#fff" d="M256.002 19.596c65.277 0 124.382 26.467 167.162 69.243 42.776 42.78 69.242 101.884 69.242 167.162s-26.466 124.383-69.245 167.16c-42.777 42.779-101.882 69.245-167.159 69.245-65.278 0-124.383-26.466-167.163-69.242-42.776-42.78-69.243-101.885-69.243-167.163S46.063 131.619 88.839 88.839c42.78-42.776 101.885-69.243 167.163-69.243z"/><path fill="#007E3A" d="M256.002 39.594c119.517 0 216.407 96.887 216.407 216.407 0 119.518-96.89 216.407-216.407 216.407-119.521 0-216.408-96.889-216.408-216.407 0-119.52 96.887-216.407 216.408-216.407z"/><path fill="#FC3D32" d="M472.394 254.779H39.609c.662-118.957 97.279-215.185 216.393-215.185 119.11 0 215.731 96.228 216.392 215.185z"/><path fill="#fff" d="M205.768 45.469v421.064C110.476 443.882 39.594 358.225 39.594 256.001S110.476 68.124 205.768 45.469z"/></g></svg>