<svg xmlns="http://www.w3.org/2000/svg" shape-rendering="geometricPrecision" text-rendering="geometricPrecision" image-rendering="optimizeQuality" fill-rule="evenodd" clip-rule="evenodd" viewBox="0 0 512 511.997"><path fill="#4D4D4D" fill-rule="nonzero" d="M256 0c70.683 0 134.689 28.664 181.012 74.987C483.336 121.31 512 185.315 512 255.999c0 70.683-28.664 134.688-74.988 181.011-46.323 46.324-110.329 74.987-181.012 74.987-70.677 0-134.689-28.663-181.013-74.987C28.664 390.687 0 326.675 0 255.999 0 185.315 28.664 121.31 74.987 74.987 121.311 28.664 185.316 0 256 0z"/><path fill="#fff" fill-rule="nonzero" d="M256.001 19.596c65.278 0 124.382 26.466 167.162 69.243 42.776 42.779 69.242 101.883 69.242 167.161 0 65.277-26.466 124.382-69.245 167.158-42.777 42.779-101.881 69.245-167.159 69.245-65.278 0-124.383-26.466-167.162-69.242C46.062 380.382 19.596 321.277 19.596 256c0-65.278 26.466-124.382 69.243-167.161 42.779-42.777 101.884-69.243 167.162-69.243z"/><path fill="#00ABC2" fill-rule="nonzero" d="M256.001 39.594c119.517 0 216.407 96.886 216.407 216.406 0 119.517-96.89 216.406-216.407 216.406-119.521 0-216.407-96.889-216.407-216.406 0-119.52 96.886-216.406 216.407-216.406z"/><path fill="#FFEC2D" fill-rule="nonzero" d="M54.479 176.983a200.607 200.607 0 012.22-5.443c1.659 1.786 4.159 2.491 5.857 2.491 3.283 0 6.627-2.5 6.627-5.627 0-1.978-1.074-3.17-2.627-3.17-3.711 0-3.483 3.156-2.746 5.145-2.308-1.036-3.651-2.89-3.282-4.844a5.348 5.348 0 01-1.045-.248 213.448 213.448 0 014.283-8.756c-.605 2.187-.912 4.635 2.79 4.635 2.763 0 4.939.478 6.209 2.273.073-2.394.298-11.847.298-11.847.115-2.554-2.392-3.221-4.972-2.999a215.319 215.319 0 013.023-5.116c.945-.136 2.025-.148 3.262-.024-.782-.325-1.588-.892-2.137-1.777a215.546 215.546 0 015.774-8.78c1.32 1.662 2.512 4.036 2.512 6.25 0 2.462-1.446 3.74-2.804 4.307 5.594-.561 8.012 1.653 9.193 5.745-3.123-1.057-8.039-1.16-7.879 2.394 0 0 .224 9.453.298 11.847 1.27-1.795 3.445-2.273 6.208-2.273 3.791 0 3.375-2.563 2.746-4.789 1.993.712 4.024 1.996 3.283 5.028 1.694.029 2.795.892 3.702 2.034-1.152 1.296-2.395 1.916-3.702 2.096.368 1.954-.975 3.808-3.283 4.844.738-1.989.965-5.145-2.746-5.145-1.552 0-2.627 1.192-2.627 3.17 0 3.127 3.342 5.627 6.627 5.627 2.746 0 7.581-1.842 7.581-7.12 0-2.099-.519-4.039-1.375-5.866-1.163-2.489-9.595-20.402-15.041-31.948A228.324 228.324 0 0184 124.674a35201.28 35201.28 0 0115.957 33.141c1.73 3.59 2.417 5.943 2.417 9.695 0 6.616-4.502 11.67-12.953 11.67-5.016 0-11.124-2.923-13.374-8.638-2.247 5.715-8.354 8.638-13.37 8.638-3.374 0-6.117-.806-8.198-2.197zm31.7-55.122a201.802 201.802 0 012.477-3.076l.525.015c2.3 0 4.538-1.878 4.65-6.076a216.973 216.973 0 014.411-4.838c.764 1.458 1.148 3.014 1.148 4.511 0 7.167-2.867 8.9-2.867 19.209 0 3.18 1.237 6.377 3.761 9.335-6.896-1.414-9.609-7.387-7.401-11.729-1.405-.585-2.423.339-3.522.838-.041-2.397.921-3.448 1.612-4.667 0 0-1.192.059-2.267.478.145-1.541.859-2.916 2.267-3.59-1.883.305-3.483.122-4.794-.41z"/><path fill="#00ABC2" fill-rule="nonzero" d="M98.79 404.705a220.84 220.84 0 01-5.234-5.74c-.546-2.163-1.821-3.386-3.262-3.79a228.414 228.414 0 01-2.937-3.575c1.057-.23 2.264-.266 3.616-.047-1.408-.673-2.122-2.052-2.267-3.59 1.075.416 2.267.478 2.267.478-.691-1.222-1.653-2.273-1.612-4.667 1.095.499 2.117 1.42 3.522.838-2.208-4.342.505-10.317 7.401-11.731-2.524 2.961-3.761 6.155-3.761 9.337 0 10.309 2.867 12.039 2.867 19.207a9.53 9.53 0 01-.6 3.28zm-14.25-16.68a224.52 224.52 0 01-3.315-4.411 11871.035 11871.035 0 0014.522-30.837c.856-1.828 1.375-3.764 1.375-5.863 0-5.279-4.835-7.121-7.581-7.121-3.285 0-6.627 2.501-6.627 5.624 0 1.978 1.075 3.17 2.627 3.17 3.711 0 3.484-3.155 2.746-5.145 2.308 1.039 3.651 2.893 3.283 4.847 1.307.18 2.55.8 3.702 2.093-.907 1.143-2.008 2.005-3.702 2.037.741 3.032-1.29 4.313-3.283 5.025.629-2.226 1.045-4.786-2.746-4.786-2.763 0-4.938-.481-6.208-2.276-.074 2.395-.298 11.85-.298 11.85-.16 3.552 4.756 3.451 7.879 2.395-1.181 4.091-3.599 6.302-9.193 5.741 1.358.57 2.804 1.848 2.804 4.311 0 1.842-.826 3.796-1.865 5.354a215.98 215.98 0 01-5.784-8.685 4.85 4.85 0 011.5-.98c-.741.074-1.426.101-2.06.08a213.286 213.286 0 01-3.133-5.181c2.152-.044 3.977-.847 3.88-3.035 0 0-.225-9.455-.298-11.85-1.27 1.795-3.446 2.276-6.209 2.276-2.273 0-3.035.919-3.144 2.135a224.353 224.353 0 01-3.171-6.457l.287-.047c-.369-1.954.974-3.808 3.282-4.847-.74 1.99-.965 5.145 2.746 5.145 1.553 0 2.627-1.192 2.627-3.17 0-3.123-3.344-5.624-6.627-5.624-1.517 0-3.666.561-5.293 1.955a204.897 204.897 0 01-2.199-5.276c1.49-.865 3.285-1.455 5.369-1.7-3.028-.355-5.444-1.444-7.206-3.044a214.672 214.672 0 01-3.463-10.017c.174-2.925.892-5.095 2.374-8.177 0 0 13.943-28.996 19.372-40.211.679-1.399.897-2.991.897-5.326 0-3.604-3.498-6.55-7.164-6.642-3.342-.083-6.982 3.115-6.982 6.761 0 4.428 2.296 6.403 4.655 6.403 2.902 0 4.059-1.193 4.059-3.23 0-1.42-.687-2.034-1.67-2.034-2.492 0-1.793 3.351-1.793 3.351-1.236-.272-2.252-1.536-1.671-3.112a4.48 4.48 0 01-2.417-1.438c.667-.646 1.432-1.145 2.417-1.316-.584-1.925.195-2.864 1.881-3.26-.339.739-.351 1.421-.239 2.064 2.651-.755 6.716.446 6.716 5.025 0 4.549-3.159 8.378-9.075 7.421 1.408.674 2.123 2.049 2.267 3.59-1.074-.419-2.267-.478-2.267-.478.691 1.219 1.653 2.27 1.612 4.667-1.098-.499-2.117-1.423-3.522-.838 2.205 4.342-.505 10.314-7.401 11.729 2.524-2.962 3.758-6.156 3.758-9.335 0-10.309-2.863-12.042-2.863-19.209 0-3 1.541-6.235 4.596-8.438v.121c-2.019-.543-3.312-1.535-4.056-2.887h.006l-.006-.003c.744-1.349 2.037-2.344 4.056-2.884v.118c-3.055-2.199-4.596-5.438-4.596-8.437 0-7.168 2.863-8.898 2.863-19.207 0-3.182-1.234-6.376-3.758-9.337 6.896 1.414 9.606 7.389 7.401 11.732 1.405.584 2.424-.34 3.522-.839.041 2.394-.921 3.445-1.612 4.667 0 0 1.193-.062 2.267-.478-.144 1.538-.859 2.917-2.267 3.59 5.916-.957 9.075 2.872 9.075 7.419 0 4.581-4.065 5.78-6.716 5.027-.112.641-.1 1.323.239 2.064-1.686-.396-2.465-1.338-1.881-3.263-.985-.168-1.75-.67-2.417-1.316a4.488 4.488 0 012.417-1.435c-.581-1.579.435-2.843 1.671-3.111 0 0-.699 3.35 1.793 3.35.983 0 1.67-.614 1.67-2.034 0-2.04-1.157-3.232-4.059-3.232-2.359 0-4.655 1.975-4.655 6.403 0 3.646 3.64 6.846 6.982 6.763 3.666-.091 7.164-3.037 7.164-6.642 0-2.335-.218-3.93-.897-5.326-5.429-11.215-19.372-40.213-19.372-40.213-1.727-3.59-2.415-5.943-2.415-9.692l.003-.181c.765-2.409 1.57-4.797 2.418-7.167 2.146-2.663 5.688-4.322 10.533-4.322 5.013 0 11.118 2.919 13.37 8.632 2.253-5.713 8.361-8.632 13.374-8.632 8.451 0 12.953 5.054 12.953 11.67 0 3.749-.687 6.102-2.417 9.692 0 0-13.943 28.998-19.372 40.213-.676 1.396-.895 2.991-.895 5.326 0 3.605 3.498 6.551 7.165 6.642 3.342.083 6.982-3.117 6.982-6.763 0-4.428-2.297-6.403-4.656-6.403-2.902 0-4.059 1.192-4.059 3.232 0 1.42.685 2.034 1.671 2.034 2.489 0 1.792-3.35 1.792-3.35 1.237.268 2.252 1.532 1.671 3.111a4.502 4.502 0 012.418 1.435c-.668.646-1.432 1.148-2.418 1.316.584 1.925-.195 2.867-1.881 3.263.34-.741.352-1.423.239-2.064-2.651.753-6.715-.446-6.715-5.027 0-4.547 3.155-8.376 9.074-7.419-1.408-.673-2.122-2.052-2.267-3.59 1.075.416 2.267.478 2.267.478-.691-1.222-1.653-2.273-1.612-4.667 1.095.499 2.117 1.423 3.522.839-2.208-4.343.505-10.318 7.401-11.732-2.524 2.961-3.761 6.155-3.761 9.337 0 10.309 2.867 12.039 2.867 19.207 0 2.999-1.541 6.238-4.597 8.437v-.118c2.02.54 3.312 1.535 4.057 2.884l-.006.003h.006c-.745 1.352-2.037 2.344-4.057 2.887v-.121c3.056 2.203 4.597 5.438 4.597 8.438 0 7.167-2.867 8.9-2.867 19.209 0 3.179 1.237 6.373 3.761 9.335-6.896-1.415-9.609-7.387-7.401-11.729-1.405-.585-2.427.339-3.522.838-.041-2.397.921-3.448 1.612-4.667 0 0-1.192.059-2.267.478.145-1.541.859-2.916 2.267-3.59-5.919.957-9.074-2.872-9.074-7.421 0-4.579 4.064-5.78 6.715-5.025.113-.643.101-1.325-.239-2.064 1.686.396 2.465 1.335 1.881 3.26.986.171 1.75.67 2.418 1.316a4.494 4.494 0 01-2.418 1.438c.581 1.576-.434 2.84-1.671 3.112 0 0 .697-3.351-1.792-3.351-.986 0-1.671.614-1.671 2.034 0 2.037 1.157 3.23 4.059 3.23 2.359 0 4.656-1.975 4.656-6.403 0-3.646-3.64-6.844-6.982-6.761-3.667.092-7.165 3.038-7.165 6.642 0 2.335.219 3.927.895 5.326 5.429 11.215 19.372 40.211 19.372 40.211 1.73 3.59 2.417 5.943 2.417 9.695 0 6.004-3.708 10.722-10.71 11.543 7.002.82 10.71 5.538 10.71 11.542 0 3.75-.687 6.102-2.417 9.692L84.54 388.025zm3.029-53.253c-4.576.617-9.541 3.483-11.522 8.507-1.981-5.027-6.946-7.894-11.525-8.507 4.579-.614 9.544-3.481 11.525-8.508 1.981 5.024 6.944 7.891 11.522 8.508zm-11.519-48.02v-.003h-.003v.003c-1.774 1.092-4.475 4.783-4.475 8.11 0 2.462 1.446 3.74 2.804 4.31-5.594-.561-8.012 1.653-9.193 5.745 3.124-1.057 8.039-1.16 7.88 2.394 0 0-.225 9.452-.298 11.847-1.27-1.795-3.446-2.273-6.209-2.273-3.791 0-3.377-2.563-2.746-4.789-1.992.712-4.023 1.996-3.282 5.028-1.695.029-2.799.891-3.702 2.034 1.148 1.296 2.394 1.916 3.702 2.093-.369 1.954.974 3.808 3.282 4.847-.74-1.989-.965-5.145 2.746-5.145 1.553 0 2.627 1.192 2.627 3.17 0 3.124-3.344 5.627-6.627 5.627-2.745 0-7.581-1.845-7.581-7.12 0-2.1.519-4.039 1.372-5.867 4.033-8.614 16.958-36.024 19.7-41.766l.003-.003v.003c2.742 5.742 15.667 33.152 19.697 41.766.856 1.828 1.375 3.767 1.375 5.867 0 5.275-4.835 7.12-7.581 7.12-3.285 0-6.627-2.503-6.627-5.627 0-1.978 1.075-3.17 2.627-3.17 3.711 0 3.484 3.156 2.746 5.145 2.308-1.039 3.651-2.893 3.283-4.847 1.307-.177 2.55-.797 3.702-2.093-.907-1.143-2.008-2.005-3.702-2.034.741-3.032-1.29-4.316-3.283-5.028.629 2.226 1.045 4.789-2.746 4.789-2.763 0-4.938.478-6.208 2.273a3325.91 3325.91 0 01-.298-11.847c-.16-3.554 4.756-3.451 7.879-2.394-1.181-4.092-3.599-6.306-9.193-5.745 1.358-.57 2.804-1.848 2.804-4.31 0-3.327-2.7-7.018-4.475-8.11zm0-24.438l-.003-.003c-.85-1.611-3.74-4.788-7.879-5.266l-.36-.133.36-.136c4.139-.478 7.029-3.654 7.879-5.266v-.003l.003.003c.85 1.612 3.741 4.788 7.879 5.266l.36.136-.36.133c-4.138.478-7.029 3.655-7.879 5.266v.003zm-.003-23.484v-.003c-2.742-5.745-15.667-33.152-19.7-41.769-.853-1.827-1.372-3.764-1.372-5.863 0-5.279 4.836-7.121 7.581-7.121 3.283 0 6.627 2.501 6.627 5.624 0 1.981-1.074 3.171-2.627 3.171-3.711 0-3.486-3.156-2.746-5.146-2.308 1.039-3.651 2.893-3.282 4.848-1.308.179-2.554.8-3.702 2.096.903 1.139 2.007 2.001 3.702 2.033-.741 3.032 1.29 4.314 3.282 5.025-.631-2.226-1.045-4.785 2.746-4.785 2.763 0 4.939-.478 6.209-2.276.073 2.394.298 11.85.298 11.85.159 3.551-4.756 3.45-7.88 2.394 1.181 4.091 3.599 6.302 9.193 5.741-1.358.57-2.804 1.849-2.804 4.311 0 3.33 2.701 7.014 4.475 8.109v.003h.003v-.003c1.775-1.089 4.475-4.782 4.475-8.109 0-2.462-1.446-3.741-2.804-4.311 5.594.561 8.012-1.65 9.193-5.741-3.123 1.056-8.039 1.157-7.879-2.394 0 0 .224-9.456.298-11.85 1.27 1.798 3.445 2.276 6.208 2.276 3.791 0 3.375 2.559 2.746 4.785 1.993-.711 4.024-1.993 3.283-5.025 1.694-.032 2.795-.894 3.702-2.033-1.152-1.296-2.395-1.917-3.702-2.096.368-1.955-.975-3.809-3.283-4.848.738 1.99.965 5.146-2.746 5.146-1.552 0-2.627-1.19-2.627-3.171 0-3.123 3.342-5.624 6.627-5.624 2.746 0 7.581 1.842 7.581 7.121 0 2.099-.519 4.036-1.375 5.863-4.03 8.617-16.955 36.024-19.697 41.769l-.003.003z"/><path fill="#FFEC2D" fill-rule="nonzero" d="M93.556 398.965l5.234 5.74c.399-1.084.6-2.2.6-3.28 0-7.168-2.867-8.898-2.867-19.207 0-3.182 1.237-6.376 3.761-9.337-6.896 1.414-9.609 7.389-7.401 11.731-1.405.582-2.427-.339-3.522-.838-.041 2.394.921 3.445 1.612 4.667 0 0-1.192-.062-2.267-.478.145 1.538.859 2.917 2.267 3.59-1.352-.219-2.559-.183-3.616.047l2.937 3.575c1.441.404 2.716 1.627 3.262 3.79zM76.047 187.558c-2.252-5.713-8.357-8.632-13.37-8.632-4.845 0-8.387 1.659-10.533 4.322l-2.418 7.167-.003.181c0 3.749.688 6.102 2.415 9.692 0 0 13.943 28.998 19.372 40.213.679 1.396.897 2.991.897 5.326 0 3.605-3.498 6.551-7.164 6.642-3.342.083-6.982-3.117-6.982-6.763 0-4.428 2.296-6.403 4.655-6.403 2.902 0 4.059 1.192 4.059 3.232 0 1.42-.687 2.034-1.67 2.034-2.492 0-1.793-3.35-1.793-3.35-1.236.268-2.252 1.532-1.671 3.111a4.488 4.488 0 00-2.417 1.435c.667.646 1.432 1.148 2.417 1.316-.584 1.925.195 2.867 1.881 3.263-.339-.741-.351-1.423-.239-2.064 2.651.753 6.716-.446 6.716-5.027 0-4.547-3.159-8.376-9.075-7.419 1.408-.673 2.123-2.052 2.267-3.59-1.074.416-2.267.478-2.267.478.691-1.222 1.653-2.273 1.612-4.667-1.098.499-2.117 1.423-3.522.839 2.205-4.343-.505-10.318-7.401-11.732 2.524 2.961 3.758 6.155 3.758 9.337 0 10.309-2.863 12.039-2.863 19.207 0 2.999 1.541 6.238 4.596 8.437v-.118c-2.019.54-3.312 1.535-4.056 2.884l.006.003h-.006c.744 1.352 2.037 2.344 4.056 2.887v-.121c-3.055 2.203-4.596 5.438-4.596 8.438 0 7.167 2.863 8.9 2.863 19.209 0 3.179-1.234 6.373-3.758 9.335 6.896-1.415 9.606-7.387 7.401-11.729 1.405-.585 2.424.339 3.522.838.041-2.397-.921-3.448-1.612-4.667 0 0 1.193.059 2.267.478-.144-1.541-.859-2.916-2.267-3.59 5.916.957 9.075-2.872 9.075-7.421 0-4.579-4.065-5.78-6.716-5.025-.112-.643-.1-1.325.239-2.064-1.686.396-2.465 1.335-1.881 3.26-.985.171-1.75.67-2.417 1.316a4.48 4.48 0 002.417 1.438c-.581 1.576.435 2.84 1.671 3.112 0 0-.699-3.351 1.793-3.351.983 0 1.67.614 1.67 2.034 0 2.037-1.157 3.23-4.059 3.23-2.359 0-4.655-1.975-4.655-6.403 0-3.646 3.64-6.844 6.982-6.761 3.666.092 7.164 3.038 7.164 6.642 0 2.335-.218 3.927-.897 5.326-5.429 11.215-19.372 40.211-19.372 40.211-1.482 3.082-2.2 5.252-2.374 8.177l3.463 10.017c1.762 1.6 4.178 2.689 7.206 3.044-2.084.245-3.879.835-5.369 1.7l2.199 5.276c1.627-1.394 3.776-1.955 5.293-1.955 3.283 0 6.627 2.501 6.627 5.624 0 1.978-1.074 3.17-2.627 3.17-3.711 0-3.486-3.155-2.746-5.145-2.308 1.039-3.651 2.893-3.282 4.847l-.287.047 3.171 6.457c.109-1.216.871-2.135 3.144-2.135 2.763 0 4.939-.481 6.209-2.276.073 2.395.298 11.85.298 11.85.097 2.188-1.728 2.991-3.88 3.035l3.133 5.181c.634.021 1.319-.006 2.06-.08a4.85 4.85 0 00-1.5.98l5.784 8.685c1.039-1.558 1.865-3.512 1.865-5.354 0-2.463-1.446-3.741-2.804-4.311 5.594.561 8.012-1.65 9.193-5.741-3.123 1.056-8.039 1.157-7.879-2.395 0 0 .224-9.455.298-11.85 1.27 1.795 3.445 2.276 6.208 2.276 3.791 0 3.375 2.56 2.746 4.786 1.993-.712 4.024-1.993 3.283-5.025 1.694-.032 2.795-.894 3.702-2.037-1.152-1.293-2.395-1.913-3.702-2.093.368-1.954-.975-3.808-3.283-4.847.738 1.99.965 5.145-2.746 5.145-1.552 0-2.627-1.192-2.627-3.17 0-3.123 3.342-5.624 6.627-5.624 2.746 0 7.581 1.842 7.581 7.121 0 2.099-.519 4.035-1.375 5.863-2.734 5.845-9.556 20.328-14.522 30.837l3.315 4.411 15.417-32.019c1.73-3.59 2.417-5.942 2.417-9.692 0-6.004-3.708-10.722-10.71-11.542 7.002-.821 10.71-5.539 10.71-11.543 0-3.752-.687-6.105-2.417-9.695 0 0-13.943-28.996-19.372-40.211-.676-1.399-.895-2.991-.895-5.326 0-3.604 3.498-6.55 7.165-6.642 3.342-.083 6.982 3.115 6.982 6.761 0 4.428-2.297 6.403-4.656 6.403-2.902 0-4.059-1.193-4.059-3.23 0-1.42.685-2.034 1.671-2.034 2.489 0 1.792 3.351 1.792 3.351 1.237-.272 2.252-1.536 1.671-3.112a4.494 4.494 0 002.418-1.438c-.668-.646-1.432-1.145-2.418-1.316.584-1.925-.195-2.864-1.881-3.26.34.739.352 1.421.239 2.064-2.651-.755-6.715.446-6.715 5.025 0 4.549 3.155 8.378 9.074 7.421-1.408.674-2.122 2.049-2.267 3.59 1.075-.419 2.267-.478 2.267-.478-.691 1.219-1.653 2.27-1.612 4.667 1.095-.499 2.117-1.423 3.522-.838-2.208 4.342.505 10.314 7.401 11.729-2.524-2.962-3.761-6.156-3.761-9.335 0-10.309 2.867-12.042 2.867-19.209 0-3-1.541-6.235-4.597-8.438v.121c2.02-.543 3.312-1.535 4.057-2.887h-.006l.006-.003c-.745-1.349-2.037-2.344-4.057-2.884v.118c3.056-2.199 4.597-5.438 4.597-8.437 0-7.168-2.867-8.898-2.867-19.207 0-3.182 1.237-6.376 3.761-9.337-6.896 1.414-9.609 7.389-7.401 11.732-1.405.584-2.427-.34-3.522-.839-.041 2.394.921 3.445 1.612 4.667 0 0-1.192-.062-2.267-.478.145 1.538.859 2.917 2.267 3.59-5.919-.957-9.074 2.872-9.074 7.419 0 4.581 4.064 5.78 6.715 5.027.113.641.101 1.323-.239 2.064 1.686-.396 2.465-1.338 1.881-3.263.986-.168 1.75-.67 2.418-1.316a4.502 4.502 0 00-2.418-1.435c.581-1.579-.434-2.843-1.671-3.111 0 0 .697 3.35-1.792 3.35-.986 0-1.671-.614-1.671-2.034 0-2.04 1.157-3.232 4.059-3.232 2.359 0 4.656 1.975 4.656 6.403 0 3.646-3.64 6.846-6.982 6.763-3.667-.091-7.165-3.037-7.165-6.642 0-2.335.219-3.93.895-5.326 5.429-11.215 19.372-40.213 19.372-40.213 1.73-3.59 2.417-5.943 2.417-9.692 0-6.616-4.502-11.67-12.953-11.67-5.013 0-11.121 2.919-13.374 8.632zm11.522 147.214c-4.576.617-9.541 3.483-11.522 8.507-1.981-5.027-6.946-7.894-11.525-8.507 4.579-.614 9.544-3.481 11.525-8.508 1.981 5.024 6.944 7.891 11.522 8.508zm-11.519-48.02v-.003h-.003v.003c-1.774 1.092-4.475 4.783-4.475 8.11 0 2.462 1.446 3.74 2.804 4.31-5.594-.561-8.012 1.653-9.193 5.745 3.124-1.057 8.039-1.16 7.88 2.394 0 0-.225 9.452-.298 11.847-1.27-1.795-3.446-2.273-6.209-2.273-3.791 0-3.377-2.563-2.746-4.789-1.992.712-4.023 1.996-3.282 5.028-1.695.029-2.799.891-3.702 2.034 1.148 1.296 2.394 1.916 3.702 2.093-.369 1.954.974 3.808 3.282 4.847-.74-1.989-.965-5.145 2.746-5.145 1.553 0 2.627 1.192 2.627 3.17 0 3.124-3.344 5.627-6.627 5.627-2.745 0-7.581-1.845-7.581-7.12 0-2.1.519-4.039 1.372-5.867 4.033-8.614 16.958-36.024 19.7-41.766l.003-.003v.003c2.742 5.742 15.667 33.152 19.697 41.766.856 1.828 1.375 3.767 1.375 5.867 0 5.275-4.835 7.12-7.581 7.12-3.285 0-6.627-2.503-6.627-5.627 0-1.978 1.075-3.17 2.627-3.17 3.711 0 3.484 3.156 2.746 5.145 2.308-1.039 3.651-2.893 3.283-4.847 1.307-.177 2.55-.797 3.702-2.093-.907-1.143-2.008-2.005-3.702-2.034.741-3.032-1.29-4.316-3.283-5.028.629 2.226 1.045 4.789-2.746 4.789-2.763 0-4.938.478-6.208 2.273a3325.91 3325.91 0 01-.298-11.847c-.16-3.554 4.756-3.451 7.879-2.394-1.181-4.092-3.599-6.306-9.193-5.745 1.358-.57 2.804-1.848 2.804-4.31 0-3.327-2.7-7.018-4.475-8.11zm0-24.438l-.003-.003c-.85-1.611-3.74-4.788-7.879-5.266l-.36-.133.36-.136c4.139-.478 7.029-3.654 7.879-5.266v-.003l.003.003c.85 1.612 3.741 4.788 7.879 5.266l.36.136-.36.133c-4.138.478-7.029 3.655-7.879 5.266v.003zm-.003-23.484v-.003c-2.742-5.745-15.667-33.152-19.7-41.769-.853-1.827-1.372-3.764-1.372-5.863 0-5.279 4.836-7.121 7.581-7.121 3.283 0 6.627 2.501 6.627 5.624 0 1.981-1.074 3.171-2.627 3.171-3.711 0-3.486-3.156-2.746-5.146-2.308 1.039-3.651 2.893-3.282 4.848-1.308.179-2.554.8-3.702 2.096.903 1.139 2.007 2.001 3.702 2.033-.741 3.032 1.29 4.314 3.282 5.025-.631-2.226-1.045-4.785 2.746-4.785 2.763 0 4.939-.478 6.209-2.276.073 2.394.298 11.85.298 11.85.159 3.551-4.756 3.45-7.88 2.394 1.181 4.091 3.599 6.302 9.193 5.741-1.358.57-2.804 1.849-2.804 4.311 0 3.33 2.701 7.014 4.475 8.109v.003h.003v-.003c1.775-1.089 4.475-4.782 4.475-8.109 0-2.462-1.446-3.741-2.804-4.311 5.594.561 8.012-1.65 9.193-5.741-3.123 1.056-8.039 1.157-7.879-2.394 0 0 .224-9.456.298-11.85 1.27 1.798 3.445 2.276 6.208 2.276 3.791 0 3.375 2.559 2.746 4.785 1.993-.711 4.024-1.993 3.283-5.025 1.694-.032 2.795-.894 3.702-2.033-1.152-1.296-2.395-1.917-3.702-2.096.368-1.955-.975-3.809-3.283-4.848.738 1.99.965 5.146-2.746 5.146-1.552 0-2.627-1.19-2.627-3.171 0-3.123 3.342-5.624 6.627-5.624 2.746 0 7.581 1.842 7.581 7.121 0 2.099-.519 4.036-1.375 5.863-4.03 8.617-16.955 36.024-19.697 41.769l-.003.003zM348.958 354.325c-3.18 1.91-5.606-1.476-8.263-2.491-1.898 1.033-2.072 4.481-3.846 6.113-2.123 2.415-4.72-.676-4.528-3.055-2.536 2.137-3.82 6.984-7.921 6.338-1.945-1.586-3.388-4.915-4.873-1.125-1.211 1.851-4.437 4.487-6.105 1.691-.519-2.47-1.756-5.375-3.1-1.452-.923 2.775-3.884 4.818-6.748 3.601-1.567-1.281 1.258-6.021-.738-5.685-2.984 1.972-4.72 6.869-8.882 6.48-1.615-1.816.983-4.892-.791-6.905-2.093 2.686-4.416 6.621-8.036 6.905-1.75-1.42.068-5.485-1.05-6.087-3.714 2.225-7.634 6.196-12.307 4.953 1.821-6.964 9.428-9.408 15.828-9.951 11.008-1.352 22.589 1.136 33.18-2.837 1.709-1.042 5.857-2.518 4.381-4.933-1.308-1.907 3.401-1.163 3.852-3.389-.28-2.821 2.164-2.435 4.549-2.68 10.695-.46 21.261 1.792 31.923 2.173.806 5.195-4.959 8.844-9.6 7.241-2.217.357-5.538-5.098-4.888-1.128-.446 2.081-.133 4.833-2.037 6.223zm-59.846-39.952c-1.534 2.786-2.438 5.993-4.413 8.487-5.939-5.405-14.553-5.225-22.089-5.585-6.22-.334-12.983-.907-17.798-5.343-5.062-4.148-9.195-9.532-14.851-12.895-5.163-1.405-10.368-3.161-14.521-6.7-8.871-7.233-13.951-17.963-22.621-25.417-1.653-1.63-3.601-2.89-5.452-4.268-1.759.427-.963 4.224-3.117 2.29-1.173-.835-4.101-.915-4.364.248 2.648 3.493 5.302 7.48 5.671 11.947-1.809.186-5.024-.381-5.918.292a36.83 36.83 0 008.974 9.328c-1.677.269-4.983.124-5.624.8 3.469 2.828 7.191 5.718 11.734 6.445.93 1.225-1.361 3.595.567 4.64 1.116.454 4.8 1.219 2.264 2.492-1.742 1.171-1.095 3.908 1.131 3.846 1.408.72 4.569.894 4.817 2.14-1.248 1.272-5.13 2.778-1.827 3.967 3.091 1.712 6.612 2.826 10.137 2.946-1.768 1.491-3.95 2.335-5.771 3.735 8.139 4.773 17.16 7.911 26.078 10.934 3.548 1.187 7.138 2.291 10.819 2.987-10.692-.617-21.027-3.781-30.763-8.115-5.048-2.211-10.128-4.351-15.303-6.258 2.27-1.181 4.891-1.467 7.244-2.488-4.882-.98-10.217-1.299-14.506-3.983.656-1.175 3.15-1.231 4.529-1.827 2.594-.623 4.203-1.375.546-1.6-3.687-1.001-7.918-.552-11.168-2.778.21-1.334 3.611-.868 4.995-1.443 1.745-.301 3.684-.552 5.077-1.724-5.7-2.365-13.156-.691-17.623-5.724-1.03-1.919 3.2-.372 4.405-.694 3.058 0 6.346.974 9.26-.259-8.31-3.649-17.207-7.062-23.542-13.81-.703-1.083-2.811-4.047-1.11-4.413 4.93.652 8.499 6.034 13.774 5.195.703-.944-3.064-2.491-4.003-3.84-7.69-6.601-15.155-13.762-20.546-22.405-.369-2.888 4.169-3.318 5.364-1.09 5.88 5.665 11.191 12.274 18.518 16.142 2.598 1.26-1.494-1.491-2.037-2.492-6.769-7.858-13.213-16.159-17.942-25.416-.847-1.668-2.253-4.688.283-5.577 2.533-1.269 5.045.461 6.329 2.637 4.977 6.275 8.638 13.735 14.837 18.963-5.281-10.249-10.92-21.036-11.055-32.829.124-2.285.271-5.745 3.371-5.65 2.603-.395 2.19 2.937 3.043 4.526 2.565 8.663 3.685 18.042 8.83 25.69-1.137-6.426-2.811-13.045-1.698-19.577.257-2.146 2.672-2.796 4.248-1.5 1.276 3.121 1.538 6.973 2.701 10.308 6.607 22.604 21.443 42.485 40.776 55.825 15.923 10.923 34.822 17.441 54.107 18.577 1.741.154 3.489.207 5.233.313zm-23.919 29.189a1.04 1.04 0 00-1.039-1.039l-.219.024c.18-.098.363-.192.552-.272 7.764-2.669 14.536-7.335 21.213-11.997 4.044-3.347 7.554-7.687 12.986-8.773 10.597-3.206 21.862-2.816 32.501-5.774 8.103-11.091 21.862-15.049 33.39-21.423 2.586-.805 3.586-2.934 4.413-5.287 4.401-6.946 10.394-13.1 17.481-17.304 3.354-1.833 7.357-2.887 11.153-2.049-.271 4.523-2.866 8.529-5.998 11.658 2.562-.056 4.767-1.677 7.356-1.586.889 4.641-4.124 7.07-6.79 9.961 1.485.345 7.174.776 4.074 2.263-3.953 2.743-8.463 4.624-12.112 7.809 3.365.605 3.749 1.319.328 2.538-1.854 1.255-5.414 1.695-5.759 4.139 2.541 1.562-1.169 3.114-2.604 3.622-2.736.638-5.615 1.827-1.975 3.909-1.379 2.078-4.33 2.52-6.739 2.317.732 2.356 1.789 4.991-1.27 6.031-6.854 5.18-14.898 8.95-23.515 9.812 10.763.829 21.85-1.169 31.049-7.023 1.216-1.437 7.584-2.981 4.02-4.186-1.676-.699-5.269-1.476-5.514-2.754 4.983-3.073 11.262-1.978 16.62-3.805.138-1.736-4.077-1.255-5.647-1.647-3.749-.307-3.528-1.264.085-1.618 4.573-1.213 9.751-1.449 13.597-4.431-3.132-1.452-7.07-.174-10.411-1.358 5.664-2.479 12.348-2.73 17.428-6.453 2.317-2.574-2.964-1.771-4.502-1.706-3.138.546-4.587-.956-1.024-2.261 6.087-4.487 13.791-7.401 18.066-13.907 1.012-1.455 2.382-5.842-.847-4.265-4.248 1.413-7.983 6.187-12.824 4.711 9.535-7.392 18.609-15.805 25.128-26.031.336-2.949-4.295-3.267-5.5-.953-6.125 5.904-11.672 12.871-19.516 16.572 7.513-7.25 13.724-15.837 19.141-24.734 1.163-2.645 4.286-5.827 2.592-8.768-2.731-2.258-6.149-.189-7.569 2.515-4.762 6.217-8.378 13.473-14.503 18.536 5.364-10.232 10.913-21.122 11.049-32.923-.018-2.43-.504-6.011-3.805-5.556-2.615.469-1.992 4.384-3.073 6.364-2.373 8.062-3.489 16.794-8.357 23.855 1.095-6.553 3.011-13.384 1.541-20-.688-2.954-5.464-1.685-4.847 1.243-5.706 28.894-25.095 54.166-50.452 68.787-11.611 6.568-24.581 10.804-37.774 12.723-3.551.776-7.388.322-10.78 1.532-8.222 6.303-13.199 16.85-23.608 20.154-4.663 2.317-10.747 2.789-14.083 7.122-.287.553-.349 1.196-.337 1.81 2.061 1.889 3.613.334 5.408-.806a1.038 1.038 0 101.822.682zm85.005-132.272c0-32.601-26.432-59.033-59.034-59.033-32.605 0-59.034 26.432-59.034 59.033 0 32.605 26.429 59.034 59.034 59.034 32.602 0 59.034-26.429 59.034-59.034zm-72.123-65.793c3.436-.73 4.298-3.138 3.785-5.718-.685-3.446-8.679-18.896-8.679-18.896s-1.473 17.334-.788 20.779c.513 2.58 2.24 4.519 5.682 3.835zm-52.708 78.879c-.726-3.433-3.134-4.295-5.717-3.781-3.442.685-18.896 8.678-18.896 8.678s17.337 1.474 20.779.789c2.583-.514 4.52-2.241 3.834-5.683v-.003zm78.883 52.711c-3.433.726-4.295 3.135-3.781 5.715.685 3.445 8.679 18.898 8.679 18.898s1.47-17.337.788-20.779c-.514-2.583-2.244-4.519-5.686-3.834zm52.708-78.883c.729 3.433 3.138 4.295 5.718 3.782 3.442-.686 18.895-8.679 18.895-8.679s-17.334-1.473-20.779-.789c-2.58.514-4.519 2.244-3.834 5.686zm-103.065-42.691c2.895-1.987 2.768-4.543 1.307-6.731-1.951-2.919-15.25-14.137-15.25-14.137s5.275 16.581 7.224 19.498c1.464 2.19 3.802 3.321 6.719 1.37zm-18.51 93.046c-1.986-2.893-4.54-2.769-6.73-1.305-2.916 1.948-14.134 15.25-14.134 15.25s16.578-5.275 19.498-7.227c2.187-1.461 3.318-3.799 1.366-6.718zm93.05 18.509c-2.893 1.986-2.769 4.543-1.308 6.73 1.951 2.92 15.25 14.137 15.25 14.137s-5.272-16.581-7.223-19.498c-1.462-2.19-3.8-3.318-6.719-1.369zm18.509-93.047c1.986 2.893 4.543 2.769 6.73 1.305 2.92-1.948 14.137-15.25 14.137-15.25s-16.581 5.276-19.501 7.227c-2.187 1.461-3.318 3.799-1.366 6.718zm-111.559 0c1.916-2.943.821-5.257-1.366-6.718-2.92-1.951-19.498-7.227-19.498-7.227s11.218 13.302 14.134 15.25c2.19 1.464 4.782 1.612 6.73-1.305zm18.51 93.047c-2.944-1.913-5.255-.821-6.719 1.369-1.949 2.917-7.224 19.498-7.224 19.498s13.302-11.217 15.25-14.137c1.464-2.187 1.612-4.779-1.307-6.73zm93.049-18.509c-1.913 2.943-.821 5.257 1.366 6.718 2.92 1.952 19.501 7.227 19.501 7.227s-11.217-13.302-14.137-15.25c-2.187-1.464-4.779-1.612-6.73 1.305zm-18.509-93.046c2.943 1.912 5.257.82 6.719-1.37 1.951-2.917 7.223-19.498 7.223-19.498s-13.299 11.218-15.25 14.137c-1.461 2.188-1.609 4.779 1.308 6.731zm-103.066 42.691c.644-3.451-1.251-5.172-3.834-5.686-3.442-.684-20.779.789-20.779.789s15.454 7.993 18.896 8.679c2.583.513 5.032-.34 5.717-3.782zm52.708 78.883c-3.451-.644-5.169 1.251-5.682 3.834-.685 3.442.788 20.779.788 20.779s7.994-15.453 8.679-18.898c.513-2.58-.343-5.03-3.785-5.715zm78.883-52.711c-.641 3.454 1.254 5.172 3.834 5.686 3.445.685 20.779-.789 20.779-.789s-15.453-7.993-18.895-8.678c-2.58-.514-5.033.339-5.718 3.784v-.003zm-52.708-78.879c3.451.64 5.172-1.255 5.683-3.835.685-3.445-.785-20.779-.785-20.779s-7.994 15.45-8.679 18.896c-.514 2.58.339 5.033 3.781 5.718zm-38.759 3.816c3.226-1.384 3.601-3.914 2.594-6.346-1.342-3.241-12.197-16.838-12.197-16.838s1.936 17.289 3.28 20.531c1.009 2.432 3.081 3.997 6.323 2.653zm-36.307 87.65c-1.381-3.226-3.914-3.601-6.343-2.594-3.245 1.343-16.841 12.197-16.841 12.197s17.289-1.939 20.534-3.282c2.432-1.007 3.994-3.079 2.65-6.321zm87.65 36.304c-3.223 1.384-3.601 3.914-2.594 6.347 1.343 3.244 12.2 16.841 12.2 16.841s-1.939-17.293-3.282-20.534c-1.007-2.433-3.079-3.997-6.324-2.654zm36.307-87.647c1.384 3.223 3.914 3.601 6.347 2.595 3.241-1.344 16.841-12.201 16.841-12.201s-17.293 1.94-20.534 3.283c-2.433 1.006-3.997 3.079-2.654 6.323zm-109.412-21.765c2.45-2.512 1.83-4.995-.032-6.858-2.483-2.479-17.715-10.886-17.715-10.886s8.407 15.232 10.889 17.714c1.863 1.86 4.375 2.513 6.858.03zm0 94.87c-2.515-2.45-4.998-1.83-6.858.033-2.482 2.48-10.889 17.715-10.889 17.715s15.232-8.408 17.715-10.89c1.862-1.863 2.511-4.375.032-6.858zm94.87 0c-2.45 2.513-1.83 4.995.03 6.858 2.482 2.482 17.718 10.89 17.718 10.89s-8.41-15.235-10.893-17.715c-1.86-1.863-4.372-2.515-6.855-.033zm0-94.87c2.512 2.45 4.995 1.83 6.855-.033 2.483-2.479 10.89-17.714 10.89-17.714s-15.233 8.41-17.715 10.889c-1.86 1.863-2.512 4.375-.03 6.858zM229.184 185.62c1.305-3.262-.218-5.317-2.65-6.323-3.245-1.343-20.534-3.283-20.534-3.283s13.596 10.857 16.841 12.201c2.429 1.006 5 .646 6.343-2.595zm36.307 87.647c-3.259-1.302-5.314.221-6.323 2.654-1.344 3.241-3.28 20.534-3.28 20.534s10.855-13.597 12.197-16.841c1.01-2.433.65-5.004-2.594-6.347zm87.65-36.304c-1.302 3.259.221 5.314 2.654 6.321 3.241 1.343 20.534 3.282 20.534 3.282s-13.6-10.854-16.841-12.197c-2.433-1.01-5.004-.65-6.347 2.594zm-36.307-87.65c3.26 1.302 5.317-.221 6.324-2.653 1.343-3.242 3.282-20.534 3.282-20.534s-10.857 13.6-12.2 16.841c-1.007 2.432-.647 5.003 2.594 6.346zm-92.757 61.977c-.041-3.51-2.237-4.826-4.867-4.826-3.51 0-20.227 4.826-20.227 4.826s16.717 4.827 20.227 4.827c2.63 0 4.867-1.317 4.867-4.827zm67.087 67.084c-3.51.044-4.827 2.237-4.827 4.87 0 3.51 4.827 20.227 4.827 20.227s4.827-16.717 4.827-20.227c0-2.633-1.317-4.87-4.827-4.87zm67.084-67.084c.044 3.51 2.237 4.827 4.871 4.827 3.51 0 20.226-4.827 20.226-4.827s-16.716-4.826-20.226-4.826c-2.634 0-4.871 1.316-4.871 4.826zm-67.084-67.083c3.51-.045 4.827-2.238 4.827-4.871 0-3.51-4.827-20.224-4.827-20.224s-4.827 16.714-4.827 20.224c0 2.633 1.317 4.871 4.827 4.871zM280.632 339.17c-1.58.088-3.115.292-4.623.773-2.061.28-4.036.995-6.084 1.331l-.818.133-1.376.133c.089.378.148.759.148 1.14 0 .395-.044.773-.148 1.098-.088.306-.366.684-.584.921-.293.321-.599.599-.965.773-.352.177-.747.248-1.143.278-.393.014-.803 0-1.184-.145-.395-.133-.758-.381-1.095-.673-.41.1-.835.174-1.231.218a5.057 5.057 0 01-1.154 0 12.11 12.11 0 01-1.228-.41 7.061 7.061 0 01-1.142-.599c-1.491.879-3.159 1.712-4.065 3.247-.511.702-.614 1.508-.729 2.341-.074 1.024.188 2.105.628 3.055.16.278.292-1.007.789-1.184.832-.687 1.871-1.183 2.925-1.461.891-.454.773.027.41.729-.088.366-.584 1.757.086 1.054 2.969-1.316 6.261-1.579 9.464-1.827 4.649-.484 9.316-.585 13.98-.644 4.387.059 8.777.118 13.163.278 2.09.059 4.198.525 6.258.174.499-.13 1.273-.159 1.568-.452-.939-.543-2.034-.557-3.073-.688h-8.366c-2.323-.233-4.753-.262-6.946-1.142-.584-.233-1.125-.788-1.683-.189a9.939 9.939 0 01-2.603.555c-1.535.118-3.07-.204-4.487-.773 1.021-1.42 2.252-2.663 3.377-3.98a36.537 36.537 0 01-2.692-.554c1.594-1.099 3.073-2.341 4.623-3.51z"/></svg>