<svg xmlns="http://www.w3.org/2000/svg" shape-rendering="geometricPrecision" text-rendering="geometricPrecision" image-rendering="optimizeQuality" fill-rule="evenodd" clip-rule="evenodd" viewBox="0 0 512 512.001"><g fill-rule="nonzero"><path fill="#4D4D4D" d="M256 0c70.683 0 134.689 28.664 181.012 74.988C483.336 121.311 512 185.317 512 256c0 70.684-28.664 134.69-74.988 181.013-46.323 46.324-110.329 74.988-181.012 74.988-70.676 0-134.689-28.664-181.013-74.988C28.664 390.69 0 326.677 0 256c0-70.683 28.664-134.689 74.987-181.012C121.311 28.664 185.316 0 256 0z"/><path fill="#fff" d="M256.001 19.597c65.278 0 124.383 26.466 167.162 69.242 42.777 42.78 69.242 101.885 69.242 167.163S465.94 380.384 423.16 423.161c-42.776 42.779-101.881 69.246-167.159 69.246-65.278 0-124.383-26.467-167.162-69.243-42.777-42.78-69.243-101.884-69.243-167.162S46.062 131.619 88.839 88.839c42.779-42.776 101.884-69.242 167.162-69.242z"/><path fill="#fff" d="M256.001 39.595c119.517 0 216.407 96.886 216.407 216.407 0 119.517-96.89 216.407-216.407 216.407-119.52 0-216.407-96.89-216.407-216.407 0-119.521 96.887-216.407 216.407-216.407z"/><path fill="red" d="M285.927 41.664v428.675a218.491 218.491 0 01-29.926 2.07c-10.147 0-20.125-.718-29.899-2.067V41.661a218.552 218.552 0 0129.899-2.066c10.155 0 20.142.717 29.926 2.069zm182.811 174.522a217.624 217.624 0 013.67 39.816c0 6.748-.328 13.417-.93 20.009H40.524a219.814 219.814 0 01-.93-20.009c0-13.604 1.27-26.906 3.67-39.816h425.474zm-350.369 89.051c3.466.449 7.006.685 10.519.685a81.85 81.85 0 0010.521-.688 155.829 155.829 0 00-2.852 22.933 155.782 155.782 0 0022.921-2.849l.006-.003a82.299 82.299 0 00-.685 10.522c0 3.51.236 7.049.69 10.518a156.068 156.068 0 00-22.932-2.852 156.132 156.132 0 002.849 22.927 82.857 82.857 0 00-10.518-.685c-3.513 0-7.053.239-10.522.694a156.585 156.585 0 002.855-22.936 155.882 155.882 0 00-22.926 2.849c.443-3.466.678-7.005.678-10.515 0-3.511-.235-7.053-.687-10.522a155.311 155.311 0 0022.932 2.852 157.092 157.092 0 00-2.846-22.924l-.003-.006zm0-179.475c3.466.452 7.006.688 10.519.688 3.507 0 7.047-.236 10.521-.691a155.475 155.475 0 00-2.852 22.938 156.595 156.595 0 0022.921-2.849h.006a82.17 82.17 0 00-.685 10.513c0 3.51.236 7.053.69 10.521a156.204 156.204 0 00-22.932-2.852c.381 7.7 1.335 15.363 2.849 22.924a83.409 83.409 0 00-10.518-.679c-3.513 0-7.053.236-10.522.691a156.63 156.63 0 002.852-22.936 156.379 156.379 0 00-22.923 2.846c.443-3.462.678-7.005.678-10.515 0-3.507-.235-7.047-.687-10.519a156.114 156.114 0 0022.935 2.855 156.696 156.696 0 00-2.849-22.926l-.003-.009zm254.253 0c3.469.452 7.009.688 10.519.688s7.05-.236 10.521-.691a156.29 156.29 0 00-2.855 22.938c7.7-.381 15.367-1.34 22.927-2.849h.006a82.173 82.173 0 00-.688 10.513c0 3.51.239 7.053.691 10.521a155.902 155.902 0 00-22.936-2.852c.384 7.7 1.338 15.363 2.849 22.924a83.253 83.253 0 00-10.515-.679c-3.51 0-7.05.236-10.525.691a155.823 155.823 0 002.855-22.936 156.288 156.288 0 00-22.92 2.846 83.78 83.78 0 00.679-10.515c0-3.507-.239-7.047-.694-10.519a156.154 156.154 0 0022.938 2.855 155.882 155.882 0 00-2.849-22.926l-.003-.009zm0 179.475c3.469.449 7.009.685 10.519.685s7.05-.236 10.521-.688a155.692 155.692 0 00-2.851 22.933 155.488 155.488 0 0022.923-2.849l.006-.003a82.301 82.301 0 00-.688 10.522c0 3.51.239 7.049.691 10.518a155.767 155.767 0 00-22.936-2.852c.384 7.7 1.338 15.366 2.849 22.927a82.702 82.702 0 00-10.515-.685c-3.51 0-7.05.239-10.525.694a155.823 155.823 0 002.855-22.936 156.157 156.157 0 00-22.92 2.849c.44-3.466.679-7.005.679-10.515a81.23 81.23 0 00-.694-10.522 155.301 155.301 0 0022.935 2.852 155.867 155.867 0 00-2.846-22.924l-.003-.006z"/></g></svg>