<svg xmlns="http://www.w3.org/2000/svg" shape-rendering="geometricPrecision" text-rendering="geometricPrecision" image-rendering="optimizeQuality" fill-rule="evenodd" clip-rule="evenodd" viewBox="0 0 512 512"><path fill="#4D4D4D" fill-rule="nonzero" d="M256 0c70.684 0 134.689 28.664 181.012 74.987C483.336 121.311 512 185.316 512 256c0 70.684-28.664 134.689-74.988 181.013C390.689 483.336 326.684 512 256 512c-70.677 0-134.689-28.664-181.013-74.987C28.664 390.689 0 326.676 0 256c0-70.684 28.664-134.689 74.987-181.013C121.311 28.664 185.316 0 256 0z"/><path fill="#fff" fill-rule="nonzero" d="M256.001 19.597c65.278 0 124.382 26.466 167.162 69.242 42.777 42.78 69.242 101.884 69.242 167.162S465.94 380.384 423.16 423.16c-42.777 42.78-101.881 69.246-167.159 69.246-65.278 0-124.382-26.466-167.162-69.243-42.777-42.779-69.243-101.884-69.243-167.162S46.062 131.619 88.839 88.839c42.78-42.776 101.884-69.242 167.162-69.242z"/><path fill="#fff" fill-rule="nonzero" d="M256.001 39.594c119.517 0 216.407 96.887 216.407 216.407 0 119.518-96.89 216.407-216.407 216.407-119.521 0-216.407-96.889-216.407-216.407 0-119.52 96.886-216.407 216.407-216.407z"/><path fill="#00BCE4" fill-rule="nonzero" d="M459.4 181.947H52.601C82.846 98.9 162.495 39.594 256.001 39.594S429.159 98.9 459.4 181.947zm.7 146.119c-29.689 84.086-109.852 144.342-204.099 144.342-94.25 0-174.41-60.256-204.099-144.342H460.1zM131.668 267.184l14.315 44.052-37.474-27.225h46.319l-37.475 27.225 14.315-44.052zm0-73.06l14.315 44.055-37.474-27.228h46.319l-37.475 27.228 14.315-44.055zm243.529 73.06l14.315 44.052-37.475-27.225h46.322l-37.477 27.225 14.315-44.052zm0-73.06l14.315 44.055-37.475-27.228h46.322l-37.477 27.228 14.315-44.055zm-121.764 36.53l14.315 44.055-37.475-27.228h46.319l-37.474 27.228 14.315-44.055z"/></svg>