<svg xmlns="http://www.w3.org/2000/svg" shape-rendering="geometricPrecision" text-rendering="geometricPrecision" image-rendering="optimizeQuality" fill-rule="evenodd" clip-rule="evenodd" viewBox="0 0 512 512"><g fill-rule="nonzero"><path fill="#4D4D4D" d="M256 0c70.684 0 134.689 28.664 181.013 74.987C483.336 121.311 512 185.316 512 256c0 70.683-28.664 134.689-74.987 181.012C390.689 483.336 326.684 512 256 512c-70.677 0-134.69-28.664-181.013-74.988C28.663 390.689 0 326.676 0 256c0-70.684 28.663-134.689 74.987-181.013C121.31 28.664 185.316 0 256 0z"/><path fill="#fff" d="M256 19.595c65.278 0 124.383 26.466 167.162 69.242 42.777 42.78 69.243 101.885 69.243 167.163 0 65.277-26.466 124.382-69.246 167.159-42.776 42.779-101.881 69.245-167.159 69.245-65.278 0-124.383-26.466-167.162-69.242C46.061 380.382 19.595 321.277 19.595 256c0-65.278 26.466-124.383 69.243-167.163C131.617 46.061 190.722 19.595 256 19.595z"/><path fill="#006A4E" d="M256 39.593c119.517 0 216.407 96.886 216.407 216.407 0 119.517-96.89 216.406-216.407 216.406-119.52 0-216.407-96.889-216.407-216.406C39.593 136.479 136.48 39.593 256 39.593z"/><circle fill="#F42A41" cx="256" cy="256" r="119.195"/></g></svg>