<svg xmlns="http://www.w3.org/2000/svg" shape-rendering="geometricPrecision" text-rendering="geometricPrecision" image-rendering="optimizeQuality" fill-rule="evenodd" clip-rule="evenodd" viewBox="0 0 512 512"><g fill-rule="nonzero"><path fill="#4D4D4D" d="M256 0c70.684 0 134.689 28.664 181.012 74.987C483.336 121.311 512 185.316 512 256c0 70.684-28.664 134.689-74.988 181.013C390.689 483.336 326.684 512 256 512c-70.677 0-134.689-28.664-181.013-74.987C28.664 390.689 0 326.676 0 256c0-70.684 28.664-134.689 74.987-181.013C121.311 28.664 185.316 0 256 0z"/><path fill="#fff" d="M256.001 19.597c65.278 0 124.382 26.466 167.162 69.242 42.777 42.78 69.242 101.884 69.242 167.162S465.94 380.384 423.16 423.16c-42.777 42.78-101.881 69.246-167.159 69.246-65.278 0-124.383-26.466-167.162-69.243-42.777-42.779-69.243-101.884-69.243-167.162S46.062 131.619 88.839 88.839c42.779-42.776 101.884-69.242 167.162-69.242z"/><path fill="#01411C" d="M122.859 426.608V85.394c36.716-28.695 82.929-45.8 133.142-45.8 119.517 0 216.407 96.887 216.407 216.407 0 119.518-96.89 216.407-216.407 216.407-50.213 0-96.426-17.105-133.142-45.8z"/><path fill="#fff" d="M265.077 151.442c-43.194 13.797-74.478 54.256-74.478 102.027 0 59.144 47.951 107.091 107.096 107.091 43.316 0 80.624-25.719 97.491-62.718a98.08 98.08 0 01-4.895 4.667c-40.524 36.021-102.574 32.368-138.594-8.151-36.016-40.523-32.37-102.571 8.156-138.589a99.873 99.873 0 015.224-4.327zm71.666 21.891l45.111 50.746-66.325-14.536 62.204-27.221-34.324 58.584-6.666-67.573z"/></g></svg>