<svg xmlns="http://www.w3.org/2000/svg" shape-rendering="geometricPrecision" text-rendering="geometricPrecision" image-rendering="optimizeQuality" fill-rule="evenodd" clip-rule="evenodd" viewBox="0 0 512 512"><g fill-rule="nonzero"><path fill="#4D4D4D" d="M256 0c70.684 0 134.689 28.664 181.013 74.987C483.336 121.311 512 185.316 512 256c0 70.684-28.664 134.689-74.987 181.013C390.689 483.336 326.684 512 256 512c-70.676 0-134.689-28.664-181.013-74.987C28.664 390.689 0 326.676 0 256c0-70.684 28.664-134.689 74.987-181.013C121.311 28.664 185.316 0 256 0z"/><path fill="#fff" d="M256.001 19.596c65.278 0 124.383 26.467 167.162 69.243 42.777 42.78 69.243 101.884 69.243 167.162S465.94 380.384 423.16 423.16c-42.776 42.78-101.881 69.246-167.159 69.246-65.278 0-124.382-26.466-167.162-69.243-42.776-42.779-69.242-101.884-69.242-167.162S46.063 131.619 88.839 88.839c42.78-42.776 101.884-69.243 167.162-69.243z"/><path fill="#4189DD" d="M256.001 39.594c119.518 0 216.407 96.887 216.407 216.407 0 119.518-96.889 216.407-216.407 216.407-119.52 0-216.406-96.889-216.406-216.407 0-119.52 96.886-216.407 216.406-216.407z"/><path fill="#F9D616" d="M47.143 312.801h417.716a214.518 214.518 0 01-8.351 24.724l-401.016-.006a214.99 214.99 0 01-8.349-24.718zm20.299 49.445H444.56a216.143 216.143 0 01-16.29 24.727H83.732a216.677 216.677 0 01-16.29-24.727z"/><path fill="#D21034" d="M173.291 139.938l-15.446-50.072-15.457 50.072-50.068 15.454 50.068 15.458 15.457 50.059 15.455-50.068 50.062-15.449z"/><path fill="#fff" d="M170.938 140.655l-13.093-42.434-13.485 43.686-43.698 13.485 43.698 13.495 13.485 43.676 13.495-43.686 43.668-13.485-43.677-13.485-.393-1.252zm-10.737-51.509l15.062 48.819 56.454 17.436-56.445 17.412-17.418 56.451-17.438-56.442-56.442-17.43 56.442-17.427 17.438-56.444 2.347 7.625z"/></g></svg>