<svg xmlns="http://www.w3.org/2000/svg" shape-rendering="geometricPrecision" text-rendering="geometricPrecision" image-rendering="optimizeQuality" fill-rule="evenodd" clip-rule="evenodd" viewBox="0 0 512 512"><g fill-rule="nonzero"><path fill="#4D4D4D" d="M256 0c70.684 0 134.689 28.664 181.013 74.987C483.336 121.311 512 185.316 512 256c0 70.684-28.664 134.689-74.987 181.013C390.689 483.336 326.684 512 256 512c-70.676 0-134.689-28.664-181.013-74.987C28.664 390.689 0 326.676 0 256c0-70.684 28.664-134.689 74.987-181.013C121.311 28.664 185.316 0 256 0z"/><path fill="#fff" d="M256.001 19.597c65.277 0 124.381 26.46 167.161 69.242 42.782 42.78 69.242 101.884 69.242 167.161s-26.462 124.382-69.242 167.161c-42.78 42.78-101.884 69.243-167.161 69.243s-124.382-26.46-167.161-69.243C46.057 380.382 19.597 321.277 19.597 256s26.46-124.381 69.24-167.163c42.782-42.78 101.887-69.24 167.164-69.24z"/><path fill="#00A1DE" d="M51.717 327.547h408.568c-29.545 84.355-109.842 144.86-204.284 144.86-94.445 0-174.74-60.505-204.284-144.86z"/><path fill="#ED2939" d="M459.365 181.846H52.636C82.906 98.849 162.529 39.594 256.001 39.594c93.469 0 173.094 59.255 203.364 142.252z"/></g></svg>