<svg xmlns="http://www.w3.org/2000/svg" shape-rendering="geometricPrecision" text-rendering="geometricPrecision" image-rendering="optimizeQuality" fill-rule="evenodd" clip-rule="evenodd" viewBox="0 0 512 512"><g fill-rule="nonzero"><path fill="#4D4D4D" d="M256 0c70.683 0 134.689 28.663 181.012 74.987C483.336 121.311 512 185.316 512 256c0 70.683-28.664 134.689-74.988 181.012C390.689 483.336 326.683 512 256 512c-70.677 0-134.689-28.664-181.013-74.988C28.663 390.689 0 326.676 0 256c0-70.684 28.663-134.689 74.987-181.013C121.311 28.663 185.316 0 256 0z"/><path fill="#fff" d="M256.001 19.596c65.278 0 124.383 26.467 167.162 69.243 42.777 42.78 69.243 101.884 69.243 167.162S465.94 380.384 423.16 423.16c-42.776 42.78-101.881 69.246-167.159 69.246-65.278 0-124.382-26.466-167.162-69.243-42.776-42.779-69.243-101.884-69.243-167.162S46.063 131.619 88.839 88.839c42.78-42.776 101.884-69.243 167.162-69.243z"/><path fill="#032EA1" d="M256.001 39.594c119.518 0 216.407 96.887 216.407 216.407 0 119.518-96.889 216.407-216.407 216.407-119.52 0-216.407-96.889-216.407-216.407 0-119.52 96.887-216.407 216.407-216.407z"/><path fill="#E00025" d="M68.726 147.504h374.55c18.522 31.898 29.132 68.956 29.132 108.497 0 39.898-10.808 77.264-29.64 109.356H69.234c-18.832-32.092-29.64-69.458-29.64-109.356 0-39.541 10.613-76.599 29.132-108.497z"/><path fill="#fff" d="M192.193 243.933h123.961v47.698H192.193z"/><path d="M192.193 243.41h123.961l.522.523v47.698l-.522.519H192.193l-.522-.519v-47.698l.522-.523zm123.438 1.045H192.716v46.653h122.915v-46.653z"/><path fill="#fff" d="M309.759 270.272h3.906v17.967h-3.906v-17.967zm-117.566-8.88h123.961v5.547H192.193v-5.547zm0-7.513h123.961v4.888H192.193v-4.888z"/><path d="M309.759 269.749h3.906l.523.523v17.967l-.523.522h-3.906l-.522-.522v-17.967l.522-.523zm3.384 1.045h-2.861v16.922h2.861v-16.922zm-120.95-9.925h123.961l.522.523v5.547l-.522.519H192.193l-.522-.519v-5.547l.522-.523zm123.438 1.048H192.716v4.499h122.915v-4.499zm-123.438-8.564h123.961l.522.526v4.888l-.522.523H192.193l-.522-.523v-4.888l.522-.526zm123.438 1.048H192.716v3.844h122.915v-3.844z"/><path fill="#fff" d="M192.193 246.371h123.961v4.744H192.193z"/><path d="M192.193 245.858h123.961l.517.513v4.744l-.517.514H192.193l-.513-.514v-4.744l.513-.513zm123.447 1.03H192.71v3.711h122.93v-3.711z"/><path fill="#fff" d="M224.83 270.272h3.905v17.967h-3.905v-17.967zm53.362 0h3.906v17.967h-3.906v-17.967zm-85.018 0h3.908v17.967h-3.908v-17.967zm7.658 0h3.905v17.967h-3.905v-17.967zm8.171 0h3.906v17.967h-3.906v-17.967zm8.168 0h3.906v17.967h-3.906v-17.967zm68.428 0h3.906v17.967h-3.906v-17.967zm8.172 0h3.905v17.967h-3.905v-17.967zm8.168 0h3.906v17.967h-3.906v-17.967z"/><path d="M224.83 269.749h3.905l.523.523v17.967l-.523.522h-3.905l-.523-.522v-17.967l.523-.523zm3.383 1.045h-2.861v16.922h2.861v-16.922zm49.979-1.045h3.906l.523.523v17.967l-.523.522h-3.906l-.522-.522v-17.967l.522-.523zm3.384 1.045h-2.861v16.922h2.861v-16.922zm-88.402-1.045h3.908l.523.523v17.967l-.523.522h-3.908l-.523-.522v-17.967l.523-.523zm3.383 1.045h-2.858v16.922h2.858v-16.922zm4.275-1.045h3.905l.526.523v17.967l-.526.522h-3.905l-.523-.522v-17.967l.523-.523zm3.383 1.045h-2.861v16.922h2.861v-16.922zm4.788-1.045h3.906l.522.523v17.967l-.522.522h-3.906l-.523-.522v-17.967l.523-.523zm3.383 1.045h-2.86v16.922h2.86v-16.922zm4.785-1.045h3.906l.523.523v17.967l-.523.522h-3.906l-.522-.522v-17.967l.522-.523zm3.384 1.045h-2.861v16.922h2.861v-16.922zm65.044-1.045h3.906l.525.523v17.967l-.525.522h-3.906l-.522-.522v-17.967l.522-.523zm3.383 1.045h-2.86v16.922h2.86v-16.922zm4.789-1.045h3.905l.523.523v17.967l-.523.522h-3.905l-.523-.522v-17.967l.523-.523zm3.383 1.045h-2.861v16.922h2.861v-16.922zm4.785-1.045h3.906l.523.523v17.967l-.523.522h-3.906l-.522-.522v-17.967l.522-.523zm3.384 1.045h-2.861v16.922h2.861v-16.922z"/><path fill="#fff" d="M143.711 294.137c1.915-.977 4.103-3.251 4.817-5.795h210.308c.718 2.544 2.905 4.818 4.821 5.795H143.711z"/><path d="M143.474 293.67c.957-.487 1.987-1.319 2.849-2.355.762-.915 1.388-1.99 1.704-3.112l.109-.384h211.095l.107.384c.316 1.122.945 2.197 1.706 3.112.859 1.036 1.893 1.868 2.849 2.355l1.94.99H141.532l1.942-.99zm3.649-1.688a11.588 11.588 0 01-1.665 1.633h216.448a11.622 11.622 0 01-1.662-1.633c-.764-.921-1.408-1.987-1.792-3.115h-209.54c-.381 1.128-1.024 2.194-1.789 3.115z"/><path fill="#fff" d="M250.994 171.322s-.156-4.482 2.451-4.529c2.609.047 2.453 4.529 2.453 4.529h-4.904zm-13.606 59.409V224.7c-.086-3.015-3.005-3.233-3.091-5.432 0 0-.378-3.295.493-4.8 1.181 4.407 3.327 3.598 3.327 1.785 0-1.582-1.216-3.055-3.711-6.896-.797-1.228-.304-5.074.815-6.45.431 3.345.927 4.945 2.365 4.945.876 0 1.591-.57 1.591-2.247 0-2.131-1.444-3.206-2.152-5.145-.83-2.265-.257-4.57 1.116-5.861.59 3.301.413 4.615 1.88 4.615 2.955-.936 0-5.214-.632-6.294-.726-1.258.977-3.767.977-3.767.939 2.928 1.243 3.167 2.256 2.896 1.278-.342 1.113-2.241-.449-3.773-.983-.968-.879-2.409.18-3.566 1.06 2.075 2.421 1.951 2.551.717l-.853-4.785h18.796l-.933 4.629c-.269 1.325 1.521 1.612 2.631-.561 1.06 1.157 1.163 2.598.177 3.566-1.559 1.535-1.724 3.431-.446 3.773 1.013.271 1.314.032 2.255-2.896 0 0 1.527 1.709.975 3.77-.632 1.077-3.587 5.358-.632 6.291 1.467 0 1.293-1.317 1.88-4.615 1.376 1.291 1.946 3.596 1.119 5.861-.708 1.939-2.152 3.014-2.152 5.145 0 1.677.714 2.247 1.591 2.247 1.438 0 1.934-1.6 2.365-4.945 1.119 1.376 1.612 5.222.815 6.45-2.495 3.844-3.711 5.314-3.711 6.896 0 1.813 2.146 2.622 3.327-1.785.868 1.505.493 4.803.493 4.803-.089 2.196-3.008 2.414-3.094 5.429v6.031h-32.119zm7.865-50.13l-.432-3.404h17.253l-.434 3.404h-16.387zm1.154-3.475l-.369-2.796h14.816l-.371 2.796h-14.076zm2.353-2.896l-.245-2.799h9.866l-.249 2.799h-9.372zm35.968 119.907c-2.208-.85-5.42-3.179-5.42-5.524v-26.466l2.873-3.657h-57.488l2.755 3.66v26.466c0 2.342-2.208 4.671-4.413 5.521h61.693z"/><path d="M250.475 170.909c.041-1.214.383-4.588 2.961-4.638h.017c2.581.047 2.923 3.424 2.962 4.638h2.535l-.254 2.896h2.755l-.381 2.869h1.594l-.437 3.448h1.255l-1.06 5.252c-.032.166-.015.283.035.342a.194.194 0 00.107.057.552.552 0 00.283-.024c.384-.118.844-.511 1.234-1.275l.342-.667.505.554c.618.674.957 1.444.992 2.194.039.767-.233 1.502-.832 2.093-.573.564-.93 1.169-1.075 1.706a1.688 1.688 0 00-.059.665c.024.153.083.28.172.372a.618.618 0 00.283.153c.295.08.481.095.617-.071.272-.333.558-1.08 1.006-2.48l.275-.853.608.662c.003.005 1.718 1.927 1.096 4.254l-.015.065-.248.41c-.405.658-1.104 1.798-1.447 2.881-.31.98-.307 1.925.65 2.276.652-.05.758-.764 1.003-2.397.08-.526.169-1.128.287-1.783l.168-.948.703.659c.788.738 1.337 1.768 1.558 2.931a6.568 6.568 0 01-.307 3.486c-.286.78-.67 1.412-1.042 2.02-.555.909-1.077 1.765-1.077 2.949 0 .661.115 1.101.307 1.37.18.254.451.354.761.354.482 0 .815-.295 1.081-.903.337-.768.558-1.96.767-3.584l.157-1.205.764.942c.623.765 1.066 2.179 1.241 3.552.173 1.393.073 2.792-.393 3.513-.482.741-.895 1.36-1.261 1.916-1.588 2.391-2.364 3.56-2.364 4.693 0 .372.112.674.289.83a.359.359 0 00.23.103c.1.003.221-.035.36-.127.475-.321.998-1.151 1.42-2.727l.328-1.217.629 1.093c.9 1.561.596 4.756.56 5.098-.052 1.216-.764 1.874-1.529 2.583-.726.676-1.517 1.411-1.561 2.811v6.55c-11.053-.005-22.109 0-33.165 0v-6.55c-.044-1.4-.832-2.135-1.561-2.811-.762-.709-1.474-1.367-1.526-2.583-.036-.337-.343-3.537.56-5.101l.629-1.09.328 1.217c.422 1.576.945 2.406 1.42 2.727.139.092.26.13.36.127a.366.366 0 00.233-.103c.177-.156.287-.455.287-.83 0-1.133-.777-2.305-2.368-4.699-.366-.552-.777-1.172-1.258-1.91-.466-.721-.566-2.12-.393-3.513.175-1.376.618-2.787 1.241-3.552l.764-.942.157 1.205c.209 1.624.43 2.816.767 3.584.263.605.599.903 1.081.903.307 0 .581-.103.761-.354.189-.269.307-.709.307-1.37 0-1.184-.522-2.043-1.077-2.949-.372-.608-.759-1.24-1.045-2.02a6.587 6.587 0 01-.304-3.483c.221-1.166.77-2.199 1.555-2.934l.703-.659.168.948c.119.655.21 1.257.287 1.78.245 1.636.354 2.35 1.004 2.4.956-.354.962-1.296.652-2.276-.342-1.08-1.042-2.217-1.447-2.878l-.212-.355c-.892-1.543.989-4.31.995-4.318l.599-.901.331 1.033c.448 1.4.737 2.147 1.006 2.48.139.166.322.151.617.071a.62.62 0 00.286-.156.664.664 0 00.169-.369 1.68 1.68 0 00-.056-.665c-.145-.537-.502-1.142-1.075-1.706-.602-.591-.874-1.326-.835-2.093.038-.75.375-1.52.992-2.197l.507-.551.343.667c.339.667.697 1.063 1.013 1.237a.563.563 0 00.3.085.185.185 0 00.122-.056.55.55 0 00.124-.298l-.948-5.32h1.24l-.437-3.448h1.591l-.381-2.869h2.758l-.257-2.896h2.533zm2.97-3.596c-1.606.038-1.881 2.421-1.925 3.486h3.849c-.041-1.068-.318-3.448-1.924-3.486zM237.91 224.7v5.508h31.075l.003-5.523c.053-1.848 1.009-2.74 1.895-3.557.602-.561 1.166-1.084 1.195-1.878l.006-.047c0-.006.186-1.636-.009-3.053-.404.909-.861 1.473-1.31 1.774-.334.225-.67.316-.986.305a1.4 1.4 0 01-.886-.37c-.39-.348-.638-.929-.638-1.606 0-1.443.836-2.701 2.542-5.269.384-.579.812-1.225 1.258-1.91.328-.505.381-1.636.233-2.814a9.96 9.96 0 00-.342-1.623c-.163.912-.352 1.644-.597 2.205-.448 1.03-1.08 1.532-2.037 1.532-.631 0-1.207-.227-1.611-.797-.313-.44-.502-1.08-.502-1.972 0-1.47.599-2.453 1.231-3.492.345-.564.702-1.151.953-1.831a5.58 5.58 0 00.263-2.94 4.647 4.647 0 00-.567-1.509l-.091.609c-.349 2.326-.496 3.294-2.114 3.294h-.077l-.079-.023c-1.819-.576-1.902-2.076-1.415-3.617.381-1.195 1.125-2.409 1.553-3.109l.162-.265c.231-.942-.035-1.798-.333-2.391-.319.903-.576 1.461-.85 1.8-.502.618-.977.615-1.695.423a1.638 1.638 0 01-.759-.434 1.677 1.677 0 01-.454-.942 2.646 2.646 0 01.076-1.092c.189-.706.641-1.482 1.353-2.179.378-.372.546-.83.522-1.302a2.19 2.19 0 00-.295-.965c-.452.611-.965.962-1.429 1.107-.286.089-.564.1-.809.047a1.217 1.217 0 01-.69-.41c-.245-.298-.352-.718-.251-1.214l.805-4.006h-17.535l.758 4.243-.008.073c-.045.408-.195.741-.42.978a1.204 1.204 0 01-.797.38 1.578 1.578 0 01-.885-.218c-.334-.183-.682-.502-1.013-.971-.177.315-.277.64-.292.956-.024.472.147.93.522 1.299.712.7 1.167 1.479 1.353 2.182.103.384.129.755.079 1.089a1.69 1.69 0 01-.457.945c-.198.2-.452.351-.759.434-.715.192-1.19.192-1.692-.423-.268-.327-.519-.862-.823-1.715-.363.727-.715 1.689-.402 2.241l.204.334c.431.702 1.172 1.91 1.55 3.105.487 1.541.404 3.041-1.414 3.617l-.077.023h-.08c-1.618 0-1.765-.968-2.114-3.294l-.091-.609c-.266.449-.458.96-.564 1.512a5.541 5.541 0 00.263 2.937c.248.68.605 1.267.95 1.831.635 1.039 1.234 2.019 1.234 3.492 0 .892-.191 1.529-.502 1.972-.404.57-.98.797-1.611.797-.957 0-1.589-.502-2.037-1.532-.245-.561-.434-1.293-.597-2.205a9.96 9.96 0 00-.342 1.623c-.148 1.175-.095 2.309.233 2.814.446.685.874 1.328 1.255 1.904 1.706 2.571 2.545 3.832 2.545 5.275 0 .674-.248 1.258-.641 1.606a1.392 1.392 0 01-.883.37 1.65 1.65 0 01-.989-.305c-.446-.301-.903-.867-1.31-1.774-.195 1.414-.006 3.047-.006 3.053l.003.047c.032.791.593 1.314 1.198 1.874.883.821 1.842 1.713 1.895 3.561v.015zm7.502-46.981l.301 2.359h15.469l.301-2.359h-16.071zm1.219-2.866l.233 1.75h13.164l.233-1.75h-13.63zm2.453-2.899l.154 1.753h8.416l.154-1.753h-8.724zm33.478 121.663a11.959 11.959 0 01-2.123-1.679c-.971-.99-1.653-2.141-1.653-3.325v-26.646l2.32-2.955h-55.364l2.229 2.964v26.64c0 1.234-.544 2.456-1.373 3.493a8.437 8.437 0 01-1.571 1.508h57.535zm-1.379-2.412c1.074 1.096 2.556 1.993 3.734 2.445l2.613 1.007-67.291.003 2.607-1.007c1.077-.416 2.158-1.214 2.94-2.194.688-.859 1.139-1.856 1.139-2.843v-26.294l-3.279-4.355h59.609l-3.424 4.361v26.285c0 .877.558 1.784 1.352 2.592z"/><path fill="#fff" d="M234.917 270.272h3.905v17.967h-3.905v-17.967zm33.026 0h3.905v17.967h-3.905v-17.967z"/><path d="M234.917 269.749h3.905l.523.523v17.967l-.523.522h-3.905l-.523-.522v-17.967l.523-.523zm3.383 1.045h-2.861v16.922h2.861v-16.922zm29.643-1.045h3.905l.523.523v17.967l-.523.522h-3.905l-.523-.522v-17.967l.523-.523zm3.383 1.045h-2.861v16.922h2.861v-16.922z"/><path fill="#fff" d="M223.663 228.366v30.127h58.848v-6.489l.083-23.638c-2.406.945-2.828 3.126-2.828 3.126v12.83h-53.103v-12.83s-.591-2.181-3-3.126z"/><path d="M224.186 229.202v28.765h57.8v-5.963l.085-22.797c-1.354.83-1.721 2.09-1.783 2.344v13.294H226.14v-13.279c-.094-.289-.57-1.541-1.954-2.364zm-1.045 29.291v-30.047l-.325-.974 1.036.407c2.654 1.042 3.316 3.475 3.316 3.48l.017.071v12.37h52.058v-12.358l.009-.05c.003-.006.478-2.462 3.153-3.513l.715-.281-.089 24.406.003 7.011h-59.893v-.522z"/><path fill="#fff" d="M274.523 294.137c-1.925-.85-6.114-3.179-6.114-5.524v-29.618c.413-1.654 2.654-2.631 4.098-3.658h-39.022c1.857.983 3.927 1.801 4.667 3.658v29.621c0 2.342-3.312 4.671-5.237 5.521h41.608z"/><path d="M272.356 293.617c-.915-.528-1.895-1.178-2.692-1.901-1.031-.93-1.777-1.992-1.777-3.103v-29.677l.017-.065c.331-1.335 1.582-2.223 2.831-3.015H235.62c1.298.718 2.462 1.553 3.017 2.947l.038.1v29.713c0 1.143-.652 2.25-1.568 3.215-.64.673-1.417 1.287-2.178 1.786h37.427zm-1.996-2.674c1.34 1.21 3.251 2.22 4.372 2.716l2.262.998-46.547.003 2.259-1.001c1.062-.47 2.565-1.409 3.646-2.548.744-.785 1.278-1.656 1.278-2.495v-29.521c-.593-1.358-2.102-2.126-3.608-2.893l-.779-.405-1.854-.98h42.747l-1.328.945c-.358.254-.738.493-1.128.735-1.175.732-2.45 1.529-2.748 2.563v29.553c0 .771.602 1.583 1.428 2.33z"/><path fill="#fff" d="M279.763 255.653v-21.335h-5.349v-2.082h-42.307v2.082h-5.35v21.335h53.006zm-13.671 38.484c-1.884-.85-4.629-3.179-4.629-5.524v-25.285l1.546-2.299h-19.268l1.547 2.299v25.288c0 2.342-2.746 4.671-4.629 5.521h25.433z"/><path d="M279.238 255.13v-20.29h-5.347v-2.078h-41.262v2.078h-5.349v20.29h51.958zm1.047-20.812v21.857h-54.05v-22.38h5.349v-2.081h43.352v2.081h5.349v.523zm-16.089 59.299a10.644 10.644 0 01-1.848-1.709c-.827-.986-1.408-2.129-1.408-3.295v-25.441l1.089-1.621h-17.308l1.089 1.621v25.444c0 1.166-.581 2.306-1.408 3.292a10.625 10.625 0 01-1.851 1.709h21.645zm-1.048-2.379c.91 1.083 2.161 1.975 3.159 2.424l2.205.995-30.271.003 2.203-.998c.997-.449 2.249-1.341 3.158-2.424.682-.815 1.163-1.73 1.163-2.622v-25.131l-2.004-2.979h21.229l-2.005 2.979v25.128c0 .895.481 1.81 1.163 2.625z"/><path fill="#fff" d="M248.5 261.035h9.765v33.087H248.5z"/><path d="M248.5 260.5h10.3v34.154l-10.834.003V260.5h.534zm9.231 1.069h-8.697v32.022h8.697v-32.022z"/><path fill="#fff" d="M263.39 253.758c.024-2.179 6.359-2.276 9.621-4.134h-39.163c3.262 1.858 9.45 2.008 9.45 4.134l1.326 4.227 16.213.652 2.553-4.879z"/><path d="M262.877 253.616c.141-1.588 2.494-2.182 5.113-2.843.773-.195 1.57-.396 2.332-.626h-33.826c.756.236 1.547.443 2.312.641 2.613.681 4.933 1.29 5.009 2.887l1.196 3.805 15.514.623 2.35-4.487zm5.367-1.831c-2.282.576-4.325 1.093-4.334 1.976l-.059.239-2.554 4.88-.481.277-16.213-.65-.478-.366-1.326-4.227-.024-.156c0-.856-1.989-1.376-4.23-1.961-1.715-.448-3.566-.93-4.954-1.721l.257-.974h39.163l.257.974c-1.396.794-3.274 1.27-5.024 1.709z"/><path fill="#fff" d="M271.048 230.731c0-5.338.222-7.392 1.863-7.392v16.971c-4.021 1.459-6.89 6.59-6.89 6.59h-25.282s-2.87-5.131-6.891-6.59v-16.971c2.023 0 2.034 2.149 2.034 7.392h35.166zm1.863-2.191c0-6.12 5.284-6.807 5.284-6.807v5.446c-2.01-.088-2.981 1.718-2.981 4.405 0 2.686 1.618 2.731 1.618 2.731v15.454h-3.921V228.54z"/><path d="M270.526 230.208c.009-2.421.074-4.133.33-5.287.322-1.467.942-2.105 2.055-2.105h.522v1.541c1.651-2.742 4.68-3.138 4.692-3.141l.593-.08v6.575l-.661-.012c-.715 0-1.255.313-1.624.856-.413.608-.644 1.506-.691 2.598l-.006.431c0 2.191 1.14 2.211 1.143 2.211l.475.045v16.455h-4.966v-9.196c-3.471 1.688-5.907 6.04-5.913 6.055l-.147.265c-8.633 0-17.265-.009-25.897 0l-.15-.265c-.006-.015-2.772-4.96-6.61-6.353l-.345-.127v-17.858h.522c1.314 0 1.969.664 2.285 2.143.251 1.167.272 2.873.272 5.249h34.121zm1.346-5.062c-.248 1.127-.301 2.946-.301 5.585v.519c-12.072 0-24.143-.008-36.211 0v-.519c0-2.592-.003-4.419-.248-5.553-.139-.65-.363-1.045-.741-1.217v15.992c3.466 1.45 6.022 5.367 6.663 6.427l24.688-.003c.644-1.057 3.201-4.974 6.666-6.424v-15.909c-.23.195-.395.555-.516 1.102zm1.561 3.394v20.707h2.876v-14.522c-.617-.23-1.618-.939-1.618-3.141l.012-.478c.053-1.281.342-2.362.868-3.135.499-.735 1.199-1.196 2.099-1.296v-4.29c-1.287.378-4.237 1.727-4.237 6.155z"/><path fill="#fff" d="M233.869 228.54c0-6.12-5.284-6.807-5.284-6.807v5.446c2.013-.088 2.981 1.718 2.981 4.405 0 2.686-1.617 2.731-1.617 2.731v15.454h3.92V228.54z"/><path d="M233.346 228.54c0-4.428-2.946-5.777-4.236-6.155v4.29c.901.1 1.6.561 2.099 1.296.525.773.815 1.854.871 3.135l.012.478c0 2.202-1.004 2.911-1.621 3.141v14.522h2.875V228.54zm-4.69-7.324c.017.003 5.738.747 5.738 7.324v21.755h-4.968V233.84l.475-.045c.003 0 1.143-.02 1.143-2.211l-.006-.431c-.047-1.092-.278-1.99-.691-2.598-.369-.543-.909-.856-1.624-.856l-.661.012v-6.575l.594.08zM244.284 185.938h18.657v.874h-18.657v-.874zm-2.211 5.828h22.787v.873h-22.787v-.873zm-2.211 7.07h27.127v.871h-27.127v-.871zm-2.309 8.638h32.173v.871h-32.173v-.871zm-.741 9.848h33.141v.871h-33.141v-.871z"/><path d="M226.757 249.356h53.006v1.048h-16.018v7.227c-6.896 0-13.796-.003-20.692.003v-7.23h-16.296v-1.048zm35.943 1.057h-18.602v6.178H262.7v-6.178z"/><path fill="#fff" d="M241.114 233.889c3.256 3.912 2.954 10.546 2.919 14.454h18.891c-.038-3.911-.34-10.545 2.917-14.454h-24.727zm10.621-44.801l-2.589-1.334v-3.809c1.057.319 2.247.446 2.362 2.135.369-2.406 1.033-2.291 2.078-3.23 1.042.939 1.706.821 2.076 3.23.115-1.686 1.304-1.816 2.361-2.135v3.809l-2.589 1.334h-3.699z"/><path d="M242.147 234.412c2.536 3.841 2.465 9.441 2.415 13.193l-.003.216h17.836l-.002-.21c-.048-3.752-.122-9.358 2.414-13.199h-22.66zm1.373 13.179c.05-3.888.129-9.846-2.805-13.368l-.714-.856h26.952l-.711.856c-2.937 3.525-2.858 9.485-2.807 13.373l.017 1.27h-19.947l.015-1.275zm7.693-58.187l-2.589-1.332v-4.832l1.006.301c.653.18 1.305.363 1.766.838.313-.759.723-1.06 1.246-1.444.18-.132.38-.28.593-.472l.351-.313.348.313c.213.192.414.34.597.472.52.384.93.685 1.243 1.444.46-.475 1.113-.658 1.765-.838l1.007-.301v4.832l-2.592 1.335-.098 1.411-.191-1.264-.101.053h-3.958l-.101-.053-.195 1.278-.097-1.428zm-1.544-1.966l1.461.75-.145-2.073c-.065-.983-.655-1.278-1.316-1.479v2.802zm2.001 1.03l.192.097h3.445l.192-.097-.354-2.312c-.254-1.662-.65-1.951-1.231-2.379l-.328-.245-.33.245c-.582.428-.978.717-1.231 2.379l-.355 2.312zm4.511-2.356l-.141 2.079 1.461-.753v-2.802c-.662.201-1.252.496-1.32 1.476z"/><path fill="#fff" d="M251.561 195.341l-4.298-2.956v-3.513c1.505.349 3.197.493 3.362 2.341.526-2.639 1.47-4.003 2.958-5.03 1.488 1.027 2.433 2.391 2.958 5.03.166-1.848 1.857-1.989 3.363-2.341v3.513l-4.299 2.956h-4.044z"/><path d="M251.263 195.768l-4.523-3.111v-4.44l1.122.254c1.007.215 2.013.431 2.645 1.113a8.211 8.211 0 01.791-1.763c.529-.864 1.187-1.514 1.99-2.069l.295-.204.296.204c.803.555 1.461 1.205 1.989 2.069.307.508.57 1.087.792 1.763.631-.682 1.638-.898 2.642-1.113l1.125-.254v4.44l-4.662 3.206h-4.363l-.139-.095zm-3.478-3.657l2.557 1.756-.236-2.606c-.107-1.217-1.196-1.497-2.321-1.739v2.589zm2.811 1.934l1.124.773h3.726l1.125-.773-.543-2.731c-.251-1.258-.597-2.202-1.051-2.949a5.517 5.517 0 00-1.394-1.538 5.51 5.51 0 00-1.393 1.54c-.458.745-.803 1.689-1.051 2.947l-.543 2.731zm6.462-2.784l-.233 2.606 2.556-1.756v-2.589c-1.124.242-2.214.522-2.323 1.739z"/><path fill="#fff" d="M251.254 205.088l-4.942-4.339v-5.16c1.733.513 3.679.723 3.871 3.439.602-3.879 1.688-5.884 3.397-7.392 1.71 1.511 2.799 3.513 3.401 7.392.192-2.716 2.134-2.926 3.867-3.439v5.16l-4.941 4.339h-4.653zm9.119 5.763l-4.472 6.182h-5.06l-4.47-6.182h14.002zm-16.579 10.38c2.235 1.222 3.061 3.658 3.301 8.227h12.582c.239-4.569 1.062-7.005 3.3-8.227h-19.183z"/><path d="M250.912 205.481l-5.122-4.499v-6.093l1.225.357c1.175.322 2.347.641 3.052 1.668.254-1.045.564-1.928.93-2.695a9.04 9.04 0 012.238-2.976l.345-.304.346.304a9.07 9.07 0 012.243 2.976c.364.767.67 1.65.927 2.695.703-1.027 1.878-1.346 3.05-1.668l.558-.156.667-.201v6.093l-5.269 4.629h-5.04l-.15-.13zm-4.077-4.968l3.12 2.739-.295-4.189c-.139-2.007-1.47-2.415-2.825-2.787v4.237zm3.206 2.816l1.408 1.237h4.263l1.411-1.24-.655-4.219c-.296-1.886-.703-3.309-1.24-4.44a8.083 8.083 0 00-1.648-2.32 7.987 7.987 0 00-1.641 2.32c-.543 1.128-.951 2.554-1.243 4.44l-.655 4.222zm7.463-4.266l-.295 4.189 3.117-2.739v-4.237c-1.355.369-2.683.78-2.822 2.787zm3.291 12.092l-4.626 6.4h-5.594l-5.222-7.226 16.039.002-.597.824zm-5.16 5.358l3.717-5.142H247.39l3.717 5.142h4.528zm-10.288 5.24c.561.573.995 1.282 1.331 2.149.499 1.288.774 2.935.91 5.034h11.595c.136-2.099.408-3.746.907-5.034.337-.867.773-1.576 1.331-2.149h-16.074zm.36 2.524c-.47-1.21-1.16-2.039-2.161-2.589l-1.795-.98h23.269l-1.795.98c-1.004.55-1.694 1.379-2.161 2.589-.496 1.276-.75 2.979-.868 5.208l-.026.496h-13.572l-.026-.496c-.115-2.229-.372-3.932-.865-5.208z"/><path fill="#fff" d="M263.16 210.851v-6.211c-2.123.584-3.498 1.842-4.112 3.548 0-2.06-2.713-6.816-5.671-9.181-2.967 2.648-5.727 6.95-5.672 9.181-.504-1.623-1.989-2.964-4.112-3.548v6.211h19.567z"/><path d="M262.638 210.329v-4.972a5.66 5.66 0 00-1.73 1.004 4.715 4.715 0 00-1.37 2.004l-1.013-.177c0-.98-.703-2.677-1.774-4.413-.924-1.494-2.111-2.994-3.36-4.077a22.554 22.554 0 00-3.598 4.425c-.971 1.571-1.591 3.061-1.568 4.053l-1.018.166c-.225-.727-.679-1.394-1.317-1.946a5.976 5.976 0 00-1.774-1.039v4.972h18.522zm1.045-5.689v6.211l-.523.523h-19.567l-.525-.523v-6.211l.661-.502c1.128.31 2.09.821 2.843 1.47.339.295.638.617.892.965.292-.921.794-1.954 1.44-2.999 1.084-1.753 2.578-3.575 4.124-4.957l.673-.017c1.471 1.175 2.876 2.91 3.936 4.628.735 1.19 1.31 2.386 1.635 3.399.272-.387.588-.738.954-1.054.741-.638 1.673-1.125 2.798-1.435l.659.502z"/><path fill="#fff" d="M264.108 221.231v-6.212c-2.329.588-3.835 1.843-4.508 3.552 0-2.064-2.973-6.82-6.217-9.184-3.254 2.648-6.277 6.949-6.218 9.184-.552-1.627-2.178-2.964-4.507-3.552v6.212h21.45z"/><path d="M263.585 220.708v-4.992c-.785.263-1.452.614-1.995 1.042a4.708 4.708 0 00-1.503 2.002l-1.01-.189c0-.974-.767-2.666-1.939-4.399-1.025-1.511-2.35-3.031-3.738-4.121a23.32 23.32 0 00-4.003 4.47c-1.06 1.567-1.736 3.052-1.709 4.035l-1.015.18c-.249-.723-.745-1.39-1.444-1.942a6.878 6.878 0 00-2.049-1.078v4.992h20.405zm1.045-5.689v6.212l-.522.522h-21.45l-.523-.522v-6.212l.65-.505c1.221.308 2.27.815 3.087 1.459a5.9 5.9 0 011.051 1.057c.316-.945.88-2.011 1.612-3.094 1.19-1.753 2.825-3.572 4.52-4.954l.635-.014c1.605 1.172 3.146 2.905 4.31 4.623.829 1.225 1.476 2.459 1.827 3.495.31-.422.682-.806 1.116-1.149.803-.631 1.819-1.115 3.038-1.423l.649.505z"/><path fill="#fff" d="M266.723 233.975v-7.162c-2.899.747-4.697 2.888-5.609 4.139 0-3.879-4.381-9.792-7.734-11.729-3.443 1.987-7.735 8.098-7.735 11.729-.936-1.243-2.713-3.392-5.609-4.139v7.162h26.687z"/><path d="M266.201 233.453v-5.937a8.602 8.602 0 00-2.69 1.576c-.888.753-1.54 1.568-1.977 2.164l-.942-.304c0-1.733-.951-3.929-2.294-5.966-1.426-2.164-3.283-4.124-4.918-5.154-1.636 1.033-3.448 2.99-4.854 5.119-1.381 2.099-2.358 4.342-2.358 6.001l-.939.313c-.455-.602-1.113-1.426-1.99-2.173a8.589 8.589 0 00-2.681-1.576v5.937h25.643zm1.045-6.64v7.162l-.523.523h-26.687l-.523-.523v-7.162l.653-.505c1.538.396 2.775 1.164 3.749 1.993.526.449.974.915 1.352 1.346.337-1.626 1.228-3.507 2.389-5.269 1.561-2.368 3.625-4.546 5.461-5.606h.522c1.831 1.056 3.945 3.238 5.53 5.641 1.133 1.716 2.004 3.56 2.329 5.214.375-.431.818-.892 1.337-1.332.978-.826 2.22-1.591 3.758-1.987l.653.505z"/><path fill="#fff" d="M265.156 249.878v-7.365c-2.557 1.004-3.322 3.466-4.124 5.14.316-7.473-4.207-15.502-7.652-17.539-3.445 2.037-8.054 10.241-7.652 17.539-.824-1.666-1.568-4.136-4.125-5.14v7.365h23.553z"/><path d="M264.63 249.356v-6.005c-1.497.901-2.199 2.468-2.786 3.782-.121.266-.237.525-.343.747l-.992-.248c.142-3.348-.714-6.817-2.01-9.784-1.438-3.3-3.404-5.96-5.119-7.117-1.722 1.163-3.708 3.87-5.158 7.194-1.302 2.979-2.152 6.436-1.972 9.698l-.989.26a22.858 22.858 0 01-.389-.833c-.588-1.29-1.282-2.816-2.743-3.699v6.005h22.501zm1.048-6.843v7.365l-.522.526h-23.553l-.522-.526v-7.365l.714-.484c1.792.702 2.752 2.031 3.44 3.356.2-2.716.974-5.452 2.031-7.876 1.608-3.69 3.897-6.69 5.848-7.844h.531c1.949 1.154 4.21 4.1 5.81 7.767 1.06 2.43 1.839 5.19 2.052 7.965.691-1.331 1.659-2.663 3.457-3.368l.714.484z"/><path fill="#fff" d="M263.367 261.035v-7.366c-2.678.638-2.843 1.623-3.693 3.274.316-4.464-2.846-9.553-6.288-11.59-3.446 2.037-6.607 7.126-6.291 11.59-.851-1.651-.957-2.639-3.694-3.274v7.366h19.966z"/><path d="M262.844 260.512v-6.158c-1.561.499-1.91 1.207-2.423 2.258l-.284.57-1.163 2.255.177-2.533c.145-2.036-.481-4.227-1.535-6.172-1.086-2.002-2.619-3.732-4.23-4.768-1.615 1.036-3.147 2.766-4.234 4.768-1.057 1.942-1.68 4.133-1.535 6.172l.177 2.533-1.163-2.255a35.27 35.27 0 01-.313-.635c-.49-1.021-.824-1.709-2.394-2.199v6.164h18.92zm1.045-6.843v7.888h-21.013v-8.546l.641.15c1.836.425 2.6.998 3.126 1.789.215-1.612.788-3.233 1.594-4.715 1.228-2.269 3.014-4.227 4.883-5.331l.266-.156.265.156c1.869 1.104 3.652 3.062 4.883 5.331.806 1.488 1.382 3.115 1.594 4.739.54-.806 1.308-1.382 3.118-1.813l.643-.153v.661z"/><path fill="#fff" d="M148.531 288.342v-22.265c-.732-2.834-3.138-5.344-4.944-5.845v-19.6l4.073 2.202 4.653 20.491v25.017h-3.782z"/><path d="M148.009 288.342v-22.206c-.334-1.243-1.016-2.424-1.819-3.371-.882-1.045-1.898-1.795-2.742-2.032l-.387-.106v-20.871l5.054 2.733c1.577 6.929 3.156 13.855 4.72 20.786v25.586l-4.826.003v-.522zm1.045-22.265v21.745l2.736-.003v-24.443l-4.584-20.193-3.097-1.677v18.354c.948.375 1.987 1.177 2.878 2.228.91 1.075 1.68 2.427 2.049 3.859l.018.074v.056z"/><path fill="#fff" d="M148.531 288.431V266.08c-.732-2.837-3.138-5.344-4.944-5.845v-20.964c2.733 0 4.073 3.566 4.073 3.566l4.653 20.488v24.931l-3.782.175z"/><path d="M148.009 288.431v-22.295c-.334-1.243-1.016-2.421-1.819-3.371-.882-1.042-1.898-1.795-2.742-2.029l-.387-.106v-21.881h.526c3.096 0 4.555 3.885 4.558 3.894 1.488 3.634 3.64 15.986 4.69 20.632v25.48l-4.826.222v-.546zm1.045-22.351v21.804l2.736-.127v-24.379l-4.628-20.384c-.133-.333-1.164-2.754-3.053-3.144v20.01c.948.375 1.987 1.177 2.878 2.231.91 1.075 1.68 2.424 2.049 3.859l.018.071v.059z"/><path fill="#fff" d="M145.632 294.137c1.887-.85 4.629-3.179 4.629-5.524v-27.827l-1.29-2.296h47.409l-1.851 2.296v27.827c0 2.345 1.883 4.674 3.766 5.524h-52.663z"/><path d="M145.42 293.662c.995-.449 2.247-1.341 3.156-2.424.682-.815 1.163-1.73 1.163-2.625v-27.691l-1.659-2.952c16.464-.006 32.925 0 49.389 0l-2.418 3v27.643c0 1.001.387 2.011.98 2.879.665.971 1.574 1.759 2.48 2.17l2.208.995-57.507.003 2.208-.998zm3.959-1.754a10.703 10.703 0 01-1.852 1.709l49.018-.002a7.88 7.88 0 01-1.376-1.536c-.702-1.03-1.163-2.241-1.163-3.466v-28.01l1.281-1.591h-45.424l.921 1.639v27.962c0 1.166-.582 2.309-1.405 3.295z"/><path fill="#fff" d="M188.731 294.137c-1.884-.85-4.629-3.179-4.629-5.524v-26.466l3.944-3.657h-32.232l3.944 3.66v26.463c0 2.345-2.745 4.674-4.628 5.524h33.601z"/><path d="M186.836 293.615a10.605 10.605 0 01-1.849-1.707c-.826-.986-1.408-2.129-1.408-3.295v-26.69l3.135-2.911h-29.568l3.135 2.911v26.69c0 1.166-.582 2.309-1.408 3.295a10.67 10.67 0 01-1.848 1.707h29.811zm-1.048-2.377c.908 1.083 2.16 1.975 3.158 2.424l2.211.998h-38.454l2.211-.998c.995-.449 2.249-1.341 3.159-2.424.682-.815 1.163-1.73 1.163-2.625v-26.238l-4.75-4.408h34.891l-4.753 4.408v26.238c0 .895.481 1.81 1.164 2.625z"/><path fill="#fff" d="M184.211 294.137c-1.887-.85-4.629-3.179-4.629-5.524v-23.924l2.583-3.66h-20.479l2.58 3.66v23.927c0 2.342-2.742 4.671-4.629 5.521h24.574z"/><path d="M182.316 293.617a10.614 10.614 0 01-1.849-1.709c-.826-.986-1.407-2.129-1.407-3.295v-24.089l2.095-2.973h-18.462l2.099 2.976v24.089c0 1.166-.582 2.306-1.408 3.292a10.631 10.631 0 01-1.852 1.709h20.784zm-1.048-2.379c.909 1.083 2.161 1.975 3.155 2.424l2.209.995-29.415.003 2.208-.998c.995-.449 2.246-1.341 3.159-2.424.681-.815 1.16-1.73 1.16-2.622v-23.761l-3.065-4.349h22.493l-3.067 4.346v23.761c0 .895.481 1.81 1.163 2.625z"/><path fill="#fff" d="M167.032 261.035h9.784v33.105h-9.784z"/><path d="M167.032 260.512h10.306v34.15H166.51v-34.15h.522zm9.261 1.045h-8.738v32.06h8.738v-32.06z"/><path fill="#fff" d="M153.721 270.272h3.906v17.967h-3.906v-17.967zm33.495 0h3.906v17.967h-3.906v-17.967zm-36.828-30.304h4.706v18.418h-4.706v-18.418zm0-3.466h4.679v3.422h-4.679v-3.422z"/><path d="M153.721 269.749h3.906l.522.523v17.967l-.522.522h-3.906l-.522-.522v-17.967l.522-.523zm3.383 1.045h-2.86v16.922h2.86v-16.922zm30.112-1.045h3.906l.522.523v17.967l-.522.522h-3.906l-.522-.522v-17.967l.522-.523zm3.383 1.045h-2.86v16.922h2.86v-16.922zm-36.028-30.303h-3.66v17.373h3.66v-17.373zm1.01-.562l.035.039v18.418l-.522.523h-4.706l-.522-.523v-18.418l.02-.023-.02-.021v-3.422l.522-.522h4.679l.523.522v3.422l-.009.005zm-1.039-2.904h-3.631v2.373h3.631v-2.373z"/><path fill="#fff" d="M189.091 243.933h6.71v14.22l-6.71-.003z"/><path d="M189.091 243.369h6.71l.561.564v14.22l-.561.561-6.71-.003-.564-.561v-14.217l.564-.564zm6.146 1.128h-5.582v13.092h5.582v-13.092z"/><path fill="#fff" d="M155.017 258.245v-31.523c1.344 0 1.55 4.62 4.629 4.62 1.603 0 1.432-1.913.531-3.472-.797-1.382-1.783-3.288-.442-6.84.918 2.716 3.389 3.581 2.934 1.875-.785-2.929-3.046-3.41-1.349-7.953.587 3.79 3.02 3.622 2.43 1.42-.665-2.483-2.04-3.502-.346-7.003.951 3.976 2.235 3.743 2.235 1.275 0-3.645-.139-7.578 4.579-9.036 0 0 .272-3.342 1.975-3.342 1.7 0 1.975 3.342 1.975 3.342 4.714 1.461 4.576 5.394 4.576 9.036 0 2.468 1.284 2.701 2.234-1.275 1.698 3.501.322 4.52-.342 7.003-.591 2.202 1.839 2.37 2.43-1.42 1.694 4.543-.564 5.024-1.35 7.953-.457 1.706 2.017.841 2.935-1.875 1.337 3.552.351 5.458-.446 6.84-.897 1.556-1.069 3.472.534 3.472 3.08 0 3.286-4.62 4.629-4.62v31.523h-34.351zm-7.368-23.812v24.051h2.733v-24.11c-.986-.499-1.91-.576-2.736.059h.003z"/><path d="M154.495 258.245v-32.049h.522c.859 0 1.279.868 1.783 1.907.585 1.205 1.317 2.716 2.846 2.716a.838.838 0 00.417-.088.45.45 0 00.188-.222c.057-.121.083-.283.083-.472 0-.558-.233-1.264-.605-1.907-.422-.729-.895-1.6-1.089-2.784-.189-1.172-.101-2.627.608-4.499l.513-1.367.47 1.385c.413 1.228 1.157 2.019 1.738 2.305.095.045.178.074.246.086l-.051-.216c-.23-.856-.605-1.502-.956-2.113-.871-1.506-1.627-2.811-.378-6.159l.697-1.868.307 1.972c.218 1.417.688 2.187 1.116 2.462.091.056.168.083.224.077.021 0 .038-.012.056-.03.109-.13.136-.425.015-.874-.153-.572-.349-1.071-.534-1.543-.644-1.639-1.164-2.962.224-5.822l.638-1.311.339 1.417c.345 1.444.714 2.27 1.03 2.601.11-.224.175-.635.175-1.205l.003-.304c-.006-3.66-.006-7.519 4.62-9.122.135-.941.67-3.474 2.453-3.474 1.78 0 2.314 2.533 2.453 3.474 4.626 1.603 4.623 5.462 4.62 9.122l-.003.304c.003.573.068.983.177 1.205.319-.328.688-1.154 1.034-2.598l.339-1.42.635 1.314c1.387 2.857.871 4.18.227 5.819-.186.472-.384.971-.534 1.543-.121.449-.095.744.014.874.015.021.036.03.054.03.056.006.132-.021.224-.077.431-.272.897-1.045 1.116-2.462l.307-1.969.697 1.865c1.248 3.348.496 4.653-.378 6.162-.351.608-.726 1.254-.954 2.11l-.05.216c.065-.012.148-.041.245-.086.579-.286 1.326-1.077 1.739-2.305l.466-1.385.517 1.367c.705 1.872.797 3.327.605 4.499-.192 1.181-.664 2.052-1.086 2.781-.372.646-.605 1.352-.605 1.91 0 .189.026.348.079.472a.463.463 0 00.192.222c.094.056.234.088.416.088 1.527 0 2.262-1.511 2.843-2.716.505-1.039.924-1.907 1.786-1.907h.52c0 10.858-.009 21.716 0 32.571h-35.393v-.522zm1.045-30.336v29.813h33.306v-29.816c-.101.191-.21.416-.325.652-.708 1.464-1.6 3.306-3.782 3.306-.369 0-.679-.082-.935-.23a1.466 1.466 0 01-.623-.699 2.21 2.21 0 01-.174-.898c0-.735.289-1.629.749-2.426.375-.653.794-1.426.96-2.433.121-.744.106-1.636-.163-2.722-.51.824-1.142 1.384-1.679 1.647-.263.13-.52.198-.747.201-.31 0-.573-.106-.759-.331-.224-.265-.298-.67-.156-1.201.262-.986.675-1.698 1.062-2.365.57-.989 1.084-1.878.788-3.56-.309.685-.699 1.131-1.074 1.37-.284.18-.576.257-.847.236a1.09 1.09 0 01-.78-.399c-.316-.372-.448-1.006-.23-1.818a14.85 14.85 0 01.57-1.65c.437-1.114.806-2.055.351-3.614-.283.788-.582 1.314-.865 1.606-.248.257-.517.381-.788.381-.304.003-.564-.145-.762-.428-.257-.363-.416-1.019-.416-1.887l.003-.304c.003-3.368.006-6.928-4.21-8.233l-.339-.103-.03-.352c0-.006-.236-2.863-1.452-2.863-1.219 0-1.453 2.857-1.456 2.863l-.029.352-.337.103c-4.218 1.305-4.215 4.862-4.209 8.233v.304c0 .871-.16 1.527-.414 1.887-.198.28-.457.431-.764.428-.269 0-.538-.124-.788-.381-.281-.292-.582-.818-.866-1.606-.451 1.559-.082 2.5.352 3.614.195.495.404 1.024.572 1.65.216.812.086 1.446-.23 1.818-.2.242-.472.378-.779.399-.272.021-.564-.056-.85-.236-.375-.239-.762-.685-1.075-1.37-.292 1.682.219 2.571.791 3.557.387.67.797 1.382 1.063 2.368.142.531.065.936-.16 1.201-.186.225-.448.331-.755.331a1.77 1.77 0 01-.747-.201c-.537-.263-1.172-.823-1.68-1.647-.269 1.089-.283 1.978-.162 2.725.165 1.004.584 1.777.959 2.427.461.8.75 1.694.75 2.429 0 .325-.056.629-.174.895a1.491 1.491 0 01-.626.702c-.254.148-.564.23-.933.23-2.181 0-3.073-1.842-3.784-3.306-.113-.233-.222-.458-.322-.649zm-7.369 6.798v23.254h1.689v-23.257a2.52 2.52 0 00-.907-.206c-.268 0-.531.065-.782.209zm-1.048 23.777v-23.833l-.266-.268.473-.364a2.587 2.587 0 011.623-.56c.547 0 1.104.165 1.665.448l.287.145v24.954h-3.782v-.522z"/><path fill="#fff" d="M147.734 249.999c3.389 1.733 6.749 3.741 7.596 8.488h-7.596v-8.488zm47.019-7.2v15.694h2.217v-15.732c-.691-.325-1.635-.375-2.214.038h-.003z"/><path d="M147.97 249.536c1.733.885 3.46 1.842 4.877 3.2 1.441 1.382 2.551 3.162 2.997 5.659l.109.617h-8.741v-9.866l.758.39zm4.154 3.953c-1.119-1.072-2.474-1.889-3.867-2.631v7.106h6.433a8.868 8.868 0 00-2.566-4.475zm43.152-10.38v14.861h1.172v-14.852a2.262 2.262 0 00-.673-.095 1.59 1.59 0 00-.499.086zm-1.045 15.384v-16.216h.375c.339-.195.74-.287 1.154-.296a3.356 3.356 0 011.431.307l.302.142v16.585h-3.262v-.522z"/><path fill="#fff" d="M196.976 249.878c-3.389 1.736-6.749 3.741-7.599 8.491h7.599v-8.491z"/><path d="M196.453 250.737c-1.393.742-2.748 1.559-3.867 2.631a8.873 8.873 0 00-2.565 4.478h6.432v-7.109zm-4.59 1.881c1.417-1.358 3.144-2.318 4.877-3.203l.758-.387v9.863h-8.741l.109-.614c.446-2.5 1.556-4.277 2.997-5.659z"/><path fill="#fff" d="M174.56 213.225l1.975-1.66v-2.128c-.723.071-1.118.319-1.65 1.021-.455-1.411-1.455-2.512-2.793-3.197-1.337.685-2.338 1.736-2.789 3.147-.535-.702-.93-.9-1.653-.971v2.128l1.977 1.66h4.933z"/><path d="M174.368 212.705l1.645-1.382v-1.225l-.101.056c-.194.121-.386.319-.613.62l-.606.794-.307-.953a4.664 4.664 0 00-.942-1.665 5.192 5.192 0 00-1.352-1.095 5.357 5.357 0 00-1.367 1.086 4.503 4.503 0 00-.926 1.627l-.307.95-.606-.794c-.221-.292-.407-.475-.599-.584l-.115-.057v1.24l1.644 1.382h4.552zm2.504-.741l-2.123 1.783h-5.311l-2.311-1.942v-2.941l.572.056c.437.042.78.127 1.108.313.109.062.215.136.322.222.218-.44.495-.841.817-1.205a6.52 6.52 0 011.91-1.452l.236-.121.237.121a6.342 6.342 0 011.901 1.467c.324.372.602.785.826 1.231.101-.086.201-.162.31-.227.328-.204.676-.307 1.119-.352l.573-.053v2.941l-.186.159z"/><path fill="#fff" d="M175.614 218.553l.919-1.99v-2.766c-.724.074-1.116.325-1.651 1.036-.455-1.431-1.452-2.547-2.79-3.241-1.34.694-2.338 1.76-2.792 3.188-.535-.708-.927-.909-1.65-.983v2.766l.918 1.99h7.046z"/><path d="M175.281 218.031l.729-1.58v-1.986l-.095.053c-.197.121-.389.322-.616.625l-.606.809-.307-.962a4.821 4.821 0 00-.944-1.694 5.236 5.236 0 00-1.353-1.11c-.525.3-.986.67-1.364 1.101a4.625 4.625 0 00-.929 1.65l-.304.962-.609-.806c-.221-.295-.407-.481-.599-.59l-.112-.059v2.007l.729 1.58h6.38zm1.727-1.249l-1.057 2.291h-7.717l-1.107-2.397v-3.454l.572.056c.435.044.78.132 1.108.321.109.062.215.136.319.225.218-.449.492-.856.814-1.222a6.486 6.486 0 011.913-1.474l.239-.124.24.124a6.333 6.333 0 011.898 1.488c.324.375.602.794.823 1.249.101-.088.201-.162.308-.23.327-.207.678-.313 1.121-.354l.576-.056v3.451l-.05.106z"/><path fill="#fff" d="M175.756 225.774l2.937-3.581v-3.53c-1.074.12-1.659.546-2.453 1.747-.676-2.421-2.158-2.949-4.145-4.124-1.989 1.175-3.471 1.618-4.148 4.038-.794-1.201-1.378-1.544-2.452-1.661v3.53l2.937 3.581h7.324z"/><path d="M175.511 225.252l2.66-3.242v-2.71a1.823 1.823 0 00-.505.257c-.325.23-.632.596-.992 1.142l-.629.954-.307-1.104c-.528-1.89-1.641-2.521-3.138-3.371l-.505-.287-.643.36c-1.429.792-2.492 1.382-3.003 3.212l-.304 1.101-.631-.953c-.358-.54-.659-.88-.974-1.089a1.875 1.875 0 00-.52-.234v2.722l2.654 3.242h6.837zm3.584-2.728l-3.094 3.773h-7.814l-3.215-3.921v-4.298l.581.065c.617.068 1.101.207 1.559.51.233.154.452.346.67.588.682-1.523 1.774-2.131 3.162-2.902.272-.151.555-.307.886-.502l.265-.156 1.019.59c1.449.821 2.583 1.464 3.289 3.047.212-.248.427-.449.655-.611.458-.328.947-.493 1.579-.564l.579-.065v4.298l-.121.148z"/><path fill="#fff" d="M176.618 232.865s3.419-2.984 3.625-4.623v-3.776c-1.328.157-2.58.499-3.56 2.052-.833-3.126-2.134-4-4.588-5.514-2.453 1.514-3.755 2.388-4.587 5.514-.981-1.553-2.235-1.895-3.56-2.052v3.776c.433 1.639 3.625 4.623 3.625 4.623h9.045z"/><path d="M176.42 232.342c.635-.569 3.112-2.872 3.298-4.138v-3.133a4.382 4.382 0 00-1.152.364c-.522.259-1.009.676-1.44 1.361l-.638 1.009-.31-1.157c-.393-1.47-.885-2.403-1.565-3.138-.637-.691-1.461-1.237-2.518-1.895-1.057.658-1.88 1.204-2.518 1.895-.679.735-1.175 1.668-1.565 3.138l-.309 1.157-.638-1.009c-.431-.685-.918-1.102-1.441-1.361a4.36 4.36 0 00-1.154-.364v3.103c.401 1.302 2.695 3.575 3.309 4.168h8.641zm4.34-4.035c-.228 1.834-3.79 4.942-3.8 4.951l-.147.13h-9.447l-.153-.145c-.009-.009-3.298-3.079-3.767-4.868l-.021-.071v-4.425l.582.068c.717.082 1.416.221 2.084.552a4.23 4.23 0 011.213.903c.395-1.119.883-1.922 1.506-2.598.779-.847 1.747-1.464 3.011-2.243l.274-.172.275.172c1.26.779 2.232 1.396 3.011 2.243.623.676 1.11 1.479 1.506 2.598a4.273 4.273 0 011.213-.9c.667-.334 1.367-.473 2.081-.555l.585-.068c0 1.272.136 3.297-.006 4.428z"/><path fill="#fff" d="M178.077 245.958s4.684-5.187 4.794-7.206v-5.89c-1.754.245-3.413 1.45-4.706 3.867-1.104-4.873-2.822-8.271-6.07-10.636-3.244 2.365-4.965 5.763-6.066 10.636-1.296-2.417-2.955-3.625-4.706-3.867v5.89c.333 2.019 4.791 7.206 4.791 7.206h11.963z"/><path d="M177.846 245.435c.791-.891 4.381-5.03 4.502-6.686v-5.243a4.785 4.785 0 00-1.744.936c-.718.59-1.388 1.426-1.981 2.533l-.659 1.234-.31-1.364c-.54-2.389-1.228-4.414-2.176-6.12-.873-1.577-1.972-2.89-3.383-3.98-1.408 1.09-2.506 2.403-3.383 3.98-.944 1.706-1.635 3.731-2.175 6.12l-.308 1.364-.658-1.234c-.596-1.107-1.266-1.946-1.984-2.533a4.8 4.8 0 00-1.742-.936v5.205c.325 1.694 3.738 5.809 4.509 6.724h11.492zm5.544-6.657c-.115 2.2-4.915 7.517-4.927 7.531l-.159.172h-12.426l-.156-.181c-.012-.014-4.555-5.302-4.916-7.465-.221-1.341-.006-4.916-.006-6.569l.591.08c.998.138 1.966.558 2.857 1.29a8.263 8.263 0 011.571 1.747c.517-1.96 1.154-3.669 1.984-5.166 1.01-1.818 2.3-3.315 3.988-4.543l.307-.225.304.225c1.689 1.228 2.979 2.725 3.989 4.543.829 1.497 1.467 3.206 1.981 5.166a8.306 8.306 0 011.57-1.745c.895-.734 1.86-1.154 2.858-1.292l.593-.08c0 2.025.151 4.573-.003 6.512z"/><path fill="#fff" d="M178.077 253.704s4.005-4.077 4.794-5.845v-5.889c-1.754.242-3.413 1.449-4.706 3.867-1.104-4.874-2.822-7.664-6.07-10.029-3.244 2.365-4.965 5.155-6.066 10.029-1.296-2.418-2.955-3.625-4.706-3.867v5.889c1.016 1.768 4.791 5.845 4.791 5.845h11.963z"/><path d="M177.858 253.179c.723-.747 3.74-3.912 4.49-5.435v-5.134a4.854 4.854 0 00-1.744.939c-.718.587-1.388 1.426-1.981 2.533l-.659 1.234-.31-1.364c-.537-2.382-1.222-4.251-2.164-5.801-.874-1.438-1.975-2.615-3.395-3.693-1.416 1.078-2.518 2.255-3.392 3.693-.942 1.55-1.626 3.419-2.166 5.801l-.308 1.361-.658-1.231c-.596-1.11-1.266-1.946-1.984-2.536a4.862 4.862 0 00-1.742-.936v5.11c.942 1.545 3.788 4.685 4.497 5.459h11.516zm5.488-5.107c-.83 1.86-4.883 5.981-4.892 5.993l-.156.162h-12.414l-.156-.177c-.012-.012-3.806-4.101-4.857-5.934l-.071-.124v-6.622l.591.083c.998.136 1.966.555 2.857 1.29a8.299 8.299 0 011.574 1.751c.516-1.922 1.157-3.51 1.99-4.883 1.012-1.665 2.3-3.003 3.979-4.224l.307-.222.304.222c1.68 1.221 2.964 2.559 3.977 4.224.832 1.373 1.476 2.961 1.99 4.883.49-.712 1.015-1.293 1.573-1.751.895-.735 1.86-1.151 2.858-1.29l.593-.083v6.596l-.047.106z"/><path fill="#fff" d="M179.691 258.2c-1.169-5.083-2.175-8.853-7.802-12.679-5.63 3.823-6.637 7.596-7.803 12.679h15.605z"/><path d="M179.033 257.678c-.523-2.241-1.054-4.219-2.031-6.043-1.025-1.913-2.557-3.69-5.113-5.482-2.56 1.792-4.092 3.569-5.116 5.482-.978 1.821-1.509 3.802-2.031 6.043h14.291zm-1.113-6.533c1.134 2.116 1.686 4.363 2.279 6.94l.148.641h-16.916l.144-.641c.594-2.577 1.146-4.824 2.28-6.94 1.139-2.129 2.848-4.089 5.742-6.055l.292-.198.289.198c2.893 1.966 4.603 3.926 5.742 6.055z"/><path fill="#fff" d="M182.587 261.035v-7.366c-2.556 1.001-4.865 2.483-5.718 4.133-.951-4.089-2.784-5.89-5.069-8.364-2.282 2.474-3.814 4.275-4.765 8.364-.853-1.65-3.162-3.132-5.718-4.133v7.366h21.27z"/><path d="M182.065 260.512v-6.064c-1.036.455-2.008.986-2.816 1.574-.872.626-1.55 1.311-1.917 2.019l-.649 1.261-.322-1.385c-.865-3.719-2.506-5.497-4.558-7.711-.956 1.048-1.768 1.996-2.441 3.082-.756 1.222-1.355 2.648-1.819 4.632l-.322 1.382-.649-1.261c-.366-.708-1.045-1.393-1.913-2.022-.809-.585-1.78-1.116-2.819-1.571v6.064h20.225zm1.045-6.843v7.888h-22.315v-8.655l.711.28c1.379.54 2.693 1.219 3.761 1.993.602.433 1.128.9 1.55 1.393.446-1.547.995-2.754 1.659-3.829.812-1.311 1.78-2.4 2.94-3.655l.384-.413.753.812c1.951 2.105 3.551 3.832 4.528 7.091a9.001 9.001 0 011.553-1.399c1.069-.771 2.383-1.453 3.764-1.993l.712-.28v.767z"/><path fill="#fff" d="M358.621 288.342v-22.265c.729-2.834 3.135-5.344 4.944-5.845v-19.6l-4.073 2.202-4.653 20.491v25.017h3.782z"/><path d="M358.098 287.822v-21.801l.018-.074c.369-1.432 1.139-2.784 2.046-3.859.891-1.051 1.93-1.853 2.881-2.228v-18.354l-3.097 1.677-4.585 20.193v24.443l2.737.003zm1.045-21.686v22.728l-4.827-.003v-25.586c1.565-6.931 3.133-13.86 4.718-20.786l5.054-2.733v20.871l-.384.106c-.847.237-1.863.987-2.745 2.032-.803.947-1.482 2.128-1.816 3.371z"/><path fill="#fff" d="M358.621 288.431V266.08c.729-2.837 3.135-5.344 4.944-5.845v-20.964c-2.736 0-4.073 3.566-4.073 3.566l-4.653 20.488v24.931l3.782.175z"/><path d="M358.098 287.884v-21.863l.018-.071c.369-1.435 1.139-2.784 2.046-3.859.891-1.054 1.93-1.856 2.881-2.231v-20.01c-1.89.39-2.92 2.811-3.053 3.144l-4.629 20.384v24.379l2.737.127zm1.045-21.748v22.841l-4.827-.222v-25.48c1.096-4.85 3.133-16.721 4.691-20.632.003-.009 1.459-3.894 4.558-3.894h.523v21.881l-.384.106c-.847.234-1.863.987-2.745 2.029-.803.95-1.482 2.128-1.816 3.371z"/><path fill="#fff" d="M361.517 294.137c-1.884-.85-4.629-3.179-4.629-5.524v-27.827l1.293-2.296h-47.409l1.851 2.296v27.827c0 2.345-1.883 4.674-3.77 5.524h52.664z"/><path d="M359.624 293.617a10.625 10.625 0 01-1.851-1.709c-.826-.986-1.408-2.129-1.408-3.295v-27.962l.924-1.639h-45.427l1.284 1.591v28.01c0 1.225-.461 2.436-1.166 3.466a7.88 7.88 0 01-1.376 1.536l49.02.002zm-1.051-2.379c.909 1.083 2.164 1.975 3.159 2.424l2.208.998-57.51-.003 2.208-.995c.906-.411 1.818-1.199 2.479-2.17.594-.868.984-1.878.984-2.879V260.97l-2.418-3c16.464 0 32.925-.006 49.389 0l-1.659 2.952v27.691c0 .895.478 1.81 1.16 2.625z"/><path fill="#fff" d="M318.421 294.137c1.884-.85 4.626-3.179 4.626-5.524v-26.466l-3.941-3.657h32.229l-3.941 3.66v26.463c0 2.345 2.745 4.674 4.628 5.524h-33.601z"/><path d="M318.206 293.662c.995-.449 2.249-1.341 3.159-2.424.681-.815 1.16-1.73 1.16-2.625v-26.238l-4.75-4.408h34.891l-4.75 4.408v26.238c0 .895.478 1.81 1.163 2.625.909 1.083 2.161 1.975 3.159 2.424l2.211.998h-38.454l2.211-.998zm3.959-1.754a10.64 10.64 0 01-1.849 1.707h29.808a10.78 10.78 0 01-1.848-1.707c-.823-.986-1.405-2.129-1.405-3.295v-26.69l3.135-2.911h-29.571l3.138 2.911v26.69c0 1.166-.582 2.309-1.408 3.295z"/><path fill="#fff" d="M322.941 294.137c1.883-.85 4.629-3.179 4.629-5.524v-23.924l-2.583-3.66h20.479l-2.583 3.66v23.927c0 2.342 2.745 4.671 4.629 5.521h-24.571z"/><path d="M322.726 293.662c.994-.449 2.249-1.341 3.158-2.424.682-.815 1.163-1.73 1.163-2.625v-23.761l-3.067-4.346h22.493l-3.068 4.349v23.761c0 .892.481 1.807 1.163 2.622.909 1.083 2.164 1.975 3.159 2.424l2.208.998-29.418-.003 2.209-.995zm3.958-1.754c-.54.644-1.19 1.228-1.851 1.709h20.786a10.625 10.625 0 01-1.851-1.709c-.826-.986-1.408-2.126-1.408-3.292v-24.089l2.096-2.976h-18.46l2.096 2.973v24.089c0 1.166-.581 2.309-1.408 3.295z"/><path fill="#fff" d="M340.12 261.035h-9.784v33.105h9.784z"/><path d="M339.597 261.557h-8.738v32.06h8.738v-32.06zm-9.261-1.045h10.306v34.15h-10.831v-34.15h.525z"/><path fill="#fff" d="M353.431 270.272h-3.909v17.967h3.909v-17.967zm-33.495 0h-3.909v17.967h3.909v-17.967zm36.827-30.304h-4.705v18.418h4.705v-18.418zm0-3.466h-4.679v3.422h4.679v-3.422z"/><path d="M352.908 270.794h-2.86v16.922h2.86v-16.922zm-3.386-1.045h3.909l.522.523v17.967l-.522.522h-3.909l-.522-.522v-17.967l.522-.523zm-30.112 1.045h-2.858v16.922h2.858v-16.922zm-3.383-1.045h3.909l.522.523v17.967l-.522.522h-3.909l-.523-.522v-17.967l.523-.523zm40.214-29.258h-3.661v17.373h3.661v-17.373zm-4.706-.523l.036-.039-.009-.005v-3.422l.522-.522h4.679l.523.522v3.422l-.023.021.023.023v18.418l-.523.523h-4.705l-.523-.523v-18.418zm4.706-2.943h-3.634v2.373h3.634v-2.373z"/><path fill="#fff" d="M318.061 243.933h-6.71v14.22l6.71-.003z"/><path d="M317.497 244.497h-5.582v13.092h5.582v-13.092zm-6.146-1.128h6.71l.564.564v14.217l-.564.561-6.71.003-.564-.561v-14.22l.564-.564z"/><path fill="#fff" d="M352.132 258.245v-31.523c-1.341 0-1.547 4.62-4.626 4.62-1.603 0-1.432-1.913-.535-3.472.798-1.382 1.784-3.288.443-6.84-.918 2.716-3.389 3.581-2.931 1.875.782-2.929 3.043-3.41 1.349-7.953-.588 3.79-3.02 3.622-2.43 1.42.665-2.483 2.04-3.502.343-7.003-.951 3.976-2.235 3.743-2.235 1.275 0-3.645.139-7.578-4.579-9.036 0 0-.272-3.342-1.972-3.342s-1.975 3.342-1.975 3.342c-4.717 1.461-4.579 5.394-4.579 9.036 0 2.468-1.284 2.701-2.234-1.275-1.698 3.501-.322 4.52.342 7.003.593 2.202-1.839 2.37-2.426-1.42-1.698 4.543.56 5.024 1.348 7.953.455 1.706-2.016.841-2.934-1.875-1.34 3.552-.354 5.458.443 6.84.9 1.556 1.071 3.472-.531 3.472-3.08 0-3.286-4.62-4.63-4.62v31.523h34.349zm7.371-23.812v24.051h-2.737v-24.11c.987-.499 1.914-.576 2.737.059z"/><path d="M351.609 257.722v-29.813c-.1.191-.206.416-.322.649-.708 1.464-1.6 3.306-3.781 3.306-.369 0-.679-.082-.936-.23a1.476 1.476 0 01-.623-.699 2.227 2.227 0 01-.174-.898c0-.735.286-1.629.747-2.426.375-.653.797-1.426.959-2.43.124-.747.109-1.636-.159-2.725-.511.824-1.143 1.384-1.68 1.647-.263.13-.52.198-.747.201-.31 0-.572-.106-.759-.331-.224-.265-.298-.67-.156-1.201.263-.986.676-1.698 1.063-2.368.569-.986 1.083-1.875.788-3.557-.31.685-.7 1.131-1.075 1.37-.283.18-.575.257-.847.236a1.093 1.093 0 01-.782-.399c-.313-.372-.446-1.006-.227-1.818.168-.626.374-1.155.569-1.65.437-1.114.806-2.055.352-3.614-.284.788-.582 1.314-.866 1.606-.247.257-.516.381-.788.381-.304.003-.563-.148-.761-.428-.257-.36-.417-1.016-.417-1.887l.003-.304c.003-3.371.006-6.928-4.209-8.233l-.34-.103-.029-.352c0-.006-.237-2.863-1.453-2.863-1.216 0-1.455 2.857-1.455 2.863l-.03.352-.336.103c-4.219 1.305-4.213 4.865-4.21 8.233v.304c.003.868-.159 1.524-.413 1.887-.201.283-.461.431-.765.431-.269-.003-.537-.127-.788-.384-.281-.292-.582-.818-.865-1.606-.455 1.559-.086 2.5.351 3.614.195.495.404 1.024.57 1.65.218.812.088 1.446-.228 1.818a1.092 1.092 0 01-.779.399c-.271.021-.563-.056-.85-.236-.375-.239-.762-.685-1.074-1.37-.293 1.682.218 2.571.791 3.56.386.667.797 1.379 1.059 2.365.145.531.068.936-.156 1.201-.186.225-.449.331-.756.331a1.775 1.775 0 01-.747-.201c-.537-.263-1.172-.823-1.679-1.647-.272 1.086-.284 1.978-.163 2.722.163 1.003.585 1.78.96 2.43.46.8.749 1.694.749 2.429 0 .325-.056.629-.174.895a1.48 1.48 0 01-.626.702c-.254.148-.564.23-.932.23-2.182 0-3.077-1.842-3.785-3.306-.115-.236-.221-.461-.325-.652v29.816h33.306zm1.048-31v32.045h-35.396c0-10.855-.006-21.713.003-32.571h.519c.859 0 1.279.868 1.784 1.907.584 1.205 1.316 2.716 2.846 2.716a.836.836 0 00.416-.088.458.458 0 00.189-.222c.056-.124.079-.283.079-.472 0-.558-.233-1.264-.602-1.907-.425-.729-.894-1.603-1.089-2.784-.192-1.172-.1-2.627.608-4.499l.514-1.367.466 1.385c.416 1.228 1.16 2.019 1.742 2.305a.992.992 0 00.245.086l-.05-.216c-.231-.856-.606-1.502-.957-2.11-.871-1.509-1.626-2.814-.378-6.162l.697-1.865.307 1.969c.222 1.417.688 2.19 1.119 2.462.088.056.165.083.221.077a.07.07 0 00.056-.027c.11-.133.133-.428.015-.877-.153-.572-.351-1.071-.534-1.543-.644-1.639-1.163-2.962.224-5.819l.638-1.314.34 1.42c.345 1.444.714 2.27 1.03 2.598.109-.222.174-.632.174-1.205l.003-.304c-.003-3.66-.006-7.519 4.62-9.122.136-.941.67-3.474 2.453-3.474s2.315 2.533 2.453 3.474c4.626 1.603 4.623 5.462 4.62 9.122v.304c0 .57.068.981.178 1.205.316-.331.685-1.157 1.03-2.601l.339-1.417.635 1.311c1.387 2.86.868 4.183.224 5.822-.182.472-.381.971-.531 1.543-.121.449-.094.744.015.874.015.018.035.03.053.03.056.006.133-.021.224-.077.431-.275.898-1.045 1.119-2.462l.304-1.972.697 1.868c1.249 3.348.496 4.653-.378 6.159-.351.611-.726 1.257-.953 2.113l-.051.216c.065-.012.148-.041.245-.086.579-.286 1.326-1.077 1.739-2.305l.467-1.385.516 1.367c.706 1.872.797 3.327.605 4.499-.191 1.181-.664 2.052-1.086 2.781-.372.646-.605 1.352-.605 1.91 0 .189.027.351.079.472a.463.463 0 00.192.222.83.83 0 00.417.088c1.526 0 2.261-1.511 2.842-2.716.505-1.039.925-1.907 1.784-1.907h.525v.526zm7.369 7.711v24.573h-3.782v-24.954l.289-.145c.561-.283 1.116-.448 1.663-.448a2.596 2.596 0 011.626.56l.204.16v.254zm-1.045 23.528v-23.254a1.548 1.548 0 00-.782-.209 2.493 2.493 0 00-.907.206v23.257h1.689z"/><path fill="#fff" d="M359.417 249.999c-3.388 1.733-6.748 3.741-7.598 8.488h7.598v-8.488zm-47.021-7.2v15.694h-2.217v-15.732c.694-.325 1.638-.375 2.217.038z"/><path d="M358.895 250.858c-1.396.742-2.748 1.559-3.867 2.631a8.893 8.893 0 00-2.569 4.475h6.436v-7.106zm-4.59 1.878c1.416-1.358 3.144-2.315 4.877-3.2l.758-.39v9.866h-8.744l.112-.617c.446-2.497 1.553-4.277 2.997-5.659zm-41.387-9.937v16.216h-3.262V242.43l.305-.142c.427-.2.941-.315 1.431-.307.475.009.939.13 1.305.393l.221.16v.265zm-1.045 15.171v-14.861a1.566 1.566 0 00-.499-.086 2.276 2.276 0 00-.673.095v14.852h1.172z"/><path fill="#fff" d="M310.173 249.878c3.392 1.736 6.749 3.741 7.599 8.491h-7.599v-8.491z"/><path d="M310.412 249.415c1.73.885 3.457 1.845 4.874 3.203 1.444 1.382 2.551 3.159 2.999 5.659l.11.614h-8.745v-9.863l.762.387zm4.151 3.953c-1.119-1.072-2.471-1.889-3.865-2.631v7.109h6.433a8.899 8.899 0 00-2.568-4.478z"/><path fill="#fff" d="M332.592 213.225l-1.976-1.66v-2.128c.724.071 1.116.319 1.651 1.021.455-1.411 1.452-2.512 2.79-3.197 1.34.685 2.338 1.736 2.792 3.147.535-.702.927-.9 1.65-.971v2.128l-1.974 1.66h-4.933z"/><path d="M332.255 213.623l-2.161-1.818v-2.944l.57.056c.443.045.794.148 1.121.352.107.065.21.141.311.227.221-.446.499-.859.826-1.231a6.367 6.367 0 011.898-1.467l.237-.121.239.121a6.52 6.52 0 011.91 1.452c.322.364.596.768.817 1.208.104-.086.21-.16.322-.225.325-.186.67-.271 1.107-.313l.57-.056v2.941l-2.308 1.942h-5.311l-.148-.124zm-1.116-2.3l1.642 1.382h4.555l1.641-1.382v-1.24l-.115.057c-.189.109-.375.292-.599.584l-.603.794-.307-.95a4.534 4.534 0 00-.927-1.627 5.35 5.35 0 00-1.369-1.086 5.242 5.242 0 00-1.352 1.095 4.756 4.756 0 00-.942 1.665l-.307.953-.603-.794c-.23-.301-.419-.499-.614-.62l-.1-.056v1.225z"/><path fill="#fff" d="M331.535 218.553l-.919-1.99v-2.766c.724.074 1.119.325 1.654 1.036.452-1.431 1.452-2.547 2.79-3.241 1.337.694 2.338 1.76 2.792 3.188.532-.708.927-.909 1.65-.983v2.766l-.918 1.99h-7.049z"/><path d="M331.062 218.772l-.968-2.096v-3.454l.573.059c.446.041.794.147 1.124.354.107.065.207.142.307.227.222-.452.499-.871.824-1.246a6.333 6.333 0 011.898-1.488l.24-.124.238.124a6.426 6.426 0 011.911 1.474c.321.366.596.773.818 1.222.103-.089.206-.163.318-.225.328-.189.67-.277 1.107-.321l.573-.056v3.454l-1.107 2.397h-7.717l-.139-.301zm.077-2.321l.729 1.58h6.38l.732-1.58v-2.007l-.112.059c-.192.109-.378.295-.6.59l-.608.806-.307-.962a4.567 4.567 0 00-.93-1.65 5.286 5.286 0 00-1.363-1.101c-.517.3-.975.675-1.353 1.11a4.768 4.768 0 00-.941 1.694l-.307.962-.609-.809c-.227-.301-.416-.502-.613-.625l-.098-.053v1.986z"/><path fill="#fff" d="M331.393 225.774l-2.934-3.581v-3.53c1.074.12 1.658.546 2.453 1.747.673-2.421 2.158-2.949 4.145-4.124 1.986 1.175 3.471 1.618 4.144 4.038.795-1.201 1.382-1.544 2.453-1.661v3.53l-2.934 3.581h-7.327z"/><path d="M330.991 226.105l-3.055-3.729v-4.298l.579.065c.629.071 1.118.236 1.576.564.23.162.443.363.658.611.703-1.583 1.84-2.226 3.289-3.047l1.019-.59.265.156c.331.195.614.351.883.502 1.39.771 2.48 1.379 3.165 2.902a3.48 3.48 0 01.667-.588c.46-.303.944-.442 1.562-.51l.578-.065v4.298l-3.212 3.921h-7.817l-.157-.192zm-2.01-4.095l2.657 3.242h6.837l2.657-3.242v-2.722c-.192.056-.363.13-.523.234-.313.209-.613.549-.971 1.089l-.631.956-.307-1.104c-.511-1.83-1.574-2.42-3-3.212l-.643-.36-.505.287c-1.497.85-2.613 1.481-3.139 3.371l-.306 1.104-.632-.954c-.36-.546-.664-.912-.989-1.142a1.865 1.865 0 00-.505-.257v2.71z"/><path fill="#fff" d="M330.534 232.865s-3.422-2.984-3.625-4.623v-3.776c1.325.157 2.58.499 3.56 2.052.833-3.126 2.131-4 4.588-5.514 2.453 1.514 3.755 2.388 4.587 5.514.98-1.553 2.232-1.895 3.557-2.052v3.776c-.43 1.639-3.622 4.623-3.622 4.623h-9.045z"/><path d="M330.192 233.258c-.013-.009-3.573-3.117-3.803-4.951-.139-1.131-.003-3.156-.003-4.428l.582.068c.714.082 1.417.221 2.084.555.425.209.832.499 1.213.9.393-1.119.88-1.922 1.506-2.598.779-.847 1.747-1.464 3.011-2.243l.275-.172.271.172c1.264.779 2.232 1.396 3.014 2.243.623.676 1.11 1.479 1.506 2.598a4.273 4.273 0 011.213-.9c.668-.334 1.367-.473 2.081-.555l.582-.068v4.425l-.018.071c-.472 1.789-3.761 4.859-3.77 4.868l-.15.145h-9.447l-.147-.13zm-2.761-5.054c.189 1.266 2.666 3.569 3.298 4.138h8.641c.617-.593 2.91-2.866 3.309-4.168v-3.103a4.347 4.347 0 00-1.152.364c-.522.259-1.009.676-1.443 1.361l-.638 1.009-.307-1.157c-.392-1.47-.888-2.403-1.567-3.138-.635-.691-1.459-1.237-2.515-1.895-1.057.658-1.884 1.204-2.519 1.895-.679.735-1.174 1.668-1.567 3.138l-.307 1.157-.638-1.009c-.431-.685-.918-1.102-1.441-1.361a4.384 4.384 0 00-1.154-.364v3.133z"/><path fill="#fff" d="M329.072 245.958s-4.685-5.187-4.791-7.206v-5.89c1.754.245 3.41 1.45 4.706 3.867 1.101-4.873 2.822-8.271 6.067-10.636 3.247 2.365 4.968 5.763 6.066 10.636 1.299-2.417 2.955-3.625 4.709-3.867v5.89c-.337 2.019-4.794 7.206-4.794 7.206h-11.963z"/><path d="M328.689 246.309c-.012-.014-4.812-5.331-4.93-7.531-.151-1.939 0-4.487 0-6.512l.593.08c.995.138 1.963.558 2.858 1.292.555.455 1.08 1.034 1.57 1.745.514-1.96 1.152-3.669 1.981-5.166 1.01-1.818 2.3-3.315 3.986-4.543l.307-.225.306.225c1.686 1.228 2.979 2.725 3.989 4.543.83 1.497 1.467 3.206 1.981 5.166.49-.711 1.015-1.29 1.571-1.747.894-.732 1.859-1.152 2.857-1.29l.593-.08c0 1.653.216 5.228-.008 6.569-.361 2.163-4.901 7.451-4.913 7.465l-.156.181h-12.426l-.159-.172zm-3.885-7.56c.118 1.656 3.708 5.795 4.499 6.686h11.492c.771-.915 4.184-5.03 4.511-6.724v-5.205a4.808 4.808 0 00-1.744.936c-.718.587-1.388 1.426-1.981 2.533l-.662 1.234-.307-1.364c-.54-2.389-1.228-4.414-2.175-6.12-.874-1.577-1.972-2.89-3.383-3.98-1.409 1.09-2.507 2.403-3.384 3.98-.944 1.706-1.635 3.731-2.175 6.12l-.307 1.364-.662-1.234c-.593-1.107-1.263-1.943-1.978-2.533a4.808 4.808 0 00-1.744-.936v5.243z"/><path fill="#fff" d="M329.072 253.704s-4.002-4.077-4.791-5.845v-5.889c1.754.242 3.41 1.449 4.706 3.867 1.101-4.874 2.822-7.664 6.067-10.029 3.247 2.365 4.968 5.155 6.066 10.029 1.299-2.418 2.955-3.625 4.709-3.867v5.889c-1.016 1.768-4.794 5.845-4.794 5.845h-11.963z"/><path d="M328.698 254.065c-.012-.012-4.065-4.133-4.895-5.993l-.044-.106v-6.596l.593.083c.995.139 1.963.555 2.858 1.29a8.397 8.397 0 011.57 1.751c.517-1.922 1.158-3.51 1.99-4.883 1.013-1.665 2.3-3.003 3.977-4.224l.307-.222.306.222c1.68 1.221 2.967 2.559 3.977 4.224.832 1.373 1.476 2.961 1.99 4.883a8.465 8.465 0 011.574-1.751c.894-.735 1.859-1.154 2.857-1.29l.593-.083v6.622l-.07.124c-1.055 1.833-4.848 5.922-4.857 5.934l-.156.177h-12.414l-.156-.162zm-3.894-6.321c.747 1.523 3.764 4.688 4.487 5.435h11.516c.712-.774 3.558-3.914 4.499-5.459v-5.11a4.87 4.87 0 00-1.744.936c-.718.59-1.388 1.426-1.981 2.536l-.662 1.231-.307-1.361c-.537-2.382-1.222-4.251-2.163-5.801-.874-1.438-1.975-2.615-3.395-3.693-1.417 1.078-2.519 2.255-3.393 3.693-.941 1.55-1.626 3.419-2.166 5.801l-.307 1.364-.662-1.234c-.593-1.107-1.263-1.946-1.978-2.533a4.879 4.879 0 00-1.744-.939v5.134z"/><path fill="#fff" d="M327.461 258.2c1.169-5.083 2.175-8.853 7.802-12.679 5.63 3.823 6.634 7.596 7.803 12.679h-15.605z"/><path d="M326.953 258.085c.59-2.577 1.145-4.824 2.276-6.94 1.139-2.129 2.849-4.089 5.742-6.055l.292-.198.292.198c2.894 1.966 4.603 3.926 5.742 6.055 1.131 2.116 1.686 4.363 2.276 6.94l.148.641h-16.916l.148-.641zm3.197-6.45c-.977 1.824-1.508 3.802-2.031 6.043h14.291c-.525-2.241-1.056-4.222-2.034-6.043-1.021-1.913-2.553-3.69-5.113-5.482-2.559 1.792-4.088 3.569-5.113 5.482z"/><path fill="#fff" d="M324.565 261.035v-7.366c2.553 1.001 4.865 2.483 5.715 4.133.954-4.089 2.787-5.89 5.069-8.364 2.285 2.474 3.814 4.275 4.768 8.364.85-1.65 3.158-3.132 5.715-4.133v7.366h-21.267z"/><path d="M324.039 261.035v-8.133l.715.28c1.378.54 2.695 1.222 3.761 1.993.605.436 1.13.906 1.553 1.399.977-3.259 2.576-4.986 4.531-7.091l.753-.812.381.413c1.16 1.255 2.128 2.344 2.943 3.655.664 1.075 1.213 2.282 1.659 3.829.419-.493.945-.96 1.547-1.393 1.068-.774 2.382-1.453 3.761-1.993l.711-.28v8.655h-22.315v-.522zm1.048-6.587v6.064h20.222v-6.064c-1.039.455-2.007.986-2.816 1.571-.871.629-1.55 1.314-1.913 2.022l-.652 1.261-.322-1.382c-.461-1.984-1.06-3.41-1.819-4.632-.67-1.086-1.482-2.034-2.438-3.082-2.052 2.214-3.693 3.992-4.558 7.711l-.322 1.385-.652-1.261c-.364-.708-1.043-1.393-1.911-2.019-.814-.588-1.783-1.119-2.819-1.574z"/><path fill="#fff" d="M119.946 321.043H387.18v13.647H119.946z"/><path d="M119.946 320.52h267.756v14.696H119.423V320.52h.523zm266.711 1.045H120.471v12.603h266.186v-12.603z"/><path fill="#fff" d="M112.905 334.67H394.22v13.63l-281.315-.003V334.67zm21.075-34.041h239.162v8.835H133.98v-8.835z"/><path d="M112.905 334.147h281.838v14.672c-94.12 0-188.243.074-282.364 0v-14.672h.526zm280.793 1.045h-280.27v12.585h280.27v-12.585zM133.98 300.106h239.685v9.881H133.458v-9.881h.522zm238.64 1.045H134.503v7.788H372.62v-7.788z"/><path fill="#fff" d="M126.987 309.397h253.149v11.572H126.987v-11.572zm11.171-15.555h230.807v6.725H138.158v-6.725z"/><path d="M126.987 308.874h253.671v12.617H126.464v-12.617h.523zm252.626 1.048H127.509v10.524h252.104v-10.524zm-241.455-16.603h231.329v7.773H137.635v-7.773h.523zm230.284 1.048H138.68v5.677h229.762v-5.677z"/><path fill="#fff" d="M163.209 293.874h17.433v54.393h-17.433z"/><path d="M163.209 293.307h18.003v55.53h-18.573v-55.53h.57zm16.863 1.137h-16.293v53.257h16.293v-53.257z"/><path fill="#fff" d="M167.065 293.874h9.713v54.397h-9.713z"/><path d="M167.065 293.307h10.282v55.53h-10.852v-55.53h.57zm9.146 1.137h-8.579v53.257h8.579v-53.257z"/><path fill="#fff" d="M244.544 293.874h17.435v54.393h-17.432z"/><path d="M244.544 293.307h18.005v55.53H243.98c-.015-18.51-.003-37.02-.003-55.53h.567zm16.868 1.137h-16.301l.002 53.257h16.299v-53.257z"/><path fill="#fff" d="M248.52 293.874h9.713v54.397h-9.713z"/><path d="M248.52 293.307h10.283v55.53h-10.85v-55.53h.567zm9.146 1.137h-8.576v53.257h8.576v-53.257z"/><path fill="#fff" d="M326.36 293.874h17.435v54.393H326.36z"/><path d="M326.36 293.307h18.005v55.53h-18.572v-55.53h.567zm16.865 1.137h-16.296v53.257h16.296v-53.257z"/><path fill="#fff" d="M330.218 293.874h9.713v54.397h-9.713z"/><path d="M330.218 293.307h10.279v55.53h-10.849v-55.53h.57zm9.143 1.137h-8.576v53.257h8.576v-53.257z"/><path d="M148.531 287.819h210.308v1.045H148.531v-1.045zm18.36 53.092h10.069v1.045h-10.069v-1.045zm0-6.808h10.069v1.045h-10.069v-1.045zm0-6.808h10.069v1.045h-10.069v-1.045zm0-6.807h10.069v1.045h-10.069v-1.045zm0-6.811h10.069v1.048h-10.069v-1.048zm0-6.807h10.069v1.047h-10.069v-1.047zm0-6.808h10.069v1.045h-10.069v-1.045zm81.674 40.86h9.376v1.045h-9.376v-1.045zm0-6.813h9.376v1.048h-9.376v-1.048zm0-6.811h9.376v1.045h-9.376v-1.045zm0-6.81h9.376v1.045h-9.376v-1.045zm0-6.814h9.376v1.048h-9.376v-1.048zm0-6.81h9.376v1.045h-9.376v-1.045zm0-6.811h9.376v1.045h-9.376v-1.045zm81.479 40.858h10.067v1.045h-10.067v-1.045zm0-6.808h10.067v1.045h-10.067v-1.045zm0-6.808h10.067v1.045h-10.067v-1.045zm0-6.807h10.067v1.045h-10.067v-1.045zm0-6.811h10.067v1.048h-10.067v-1.048zm0-6.807h10.067v1.047h-10.067v-1.047zm0-6.808h10.067v1.045h-10.067v-1.045z"/></g></svg>