<?xml version="1.0" encoding="UTF-8"?>
<!-- Generated by Pixelmator Pro 3.1.1 -->
<svg width="1750" height="1750" viewBox="0 0 1750 1750" xmlns="http://www.w3.org/2000/svg" xmlns:xlink="http://www.w3.org/1999/xlink">
    <path id="Path" fill="#f35350" stroke="none" d="M 1652.795166 0 L 97.204811 0 C 43.519989 0 0 35.904053 0 80.19397 C 0 80.19397 0 80.19397 0 80.19397 L 0 437.5 L 901.515137 656.25 L 1750 437.5 L 1750 80.19397 C 1750 35.904053 1706.47998 0 1652.795166 0 L 1652.795166 0 Z"/>
    <path id="path1" fill="#f44336" stroke="none" d="M 1750 437.5 L 0 437.5 L 0 875 L 901.515137 1006.25 L 1750 875 L 1750 437.5 Z"/>
    <path id="path2" fill="#e53935" stroke="none" d="M 0 875 L 0 1312.5 L 848.484863 1400 L 1750 1312.5 L 1750 875 L 0 875 Z"/>
    <path id="path3" fill="#cd2e2e" stroke="none" d="M 97.204742 1750 L 1652.795288 1750 C 1706.480103 1750 1750 1714.095947 1750 1669.80603 L 1750 1669.80603 L 1750 1312.5 L 0 1312.5 L 0 1669.80603 C 0 1714.095947 43.519962 1750 97.204742 1750 L 97.204742 1750 Z"/>
    <path id="path4" fill="#b71c1c" stroke="none" d="M 473.194 393.75 L 1275.30603 393.75 C 1319.595947 393.75 1355.5 429.654053 1355.5 473.94397 L 1355.5 1276.057007 C 1355.5 1320.347046 1319.595947 1356.250977 1275.30603 1356.250977 L 473.194 1356.250977 C 428.903992 1356.250977 393 1320.347046 393 1276.057007 L 393 473.94397 C 393 429.654053 428.903992 393.75 473.194 393.75 Z"/>
    <path id="Path-copy" fill="#000000" stroke="none" opacity="0.2" d="M 1319.30603 393.75 L 874.5 393.75 L 874.5 1400 L 1319.30603 1400 C 1363.536011 1399.855957 1399.355957 1364.036011 1399.5 1319.80603 L 1399.5 473.94397 C 1399.355957 429.713989 1363.536011 393.894043 1319.30603 393.75 Z"/>
    <path id="Path-copy-2" fill="#000000" stroke="none" opacity="0.2" d="M 429.69397 1400 L 874.5 1400 L 874.5 393.75 L 429.69397 393.75 C 385.463989 393.894043 349.643982 429.713989 349.5 473.94397 L 349.5 1319.80603 C 349.643982 1364.036011 385.463989 1399.855957 429.69397 1400 Z"/>
    <path id="Path-copy-3" fill="#ffffff" stroke="none" d="M 1297.02417 989.239807 C 1231.063232 917.504639 1050.959106 946.732239 1007.837891 952.04425 C 944.423767 888.2771 901.30249 811.229919 886.081604 784.664124 C 908.910217 712.928955 924.125488 641.193848 926.666992 564.152466 C 926.666992 497.72937 901.30249 426 830.269653 426 C 804.905151 426 782.071045 441.935913 769.385986 463.189819 C 738.949707 518.988892 751.629211 630.575684 799.82782 744.818359 C 771.927429 827.177551 746.557373 906.880615 675.530151 1047.694946 C 601.96698 1079.566895 447.227448 1153.963867 434.542419 1233.672852 C 429.470612 1257.576904 437.078308 1281.498291 454.835114 1300.09021 C 472.591919 1316.031982 495.420563 1324 518.2547 1324 C 612.110535 1324 703.430542 1188.509277 766.850098 1074.254883 C 820.120544 1055.662964 903.832825 1029.091431 987.545105 1013.149536 C 1086.472778 1103.482422 1172.720947 1116.762451 1218.383667 1116.762451 C 1279.261841 1116.762451 1302.095947 1090.196777 1309.703735 1066.281128 C 1322.383179 1039.721191 1314.775513 1010.49353 1297.02417 989.239807 Z M 1233.599121 1034.40918 C 1231.063232 1053.006958 1208.240112 1071.598877 1167.64917 1060.974976 C 1119.450562 1047.694946 1076.329102 1023.779419 1038.279663 991.895813 C 1071.257324 986.578003 1144.815063 978.610046 1198.091064 989.239807 C 1218.383667 994.551758 1238.676392 1007.837524 1233.599121 1034.40918 Z M 809.97699 487.099487 C 815.048767 479.131592 822.661987 473.81958 830.269653 473.81958 C 853.098267 473.81958 858.170044 503.04126 858.170044 526.956909 C 855.634155 582.756104 845.485046 638.543701 827.733765 691.68103 C 789.678711 585.40625 797.291931 511.009277 809.97699 487.099487 Z M 804.905151 1002.525574 C 825.197876 960.018005 853.103821 885.621094 863.247437 853.737549 C 886.075989 893.583252 924.125488 941.414368 944.423767 962.668274 C 944.423767 965.330017 865.783325 981.265991 804.905151 1002.525574 Z M 655.237427 1108.800293 C 596.895203 1209.757324 536.011536 1273.518555 503.033783 1273.518555 C 497.962006 1273.518555 492.884644 1270.862549 487.812836 1268.206543 C 480.199615 1262.888794 477.663727 1254.920898 480.199615 1244.296875 C 487.812836 1207.101318 553.768311 1156.619873 655.237427 1108.800293 Z"/>
</svg>
