<svg xmlns="http://www.w3.org/2000/svg" shape-rendering="geometricPrecision" text-rendering="geometricPrecision" image-rendering="optimizeQuality" fill-rule="evenodd" clip-rule="evenodd" viewBox="0 0 512 512"><g fill-rule="nonzero"><path fill="#4D4D4D" d="M256 0c70.683 0 134.689 28.664 181.012 74.987C483.336 121.311 512 185.316 512 256c0 70.684-28.664 134.689-74.988 181.013C390.689 483.337 326.683 512 256 512c-70.676 0-134.689-28.663-181.013-74.987C28.664 390.689 0 326.676 0 256c0-70.684 28.664-134.689 74.987-181.013C121.311 28.664 185.316 0 256 0z"/><path fill="#fff" d="M256.001 19.596c65.278 0 124.383 26.467 167.162 69.243 42.777 42.78 69.242 101.884 69.242 167.162s-26.465 124.383-69.245 167.16c-42.776 42.779-101.881 69.245-167.159 69.245-65.278 0-124.383-26.466-167.162-69.242-42.777-42.78-69.243-101.885-69.243-167.163S46.062 131.619 88.839 88.839c42.779-42.776 101.884-69.243 167.162-69.243z"/><path fill="#9E3039" d="M43.937 212.664h424.128c-20.074-98.752-107.39-173.07-212.064-173.07-104.677 0-191.992 74.318-212.064 173.07zm423.957 87.487c-20.388 98.344-107.505 172.257-211.893 172.257-104.391 0-191.509-73.913-211.893-172.257h423.786z"/></g></svg>