<svg xmlns="http://www.w3.org/2000/svg" shape-rendering="geometricPrecision" text-rendering="geometricPrecision" image-rendering="optimizeQuality" fill-rule="evenodd" clip-rule="evenodd" viewBox="0 0 512 512"><g fill-rule="nonzero"><path fill="#4D4D4D" d="M256 0c70.684 0 134.689 28.664 181.012 74.987C483.336 121.311 512 185.316 512 256c0 70.684-28.664 134.689-74.988 181.013C390.689 483.336 326.684 512 256 512c-70.677 0-134.689-28.664-181.013-74.987C28.664 390.689 0 326.676 0 256c0-70.684 28.664-134.689 74.987-181.013C121.311 28.664 185.316 0 256 0z"/><path fill="#fff" d="M256.001 19.597c65.278 0 124.382 26.466 167.162 69.242 42.776 42.78 69.242 101.884 69.242 167.162S465.939 380.384 423.16 423.16c-42.777 42.78-101.881 69.246-167.159 69.246-65.278 0-124.382-26.466-167.162-69.243-42.777-42.779-69.243-101.884-69.243-167.162S46.062 131.619 88.839 88.839c42.78-42.776 101.884-69.242 167.162-69.242z"/><path fill="#002A8F" d="M256.001 39.594c119.517 0 216.407 96.887 216.407 216.407 0 119.518-96.89 216.407-216.407 216.407-119.521 0-216.407-96.889-216.407-216.407 0-119.52 96.886-216.407 216.407-216.407z"/><path fill="#fff" d="M84.269 124.327h343.464c19.395 25.258 33.347 54.913 40.096 87.215H44.173c6.749-32.302 20.7-61.957 40.096-87.215zM43.828 298.76h424.346c-6.462 32.237-20.083 61.886-39.139 87.215H82.967c-19.056-25.329-32.677-54.978-39.139-87.215z"/><path fill="#CF142B" d="M408.033 255.151L119.154 88.361c-48.554 39.685-79.56 100.036-79.56 167.64 0 67.035 30.484 126.948 78.341 166.643l290.098-167.493z"/><path fill="#fff" d="M156.304 189.737l38.54 118.29-100.845-73.045H218.5l-100.842 73.045z"/></g></svg>