<svg xmlns="http://www.w3.org/2000/svg" shape-rendering="geometricPrecision" text-rendering="geometricPrecision" image-rendering="optimizeQuality" fill-rule="evenodd" clip-rule="evenodd" viewBox="0 0 512 512.001"><path fill="#4D4D4D" fill-rule="nonzero" d="M256 0c70.684 0 134.69 28.664 181.013 74.987C483.337 121.311 512 185.317 512 256c0 70.684-28.663 134.69-74.987 181.013C390.69 483.337 326.684 512.001 256 512.001c-70.676 0-134.689-28.664-181.013-74.988C28.664 390.69 0 326.677 0 256c0-70.683 28.664-134.689 74.987-181.013C121.311 28.664 185.316 0 256 0z"/><path fill="#fff" fill-rule="nonzero" d="M256.002 19.597c65.277 0 124.382 26.466 167.162 69.242 42.776 42.78 69.243 101.885 69.243 167.163s-26.467 124.382-69.246 167.159c-42.777 42.78-101.882 69.246-167.159 69.246-65.278 0-124.383-26.466-167.163-69.243-42.776-42.78-69.243-101.884-69.243-167.162S46.063 131.619 88.839 88.839c42.78-42.776 101.885-69.242 167.163-69.242z"/><path fill="#0038A8" fill-rule="nonzero" d="M452.845 346.019c-34.16 74.58-109.448 126.39-196.843 126.39-87.399 0-162.687-51.81-196.847-126.39h393.69z"/><path fill="#D52B1E" fill-rule="nonzero" d="M453.53 167.485H58.473C92.305 92.098 168.019 39.594 256.002 39.594c87.979 0 163.693 52.504 197.528 127.891z"/><path fill="#fff" fill-rule="nonzero" d="M322.1 256.734c0 37.507-30.383 67.905-67.89 67.905-37.487 0-67.885-30.398-67.885-67.905 0-37.49 30.401-67.87 67.885-67.87 37.507 0 67.89 30.38 67.89 67.87z"/><path fill-rule="nonzero" d="M323.597 256.734c0 19.162-7.764 36.512-20.32 49.07-12.558 12.562-29.905 20.332-49.067 20.332-19.151 0-36.501-7.77-49.059-20.335-12.556-12.558-20.323-29.908-20.323-49.067 0-19.151 7.77-36.495 20.329-49.05 12.555-12.553 29.902-20.317 49.053-20.317 19.162 0 36.506 7.761 49.061 20.314 12.559 12.556 20.326 29.899 20.326 49.053zm-22.437 46.969c12.016-12.019 19.443-28.625 19.443-46.969 0-18.336-7.424-34.93-19.436-46.936-12.013-12.01-28.613-19.437-46.957-19.437-18.333 0-34.936 7.427-46.952 19.44-12.009 12.006-19.436 28.6-19.436 46.933 0 18.342 7.43 34.947 19.442 46.963 12.013 12.015 28.613 19.445 46.946 19.445 18.344 0 34.941-7.427 46.95-19.439z"/><path fill="#009B3A" fill-rule="nonzero" d="M287.037 246.218c-1.65-.065-1.659 1.751-1.659 1.751s.056-.538.012.074c-.033.602.269 2.072 1.485 2.193 1.287.112 1.712-1.387 1.724-2.117 0-.289-.094-1.862-1.562-1.898v-.003zm0 0L256.002 39.594l31.035 206.624z"/><path fill-rule="nonzero" d="M287.02 246.617c-.842-.033-1.113.605-1.199 1.015l-.035.44c-.012.307.073.865.357 1.284.171.251.419.446.768.481l.085.007c.387.006.664-.216.85-.508.213-.337.316-.762.346-1.084l.008-.133c-.003-.153-.032-.744-.357-1.136-.165-.201-.422-.354-.815-.366l.009-.402-.017.402zm-2.04 1.352s0-.177.047-.428c.703-9.066.906-9.338.927-7.153.399-2.642.632-3.085-.015 5.683.281-.169.644-.269 1.113-.251.664.02 1.11.295 1.405.655.493.599.541 1.429.541 1.644l-.009.204c-.039.419-.18.98-.473 1.441-.321.502-.811.885-1.532.877l-.147-.009c-.626-.062-1.06-.399-1.353-.83l-.05-.074-.454 2.277v-4.036zM211.622 283.911l-.582-.962c-.059-.109-.212-.284-.454-.549a.653.653 0 00-.449-.221.638.638 0 00-.115-.01.812.812 0 00-.413.116c-.228.138-.375.321-.399.549-.041.23.065.546.319.971l.587 1.001 1.506-.895zm5.745-.33l-7.387 4.392-2.252-3.79c-.419-.711-.673-1.275-.77-1.721-.119-.455-.062-.88.127-1.302.186-.428.525-.782.997-1.066a2.594 2.594 0 011.202-.372c.413 0 .791.103 1.157.298.224.13.487.331.773.623-.068-.316-.106-.564-.091-.758.023-.116.077-.305.18-.591.1-.277.195-.469.254-.593l1.491-2.377 1.523 2.58-1.523 2.563c-.189.325-.304.572-.322.747-.009.242.044.451.159.655l.127.21 2.991-1.78 1.364 2.282zm-13.001-6.014l-2.256-6.737 1.739-.584 1.414 4.222 1.302-.437-1.329-3.921 1.671-.543 1.311 3.9 1.6-.517-1.443-4.346 1.845-.629 2.29 6.864-8.144 2.728zm.241-13.715l-.091-.629c-.059-.529-.186-.865-.381-1.042a.912.912 0 00-.617-.237c-.035 0-.073.003-.112.006a1.064 1.064 0 00-.641.34c-.171.204-.227.543-.156 1.039l.074.756 1.924-.233zm-3.341 3.076l-.511-4.378c-.103-.939.033-1.689.425-2.218.405-.525 1.024-.841 1.86-.935.859-.107 1.57.076 2.111.534.534.46.876 1.231 1.003 2.288l.163 1.441 3.162-.369.309 2.651-8.522.986zm-.299-16.751l.275-2.636 5.098.549c.482.053.951.186 1.388.389.434.196.815.497 1.104.874.295.378.502.741.599 1.134.13.514.166 1.148.083 1.875-.047.448-.13.9-.239 1.34-.106.484-.275.886-.481 1.192a3.177 3.177 0 01-.827.836c-.313.222-.67.375-1.045.446-.567.115-1.051.138-1.47.091l-5.075-.534.272-2.642 5.207.564c.47.047.842-.039 1.134-.278.289-.23.455-.57.508-1.015.05-.473-.048-.833-.275-1.113-.224-.29-.575-.452-1.048-.505l-5.208-.567zm8.541-7.215l.458-1.269c.138-.431.177-.765.082-1.004a.792.792 0 00-.519-.47c-.257-.088-.467-.07-.673.057-.213.127-.399.404-.546.835l-.452 1.278 1.65.573zm-3.185-1.116l.387-1.081c.129-.392.165-.693.07-.894-.07-.195-.239-.348-.499-.422a.718.718 0 00-.283-.056.77.77 0 00-.342.083c-.189.112-.343.348-.47.726l-.401 1.11 1.538.534zm-4.054 1.423l1.633-4.7c.281-.782.682-1.301 1.222-1.597a2.034 2.034 0 011.656-.124c.47.183.827.469 1.075.889.145.274.239.638.239 1.06.336-.535.726-.877 1.16-1.022.44-.156.921-.15 1.444.033a2.4 2.4 0 011.021.681c.257.325.428.68.514 1.084.038.26.018.605-.074 1.036-.133.605-.212.986-.28 1.166l-1.512 4.325-8.098-2.831zm4.376-11l1.387-2.264 5.53 3.351 2.152-3.537 1.8 1.101-3.507 5.798-7.362-4.449zm5.671-8.443l1.706-2.034 6.548 5.538-1.71 2.031-6.544-5.535zm11.894-4.614l2.232-.957c.286.603.448 1.172.472 1.733 0 .048.003.092.003.139 0 .49-.109.977-.319 1.42-.257.493-.673.971-1.246 1.473-.729.594-1.396.98-2.028 1.149-.626.162-1.325.124-2.105-.124-.75-.248-1.467-.789-2.158-1.597-.9-1.102-1.313-2.179-1.222-3.236.089-1.078.667-2.046 1.727-2.937.838-.694 1.618-1.057 2.385-1.116.747-.071 1.544.153 2.341.655l-1.467 1.901c-.221-.147-.407-.245-.566-.277a1.303 1.303 0 00-.712-.006 1.483 1.483 0 00-.652.322c-.467.389-.671.874-.602 1.449.041.428.315.933.791 1.526.616.733 1.151 1.14 1.588 1.226.46.094.885-.036 1.284-.37.387-.33.596-.676.605-1.056.009-.402-.097-.842-.351-1.317zm8.682-5.157l-2.241-2.324.564 3.186 1.677-.862zm1.338 1.408l-2.69 1.367.274 1.455-2.414 1.228-1.022-9.113 2.58-1.32 6.773 6.188-2.468 1.26-1.033-1.065zm10.438-8.948l.659 4.635.646-.095c.552-.068.939-.192 1.154-.345.213-.168.358-.387.443-.727.095-.315.095-.808-.003-1.496-.127-.894-.366-1.494-.699-1.78-.343-.284-.857-.384-1.541-.284l-.659.092zm-2.887-1.55l3.897-.561c.767-.103 1.39-.094 1.892.047.517.145.942.381 1.317.729.363.349.652.771.859 1.264.224.517.375 1.063.446 1.621.138.9.138 1.626-.009 2.143a3.63 3.63 0 01-.676 1.393c-.328.384-.688.674-1.089.833a5.866 5.866 0 01-1.539.469l-3.905.549-1.193-8.487zm11.679-1.665l7.082.525-.133 1.828-4.434-.331-.104 1.361 4.116.304-.151 1.739-4.091-.292-.118 1.673 4.561.34-.145 1.934-7.218-.532.635-8.549zm10.911 1.001l2.55.711-1.762 6.238 3.979 1.125-.578 2.019-6.536-1.851 2.347-8.242zm14.477 9.521l.549.357c.422.28.78.398 1.04.369a.792.792 0 00.631-.396c.142-.216.195-.46.163-.726-.051-.251-.287-.508-.7-.779l-.632-.429-1.051 1.604zm-.209-4.52l3.687 2.432c.797.526 1.266 1.119 1.411 1.757.153.646 0 1.325-.475 2.028-.461.714-1.057 1.133-1.766 1.254-.714.116-1.499-.106-2.394-.693l-1.21-.806-1.745 2.657-2.223-1.473 4.715-7.156zm9.308 13.084l1.497-2.861-2.84 1.535 1.343 1.326zm-.906 1.706l-2.153-2.117-1.296.712-1.927-1.896 3.964-1.83 4.366-2.016 2.052 2.028-3.731 8.387-1.969-1.957.694-1.311zm7.97 3.723l.605.953c.071.098.201.281.473.535.124.12.289.192.463.2a.743.743 0 00.508-.127c.227-.145.354-.327.393-.561.032-.221-.086-.552-.355-.953l-.611-.98-1.476.933zm-5.739.508l7.233-4.618 2.376 3.723c.44.685.721 1.249.853 1.689a2.089 2.089 0 01-.111 1.301c-.175.435-.497.794-.948 1.093-.41.26-.806.404-1.211.404-.386.024-.779-.074-1.166-.239a4.337 4.337 0 01-.782-.611c.077.316.124.573.115.753a5.205 5.205 0 01-.15.59 3.18 3.18 0 01-.26.608l-1.4 2.424-1.623-2.53 1.458-2.598c.195-.348.289-.596.289-.771.009-.233-.029-.454-.183-.652l-.115-.195-2.943 1.875-1.432-2.246zm10.141 11.557l2.574-1.942-3.218.177.644 1.765zm-1.562 1.149l-1.03-2.84-1.464.103-.933-2.545 9.169.106.992 2.707-6.964 5.97-.954-2.622 1.184-.879zm4.107 9.124l1.768-.233.511 4.092-3.631.437c-.612-.712-1.081-1.346-1.332-1.928-.28-.576-.458-1.272-.561-2.09-.13-1.01-.065-1.854.219-2.536.254-.676.708-1.243 1.343-1.689.641-.422 1.396-.702 2.276-.808.927-.122 1.765-.027 2.497.277.733.292 1.32.785 1.778 1.479.354.549.587 1.305.699 2.282.13.936.13 1.65.009 2.134a2.58 2.58 0 01-.649 1.267c-.346.381-.78.676-1.261.862l-.771-2.477c.308-.154.532-.348.668-.629.142-.268.177-.608.142-.98-.098-.584-.337-1.018-.774-1.31-.449-.293-1.11-.384-1.978-.275-.921.112-1.544.378-1.907.761-.342.402-.469.919-.404 1.536.032.292.118.564.23.818.124.265.301.54.549.879l.806-.112-.227-1.757zm5.432 12.869l-.302 2.627-5.071-.572a4.351 4.351 0 01-1.403-.399 3.092 3.092 0 01-1.095-.871c-.292-.372-.49-.747-.584-1.125-.124-.549-.157-1.166-.074-1.889.056-.41.136-.862.236-1.349.115-.484.286-.88.502-1.187.221-.322.499-.602.818-.826.375-.234.714-.378 1.056-.437.558-.107 1.054-.142 1.474-.08l5.08.582-.301 2.621-5.199-.599c-.472-.051-.847.032-1.142.265-.283.237-.458.57-.502 1.022-.053.466.036.835.263 1.113.224.286.575.454 1.039.525l5.205.579zm-7.897 9.766l3.232.115-2.61-1.904-.622 1.789zm-1.916-.098l.977-2.846-1.196-.859.889-2.559 7.055 5.863-.971 2.739-9.14.225.898-2.628 1.488.065zm4.735 7.9l-1.491 2.536-3.38.012 1.618 2.97-1.482 2.506-2.61-5.405-3.094-1.822 1.361-2.294 3.091 1.837 5.987-.34z"/><path fill-rule="nonzero" d="M311.626 256.754c0 15.862-6.427 30.222-16.819 40.616-10.394 10.395-24.75 16.827-40.606 16.827-15.859 0-30.219-6.43-40.61-16.824-10.391-10.394-16.822-24.754-16.822-40.619 0-15.849 6.431-30.206 16.825-40.597 10.391-10.389 24.748-16.816 40.607-16.816 15.856 0 30.212 6.427 40.603 16.816 10.339 10.335 16.751 24.594 16.819 40.346l.003.251zm-17.666 39.775c10.144-10.147 16.429-24.152 16.467-39.63v-.145c0-15.522-6.294-29.577-16.47-39.75-10.173-10.173-24.231-16.464-39.756-16.464-15.532 0-29.59 6.291-39.766 16.464-10.173 10.173-16.467 24.228-16.467 39.75 0 15.535 6.294 29.596 16.47 39.772 10.176 10.179 24.234 16.473 39.763 16.473 15.528 0 29.586-6.294 39.759-16.47z"/><path fill-rule="nonzero" d="M297.08 257.15c-.159 11.611-4.924 22.106-12.552 29.734-7.761 7.764-18.483 12.564-30.327 12.564-11.844 0-22.57-4.8-30.333-12.561-7.759-7.761-12.559-18.486-12.559-30.336 0-11.836 4.8-22.558 12.564-30.319 7.762-7.761 18.484-12.561 30.328-12.561 11.844 0 22.563 4.8 30.324 12.558 7.762 7.761 12.562 18.484 12.562 30.322v.599h-.007zm-13.399 28.893c7.543-7.543 12.207-17.97 12.207-29.492v-.095c-.027-11.472-4.688-21.857-12.21-29.38-7.543-7.542-17.964-12.207-29.477-12.207-11.517 0-21.941 4.668-29.486 12.21-7.543 7.54-12.211 17.961-12.211 29.472 0 11.519 4.668 21.943 12.211 29.489 7.545 7.546 17.969 12.213 29.486 12.213 11.516 0 21.937-4.664 29.48-12.21z"/><path fill-rule="nonzero" d="M254.434 241.262l3.498 10.01 11.274.251-8.983 6.832 3.265 10.81-9.284-6.426-9.285 6.426 3.251-10.81-8.999-6.832 11.298-.251 3.738-10.666z"/><path fill="#009B3A" fill-rule="nonzero" d="M273.732 285.748c-.36.298-1.804.46-2.185.525-.386.05-1.901.065-2.541.089-.352.023-1.034.124-1.388.124-3.105-.355 5.048-.308 6.114-.741v.003zm-8.142-2.403c.204-.364 1.222-2.631 1.588-3.274.372-.632 1.217-2.318 1.722-3.021.259-.377 1.272-1.478 1.514-.986-1.765 1.527-3.156 4.19-3.9 5.981-.094.192-.676 1.19-.889 1.45-.209.257-.124.741-.448.779-.343.045-.103.106-.103.106s.295-.655.516-1.039v.004zm11.711 1.732s-1.402-.212-2.273-.519c-.868-.292-2.323-.517-3.563-.484-1.231.014-2.356.386-3.357.767-.998.372-2.291.405-2.291.405s-.732.112-.389-.056c.324-.163 1.458-1.045 1.458-1.045l.732-1.004c.213-.059 3.926-4.93 3.522-6.238.567-.966 1.234-2.681.983-2.982-.118-.121-2.89.88-3.498 1.432-.706.608-1.202 1.875-1.411 2.607-.207.726-1.273 1.325-1.273 1.325-.867.623-1.496 2.595-1.789 4.21-.298 1.594-4.227 2.48-4.227 2.48s-1.09.407-.124.714c.168.048.599.777.945.788.481.057 2.919-.989 3.297-.906.83.189 1.653.414 2.456.673.933.313 1.701.476 2.35.236.662-.239 1.603-.147 2.312-.009.696.151 1.476.089 1.925-.05.481-.147 1.744-.85 1.744-.85s1.37-.593 2.161-.962c.792-.372.31-.535.31-.535v.003zm0 0L256.002 39.594l21.299 245.483z"/><path fill-rule="nonzero" d="M273.927 285.981c-.366.307-1.488.469-2.078.555l-.26.038c-.281.036-1.081.056-1.765.071l-.797.021c-.134.009-.308.029-.497.05-.324.035-.682.074-.912.074l-.032-.003c-.712-.08-.998-.248-.972-.482.042-.348 1.335-.41 2.849-.484 1.695-.08 3.705-.177 4.154-.36l.115.287.195.233zm-6.704.395c-.009.077.026.021.103-.053-.065.006-.1.021-.103.053zm-1.881-3.214c.092-.175.301-.621.54-1.131.372-.788.812-1.727 1.031-2.111l.003-.006c.124-.21.301-.54.502-.912.398-.738.882-1.639 1.228-2.123a5.15 5.15 0 01.805-.871c.163-.135.334-.251.491-.316.236-.094.454-.085.628.08h.006a.67.67 0 01.112.157l.104.212-.18.154c-.738.638-1.412 1.488-1.999 2.388a21.938 21.938 0 00-1.816 3.478l-.008.018c-.059.12-.292.528-.517.891a6.549 6.549 0 01-.41.62c-.042.05-.071.156-.095.257-.071.271-.139.525-.439.611l-.119.23-.272-.136c-.002 0-1.363-.422-.026-.646.106-.228.272-.57.417-.818l.014-.026zm11.552 2.157c-.484-.085-1.349-.253-1.969-.472a9.29 9.29 0 00-1.645-.36 11.65 11.65 0 00-1.809-.109h-.003c-.585.009-1.152.1-1.692.239-.546.138-1.068.325-1.559.511-.971.36-2.187.416-2.376.422a8.896 8.896 0 01-.632.077c-.254.106-.31.091-.262.017-.553.015-.93-.1.345-.726.186-.095 1.169-.835 1.378-.992l.748-1.024c.035-.018.073-.039.111-.053.075-.021.948-1.181 1.816-2.513.862-1.322 1.659-2.775 1.506-3.339l-.042-.139.068-.111c.296-.502.62-1.22.818-1.819.133-.396.216-.706.201-.791-.083.026-.785.348-1.538.655-.656.269-1.293.573-1.53.785l-.003.006c-.265.23-.504.573-.705.945a8.048 8.048 0 00-.614 1.515c-.227.799-1.275 1.425-1.397 1.496-.336.248-.64.75-.903 1.367-.339.8-.596 1.774-.755 2.645-.319 1.712-4.095 2.636-4.438 2.716-.058.027-.206.095-.13.127.151.041.281.189.432.363.159.183.36.411.442.414l.024.003c.174.02.883-.222 1.577-.458.749-.254 1.481-.505 1.75-.443.419.094.832.198 1.246.313.419.112.835.236 1.24.366l.006.003c.448.151.856.266 1.219.313.342.044.649.027.927-.074a3.279 3.279 0 011.095-.165c.475-.003.968.065 1.379.145h.006c.298.064.617.085.909.079.34-.009.643-.059.862-.124.452-.139 1.677-.821 1.683-.821l.023-.014c.003 0 1.352-.585 2.158-.963l.033-.012zm-1.765-1.048c.841.296 2.214.502 2.219.502l-.047.301.136-.271c.003 0 1.11.413-.319 1.08-.744.352-2.054.921-2.152.963-.162.088-1.317.72-1.792.865a3.884 3.884 0 01-1.021.15 4.615 4.615 0 01-1.054-.088 6.8 6.8 0 00-1.258-.136c-.322.003-.632.038-.886.13-.374.139-.776.162-1.213.106-.416-.053-.859-.177-1.34-.339a26.32 26.32 0 00-1.208-.36c-.401-.11-.808-.213-1.216-.305-.103-.023-.756.198-1.426.426-.755.256-1.532.522-1.839.484-.339-.027-.626-.354-.856-.618-.088-.1-.115-.173-.139-.179l-.009-.003c-1.812-.576.098-1.287.101-1.287l.05-.016c.012-.002 3.729-.838 3.991-2.237.166-.909.437-1.931.794-2.772.305-.718.679-1.314 1.116-1.63l.024-.014s.962-.547 1.134-1.146c.126-.44.354-1.068.664-1.638.233-.429.513-.833.841-1.116.298-.266.998-.606 1.707-.895.988-.404 2.069-.667 2.211-.519l.017.017c.192.231.121.774-.082 1.394a11.04 11.04 0 01-.815 1.833c.106.809-.712 2.347-1.606 3.717-.777 1.193-1.65 2.285-2.002 2.642l.012.009-.764 1.042-.036.03c-.003 0-.304.241-.652.502.443-.045 1.06-.142 1.585-.337a15.28 15.28 0 011.627-.535 7.8 7.8 0 011.83-.253c.617-.018 1.284.029 1.907.112.67.091 1.296.23 1.76.387l.006.002z"/><path fill="#009B3A" fill-rule="nonzero" d="M266.629 289.815s-5.411-2.827-5.7-2.895c-.172-.024-2.454-1.282-3.499-1.606-.755-.246-1.797-.31-2.172-.287-.889.065-2.344.458-2.344.458l1.343.549s1.263.617 1.88.951c.88.466.921 1.033.921 1.033l4.898 2.155.992.714s.906-1.248 3.681-1.072zm0 0L256.002 39.594l10.627 250.221z"/><path fill-rule="nonzero" d="M265.611 289.571l-4.735-2.415c-.122-.03-.455-.198-.898-.419-.797-.402-1.966-.989-2.622-1.193a5.908 5.908 0 00-.997-.21c-.461-.059-.88-.077-1.084-.062-.466.033-1.095.16-1.576.269l.667.275c.006.002 1.293.634 1.886.953.697.369.933.827 1.01 1.072 1.928.847 3.944 1.493 5.656 2.721.319-.298 1.131-.885 2.693-.991zm-4.629-2.891c.587.139 5.742 2.911 5.756 2.92l-.109.215-.018.246c-2.641-.171-3.465.968-3.468.971l-.142.192-1.166-.839-5.022-2.208v-.159c0-.003-.035-.42-.791-.818a60.753 60.753 0 00-1.866-.945l-1.987-.812.68-.194c.003 0 1.479-.399 2.394-.464.227-.014.685 0 1.178.065.363.047.746.121 1.08.23.688.213 1.884.812 2.695 1.222.429.213.745.373.765.375l.021.003z"/><path fill="#009B3A" fill-rule="nonzero" d="M272.067 278.583c1.701-1.518 2.533-3.673 3.932-4.868.228.162.228.434-.05.912-.263.469-.617.632-.771.877-.286.384-1.136 1.092-1.366 1.517-.207.401-.47.965-1.213 1.393-.739.44-.505 1.143-.567 1.438-.059.325-1.199 1.14-1.748 2.146-.103 1.051-.15.608-.788.983 1.16-1.747 1.768-2.872 2.571-4.398zm-3.823 4.803c-.109.227-3.463 2.134-2.415 1.851 1.042-.275 4.142-1.394 5.025-1.786 1.074-.47 1.721-1.456 2.53-2.259.826-.817 3.38-3.259 3.82-4.2.431-.969.823-2.315-.906-5.341 0 0-.269.579-.913 1.146-.637.578-1.591 1.219-1.591 1.219l-1.11 1.048s-3.921 7.203-4.44 8.322zm0 0L256.002 39.594l12.242 243.792z"/><path fill-rule="nonzero" d="M271.854 278.343c.851-.758 1.485-1.694 2.085-2.579.587-.869 1.142-1.689 1.854-2.295l.189-.162.203.145a.672.672 0 01.302.614c-.01.2-.092.434-.257.717-.18.325-.393.517-.57.676-.092.083-.171.154-.21.216l-.015.021c-.13.177-.354.401-.593.64-.304.301-.634.629-.747.832l-.021.045c-.221.431-.516 1.016-1.31 1.476-.411.245-.405.632-.402.9.003.121.003.231-.017.328-.048.239-.305.499-.635.836-.36.365-.821.835-1.113 1.343-.092.882-.177.906-.579 1.015-.085.024-.203.056-.36.148l-1.198.702.767-1.157a40.297 40.297 0 001.408-2.264c.39-.676.744-1.34 1.149-2.108l.194.103.024-.026-.148-.166zm3.759-3.781l-.222.268c.074-.073.151-.162.222-.268zm-7.077 8.962c-.079.166-.629.523-1.228.907l.836-.292c1.062-.378 2.128-.78 2.577-.98.726-.316 1.26-.913 1.795-1.509.207-.227.413-.458.643-.685l.355-.351c1.024-1.004 3.025-2.973 3.397-3.753.198-.445.39-.98.331-1.744-.056-.703-.316-1.609-.959-2.828-.16.215-.384.481-.688.749-.605.55-1.464 1.137-1.603 1.231l-1.048.993c-.322.59-3.915 7.194-4.408 8.26l-.23-.107.23.109zm-1.617.393a94.53 94.53 0 001.036-.67c.531-1.14 4.437-8.319 4.449-8.337l.023-.044c.293-.278.901-.924 1.19-1.119.003-.003.939-.632 1.553-1.19l.003-.003c.593-.519.85-1.065.85-1.068l.283-.47.272.476c.892 1.558 1.237 2.698 1.305 3.578.071.906-.154 1.532-.384 2.054l-.003.003c-.416.886-2.48 2.911-3.531 3.944l-.354.352c-.207.203-.41.43-.617.658-.581.646-1.16 1.293-2.013 1.665-.473.21-1.556.62-2.622.998-.971.345-1.942.67-2.447.803-.349.094-.537.006-.597-.219-.088-.324.792-.891 1.604-1.411z"/><path fill="#009B3A" fill-rule="nonzero" d="M281.874 280.85s-2.146-.192-2.335-.192c-.201 0-1.379-.162-3.088-.162-1.695 0-2.332.587-2.778 1.059-.481.532-1.816 1.754-1.816 1.754l.721-.062c1.718-1.337 3.052-.847 3.587-.886.555-.02 1.225.036 2.946-.575 1.745-.611 1.641-.039 1.45.02a9.141 9.141 0 01-2.589.523c-1.296.071-2.433.322-2.944.322-.511 0-4.292 1.033-4.292 1.033s4.091.242 4.531.387c.44.18 1.128.094 1.695-.177 1.567-.724 2.276-.862 2.919-1.007.65-.127 1.42-.564 1.42-.564s.414-.263.794-.954c.396-.711-.221-.519-.221-.519zm2.008-11.206c.256-.641.903-2.144 1.585-2.737.419-.363 1.137-.531 1.52-.694.163-.056 1.337-.112-.13.293-.608.162-1.431.519-1.798 1.133-.513 1.423-.959 2.663-1.913 3.575-.699.732-1.142 1.689-1.142 1.689l-.75.259c1.373-.841 1.972-2.403 2.628-3.518zm6.648-.803c-.783.262-1.06.478-1.06.478-1.751.525-2.468 1.626-3.236 2.521-.389.469-.938.821-2.789 1.615-1.689.726-2.997 1.848-3.026 1.848 0 0-.538.109-.434.369.038.124.496.024.496.024s3.48-.496 4.933-1.379c.927-.582 1.449-1.004 2.329-2.362.392-.599.835-1.727.853-1.001.068 1.925-2.923 3.791-4.224 4.37-.7.295-1.627.416-2.843.616-1.205.222-1.934.157-1.848-.109.124-.383.262-.46.581-.841.573-.682 1.955-.924 2.973-1.402 1.207-.538 2.347-1.335 2.92-2.011.584-.688.788-.939.948-1.52.445-1.515.469-2.356.885-2.896 1.47-1.813 1.686-2.397 1.759-3.203.015-.189-.764.428-1.169.652-.794.47-1.086.47-2.71.892-1.647.413-1.608 1.473-1.865 1.975-.074.2-.741 1.033-1.06 1.189-.319.16-1.101 1.293-1.391 1.958-.215.484-.599.832-.903.791-.322-.059.614-3.566.82-4.148.225-.575.269-1.7.269-2.081 0-.363.012-1.317-.623-1.423-.634-.109-.664-.983-.664-.983-1.52 1.32-.67 3.643-.508 5.019.163 1.366-.313 3.893-.313 3.893 1.471.626.313 2.415-.144 2.991-.482.587-1.39.694-1.801 1.213-.434.532-3.513 4.821-3.513 4.821l3.832-1.083s.357.062-.216-.373c-.581-.416.186-2.025.679-2.42.945-.738 2.217-.201 2.217-.201s1.778.275 3.956-.59c1.822-.721 2.604-1.884 3.466-2.761.469-.475 1.328-2.06 1.872-2.999.325-.54.909-1.57.549-1.449h.003zm0 0L256.002 39.594l34.528 229.247z"/><path fill-rule="nonzero" d="M281.844 281.154c-.005 0-2.119-.189-2.305-.189-.05 0-.18-.012-.366-.03-.493-.044-1.452-.132-2.722-.132-.797 0-1.337.132-1.724.321-.381.183-.626.426-.829.641-.172.186-.443.455-.724.729 1.119-.599 2.034-.514 2.616-.457.144.015.268.023.354.018l.198-.003c.507-.013 1.178-.024 2.666-.553.906-.316 1.387-.33 1.62-.254a.52.52 0 01.269.192.414.414 0 01.059.328.469.469 0 01-.304.334c-.428.15-.865.274-1.311.363-.448.091-.9.147-1.355.171-.705.038-1.37.133-1.904.21-.449.062-.812.115-1.054.115-.233 0-1.246.245-2.217.493l-.077.059c1.134.082 2.382.189 2.631.271l.017.006c.169.068.396.086.641.062.269-.029.552-.109.809-.23l.003-.003c1.508-.697 2.241-.859 2.872-1.004l.118-.026c.585-.112 1.296-.514 1.323-.529.094-.067.393-.313.682-.835.023-.044.138-.083.138-.083l-.094-.286-.03.301zm-2.305-.803c.171 0 1.963.159 2.308.192.266-.065 1.172-.216.517.971-.416.759-.88 1.051-.88 1.054l-.032.021s-.815.463-1.514.599l-.095.021c-.602.136-1.299.292-2.751.962a3.207 3.207 0 01-1.007.287c-.334.032-.656.005-.915-.098-.419-.136-4.437-.369-4.449-.369l-1.828-.097 1.76-.502.927-.248.08-.068c.003-.003 1.317-1.205 1.789-1.724l.147-.154-.189.053.517-.711c.009-.012 3.064-4.269 3.525-4.836.242-.307.59-.475.95-.652.319-.154.65-.313.853-.561.08-.103.184-.245.29-.414l-.847.296 1.048-.644c.041-.082.082-.168.121-.254.112-.265.192-.546.183-.794a.715.715 0 00-.275-.558 1.028 1.028 0 00-.263-.15l-.221-.095.042-.239c0-.006.469-2.489.309-3.802-.029-.26-.082-.543-.141-.847-.269-1.426-.614-3.257.755-4.44l.505-.437v.667c0 .003.018.614.408.682.876.147.876 1.251.876 1.703v.021c0 .236-.014.756-.082 1.269a4.136 4.136 0 01-.201.912c-.133.373-.567 1.961-.771 3.047-.044.23-.076.44-.091.602l.029-.026c.13-.115.254-.286.346-.49.156-.36.448-.845.738-1.252.289-.407.593-.753.794-.856l.006-.003c.1-.047.271-.219.443-.408.23-.257.434-.528.466-.611l.012-.032c.041-.083.077-.192.115-.31.198-.611.466-1.453 1.951-1.821l.869-.222c.867-.215 1.172-.289 1.756-.638l.009-.003c.118-.068.298-.189.475-.306.331-.222.649-.437.838-.423.213.018.325.136.308.366a3.31 3.31 0 01-.39 1.34c-.254.491-.685 1.105-1.435 2.029-.221.289-.322.726-.466 1.364-.089.386-.195.841-.352 1.381a5.252 5.252 0 011.925-1.054c.097-.065.422-.262 1.095-.487.691-.236.665.222.358.889-.151.327-.384.729-.549 1.007l-.299.525c-.531.93-1.198 2.105-1.615 2.527-.156.159-.318.34-.486.523-.727.8-1.547 1.7-3.089 2.308-2.255.895-4.094.611-4.1.611l-.041-.003-.042-.018c-.003-.003-1.107-.466-1.907.157a1.408 1.408 0 00-.224.257 3.39 3.39 0 00-.476.977c-.085.295-.112.558-.017.676l.03.03c1.499 1.133.419.994.047.927l-.892.25c.948.024 1.686.092 2.102.13.153.015.26.024.31.024zm4.068-10.84c.13-.331.36-.868.638-1.396.292-.556.646-1.114 1.024-1.438.346-.301.847-.476 1.252-.617.132-.048.256-.089.348-.127l.018-.009c.094-.033.431-.065.617-.05a.492.492 0 01.277.103c.198.177.204.363-.065.543-.103.065-.336.157-.779.278-.319.085-.7.23-1.03.437-.234.147-.44.324-.573.537-.254.708-.493 1.373-.794 1.981-.307.628-.676 1.195-1.178 1.674-.664.699-1.078 1.597-1.081 1.6l-.053.121-1.833.634a5.346 5.346 0 01-.67 1.09l-.003.006c-.289.351-.679.543-1.057.726-.298.144-.584.284-.741.481l-.003.003c-.301.369-2.093 2.852-2.99 4.098l2.604-.739-.068-.076c-.24-.295-.231-.756-.095-1.225.121-.416.343-.853.567-1.166.109-.157.227-.287.339-.375l.003-.003a2.171 2.171 0 011.196-.446.405.405 0 01-.106-.272.432.432 0 01.021-.15c.114-.348.233-.481.445-.718l.192-.221c.434-.516 1.213-.791 2.007-1.069l.514-.183c.248-.13.505-.254.774-.371l.522-.225c.319-.174.623-.363.903-.555.494-.34.904-.691 1.172-1.013.284-.33.476-.558.612-.767.124-.195.203-.378.274-.635v-.006a21.73 21.73 0 00.357-1.393c.166-.717.278-1.208.582-1.603l.006-.006c.72-.889 1.131-1.47 1.37-1.928.109-.209.18-.392.227-.57l-.1.071a7.12 7.12 0 01-.517.331c-.661.393-.986.472-1.919.705l-.871.222c-1.151.286-1.364.939-1.514 1.411a2.704 2.704 0 01-.151.404c-.076.16-.316.487-.57.771-.215.245-.454.469-.631.555-.112.059-.334.328-.57.658a7.2 7.2 0 00-.676 1.146 2.058 2.058 0 01-.499.705c-.224.195-.478.299-.721.269-.029-.003-.044-.009-.07-.018-.204-.071-.281-.298-.26-.629a6.98 6.98 0 01.109-.77c.207-1.116.658-2.751.794-3.135l.003-.009a3.52 3.52 0 00.169-.779c.062-.47.076-.966.076-1.193v-.021c0-.301.003-1.039-.366-1.101-.419-.071-.646-.366-.77-.652-.668.968-.405 2.352-.198 3.465.062.322.121.626.151.886.138 1.166-.166 3.109-.278 3.758.065.039.124.08.18.124.349.275.493.632.505 1.016.009.18-.015.366-.059.546l.499-.304c1.024-.629 1.606-1.718 2.12-2.681.129-.245.259-.484.392-.711zm6.574-.216c-.395.162-.54.278-.54.278l-.038.026-.045.012c-1.44.434-2.152 1.293-2.798 2.076l-.295.354c-.216.257-.473.484-.924.747-.343.2-.797.428-1.435.711-.242.13-.493.254-.747.369a7.02 7.02 0 01-.546.227c-.85.449-1.541.945-1.91 1.226.983-.169 3.274-.609 4.351-1.264.443-.277.791-.52 1.128-.847.34-.334.679-.762 1.104-1.42.103-.16.222-.375.331-.576.227-.419.428-.794.696-.8.237-.009.378.148.39.528.009.278-.035.553-.124.821.213-.36.431-.744.629-1.089l.307-.54c.142-.237.334-.564.466-.839zm-9.833 6.253c-.05-.015-.095-.021-.08.012l.006.02c.018.054.047.021.074-.032zm6.618-1.479a12.004 12.004 0 01-2.473 1.532l-.003.003c-.638.271-1.438.398-2.451.564l-.463.074c-.272.05-.52.085-.744.109.413.041 1.91.124 3.696-.585 1.128-.445 1.845-1.077 2.438-1.697z"/><path fill="#009B3A" fill-rule="nonzero" d="M279.663 279.147c.292-.119.334-.172.871-.759.528-.585.062-1.571-.753-1.53-.402.027-.824-.067-1.609.99-.759 1.056.363 1.443.788 1.488.183.008.422-.071.703-.189z"/><path fill-rule="nonzero" d="M279.533 278.831c.216-.089.26-.136.712-.626l.035-.041a.537.537 0 00.139-.384.635.635 0 00-.21-.437.56.56 0 00-.413-.145l-.118.006c-.293.009-.62.024-1.231.841-.121.171-.18.31-.189.417a.29.29 0 00.032.177.502.502 0 00.145.15c.174.127.41.189.552.207a.767.767 0 00.195-.035c.103-.03.221-.074.345-.127l.006-.003zm1.21-.169c-.546.597-.599.656-.953.801a4.636 4.636 0 01-.422.153 1.4 1.4 0 01-.426.059l-.017-.003a1.994 1.994 0 01-.886-.328 1.167 1.167 0 01-.345-.378.935.935 0 01-.112-.572c.02-.222.118-.473.312-.744l.003-.006c.807-1.081 1.308-1.104 1.751-1.119l.115-.006c.361-.018.671.109.901.319.13.115.233.257.307.413.074.151.118.322.127.496.014.304-.08.614-.31.868l-.045.047z"/><path fill="#009B3A" fill-rule="nonzero" d="M277.679 272.466c-.508.847-.779 1.824-.378 2.126.089.049.443.36.741.36.292 0 1.128-.402 1.603-1.134.476-.711.865-1.491-.109-1.978-.883-.437-1.488-.026-1.857.623v.003zm0 0L256.002 39.594l21.677 232.872z"/><path fill-rule="nonzero" d="M277.977 272.643c-.248.413-.434.859-.499 1.219-.038.222-.035.39.027.446l.083.059c.115.083.327.236.454.236.112 0 .375-.109.667-.319.233-.162.467-.383.644-.655l.003-.006c.212-.316.404-.643.434-.915.021-.201-.08-.393-.408-.555-.316-.157-.575-.177-.782-.109-.251.085-.457.31-.617.59l-.319-.18.313.189zm-1.184 1.098c.08-.44.296-.965.585-1.446.236-.422.567-.762 1.001-.91.378-.124.814-.1 1.31.145.647.322.842.762.792 1.249-.044.419-.284.838-.549 1.231a3.124 3.124 0 01-.821.841c-.413.295-.844.449-1.069.449-.345 0-.676-.236-.856-.366l-.094-.065c-.307-.233-.384-.644-.299-1.128z"/><path fill="#009B3A" fill-rule="nonzero" d="M280.578 262.092s.083-.13-.254-.478c-.528-.54-1.19-1.506-1.19-1.506-1.053.576-1.405 1.739-1.405 2.202 0 .481.181 1.527.018 2.592-.056.364-.115.78-.638 2.096-.531 1.302.077 2.498.195 2.92.092.419.528 1.721.528 1.721s.411-.265.55-.295c.162-.044.726-.021.726-.021s.635-1.145.655-1.783c.012-.472-.062-1.269-.283-2.491-.31-1.78-.292-2.288-.08-3.286.21-1.01 1.181-1.674 1.181-1.674l-.003.003zm0 0L256.002 39.594l24.576 222.498z"/><path fill-rule="nonzero" d="M280.33 261.894c-.044.018-.13.033-.224-.068-.378-.39-.818-.98-1.054-1.308a2.44 2.44 0 00-.626.671c-.281.439-.39.888-.39 1.121 0 .127.015.302.03.505.044.555.103 1.334-.018 2.135l-.003.023c-.059.375-.13.818-.649 2.138l-.003.005c-.408.996-.065 1.952.118 2.457.038.109.071.2.088.262l.006.021c.059.272.269.933.402 1.343.124-.068.248-.13.298-.15.159-.045.44-.045.623-.039.168-.327.516-1.053.531-1.482a7.32 7.32 0 00-.062-.986 20.33 20.33 0 00-.218-1.44c-.16-.907-.233-1.491-.239-1.987-.009-.505.05-.898.159-1.414.201-.945.98-1.612 1.231-1.807zm.216-.493c.528.549.251.906.251.906l-.21-.209.162.245c-.003.003-.865.593-1.051 1.482-.1.478-.156.838-.15 1.281.009.452.079 1.013.233 1.889.106.594.18 1.081.224 1.477.054.457.071.812.065 1.074v.003c-.026.712-.693 1.919-.696 1.922l-.086.159h-.18c-.003 0-.576-.008-.647.009l-.014.003c-.207.047-.478.269-.478.269l-.316.159-.11-.336c-.003-.003-.437-1.305-.534-1.742l-.074-.213c-.207-.584-.602-1.682-.109-2.893.499-1.263.564-1.668.617-2.007l.003-.021c.109-.732.053-1.467.012-1.996a7.508 7.508 0 01-.033-.552c0-.313.136-.897.487-1.449a2.924 2.924 0 011.078-1.021l.245-.133.153.23c.004.003.647.945 1.158 1.464z"/><path fill="#009B3A" fill-rule="nonzero" d="M282.152 263.869s.599-.144.9-.685c.378-.655.277-1.349.277-1.349-.926-1.795-2.169-.345-2.169-.345-1.116 2.279.992 2.379.992 2.379zm0 0l-26.15-224.275 26.15 224.275z"/><path fill-rule="nonzero" d="M282.122 263.53c.095-.03.44-.157.635-.508l.003-.006c.266-.455.256-.93.245-1.083-.62-1.128-1.399-.422-1.568-.251-.756 1.597.434 1.821.685 1.848zm1.219-.177c-.374.667-1.133.847-1.133.847l-.056-.334-.018.337c-.006 0-2.613-.124-1.275-2.861l.023-.047.03-.033c.006-.005 1.561-1.818 2.716.42l.026.05.009.056c0 .003.115.809-.322 1.565z"/><path fill="#009B3A" fill-rule="nonzero" d="M285.305 260.577c-1.382.071-2.061 2.557-2.061 2.557s-.225.614-.963 1.09c-.782.484-.321 1.18-.321 2.417 0 1.237-.862 3.425-.862 3.425l-.322.741s.029.558.534-.455c.856-1.7 1.798-1.287 2.149-3.117.225-1.364 2.48-1.795 2.48-1.795l-.634-.121c-2.341-1.099.135-3.835.537-4.319.425-.485.829-.485-.537-.423zm0 0L256.002 39.594l29.303 220.983z"/><path fill-rule="nonzero" d="M285.325 260.973c-1.098.059-1.694 2.253-1.697 2.261l-.009.024c0 .003-.272.753-1.122 1.299l-.006.003c-.325.204-.283.54-.215 1.039.038.301.082.65.082 1.042 0 .644-.212 1.515-.431 2.235l.254-.221c.387-.331.718-.615.889-1.497.147-.865.93-1.408 1.629-1.727-1.051-.729-.915-1.822-.454-2.805.318-.685.806-1.299 1.098-1.653h-.018zm-2.462 2.04c.071-.242.833-2.751 2.424-2.834l.015.319-.015-.319.15-.006c.623-.03.883-.041 1.045.083v.003c.408.321.219.487-.103.77-.065.056-.15.133-.233.225l-.074.088c-.242.286-.782.927-1.107 1.624-.34.72-.431 1.526.464 1.972l2.659.496-2.075.395c-.006.003-1.981.381-2.158 1.468l-.003.011c-.224 1.158-.65 1.524-1.154 1.952-.325.277-.688.587-1.03 1.269-1.217 2.444-1.291.284-1.291.278v-.077l.349-.806c0-.006.835-2.125.835-3.283 0-.36-.041-.67-.077-.939-.103-.803-.174-1.343.582-1.815.582-.375.774-.815.797-.874z"/><path fill="#009B3A" fill-rule="nonzero" d="M284.912 263.524c-.635 1.358 1.169 1.423 1.582 1.187.169-.098.549-.549.549-.549.732-1.052.062-1.76-.318-1.863-.367-.121-1.149-.216-1.813 1.225zm0 0l-28.91-223.93 28.91 223.93z"/><path fill-rule="nonzero" d="M285.219 263.668c-.092.195-.115.34-.095.449a.315.315 0 00.151.204.941.941 0 00.39.136c.28.044.552.02.661-.039l.591-.345-.151-.107c.121-.174.195-.333.233-.475a.787.787 0 00-.023-.513.685.685 0 00-.234-.298.47.47 0 00-.103-.054l-.021-.006a.767.767 0 00-.552.018c-.259.112-.555.399-.847 1.028l-.328-.151.328.153zm-.762.582c-.047-.239-.012-.528.148-.868.372-.809.8-1.196 1.189-1.367.414-.18.78-.121 1.016-.044.104.026.213.08.319.15a1.408 1.408 0 01.57 1.326l-.29.151.219.059.035-.021-.009.027a2.2 2.2 0 01-.33.693l-.039.044c-.003.003 4.5-2.367-.619.606-.219.121-.68.189-1.107.121a1.642 1.642 0 01-.659-.239.996.996 0 01-.443-.638zm2.483-.192l.688-.401-.219-.059-.605.324.136.136zm.723-.422c2.138-1.264 1.001-.694.036-.189a2.314 2.314 0 01-.036.189z"/><path fill="#009B3A" fill-rule="nonzero" d="M281.49 258.257c.473.88 1.792 3.33 2.102 3.176.195-.094.042-.596.042-.596s-.042-.664-.254-1.464c-.213-.809-.163-1.845-.582-2.506-.41-.662-1.39-1.45-1.777-2.495-.381-1.048-.083-3.035-.05-3.28.038-.227.153-.079-.05-.316-.207-.256-1.875-1.145-1.875-1.145s.097.649.056 1.821c-.015.284-.094.615-.139 1.107-.038.473.245 1.063.927 2.412.794 1.565 1.178 2.525 1.6 3.286zm10.011-11.658s-.481.803-.652.98c-.181.177-2.9 2.515-3.053 2.613-.133.103-1.553.558-2.846 4.05-1.296 3.481-.735 6.737-.735 6.737l.629-.077.106-.342.375-2.031c.18-.865 1.149-2.073 1.792-2.964.614-.874 1.107-2.126 1.107-2.126.729-1.47 1.081-2.784 1.804-3.808.026 1.219-4.609 8.718-5.104 11.268l1.372-.209c1.096-1.001 2.533-3.106 3.505-4.461.977-1.364 1.39-3.49 1.57-4.434.168-.93.13-5.196.13-5.196z"/><path fill-rule="nonzero" d="M281.759 258.112c.236.437.682 1.27 1.104 1.961.348.575.555 1.107.593 1.086.092-.044-.124-.263-.124-.263l-.006-.059c0-.003-.038-.62-.242-1.387a7.438 7.438 0 01-.168-.968c-.071-.538-.141-1.081-.378-1.453v-.003c-.133-.213-.348-.461-.584-.732-.446-.511-.954-1.098-1.219-1.816-.387-1.065-.13-2.961-.074-3.371l.023-.139c-.112-.138-.8-.531-1.284-.8.018.316.027.75.009 1.293v.009c-.009.157-.032.307-.059.484-.03.186-.062.402-.082.632-.016.183.041.407.171.738.147.363.386.841.726 1.512.407.803.696 1.423.939 1.942.248.532.448.962.652 1.331l-.266.148.269-.145zm.582 2.279a43.88 43.88 0 01-1.119-1.989c-.219-.399-.423-.83-.671-1.364a60.026 60.026 0 00-.932-1.928c-.346-.682-.591-1.172-.744-1.559-.171-.425-.239-.732-.216-1.015.027-.283.059-.493.086-.673.023-.166.047-.31.053-.428.038-1.137-.053-1.751-.053-1.754l-.098-.59.535.268c.006.003 1.712.915 1.969 1.22l.032.035c.101.115.139.162.157.266.02.136-.015.186-.068.257l-.006.05c-.053.386-.295 2.158.041 3.079.228.617.697 1.157 1.107 1.626.248.284.475.546.641.812.304.479.387 1.092.466 1.698.042.313.08.623.151.891.056.204.1.399.136.579-.059-1.278.012-3.457.856-5.736 1.207-3.259 2.559-3.98 2.914-4.172l.053-.029c.062-.038.673-.558 1.328-1.119a93.18 93.18 0 001.671-1.452c.145-.154.608-.924.611-.924l.26.162h.307c0 .012.039 4.272-.139 5.249a20.018 20.018 0 01-.493 2.093c-.254.844-.617 1.748-1.127 2.459l-.402.564c-.945 1.331-2.167 3.053-3.147 3.95l-.068.062-1.892.289.006-.021-.543.066a.494.494 0 01-.278.395c-.348.168-.877-.487-1.384-1.317zm8.859-12.762a2.17 2.17 0 01-.133.163l-.003.003c-.097.097-.93.821-1.706 1.485-.67.572-1.302 1.107-1.396 1.169l-.098.056c-.316.168-1.503.803-2.627 3.841-1.039 2.795-.86 5.432-.759 6.293l.133-.017.044-.142.372-2.013c.165-.803.915-1.819 1.541-2.669l.301-.41c.591-.839 1.072-2.064 1.075-2.067l.009-.018c.277-.564.504-1.11.714-1.62.342-.827.65-1.577 1.11-2.226l.534-.756.021.924c.015.655-1.027 2.663-2.184 4.892-1.14 2.19-2.392 4.602-2.817 6.01l.827-.124c.918-.868 2.084-2.512 2.993-3.79l.399-.561c.466-.65.8-1.491 1.042-2.285.245-.812.389-1.565.478-2.028.112-.611.13-2.793.13-4.11z"/><path fill="#009B3A" fill-rule="nonzero" d="M282.258 247.372c-.7-.649-1.246-.841-1.246-.841s.168 1.27.168 2.043c0 .779.068 2.081.027 2.778-.027.691-.372 1.842.121 2.967.505 1.107 1.075 1.674 1.476 2.37.366.686 1.036 4.234 1.036 4.234s-.245-4.8-.035-6.158c.195-1.335.26-3.416-.039-4.458-.31-1.045-.823-2.273-1.508-2.935zm3.2-4.687c.212-.411.706-1.261.912-2.551.074-.549.127-1.435.107-2.052-.015-.41-.181-1.125 0-1.172.159-.038.026.221.115.83.044.218-.104.817-.133 1.588-.036.614-.059 1.131-.334 1.963-.239.732-.023 1.547-.171 1.777-.157.231-.579 1.113-.579 1.113s-.259.709-.215 1.355c.024.664.065 1.379.065 1.379s.304-.567.989-.661c0 0 .153-1.113.153-1.459 0-.348.446-2.621.674-3.315.309-1.018.528-2.79.035-4.847-.136-.555-.234-2.297-.234-2.297s-.655.525-1.045 2.509c-.121.605.133 2.223.033 3.947-.038.954-.951 4.806-1.075 5.048l.703-3.155zm0 0L256.002 39.594l29.456 203.091z"/><path fill-rule="nonzero" d="M282.045 247.591a5.048 5.048 0 00-.661-.519c.047.445.103 1.056.103 1.502 0 .328.009.664.018 1.016.015.643.033 1.331.009 1.777a6.8 6.8 0 01-.062.584c-.08.638-.186 1.465.157 2.244.303.673.64 1.145.944 1.571.183.256.357.499.514.773l.006.006c.1.192.224.584.351 1.06-.021-1.158-.009-2.309.08-2.884.103-.709.168-1.633.162-2.492-.006-.715-.065-1.385-.195-1.836a9.985 9.985 0 00-.667-1.71c-.221-.431-.475-.817-.759-1.092zm-.918-1.343s.593.212 1.338.9l-.207.224.212-.218c.334.322.626.762.877 1.252.298.578.538 1.228.712 1.815.144.508.209 1.234.215 2.005.009.891-.059 1.848-.165 2.58l-.003.006c-.204 1.323.038 6.084.038 6.099l.201 4.49-.806-4.425c0-.009-.658-3.498-1.007-4.142-.135-.236-.301-.469-.475-.714-.322-.449-.676-.948-1.007-1.677l-.003-.003c-.407-.936-.289-1.854-.2-2.565.026-.198.05-.381.056-.535v-.006c.026-.431.009-1.104-.009-1.733-.009-.395-.021-.776-.021-1.027 0-.759-.159-1.99-.162-1.993l-.088-.534.504.201zm4.059-3.705l.08-.151c.142-.699.248-1.314.26-1.611v-.003c.053-.898.006-1.769-.03-2.48-.035-.662-.062-1.19 0-1.512.411-2.09 1.149-2.683 1.152-2.683l.46-.387.039.602c0 .003.097 1.718.227 2.241.221.933.304 1.806.298 2.583-.009.992-.159 1.833-.339 2.427l-.003.006c-.104.321-.26.997-.39 1.653-.145.714-.266 1.399-.266 1.567 0 .328-.156 1.485-.156 1.488l-.024.239-.239.033c-.531.074-.771.517-.771.517l-.566.947v-1.104s-.027-.484-.05-1.015l-.384-.198c.065-.124.395-1.479.673-2.775l.074-.361-.045-.023zm.963-3.33l.006-.121c.017-.355.026-.712.017-.998-.005-.103-.023-.251-.041-.399-.056-.484-.115-.98.266-1.08h.006c.189-.047.307-.018.381.097l-.004-.006c-.073-.307-.138-.933-.179-1.464-.169.36-.355.892-.505 1.662-.051.251-.024.744.009 1.364.014.289.032.608.044.945zm.717-2.126l-.003.047c0 .127-.006.313.033.561.026.16-.003.378-.042.67-.032.266-.077.603-.088.975l-.003.053c-.038.617-.068 1.145-.348 1.993-.119.366-.11.776-.101 1.098.006.319.012.573-.103.75l-.003.006c-.127.186-.476.9-.546 1.048-.044.127-.23.717-.198 1.231l.03.687c.124-.082.274-.156.445-.206.047-.334.124-.945.124-1.205 0-.197.124-.933.278-1.688.139-.682.298-1.385.41-1.721.166-.546.304-1.323.31-2.247.006-.626-.05-1.317-.195-2.052z"/><path fill="#009B3A" fill-rule="nonzero" d="M285.458 242.685a6.787 6.787 0 00-.044.082s.029-.023.044-.082z"/><path fill-rule="nonzero" d="M285.724 242.832c-.003-.006-.003-.071-.003-.065h-.113l.116.065zm-.614-.065c0-.006.02-.121.082-.23l1.249-2.25-.688 2.48c-.041.145-.121.216-.121.216l-.522.522v-.738zm.088-.215l-.029.053.115.032-.086-.085z"/><path fill="#009B3A" fill-rule="nonzero" d="M282.872 232.677c.351 0 .351.381.281.679-.057.31-.048.88-.048.998 0 .136.145.953.263 1.378.127.44.345.576.248 1.456-.065.555-.632 1.204-.431 2.143.106.496.46 1.013.635 1.437.147.296.068 1.019.106 1.612.018.576.334.966.334.966s-.393.735-.526-.186c-.142-1.054-.189-1.523-.393-1.999-.33-.782-.631-2.19-.118-3.274.086-.209.154-.599.154-1.062 0-.47-.286-1.273-.343-1.769-.05-.395-.018-1.228-.018-1.529l-.144-.85zm-1.692 5.266c.083.594.272.933.945 2.229.207.428.676 1.515.747 1.863.085.348.157.768.157.874 0 .112.076.93.076.93v.339s-1.863-1.083-2.678-1.664c-.811-.585-1.732-1.385-2.323-1.872-.667-.549-2.258-2.436-2.279-3.947l-.729-.661s-.558 3.359 2.075 5.532c.759.622 1.586 1.31 3.357 2.11 1.771.818 1.538 1.55 2.279 3.121.729 1.579 1.184 2.486 1.275 2.934.062.476-.2 7.186-.2 7.186l.062.608s1.62-6.214 2.4-6.908c0 0-1.547-.239-1.423-2.669l-.272-1.603s-.31-1.927.272-3.123c0 0 .687-2.191.454-4.086-.147-1.131-.2-1.47-.339-2.556-.21-1.689-.889-4.104-.962-4.396-.231-.85-.311-.98-.582-1.65-.08-.237-.23-1.019-.481-1.031-.142-.008-.363 1.007-.363 1.007s-.325 1.104-.393 1.405c-.21.892-.703 1.641-.93 3.646-.038.363-.08 1.343-.124 1.473-.024.11-.071.685-.024.906l.003.003zm0 0L256.002 39.594l25.178 198.349z"/><path fill-rule="nonzero" d="M282.872 232.373c.056 0 .112.006.165.017.18.045.301.151.375.293a.84.84 0 01.083.384c0 .111-.018.233-.044.348-.045.254-.042.729-.042.897v.042c0 .058.042.307.095.59.047.251.106.52.156.702.027.092.065.181.101.266.124.298.239.579.159 1.308-.027.233-.115.455-.213.697-.156.381-.336.826-.224 1.349.059.281.221.587.369.874.092.174.18.345.248.505.121.257.118.661.118 1.095 0 .204 0 .416.015.62v.012c.012.472.271.791.271.791l.068.091.062-.138c.068-.231.65-2.221.437-3.942l-.336-2.556c-.189-1.503-.75-3.59-.915-4.207l-.042-.151a8.463 8.463 0 00-.44-1.298c-.085-.21-.136-.334-.198-.547-.064-.239-.121-.605-.141-.608h-.003c-.127-.006-.05.768-.05.768l-.003.021a38.127 38.127 0 00-.39 1.387 7.724 7.724 0 01-.28.886c-.222.628-.493 1.393-.644 2.725-.015.141-.033.389-.047.637-.024.357-.047.721-.083.865-.012.056-.03.263-.035.467-.003.129 0 .251.012.315l-.313.065.319-.044c.07.505.238.83.794 1.901l.124.239c.121.248.33.721.499 1.143.127.316.233.611.271.782.045.186.083.375.11.529.032.186.055.345.055.416 0 .106.071.891.071.894.033.24.003.653.003.91l-.46-.272c-.003-.003-1.875-1.092-2.698-1.68-.638-.457-1.326-1.036-1.881-1.499l-.458-.384c-.416-.343-1.169-1.172-1.715-2.114-.357-.62-.629-1.293-.67-1.928l-.177-.162c-.021 1.021.18 3.141 2.016 4.655l.027.024c.735.605 1.547 1.27 3.259 2.046 1.443.664 1.665 1.275 2.019 2.25.109.298.231.631.41 1.018l.434.933c.485 1.039.789 1.686.865 2.069l.007.021c.047.375-.062 3.59-.14 5.606.467-1.597 1.117-3.64 1.621-4.531-.525-.269-1.334-.977-1.254-2.796l-.266-1.574c0-.006-.245-1.526.097-2.766-.215.334-.8 1.066-1.012-.425l-.039-.295c-.112-.827-.165-1.237-.333-1.63a5.584 5.584 0 01-.416-1.877c-.018-.549.056-1.119.295-1.633.035-.085.071-.218.094-.387.024-.159.039-.348.039-.557 0-.234-.089-.585-.174-.93a6.765 6.765 0 01-.169-.8c-.038-.316-.029-.889-.02-1.282v-.286h.112c.009-.08.018-.157.029-.224l.003-.018a.875.875 0 00.03-.218.318.318 0 00-.009-.083l-.006-.018.003-.003v-.59zm-1.137 7.708c-.587-1.128-.77-1.476-.856-2.076-.023-.115-.029-.286-.023-.457a4.09 4.09 0 01.047-.579l.009-.032c.011-.039.038-.393.059-.744a11.466 11.466 0 01.726-3.525c.103-.292.198-.555.26-.824.074-.31.398-1.42.398-1.423.039-.165.293-1.242.674-1.222.419.024.59.653.702 1.057l.047.171.124.304c.18.434.269.653.464 1.373l.041.151c.171.628.741 2.751.933 4.286.068.549.121.942.177 1.358l.159 1.202c.245 1.96-.46 4.198-.46 4.207l-.021.047c-.537 1.11-.245 2.934-.245 2.94l.278 1.635-.003.033c-.106 2.155 1.16 2.35 1.163 2.35l.649.094-.49.437c-.711.635-2.305 6.74-2.308 6.758l-.425 1.638c-.065-.634-.254-1.727-.239-2.332 0-.018.256-6.666.206-7.129-.071-.319-.36-.939-.817-1.919l-.434-.936c-.192-.405-.319-.756-.432-1.066-.301-.827-.489-1.346-1.697-1.904-1.783-.806-2.628-1.5-3.395-2.128l-.03-.024c-2.768-2.285-2.184-5.807-2.181-5.816l.086-.558 1.248 1.131.003.133c.006.555.257 1.181.593 1.765.508.877 1.196 1.641 1.574 1.951l.464.384c.549.461 1.234 1.036 1.842 1.473.546.39 1.57 1.01 2.173 1.367-.021-.26-.057-.646-.057-.723a6.936 6.936 0 00-.144-.8l-.003-.015a5.703 5.703 0 00-.239-.685 22.071 22.071 0 00-.482-1.098l-.118-.23z"/><path fill="#009B3A" fill-rule="nonzero" d="M282.562 246.422s-.272-.599-.546-.906c-.552-.653-1.296-1.205-3.41-2.238-2.108-1.051-2.666-2.775-3.74-3.487-.493-.339-1.447-.501-1.447-.501s.939 1.293 1.16 1.739c.287.566.355.953 1.518 2.036 1.151 1.084 2.559 1.465 3.466 1.733 1.281.396 2.999 1.627 2.999 1.627v-.003zm-6.642-9.972c.056.171.599 2.025 1.741 3.465 1.745 2.206 5.104 3.782 5.104 3.782-.312-1.372-.861-2.961-1.296-3.664-1.526-2.465-5.561-3.675-5.561-3.675s-.071-.094.012.092zm4.815 1.039c.906-1.978-1.795-3.871-2.554-5.249.28-.225.614.363.924.752.443.588 1.686 2.292 1.686 2.292l.386-1.813-3.215-2.926c-.038.425-1.03.777-1.03.777-.481 2.707 3.805 6.167 3.805 6.167h-.002zm0 0L256.002 39.594l24.733 197.895z"/><path fill-rule="nonzero" d="M282.249 245.318c.307.348.585.968.585.968l-.272.136-.183.245c-.006-.003-1.668-1.193-2.902-1.577l-.127-.038c-.936-.275-2.309-.679-3.463-1.765-1.03-.96-1.24-1.405-1.467-1.887l-.112-.236c-.216-.431-1.131-1.688-1.131-1.692l-.496-.658.803.18c.003 0 .995.163 1.55.544.455.301.809.746 1.207 1.251.582.735 1.27 1.6 2.498 2.214 1.069.523 1.795.924 2.326 1.285.549.365.892.684 1.184 1.03zm-.827.018a5.45 5.45 0 00-.693-.543c-.505-.337-1.211-.73-2.259-1.241-1.349-.673-2.084-1.6-2.707-2.385-.363-.46-.688-.871-1.066-1.122l-.003-.003a2.378 2.378 0 00-.546-.251c.275.396.588.863.706 1.099l.118.25c.201.426.384.818 1.331 1.701 1.048.986 2.341 1.367 3.221 1.627l.13.038c.567.177 1.213.508 1.768.83zm-5.78-8.748l-.009-.029c-.558-1.252-.28-1.166.036-.889.05-.141.165-.097.422.425.611.198 4.186 1.432 5.639 3.779.224.366.475.945.708 1.603.239.673.464 1.441.626 2.152l.138.611-.566-.265c-.009-.006-3.425-1.609-5.214-3.871-1.11-1.402-1.668-3.164-1.78-3.516zm.729.254c.24.664.735 1.884 1.529 2.884 1.258 1.592 3.384 2.849 4.408 3.396a21.428 21.428 0 00-.446-1.444c-.221-.62-.451-1.157-.652-1.482-1.125-1.819-3.702-2.935-4.839-3.354zm4.213.115c.195-1.101-.779-2.226-1.624-3.206-.419-.484-.815-.938-1.048-1.367l-.124-.224.201-.159c.378-.301.703-.041 1.007.339.115.157.233.322.354.47.28.374.883 1.192 1.284 1.742l.21-.975-2.817-2.559c-.239.242-.599.422-.817.516-.207 2.055 2.415 4.576 3.374 5.423zm.44-1.301c.248.622.301 1.278-.012 1.96l-.277-.127-.192.236c-.012-.012-4.426-3.572-3.912-6.456l.03-.181.174-.056c.003 0 .803-.28.824-.513l.056-.611 3.799 3.454-.49 2.294z"/><path fill="#009B3A" fill-rule="nonzero" d="M275.14 232.901c-.776.349-1.051.349-1.051.349l.431 1.145.254.313s1.007 1.461 1.597 1.641c.245.092 1.166.251 2.087.647 1.161.493 3.056 2.152 3.056 2.152s-3.15-3.554-4.36-6.22l-.408-1.535-1.142.073s.316 1.081-.464 1.435zm0 0L256.002 39.594l19.138 193.307z"/><path fill-rule="nonzero" d="M275.264 233.178c-.33.148-.581.237-.764.293l.289.77c.071.089.186.21.242.301 0 .004.936 1.365 1.429 1.515l.014.006c.06.02.187.053.349.094.422.107 1.084.272 1.757.558.307.13.661.34 1.018.573-.962-1.246-2.096-2.855-2.722-4.236-.124-.275-.272-1.004-.36-1.338l-.555.036c.038.431-.018 1.119-.694 1.428l-.136-.292.133.292zm-1.175-.235s.213 0 .924-.319c.538-.248.299-1.066.299-1.069l-.11-.366 1.774-.118.467 1.75c1.196 2.622 4.29 6.114 4.298 6.123l3.33 3.773-3.761-3.342c-.003-.006-1.854-1.623-2.97-2.099-.628-.265-1.26-.425-1.664-.525a5.293 5.293 0 01-.411-.115c-.641-.216-1.624-1.586-1.739-1.748l-.274-.339-.605-1.606h.442z"/><path fill="#009B3A" fill-rule="nonzero" d="M263.344 230.628c.528.475 1.104.903 1.715 1.27.693.419 2.698 1.599 4.198 1.883.351.056 2.235.292 2.235.292.073-.823.968-.897.968-.897l-2.666-.293c-2.152-.159-3.788-1.056-5.063-2.497 1.709 1.036 4.166 2.668 6.158 2.58 8.175-.803-2.465-1.004-3.386-1.597-.98-.602-1.813-1.606-1.813-1.606l-2.397-.106s-1.181-.074.051.971zm0 0l-7.342-191.034 7.342 191.034z"/><path fill-rule="nonzero" d="M263.547 230.4c.26.234.529.455.806.662.275.204.564.396.862.576.346.206 1.016.605 1.774.98.756.372 1.606.726 2.324.865.277.041 1.408.186 1.936.254.048-.145.119-.263.198-.364l-.951-.106a5.2 5.2 0 01-.478-.05l-.245-.026c-1.119-.083-2.104-.361-2.978-.804a7.719 7.719 0 01-2.291-1.798l-.529-.599-.711-.032s-.245-.006.277.437l-.192.227.198-.222zm.443 1.152a12.08 12.08 0 01-.85-.697c-1.834-1.564-.018-1.514.165-1.505l.106.005-.256-.289.489.299 2.188.1.086.094c.003.003.812.975 1.744 1.55l.007.003c.262.171 1.768.328 3.226.478 1.689.178 3.324.349 3.368.797.018.201-.292.39-1.074.561l1.895.21-2.586.322s-.652.056-.706.623l-.026.309-.31-.035c-.003 0-1.886-.239-2.247-.295h-.009c-.782-.148-1.682-.526-2.479-.918a26.322 26.322 0 01-1.822-1.004c-.31-.186-.614-.389-.909-.608zm6.09 1.057l.478.053c.104.006.21.006.311 0 2.033-.198 2.789-.18 2.786-.216-.006-.044-1.384-.097-2.822-.248-1.201-.124-2.435-.253-3.097-.424.789.392 1.591.711 2.344.835zm-5.355-2.583l.626.384c.487.295 1.015.622 1.568.929a9.42 9.42 0 01-1.376-1.278l-.818-.035z"/><path fill="#009B3A" fill-rule="nonzero" d="M272.97 235.284c.529-.039.898-.139 1.019-.718.106-.646-.139-1.116-.921-1.287-.431-.106-1.193-.13-1.503.641-.337.788.892 1.293.892 1.293s.233.103.513.071zm.915-4.688c-.69 0-.926.566-.779 1.664.183 1.11 1.881.626 1.881.626l.316-.162s.23-.177.1-1.063c-.118-.903-.821-1.065-1.518-1.065zm2.781.779h-.026c-.015.009.026 0 .026 0z"/><path fill-rule="nonzero" d="M272.947 234.979c.224-.017.41-.044.531-.115.098-.056.169-.162.21-.348.038-.248.018-.455-.083-.605-.1-.151-.295-.266-.599-.334l-.009-.003c-.207-.05-.502-.08-.75.027a.742.742 0 00-.398.431l-.003.006c-.213.498.732.897.735.897l.012.006s.144.062.342.038l.035.305-.023-.305zm.838.411c-.221.133-.481.174-.782.198a1.449 1.449 0 01-.67-.098c-.006 0-1.509-.611-1.048-1.691.165-.402.431-.635.723-.762.393-.165.824-.13 1.125-.056l.026.006c-.174-.151-.304-.369-.354-.676v-.009c-.082-.608-.053-1.081.097-1.411.181-.399.505-.6.983-.6.39 0 .792.048 1.122.231.36.197.623.534.7 1.098.151 1.042-.189 1.32-.189 1.32l-.032.032-.39.204-.035.005c-.003.003-.638.186-1.237.089.118.089.215.189.292.304.192.29.239.641.174 1.042l-.003.012c-.079.384-.254.617-.502.762zm.1-4.488c-.212 0-.354.08-.424.24-.104.224-.119.584-.054 1.071.116.691 1.255.44 1.471.387l.224-.118c.029-.056.076-.239 0-.776v-.003c-.044-.34-.192-.538-.387-.644-.224-.124-.525-.157-.83-.157zm2.781.78h-.026v-.611h.026v.611zm-.026-.611v.611h.026v-.611h-.026z"/><path fill="#009B3A" fill-rule="nonzero" d="M276.64 231.375c.018-.006.068-.033.245-.083.354-.133.712-.983.712-.983.18-1.148-.644-1.432-.644-1.432-1.385-.274-1.42.939-1.42.939-.381 1.583.903 1.568 1.107 1.559zm-6.164-5.435c.077.526.824 1.287.939 1.417.135.118 1.089 1.113 1.411 1.559.322.445 1.393 2.468 1.393 2.468s.186-.03.266-.183c.189-.316-.717-2.767-.806-2.935-.334-.744-.874-1.299-1.417-1.88-.127-.083-.573-.655-1.063-1.27.968 1.237 3.451 4.759 4.181 6.324 0 0-.089-1.668-.181-2.563-.307-2.612-.989-3.421-1.207-3.799-.387-.709-1.364-1.393-2.064-1.636-.7-.254-1.529-.602-2.415-.885-.915-.278-.209.546.127 1.257.422.842.762 1.594.836 2.126zm0 0L256.002 39.594l14.474 186.346z"/><path fill-rule="nonzero" d="M276.767 231.652l-.009.003-.118-.283.012.307c-.124.006-.576.012-.951-.23l-.015-.009.101 1.588-.682-1.458c-.08-.169-.183-.366-.301-.579.009.148-.006.269-.048.348l-.002.009c-.154.284-.532.343-.535.343h-.183l-.086-.163c-.003-.005-1.062-2.004-1.369-2.432a10.398 10.398 0 00-.567-.673 18.3 18.3 0 00-.8-.836c-.027-.023-.05-.053-.074-.079-.221-.237-.886-.957-.968-1.524l.011-.003-.008.003a4.02 4.02 0 00-.269-.876c-.147-.361-.333-.75-.537-1.158l-.003-.006c-.071-.15-.171-.321-.263-.481-.213-.375-.404-.708-.325-.965.083-.278.325-.384.824-.233l.006.002c.581.187 1.148.405 1.671.606l.747.28c.401.139.886.41 1.31.747.381.301.721.658.921 1.027l.083.13c.287.458.88 1.394 1.164 3.785l.014.151c.242-.319.685-.576 1.497-.417l.044.015c.003.003 1.057.369.838 1.765l-.003.03-.011.029c0 .003-.422.986-.889 1.164l-.026.008a1.368 1.368 0 00-.201.065zm-.189-.581c.044-.015.109-.039.212-.068.21-.095.458-.65.511-.776.104-.759-.319-1.004-.428-1.054-1.007-.189-1.033.64-1.033.643v.033l-.012.038c-.148.626 0 .918.204 1.048.189.121.431.136.546.136zm-5.798-5.172c.056.38.623.994.809 1.195l.038.044c.103.095.484.485.839.877.245.269.478.543.608.721.209.292.705 1.186 1.051 1.824l-.068-.251c-.1-.363-.233-.768-.351-1.11l-.192-.292a65.234 65.234 0 00-2.516-3.554l-.038-.048.478-.381.163.207c.404.511.755.951.826.998l.033.021.103.112c.531.563 1.051 1.116 1.387 1.865.036.072.16.387.302.792.265.41.519.809.741 1.181-.03-.42-.062-.859-.095-1.187-.268-2.253-.812-3.112-1.074-3.528l-.101-.162c-.159-.293-.443-.591-.764-.845-.373-.292-.789-.528-1.131-.646l-.006-.003c-.268-.098-.511-.192-.762-.287a29.157 29.157 0 00-1.597-.581l.172.298c.094.165.194.342.283.526.216.427.407.835.555 1.192.153.381.266.73.307 1.022zm-1.405-3.197c-.003-.045-.003-.068-.015-.03l.015.03z"/><path fill="#009B3A" fill-rule="nonzero" d="M267.063 230.238c.903.765 1.308 1.299 3.182 1.574 1.887.298 2.046.171 2.046.171s.981-.472.482-.889c-2.776-1.219-5.403-2.671-6.737-4.304 0 0 .233-.227 1.193.738.557.564.932.847 1.272 1.113 1.01.706 1.449.906 2.456 1.456.535.292 1.875.608 1.875.608s.192-.408.363-.455c.162-.038-.104-.676-1.27-1.618a9.454 9.454 0 01-1.703-1.848c-.478-.688-1.379-.301-2.872-.552-1.117-.177-3.209-1.804-3.174-1.361.038.455.313 1.863.88 2.758.567.9 1.107 1.821 2.007 2.609zm0 0L256.002 39.594l11.061 190.644z"/><path fill-rule="nonzero" d="M267.261 230.005l.301.263c.679.59 1.16 1.012 2.725 1.243 1.792.28 1.869.2 1.869.2l.011-.005c.003 0 .494-.231.429-.355-1.379-.608-2.726-1.275-3.891-1.993-1.196-.738-2.215-1.532-2.905-2.376l-.175-.216.195-.194s.449-.44 1.624.741c.517.522.874.8 1.196 1.048l.05.038c.806.564 1.246.8 1.933 1.169l.479.26c.372.204 1.187.425 1.579.525.056-.088.127-.183.21-.262l-.045-.077c-.165-.263-.51-.659-1.113-1.145l-.003-.003a9.723 9.723 0 01-1.759-1.908c-.212-.306-.62-.312-1.208-.319a9.131 9.131 0 01-1.464-.106c-.623-.1-1.473-.581-2.158-.971-.236-.133-.448-.254-.608-.339.053.295.142.684.269 1.083.13.408.298.827.51 1.16l.142.225c.505.808 1.019 1.623 1.807 2.314zm-.1.721l-.296-.254.183-.219-.186.216c-.859-.753-1.393-1.606-1.925-2.454l-.141-.221c-.242-.384-.431-.85-.576-1.305-.212-.667-.325-1.308-.348-1.594-.024-.26.098-.384.339-.405.24-.02.688.234 1.231.544.644.363 1.441.817 1.955.897.531.089.989.095 1.373.098.776.011 1.31.017 1.703.581a9.111 9.111 0 001.647 1.786c.661.537 1.054.986 1.243 1.293.083.133.136.248.16.346.05.189.005.339-.11.437a.368.368 0 01-.136.073c-.029.006-.171.295-.171.295l-.05.101c.623.644-.496 1.246-.629 1.314 0 0-.242.171-2.226-.142-1.744-.254-2.282-.723-3.04-1.387z"/><path fill="#009B3A" fill-rule="nonzero" d="M251.461 286.707c-.818.242-6.955 2.548-6.955 2.548l-1.715.684c2.367-.531 4.18.662 4.18.662l6.837-3.168s-.021-.103-.189-.224c-.18-.121-1.328-.75-2.158-.502z"/><path fill-rule="nonzero" d="M251.532 286.94c-.809.239-6.81 2.492-6.934 2.539l-.228.092a6.195 6.195 0 012.616.752l6.409-2.967a4.17 4.17 0 00-1.016-.401c-.289-.065-.593-.092-.847-.015zm-7.115 2.087c.018-.006 6.15-2.308 6.976-2.553.346-.104.735-.077 1.095.006.6.138 1.143.443 1.267.528l.006.003c.26.186.292.422.292.422v.157a2166.102 2166.102 0 00-7.103 3.288l-.112-.073c-.006-.003-1.727-1.137-3.994-.626l-2.97.667c1.361-.543 3.188-1.414 4.543-1.819z"/><path fill="#009B3A" fill-rule="nonzero" d="M242.534 290.149c-.047.039-.095.201.026.251.34.189.248.266 1.798.452 1.562.168 2.581-.127 2.849-.422.313-.346-3.87-.983-4.676-.281h.003zm0 0l13.468-250.555-13.468 250.555z"/><path fill-rule="nonzero" d="M242.699 290.344l-.053-.065.053.065zm-.085-.103l.011.014-.011-.014zm-.352-.154a.412.412 0 01.098-.135c.593-.517 2.68-.414 3.944-.172.277.053.519.112.699.174.236.08.402.186.455.313a.302.302 0 01-.059.337c-.183.204-.617.401-1.255.496a7.155 7.155 0 01-1.812.008c-1.385-.165-1.529-.253-1.783-.41l-.116-.068a.422.422 0 01-.118-.094.376.376 0 01-.091-.251c0-.071.015-.142.038-.198zm.319.118l.03.036-.03-.036zm.044.05l.009.009-.009-.009zm.009.012l.009.012-.009-.012zm.198-.006c.186.113.31.18 1.556.331a6.68 6.68 0 001.682-.009c.281-.041.505-.1.671-.165a5.037 5.037 0 00-.535-.124c-1.071-.207-2.757-.334-3.374-.033z"/><path fill="#009B3A" fill-rule="nonzero" d="M232.712 268.067l-.286-1.919s-.358-5.187-.945-6.226c-.112-.23-.062-.77-.437-.779-.714-.053-.714 1.635-.803 3.162-1.163 7.711 4.986 13.597 4.986 13.597l-2.515-7.835z"/><path fill-rule="nonzero" d="M232.375 268.117l-.286-1.948c0-.015-.351-5.104-.903-6.081l-.009-.018a1.409 1.409 0 01-.1-.349c-.024-.112-.03-.239-.039-.239h-.018c-.212-.017-.301.641-.363 1.459-.023.306-.038.599-.053.894-.006.148-.003.384-.026.52-.836 5.526 2.172 10.093 3.843 12.142-.475-1.476-1.854-5.099-2.046-6.38zm.387-2.007l.281 1.883 2.925 9.111-.977-.96c-.018-.018-6.267-6.001-5.086-13.875l.023-.466c.018-.322.033-.641.053-.913.089-1.192.307-2.143 1.09-2.084.516.021.599.425.67.783.014.076.029.147.041.177.599 1.092.957 5.998.98 6.344z"/><path fill="#009B3A" fill-rule="nonzero" d="M263.14 290.911s-.647-.145-.239-.65c.392-.478 1.555-.735 1.789-.735.227-.009.879.048 1.367.183.489.121 1.166.552.968.865-.207.299-.871.67-1.775.67-.776 0-1.174-.017-1.517-.115-.33-.127-.593-.218-.593-.218zm0 0l-7.138-251.317 7.138 251.317z"/><path fill-rule="nonzero" d="M263.063 291.212c-.162-.044-1.066-.328-.402-1.146.186-.23.499-.41.824-.546.487-.2 1.039-.307 1.205-.307a5.69 5.69 0 01.726.054c.236.032.49.079.714.141.222.053.478.166.691.298.157.098.292.213.39.334.133.165.192.351.145.543a.576.576 0 01-.068.16l-.006.011c-.148.21-.452.44-.871.6a3.32 3.32 0 01-1.161.203c-.392 0-.69-.006-.944-.023a3.107 3.107 0 01-.659-.107l-.584-.215zm.08-.753c-.089.112.047.142.047.142l-.05.307.139-.278s.23.08.549.201c.147.042.31.065.522.08.228.018.514.021.9.021.367 0 .686-.065.939-.163.269-.1.458-.224.552-.336-.006.003-.011.003-.02-.006a.938.938 0 00-.231-.192 1.75 1.75 0 00-.51-.222l-.006-.003a4.44 4.44 0 00-.638-.123 3.957 3.957 0 00-.634-.048h-.012c-.121 0-.558.089-.969.257-.239.1-.463.224-.578.363z"/><path fill="#009B3A" fill-rule="nonzero" d="M256.474 287.241s-2.111-.971-4.113-1.948c-2.636-1.287-5.806-3.076-8.012-6.356-2.763-4.062-5.166-6.235-5.747-6.672-.597-.44-.683-.602-.901-.295-.201.268-.062.502.106.785.567.927 1.964 2.66 2.466 3.593.861 1.665 2.648 3.483 2.633 4.564 0 .15-.523-.109-.523-.109s-4.18-1.429-5.871-6.495c-1.234-3.67-.709-4.75-.996-6.584-.489-3.259-.587-3.524-2.202-7.179-.044-.092-.986-1.618-1.113-1.278-.177.437.16 2.072.16 2.072l.171 1.881s-.139 4.18-.139 4.434c0 .254-1.051 2.861 3.422 7.247 0 0 .068.744-.535.089-.425-.47-3.625-2.929-4.599-6.973-1.004-4.047-1.148-8.095-.39-9.778.688-1.517 2.07-5.234 1.479-8.478-.067-.34-.162-1.334-.378-1.072-.091.124-.493 1.769-.735 2.335-.339.78-.865 1.544-1.024 2.082-.316.909-1.86 2.32-1.556 4.912.34 2.982.535 3.445.895 4.508.121.387.422 1.373.227 1.473-.18.094-.812-1.181-.812-1.181s-2.834-5.565-1.086-10.081c1.765-4.494 6.193-8.756 6.193-8.756s3.599-2.985 4.334-3.682c.287-.266.218-.466.121-.437-.894.225-7.817 1.659-10.25 9.908 0 0-.127.345-.307.259-.221-.097 0-.487 0-.487s1.524-5.848 5.798-8.499c4.664-2.911 4.116-2.483 5.66-3.398.968-.605 1.847-1.414 2.934-3.209.109-.2.552-1.248.493-1.426-.05-.177-.257.068-.357.363 0 0-1.323 2.04-3.298 2.728-1.984.688-3.595-.292-5.588 1.91-1.996 2.214-3.581 5.282-3.581 5.282s-.523.794-.638.767c-.218-.065.11-.844.11-.844s2.662-5.651 4.803-6.799c2.143-1.157 4.05-2.267 5.269-3.206 1.479-1.16 4.027-4 4.945-4.98.195-.21 1.565-1.594 1.866-2.046.183-.245.617-.599.546-.661-.195-.145-1.494.478-1.494.478s-7.055 1.943-11.445 8.573c-.204.31-.685.936-.945 1.198-.47.488-.703 1.296-.703 1.296-.286-.236 2.48-3.696 2.48-3.696l.484-2.237s.821-3.363 2.542-5.736c.171-.216 1.19-1.243 1.361-1.456.343-.372-.65.325-.472.168 0 0-6.583 4.727-6.583 10.678 0 1.069-.665 2.046-1.583 3.375-1.071 1.544-1.432 2.491-1.895 4.788-.175.945-.428 1.951-.612 2.893-.182.939.062.851-.209.786-.289-.062-.189-.765-.189-.765s.673-4.437 1.151-5.804c.464-1.326.771-2.229.771-2.229s-.275-3.336.466-5.163c.626-1.594 2.217-3.693 2.465-4.219.107-.227.842-1.724 1.048-3.427.03-.23-.15-.042-.448.626-.724 1.629-1.329 2.057-2.518 3.59 0 0-3.05 2.211-4.154 8.785 0 0-.036 2.453-.411 6.294-.268 2.814-.038 5.45.278 7.038.204.971.591.977.351 1.095-.147.077.095.015-.251-.72-.422-.88-.743-2.235-.743-4.107 0-3.43.295-6.184.295-6.184s.224-5.542-2.073-8.039c-.112-.13.402 1.119.632 2.367.283 1.547-.23 3.694-.381 4.532-.147.838-1.68 4.502-1.137 7.941 0 0 1.294 5.831 2.965 8.656 0 0 1.039 1.216.121.077-.91-1.143-2.781-5.68-2.944-6.064-.142-.372-1.482-3.194-2.742-4.342-.653-.608-2.447-1.686-2.447-1.686s-.972-.741-.234.245c.585.779 1.37 2.173 1.742 2.784a31.92 31.92 0 012.075 3.911c.6 1.32 1.996 5.199 1.996 5.199l.895 2.462s1.496.83 2.311 1.736c.667.735 2.052 2.421 3.2 5.42.517 1.326 1.55 2.542 1.55 2.542s-.221.422-1.139-1.169c-.904-1.612-1.793-4.635-3.977-6.985-1.659-1.804-6.12-3.622-6.12-3.622s2.867 4.995 3.578 5.886c1.205 1.429 2.947 3.434 3.395 3.965.467.541 3.162 3.87 3.561 4.405.628.832 1.042 1.198 1.372 1.538.712.759 2.816 2.14 2.982 2.359.029.218.074.038-.106-.095-.936-.555-2.052-1.434-3.203-2.184-1.149-.762-5.589-2.657-8.577-6.778-.708-1.22-1.045-1.704-1.284-1.577-.366.192 2.011 8.062 6.902 10.566 0 0 5.397 2.4 6.593 3.12.658.396 1.98.98 2.595 1.473.348.29-.319.272-.364.266-2.866-.224-6.981-.605-9.508-2.07 0 0-1.084-.761-.195.308.708.829 2.051 2.869 4.646 4.017 2.595 1.14 6.371 1.804 7.75 1.875 1.355.077 6.19.101 7.118.401.906.308 2.45 1.294 3.332 1.58.804.26 3.224 1.187 3.224 1.187s.729.401 1.119.54c.437.177 2.25.159 2.379-.18.122-.304-.519-.768-.519-.768zm0 0l-.472-247.647.472 247.647z"/><path fill-rule="nonzero" d="M256.353 287.457c-.207-.097-2.182-1.01-4.098-1.946-1.325-.646-2.789-1.423-4.204-2.453-1.42-1.033-2.783-2.32-3.902-3.982a42.822 42.822 0 00-2.914-3.817c-1.391-1.615-2.427-2.536-2.781-2.802l-.443-.334c-.062-.044-.085-.05-.112-.012l-.003.006c-.104.136-.003.307.118.511l.003.003c.242.396.641.942 1.054 1.511.549.756 1.125 1.547 1.417 2.091v.003c.328.635.8 1.299 1.249 1.933.738 1.04 1.42 2.005 1.411 2.743 0 .679-.847.121-.856.118-.201-.071-4.322-1.588-6.011-6.645-.853-2.539-.877-3.856-.897-5.028-.009-.528-.021-1.027-.109-1.594-.243-1.621-.39-2.497-.671-3.41-.283-.912-.708-1.889-1.514-3.711a8.761 8.761 0 00-.673-.977l-.03-.038c-.009.575.21 1.659.213 1.662.047.204.183 1.724.174 1.937 0 .011-.136 4.186-.136 4.428 0 .041-.012.094-.026.171-.118.585-.606 3.002 3.374 6.902l.059.056.009.083c.003.003.142 1.482-.951.286-.053-.053-.159-.15-.298-.283-.823-.759-2.837-2.616-3.923-5.409-.24.024-.659-.191-1.311-1.325h-.003c-.263-.473-.529-1.063-.821-1.718-.705-1.585-1.594-3.578-3.12-5.222-1.234-1.341-4.068-2.699-5.364-3.274.791 1.369 2.642 4.534 3.188 5.222.809.957 1.827 2.14 2.557 2.985l.835.971c.233.271 1.089 1.316 1.91 2.335.747.924 1.465 1.821 1.659 2.081.505.67.868 1.031 1.157 1.323l.198.197c.42.446 1.358 1.131 2.064 1.645.475.345.85.62.936.732l.038.05.006.059.018.044.012.057c.026.097.008.174-.033.227-.08.289-.216.331-.387.006a.226.226 0 01-.064-.142l-.01-.029-.014-.015c-.523-.31-1.099-.717-1.701-1.149-.487-.345-.991-.705-1.502-1.036-.207-.136-.526-.312-.927-.534-1.813-1.004-5.246-2.899-7.714-6.303l-.015-.02c-.348-.6-.602-1.019-.797-1.267l-.065-.083c.044.243.159.656.336 1.196.281.859.735 1.984 1.356 3.153 1.142 2.161 2.854 4.49 5.101 5.641.015.009 5.405 2.406 6.619 3.135.227.139.546.305.885.479.626.322 1.323.682 1.733 1.015.101.08.157.163.18.239a.3.3 0 01-.1.334.487.487 0 01-.204.095 1.643 1.643 0 01-.407.029c-1.438-.112-3.189-.263-4.907-.573-1.6-.286-3.161-.711-4.407-1.364l.168.213c.762.951 2.043 2.557 4.204 3.516 1.089.478 2.394.871 3.637 1.172 1.68.407 3.247.644 4.027.682.38.021 1.009.038 1.744.056 1.981.053 4.733.127 5.435.354h.003c.464.16 1.078.481 1.686.8.611.322 1.219.644 1.644.78.809.262 3.233 1.192 3.239 1.192l.032.018c.003 0 .709.387 1.081.523l.012.003c.197.073.714.106 1.207.082.434-.02.826-.062.85-.127v-.003c.05-.121-.331-.401-.413-.46zm-3.885-2.383c1.978.969 4.1 1.943 4.106 1.946l-.103.227.139-.21c.003.004.797.591.608 1.063v.003c-.116.272-.682.405-1.281.431-.547.027-1.149-.017-1.4-.112l-.009-.003c-.372-.136-1.027-.49-1.139-.549-.213-.08-2.436-.933-3.191-1.178-.47-.15-1.096-.481-1.725-.809-.59-.313-1.183-.626-1.614-.77-.644-.207-3.345-.278-5.293-.331-.75-.021-1.394-.035-1.757-.056-.806-.041-2.409-.281-4.118-.694-1.267-.307-2.598-.711-3.717-1.201-2.273-1.007-3.602-2.672-4.39-3.661-.13-.162-.248-.31-.345-.422v-.003c-1.969-2.368.304-.815.504-.673 1.238.714 2.87 1.169 4.547 1.47 1.668.298 3.389.449 4.812.561-.387-.257-.924-.534-1.414-.788-.348-.18-.673-.346-.915-.493-1.184-.715-6.554-3.103-6.569-3.109l-.009-.006c-2.359-1.207-4.139-3.619-5.323-5.854a20.97 20.97 0 01-1.387-3.229c-.304-.922-.407-1.6-.322-1.784a.278.278 0 01.124-.129c.245-.13.484-.018.771.348.209.265.475.697.832 1.307 2.403 3.313 5.769 5.173 7.546 6.156l.325.18c-.21-.23-.452-.514-.738-.891-.189-.254-.904-1.149-1.648-2.07-.803-.995-1.65-2.031-1.901-2.323l-.832-.972a367.134 367.134 0 01-2.566-2.993l-.006-.006c-.72-.904-3.589-5.904-3.598-5.919l-.352-.614.656.266c.009.003 1.859.758 3.634 1.786l-.673-1.86c-.006-.012-1.391-3.862-1.99-5.181a30.855 30.855 0 00-.959-1.972 32.114 32.114 0 00-1.102-1.913l-.339-.567c-.405-.685-.959-1.624-1.391-2.199-1.736-2.315.432-.694.573-.588.195.118 1.836 1.116 2.465 1.703.475.432.957 1.087 1.385 1.763.738 1.166 1.322 2.412 1.423 2.666l.106.257a52.61 52.61 0 01-.714-2.781l-.003-.015c-.437-2.778.445-5.677.906-7.186.115-.38.204-.67.233-.832l.077-.401c.192-.984.54-2.749.304-4.045-.139-.747-.381-1.506-.526-1.949-.109-.333-.174-.543-.038-.658.127-.109.239-.1.354.035 1.456 1.586 1.928 4.328 2.076 6.206.044-.912.05-1.42.05-1.423l.006-.038c1.06-6.315 3.911-8.68 4.221-8.922.334-.428.611-.758.859-1.056.65-.774 1.101-1.314 1.606-2.457.172-.381.31-.62.402-.729a.397.397 0 01.138-.112c.16-.074.278-.03.352.13.023.056.032.127.023.209-.2 1.668-.897 3.138-1.053 3.469l-.018.036c-.089.191-.316.537-.608.98-.585.885-1.435 2.175-1.851 3.223v.003c-.717 1.774-.449 5.049-.449 5.057l.003.048-.015.044c0 .003-.313.921-.773 2.232-.254.735-.57 2.382-.803 3.725.068-.324.135-.646.195-.959v-.006c.236-1.163.445-1.987.732-2.716.289-.738.655-1.376 1.201-2.161.455-.658.847-1.228 1.122-1.759.263-.508.416-.983.416-1.477 0-6.078 6.666-10.86 6.684-10.875l4.089-2.967-3.168 2.802c.041.097.009.212-.121.354-.094.118-.378.413-.664.711-.295.307-.594.62-.682.727-1.653 2.282-2.462 5.49-2.501 5.647l-.277 1.29c4.269-5.007 9.798-6.628 10.087-6.71.204-.095 1.441-.65 1.719-.44l.014.012c.163.142.11.307-.05.49a3.065 3.065 0 01-.192.206c-.097.101-.204.207-.266.29-.259.387-1.207 1.367-1.661 1.839l-.225.233-.546.591c-1.157 1.248-3.165 3.421-4.428 4.413-.617.475-1.408.995-2.312 1.538a76.442 76.442 0 01-2.99 1.692c-2.07 1.11-4.691 6.672-4.7 6.689-.035.059-.257.443-.26.499.112-.029.307-.508.357-.637l-.005-.003c.005-.009 1.602-3.097 3.619-5.332 1.379-1.523 2.571-1.6 3.817-1.677.605-.038 1.225-.077 1.871-.301 1.769-.614 3-2.371 3.159-2.607.062-.174.16-.333.248-.425a.441.441 0 01.154-.109.276.276 0 01.298.041c.05.039.086.095.106.166.042.124-.017.386-.115.664a7.55 7.55 0 01-.396.951l-.005.008c-.552.915-1.054 1.58-1.541 2.096a7.357 7.357 0 01-1.473 1.196l-.003.003c-.467.274-.732.425-1.001.575-.67.375-1.355.762-4.656 2.82-1.691 1.051-2.943 2.612-3.835 4.103 2.973-4.404 7.322-5.464 8.305-5.7l.103-.027a.297.297 0 01.225.027c.065.038.117.1.144.183a.48.48 0 01.012.189c-.021.121-.098.283-.277.451-.709.673-4.104 3.493-4.331 3.682-.056.053-4.399 4.245-6.135 8.667-.762 1.969-.632 4.142-.254 5.949l.777.968a56.339 56.339 0 01-.219-1.697c-.23-1.99.573-3.301 1.142-4.228.186-.307.349-.57.423-.782.097-.319.304-.697.528-1.107.174-.319.363-.665.508-.998.124-.295.304-.924.455-1.447.129-.46.242-.847.307-.938l.009-.012c.15-.18.3-.183.451-.062.18.147.257.634.313.998l.041.248c.242 1.325.163 2.722-.065 4.018-.339 1.948-1.012 3.681-1.431 4.605-.366.809-.511 2.214-.443 3.914v.048c1.892 2.429 1.317 1.871.024.413l.002.068c.222.327.263.425.012.153.107 1.547.378 3.283.809 5.022.744 3.085 2.819 5.237 3.9 6.259-3.265-3.596-2.802-5.899-2.681-6.489l.012-.074c0-.257.13-4.169.139-4.426l-.168-1.844c-.018-.089-.34-1.698-.148-2.203a.349.349 0 01.092-.136c.141-.121.298-.094.463.036.083.062.174.159.269.271.318.387.708 1.028.738 1.087l.003.009c.811 1.833 1.24 2.816 1.535 3.764.292.947.44 1.836.688 3.477.091.599.1 1.113.109 1.659.02 1.137.044 2.412.874 4.883 1.656 4.951 5.712 6.341 5.724 6.344l.009.003s.186.715.186.334c.009-.582-.632-1.488-1.32-2.459-.46-.65-.942-1.329-1.284-1.99-.275-.511-.842-1.29-1.382-2.034-.419-.579-.826-1.137-1.077-1.544l-.006-.012c-.21-.357-.381-.652-.089-1.048.266-.369.416-.363.791-.097.145.109.308.242.455.342.366.275 1.435 1.222 2.855 2.87a42.634 42.634 0 012.946 3.858c1.087 1.618 2.409 2.864 3.788 3.867 1.379 1.004 2.819 1.769 4.13 2.409zm-21.999-16.907l-.024-.091c-.496-2.005-.786-4.009-.859-5.736l-.682-.815c.073.263.153.496.242.762l.056.165c.065.201.174.555.239.868.089.405.094.777-.13.894-.404.213-1.139-1.283-1.142-1.287-.006-.011-.856-1.682-1.344-3.946l-.531-.656c-.26-.304-.933-1.01-1.107-1.302a13.682 13.682 0 01-.381-.706c-.924-1.638-2.167-4.623-2.421-5.231l-.035-.088c-.091-.23-.658-1.441-1.382-2.586-.407-.644-.862-1.264-1.301-1.662-.479-.446-1.586-1.152-2.114-1.479.407.59.865 1.364 1.213 1.954l.334.558c.392.631.767 1.281 1.118 1.943.343.649.668 1.316.972 1.998.599 1.311 1.99 5.175 2.004 5.216l.862 2.377c.319.183 1.565.927 2.294 1.742.34.372.862.989 1.444 1.892a19.302 19.302 0 011.803 3.604c.234.597.573 1.169.872 1.612zm-.901-6.509c-.015-1.5.151-2.742.502-3.519.407-.9 1.063-2.589 1.393-4.487.219-1.249.295-2.586.068-3.847l-.082-.508-.092.319c-.153.534-.337 1.178-.475 1.506-.16.363-.351.711-.529 1.039-.212.387-.407.741-.487 1.013l-.006.008c-.091.269-.265.555-.469.889-.534.868-1.284 2.093-1.072 3.92.133 1.175.245 1.955.355 2.533l.894 1.134zm-.883.785c-.189-.552-.33-.977-.481-1.768l-.661-.812c.461 1.656 1.039 2.804 1.06 2.846.023.056.436 1.098.481 1.075.035-.018-.074-.157-.118-.364a9.83 9.83 0 00-.225-.815l-.056-.162zm-2.042-4.46c-.254-1.683-.246-3.581.43-5.332 1.787-4.546 6.241-8.836 6.256-8.848l.012-.011c.009-.009 3.33-2.761 4.227-3.584-1.771.466-7.487 2.338-9.636 9.629l-.003.01s-.224.596-.634.407c-.437-.195-.183-.703-.13-.803.121-.437 1.706-6.014 5.896-8.614 3.315-2.067 4.002-2.457 4.673-2.832.277-.156.555-.313.986-.569.469-.29.915-.632 1.375-1.116.464-.49.945-1.128 1.476-2.008l.095-.197c-.561.678-1.612 1.744-2.964 2.217-.711.245-1.364.286-2.002.327-1.142.071-2.24.139-3.483 1.515-1.975 2.19-3.543 5.222-3.549 5.231l-.017.03s-.535.941-.886.864l-.021-.006c-.469-.141-.047-1.169-.044-1.171l.003-.009c.009-.015 2.698-5.725 4.909-6.911a73.74 73.74 0 002.97-1.68c.892-.534 1.665-1.042 2.265-1.503 1.228-.962 3.221-3.12 4.366-4.36l.552-.594.227-.236c.449-.466 1.382-1.434 1.612-1.78l.009-.009c.044-.062.103-.127.162-.192-.357.151-.803.369-.806.369l-.041.018c-.021.006-6.97 1.922-11.31 8.476-.115.171-.304.431-.493.67a6.983 6.983 0 01-.481.561c-.425.443-.641 1.186-.641 1.186l-.094.378-.298-.248c-.05-.041-.059-.124-.035-.236l-.045-.011c0-.004.254-.877.765-1.406l.082-.088a40.176 40.176 0 011.642-2.25l.475-2.19c.003-.009.794-3.256 2.465-5.657-1.898 1.716-5.137 5.244-5.137 9.37 0 .576-.177 1.122-.475 1.701-.286.555-.688 1.139-1.151 1.812-.526.756-.877 1.368-1.148 2.061-.278.703-.479 1.5-.709 2.631a45.957 45.957 0 01-.331 1.576c-.094.434-.192.868-.28 1.323-.083.422-.071.614-.068.699a.354.354 0 01-.009.127c-.071.269-.153.242-.36.168l-.068-.017c-.505-.115-.375-1.036-.375-1.039.003-.012.679-4.461 1.163-5.849.408-1.163.685-1.981.753-2.178-.029-.408-.224-3.466.487-5.226.431-1.095 1.299-2.409 1.895-3.312.284-.431.505-.765.576-.918l.018-.039c.106-.221.46-.974.732-1.951-.422.815-.835 1.308-1.388 1.964-.256.309-.546.655-.864 1.068l-.024.029-.027.018c-.009.006-2.964 2.149-4.053 8.609-.006.233-.056 2.624-.413 6.297a27.223 27.223 0 00-.098 3.589c.053 1.341.201 2.513.375 3.378.027.132.059.248.092.345.044.095.076.177.106.254.047.097.094.165.127.213a.962.962 0 01.068.109c.103.215.07.319-.174.44l-.021.008c-.198.11-.275.151-.372-.124v-.005a.258.258 0 01-.012-.115c0-.039.006-.13-.065-.334a2.627 2.627 0 01-.109-.26l-.003-.006c-.23-.484-.434-1.107-.573-1.875a13.16 13.16 0 01-.194-2.335c0-3.374.286-6.099.297-6.208.01-.262.113-4.012-1.163-6.586.077.283.148.59.204.894.254 1.391-.103 3.212-.304 4.225l-.077.393c-.029.183-.124.486-.245.891-.448 1.467-1.307 4.292-.894 6.955.006.015 1.107 4.975 2.58 7.921.168.298.325.543.46.711l.934 1.161zm.856-8.172c.026.012.02-.015.006-.047-.018.021-.024.038-.012.044l.006.003z"/><path fill="#009B3A" fill-rule="nonzero" d="M287.829 246.262c.546.201.788 1.828.788 1.828s-.047-.93-.047-1.391c0-.46-.225-2.193-.225-2.193l-.487.349c-.579.46-.903 1.278-.903 1.278s.333-.057.874.129zm0 0L256.002 39.594l31.827 206.668z"/><path fill-rule="nonzero" d="M287.932 245.976a.778.778 0 01.298.219c-.033-.357-.085-.803-.124-1.143l-.059.041c-.269.213-.475.514-.611.753.139.024.301.062.49.127l-.103.302.109-.299zm.384 2.152c0-.003-.21-1.437-.594-1.579-.463-.16-.764-.109-.767-.109h-.44l.156-.414c0-.002.355-.9.998-1.411l.915-.655.065.508c0 .006.228 1.75.228 2.231 0 .461.047 1.364.047 1.373l-.608.056z"/><path fill="#FEDF00" fill-rule="nonzero" d="M254.204 241.341l3.554 10.17 10.746.24-8.564 6.512 3.114 10.306-8.85-6.126-8.851 6.126 3.097-10.306-8.576-6.512 10.769-.24z"/></svg>