<svg xmlns="http://www.w3.org/2000/svg" shape-rendering="geometricPrecision" text-rendering="geometricPrecision" image-rendering="optimizeQuality" fill-rule="evenodd" clip-rule="evenodd" viewBox="0 0 512 512"><g fill-rule="nonzero"><path fill="#4D4D4D" d="M256 0c70.684 0 134.689 28.664 181.012 74.987C483.336 121.311 512 185.316 512 256c0 70.684-28.664 134.689-74.988 181.013C390.689 483.336 326.684 512 256 512c-70.677 0-134.689-28.664-181.013-74.987C28.664 390.689 0 326.676 0 256c0-70.684 28.664-134.689 74.987-181.013C121.311 28.664 185.316 0 256 0z"/><path fill="#fff" d="M256.001 19.597c65.278 0 124.382 26.466 167.162 69.242 42.776 42.78 69.242 101.884 69.242 167.162S465.939 380.384 423.16 423.16c-42.777 42.78-101.881 69.246-167.159 69.246-65.278 0-124.382-26.466-167.162-69.243-42.777-42.779-69.243-101.884-69.243-167.162S46.062 131.619 88.839 88.839c42.78-42.776 101.884-69.242 167.162-69.242z"/><path fill="#CE1126" d="M256.001 39.594c119.517 0 216.407 96.887 216.407 216.407 0 119.518-96.89 216.407-216.407 216.407-119.521 0-216.407-96.889-216.407-216.407 0-119.52 96.886-216.407 216.407-216.407z"/><path fill="#FCD116" d="M169.778 454.533V57.47c26.419-11.49 55.574-17.876 86.223-17.876 119.517 0 216.407 96.887 216.407 216.407 0 119.518-96.89 216.407-216.407 216.407-30.649 0-59.804-6.386-86.223-17.875z"/><path fill="#009460" d="M342.248 454.521V57.482c76.596 33.32 130.16 109.657 130.16 198.519 0 88.86-53.564 165.196-130.16 198.52z"/></g></svg>