<svg xmlns="http://www.w3.org/2000/svg" shape-rendering="geometricPrecision" text-rendering="geometricPrecision" image-rendering="optimizeQuality" fill-rule="evenodd" clip-rule="evenodd" viewBox="0 0 512 512"><path fill="#4D4D4D" fill-rule="nonzero" d="M256 0c70.683 0 134.689 28.663 181.012 74.987C483.336 121.311 512 185.316 512 256c0 70.683-28.664 134.689-74.988 181.012C390.689 483.336 326.683 512 256 512c-70.677 0-134.689-28.664-181.013-74.988C28.663 390.689 0 326.676 0 256c0-70.684 28.663-134.689 74.987-181.013C121.311 28.663 185.316 0 256 0z"/><path fill="#fff" fill-rule="nonzero" d="M256.001 19.596c65.278 0 124.383 26.467 167.162 69.243 42.777 42.78 69.243 101.884 69.243 167.162S465.94 380.384 423.16 423.16c-42.776 42.78-101.881 69.246-167.159 69.246-65.278 0-124.382-26.466-167.162-69.243-42.776-42.779-69.243-101.884-69.243-167.162S46.063 131.619 88.839 88.839c42.78-42.776 101.884-69.243 167.162-69.243z"/><path fill="#DA121A" fill-rule="nonzero" d="M460.082 328.122c-29.706 84.056-109.854 144.286-204.081 144.286-94.229 0-174.376-60.23-204.081-144.286h408.162z"/><path fill="#FCDD09" fill-rule="nonzero" d="M460.083 328.122H51.92c-7.974-22.56-12.326-46.83-12.326-72.121 0-25.428 4.4-49.826 12.456-72.49h407.902c8.056 22.664 12.456 47.062 12.456 72.49 0 25.291-4.354 49.561-12.325 72.121z"/><path fill="#078930" fill-rule="nonzero" d="M459.953 183.511H52.049C81.86 99.647 161.91 39.594 256.001 39.594s174.141 60.053 203.952 143.917z"/><circle fill="#0F47AF" fill-rule="nonzero" cx="256" cy="256" r="144.61"/><path fill-rule="nonzero" d="M287.166 213.103L324 162.407l-36.834 50.696zm0 0zM306.428 272.385l59.598 19.365-59.598-19.365zm0 0z"/><path fill="#FCDD09" fill-rule="nonzero" d="M324.001 349.593l-5.069-15.599-54.733-39.763 22.552-16.384-3.133-9.639-72.304 52.531-5.068 15.599 49.755-36.149 68 49.404zm-38.783-137.904l36.831-50.694 3.9 2.823-36.834 50.696-3.897-2.825zm-26.808 97.335v62.666h-4.821v-62.666h4.821zm-52.096-34.351l-59.595 19.364-1.488-4.576 59.598-19.363 1.485 4.575zm16.57-60.159l-36.834-50.696 3.9-2.823 36.831 50.694-3.897 2.825zm84.287 55.584l59.598 19.363-1.488 4.576-59.595-19.364 1.485-4.575zm-51.173-129.785l-5.066 15.599 20.905 64.339h-27.872l-3.132 9.641h89.37l13.27-9.641h-61.499l-25.976-79.938zm-110.023 79.938l13.267 9.641h67.651l-8.611 26.507 8.201 5.958 27.617-84.998-5.069-15.599-19.006 58.491h-84.05zm42.024 129.342l13.269-9.639 20.908-64.342 22.548 16.385 8.201-5.958-72.304-52.533h-16.402l49.755 36.149-25.975 79.938zm178.025-129.342h-16.399l-54.732 39.765-8.612-26.51h-10.137l27.617 84.998 13.27 9.642-19.006-58.491 67.999-49.404z"/><path fill-rule="nonzero" d="M256 309.024v62.664-62.664zm0 0zM205.571 272.385l-59.597 19.365 59.597-19.365zm0 0zM224.833 213.103L188 162.407l36.833 50.696zm0 0z"/></svg>