<svg xmlns="http://www.w3.org/2000/svg" shape-rendering="geometricPrecision" text-rendering="geometricPrecision" image-rendering="optimizeQuality" fill-rule="evenodd" clip-rule="evenodd" viewBox="0 0 512 512"><g fill-rule="nonzero"><path fill="#4D4D4D" d="M256 0c141.367 0 256 114.633 256 256 0 70.683-28.664 134.689-74.988 181.012C390.689 483.336 326.683 512 256 512c-70.677 0-134.689-28.664-181.013-74.988C28.663 390.689 0 326.676 0 256c0-70.684 28.663-134.689 74.987-181.013C121.311 28.663 185.316 0 256 0z"/><path fill="#fff" d="M256.001 19.596c65.278 0 124.383 26.467 167.162 69.243 42.777 42.78 69.243 101.884 69.243 167.162S465.94 380.384 423.16 423.16c-42.776 42.78-101.881 69.246-167.159 69.246-65.278 0-124.382-26.466-167.162-69.243-42.776-42.779-69.243-101.884-69.243-167.162S46.063 131.619 88.839 88.839c42.78-42.776 101.884-69.243 167.162-69.243z"/><path fill="#20603D" d="M256.001 39.594c119.518 0 216.407 96.887 216.407 216.407 0 119.518-96.889 216.407-216.407 216.407-119.52 0-216.407-96.889-216.407-216.407 0-119.52 96.887-216.407 216.407-216.407z"/><path fill="#FAD201" d="M444.147 362.987H67.855c-17.981-31.556-28.261-68.068-28.261-106.986 0-119.52 96.887-216.407 216.407-216.407 119.518 0 216.407 96.887 216.407 216.407 0 38.918-10.279 75.43-28.261 106.986z"/><path fill="#00A1DE" d="M472.366 252.848H39.636c1.688-118.065 97.899-213.254 216.365-213.254 118.464 0 214.677 95.189 216.365 213.254z"/><path fill="#E5BE01" d="M382.822 80.647l.201.147.065.048.221.162 2.581 44.309c-1.919-.245-3.747-.228-5.669 0l2.601-44.666zm60.596 67.099l.298.499-38.331 2.232c.251-1.94.222-3.729 0-5.674l37.59 2.193.331.561.112.189zm-38.059 2.932l46.304 15.321-47.801-9.765a22.475 22.475 0 001.497-5.556zm-1.571 5.732l40.763 26.8-43.603-21.919a22.632 22.632 0 002.84-4.881zm-2.955 5.031l32.477 36.45-36.521-32.42a22.8 22.8 0 004.044-4.03zm-4.165 4.124l21.955 43.571-26.944-40.701a22.553 22.553 0 004.989-2.87zm-5.146 2.935l9.89 47.75-15.357-46.298a22.48 22.48 0 005.467-1.452zm-5.624 1.473l-2.843 48.683-2.843-48.683a22.92 22.92 0 005.686 0zm10.932-8.555c-7.611 7.61-19.936 7.61-27.546 0-7.611-7.611-7.611-19.939 0-27.55 7.613-7.614 19.933-7.608 27.549-.003 7.605 7.62 7.611 19.939-.003 27.553zm-10.74-36.079l11.047-33.386 1.361 1.187-6.955 33.655a22.297 22.297 0 00-5.453-1.456zm5.648 1.535l16.366-24.791 1.674 1.667-13.069 26.006a22.345 22.345 0 00-4.971-2.882zm5.119 2.997l20.399-18.176 1.65 1.862-18.076 20.287a22.753 22.753 0 00-3.973-3.973zm4.088 4.124l24.701-12.352 1.538 1.967-23.36 15.356a22.401 22.401 0 00-2.879-4.971zm2.959 5.16l30.108-6.223 1.237 1.783-29.89 9.89a22.33 22.33 0 00-1.455-5.45zm-91.865 8.488l48.69 2.837a22.753 22.753 0 010-5.677l-48.69 2.84zm48.716-3.038l-46.304-15.322 47.76 9.872a22.42 22.42 0 00-1.456 5.45zm1.535-5.639l-40.73-26.776 43.611 21.805a22.33 22.33 0 00-2.881 4.971zm2.994-5.119l-32.48-36.456 36.453 32.48a23.077 23.077 0 00-2.111 1.866 22.082 22.082 0 00-1.862 2.11zm4.124-4.091L347.491 86.15l26.794 40.763a22.398 22.398 0 00-4.877 2.843zm5.054-2.917l-9.76-47.801 15.319 46.301a22.349 22.349 0 00-5.559 1.5zm-13.707 23.839l-46.304 15.321 47.801-9.765a22.431 22.431 0 01-1.497-5.556zm1.57 5.732l-40.765 26.8 43.605-21.919a22.714 22.714 0 01-2.84-4.881zm2.956 5.031l-32.477 36.45 36.521-32.42a22.812 22.812 0 01-2.179-1.916 23.103 23.103 0 01-1.865-2.114zm4.165 4.124l-21.955 43.571 26.853-40.74a22.522 22.522 0 01-4.898-2.831zm5.039 2.89l-9.783 47.795 15.354-46.298a22.45 22.45 0 01-5.571-1.497z"/></g></svg>