<svg xmlns="http://www.w3.org/2000/svg" shape-rendering="geometricPrecision" text-rendering="geometricPrecision" image-rendering="optimizeQuality" fill-rule="evenodd" clip-rule="evenodd" viewBox="0 0 512 512"><g fill-rule="nonzero"><path fill="#4D4D4D" d="M256 0c70.683 0 134.689 28.663 181.012 74.987C483.336 121.311 512 185.316 512 256c0 70.683-28.664 134.689-74.988 181.012C390.689 483.336 326.683 512 256 512c-70.677 0-134.689-28.664-181.013-74.988C28.663 390.689 0 326.676 0 256c0-70.684 28.663-134.689 74.987-181.013C121.311 28.663 185.316 0 256 0z"/><path fill="#fff" d="M256.001 19.596c65.278 0 124.383 26.467 167.162 69.243 42.777 42.78 69.243 101.884 69.243 167.162S465.94 380.384 423.16 423.16c-42.776 42.78-101.881 69.246-167.159 69.246-65.278 0-124.382-26.466-167.162-69.243-42.776-42.779-69.243-101.884-69.243-167.162S46.063 131.619 88.839 88.839c42.78-42.776 101.884-69.243 167.162-69.243z"/><path fill="#FECB00" d="M256.001 39.594c94.448 0 174.752 60.513 204.288 144.88H51.713c29.539-84.367 109.837-144.88 204.288-144.88z"/><path fill="#34B233" d="M460.289 184.474H51.713c-7.838 22.395-12.119 46.458-12.119 71.527 0 25.888 4.556 50.709 12.89 73.718h407.035c8.334-23.009 12.889-47.83 12.889-73.718 0-25.069-4.278-49.132-12.119-71.527z"/><path fill="#EA2839" d="M459.519 329.719H52.484c30.149 83.221 109.884 142.689 203.517 142.689 93.63 0 173.365-59.468 203.518-142.689z"/><path fill="#fff" d="M219.952 221.716l36.049-110.949 36.05 110.949H408.71l-94.379 68.57 36.049 110.949-94.379-68.57-94.379 68.57 36.049-110.949-94.378-68.57z"/></g></svg>