<svg xmlns="http://www.w3.org/2000/svg" shape-rendering="geometricPrecision" text-rendering="geometricPrecision" image-rendering="optimizeQuality" fill-rule="evenodd" clip-rule="evenodd" viewBox="0 0 512 512"><g fill-rule="nonzero"><path fill="#4D4D4D" d="M256 0c70.684 0 134.689 28.664 181.012 74.987C483.336 121.311 512 185.316 512 256c0 70.684-28.664 134.689-74.988 181.013C390.689 483.336 326.684 512 256 512c-70.677 0-134.689-28.664-181.013-74.987C28.664 390.689 0 326.676 0 256c0-70.684 28.664-134.689 74.987-181.013C121.311 28.664 185.316 0 256 0z"/><path fill="#fff" d="M256.001 19.597c65.278 0 124.382 26.466 167.162 69.242 42.776 42.78 69.242 101.884 69.242 167.162S465.939 380.384 423.16 423.16c-42.777 42.78-101.881 69.246-167.159 69.246-65.278 0-124.382-26.466-167.162-69.243-42.777-42.779-69.243-101.884-69.243-167.162S46.062 131.619 88.839 88.839c42.78-42.776 101.884-69.242 167.162-69.242z"/><path fill="#007A3D" d="M256.001 39.594c119.517 0 216.407 96.887 216.407 216.407 0 119.518-96.89 216.407-216.407 216.407-119.521 0-216.407-96.889-216.407-216.407 0-119.52 96.886-216.407 216.407-216.407z"/><path fill="#fff" d="M459.885 328.68H52.117c-8.098-22.717-12.523-47.181-12.523-72.679 0-119.52 96.886-216.407 216.407-216.407 119.517 0 216.407 96.887 216.407 216.407 0 25.498-4.425 49.962-12.523 72.679z"/><path d="M460 183.65H52.002C81.772 99.712 161.857 39.594 256.001 39.594c94.141 0 174.229 60.118 203.999 144.056z"/><path fill="#CE1126" d="M86.917 391.056l220.106-134.892L86.74 121.165c-29.504 36.985-47.146 83.847-47.146 134.836 0 51.09 17.716 98.035 47.323 135.055z"/><path fill="#fff" d="M117.982 217.037l7.045 17.845 18.345-5.618-9.559 16.634 15.829 10.84-18.965 2.896 1.395 19.135-14.09-13.021-14.089 13.022 1.395-19.136-18.964-2.896 15.829-10.84-9.559-16.634 18.343 5.618z"/></g></svg>