<?xml version="1.0" encoding="UTF-8"?>
<!-- Generated by Pixelmator Pro 3.1.1 -->
<svg width="512" height="420" viewBox="0 0 512 420" xmlns="http://www.w3.org/2000/svg" xmlns:xlink="http://www.w3.org/1999/xlink">
    <path id="Path" fill="#000000" fill-rule="evenodd" stroke="none" d="M 74.320313 420 C 33.440353 420 0 386.519684 0 345.679688 L 0 74.150391 C 0 33.240417 33.410355 -0.169922 74.320313 -0.169922 L 437.679688 -0.169922 C 478.549652 -0.169922 512 33.290436 512 74.150391 L 512 345.679688 C 512 386.499664 478.499664 420 437.679688 420 L 74.320313 420 Z M 319.490234 284.935547 C 338.878967 284.935547 357.65683 281.500885 375.824219 274.630859 L 375.824219 198.144531 L 320.634766 198.144531 L 320.634766 233.181641 L 332.314453 233.181641 L 332.314453 239.363281 C 332.314453 243.485306 331.054169 246.118668 328.535156 247.263672 C 326.016144 248.408676 322.009705 248.982422 316.513672 248.982422 L 301.398438 248.982422 L 301.398438 184.175781 C 301.398438 179.595749 303.421112 176.542297 307.466797 175.015625 C 311.512482 173.488953 318.535461 172.724609 328.535156 172.724609 C 338.534882 172.724609 349.717896 173.794296 362.083984 175.931641 L 368.953125 140.894531 C 364.525757 139.367859 357.541718 137.992828 348 136.771484 C 338.458282 135.55014 330.711853 134.939453 324.757813 134.939453 C 295.903717 134.939453 276.437378 141.351715 266.361328 154.175781 C 261.017975 160.740479 257.316864 168.41304 255.255859 177.191406 C 253.194855 185.969757 252.164063 196.884445 252.164063 209.9375 C 252.164063 222.990555 253.155945 233.944138 255.140625 242.798828 C 257.125275 251.653534 260.637756 259.363037 265.675781 265.927734 C 275.446503 278.599121 293.384155 284.935547 319.490234 284.935547 Z M 123.466797 281.5 L 205.677734 281.5 C 218.349121 281.5 227.737061 278.026428 233.84375 271.080078 C 239.950455 264.133698 243.003906 254.936371 243.003906 243.486328 C 243.003906 221.502243 233.76767 208.907181 215.294922 205.701172 L 215.294922 204.326172 C 221.554291 202.646835 226.554581 199.021591 230.294922 193.449219 C 234.035278 187.876862 235.904297 179.976746 235.904297 169.748047 C 235.904297 159.519348 232.965591 151.733978 227.087891 146.390625 C 221.21019 141.047241 211.402161 138.375 197.662109 138.375 L 123.466797 138.375 L 123.466797 281.5 Z M 169.265625 247.837891 L 169.265625 224.478516 L 187.128906 224.478516 C 193.38826 224.478516 196.517578 228.372177 196.517578 236.158203 C 196.517578 243.944229 193.310471 247.837891 186.898438 247.837891 L 169.265625 247.837891 Z M 169.265625 191.044922 L 169.265625 169.748047 L 183.693359 169.748047 C 189.342056 169.748047 192.166016 173.297455 192.166016 180.396484 C 192.166016 187.495514 189.266205 191.044922 183.464844 191.044922 L 169.265625 191.044922 Z"/>
</svg>
