<svg xmlns="http://www.w3.org/2000/svg" shape-rendering="geometricPrecision" text-rendering="geometricPrecision" image-rendering="optimizeQuality" fill-rule="evenodd" clip-rule="evenodd" viewBox="0 0 512 420.166"><path d="M74.316 0h363.368C478.549 0 512 33.458 512 74.316V345.85c0 40.814-33.501 74.316-74.316 74.316H74.316C33.439 420.166 0 386.689 0 345.85V74.316C0 33.408 33.408 0 74.316 0zm171.897 281.956h-50.661l-18.881-42.833h-12.094v42.833H120.71V138.03h72.538c33.006 0 49.509 16.813 49.509 50.432 0 23.03-7.133 38.226-21.413 45.595l24.869 47.899zm-81.636-107.081v28.783h12.782c5.529 0 9.567-.576 12.094-1.722 2.532-1.145 3.795-3.802 3.795-7.944v-9.444c0-4.143-1.263-6.793-3.795-7.945-2.533-1.152-6.571-1.728-12.094-1.728h-12.782zm94.306 35.236c0-26.257 4.91-45.404 14.738-57.46 9.821-12.051 27.556-18.076 53.193-18.076 25.637 0 43.366 6.025 53.193 18.076 9.828 12.056 14.739 31.203 14.739 57.46 0 13.047-1.034 24.02-3.109 32.925-2.074 8.905-5.641 16.658-10.707 23.259-5.065 6.601-12.05 11.438-20.955 14.509-8.905 3.072-19.958 4.607-33.161 4.607-13.202 0-24.256-1.535-33.16-4.607-8.905-3.071-15.89-7.908-20.956-14.509-5.065-6.601-8.639-14.354-10.707-23.259-2.074-8.905-3.108-19.878-3.108-32.925zm49.508-23.953v59.875h19.111c6.297 0 10.861-.731 13.703-2.186 2.843-1.461 4.261-4.799 4.261-10.019v-59.875H326.12c-6.136 0-10.626.73-13.468 2.192-2.842 1.455-4.261 4.793-4.261 10.013z"/></svg>