<?xml version="1.0" encoding="UTF-8"?>
<!-- Generated by Pixelmator Pro 3.1.1 -->
<svg width="1944" height="1944" viewBox="0 0 1944 1944" xmlns="http://www.w3.org/2000/svg" xmlns:xlink="http://www.w3.org/1999/xlink">
    <g id="Group">
        <path id="Path" fill="#95a5a6" stroke="none" d="M 405 122.001953 C 315.527405 122.001953 243 194.903931 243 284.001953 L 243 932.002014 L 243 1256.001953 L 243 1742.001953 C 243 1831.099976 315.527405 1904.001953 405 1904.001953 L 1539 1904.001953 C 1628.505005 1904.001953 1701 1831.099976 1701 1742.001953 L 1701 1256.001953 L 1701 932.002014 L 1701 608.001953 L 1215 122.001953 L 405 122.001953 Z"/>
        <path id="path1" fill="#bdc3c7" stroke="none" d="M 405 41.001953 C 315.527405 41.001953 243 113.903931 243 203.001953 L 243 851.001953 L 243 1175.001953 L 243 1661.001953 C 243 1750.099976 315.527405 1823.001953 405 1823.001953 L 1539 1823.001953 C 1628.505005 1823.001953 1701 1750.099976 1701 1661.001953 L 1701 1175.001953 L 1701 851.001953 L 1701 527.001953 L 1215 41.001953 L 405 41.001953 Z"/>
        <path id="path2" fill="#95a5a6" stroke="none" d="M 1701 527.001953 L 1215 41.001953 L 1215 365.001953 C 1215 454.099976 1287.494995 527.001953 1377 527.001953 L 1701 527.001953 Z"/>
        <path id="path3" fill="#3498db" stroke="none" d="M 972 770.001953 L 1458 770.001953 L 1458 851.001953 L 972 851.001953 Z"/>
        <path id="path4" fill="#2980b9" stroke="none" d="M 405 446.001953 L 523.972778 851.001953 L 607.5 851.001953 L 691.027222 567.501953 L 774.5625 851.001953 L 858.114014 851.001953 L 977.022034 446.001953 L 896.022034 446.001953 L 817.614014 705.197998 L 739.125 446.001953 L 645.472778 446.001953 L 567 705.197998 L 488.527191 446.001953 L 405 446.001953 Z"/>
        <g id="g1">
            <path id="path5" fill="#3498db" stroke="none" d="M 486 1013.002014 L 1458 1013.002014 L 1458 1094.001953 L 486 1094.001953 Z"/>
            <path id="path6" fill="#3498db" stroke="none" d="M 486 1256.001953 L 1458 1256.001953 L 1458 1337.001953 L 486 1337.001953 Z"/>
            <path id="path7" fill="#3498db" stroke="none" d="M 486 1499.001953 L 1458 1499.001953 L 1458 1580.001953 L 486 1580.001953 Z"/>
        </g>
    </g>
</svg>
