<svg xmlns="http://www.w3.org/2000/svg" shape-rendering="geometricPrecision" text-rendering="geometricPrecision" image-rendering="optimizeQuality" fill-rule="evenodd" clip-rule="evenodd" viewBox="0 0 512 512"><path fill="#4D4D4D" fill-rule="nonzero" d="M256 0c70.683 0 134.689 28.663 181.012 74.987C483.336 121.311 512 185.316 512 256c0 70.683-28.664 134.689-74.988 181.012C390.689 483.336 326.683 512 256 512c-70.677 0-134.689-28.664-181.013-74.988C28.663 390.689 0 326.676 0 256c0-70.684 28.663-134.689 74.987-181.013C121.311 28.663 185.316 0 256 0z"/><path fill="#fff" fill-rule="nonzero" d="M256.001 19.596c65.278 0 124.383 26.467 167.162 69.243 42.777 42.78 69.243 101.884 69.243 167.162S465.94 380.384 423.16 423.16c-42.776 42.78-101.881 69.246-167.159 69.246-65.278 0-124.382-26.466-167.162-69.243-42.776-42.779-69.243-101.884-69.243-167.162S46.063 131.619 88.839 88.839c42.78-42.776 101.884-69.243 167.162-69.243z"/><path fill="#fff" fill-rule="nonzero" d="M256.001 39.594c119.518 0 216.407 96.887 216.407 216.407 0 119.518-96.889 216.407-216.407 216.407-119.52 0-216.407-96.889-216.407-216.407 0-119.52 96.887-216.407 216.407-216.407z"/><path fill="#C8102E" fill-rule="nonzero" d="M39.615 254.481h432.772l.021 1.52c0 119.518-96.889 216.407-216.407 216.407-119.52 0-216.407-96.889-216.407-216.407l.021-1.52zm36.323 0c0 80.449 65.239 145.688 145.688 145.688 80.449 0 145.689-65.239 145.689-145.688 0-80.449-65.24-145.688-145.689-145.688S75.938 174.032 75.938 254.481z"/></svg>