<?xml version="1.0" encoding="UTF-8"?>
<!-- Generated by Pixelmator Pro 3.1.1 -->
<svg width="96" height="96" viewBox="0 0 96 96" xmlns="http://www.w3.org/2000/svg" xmlns:xlink="http://www.w3.org/1999/xlink">
    <path id="Path" fill="#004d81" stroke="none" d="M 39.375599 51.002201 L 69.845596 25.612198 C 72.377686 23.485352 72.71312 19.711365 70.59584 17.171272 C 68.478554 14.63118 64.705856 14.281517 62.157799 16.389198 L 26.1563 46.390598 C 24.789715 47.532337 23.999903 49.221386 23.999903 51.002151 C 23.999903 52.782913 24.789715 54.471962 26.1563 55.613701 L 62.157799 85.614998 C 64.70507 87.733086 68.486603 87.387489 70.607735 84.842751 C 72.728867 82.298019 72.387794 78.516075 69.845596 76.391899 Z"/>
    <path id="Path-copy" fill="#0376bb" stroke="none" d="M 39.375599 48.002201 L 69.845596 22.612198 C 72.377686 20.485352 72.71312 16.711365 70.59584 14.171272 C 68.478554 11.63118 64.705856 11.281517 62.157799 13.389198 L 26.1563 43.390598 C 24.789715 44.532337 23.999903 46.221386 23.999903 48.002151 C 23.999903 49.782913 24.789715 51.471962 26.1563 52.613701 L 62.157799 82.614998 C 64.70507 84.733086 68.486603 84.387489 70.607735 81.842751 C 72.728867 79.298019 72.387794 75.516075 69.845596 73.391899 Z"/>
</svg>
