<svg xmlns="http://www.w3.org/2000/svg" shape-rendering="geometricPrecision" text-rendering="geometricPrecision" image-rendering="optimizeQuality" fill-rule="evenodd" clip-rule="evenodd" viewBox="0 0 512 512"><g fill-rule="nonzero"><path fill="#4D4D4D" d="M256 0c70.684 0 134.69 28.664 181.013 74.987 46.324 46.324 74.988 110.329 74.988 181.013 0 70.684-28.664 134.689-74.988 181.013C390.69 483.336 326.684 512 256 512c-70.676 0-134.689-28.664-181.013-74.987C28.664 390.689 0 326.676 0 256c0-70.684 28.664-134.689 74.987-181.013C121.311 28.664 185.317 0 256 0z"/><path fill="#fff" d="M256.002 19.596c65.277 0 124.382 26.466 167.162 69.243 42.776 42.779 69.243 101.884 69.243 167.162S465.94 380.384 423.161 423.16c-42.777 42.78-101.882 69.246-167.159 69.246-65.278 0-124.383-26.466-167.163-69.243-42.776-42.779-69.243-101.884-69.243-167.162S46.063 131.618 88.839 88.839c42.78-42.777 101.885-69.243 167.163-69.243z"/><path fill="#00843D" d="M256.002 39.594c119.517 0 216.407 96.887 216.407 216.407 0 119.518-96.89 216.407-216.407 216.407-119.521 0-216.408-96.889-216.408-216.407 0-119.52 96.887-216.407 216.408-216.407z"/><path fill="#fff" d="M238.962 136.661l7.292-22.446-19.095 13.873h23.603l-19.095-13.873 7.295 22.446zm61.39-47.314c22.935 9.845 39.003 32.633 39.003 59.17 0 35.543-28.824 64.365-64.365 64.365-15.912 0-30.475-5.78-41.711-15.351a64.159 64.159 0 0022.548 5.131c35.509 1.553 65.562-25.988 67.111-61.496.901-20.615-8.006-39.391-22.586-51.819zm-61.39 80.422l7.292-22.445-19.095 13.872h23.603l-19.095-13.872 7.295 22.445zm-32.71-16.966l7.295-22.445-19.095 13.872h23.6l-19.092-13.872 7.292 22.445zm65.417-32.284l7.294-22.446-19.094 13.873h23.599l-19.091-13.873 7.292 22.446zm-32.707-16.967l7.292-22.445-19.095 13.873h23.603l-19.095-13.873 7.295 22.445z"/><path fill="#D22630" d="M148.286 68.262V443.74C83.331 406.392 39.594 336.303 39.594 256.001c0-80.304 43.737-150.391 108.692-187.739z"/><path fill="#383739" d="M148.286 88.11v5.098l-7.899 7.392 2.666 2.48-5.651 5.234 2.48 2.253v-3.262h4.824v3.902l-10.885 10.197h-5.509l-.599-3.584h3.171l-3.445-3.212-8.633 7.85 8.633 7.9 3.445-3.215h-3.171l.599-3.628h5.509l10.882 10.196v3.903h-4.821v-3.262l-2.48 2.25 5.648 5.237-2.663 2.524 7.899 7.348v5.098l-13.364-12.446 2.663-2.524-5.6-5.237 4.821-4.5-3.215-2.937-6.152 5.692-13.501-12.399 13.501-12.396 6.152 5.739 3.215-2.985-4.821-4.499 5.603-5.237-2.666-2.48 13.364-12.49zm0 24.751v19.194l-3.123-3.167v-3.72h-3.306l-2.663-2.71 2.663-2.663h3.306v-3.764l3.123-3.17zm-22.775 6.799l.457 2.615-.457 2.663-2.849-2.663 2.849-2.619v.004z"/><path fill="#FFC72C" d="M148.286 88.662v4.041l-8.448 7.897 2.662 2.48-5.647 5.237 3.398 3.168v-3.811h4.085v3.398l-10.698 9.963h-4.959l-.505-2.846h3.672l-4.407-4.133-9.185 8.402 9.185 8.405 4.407-4.086h-3.672l.505-2.893h4.959l10.701 9.963v3.398h-4.088v-3.811l-3.398 3.168 5.65 5.234-2.662 2.527 8.448 7.853v4.041l-12.812-11.894 2.663-2.527-5.603-5.234 4.824-4.5-3.767-3.489-6.152 5.739-12.907-11.894 12.904-11.891 6.155 5.739 3.764-3.49-4.821-4.499 5.603-5.237-2.666-2.48 12.812-11.938zm0 24.751v18.093l-2.754-2.757v-3.994h-3.537l-2.296-2.297 2.296-2.294h3.537v-3.997l2.754-2.754zm-23.053 6.979l.322 1.883-.322 1.883-2.019-1.883 2.019-1.883z"/><path fill="#383739" d="M148.286 185.903v5.098l-7.899 7.392 2.666 2.48-5.651 5.237 2.48 2.249V205.1l4.824-.003v3.906l-10.885 10.194h-5.509l-.599-3.584h3.171l-3.445-3.212-8.633 7.853 8.633 7.897 3.445-3.215h-3.171l.599-3.628h5.509l10.882 10.196v3.903h-4.821v-3.259l-2.48 2.246 5.648 5.238-2.663 2.524 7.899 7.347v5.099l-13.364-12.446 2.663-2.524-5.6-5.235 4.821-4.501-3.215-2.938-6.152 5.695-13.501-12.399 13.501-12.4 6.152 5.74 3.215-2.985-4.821-4.499 5.603-5.237-2.666-2.48 13.364-12.49zm0 24.753v19.195l-3.123-3.171v-3.719h-3.306l-2.663-2.707 2.663-2.666h3.306v-3.764l3.123-3.168zm-22.775 6.796l.457 2.616-.457 2.665-2.849-2.665 2.849-2.616z"/><path fill="#FFC72C" d="M148.286 186.454v4.042l-8.448 7.897 2.662 2.483-5.647 5.234 3.398 3.167v-3.811h4.085v3.398l-10.698 9.967-4.959-.003-.505-2.846h3.672l-4.407-4.133-9.185 8.405 9.185 8.401 4.407-4.085h-3.672l.505-2.893h4.959l10.701 9.963v3.398h-4.088v-3.811l-3.398 3.167 5.65 5.238-2.662 2.524 8.448 7.852v4.042l-12.812-11.894 2.663-2.524-5.603-5.238 4.824-4.498-3.767-3.49-6.152 5.739-12.907-11.891 12.904-11.895 6.155 5.74 3.764-3.49-4.821-4.499 5.603-5.237-2.666-2.48 12.812-11.939zm0 24.751v18.094l-2.754-2.754v-3.998h-3.537l-2.296-2.293 2.296-2.297h3.537v-3.997l2.754-2.755zm-23.053 6.982l.322 1.881-.322 1.883-2.019-1.883 2.019-1.881z"/><path fill="#383739" d="M148.286 283.695v5.098l-7.899 7.393 2.666 2.48-5.651 5.237 2.48 2.249v-3.262h4.824v3.906l-10.885 10.194h-5.509l-.599-3.584h3.171l-3.445-3.212-8.633 7.852 8.633 7.897 3.445-3.215h-3.171l.599-3.628h5.509l10.882 10.197v3.903h-4.821v-3.26l-2.48 2.247 5.648 5.237-2.663 2.524 7.899 7.348v5.099l-13.364-12.447 2.663-2.524-5.6-5.237 4.821-4.499-3.215-2.937-6.152 5.694-13.501-12.399 13.501-12.398 6.152 5.738 3.215-2.984-4.821-4.499 5.603-5.237-2.666-2.48 13.364-12.491zm0 24.754v19.195l-3.123-3.171v-3.719h-3.306l-2.663-2.708 2.663-2.665h3.306v-3.764l3.123-3.171v.003zm-22.775 6.796l.457 2.615-.457 2.666-2.849-2.666 2.849-2.618v.003z"/><path fill="#FFC72C" d="M148.286 284.247v4.042l-8.448 7.897 2.662 2.48-5.647 5.237 3.398 3.167v-3.811h4.085v3.398l-10.698 9.964h-4.959l-.505-2.846h3.672l-4.407-4.133-9.185 8.404 9.185 8.402 4.407-4.086h-3.672l.505-2.893h4.959l10.701 9.964v3.398h-4.088v-3.812l-3.398 3.168 5.65 5.237-2.662 2.524 8.448 7.853v4.041l-12.812-11.894 2.663-2.524-5.603-5.237 4.824-4.499-3.767-3.489-6.152 5.739-12.907-11.892 12.904-11.894 6.155 5.739 3.764-3.489-4.821-4.499 5.603-5.237-2.666-2.48 12.812-11.939zm0 24.751v18.094l-2.754-2.755v-3.997h-3.537l-2.296-2.294 2.296-2.297h3.537v-3.996l2.754-2.755zm-23.053 6.979l.322 1.883-.322 1.884-2.019-1.884 2.019-1.883z"/><path fill="#383739" d="M148.286 381.488v5.098l-7.899 7.393 2.666 2.479-5.651 5.235 2.48 2.252v-3.262h4.824v3.902l-10.885 10.194h-5.509l-.599-3.581h3.171l-3.445-3.214-8.633 7.852 8.633 7.9 3.445-3.215h-3.171l.599-3.628h5.509l10.882 10.194v3.903h-4.821v-3.26l-2.48 2.25 5.648 5.234-2.663 2.527 3.92 3.646a216.198 216.198 0 01-7.923-5.031l1.201-1.139-5.6-5.237 4.821-4.499-3.215-2.941-6.152 5.695-13.501-12.399 13.501-12.396 6.152 5.739 3.215-2.985-4.821-4.501 5.603-5.235-2.666-2.479 13.364-12.491zm0 24.751v19.195l-3.123-3.168v-3.72h-3.306l-2.663-2.71 2.663-2.663h3.306v-3.764l3.123-3.17zm-22.775 6.796l.457 2.618-.457 2.663-2.849-2.663 2.849-2.618z"/><path fill="#FFC72C" d="M148.286 382.04v4.039l-8.448 7.9 2.662 2.479-5.647 5.235 3.398 3.17v-3.811l4.085-.003v3.401l-10.698 9.963h-4.959l-.505-2.849h3.672l-4.407-4.133-9.185 8.405 9.185 8.405 4.407-4.089h-3.672l.505-2.893h4.959l10.701 9.967v3.397h-4.088v-3.811l-3.398 3.168 5.65 5.234-2.662 2.527 2.863 2.66a217.407 217.407 0 01-5.993-3.829l1.429-1.358-5.603-5.234 4.824-4.499-3.767-3.493-6.152 5.739-12.907-11.891 12.904-11.894 6.155 5.742 3.764-3.49-4.821-4.501 5.603-5.235-2.666-2.479 12.812-11.939zm0 24.751v18.093l-2.754-2.757v-3.994h-3.537l-2.296-2.297 2.296-2.293h3.537v-3.998l2.754-2.754zm-23.053 6.979l.322 1.883-.322 1.884-2.019-1.884 2.019-1.883z"/><path fill="#383739" d="M141.969 72.056v9.804l-11.254 6.902v8.777l-10.636 6.406h-8.496l-16.169 9.093h-1.86a217.465 217.465 0 0148.415-40.982z"/><path fill="#00843D" d="M93.867 112.686h1.446l16.163-9.092h8.496l10.38-6.247v-8.815l11.251-6.887v-9.361c-1.154.72-2.306 1.452-3.445 2.193v5.329l-11.295 6.89v8.77l-7.853 4.73h-8.452l-10.787 6.07a215.917 215.917 0 00-5.904 6.42z"/><path fill="#FFC72C" d="M100.662 105.35l9.796-5.511h8.431l7.622-4.591v-8.756l11.254-6.902v-4.856a217.545 217.545 0 00-37.103 30.616z"/><path fill="#383739" d="M113.215 96.568l2.772 2.583 2.743-1.695-2.775-2.586 3.563-2.208h-5.476a209.664 209.664 0 00-4.629 4.157v2.105l3.802-2.356zM116.082 90.923c.797-.676 1.588-1.352 2.394-2.016l1.216 1.133-2.745 1.692-.865-.809z"/><path fill="#D22630" d="M116.032 98.684l-2.489-2.32 2.084-1.29 2.495 2.323-2.09 1.287zm-6.247-2.211a227.223 227.223 0 013.837-3.439h4.594l-8.431 5.222v-1.783zM116.994 91.268l-.629-.584c.608-.513 1.207-1.033 1.822-1.538l.894.833-2.087 1.289z"/><path fill="#383739" d="M107.432 204.303v-5.054h13.863v-5.054h13.861v-45.673h-13.861v-5.054h-13.863v-5.057h-13.86v-5.054H77.695a215.483 215.483 0 00-30.564 65.892h1.556v5.054H62.55v5.057h31.022v-5.057h13.86z"/><path fill="#FFC72C" d="M47.229 198.88h1.845v5.051H62.94v5.051h30.259v-5.051h13.87v-5.051h13.869v-5.051h13.866v-44.958h-13.866v-5.051h-13.869v-5.052h-13.87v-5.051H77.444a228.052 228.052 0 00-2.462 3.673h14.545v5.051h13.869v5.054h13.87v5.051h13.866v37.607h-13.866v5.052h-13.87v5.051H89.527v5.051H66.615v-5.051H52.746v-5.051h-4.481c-.357 1.222-.7 2.447-1.036 3.675z"/><path fill="#D22630" d="M53.1 199.89v-5.054h-4.723a215.3 215.3 0 0126.354-57.065h14.427v5.054h13.863v5.054h13.861v5.054h13.863v36.849h-13.863v5.054h-13.861v5.054H89.158v5.054H66.964v-5.054H53.1z"/><path fill="#383739" d="M48.593 194.109l.688.62.008-2.961c-.242.777-.463 1.562-.696 2.341zm.773-2.592l3.363 2.135v5.211l3.589-2.714.009 3.64 3.516-3.147 3.519 3.147.009-3.64 3.221 2.433v5.559l4.812-4.387v5.154l6.657-4.28 6.657 4.28v-5.154l4.812 4.387v-5.559l3.218-2.433.009 3.64 3.516-3.147 3.522 3.147.006-3.64 3.59 2.714v-5.211l3.439-2.187.009 3.264 3.297-2.964 3.298 2.964.009-3.264 3.808 2.423v-4.833l3.082-2.228.006 2.964 3.658-2.651 3.657 2.651.009-2.964 3.451 2.497.003-14.637h4.041v-6.663h-4.041v-14.633l-3.451 2.497-.009-2.961-3.658 2.648-3.657-2.648-.009 2.961-3.08-2.229v-4.832l-3.808 2.423-.008-3.262-3.298 2.961-3.3-2.961-.006 3.262-3.44-2.187v-5.211l-3.59 2.716-.008-3.643-3.519 3.147-3.519-3.147-.006 3.643-3.221-2.435v-5.556l-4.812 4.387v-5.155l-6.657 4.278-4.337-2.787a215.528 215.528 0 00-24.358 52.217z"/><path fill="#D22630" d="M48.631 193.977l.526.472.005-2.258.246-.798 3.445 2.191v5.028l3.589-2.714.009 3.614 3.392-3.038 3.395 3.038.009-3.614 3.469 2.622v5.338l4.812-4.387v5.207l6.533-4.198 6.53 4.198v-5.207l4.812 4.387v-5.338l3.469-2.622.009 3.614 3.392-3.038 3.398 3.035.005-3.611 3.59 2.714v-5.028l3.688-2.344.009 3.209 3.173-2.849 3.174 2.849.009-3.209 3.808 2.421v-4.671c1.107-.805 2.22-1.605 3.33-2.406l.006 2.961 3.534-2.559 3.533 2.559.009-2.964 3.451 2.498.003-14.516h4.039v-6.412h-4.042v-14.515l-3.448 2.497-.009-2.964-3.534 2.56-3.533-2.56-.009 2.964-3.327-2.409v-4.67l-3.809 2.423-.008-3.211-3.174 2.851-3.176-2.851-.006 3.211-3.688-2.344v-5.03l-3.59 2.713-.008-3.613-3.395 3.038-3.395-3.035-.006 3.61c-1.158-.874-2.309-1.75-3.469-2.621v-5.338l-4.812 4.387v-5.208l-6.533 4.198-4.402-2.831.136-.206 4.266 2.742 6.784-4.36v5.101l4.812-4.387v5.778l2.97 2.246.006-3.669 3.643 3.259 3.643-3.259.008 3.669 3.59-2.716v5.394l3.192 2.028.008-3.315 3.422 3.073 3.421-3.073.009 3.315 3.811-2.421v4.995l2.829 2.049.009-2.964 3.781 2.74 3.782-2.74.009 2.964 3.451-2.501V167.9h4.042v6.914h-4.042l-.003 14.755-3.451-2.5-.009 2.963-3.781-2.739-3.779 2.739-.009-2.963-2.831 2.048v4.998l-3.811-2.423-.01 3.315-3.421-3.073-3.421 3.073-.009-3.315-3.191 2.028v5.393l-3.59-2.716-.006 3.67-3.646-3.259-3.64 3.259-.009-3.67-2.97 2.247v5.777l-4.812-4.387v5.102l-6.781-4.361-6.784 4.361v-5.102l-4.812 4.387v-5.777l-2.97-2.244-.006 3.667-3.646-3.259-3.64 3.259-.009-3.667-3.592 2.713v-5.393l-3.189-2.028-.009 3.315-.85-.765.077-.265zm22.9-51.167v.434l-.172-.156.172-.278z"/><path fill="#00843D" d="M53.1 180.606a215.763 215.763 0 0113.492-29.332v46.841l-3.59-2.713-.006 3.558-3.15-2.816-3.15 2.816-.006-3.555-3.59 2.71v-17.509zm46.326-36.848l-3.15 2.813-3.15-2.813-.006 3.554-3.59-2.713v53.516l3.59-2.713.006 3.558 3.15-2.816 3.15 2.816.005-3.555 3.59 2.71v-53.516l-3.59 2.716-.005-3.557zm27.868 12.856l-.009-2.961-3.286 2.383-.112-.083-3.176-2.3-.009 2.961-3.449-2.494v34.478l3.449-2.498.009 2.964 3.288-2.382 3.286 2.382.009-2.964 3.448 2.498v-14.28h4.041v-5.919h-4.041V154.12l-3.448 2.494z"/><path fill="#FFC72C" d="M52.729 181.584v11.628l-3.242-2.063a213.658 213.658 0 013.242-9.565zm-3.812 11.433l-.003.88-.203-.183.206-.697zm18.047-42.407a213.344 213.344 0 014.26-7.307l.552.502v-1.387a181.92 181.92 0 011.751-2.805l4.534 2.916 6.285-4.041v5.317l4.812-4.387v63.881l-4.812-4.387v5.314l-6.285-4.038-6.285 4.038v-5.314l-4.812 4.387V150.61zm46.101-1.792l-2.929 2.63-2.929-2.63-.006 3.108-3.81-2.42v43.706l3.81-2.421.01 3.106 2.928-2.631 2.926 2.631.008-3.106 3.809 2.421v-43.706l-3.809 2.42-.008-3.108z"/><path fill="#383739" d="M63.634 156.785l.522-.989.242.225zM125.493 165.078c-.419.425-.924.641-1.494.641-.572 0-1.074-.216-1.497-.641-1.316-1.325-1.361-3.725-1.346-5.453l1.795 1.899 1.048-1.804 1.045 1.804 1.798-1.899c.012 1.728-.032 4.128-1.349 5.453zm-14.459-3.714l1.11-1.11v-2.205l2.547 2.359-4.555 4.552-4.552-4.552 2.548-2.359v2.205l1.107 1.107v-3.908l-1.963-1.686 2.86-2.459 2.861 2.459-1.963 1.686v3.911zm-13.861-4.387l1.11-1.11v-2.208l2.545 2.362-4.552 4.552-4.552-4.552 2.547-2.362v2.208l1.11 1.11v-3.911l-1.966-1.689 2.861-2.456 2.86 2.456-1.963 1.689v3.911z"/><path fill="#fff" d="M123.999 160.461l-.974 1.683-1.482-1.568c.05 1.951.478 3.493 1.222 4.239.352.355.765.532 1.234.532.467 0 .88-.177 1.231-.529.744-.749 1.172-2.291 1.222-4.239l-1.478 1.565-.975-1.683zm-28.249-7.567v4.978l-1.851-1.851v-1.509l-1.641 1.521 4.018 4.015 4.018-4.015-1.642-1.521v1.509l-1.851 1.851v-4.978l1.766-1.514-2.291-1.969-2.291 1.969 1.765 1.514z"/><path fill="#D22630" d="M109.611 157.281v4.981l-1.851-1.854v-1.509l-1.639 1.518 4.015 4.017 4.018-4.017-1.639-1.518v1.509l-1.853 1.854v-4.981l1.765-1.514-2.291-1.969-2.291 1.969z"/><path fill="#383739" d="M83.508 158.639l-1.491-2.063 3.826-3.528-3.566-2.932v2.076l-1.491 1.275v-3.764l3.368-2.482-6.096-4.49-6.093 4.49 3.371 2.482v3.764l-1.494-1.275v-2.076l-3.566 2.932 3.826 3.528-1.491 2.063z"/><path fill="#D22630" d="M73.341 158.267l1.254-1.738-3.752-3.466 2.63-2.158v1.458l2.235 1.913v-4.759l-3.115-2.296 5.468-4.03 5.467 4.03-3.114 2.296v4.759l2.234-1.913v-1.458l2.628 2.158-3.752 3.466 1.258 1.738z"/><path fill="#383739" d="M75.274 147.221l2.787 2.054 2.784-2.054-2.784-2.052-.112.082z"/><path fill="#28AE66" d="M78.061 145.632l2.158 1.589-2.158 1.591-2.161-1.591z"/><path fill="#383739" d="M58.949 185.74l-1.11 1.107v2.208l-2.545-2.361 4.552-4.552 4.552 4.552-2.547 2.361v-2.208l-1.11-1.107v3.912l1.966 1.686-2.861 2.455-2.861-2.455 1.964-1.686z"/><path fill="#fff" d="M60.372 189.82v-4.977l1.851 1.851v1.511l1.641-1.523-4.018-4.015-4.018 4.015 1.642 1.523v-1.511l1.851-1.851v4.977l-1.766 1.518 2.291 1.966 2.291-1.966z"/><path fill="#383739" d="M125.493 177.636c-.419-.424-.924-.64-1.494-.64-.572 0-1.074.216-1.497.64-1.316 1.326-1.361 3.726-1.346 5.453l1.795-1.898 1.048 1.804 1.045-1.804 1.798 1.898c.012-1.727-.032-4.127-1.349-5.453zm-14.459 3.717l1.11 1.107v2.209l2.547-2.362-4.555-4.552-4.552 4.552 2.548 2.362v-2.209l1.107-1.107v3.909l-1.963 1.689 2.86 2.456 2.861-2.456-1.963-1.689v-3.909zm-13.861 4.387l1.11 1.107v2.208l2.545-2.361-4.552-4.552-4.552 4.552 2.547 2.361v-2.208l1.11-1.107v3.912l-1.966 1.686 2.861 2.455 2.86-2.455-1.963-1.686v-3.912z"/><path fill="#fff" d="M123.999 182.254l-.974-1.68-1.482 1.565c.05-1.952.478-3.49 1.222-4.24.352-.351.765-.531 1.234-.531.467 0 .88.18 1.231.531.744.75 1.172 2.291 1.222 4.24l-1.478-1.565-.975 1.68zM95.75 189.82v-4.977l-1.851 1.851v1.511l-1.641-1.523 4.018-4.015 4.018 4.015-1.642 1.523v-1.511l-1.851-1.851v4.977l1.766 1.518-2.291 1.966-2.291-1.966 1.765-1.518z"/><path fill="#D22630" d="M109.611 185.433v-4.977l-1.851 1.851v1.511l-1.639-1.52 4.015-4.018 4.018 4.018-1.639 1.52v-1.511l-1.853-1.851v4.977l1.765 1.518-2.291 1.966-2.291-1.966z"/><path fill="#383739" d="M83.508 184.078l-1.491 2.061 3.826 3.53-3.566 2.929v-2.075l-1.491-1.276v3.764l3.368 2.483-6.096 4.49-6.093-4.49 3.371-2.483v-3.764l-1.494 1.276v2.075l-3.566-2.929 3.826-3.53-1.491-2.061z"/><path fill="#D22630" d="M73.341 184.447l1.254 1.742-3.752 3.463 2.63 2.161v-1.462l2.235-1.913v4.762l-3.115 2.294 5.468 4.03 5.467-4.03-3.114-2.294v-4.762l2.234 1.913v1.462l2.628-2.161-3.752-3.463 1.258-1.742z"/><path fill="#383739" d="M75.274 195.494l2.787-2.052 2.784 2.052-2.784 2.052-.112-.083z"/><path fill="#28AE66" d="M78.061 197.085l2.158-1.591-2.158-1.591-2.161 1.591z"/><path fill="#383739" d="M127.394 169.226h-6.099v-2.433h-18.652l-12.98-8.526H66.459l-5.314 3.49a215.72 215.72 0 00-6.542 14.905l11.856 7.788h23.204l12.983-8.529h18.646v-2.432l6.102.003v-4.266z"/><path fill="#D22630" d="M66.568 158.651l-5.736 3.752-.98 2.093 6.991-4.605h22.409l11.895 7.806v1.195h13.27v4.96h-13.27v1.192l-11.895 7.762H66.843l-11.638-7.623-.463 1.137 11.826 7.773h23.006l12.948-8.541h18.416v-2.435h6.108v-3.537h-6.108v-2.433h-18.416l-12.948-8.496z"/><path fill="#D22630" d="M89.158 160.275l11.602 7.617v1.352h13.291v4.23h-13.294v1.352l-11.599 7.614H66.961l-11.599-7.614v-.027c1.32-3.259 2.716-6.48 4.189-9.659l7.41-4.865h22.197z"/><path fill="#383739" d="M61.201 175.685l5.022 3.77 3.303-2.483-1.919-1.44-1.384 1.039-1.181-.886 18.915-14.2-3.841-.003-18.915 14.203zm10.962 5.547h3.84l18.915-14.199-5.022-3.771-3.303 2.48 1.922 1.444 1.381-1.039 1.181.886-18.914 14.199zm7.953 0h3.841l-18.915-14.199 1.181-.886 1.384 1.039 1.919-1.441-3.303-2.483-5.022 3.771 18.915 14.199zm10.961-5.547l-1.181.886-1.381-1.039-1.922 1.44 3.303 2.483 5.022-3.773-18.915-14.2h-3.84l18.914 14.203zm-33.681-4.328l3.377 2.244 3.374-2.244-3.374-2.24-3.377 2.24z"/><path fill="#383739" d="M74.684 171.357l3.377 2.244 3.374-2.244-3.374-2.24-3.377 2.24zm24.039 0l-3.374 2.244-3.375-2.244 3.375-2.24 3.374 2.24z"/><path fill="#FAAE29" d="M94.301 175.685l-4.405 3.304-2.683-2.017 1.302-.977 1.381 1.039 1.801-1.349-18.418-13.828 2.603-.003 18.419 13.831zm-11.457 5.175H80.24l-18.419-13.827 4.402-3.307 2.686 2.019-1.302.975-1.381-1.04-1.801 1.353 18.419 13.827zm-6.962 0h-2.603l18.418-13.827-1.798-1.353-1.384 1.04-1.302-.975 2.686-2.016 4.402 3.304-18.419 13.827zm4.358-19.006h2.604l-18.419 13.831 1.798 1.349 1.384-1.039 1.302.977-2.686 2.017-4.405-3.307 18.422-13.828z"/><path fill="#00843D" d="M60.773 169.563l2.704 1.794-2.704 1.798-2.704-1.795 2.704-1.797zm17.288 0l2.704 1.794-2.704 1.798-2.704-1.795 2.704-1.797zm17.288 0l-2.704 1.794 2.704 1.798 2.704-1.795-2.704-1.797z"/><path fill="#383739" d="M137.435 265.463l1.325 1.871-2.376 1.816 2.376 1.815-1.325 1.875-2.758.319-2.672-2.064-6.66 4.231v-3.513l4.193-2.663-4.193-2.663v-3.513l6.66 4.23 2.672-2.063z"/><path fill="#383739" d="M137.435 253.256l1.325 1.874-2.376 1.816 2.376 1.815-1.325 1.875-2.758.319-2.672-2.064-6.66 4.231v-3.513l4.193-2.663-4.193-2.663v-3.513l6.66 4.23 2.672-2.063 2.758.319zm-92.084 52.501a209.806 209.806 0 01-1.042-4.682h1.042v4.682zm-5.134-66.285c.104-1.367.231-2.728.36-4.086h.688v-3.235h4.086v5.078h-3.693v2.243h-1.441zm97.218 45.573l1.325-1.872-2.376-1.816 2.376-1.815-1.325-1.875-2.758-.319-2.672 2.064-6.66-4.231v3.513l4.193 2.663-4.193 2.663v3.513l6.66-4.23 2.672 2.063 2.758-.321zm-26.664-52.894v5.078h3.693v2.243h3.628v-4.086h-3.236v-3.235h-4.085zm10.887 8.009v5.075h3.687v2.243h3.631v-4.085h-3.235v-3.236l-4.083.003zm-10.887 65.992v-5.077h3.693v-2.244h3.628v4.086h-3.236v3.235h-4.085zm10.887-8.009v-5.075h3.687v-2.243h3.631v4.083l-3.235.002v3.233h-4.083zm-29.938-66.11l-2.819-2.734-2.769 2.565 2.415 2.341-3.115 3.024h4.624l1.664-1.615 1.665 1.615h4.623l-3.114-3.024 2.412-2.341-2.769-2.565c-.939.909-1.878 1.821-2.817 2.734zm-13.659 0l-2.819-2.734-2.766 2.565 2.411 2.341-3.114 3.024h4.623l1.665-1.615 1.665 1.615h4.623l-3.114-3.024 2.411-2.341-2.766-2.565c-.941.909-1.88 1.821-2.819 2.734zm-13.66 0l2.82-2.734 2.769 2.565-2.412 2.341 3.114 3.024h-4.625l-1.666-1.615-1.662 1.615h-4.626l3.118-3.024-2.415-2.341 2.769-2.565c.942.909 1.877 1.821 2.816 2.734zM91.72 306.27l-2.819 2.734-2.769-2.565 2.415-2.341-3.115-3.023h4.624l1.664 1.614 1.665-1.614h4.623l-3.114 3.023 2.412 2.341-2.769 2.565c-.939-.909-1.878-1.822-2.817-2.734zm-13.659 0l-2.819 2.734-2.766-2.565 2.411-2.341-3.114-3.023h4.623l1.665 1.614 1.665-1.614h4.623l-3.114 3.023 2.411 2.341-2.766 2.565c-.941-.909-1.88-1.822-2.819-2.734zm-13.66 0l2.82 2.734 2.769-2.565-2.412-2.341 3.114-3.023h-4.625l-1.666 1.614-1.662-1.614h-4.626l3.118 3.023-2.415 2.341 2.769 2.565c.942-.909 1.877-1.822 2.816-2.734z"/><path fill="#00843D" d="M44.979 304.156l-.59-2.712h.59v2.712zM40.247 239.1c.089-1.116.195-2.229.298-3.342h1.092v-3.235h3.342v4.334h-3.693v2.243h-1.039zm85.47 32.92v2.63l6.309-4.006 2.757 2.131 2.445-.286 1.021-1.444-2.477-1.895 2.477-1.892-1.021-1.447-2.445-.283-2.757 2.131-6.309-4.009v2.633l4.514 2.867-4.514 2.87zm0-12.208v2.634l6.309-4.009 2.757 2.131 2.445-.283 1.021-1.447-2.477-1.892 2.477-1.892-1.021-1.447-2.445-.283-2.757 2.131-6.309-4.009v2.633l4.514 2.867-4.514 2.866zm0 18.678v-2.633l6.309 4.009 2.757-2.131 2.445.283 1.021 1.447-2.477 1.892 2.477 1.895-1.021 1.444-2.445.284-2.757-2.132-6.309 4.009v-2.633l4.514-2.867-4.514-2.867zm-11.232-45.967v3.235h3.235v3.345l-2.884-.003v-2.243h-3.693v-4.334h3.342zm10.884 8.006v3.236h3.236v3.341h-2.885v-2.243h-3.693v-4.334h3.342zm-10.884 65.248v-3.232h3.235V299.2h-2.884v2.244h-3.693v4.333h3.342zm10.884-8.003v-3.236h3.236v-3.342h-2.885v2.241h-3.693v4.337h3.342zM88.895 229.81l2.825 2.742 2.823-2.742 2.223 2.06-2.406 2.335 2.73 2.652h-3.554l-1.816-1.763-1.815 1.763h-3.557l2.733-2.652-2.408-2.335 2.222-2.06zm-13.656 0l2.822 2.742 2.822-2.742 2.223 2.06-2.406 2.335 2.734 2.652h-3.557l-1.816-1.763-1.816 1.763h-3.557l2.731-2.652-2.403-2.335 2.223-2.06zm-8.013 0l-2.822 2.742-2.825-2.742-2.223 2.06 2.409 2.335-2.734 2.652h3.558l1.815-1.763 1.816 1.763h3.554l-2.73-2.652 2.406-2.335-2.224-2.06zm21.669 78.683l2.825-2.742 2.823 2.742 2.223-2.06-2.406-2.335 2.73-2.651h-3.554l-1.816 1.759-1.815-1.759h-3.557l2.733 2.651-2.408 2.335 2.222 2.06zm-13.656 0l2.822-2.742 2.822 2.742 2.223-2.06-2.406-2.335 2.734-2.651h-3.557l-1.816 1.759-1.816-1.759h-3.557l2.731 2.651-2.403 2.335 2.223 2.06zm-8.013 0l-2.822-2.742-2.825 2.742-2.223-2.06 2.409-2.335-2.734-2.651h3.558l1.815 1.759 1.816-1.759h3.554l-2.73 2.651 2.406 2.335-2.224 2.06z"/><path fill="#383739" d="M44.389 301.447h70.447v-8.007h10.881v-48.577h-10.881v-8.006h-73.55v8.006h-1.411a221.067 221.067 0 00-.281 11.138c0 15.59 1.66 30.791 4.795 45.446z"/><path fill="#FFC72C" d="M41.679 237.223v7.991h-1.816c-.077 1.573-.136 3.15-.18 4.729h4.018l2.663-1.93v-7.714h63.415v7.714l2.619 1.93h9.871v38.434h-9.919l-2.571 1.884v7.761l-63.415-.003v-7.714l-2.619-1.928h-1.739a216.177 216.177 0 002.297 12.674h70.158v-7.989h10.884v-47.848h-10.881v-7.991H41.679z"/><path fill="#D22630" d="M46.73 240.668v7.07l9.55-7.07h-9.55zm-4.774 47.343l-.147-1.06 1.431 1.06h-1.284zm-2.323-35.05c.012-.883.012-1.772.035-2.651h3.572l-3.607 2.651zm60.179-12.293l9.554 7.07v-7.07h-9.554zm13.043 9.642l9.048 6.659v-6.659h-9.048zm9.048 30.994l-9.048 6.707h9.048v-6.707zm-75.173 9.279v7.026h9.506l-9.506-7.026zm62.636 0l-9.506 7.026h9.506v-7.026z"/><path fill="#00843D" d="M99.198 240.674l22.702 16.768v23.416l-22.702 16.771H56.923l-15.191-11.221a218.445 218.445 0 01-2.138-30.407c0-.853.024-1.703.033-2.553l17.296-12.774h42.275z"/><path fill="#383739" d="M39.609 254.767l.018-.021h76.868l2.61 3.029-2.451 2.846 2.451 2.843-2.451 2.843 2.451 2.843-2.451 2.843 2.451 2.846-2.451 2.843 2.451 2.843-2.61 3.029-75.162.003a218.256 218.256 0 01-1.739-27.556l.015-1.234zm52.855-10.43l-3.028-2.609-2.843 2.45-2.843-2.45-2.846 2.45-2.843-2.45-2.843 2.45-2.846-2.45-2.843 2.45-2.843-2.45-3.029 2.609v49.629l3.029 2.61 2.843-2.451 2.843 2.451 2.846-2.451 2.843 2.451 2.843-2.451 2.843 2.451 2.846-2.451 2.843 2.451 3.028-2.61v-49.629z"/><path fill="#FAAE29" d="M86.407 244.508l-2.657-2.29-2.66 2.29v49.287l2.66 2.29 2.657-2.29v-49.287zm-11.375 0l-2.66-2.29-2.657 2.29v49.287l2.657 2.29 2.66-2.29v-49.287z"/><path fill="#FAAE29" d="M40.687 277.868h75.637l2.29 2.66-2.29 2.657H41.289a212.301 212.301 0 01-.602-5.317zm-.514-6.061a226.832 226.832 0 01-.322-5.314h76.473l2.29 2.657-2.29 2.657H40.173zm-.525-11.543c-.03-1.417-.054-2.837-.054-4.263l.009-.658.192-.224h76.529l2.29 2.656-2.29 2.66H39.795l-.147-.171z"/><path fill="#CA3745" d="M92.092 244.508l-2.656-2.29-2.657 2.29v49.287l2.657 2.29 2.656-2.29v-49.287zm-22.749 0l-2.657-2.29-2.66 2.29v49.287l2.66 2.29 2.657-2.29v-49.287z"/><path fill="#D22630" d="M40.197 272.179h76.127l2.29 2.66-2.29 2.657h-75.67c-.174-1.766-.325-3.54-.457-5.317zm-.36-6.058c-.077-1.712-.139-3.43-.181-5.154l.142-.163h76.526l2.29 2.66-2.29 2.657H39.837z"/><path fill="#CA3745" d="M80.718 293.795l-2.657 2.29-2.657-2.29v-49.287l2.657-2.29 2.657 2.29z"/><path fill="#383739" d="M103.75 245.468H52.185v4.097h-6.592v39.173h6.592v4.094h51.752v-4.094h6.592v-39.173h-6.592v-4.097z"/><path fill="#D22630" d="M52.563 245.855v4.088H45.95v38.434h6.613v4.086h5.418l-10.791-9.045V254.9l10.791-9.045h-5.418zm45.599 0l10.743 9.045v28.518l-10.743 9.045h5.417v-4.086h6.569v-38.434h-6.569v-4.088h-5.417z"/><path fill="#28AE66" d="M58.577 245.855l-11.021 9.228v28.152c.13.109 10.917 9.143 11.021 9.228h38.986l10.976-9.228v-28.152l-10.976-9.228H58.577zm.552 1.561h37.837l10.011 8.402V282.5l-10.011 8.357H59.129l-9.967-8.357v-26.682l9.967-8.402z"/><path fill="#00843D" d="M69.151 282.922l1.692.732.313 1.978-2.135 1.875 3.1 2.996H69.14l-2.132-2.052-2.128 2.052h-2.982l3.097-2.996-2.132-1.875.313-1.978 1.692-.732 2.14 1.712.118-.094 2.025-1.618zm11.05 0l1.695.732.313 1.978-2.135 1.875 3.097 2.996h-2.978l-2.132-2.052-2.131 2.052h-2.979l3.097-2.996-2.132-1.875.31-1.978 1.695-.732 2.14 1.712.115-.094 2.025-1.618zm6.772 0l-1.694.732-.313 1.978 2.134 1.875-3.097 2.996h2.979l2.132-2.052 2.131 2.052h2.979l-3.097-2.996 2.132-1.875-.311-1.978-1.694-.732-2.14 1.712-.118-.094-2.023-1.618zm-17.822-27.541l1.692-.732.313-1.978-2.135-1.874 3.1-2.997H69.14l-2.132 2.052-2.128-2.052h-2.982l3.097 2.997-2.132 1.874.313 1.978 1.692.732 2.14-1.712.118.094 2.025 1.618zm11.05 0l1.695-.732.313-1.978-2.135-1.874 3.097-2.997h-2.978l-2.132 2.052-2.131-2.052h-2.979l3.097 2.997-2.132 1.874.31 1.978 1.695.732 2.14-1.712.115.094 2.025 1.618zm6.772 0l-1.694-.732-.313-1.978 2.134-1.874-3.097-2.997h2.979l2.132 2.052 2.131-2.052h2.979l-3.097 2.997 2.132 1.874-.311 1.978-1.694.732-2.14-1.712-.118.094-2.023 1.618zm19.615 3.159l-1.692 1.399 1.692 1.4v2.32l-2.601-2.143-1.866 1.691-2.002-.25-.705-1.302 1.724-1.716-1.724-1.718.705-1.299 2.002-.251 1.866 1.689 2.601-2.14v2.32zm0 9.211l-1.692 1.402 1.692 1.396v2.321l-2.601-2.14-1.866 1.688c-.15-.017-1.833-.23-2.002-.251l-.705-1.299 1.724-1.718-1.724-1.715.705-1.302 2.002-.251 1.866 1.692 2.601-2.144v2.321zm0 12.012l-1.692-1.4 1.692-1.399v-2.32l-2.601 2.143-1.866-1.691-2.002.251-.705 1.301 1.724 1.715-1.724 1.719.705 1.299c.169.02 1.852.233 2.002.251l1.866-1.689 2.601 2.14v-2.32zM49.537 258.54l1.689 1.399-1.689 1.4v2.32l2.598-2.143 1.869 1.691 1.998-.25.706-1.302-1.721-1.716 1.721-1.718-.706-1.299-1.998-.251-1.869 1.689-2.598-2.14v2.32zm0 9.211l1.689 1.402-1.689 1.396v2.321l2.598-2.14 1.869 1.688c.148-.017 1.833-.23 1.998-.251l.706-1.299-1.721-1.718 1.721-1.715-.706-1.302-1.998-.251-1.869 1.692-2.598-2.144v2.321zm0 12.012l1.689-1.4-1.689-1.399v-2.32l2.598 2.143 1.869-1.691 1.998.251.706 1.301-1.721 1.715 1.721 1.719-.706 1.299-1.998.251-1.869-1.689-2.598 2.14v-2.32z"/><path fill="#D22630" d="M59.268 247.785c-.101.083-9.193 7.694-9.598 8.036.818.679 1.612 1.391 2.433 2.066l1.792-1.608 2.341.322.918 1.7-1.654 1.653c.225.222 1.654 1.653 1.654 1.653l-.918 1.698-2.341.277s-1.583-1.375-1.792-1.562l-2.572 2.159v.735c.865.714 1.704 1.44 2.572 2.158.209-.189 1.792-1.562 1.792-1.562l2.341.274.918 1.701-1.654 1.653c.225.222 1.654 1.654 1.654 1.654l-.918 1.744-2.341.275s-1.583-1.417-1.792-1.606l-2.572 2.158v.779l2.572 2.158 1.792-1.606 2.341.322.918 1.697-1.654 1.653 1.654 1.654-.918 1.7-2.341.322-1.792-1.609c-.818.676-1.618 1.349-2.433 2.022l9.598 8.036h2.11l3.08-2.987-1.976-1.742.367-2.388 2.066-.874 2.111 1.653 2.069-1.653 2.064.874.413 2.388-2.019 1.742 2.984 2.848 2.985-2.848-2.019-1.742.366-2.388 2.114-.874 2.066 1.653 2.111-1.653 2.066.874.37 2.388-1.976 1.742 2.938 2.893 2.985-2.893-1.976-1.742.37-2.388 2.11-.874 2.07 1.653 2.063-1.653 2.114.874.369 2.388-1.975 1.742 3.076 2.987h2.064l9.597-8.036c-.815-.676-1.612-1.346-2.432-2.022-.207.189-1.745 1.606-1.745 1.606l-2.341-.319-.965-1.7 1.653-1.654-1.653-1.653.965-1.7 2.341-.319s1.538 1.417 1.745 1.606l2.571-2.158v-.779l-2.571-2.161c-.207.189-1.745 1.609-1.745 1.609l-2.341-.278-.965-1.741 1.653-1.654-1.653-1.656.965-1.698 2.341-.274 1.745 1.559c.862-.709 1.712-1.402 2.571-2.111v-.827l-2.571-2.113c-.207.189-1.745 1.561-1.745 1.561l-2.341-.274-.965-1.701 1.653-1.65-1.653-1.653.965-1.7 2.341-.322s1.538 1.42 1.745 1.608c.823-.678 1.656-1.343 2.479-2.022l-9.644-8.08h-2.064l-3.079 2.982 1.975 1.748-.366 2.385-2.114.921-2.066-1.653-2.067 1.653-2.11-.921-.37-2.385 1.976-1.748-2.938-2.846-2.985 2.846 1.976 1.748-.37 2.385-2.066.921-2.111-1.653-2.066 1.653-2.114-.921-.369-2.385 2.022-1.748-2.985-2.846-2.984 2.846 2.019 1.748-.413 2.385-2.067.921-2.066-1.653-2.111 1.653-2.066-.921-.367-2.385 1.973-1.748-3.124-2.982h-2.063zm-9.737 20.435v1.881l1.101-.963-1.101-.918z"/><path fill="#fff" d="M67.026 288.974l-1.606 1.514h3.167l-1.561-1.514zm11.023 0l-1.562 1.514h3.168l-1.606-1.514zm11.065 0l-1.606 1.514h3.215l-1.609-1.514zm-23.741-41.189l1.653 1.559 1.609-1.559h-3.262zm11.067 0l1.609 1.559 1.653-1.559H76.44zm11.068 0l1.606 1.559 1.609-1.559h-3.215zm19.056 11.248l-1.101.921 1.101.871V259.033zm0 9.184l-1.101.921 1.101.918v-1.839zm0 9.231l-1.101.918 1.101.919v-1.837zm-57.033-18.459v1.883l1.101-.921-1.101-.962zm0 9.228v1.884l1.101-.966-1.101-.918zm0 9.187v1.881l1.101-.919-1.101-.965v.003z"/><path fill="#383739" d="M87.514 266.074v-3.286h-3.327v-3.605H71.935v3.605h-3.327v3.286h-4.593v6.155h4.593v3.286h3.327v3.604h12.252v-3.604h3.327v-3.286h4.593v-6.155z"/><path fill="#FFC72C" d="M77.875 259.555v3.714l-5.267 2.994v2.701l-8.221.003v-2.521h4.593v-3.286h3.327v-3.605h5.568zm.372 19.192v-3.713l5.267-2.994v-2.701l8.221-.003v2.521h-4.593v3.286h-3.327v3.604h-5.568z"/><path fill="#fff" d="M83.514 268.967v-2.704l-5.267-2.994v-3.714h5.568v3.605h3.327v3.286h4.593v2.518l-8.221.003zm-19.127.369h8.221v2.704l5.267 2.994v3.713h-5.568v-3.604H68.98v-3.286h-4.593v-2.521z"/><path fill="#CA3745" d="M72.98 269.336v2.506l4.895 2.781v-5.287z"/><path fill="#00843D" d="M77.875 263.68l-4.895 2.781v2.503l4.895.003z"/><path fill="#D22630" d="M83.142 268.967v-2.506l-4.895-2.781v5.287z"/><path fill="#00843D" d="M78.247 274.623l4.895-2.781v-2.506h-4.895z"/><path fill="#383739" d="M100.32 406.301l5.583-5.81H94.909a215.259 215.259 0 005.411 5.81zm-6.35-6.867h28.609v-10.158h9.68v-9.214h9.814v-26.236h-9.814v-9.213h-9.68v-10.159H87.384l-6.191-3.719 2.973-1.786h12.553l1.083 1.222H86.427l3.203 3.227h16.273l-7.372-7.676h-15.26l-5.21 3.132-5.214-3.132H57.591l-4.762 4.96c.333.909.688 1.812 1.033 2.716h12.629l3.204-3.227H58.32l1.083-1.222h12.55l2.976 1.789-6.191 3.716H54.264c9.361 24.043 22.891 45.998 39.706 64.98z"/><path fill="#FFC72C" d="M93.625 399.044h28.597v-10.149h9.645v-9.228h9.828V354.18h-9.828v-9.183h-9.645v-10.15H87.278l-14.51-8.771H57.753l-4.783 4.981.745 1.954h12.623l2.48-2.48H57.476l1.744-1.975h12.86l16.437 9.919h30.032v10.15h9.69v9.228h9.827v18.185h-9.827v9.232h-9.69v10.146H90.498a211.71 211.71 0 003.127 3.628zm6.456 7.012l-1.993-2.105.535-.591h-1.087c-.764-.82-1.526-1.644-2.279-2.476h9.792l-4.968 5.172zm-44.2-67.581a205.066 205.066 0 01-1.467-3.628h14.451l14.51-8.771h15.017l6.657 6.935H89.805l-2.48-2.48h11.298l-1.748-1.975H84.063l-16.485 9.919H55.881z"/><path fill="#D22630" d="M78.049 332.6l-10.38 6.244H56.032l.924 2.206h11.357l9.736-5.878 9.78 5.878h28.197v10.146h9.688v9.184h9.781v13.09h-9.781v9.229h-9.688v10.149H88.361a182.69 182.69 0 001.83 2.205h27.99v-10.15h9.688v-9.228h9.828v-17.45h-9.828v-9.231h-9.688v-10.15H88.426L78.049 332.6z"/><path fill="#00843D" d="M115.639 382.332v10.159H88.072a216.528 216.528 0 01-30.965-51.096h11.292l9.662-5.804 9.662 5.804h27.916v10.158h9.68v9.214h9.81v12.352h-9.81v9.213h-9.68z"/><path fill="#383739" d="M58.972 345.622l-.159-.339h.67l-.511.339zm53.012 33.153v9.831H96.639l15.345-10.179v.348zm0-23.661v-9.831H96.639l15.345 10.176v-.345z"/><path fill="#D22630" d="M111.612 379.12l-13.739 9.114h13.739v-9.114zm0-24.352l-13.739-9.116h13.739v9.116z"/><path fill="#383739" d="M69.588 365.957v-1.709h-1.009z"/><path fill="#FFC72C" d="M69.219 365.334l-.422-.714h.422z"/><path fill="#383739" d="M92.411 364.248v-5.019h1.713l8.215-5.14.098.062 8.118 5.078h1.713v5.019h3.861v5.393h-3.861v5.018h-1.713l-8.216 5.137-8.215-5.137h-1.713v-5.018h-5.88v-5.393z"/><path fill="#D22630" d="M102.339 354.529l-7.516 4.7h15.03l-7.514-4.7zm-7.513 20.13l7.513 4.7 7.514-4.7H94.826zm1.819-10.039v4.649h9.37v-4.649h-9.37z"/><path fill="#FFC72C" d="M92.783 369.641v4.65h9.37v-4.65h-9.37zm9.742 0v4.65h9.371v-4.65h-9.371zm-15.622-5.021v4.649h9.37v-4.649h-9.37zm19.484 0v4.649h9.37v-4.649h-9.37zm-13.604-5.022v4.65h9.37v-4.65h-9.37zm9.742 0v4.65h9.371v-4.65h-9.371z"/><path fill="#383739" d="M108.967 365.653v2.583h4.21v-2.583h-4.21zm-3.861-5.022v2.583h4.206v-2.583h-4.206zm-9.742 0v2.583h4.209v-2.583h-4.209zm3.861 5.022v2.583h4.21v-2.583h-4.21zm-9.742 0v2.583h4.21v-2.583h-4.21zm5.881 5.021v2.583h4.209v-2.583h-4.209zm9.742 0v2.583h4.206v-2.583h-4.206z"/><path fill="#fff" d="M109.366 366.048h3.415v1.792h-3.415v-1.792zm-3.865-5.021h3.416v1.792h-3.416v-1.792zm-9.742 0h3.416v1.792h-3.416v-1.792zm3.861 5.021h3.419v1.792H99.62v-1.792zm-9.742 0h3.416v1.792h-3.416v-1.792zm5.881 5.022h3.416v1.789h-3.416v-1.789zm9.742 0h3.416v1.789h-3.416v-1.789z"/><path fill="#383739" d="M87.989 355.86v5.019l-1.712.003-8.216 5.137-.1-.062-8.116-5.075h-1.712v-5.022h-4.157l-.714-1.352v-4.041h4.871v-5.019h1.712l8.216-5.137 8.216 5.137h1.712v5.019h4.871v5.393z"/><path fill="#FFC72C" d="M78.061 365.579l7.516-4.697H70.545l7.516 4.697zm7.513-20.131l-7.513-4.7-7.513 4.7h15.026z"/><path fill="#D22630" d="M87.617 350.467v-4.647h-9.37v4.647h9.37zm-23.839 5.022l-.144-.275v-4.375h9.37v4.65h-9.226zm14.097-5.022v-4.647h-9.37v4.647h9.37zm14.613 5.022v-4.65h-9.37v4.65h9.37zm-9.742 0v-4.65h-9.37v4.65h9.37zm4.871 5.021v-4.65h-9.37v4.65h9.37zm-9.742 0v-4.65h-9.37v4.65h9.37z"/><path fill="#383739" d="M75.295 346.853v2.583h-4.21v-2.583h4.21zm9.742 0v2.583h-4.21v-2.583h4.21zm-14.613 5.019v2.583h-4.21v-2.583h4.21zm9.742 0v2.583h-4.21v-2.583h4.21zm9.742 0v2.583h-4.21v-2.583h4.21zm-14.613 5.022v2.583h-4.21v-2.583h4.21zm9.742 0v2.583h-4.21v-2.583h4.21z"/><path fill="#fff" d="M74.899 347.249h-3.415v1.789h3.415v-1.789zm9.742 0h-3.416v1.789h3.416v-1.789zm-14.616 5.022H66.61v1.789h3.415v-1.789zm9.745 0h-3.416v1.789h3.416v-1.789zm9.742 0h-3.418v1.789h3.418v-1.789zm-14.613 5.018h-3.415v1.792h3.415v-1.792zm9.742 0h-3.416v1.792h3.416v-1.792z"/><path fill="#383739" d="M87.989 383.422v5.018h-1.712l-.96.599a217.426 217.426 0 01-12.546-17.86l5.29-3.309 8.216 5.139h1.712v5.019h4.871v5.394h-4.871z"/><path fill="#FFC72C" d="M85.09 388.744l.487-.304h-.72l.233.304zm-11.162-15.735l-.96-1.514 5.093-3.186 7.513 4.7H73.928z"/><path fill="#D22630" d="M87.617 378.028v-4.649h-9.37v4.649h9.37zm-3.047 10.04a216.455 216.455 0 01-3.486-4.649h6.533v4.649H84.57zm-3.755-5.018a215.33 215.33 0 01-3.289-4.65h5.22v4.65h-1.931zm-3.545-5.022a218.18 218.18 0 01-3.1-4.649h3.705v4.649h-.605zm15.218 5.022v-4.65h-9.37v4.65h9.37z"/><path fill="#383739" d="M75.295 374.412v.673l-.443-.673h.443zm8.487 12.626a207.71 207.71 0 01-1.945-2.586h3.2v2.586h-1.255zm-3.722-5.022a181.948 181.948 0 01-1.816-2.583h1.922v2.583h-.106zm4.977-7.604v2.583h-4.21v-2.583h4.21zm4.871 5.021v2.583h-4.21v-2.583h4.21z"/><path fill="#fff" d="M83.475 386.639l-1.346-1.788h2.512v1.788h-1.166zm-3.705-5.021l-1.254-1.789h1.254v1.789zm4.871-6.811h-3.416v1.792h3.416v-1.792zm4.871 5.022h-3.418v1.789h3.418v-1.789z"/></g></svg>