<svg xmlns="http://www.w3.org/2000/svg" shape-rendering="geometricPrecision" text-rendering="geometricPrecision" image-rendering="optimizeQuality" fill-rule="evenodd" clip-rule="evenodd" viewBox="0 0 512 512"><g fill-rule="nonzero"><path fill="#4D4D4D" d="M256 0c70.684 0 134.689 28.664 181.013 74.987C483.336 121.311 512 185.316 512 256c0 70.684-28.664 134.69-74.987 181.013C390.689 483.337 326.684 512 256 512c-70.677 0-134.69-28.663-181.013-74.987C28.663 390.69 0 326.676 0 256c0-70.684 28.663-134.689 74.987-181.013C121.31 28.664 185.316 0 256 0z"/><path fill="#fff" d="M256 19.596c65.278 0 124.383 26.466 167.162 69.243 42.777 42.779 69.243 101.884 69.243 167.162s-26.466 124.383-69.245 167.16C380.383 465.94 321.278 492.406 256 492.406c-65.278 0-124.383-26.466-167.162-69.242-42.777-42.78-69.243-101.885-69.243-167.163S46.061 131.618 88.838 88.839C131.617 46.062 190.722 19.596 256 19.596z"/><path fill="#C60C30" d="M256 39.594c109.522 0 200.029 81.361 214.402 186.942H245.836v-186.7c3.368-.159 6.754-.242 10.164-.242zm213.88 249.563C453.927 392.928 364.246 472.408 256 472.408c-3.41 0-6.796-.085-10.164-.242V289.157H469.88zm-286.668 170.69c-73.662-26.301-128.9-91.401-141.092-170.69h141.092v170.69zM41.598 226.536c11.023-80.96 66.816-147.667 141.614-174.38v174.38H41.598z"/><path fill="#fff" d="M41.598 226.536h141.614V52.156c19.714-7.038 40.746-11.301 62.624-12.317v186.697h224.566a218.057 218.057 0 01-.522 62.621H245.836v183.006c-21.881-1.012-42.913-5.275-62.624-12.316v-170.69H42.12a218.086 218.086 0 01-.522-62.621z"/></g></svg>