<svg xmlns="http://www.w3.org/2000/svg" shape-rendering="geometricPrecision" text-rendering="geometricPrecision" image-rendering="optimizeQuality" fill-rule="evenodd" clip-rule="evenodd" viewBox="0 0 512 512"><path fill="#4D4D4D" fill-rule="nonzero" d="M256 0c70.684 0 134.689 28.664 181.013 74.987C483.336 121.311 512 185.316 512 256c0 70.684-28.664 134.69-74.987 181.013C390.689 483.337 326.684 512 256 512c-70.677 0-134.69-28.663-181.013-74.987C28.663 390.69-.001 326.676-.001 256c0-70.684 28.664-134.689 74.988-181.013C121.31 28.664 185.316 0 256 0z"/><path fill="#fff" fill-rule="nonzero" d="M256.001 19.596c65.278 0 124.383 26.466 167.162 69.243 42.777 42.779 69.243 101.884 69.243 167.162s-26.466 124.383-69.246 167.16c-42.776 42.779-101.881 69.245-167.159 69.245-65.278 0-124.383-26.466-167.162-69.242-42.777-42.78-69.243-101.885-69.243-167.163S46.062 131.618 88.839 88.839c42.779-42.777 101.884-69.243 167.162-69.243z"/><path fill="#74ACDF" fill-rule="nonzero" d="M256.001 39.594c119.518 0 216.407 96.887 216.407 216.407 0 119.518-96.889 216.407-216.407 216.407-119.521 0-216.407-96.889-216.407-216.407 0-119.52 96.886-216.407 216.407-216.407z"/><path fill="#fff" fill-rule="nonzero" d="M55.473 337.475h401.056c10.229-25.15 15.879-52.652 15.879-81.474 0-36.671-9.134-71.205-25.232-101.471H64.823c-16.095 30.266-25.229 64.8-25.229 101.471 0 28.822 5.653 56.324 15.879 81.474z"/><path fill="#F6B40E" fill-rule="nonzero" d="M252.544 247.434l31.232 68.046s.538 1.3 1.405.942c.868-.358.328-1.659.328-1.659l-26.03-70.201-6.935 2.872zm6.188 23.603c-.38 10.348 5.985 16.04 5.153 25.281-.831 9.242 4.245 14.467 5.422 18.061 1.178 3.594-1.274 5.743-.218 6.254 1.057.511 3.37-2.328 2.616-7.437-.754-5.11-4.632-6.626-3.721-17.914.911-11.287-4.616-13.916-3.271-24.212l-5.981-.033zm0 0z"/><path fill="#85340A" fill-rule="nonzero" d="M253.096 247.18l10.997 23.957.017-.145 1.205.16a24.073 24.073 0 00-.189 2.238l19.189 41.811c.18.245.528.694.632.661.348-.145.133-.667.133-.667-.57-.588-23.709-63.769-26.174-70.421l1.145-.425 26.032 70.202-.056.021c.177.564.481 1.957-.614 2.412-1.877.77-2.069-1.075-2.069-1.075-.945-.983-16.104-35-18.091-39.325.274 2.252.894 4.15 1.529 6.09 1.113 3.395 2.273 6.932 1.81 12.656-.588 7.303.862 10.421 2.125 13.128.688 1.473 1.326 2.84 1.592 4.65.395 2.695-.027 4.812-.685 6.184-.272.564-.594 1.022-.921 1.347-.375.369-.777.59-1.149.646-.254.038-.507 0-.726-.103-.927-.443-.688-1.148-.325-2.223.34-.995.847-2.489.225-4.387-.302-.915-.892-1.987-1.565-3.209-1.91-3.46-4.505-8.163-3.882-15.097.401-4.49-.965-8.175-2.382-11.989-1.459-3.921-2.967-7.985-2.776-13.261l1.217.041c-.183 5.04 1.284 8.99 2.698 12.795 1.467 3.944 2.881 7.755 2.453 12.52-.59 6.563 1.905 11.079 3.741 14.406.702 1.276 1.319 2.395 1.653 3.41.75 2.288.159 4.012-.23 5.16-.154.452-.343.712-.302.735.142-.02.313-.127.493-.306.228-.225.467-.57.679-1.013.573-1.19.936-3.061.579-5.479-.242-1.65-.841-2.935-1.485-4.313-1.331-2.852-2.858-6.132-2.243-13.737.442-5.488-.677-8.906-1.751-12.183-.93-2.828-1.824-5.571-1.724-9.42l-11.909-25.944 1.104-.508z"/><path fill="#F6B40E" fill-rule="nonzero" d="M252.258 245.998l2.815 74.817s-.002 1.407.937 1.408c.939.001.938-1.407.938-1.407l2.816-74.818h-7.506zm-3.316 24.174c-4.311 9.415-.608 17.109-4.914 25.328-4.304 8.221-1.614 14.99-1.902 18.761-.287 3.771-3.374 4.818-2.594 5.695.781.877 4.004-.861 5.263-5.87 1.258-5.009-1.744-7.895 3.417-17.973 5.162-10.08 1.06-14.624 6.244-23.621l-5.514-2.32zm0 0z"/><path fill="#85340A" fill-rule="nonzero" d="M252.866 245.976l.992 26.345.073-.13 1.052.602a25.25 25.25 0 00-1.034 1.996l1.733 46.006c.003.021.006.821.328.821.328-.003.328-.8.328-.8l2.819-74.84 1.216.041-2.816 74.799c.003.003.003 2.019-1.547 2.019-1.547-.006-1.547-2.016-1.547-2.019l-1.618-43.019c-.608 2.181-.762 4.174-.915 6.209-.269 3.557-.555 7.262-3.176 12.384-3.337 6.512-3.186 9.948-3.056 12.942.068 1.615.133 3.117-.313 4.9-.664 2.646-1.872 4.446-3.008 5.462-.467.413-.939.711-1.355.883-.487.2-.945.251-1.311.159a1.25 1.25 0 01-.638-.378c-.676-.764-.186-1.323.558-2.176.694-.788 1.736-1.974 1.887-3.964.071-.966-.065-2.176-.219-3.566-.44-3.927-1.039-9.264 2.191-15.431 2.09-3.995 2.238-7.921 2.388-11.989.15-4.177.313-8.511 2.512-13.314l1.104.507c-2.095 4.579-2.252 8.792-2.4 12.848-.153 4.204-.307 8.263-2.53 12.508-3.052 5.831-2.479 10.962-2.054 14.735.162 1.455.304 2.725.224 3.79-.183 2.397-1.388 3.767-2.188 4.679-.318.366-.59.538-.561.57.139.03.334-.003.57-.1.304-.124.659-.352 1.013-.668.989-.882 2.04-2.476 2.636-4.85.401-1.609.343-3.029.278-4.552-.139-3.138-.296-6.746 3.191-13.55 2.506-4.895 2.781-8.479 3.041-11.918.224-2.97.446-5.845 2.01-9.361l-1.075-28.539 1.217-.041z"/><path fill="#F6B40E" fill-rule="nonzero" d="M252.543 244.561l-26.031 70.199s-.539 1.3.327 1.66c.867.36 1.405-.941 1.405-.941l31.233-68.046-6.934-2.872zm-12.314 21.065c-7.586 7.049-7.11 15.574-14.233 21.52-7.122 5.947-7.228 13.231-8.936 16.604-1.709 3.375-4.962 3.161-4.577 4.269.386 1.11 4.029.737 7.109-3.409s1.41-7.961 10.036-15.298c8.625-7.336 6.575-13.104 14.807-19.432l-4.206-4.254zm0 0z"/><path fill="#85340A" fill-rule="nonzero" d="M253.117 244.774l-9.164 24.707.109-.083.745.963a24.05 24.05 0 00-1.713 1.443c-1.535 4.142-15.747 42.984-16.151 43.388 0 0-.215.525.13.667.094.039.452-.422.635-.664l31.218-68.015 1.104.508c-3.203 6.979-30.221 67.087-31.354 68.221 0 0-.204 1.845-2.07 1.072-1.098-.455-.788-1.848-.611-2.412l-.056-.021 14.973-40.379c-1.396 1.783-2.296 3.56-3.217 5.379-1.609 3.179-3.292 6.503-7.676 10.229-5.574 4.738-6.752 7.971-7.773 10.784-.555 1.521-1.066 2.931-2.167 4.413-1.626 2.191-3.424 3.386-4.865 3.888-.599.207-1.145.305-1.594.305-.52 0-.959-.133-1.266-.358a1.24 1.24 0 01-.443-.59c-.331-.966.33-1.299 1.343-1.798.944-.464 2.359-1.166 3.262-2.946.437-.862.776-2.031 1.16-3.369 1.095-3.799 2.589-8.965 7.93-13.426 3.463-2.89 5.101-6.462 6.792-10.161 1.742-3.8 3.549-7.744 7.419-11.34l.827.892c-3.693 3.431-5.45 7.265-7.141 10.956-1.751 3.825-3.446 7.522-7.118 10.586-5.054 4.221-6.489 9.178-7.54 12.824-.404 1.405-.762 2.636-1.243 3.587-1.086 2.143-2.721 2.952-3.811 3.489-.425.207-.738.257-.735.304.115.083.304.127.564.127.333 0 .744-.073 1.193-.227 1.248-.434 2.828-1.5 4.292-3.469.986-1.331 1.473-2.665 1.996-4.1 1.071-2.952 2.308-6.347 8.133-11.298 4.189-3.561 5.818-6.772 7.374-9.852 1.346-2.657 2.651-5.233 5.438-7.882l9.925-26.767 1.146.425z"/><path fill="#F6B40E" fill-rule="nonzero" d="M253.357 243.342l-50.914 54.895s-.996.994-.333 1.658c.664.665 1.659-.331 1.659-.331l54.895-50.914-5.307-5.308zm-19.438 14.75c-9.706 3.609-12.529 11.667-21.385 14.435-8.856 2.769-11.741 9.458-14.611 11.92-2.869 2.464-5.793 1.022-5.861 2.193-.068 1.173 3.44 2.223 7.872-.429 4.432-2.652 4.349-6.816 15.127-10.293 10.776-3.477 11.089-9.59 21.117-12.287l-2.259-5.539zm0 0z"/><path fill="#85340A" fill-rule="nonzero" d="M253.801 243.756l-17.922 19.325.142-.039.313 1.175c-.768.207-1.479.434-2.141.679l-31.304 33.755c-.015.018-.576.585-.349.815.231.23.798-.334.798-.334l54.912-50.927.827.891-54.877 50.898c-.003.003-1.429 1.426-2.522.334-1.086-1.092.331-2.518.334-2.521l29.282-31.571c-1.981 1.113-3.498 2.415-5.048 3.747-2.707 2.323-5.532 4.75-11 6.515-6.964 2.247-9.293 4.786-11.312 6.988-1.095 1.195-2.114 2.305-3.687 3.247-2.338 1.399-4.467 1.819-5.987 1.733a4.914 4.914 0 01-1.586-.337c-.484-.2-.841-.489-1.036-.811a1.3 1.3 0 01-.183-.709c.059-1.024.797-1.083 1.934-1.151 1.048-.068 2.624-.174 4.139-1.47.726-.623 1.488-1.577 2.358-2.669 2.468-3.094 5.822-7.298 12.468-9.373 4.307-1.346 7.182-4.018 10.161-6.787 3.061-2.843 6.241-5.795 11.191-7.637l.425 1.139c-4.726 1.757-7.817 4.629-10.79 7.39-3.082 2.866-6.057 5.632-10.628 7.058-6.291 1.966-9.511 5.999-11.876 8.966-.909 1.142-1.703 2.134-2.518 2.834-1.83 1.567-3.643 1.688-4.854 1.765-.469.03-.773-.038-.794-.003.074.124.234.239.47.337.298.124.702.215 1.184.242 1.322.077 3.194-.304 5.296-1.562 1.429-.856 2.385-1.898 3.415-3.023 2.12-2.314 4.568-4.98 11.839-7.324 5.237-1.692 7.968-4.033 10.58-6.279 2.261-1.943 4.452-3.82 8.045-5.202l19.41-20.931.891.827z"/><path fill="#85340A" fill-rule="nonzero" d="M260.743 272.79c.498 9.938 6.132 14.339 5.026 23.395 2.429-7.162-3.428-12.714-3.095-23.292l-1.931-.103zm-6.465-25.974l21.39 46.735-17.924-48.173-3.466 1.438zm0 0z"/><path fill="#85340A" fill-rule="nonzero" d="M250.13 272.561c-3.344 9.372.178 15.594-4.31 23.538 4.985-5.688 1.698-13.058 6.054-22.704l-1.744-.834zm3.966-26.471l1.878 51.362 1.875-51.364-3.753.002zm0 0z"/><path fill="#85340A" fill-rule="nonzero" d="M240.412 268.288c-6.675 7.379-5.803 14.474-12.989 20.096 6.782-3.347 6.565-11.414 14.281-18.658l-1.292-1.438zm13.794-22.938l-17.921 48.171 21.389-46.736-3.468-1.435zm0 0z"/><path fill="#85340A" fill-rule="nonzero" d="M233.069 260.621c-8.991 4.262-10.901 11.152-19.691 13.596 7.546-.496 10.434-8.033 20.334-11.773l-.643-1.823zm21.522-15.913L219.6 282.354l37.646-34.993-2.655-2.653zm0 0z"/><path fill="#F6B40E" fill-rule="nonzero" d="M254.574 242.528L186.53 273.76s-1.301.538-.943 1.406c.359.867 1.659.328 1.659.328l70.201-26.031-2.873-6.935zm-23.602 6.188c-10.348-.38-16.04 5.986-25.281 5.153-9.242-.831-14.466 4.245-18.06 5.422-3.595 1.178-5.744-1.273-6.255-.217-.512 1.057 2.328 3.369 7.437 2.615 5.11-.753 6.626-4.632 17.914-3.72 11.287.911 13.916-4.617 24.212-3.271l.033-5.982zm0 0z"/><path fill="#85340A" fill-rule="nonzero" d="M254.829 243.08l-23.957 10.997.145.017-.16 1.205a23.682 23.682 0 00-2.234-.189l-41.814 19.192c-.245.18-.694.528-.662.632.142.345.668.129.668.129.587-.569 63.769-23.708 70.42-26.173l.425 1.145-70.202 26.032-.021-.056c-.563.174-1.957.481-2.412-.611-.77-1.878 1.075-2.07 1.075-2.07.983-.944 35.001-16.104 39.325-18.09-2.252.271-4.15.894-6.09 1.529-3.389 1.11-6.928 2.27-12.656 1.807-7.294-.588-10.415.868-13.128 2.128-1.473.685-2.84 1.322-4.649 1.588-2.702.396-4.824-.026-6.197-.687-.558-.272-1.015-.597-1.334-.916-.366-.366-.591-.77-.647-1.148-.038-.254 0-.508.103-.726.443-.927 1.149-.691 2.226-.325.992.336 2.486.844 4.387.221.912-.295 1.984-.891 3.209-1.567 3.46-1.907 8.166-4.502 15.095-3.879 4.49.401 8.174-.966 11.988-2.383 3.921-1.458 7.986-2.967 13.261-2.775l-.041 1.216c-5.039-.182-8.989 1.285-12.795 2.699-3.944 1.467-7.755 2.881-12.52 2.453-6.553-.59-11.076 1.904-14.403 3.738-1.279.705-2.389 1.322-3.416 1.656-2.285.75-4.006.162-5.154-.228-.455-.153-.715-.339-.738-.301.018.142.127.307.307.487.23.231.572.47 1.003.679 1.193.576 3.065.936 5.488.582 1.651-.242 2.935-.842 4.314-1.485 2.848-1.328 6.125-2.858 13.736-2.244 5.494.443 8.909-.676 12.183-1.748 2.831-.929 5.577-1.827 9.421-1.726l25.943-11.909.508 1.104z"/><path fill="#F6B40E" fill-rule="nonzero" d="M256.011 242.242l-74.817 2.815s-1.407-.001-1.408.937c-.001.939 1.407.939 1.407.939l74.818 2.815v-7.506zm-24.174-3.315c-9.415-4.312-17.109-.609-25.328-4.914-8.221-4.305-14.99-1.615-18.76-1.902-3.772-.288-4.819-3.374-5.696-2.595-.877.781.861 4.004 5.87 5.263 5.009 1.259 7.895-1.744 17.974 3.418 10.079 5.161 14.623 1.06 23.62 6.243l2.32-5.513zm0 0z"/><path fill="#85340A" fill-rule="nonzero" d="M256.031 242.85l-26.343.991.13.074-.602 1.051a25.566 25.566 0 00-1.996-1.033l-46.006 1.733c-.02.003-.82.006-.82.328.003.327.8.327.8.327l74.837 2.82-.042 1.216-74.795-2.817c-.003.003-2.02.003-2.02-1.546.006-1.547 2.017-1.547 2.02-1.547l43.018-1.618c-2.184-.608-4.174-.762-6.208-.915-3.558-.269-7.262-.556-12.384-3.177-6.507-3.333-9.946-3.182-12.94-3.055-1.618.068-3.12.135-4.903-.313-2.651-.667-4.455-1.878-5.468-3.018-.413-.466-.708-.935-.879-1.351-.198-.485-.248-.939-.157-1.305.065-.254.192-.473.378-.635.771-.682 1.325-.189 2.176.558.791.694 1.972 1.733 3.965 1.883.962.071 2.172-.065 3.563-.218 3.926-.437 9.267-1.036 15.434 2.193 3.991 2.09 7.917 2.235 11.985 2.386 4.178.15 8.511.313 13.317 2.512l-.507 1.104c-4.582-2.096-8.795-2.252-12.851-2.4-4.204-.153-8.263-.304-12.505-2.527-5.831-3.053-10.962-2.48-14.737-2.058-1.453.163-2.722.304-3.788.225-2.394-.183-3.767-1.385-4.679-2.185-.363-.319-.532-.596-.567-.564-.032.139 0 .334.097.573.122.295.343.643.662 1.001.883.989 2.474 2.046 4.856 2.645 1.612.404 3.032.342 4.555.277 3.141-.135 6.749-.289 13.547 3.192 4.895 2.506 8.479 2.78 11.918 3.04 2.97.225 5.845.446 9.362 2.011l28.535-1.075.042 1.217z"/><path fill="#F6B40E" fill-rule="nonzero" d="M257.448 242.527l-70.199-26.03s-1.3-.54-1.66.327c-.36.867.941 1.405.941 1.405l68.046 31.232 2.872-6.934zm-21.065-12.314c-7.048-7.586-15.573-7.109-21.52-14.233-5.948-7.122-13.231-7.228-16.604-8.936-3.375-1.709-3.161-4.961-4.269-4.576-1.11.385-.737 4.028 3.409 7.108s7.961 1.41 15.297 10.036c7.337 8.625 13.105 6.575 19.434 14.807l4.253-4.206zm0 0z"/><path fill="#85340A" fill-rule="nonzero" d="M257.235 243.1l-24.707-9.163.083.109-.963.744a24.25 24.25 0 00-1.443-1.712c-4.142-1.535-42.983-15.747-43.388-16.151 0 0-.525-.216-.667.129-.038.095.422.452.665.635l68.014 31.219-.508 1.104c-6.979-3.203-67.087-30.221-68.221-31.354 0 0-1.845-.204-1.072-2.07.455-1.092 1.849-.788 2.412-.611l.021-.056 40.379 14.973c-1.783-1.396-3.56-2.296-5.378-3.218-3.186-1.611-6.504-3.294-10.23-7.672-4.738-5.571-7.973-6.752-10.784-7.776-1.523-.552-2.934-1.069-4.413-2.167-2.191-1.627-3.386-3.424-3.888-4.865-.207-.6-.304-1.146-.304-1.594 0-.52.133-.96.357-1.267.154-.209.357-.363.59-.442.966-.331 1.299.33 1.798 1.345.464.942 1.163 2.359 2.947 3.26.862.437 2.031.776 3.368 1.16 3.796 1.095 8.966 2.589 13.426 7.932 2.887 3.46 6.462 5.099 10.158 6.79 3.8 1.739 7.747 3.549 11.343 7.419l-.892.827c-3.43-3.694-7.265-5.453-10.958-7.142-3.823-1.75-7.519-3.442-10.584-7.114-4.224-5.06-9.181-6.492-12.824-7.543-1.405-.405-2.636-.762-3.587-1.243-2.143-1.083-2.952-2.719-3.489-3.808-.207-.428-.26-.738-.304-.738-.083.115-.127.304-.127.564 0 .333.074.743.227 1.192.434 1.249 1.5 2.828 3.469 4.293 1.331.986 2.666 1.476 4.101 1.995 2.952 1.075 6.347 2.312 11.297 8.137 3.561 4.185 6.77 5.815 9.852 7.371 2.657 1.343 5.234 2.651 7.882 5.438l26.767 9.925-.425 1.145z"/><path fill="#F6B40E" fill-rule="nonzero" d="M258.666 243.341l-54.894-50.913s-.994-.996-1.659-.333c-.664.663.333 1.658.333 1.658l50.913 54.895 5.307-5.307zm-14.749-19.438c-3.608-9.706-11.667-12.529-14.435-21.384-2.769-8.857-9.457-11.742-11.92-14.611-2.464-2.87-1.021-5.794-2.193-5.862-1.173-.068-2.222 3.44.429 7.873 2.652 4.432 6.816 4.348 10.293 15.126 3.478 10.776 9.591 11.09 12.287 21.117l5.539-2.259zm0 0z"/><path fill="#85340A" fill-rule="nonzero" d="M258.253 243.785l-19.324-17.922.038.142-1.175.312a24.709 24.709 0 00-.679-2.14l-33.755-31.305c-.017-.014-.584-.575-.815-.348-.23.23.334.797.334.797l50.927 54.913-.891.827-50.898-54.877c-.003-.003-1.429-1.426-.334-2.522 1.096-1.086 2.519.331 2.522.334l31.57 29.279c-1.116-1.978-2.415-3.492-3.747-5.042-2.326-2.71-4.749-5.535-6.515-11.003-2.241-6.958-4.782-9.284-6.988-11.31-1.192-1.095-2.305-2.113-3.247-3.689-1.399-2.342-1.818-4.467-1.733-5.991.036-.62.16-1.163.334-1.582.2-.484.49-.841.812-1.036.218-.13.463-.192.708-.183 1.031.059 1.08.8 1.155 1.934.067 1.051.171 2.627 1.469 4.139.618.72 1.577 1.485 2.672 2.361 3.094 2.468 7.295 5.822 9.37 12.464 1.347 4.307 4.018 7.183 6.787 10.161 2.843 3.062 5.795 6.241 7.638 11.192l-1.14.425c-1.757-4.726-4.629-7.817-7.389-10.79-2.867-3.082-5.633-6.058-7.059-10.628-1.966-6.288-5.998-9.509-8.965-11.873-1.134-.906-2.129-1.698-2.835-2.521-1.567-1.828-1.688-3.64-1.765-4.854-.03-.466.035-.773 0-.794-.124.074-.239.233-.336.47-.124.295-.213.702-.24 1.183-.076 1.326.305 3.194 1.562 5.297.853 1.428 1.901 2.388 3.026 3.418 2.314 2.123 4.978 4.561 7.321 11.835 1.692 5.237 4.033 7.965 6.28 10.584 1.942 2.261 3.823 4.452 5.204 8.042l20.928 19.41-.827.891z"/><path fill="#85340A" fill-rule="nonzero" d="M229.219 250.728c-9.938.497-14.339 6.132-23.395 5.025 7.162 2.43 12.714-3.428 23.292-3.095l.103-1.93zm25.974-6.465l-46.735 21.389 48.172-17.923-1.437-3.466zm0 0z"/><path fill="#85340A" fill-rule="nonzero" d="M229.448 240.114c-9.372-3.343-15.594.178-23.538-4.31 5.688 4.986 13.058 1.699 22.704 6.054l.834-1.744zm26.471 3.966l-51.363 1.878 51.365 1.875-.002-3.753zm0 0z"/><path fill="#85340A" fill-rule="nonzero" d="M233.722 230.396c-7.38-6.675-14.475-5.802-20.097-12.989 3.346 6.782 11.414 6.566 18.658 14.281l1.439-1.292zm22.937 13.794l-48.171-17.921 46.736 21.389 1.435-3.468zm0 0z"/><path fill="#85340A" fill-rule="nonzero" d="M241.388 223.053c-4.262-8.991-11.152-10.9-13.596-19.691.496 7.547 8.033 10.434 11.773 20.334l1.823-.643zm15.913 21.522l-37.646-34.991 34.993 37.646 2.653-2.655zm0 0z"/><path fill="#F6B40E" fill-rule="nonzero" d="M259.481 244.559l-31.233-68.045s-.537-1.3-1.404-.942c-.868.358-.328 1.659-.328 1.659l26.03 70.2 6.935-2.872zm-6.188-23.602c.38-10.349-5.986-16.041-5.153-25.281.831-9.243-4.245-14.467-5.422-18.061-1.178-3.595 1.274-5.744.218-6.255-1.058-.511-3.37 2.328-2.617 7.437.755 5.11 4.633 6.627 3.721 17.914-.91 11.287 4.617 13.916 3.272 24.212l5.981.034zm0 0z"/><path fill="#85340A" fill-rule="nonzero" d="M258.93 244.813l-10.997-23.957-.018.147-1.204-.159c.103-.788.162-1.532.188-2.238l-19.188-41.808c-.184-.242-.541-.703-.635-.664-.345.139-.13.667-.13.667.487.487 23.741 63.861 26.174 70.418l-1.146.425-26.032-70.199.056-.021c-.174-.564-.481-1.957.611-2.412 1.866-.773 2.07 1.072 2.07 1.072.747.747 16.201 35.21 18.091 39.325-.272-2.252-.895-4.148-1.53-6.087-1.11-3.395-2.27-6.932-1.807-12.659.588-7.295-.867-10.415-2.128-13.128-.685-1.473-1.322-2.84-1.588-4.65-.396-2.701.03-4.823.691-6.196.271-.558.596-1.016.915-1.335.366-.366.773-.59 1.145-.646.254-.038.505 0 .727.103.924.443.69 1.149.324 2.226-.336.992-.844 2.486-.221 4.39.295.909.888 1.984 1.564 3.206 1.911 3.46 4.505 8.163 3.882 15.094-.401 4.494.966 8.178 2.383 11.992 1.458 3.917 2.967 7.983 2.775 13.258l-1.216-.041c.183-5.037-1.285-8.989-2.698-12.792-1.468-3.944-2.882-7.755-2.454-12.523.591-6.557-1.904-11.076-3.74-14.404-.703-1.275-1.323-2.391-1.654-3.412-.749-2.285-.162-4.009.228-5.158.153-.454.336-.714.301-.738-.136.018-.301.124-.484.308-.227.227-.469.569-.679 1.003-.573 1.19-.942 3.061-.585 5.488.242 1.65.842 2.935 1.485 4.313 1.329 2.849 2.858 6.126 2.244 13.737-.443 5.494.676 8.909 1.748 12.186.929 2.828 1.827 5.571 1.727 9.418l11.909 25.943-1.104.508z"/><path fill="#F6B40E" fill-rule="nonzero" d="M259.767 245.996l-2.815-74.818s.001-1.407-.938-1.408c-.938 0-.938 1.407-.938 1.407l-2.815 74.819h7.506zm3.315-24.175c4.312-9.415.609-17.109 4.914-25.328 4.305-8.221 1.615-14.99 1.902-18.76.287-3.772 3.374-4.819 2.595-5.696-.781-.877-4.004.861-5.263 5.87-1.258 5.009 1.744 7.895-3.417 17.974-5.162 10.079-1.06 14.623-6.244 23.62l5.513 2.32zm0 0z"/><path fill="#85340A" fill-rule="nonzero" d="M259.16 246.017l-.992-26.345-.074.13-1.051-.602c.395-.691.738-1.355 1.033-1.996l-1.733-46.006c-.002-.021-.005-.821-.328-.821-.327.003-.327.8-.327.8l-2.819 74.84-1.217-.041 2.817-74.799c-.003-.003-.003-2.019 1.546-2.019 1.547.006 1.547 2.016 1.547 2.019l1.618 43.019c.609-2.182.762-4.174.915-6.208.269-3.558.556-7.263 3.177-12.385 3.333-6.506 3.183-9.945 3.056-12.939-.068-1.618-.136-3.12.313-4.903.667-2.652 1.877-4.455 3.017-5.468.466-.413.936-.708 1.352-.88.484-.197.938-.248 1.304-.156.251.065.47.189.635.378.673.761.192 1.322-.558 2.176-.693.791-1.733 1.972-1.883 3.967-.071.96.065 2.173.218 3.56.437 3.927 1.037 9.267-2.193 15.435-2.09 3.994-2.235 7.92-2.386 11.985-.15 4.18-.313 8.511-2.512 13.317l-1.104-.508c2.096-4.581 2.253-8.791 2.4-12.85.154-4.201.304-8.26 2.527-12.505 3.053-5.831 2.48-10.962 2.058-14.738-.163-1.449-.304-2.725-.225-3.784.183-2.397 1.385-3.77 2.185-4.682.319-.364.587-.541.561-.57-.136-.03-.331.003-.57.1-.295.121-.643.343-1 .662-.99.882-2.046 2.473-2.646 4.856-.404 1.611-.342 3.031-.277 4.555.136 3.141.289 6.749-3.192 13.547-2.506 4.895-2.78 8.479-3.04 11.918-.224 2.97-.446 5.845-2.011 9.361l1.075 28.539-1.216.041z"/><path fill="#F6B40E" fill-rule="nonzero" d="M259.482 247.433l26.03-70.2s.54-1.3-.326-1.66c-.867-.359-1.406.942-1.406.942l-31.233 68.045 6.935 2.873zm12.313-21.066c7.587-7.048 7.11-15.573 14.233-21.52 7.123-5.947 7.228-13.231 8.937-16.604 1.709-3.374 4.961-3.161 4.576-4.269-.385-1.11-4.028-.737-7.108 3.409s-1.41 7.961-10.036 15.298c-8.625 7.336-6.575 13.104-14.807 19.433l4.205 4.253zm0 0z"/><path fill="#85340A" fill-rule="nonzero" d="M258.909 247.219l9.163-24.707-.109.083-.744-.963a24.479 24.479 0 001.712-1.443c1.559-4.201 15.694-42.915 16.151-43.388 0 0 .216-.525-.129-.667-.101-.042-.452.413-.632.658l-31.222 68.024-1.104-.508c3.371-7.345 29.879-66.686 31.354-68.224 0 0 .195-1.848 2.07-1.072 1.092.455.785 1.848.611 2.412l.056.021-14.976 40.385c1.399-1.783 2.303-3.563 3.221-5.385 1.609-3.179 3.291-6.497 7.673-10.226 5.57-4.741 6.751-7.977 7.776-10.787.551-1.523 1.068-2.934 2.166-4.414 1.627-2.19 3.425-3.386 4.865-3.887.6-.207 1.146-.305 1.595-.305.519 0 .956.133 1.266.358.209.153.363.357.443.59.33.965-.331 1.299-1.346 1.798-.942.463-2.359 1.163-3.26 2.946-.437.862-.776 2.031-1.16 3.369-1.095 3.799-2.586 8.965-7.932 13.426-3.46 2.89-5.098 6.462-6.79 10.158-1.739 3.8-3.549 7.747-7.419 11.342l-.826-.891c3.693-3.431 5.452-7.265 7.141-10.959 1.751-3.826 3.442-7.516 7.115-10.583 5.06-4.221 6.491-9.178 7.542-12.824.405-1.405.762-2.636 1.243-3.587 1.084-2.143 2.719-2.952 3.808-3.489.429-.207.735-.263.738-.304-.115-.083-.304-.127-.563-.127-.334 0-.744.073-1.193.227-1.249.434-2.828 1.5-4.293 3.469-.986 1.331-1.476 2.665-1.995 4.1-1.075 2.952-2.312 6.347-8.136 11.298-4.184 3.558-5.813 6.772-7.372 9.851-1.343 2.657-2.648 5.231-5.435 7.88l-9.928 26.77-1.145-.425z"/><path fill="#F6B40E" fill-rule="nonzero" d="M258.668 248.651l50.913-54.895s.997-.994.334-1.658c-.664-.664-1.659.332-1.659.332l-54.895 50.913 5.307 5.308zm19.438-14.75c9.706-3.608 12.528-11.667 21.384-14.434 8.857-2.77 11.742-9.458 14.611-11.921 2.87-2.463 5.794-1.021 5.862-2.193.068-1.173-3.44-2.222-7.873.43-4.431 2.651-4.349 6.815-15.126 10.292-10.776 3.478-11.089 9.591-21.117 12.288l2.259 5.538zm0 0z"/><path fill="#85340A" fill-rule="nonzero" d="M258.224 248.237l17.922-19.325-.141.039-.313-1.175a24.6 24.6 0 002.14-.679l31.305-33.755c.015-.018.575-.581.348-.812-.23-.23-.797.331-.797.331l-54.913 50.927-.827-.891 54.878-50.898c.003-.003 1.429-1.423 2.521-.331 1.086 1.095-.331 2.516-.334 2.518l-29.279 31.571c1.978-1.117 3.492-2.415 5.042-3.747 2.71-2.323 5.535-4.747 11.003-6.512 6.958-2.244 9.284-4.785 11.31-6.991 1.095-1.193 2.113-2.305 3.69-3.247 2.338-1.399 4.466-1.819 5.987-1.733a4.93 4.93 0 011.585.336c.484.201.841.49 1.036.812.13.219.192.464.183.709-.059 1.03-.803 1.08-1.933 1.154-1.051.065-2.628.168-4.139 1.467-.726.623-1.488 1.577-2.359 2.669-2.465 3.091-5.825 7.298-12.467 9.373-4.304 1.346-7.183 4.021-10.161 6.787-3.062 2.843-6.241 5.795-11.192 7.637l-.425-1.139c4.726-1.757 7.817-4.629 10.79-7.389 3.085-2.867 6.064-5.633 10.628-7.059 6.288-1.966 9.512-5.999 11.876-8.966.91-1.142 1.704-2.134 2.519-2.834 1.824-1.565 3.64-1.688 4.853-1.762.466-.03.773.035.794 0-.074-.124-.233-.239-.469-.337-.299-.124-.703-.215-1.184-.242-1.323-.077-3.194.304-5.296 1.562-1.429.853-2.389 1.901-3.419 3.026-2.123 2.314-4.561 4.977-11.835 7.324-5.237 1.692-7.968 4.033-10.584 6.276-2.261 1.943-4.452 3.823-8.041 5.205l-19.411 20.928-.891-.827z"/><path fill="#85340A" fill-rule="nonzero" d="M251.281 219.203c-.497-9.938-6.132-14.339-5.025-23.395-2.429 7.162 3.428 12.714 3.095 23.292l1.93.103zm6.466 25.974l-21.39-46.734 17.923 48.172 3.467-1.438zm0 0z"/><path fill="#85340A" fill-rule="nonzero" d="M261.895 219.432c3.343-9.371-.178-15.593 4.31-23.537-4.986 5.687-1.698 13.057-6.054 22.703l1.744.834zm-3.966 26.471l-1.878-51.362-1.875 51.364 3.753-.002zm0 0z"/><path fill="#85340A" fill-rule="nonzero" d="M271.613 223.706c6.675-7.379 5.803-14.475 12.989-20.097-6.782 3.347-6.566 11.414-14.281 18.659l1.292 1.438zm-13.794 22.937l17.921-48.171-21.389 46.736 3.468 1.435zm0 0z"/><path fill="#85340A" fill-rule="nonzero" d="M278.956 231.373c8.991-4.263 10.9-11.153 19.691-13.597-7.547.497-10.434 8.033-20.335 11.774l.644 1.823zm-21.522 15.912l34.991-37.646-37.646 34.994 2.655 2.652zm0 0z"/><path fill="#F6B40E" fill-rule="nonzero" d="M257.45 249.465l68.045-31.232s1.3-.537.943-1.405c-.359-.868-1.66-.328-1.66-.328l-70.2 26.03 2.872 6.935zm23.603-6.188c10.348.38 16.04-5.985 25.281-5.153 9.242.831 14.466-4.244 18.06-5.421 3.595-1.178 5.743 1.273 6.255.217.511-1.058-2.328-3.37-7.438-2.616-5.109.754-6.626 4.632-17.913 3.721-11.287-.911-13.916 4.616-24.212 3.271l-.033 5.981zm0 0z"/><path fill="#85340A" fill-rule="nonzero" d="M257.197 248.913l23.956-10.997-.147-.017.159-1.205c.788.104 1.532.163 2.238.189l41.805-19.189c.242-.18.706-.543.667-.634-.142-.346-.667-.131-.667-.131l-.094.098-70.323 26.076-.426-1.145 70.199-26.032.021.056c.564-.174 1.957-.478 2.412.611.774 1.863-1.072 2.069-1.072 2.069-.566.591-35.375 16.279-39.328 18.091 2.252-.271 4.151-.891 6.093-1.526 3.392-1.113 6.932-2.273 12.656-1.81 7.298.588 10.415-.867 13.128-2.128 1.473-.685 2.84-1.323 4.65-1.588 2.695-.396 4.815.026 6.188.687.56.272 1.018.594 1.34.916.372.372.593.776.649 1.151.039.254 0 .505-.103.726-.443.927-1.151.688-2.223.325-.992-.337-2.489-.847-4.393-.224-.909.295-1.978.888-3.2 1.564-3.46 1.91-8.163 4.505-15.103 3.882-4.493-.401-8.172.966-11.986 2.383-3.92 1.458-7.985 2.966-13.261 2.775l.041-1.217c5.04.184 8.99-1.284 12.795-2.698 3.944-1.467 7.749-2.881 12.517-2.453 6.566.59 11.088-1.904 14.413-3.74 1.272-.703 2.382-1.32 3.406-1.654 2.285-.75 4.012-.159 5.161.231.455.153.711.342.735.301-.021-.139-.127-.307-.31-.49-.228-.228-.573-.47-1.01-.679-1.192-.576-3.061-.936-5.479-.582-1.65.242-2.934.841-4.313 1.485-2.849 1.329-6.126 2.858-13.737 2.244-5.49-.443-8.909.676-12.183 1.75-2.831.93-5.577 1.825-9.423 1.724l-25.941 11.909-.507-1.104z"/><path fill="#F6B40E" fill-rule="nonzero" d="M256.014 249.752l74.817-2.816s1.407.001 1.408-.937c.001-.938-1.407-.938-1.407-.938l-74.818-2.816v7.507zm24.173 3.315c9.416 4.311 17.11.608 25.329 4.913 8.22 4.305 14.99 1.615 18.76 1.903 3.772.287 4.819 3.374 5.695 2.594.878-.781-.86-4.004-5.869-5.263-5.009-1.258-7.895 1.744-17.974-3.417s-14.623-1.06-23.621-6.244l-2.32 5.514zm0 0z"/><path fill="#85340A" fill-rule="nonzero" d="M255.992 249.144l26.345-.993-.13-.073.602-1.051c.691.395 1.355.738 1.996 1.033l46.006-1.733c.021-.003.821-.006.821-.328-.003-.327-.8-.327-.8-.327l-74.84-2.819.041-1.217 74.799 2.816c.003-.003 2.019-.003 2.019 1.547-.006 1.547-2.016 1.547-2.019 1.547l-43.019 1.618c2.182.608 4.175.762 6.209.915 3.557.269 7.262.555 12.384 3.177 6.512 3.336 9.949 3.185 12.942 3.055 1.615-.068 3.118-.133 4.9.313 2.646.664 4.447 1.872 5.462 3.009.413.466.712.935.883 1.354.2.488.251.945.159 1.311a1.246 1.246 0 01-.378.638c-.764.676-1.322.186-2.176-.558-.788-.694-1.974-1.736-3.967-1.886-.96-.071-2.173.065-3.56.218-3.927.437-9.264 1.039-15.434-2.194-3.995-2.09-7.921-2.234-11.986-2.385-4.18-.15-8.511-.313-13.317-2.512l.508-1.104c4.581 2.096 8.791 2.252 12.851 2.4 4.2.153 8.259.304 12.505 2.527 5.83 3.058 10.961 2.48 14.737 2.057 1.449-.162 2.722-.303 3.785-.224 2.4.183 3.769 1.388 4.682 2.188.366.319.537.59.569.561.03-.139-.002-.334-.1-.57-.124-.304-.351-.659-.667-1.013-.883-.989-2.477-2.039-4.851-2.636-1.609-.401-3.029-.342-4.552-.277-3.138.138-6.745.295-13.55-3.192-4.895-2.506-8.479-2.781-11.918-3.04-2.97-.225-5.845-.446-9.361-2.011l-28.539 1.075-.041-1.216z"/><path fill="#F6B40E" fill-rule="nonzero" d="M254.577 249.466l70.199 26.031s1.299.539 1.66-.327c.359-.867-.941-1.405-.941-1.405l-68.046-31.233-2.872 6.934zm21.065 12.314c7.048 7.586 15.573 7.11 21.519 14.233 5.948 7.123 13.232 7.228 16.605 8.937 3.374 1.708 3.161 4.961 4.269 4.576 1.11-.386.737-4.029-3.409-7.109s-7.961-1.409-15.298-10.035c-7.336-8.626-13.104-6.576-19.433-14.808l-4.253 4.206zm0 0z"/><path fill="#85340A" fill-rule="nonzero" d="M254.791 248.893l24.706 9.163-.082-.109.962-.744c.484.629.965 1.195 1.443 1.712 4.139 1.535 42.984 15.747 43.388 16.151 0 0 .525.216.667-.13.039-.094-.419-.451-.664-.634l-68.017-31.219.507-1.104c6.979 3.203 67.094 30.224 68.224 31.354 0 0 1.846.201 1.072 2.07-.455 1.095-1.848.788-2.412.611l-.021.056-40.385-14.976c1.783 1.399 3.563 2.303 5.385 3.221 3.179 1.612 6.494 3.288 10.226 7.675 4.741 5.574 7.974 6.752 10.787 7.773 1.521.552 2.935 1.069 4.411 2.167 2.19 1.627 3.392 3.427 3.891 4.868.206.599.304 1.142.304 1.591 0 .52-.133.957-.357 1.267a1.24 1.24 0 01-.591.443c-.965.33-1.299-.331-1.798-1.344-.463-.944-1.166-2.359-2.946-3.262-.862-.437-2.031-.776-3.369-1.16-3.799-1.095-8.965-2.586-13.426-7.93-2.89-3.459-6.465-5.101-10.161-6.792-3.799-1.742-7.744-3.549-11.339-7.419l.891-.827c3.431 3.693 7.265 5.45 10.956 7.141 3.826 1.751 7.522 3.449 10.586 7.118 4.222 5.057 9.178 6.489 12.824 7.54 1.405.404 2.636.762 3.587 1.243 2.143 1.086 2.952 2.722 3.49 3.811.206.425.259.735.303.735.083-.115.127-.304.127-.564 0-.333-.073-.741-.227-1.189-.431-1.249-1.499-2.832-3.472-4.296-1.328-.986-2.662-1.476-4.097-1.995-2.952-1.072-6.347-2.309-11.298-8.134-3.56-4.189-6.772-5.812-9.851-7.374-2.66-1.343-5.234-2.648-7.88-5.435l-26.77-9.928.426-1.145z"/><path fill="#F6B40E" fill-rule="nonzero" d="M253.358 248.653l54.895 50.913s.994.996 1.658.333c.664-.663-.332-1.659-.332-1.659l-50.913-54.895-5.308 5.308zm14.749 19.437c3.609 9.706 11.668 12.529 14.436 21.385 2.768 8.856 9.457 11.741 11.92 14.61 2.464 2.87 1.021 5.794 2.193 5.862 1.172.068 2.222-3.44-.43-7.872-2.651-4.432-6.815-4.349-10.292-15.126-3.478-10.777-9.591-11.09-12.287-21.117l-5.54 2.258zm0 0z"/><path fill="#85340A" fill-rule="nonzero" d="M253.772 248.208l19.325 17.922-.038-.141 1.174-.313a24.6 24.6 0 00.679 2.14l33.755 31.304c.018.015.582.576.812.349.23-.23-.331-.797-.331-.797l-50.927-54.913.891-.827 50.899 54.878c.002.003 1.422 1.429.33 2.521-1.095 1.086-2.515-.331-2.518-.334l-31.57-29.279c1.116 1.978 2.414 3.492 3.746 5.042 2.323 2.71 4.747 5.535 6.512 11.003 2.247 6.964 4.783 9.29 6.991 11.312 1.195 1.093 2.306 2.114 3.247 3.688 1.4 2.338 1.819 4.466 1.733 5.986a4.93 4.93 0 01-.336 1.586c-.201.484-.49.841-.812 1.036-.218.13-.467.192-.709.183-1.033-.059-1.08-.797-1.154-1.934-.065-1.051-.168-2.624-1.47-4.138-.623-.727-1.577-1.488-2.669-2.359-3.088-2.468-7.295-5.822-9.37-12.467-1.346-4.305-4.021-7.183-6.787-10.162-2.843-3.061-5.795-6.24-7.637-11.191l1.139-.425c1.757 4.726 4.629 7.817 7.39 10.79 2.866 3.085 5.632 6.064 7.058 10.628 1.966 6.293 6.002 9.508 8.963 11.876 1.142.91 2.134 1.704 2.834 2.518 1.571 1.828 1.692 3.64 1.765 4.854.03.469-.041.773 0 .794.124-.074.24-.233.337-.47.124-.298.216-.702.242-1.183.077-1.323-.304-3.195-1.562-5.297-.853-1.426-1.898-2.388-3.023-3.415-2.317-2.123-4.983-4.567-7.327-11.838-1.692-5.237-4.033-7.968-6.276-10.584-1.942-2.261-3.823-4.452-5.205-8.042l-20.928-19.41.827-.891z"/><path fill="#85340A" fill-rule="nonzero" d="M282.806 241.266c9.938-.498 14.338-6.132 23.395-5.026-7.162-2.429-12.714 3.429-23.292 3.095l-.103 1.931zm-25.974 6.465l46.735-21.39-48.173 17.924 1.438 3.466zm0 0z"/><path fill="#85340A" fill-rule="nonzero" d="M282.577 251.879c9.371 3.344 15.593-.178 23.537 4.31-5.687-4.986-13.058-1.698-22.703-6.054l-.834 1.744zm-26.471-3.966l51.362-1.877-51.364-1.876.002 3.753zm0 0z"/><path fill="#85340A" fill-rule="nonzero" d="M278.303 261.597c7.38 6.676 14.475 5.803 20.097 12.99-3.347-6.783-11.415-6.567-18.659-14.281l-1.438 1.291zm-22.937-13.794l48.171 17.921-46.736-21.389-1.435 3.468zm0 0z"/><path fill="#85340A" fill-rule="nonzero" d="M270.637 268.94c4.262 8.991 11.152 10.901 13.595 19.691-.496-7.546-8.032-10.434-11.773-20.334l-1.822.643zm-15.913-21.522l37.646 34.991-34.993-37.646-2.653 2.655zm0 0z"/><circle fill="#F6B40E" fill-rule="nonzero" cx="256.012" cy="245.997" r="30.49"/><path fill="#85340A" fill-rule="nonzero" d="M285.679 245.996a29.587 29.587 0 00-8.688-20.978c-5.365-5.363-12.786-8.688-20.978-8.688a29.588 29.588 0 00-20.978 8.688 29.587 29.587 0 00-8.688 20.978 29.588 29.588 0 008.688 20.979 29.584 29.584 0 0020.978 8.688 29.587 29.587 0 0020.978-8.688 29.588 29.588 0 008.688-20.979zm-7.525-22.141c5.665 5.666 9.172 13.498 9.172 22.141 0 8.645-3.507 16.476-9.172 22.142-5.665 5.665-13.497 9.172-22.141 9.172-8.644 0-16.476-3.507-22.141-9.172-5.666-5.666-9.173-13.497-9.173-22.142 0-8.643 3.507-16.475 9.173-22.141 5.665-5.665 13.497-9.172 22.141-9.172 8.644 0 16.476 3.507 22.141 9.172z"/><path fill="#843511" fill-rule="nonzero" d="M266.407 239.477c-2.081 0-4.076.902-5.248 2.778 2.345 2.11 7.526 2.34 11.045-.24-1.524-1.642-3.716-2.538-5.798-2.538h.001zm-26.541 3.71c3.988 3.049 7.975 2.815 10.32 1.407 2.345-1.407 2.345-1.875 1.876-1.875-.468 0-.936.468-2.813 1.405-1.877.94-4.69.94-9.38-.937h-.003zm7.873-1.416c0-.661-.304-1.251-.78-1.638 1.32.309 2.355.977 2.545 1.642a5.76 5.76 0 01-2.553 1.642c.481-.387.788-.981.788-1.646zm-3.319-1.73a2.112 2.112 0 00.289 3.631 6.626 6.626 0 01-3.643-1.417c.831-1.33 2.073-1.995 3.354-2.214zm.933-.564c-2.082 0-4.075.902-5.248 2.778 2.345 2.11 7.526 2.34 11.044-.24-1.524-1.642-3.715-2.538-5.796-2.538zm.144-1.449c3.048 0 3.752.704 5.16 1.876 1.408 1.173 2.111.938 2.345 1.173.233.235 0 .938-.469.703-.468-.236-1.408-.703-2.813-1.876-1.409-1.174-2.814-1.173-4.222-1.173-4.222 0-6.567 3.518-7.035 3.283-.468-.235 2.345-3.987 7.035-3.987l-.001.001zm-8.441 1.405c5.394-4.69 12.195-5.394 15.949-1.876.919 1.23 1.507 2.546 1.749 3.919.472 2.67-.363 5.556-2.456 8.513.237-.001.707.233.941.468 1.863-3.56 2.521-7.218 1.91-10.697-.16-.908-.41-1.803-.735-2.673-5.159-4.221-12.195-4.69-17.355 2.346h-.003zm23.182 28.143a4.223 4.223 0 00-8.444 0 4.342 4.342 0 014.222-3.335 4.337 4.337 0 014.222 3.335zm-11.085-7.617h-.076c4.106-.877 5.039.51 6.895.51h.035c1.846 0 2.777-1.371 6.824-.525-4.036-.033-2.873 2.621-6.819 2.621l-.034.001c-3.96 0-2.74-2.658-6.826-2.607h.001zm-.116.001c-.24.003-.499.008-.776.033 4.926.47 2.558 3.293 7.717 3.293h.034c5.16 0 2.826-2.824 7.752-3.293a10.932 10.932 0 00-.874-.048c-4.563-1.344-5.491-.437-6.883-.437l-.035.001c-.879 0-1.577-.344-3.121-.275-.909.04-2.106.22-3.814.726zm4.605-3.503c-2.347 0-3.275 2.126-5.385 3.533 1.172-.468 2.095-1.393 3.738-2.332 1.642-.938 3.042.206 3.979.206h.034c.937 0 2.337-1.144 3.979-.206 1.643.939 2.6 1.864 3.773 2.332-2.111-1.407-3.073-3.533-5.419-3.533-.469 0-1.396.254-2.333.72h-.034c-.937-.468-1.864-.72-2.332-.72zm-2.295-6.245c-1.002.183-1.715 1.072-1.715 2.092 0 1.164.964 2.092 2.127 2.092.687 0 1.32-.326 1.715-.892.812.61 1.937.675 2.538.686.092.002.212 0 .274 0 .602-.011 1.727-.076 2.538-.686a2.078 2.078 0 001.715.892c1.164 0 2.127-.928 2.127-2.092 0-1.02-.713-1.91-1.715-2.092.563.198.926.742.926 1.338 0 .776-.627 1.406-1.407 1.406a1.419 1.419 0 01-1.406-1.338c-.229.457-1.135 1.817-2.915 1.887-1.781-.07-2.687-1.43-2.916-1.887a1.419 1.419 0 01-1.407 1.338c-.779 0-1.406-.63-1.406-1.406 0-.596.363-1.14.926-1.338h.001zm21.086-7.025c-3.987 3.049-7.974 2.815-10.319 1.407-2.345-1.407-2.345-1.875-1.877-1.875.468 0 .936.468 2.814 1.405 1.876.94 4.69.94 9.38-.937h.002zm-3.99-1.416c0-.716-.357-1.35-.903-1.731 1.54.245 2.805.992 3.017 1.735a5.73 5.73 0 01-3.104 1.784c.595-.373.99-1.034.99-1.788zm-3.459-1.624a2.112 2.112 0 00.339 3.479 6.627 6.627 0 01-3.204-1.371c.725-1.16 1.763-1.814 2.865-2.108zm10.259-.714c-5.394-4.69-12.195-5.394-15.948-1.876-.92 1.23-1.508 2.546-1.75 3.919-.472 2.67.363 5.556 2.455 8.513-.236-.001-.706.233-.94.468-1.862-3.56-2.521-7.218-1.91-10.697.16-.908.41-1.803.735-2.673 5.16-4.221 12.195-4.69 17.355 2.346h.003zm-8.44-1.405c-3.049 0-3.753.704-5.16 1.876-1.408 1.173-2.111.938-2.345 1.173-.234.235 0 .938.468.703.469-.236 1.409-.703 2.813-1.876 1.409-1.174 2.814-1.173 4.223-1.173 4.221 0 6.566 3.518 7.035 3.283.468-.235-2.346-3.987-7.035-3.987l.001.001z"/></svg>