<svg xmlns="http://www.w3.org/2000/svg" shape-rendering="geometricPrecision" text-rendering="geometricPrecision" image-rendering="optimizeQuality" fill-rule="evenodd" clip-rule="evenodd" viewBox="0 0 512 420.17"><path d="M74.32 0h363.36C478.55 0 512 33.46 512 74.32v271.53c0 40.82-33.5 74.32-74.32 74.32H74.32C33.44 420.17 0 386.69 0 345.85V74.32C0 33.41 33.41 0 74.32 0zm63.62 286.19l-4.87-38.96h20.21c5.04 0 8.25-.69 9.63-2.07 1.37-1.38 2.06-3.13 2.06-5.24v-66.97h-20.21v-38.97h68.92v112.03c0 13.15-3.24 23.14-9.74 29.95-6.49 6.82-15.83 10.23-28.01 10.23h-37.99zm138.21 0h-51.38l39.45-152.21h75.26l39.45 152.21h-51.39l-5.6-24.11h-40.18l-5.61 24.11zm24.36-105.45l-9.98 42.62h22.4l-9.74-42.62h-2.68z"/></svg>