<svg xmlns="http://www.w3.org/2000/svg" shape-rendering="geometricPrecision" text-rendering="geometricPrecision" image-rendering="optimizeQuality" fill-rule="evenodd" clip-rule="evenodd" viewBox="0 0 512 512"><g fill-rule="nonzero"><path fill="#4D4D4D" d="M256 0c70.683 0 134.689 28.664 181.013 74.987C483.336 121.311 512 185.316 512 256c0 70.683-28.664 134.689-74.987 181.013C390.689 483.336 326.683 512 256 512c-70.676 0-134.689-28.664-181.013-74.987C28.664 390.689 0 326.676 0 256c0-70.684 28.664-134.689 74.987-181.013C121.311 28.664 185.316 0 256 0z"/><path fill="#fff" d="M256.001 19.597c65.278 0 124.383 26.465 167.162 69.242 42.777 42.779 69.243 101.885 69.243 167.162 0 65.278-26.466 124.383-69.246 167.159-42.776 42.78-101.881 69.246-167.159 69.246-65.278 0-124.383-26.466-167.162-69.243-42.777-42.779-69.242-101.884-69.242-167.162 0-65.277 26.465-124.383 69.242-167.162 42.779-42.777 101.884-69.242 167.162-69.242z"/><path fill="#fff" d="M256.001 39.6c119.514 0 216.401 96.887 216.401 216.401 0 119.514-96.887 216.401-216.401 216.401-119.514 0-216.401-96.887-216.401-216.401C39.6 136.487 136.487 39.6 256.001 39.6z"/><path fill="#CE1126" d="M472.402 256H39.6c.001-119.514 96.887-216.4 216.401-216.4 119.514 0 216.4 96.886 216.401 216.4z"/></g></svg>