<?xml version="1.0" encoding="UTF-8"?>
<!-- Generated by Pixelmator Pro 3.1.1 -->
<svg width="1750" height="1750" viewBox="0 0 1750 1750" xmlns="http://www.w3.org/2000/svg" xmlns:xlink="http://www.w3.org/1999/xlink">
    <path id="Path" fill="#f06292" stroke="none" d="M 1652.795166 0 L 97.204811 0 C 43.519989 0 0 35.904053 0 80.19397 C 0 80.19397 0 80.19397 0 80.19397 L 0 437.5 L 901.515137 656.25 L 1750 437.5 L 1750 80.19397 C 1750 35.904053 1706.47998 0 1652.795166 0 L 1652.795166 0 Z"/>
    <path id="path1" fill="#ec407a" stroke="none" d="M 1750 437.5 L 0 437.5 L 0 875 L 901.515137 1006.25 L 1750 875 L 1750 437.5 Z"/>
    <path id="path2" fill="#e91e63" stroke="none" d="M 0 875 L 0 1312.5 L 848.484863 1400 L 1750 1312.5 L 1750 875 L 0 875 Z"/>
    <path id="path3" fill="#d81b60" stroke="none" d="M 97.204742 1750 L 1652.795288 1750 C 1706.480103 1750 1750 1714.095947 1750 1669.80603 L 1750 1669.80603 L 1750 1312.5 L 0 1312.5 L 0 1669.80603 C 0 1714.095947 43.519962 1750 97.204742 1750 L 97.204742 1750 Z"/>
    <text id="D81B60" xml:space="preserve" x="806" y="886" font-family="Helvetica Neue" font-size="36" fill="#3f3844">D81B60</text>
    <path id="Path-copy-copy" fill="#000000" stroke="none" opacity="0.2" d="M 1319.30603 371.75 L 874.5 371.75 L 874.5 1378 L 1319.30603 1378 C 1363.536011 1377.855957 1399.355957 1342.036011 1399.5 1297.80603 L 1399.5 451.94397 C 1399.355957 407.713989 1363.536011 371.894043 1319.30603 371.75 Z"/>
    <path id="Path-copy-2-copy" fill="#000000" stroke="none" opacity="0.2" d="M 429.69397 1378 L 874.5 1378 L 874.5 371.75 L 429.69397 371.75 C 385.463989 371.894043 349.643982 407.713989 349.5 451.94397 L 349.5 1297.80603 C 349.643982 1342.036011 385.463989 1377.855957 429.69397 1378 Z"/>
    <path id="path4-copy" fill="#65002c" stroke="none" d="M 473.194 393.75 L 1275.30603 393.75 C 1319.595947 393.75 1355.5 429.654053 1355.5 473.94397 L 1355.5 1276.057007 C 1355.5 1320.347046 1319.595947 1356.250977 1275.30603 1356.250977 L 473.194 1356.250977 C 428.903992 1356.250977 393 1320.347046 393 1276.057007 L 393 473.94397 C 393 429.654053 428.903992 393.75 473.194 393.75 Z"/>
    <g id="Layer1-copy">
        <g id="Group">
            <g id="g1">
                <path id="path4" fill="#fd6550" stroke="none" d="M 1237.1875 647.425049 L 1133.5625 647.425049 C 1133.5625 647.425049 1104.547485 653.642456 1081.75 599.757568 C 1071.387451 570.742432 1058.952515 543.800049 1029.9375 543.800049 L 822.6875 543.800049 C 793.672485 543.800049 781.237488 570.742432 770.875 599.757568 C 750.150024 655.715088 719.0625 647.425049 719.0625 647.425049 L 667.25 647.425049 C 667.25 616.337524 644.452515 605.974976 615.4375 605.974976 L 563.625 605.974976 C 534.609985 605.974976 511.8125 616.337524 511.8125 647.425049 C 482.797516 647.425049 460 678.512451 460 709.599976 L 460 1151.04248 C 460 1182.130005 482.797516 1207 511.8125 1207 L 1237.1875 1207 C 1266.202515 1207 1289 1182.130005 1289 1151.04248 L 1289 709.599976 C 1289 678.512451 1266.202515 647.425049 1237.1875 647.425049 Z"/>
            </g>
            <g id="g2">
                <path id="path5" fill="#77b3d4" stroke="none" d="M 1102.474976 916.849976 C 1102.474976 1019.864868 1018.964905 1103.375 915.950012 1103.375 C 812.93512 1103.375 729.424988 1019.864868 729.424988 916.849976 C 729.424988 813.835083 812.93512 730.325012 915.950012 730.325012 C 1018.964905 730.325012 1102.474976 813.835083 1102.474976 916.849976 Z"/>
            </g>
            <g id="g3" opacity="0.2">
                <g id="g4">
                    <path id="path6" fill="#231f20" stroke="none" d="M 915.950012 1186.275024 C 789.527466 1186.275024 687.974976 1084.722412 687.974976 958.299988 C 687.974976 831.877502 789.527466 730.325012 915.950012 730.325012 C 1042.372437 730.325012 1143.925049 831.877502 1143.925049 958.299988 C 1143.925049 1084.722412 1042.372437 1186.275024 915.950012 1186.275024 Z M 915.950012 813.224976 C 835.122498 813.224976 770.875 877.472473 770.875 958.299988 C 770.875 1039.127441 835.122498 1103.375 915.950012 1103.375 C 996.777527 1103.375 1061.025024 1039.127441 1061.025024 958.299988 C 1061.025024 877.472473 996.777527 813.224976 915.950012 813.224976 Z"/>
                </g>
            </g>
            <g id="g5">
                <path id="path7" fill="#f7e03c" stroke="none" d="M 915.950012 1134.462524 C 795.744995 1134.462524 698.337524 1037.054932 698.337524 916.849976 C 698.337524 796.64502 795.744995 699.237549 915.950012 699.237549 C 1036.155029 699.237549 1133.5625 796.64502 1133.5625 916.849976 C 1133.5625 1037.054932 1036.155029 1134.462524 915.950012 1134.462524 Z M 915.950012 761.412476 C 830.977478 761.412476 760.512512 831.877502 760.512512 916.849976 C 760.512512 1001.822449 830.977478 1072.287476 915.950012 1072.287476 C 1000.922485 1072.287476 1071.387451 1001.822449 1071.387451 916.849976 C 1071.387451 831.877502 1000.922485 761.412476 915.950012 761.412476 Z"/>
            </g>
        </g>
    </g>
</svg>
