<svg xmlns="http://www.w3.org/2000/svg" shape-rendering="geometricPrecision" text-rendering="geometricPrecision" image-rendering="optimizeQuality" fill-rule="evenodd" clip-rule="evenodd" viewBox="0 0 512 512"><path fill="#4D4D4D" fill-rule="nonzero" d="M256 0c70.684 0 134.689 28.664 181.012 74.987C483.336 121.311 512 185.316 512 256c0 70.684-28.664 134.689-74.988 181.013C390.689 483.336 326.684 512 256 512c-70.677 0-134.689-28.664-181.013-74.987C28.664 390.689 0 326.676 0 256c0-70.684 28.664-134.689 74.987-181.013C121.311 28.664 185.316 0 256 0z"/><path fill="#fff" fill-rule="nonzero" d="M256.001 19.597c65.278 0 124.382 26.466 167.162 69.242 42.776 42.78 69.242 101.884 69.242 167.162S465.939 380.384 423.16 423.16c-42.777 42.78-101.881 69.246-167.159 69.246-65.278 0-124.382-26.466-167.162-69.243-42.777-42.779-69.243-101.884-69.243-167.162S46.062 131.619 88.839 88.839c42.78-42.776 101.884-69.242 167.162-69.242z"/><path fill="#4E5B31" fill-rule="nonzero" d="M243.484 396.296a.677.677 0 01-.236-.167l-.086-.08c-.379-.354-.74-.729-1.08-1.121-.909-1.033-2.129-2.545-3.201-3.881-2.127-2.651-3.884-4.934-4.215-5.364l-.541-.705-5.302-1.635-3.871-1.805 2.068-2.325 7.105 3.042 5.302 1.088 9.804 7.211-.007.006c-.02.017-1.426 1.187-2.824 2.458-.623.566-1.409 1.297-1.963 1.9a7.509 7.509 0 00-.635.778 6.139 6.139 0 00-.318.6zm-36.41-10.934a27.058 27.058 0 01-13.581-3.801h-.005v-.005a6.978 6.978 0 011.965-2.116c1.325-.973 3.715-2.135 7.577-2.151h.079c4.574 0 10.171 1.556 16.638 4.623a24.604 24.604 0 01-12.673 3.45l.006.006-.006-.006zm-20.049-4.445a2.895 2.895 0 01-2.164-.909 4.394 4.394 0 01-.969-1.966c-.218-.942-.3-1.912-.24-2.878a2.968 2.968 0 011.067-.242h.076c1.714 0 3.065 1.487 3.644 2.961a2.97 2.97 0 01.187 2.093c-.291.609-.924.98-1.597.936l-.004.005zm35.278-4.088c-11.85-1.692-16.873-5.976-18.999-9.272a10.715 10.715 0 01-1.798-6.799v-.01h.008a7.926 7.926 0 011.815-.2c3.152 0 11.215 1.586 18.977 16.275l.004.01-.013-.007.006.003zm-24.288-2.348c-5.062 0-8.916-.874-11.455-2.594a7.036 7.036 0 01-2.517-2.816 4.602 4.602 0 01-.405-1.381 15.506 15.506 0 015.3-1.127c.262-.012.525-.019.802-.02 3.912 0 9.862 1.276 16.14 7.358l.007.007h-.007a61.511 61.511 0 01-7.871.573h.006zm-24.513-.942c-5.337 0-12.671-1.63-17.245-6.203l-.005-.006h.014a53.542 53.542 0 0110.596-1.407c.334-.009.67-.013 1.007-.013 5.005 0 8.836.97 11.388 2.884a3.375 3.375 0 011.487 1.899 1.559 1.559 0 01-.721 1.468c-1.149.868-3.203 1.331-6.106 1.377l-.41.014-.005-.013zm-17.297-8.875a2.184 2.184 0 01-1.692-.796 4 4 0 01-.757-1.722 9.733 9.733 0 01-.198-2.508v-.012c.26-.12.543-.185.83-.188a2.59 2.59 0 011.768.79c.516.507.91 1.124 1.152 1.806.241.569.285 1.202.122 1.799a1.307 1.307 0 01-1.228.826l.003.005zm39.953-.901a2.893 2.893 0 01-2.163-.91 4.4 4.4 0 01-.971-1.964c-.218-.943-.3-1.913-.24-2.879a2.951 2.951 0 011.067-.241h.076c1.714 0 3.065 1.486 3.644 2.96.315.652.382 1.396.187 2.094-.29.61-.924.98-1.597.935l-.003.005zm-19.461-.805c-10.742-.378-16.314-3.432-19.103-5.928a12.492 12.492 0 01-2.894-3.718 7.948 7.948 0 01-.619-1.664l.014-.006a9.17 9.17 0 012.652-.395h.251c3.623 0 10.998 1.521 19.695 11.709v.006l.004-.004zm11.666-1.085c-8.643-1.316-13.539-5.026-16.125-7.908a16.525 16.525 0 01-3.559-5.965c.874-.2 1.767-.308 2.663-.32.115 0 .235-.005.357-.005s.25 0 .378.005c4.347.095 12.242 2.063 16.284 14.188h.007l-.005.005zm-44.37-4.151a33.671 33.671 0 01-8.164-.977c-4.525-1.132-6.467-2.859-7.298-4.111a4.304 4.304 0 01-.704-1.729 2.901 2.901 0 01-.021-.733l.021-.007a30.883 30.883 0 017.143-.907c.163 0 .328-.004.495-.004a29.88 29.88 0 015.846.567 18.53 18.53 0 0110.958 6.921v.006l-.009.001a33.857 33.857 0 01-8.273.969l.006.004zm20.062-7.29a2.9 2.9 0 01-2.166-.888 4.425 4.425 0 01-.969-1.985 9.834 9.834 0 01-.24-2.857 2.972 2.972 0 011.067-.241h.076c1.711 0 3.064 1.487 3.645 2.961.309.647.368 1.384.166 2.071a1.607 1.607 0 01-1.577.942l-.002-.003zm-15.086-2.069a32.935 32.935 0 01-8.169-3.566c-3.785-2.33-8.414-6.451-8.979-12.854h.01c.288-.061.579-.096.873-.105.068 0 .147-.004.228-.004 1.13 0 3.444.318 6.243 2.447 3.564 2.716 6.854 7.454 9.796 14.095l-.002-.013zm9.85-.361a26.642 26.642 0 01-6.463-4.153 41.469 41.469 0 01-11.411-15.926 5.26 5.26 0 012.495-.49c1.646.046 4.153.731 6.931 3.729 3.192 3.446 6.042 9.106 8.465 16.827l.006.022-.02-.006-.003-.003zm-25.523-.744c-3.291 0-4.417-1.785-4.749-2.553-.33-.8-.46-1.669-.378-2.531v-.013a7.243 7.243 0 011.638-.215h.113a6.77 6.77 0 015.518 2.622c.174.259.708 1.157.267 1.857-.355.553-1.161.833-2.41.833h.001zm-7.29-9.196a43.565 43.565 0 01-7.605-.65c-2.932-.533-4.593-3.025-5.47-5.021a17.448 17.448 0 01-1.229-4.269h.008c9.067.266 13.349 2.915 15.344 5.09a8.003 8.003 0 012.189 4.725h-.006c-.014 0-1.291.123-3.236.123l.005.002zm9.44-9.434c-.012-.015-1.048-1.297-2.07-2.886-1.074-1.669-2.067-3.413-2.067-4.835 0-1.377-.324-4.278-.517-5.884-.244-2.038-.491-3.781-.512-3.93h.009c.23.084 5.671 2.126 5.671 7.23 0 5.104-.503 10.249-.508 10.3v.007h-.007l.001-.002zm-7.051-.484c-.057 0-.114-.006-.17-.015-1.609-.268-4.438-1.498-7.559-3.289-3.469-1.989-6.286-4.12-7.932-6.001-1.502-1.715-2.389-4.408-2.649-8.004a29.793 29.793 0 01.059-4.89c.29-.093.593-.14.898-.136 1.204.019 2.49.561 4.225 1.757a33.977 33.977 0 014.43 3.764 67.753 67.753 0 014.915 5.441l.022.027c.181.324 1.731 3.121 2.94 5.842a18.825 18.825 0 011.381 3.922c.119.397.119.82 0 1.216a.614.614 0 01-.263.306.735.735 0 01-.3.061l.003-.001z"/><path fill="#4E5B31" fill-rule="nonzero" d="M225.6 396.296a.681.681 0 00.237-.167l.085-.08c.38-.354.74-.729 1.08-1.121.909-1.033 2.129-2.545 3.202-3.881 2.126-2.651 3.883-4.934 4.214-5.364l.541-.705 5.302-1.635 3.871-1.805-2.068-2.325-7.105 3.042-5.302 1.088-9.804 7.211.008.006c.019.017 1.426 1.187 2.823 2.458.623.566 1.409 1.297 1.964 1.9.228.245.44.505.635.778.116.194.222.394.317.6zm36.411-10.934a27.06 27.06 0 0013.581-3.801h.004v-.005a6.978 6.978 0 00-1.965-2.116c-1.325-.973-3.714-2.135-7.576-2.151h-.08c-4.574 0-10.171 1.556-16.638 4.623a24.605 24.605 0 0012.674 3.45l-.007.006.007-.006zm20.048-4.445a2.893 2.893 0 002.164-.909 4.394 4.394 0 00.969-1.966 9.98 9.98 0 00.24-2.878 2.968 2.968 0 00-1.066-.242h-.077c-1.714 0-3.065 1.487-3.643 2.961a2.966 2.966 0 00-.188 2.093c.291.609.924.98 1.598.936l.003.005zm-35.278-4.088c11.85-1.692 16.873-5.976 19-9.272 1.347-2 1.98-4.395 1.798-6.799v-.01h-.009a7.914 7.914 0 00-1.815-.2c-3.152 0-11.215 1.586-18.976 16.275l-.005.01.013-.007-.006.003zm24.288-2.348c5.063 0 8.917-.874 11.456-2.594a7.034 7.034 0 002.516-2.816c.207-.436.343-.903.406-1.381a15.516 15.516 0 00-5.301-1.127 18.818 18.818 0 00-.801-.02c-3.913 0-9.863 1.276-16.141 7.358l-.007.007h.008c2.608.359 5.237.551 7.87.573h-.006zm24.513-.942c5.338 0 12.671-1.63 17.245-6.203l.005-.006h-.014a53.532 53.532 0 00-10.596-1.407 37.3 37.3 0 00-1.007-.013c-5.005 0-8.836.97-11.388 2.884a3.374 3.374 0 00-1.486 1.899 1.556 1.556 0 00.72 1.468c1.149.868 3.203 1.331 6.107 1.377l.409.014.005-.013zm17.298-8.875a2.187 2.187 0 001.692-.796 4.01 4.01 0 00.756-1.722 9.779 9.779 0 00.199-2.508v-.012a2.041 2.041 0 00-.831-.188 2.585 2.585 0 00-1.767.79 4.742 4.742 0 00-1.152 1.806 2.746 2.746 0 00-.123 1.799c.199.503.687.831 1.229.826l-.003.005zm-39.954-.901a2.896 2.896 0 002.164-.91 4.399 4.399 0 00.97-1.964 9.99 9.99 0 00.24-2.879 2.946 2.946 0 00-1.066-.241h-.077c-1.714 0-3.065 1.486-3.644 2.96a2.973 2.973 0 00-.187 2.094c.29.61.924.98 1.598.935l.002.005zm19.461-.805c10.743-.378 16.315-3.432 19.103-5.928a12.476 12.476 0 002.894-3.718 7.951 7.951 0 00.62-1.664l-.015-.006a9.164 9.164 0 00-2.652-.395h-.251c-3.622 0-10.997 1.521-19.695 11.709v.006l-.004-.004zm-11.666-1.085c8.643-1.316 13.539-5.026 16.125-7.908a16.525 16.525 0 003.559-5.965c-.874-.2-1.766-.308-2.662-.32-.116 0-.236-.005-.358-.005s-.249 0-.378.005c-4.346.095-12.241 2.063-16.283 14.188h-.007l.004.005zm44.371-4.151a33.671 33.671 0 008.164-.977c4.525-1.132 6.466-2.859 7.298-4.111a4.302 4.302 0 00.703-1.729c.038-.243.046-.488.022-.733l-.022-.007a30.876 30.876 0 00-7.143-.907c-.162 0-.327-.004-.494-.004a29.865 29.865 0 00-5.846.567 18.524 18.524 0 00-10.958 6.921v.006l.008.001c2.708.662 5.487.988 8.274.969l-.006.004zm-20.063-7.29a2.898 2.898 0 002.166-.888 4.425 4.425 0 00.969-1.985c.219-.935.3-1.897.24-2.857a2.967 2.967 0 00-1.066-.241h-.077c-1.711 0-3.064 1.487-3.645 2.961a2.909 2.909 0 00-.166 2.071c.277.613.906.989 1.577.942l.002-.003zm15.086-2.069a32.935 32.935 0 008.169-3.566c3.785-2.33 8.415-6.451 8.979-12.854h-.01a4.922 4.922 0 00-.872-.105c-.069 0-.148-.004-.228-.004-1.131 0-3.445.318-6.244 2.447-3.563 2.716-6.853 7.454-9.796 14.095l.002-.013zm-9.85-.361a26.667 26.667 0 006.464-4.153 41.477 41.477 0 0011.41-15.926 5.25 5.25 0 00-2.179-.496c-.102 0-.208 0-.316.006-1.645.046-4.152.731-6.931 3.729-3.192 3.446-6.041 9.106-8.465 16.827l-.006.022.02-.006.003-.003zm25.523-.744c3.291 0 4.417-1.785 4.749-2.553.331-.8.46-1.669.378-2.531v-.013a7.243 7.243 0 00-1.638-.215h-.113a6.771 6.771 0 00-5.518 2.622c-.174.259-.708 1.157-.266 1.857.355.553 1.16.833 2.41.833h-.002zm7.291-9.196a43.553 43.553 0 007.604-.65c2.932-.533 4.593-3.025 5.471-5.021a17.49 17.49 0 001.228-4.269h-.008c-9.067.266-13.349 2.915-15.344 5.09a7.996 7.996 0 00-2.188 4.725h.006c.014 0 1.29.123 3.235.123l-.004.002zm-9.441-9.434c.012-.015 1.048-1.297 2.07-2.886 1.074-1.669 2.068-3.413 2.068-4.835 0-1.377.323-4.278.516-5.884.244-2.038.492-3.781.512-3.93h-.009c-.23.084-5.671 2.126-5.671 7.23 0 5.104.504 10.249.508 10.3v.007h.007l-.001-.002zm7.051-.484c.058 0 .114-.006.171-.015 1.608-.268 4.437-1.498 7.558-3.289 3.47-1.989 6.287-4.12 7.933-6.001 1.501-1.715 2.389-4.408 2.648-8.004a29.793 29.793 0 00-.059-4.89 2.82 2.82 0 00-.898-.136c-1.204.019-2.489.561-4.225 1.757a33.977 33.977 0 00-4.43 3.764 67.552 67.552 0 00-4.914 5.441l-.022.027c-.181.324-1.732 3.121-2.94 5.842a18.77 18.77 0 00-1.382 3.922c-.119.397-.119.82 0 1.216.05.128.143.236.263.306a.739.739 0 00.3.061l-.003-.001z"/><path fill="#D57800" fill-rule="nonzero" d="M423.718 121.355l-1.608.64-.63.252-1.948-.108-1.825.876-3.235 2.211-.143.103-1.206.314-1.12-.483-.637.29-.218 1.31-.606.942-.745.523-2.583.264-2.177 1.123-2.833-.758-1.316.515-2.799 2.521-1.43.676-.5-.028-1.896-.097-.801.261-1.196 1.156-2.263.176-.705.488-1.104 2.226-1.197 1.234-.682.145-.743-.273-.557.098-.253 1.424-.541.596-1.515.522-1.21 1.008-1.062.546-1.423-.035h-.327l-1.417.782-2.663.234-1.108 1.057-.245.226-.517.312-.847.506-.204.125-1.024-.182-1.195.473-.483-.743-.827.496-1.092.048-1.365-.607-1.039-.463-.76.11-.264 1.324-.027.141-.798 1.063-1.491.903-.205.264-1.697 2.19-3.223 3.389-2.726 1.385-2.825.859-1.98 1.625-5.188 2.571-8.187 4.077-1.674.536-2.403.384-4.286 1.578-3.78 1.141-.211.064-.751.227-5.331 1.613-2.481-.263-1.47.534-3.826-.424-2.662.052-1.684.35-3.165 1.518-5.344 2.569-1.765 1.615-2.748 1.433-3.219 1.019.007-1.352-.019-.057-1.117.353-.806.254-2.611.403h-1.452l-.902-.262-.136.047-5.337 1.754-5.952.575-2.978.955-2.225-.035-1.392.413-2.73.334-.975-.26-.22-.06-8.021.348-3.666-.414-1.751.398-2.935-.987-4.279-.497-1-.299-2.253-.668-1.018.586-.762.082-1.82-.661-.655-.016-1.502.546-.865-.222-.803-.64-1.885-.281-1.148-.965-6.417.851-1.741-.512-5.839-1.701-.929.047-1.161.868-1.739.634-1.51.392-2.056.069-2.389-.627-2.462-1.193-.91-.217-2.03.205-.621.056-3.731-2.002-4.807-3.003-3.262-1.57-1.225-.199-.164.583.607 1.911.205 1.894-.062 1.749-.034 1.083.305.973 1.177 1.305.491 1.311.359 3.607-.004 3.66-.573 5.837-.193.888-.683 3.024-.623 2.777-2.421 7.395-.665.917-1.632 1.113-3.699 2.518-2.724 1.57-.862.357-2.211.167-1.378-.069-1.715-.929-1.684-.433-2.206-1.586-2.457-.508-2.691-1.555-.7-.842-1.465-.136-2.031-.61v-.003l-.747-.223-.515-.151-2.594-.068-2.416-1.116-1.273-.307-1.738-.088-1.82.846-.923.429-1.165-.462-.843.052-.956 1.444-.117.22-.658.348-.819-.011-.641-.017-.693.303-.934.405-.825.359-.403.175-.006-.007-.248.05-.44.076-.546.104-.963-.562-.512-.302-.858-.174-.462.334-.091 1.57-.422.94-1.338 1.184-1.361 1.198-.948 1.397-2.509 5.728-1.57 2.31-.488.539-1.651 1.816-1.458 1.131-3.36 2.604-3.18 1.188-2.74.56-1.332.006-2.525-.336-2.269-.697-2.491-1.557-2.73-2.197-3.956-3.907-.559-.336-.117-.078-1.246-.797-.924.024-.362.597-.198.862-.167.764-.453 4.346.033.252.238 1.79 3.004 4.198.927 2.23.152.255.62 1.041.472.794.047.08 1.024 3.064-.722 1.73.365 1.16-.912.708-.168 1 2.698 3.381.588 1.492-.657 2.067-1.049 1.141-.293.312.148.874 1.241 1.116 2.109 1.877 1.124 2.789.855.751.994-.211.553.421.838-.014.825.824.534.259.843.421.667.868.148 2.67 1.243 3.318.02 1.798.006.256.774 1.329.243 1.05-.409 2.778.986.891 1.07-.218.69.109 1.111.924 1.344 2.048 1.314-.193.835.403 4.027 3.64.914.462.051.029.657.329.819.825 1.267-.841.141-.014 1.377-.122.605.41 1.16.784 1.525-.02 3.307 1.014 1.447.371 2.908 1.807 1.237.765.731.594.972.793 1.942.835 1.666.399.902.214.683.263.017-.043h.009l-.017.043 3.608 1.381 1.953.456 1.808.666 1.315.478.965.015 1.366-1.147 1.322-.077 1.098.273 1.072-.179 1.696-1.046.331-.49 1.203-.573 4.058-.504 1.185.385 3.045-1.324 2.04.567 1.805-.64 3.945.876 1.048.738 1.172 1.341.144.006 1.305.026-.546.908 1.722 1.807 1.556 2.352.104.31 1.132 3.321.841 1.176.588 1.642.029 1.07-.915.698-.15.398-.052.147.186.447.345-.188.658-.364.8-.125 1.41.15.931.098 1.47-.729.975-.485 1.565.673 1.72-.019.723.322 2.047.927 1.044.098.386-.253.246-.585-.126-.682-.787-.9-1.728-2.006-.707-1.03-.538-1.493-.167-1.908-.119-1.287.215-1.691.464-.603.341-1.344h.006l.089-.352.959-1.273 2.542-1.634 2.731-2.445 2.158-1.423 2.225-.964.059-.273.248.1 5.661-1.925.093-.011 2.52-.438 17.011 1.197.63-.19v-.004l.567-1.591.305-.295.205-.192 1.871-.823.874-.125 2.427.599.994.245 1.592-.892 1.129.019 2.333-1.274 1.441.037.546-.22 2.807-2.017 2.704-.774.703-.374.247-.137 2.772-1.464 1.76-1.352 1.52-.807 1.664-.429 4.355-.307.876-1.46 1.873-.249 1.131-1.277 1.297-.526.928-1.337.778-1.12 1.086-.629 3.481-.218 4.127.511.546-.331.932-3.328.976-.624 2.629-3.831.009-1.396v-1.166l.432-1.66-.293-2.998.348-3.035 1.634-3.856 1.44-1.556 2.321-1.57 1.18-.514 1.672-.281v.001l.245-.042.426-.073 5.757-.079c.08-.059 2.094-.028 2.094-.028l1.919-.027 4.858.863.345.06 1.638.532 1.894 1.472 2.006 1.958.376.366 1.296.546.393.171 1.072-.171 1.528-.795 1.152-.974 1.57-.858.038-.055.884-1.33.026-.027.02.005v-.008h-.015l.349-.529 3.035-1.183 3.57-.205.402-.217.223-.119.943-1.108.884-.007 2.14.774 1.502-.299 1.195.478.928-.11 1.751-.205 1.88 1.322 1.096.137 3.862 2.259.201.033.103.019.221.037.459-.136.682-.198.09-.026.086.119.439.619.602.086.713-.951-.283-.431-.108-.157-1.379-.281-1.239-2.116 1.179-1.27-1.85-2.27-.307-.377-.105-.159-.64-.972-3.239-4.938-4.22-3.369-1.478-1.183-.009-.006-.518-.41-2.253-2.293-1.609-2.136-.211-.46-.333-.725-.965-2.101-1.68-1.297-1.37-1.496-.068-.087-2.826-3.841-.464-.643-.668-.386-1.41-.01-.137-.136-.079-.083.048-.05.676-.673.755-.19.325-.743-1.439-4.164-.01-.146-.107-1.33 1.173-6.045.15-.737 1.999-4.067 1.238-1.014 1.352-2.657 1.16-1.699 1.109-1.079.194-.115 2.003-1.212 1.683-.237 1.602-.226 2.799.862 2.662-.052.52-.055 1.208-.136 1.987-.626.938-.579.486-.746 1.016-3.405.326-1.083.626-1.177 3.622-4.169 2.737-2.533 6.157-4.514 3.014-1.801 1.539-.92 13.738-6.106 3.57-3.618 1.86-1.883 3.291-2.208 3.851-1.578 3.313-2.622.724-.911.912-2.935.76-.184.683-1.484.195-.422 2.704-1.906.305-.152 10.504-5.263 1.527.209.819-1.223 3.056-.513.562-.095.751-.376.641-1.093v-.215l.088-2.917.652-.789.356-1.922.335-.444.35-.461.866-.608-.15-.363.023.022z"/></svg>