<svg xmlns="http://www.w3.org/2000/svg" shape-rendering="geometricPrecision" text-rendering="geometricPrecision" image-rendering="optimizeQuality" fill-rule="evenodd" clip-rule="evenodd" viewBox="0 0 512 512.001"><g fill-rule="nonzero"><path fill="#4D4D4D" d="M256 0c70.684 0 134.69 28.664 181.013 74.987 46.324 46.324 74.988 110.33 74.988 181.013 0 70.684-28.664 134.69-74.988 181.013C390.69 483.337 326.684 512.001 256 512.001c-70.676 0-134.689-28.664-181.013-74.988C28.664 390.69 0 326.677 0 256c0-70.683 28.664-134.689 74.987-181.013C121.311 28.664 185.316 0 256 0z"/><path fill="#fff" d="M256.002 19.597c65.277 0 124.382 26.466 167.162 69.242 42.776 42.78 69.243 101.885 69.243 167.163s-26.467 124.382-69.246 167.159c-42.777 42.78-101.882 69.246-167.159 69.246-65.278 0-124.383-26.466-167.163-69.243-42.776-42.78-69.243-101.884-69.243-167.162S46.063 131.619 88.839 88.839c42.78-42.776 101.885-69.242 167.163-69.242z"/><path fill="#DA2031" d="M256.002 39.594c119.517 0 216.407 96.887 216.407 216.408 0 119.517-96.89 216.407-216.407 216.407-119.521 0-216.408-96.89-216.408-216.407 0-119.521 96.887-216.408 216.408-216.408z"/><path fill="#0066B2" d="M331.453 53.121v405.761c-23.494 8.741-48.915 13.527-75.451 13.527-26.531 0-51.941-4.783-75.428-13.518V53.113c23.487-8.736 48.897-13.519 75.428-13.519 26.536 0 51.957 4.786 75.451 13.527z"/><path fill="#FFD300" d="M125.88 209.733l-.003-.36c-3.498 7.982-11.469 13.562-20.742 13.562-9.276 0-17.247-5.58-20.742-13.568l-.003.366c0 11.457 9.288 20.745 20.745 20.745 11.46 0 20.745-9.288 20.745-20.745z"/><path fill="#FFD300" d="M120.223 204.073c0-8.33-6.754-15.088-15.088-15.088-8.331 0-15.088 6.758-15.088 15.088 0 8.334 6.757 15.089 15.088 15.089 8.334 0 15.088-6.755 15.088-15.089zM86.277 313.459h37.719l-18.861 11.319zM86.277 302.144h37.719v7.545H86.277zM86.277 249.339h37.719v7.542H86.277zM86.277 234.25h37.719l-18.861 11.316zM127.769 234.25h18.859v90.528h-18.859zM63.643 234.25h18.861v90.528H63.643zM106.72 155.038c-1.874.854-2.574 2.385-2.724 3.912-.095 1.287.472 2.736.528 3.994 0 2.164-2.238 2.876-2.238 5.967 0 1.062.98 2.231.98 4.989-.171 1.446-.977 1.771-1.886 1.886a1.888 1.888 0 01-1.887-1.886c.003-.485.189-.948.523-1.299.062-.065.124-.13.195-.189.428-.434 1.018-.6 1.015-1.745 0-.59-.381-1.125-.746-2.167-.343-1.012-.095-2.701.723-3.699-1.32.511-2.135 1.774-2.548 2.911-.44 1.396-.056 2.199-.655 3.359-.369.75-.803 1.063-1.216 1.689-.488.682-1.063 2.279-1.063 3.02 0 5.208 4.224 9.429 9.432 9.429 5.204 0 9.429-4.221 9.429-9.429 0-.741-.567-2.338-1.054-3.02-.413-.626-.856-.939-1.222-1.689-.594-1.16-.213-1.963-.65-3.359-.416-1.137-1.228-2.4-2.55-2.911.817.998 1.068 2.687.723 3.699-.366 1.042-.75 1.577-.75 2.164 0 1.145.587 1.314 1.019 1.748.067.059.129.124.189.189a1.883 1.883 0 01-1.361 3.185c-1.045-.133-1.792-.62-1.887-1.886 0-3.631 1.553-3.865 1.553-6.551 0-3.835-3.439-5.654-3.439-8.455 0-.954.221-2.572 1.567-3.859v.003zM123.996 279.512c0-7.176-4.009-13.414-9.904-16.602a11.089 11.089 0 012.173 6.607c0 6.143-4.987 11.126-11.13 11.126-4.892 0-8.862 3.971-8.862 8.866 0 4.894 3.97 8.865 8.862 8.865 10.415 0 18.861-8.446 18.861-18.862zm-18.861-18.858c-10.415 0-18.858 8.444-18.858 18.858 0 7.174 4.006 13.415 9.904 16.604a11.098 11.098 0 01-2.173-6.607c0-6.144 4.984-11.13 11.127-11.13 4.895 0 8.865-3.968 8.865-8.862 0-4.895-3.97-8.863-8.865-8.863z"/><path fill="#DA2032" d="M108.908 269.517a3.771 3.771 0 10-7.543.003 3.771 3.771 0 007.543-.003zM108.908 289.509a3.773 3.773 0 10-7.545 0 3.773 3.773 0 007.545 0z"/></g></svg>