<svg xmlns="http://www.w3.org/2000/svg" shape-rendering="geometricPrecision" text-rendering="geometricPrecision" image-rendering="optimizeQuality" fill-rule="evenodd" clip-rule="evenodd" viewBox="0 0 512 512"><g fill-rule="nonzero"><path fill="#4D4D4D" d="M256 0c70.684 0 134.689 28.664 181.013 74.987C483.336 121.311 512 185.316 512 256c0 70.684-28.664 134.69-74.987 181.013C390.689 483.337 326.684 512 256 512c-70.677 0-134.69-28.663-181.013-74.987C28.663 390.69 0 326.676 0 256c0-70.684 28.663-134.689 74.987-181.013C121.31 28.664 185.316 0 256 0z"/><path fill="#fff" d="M256.001 19.596c65.278 0 124.383 26.466 167.162 69.243 42.777 42.779 69.243 101.884 69.243 167.162s-26.466 124.383-69.246 167.16c-42.776 42.779-101.881 69.245-167.159 69.245-65.278 0-124.383-26.466-167.162-69.242-42.777-42.78-69.243-101.885-69.243-167.163S46.062 131.618 88.839 88.839c42.779-42.777 101.884-69.243 167.162-69.243z"/><path fill="#003897" d="M256.001 39.594c119.518 0 216.407 96.887 216.407 216.407 0 119.518-96.889 216.407-216.407 216.407-119.521 0-216.407-96.889-216.407-216.407 0-119.52 96.886-216.407 216.407-216.407z"/><path fill="#D72828" d="M256.001 231.835z"/><path fill="#fff" d="M132.439 78.329v128.72H45.156c-3.64 15.729-5.562 32.116-5.562 48.952a216.91 216.91 0 005.866 50.202h86.979v127.47c28.739 20.028 62.568 33.247 99.157 37.36v-164.83h234.946a216.91 216.91 0 005.866-50.202c0-16.836-1.925-33.223-5.562-48.952h-235.25V40.97c-36.589 4.109-70.415 17.335-99.157 37.359z"/><path fill="#D72828" d="M40.943 231.835h116.285V63.4a214.877 214.877 0 0149.578-18.185v186.62h264.253a218.395 218.395 0 011.349 24.166c0 8.6-.52 17.076-1.494 25.413H206.806v185.373a215.02 215.02 0 01-49.578-18.187V281.414H41.088a218.652 218.652 0 01-1.494-25.413c0-8.171.466-16.231 1.349-24.166z"/></g></svg>