<svg xmlns="http://www.w3.org/2000/svg" shape-rendering="geometricPrecision" text-rendering="geometricPrecision" image-rendering="optimizeQuality" fill-rule="evenodd" clip-rule="evenodd" viewBox="0 0 512 512"><g fill-rule="nonzero"><path fill="#4D4D4D" d="M256 0c70.684 0 134.689 28.664 181.012 74.987C483.336 121.311 512 185.316 512 256c0 70.684-28.664 134.689-74.988 181.013C390.689 483.336 326.684 512 256 512c-70.676 0-134.689-28.664-181.013-74.987C28.664 390.689 0 326.676 0 256c0-70.684 28.664-134.689 74.987-181.013C121.311 28.664 185.316 0 256 0z"/><path fill="#fff" d="M256.001 19.597c65.278 0 124.383 26.466 167.162 69.242 42.777 42.78 69.242 101.884 69.242 167.162S465.94 380.384 423.16 423.16c-42.776 42.78-101.881 69.246-167.159 69.246-65.278 0-124.382-26.466-167.162-69.243-42.776-42.779-69.242-101.884-69.242-167.162S46.063 131.619 88.839 88.839c42.78-42.776 101.884-69.242 167.162-69.242z"/><path fill="#002395" d="M256.001 39.595c119.517 0 216.407 96.886 216.407 216.406 0 119.518-96.89 216.407-216.407 216.407-119.52 0-216.406-96.889-216.406-216.407 0-119.52 96.886-216.406 216.406-216.406z"/><path fill="#FECB00" d="M431.984 130.039V381.96a217.647 217.647 0 01-51.163 50.839L79.209 131.173c39.19-55.403 103.762-91.578 176.792-91.578 72.528 0 136.717 35.679 175.983 90.444z"/><path fill="#fff" d="M354.729 448.623a215.818 215.818 0 01-9.809 4.729l5.671-17.453 4.138 12.724zm-44.556 16.948l-.334.083-.115-.083h.449zM47.524 197.788a215.25 215.25 0 014.72-14.829h56.602l-66.14 48.044 25.27-77.719 25.274 77.719-45.726-33.215zm221.289 259.325l25.25-77.721 25.274 77.721-66.14-48.046h81.735l-66.119 48.046zm-56.527-56.528l25.273-77.721 25.25 77.721-66.14-48.046h81.756l-66.139 48.046zm-56.528-56.527l25.274-77.718 25.273 77.718-66.143-48.046h81.736l-66.14 48.046zM99.231 287.53l25.273-77.718 25.273 77.718-66.14-48.046h81.736L99.231 287.53z"/></g></svg>