<?xml version="1.0" encoding="UTF-8"?>
<!-- Generated by Pixelmator Pro 3.1.1 -->
<svg width="512" height="420" viewBox="0 0 512 420" xmlns="http://www.w3.org/2000/svg" xmlns:xlink="http://www.w3.org/1999/xlink">
    <path id="Path" fill="#000000" fill-rule="evenodd" stroke="none" d="M 74.320313 420 C 33.440353 420 0 386.519684 0 345.679688 L 0 74.150391 C 0 33.240417 33.410355 -0.169922 74.320313 -0.169922 L 437.679688 -0.169922 C 478.549652 -0.169922 512 33.290436 512 74.150391 L 512 345.679688 C 512 386.499664 478.499664 420 437.679688 420 L 74.320313 420 Z M 123.867188 272 L 187.986328 272 C 213.787094 272 231.497192 266.503784 241.115234 255.511719 C 250.733261 244.519684 255.542969 226.161926 255.542969 200.4375 C 255.542969 174.713074 250.733261 156.355316 241.115234 145.363281 C 231.497192 134.371216 213.787094 128.875 187.986328 128.875 L 123.867188 128.875 L 123.867188 272 Z M 257.373047 272 L 305.693359 272 L 310.960938 249.328125 L 348.744141 249.328125 L 354.011719 272 L 402.330078 272 L 365.232422 128.875 L 294.472656 128.875 L 257.373047 272 Z M 169.667969 235.359375 L 169.667969 165.515625 L 188.673828 165.515625 C 194.933197 165.515625 199.474487 166.241058 202.298828 167.691406 C 205.123169 169.141739 206.535156 172.461655 206.535156 177.652344 L 206.535156 223.222656 C 206.535156 228.413345 205.123169 231.733261 202.298828 233.183594 C 199.474487 234.633942 194.933197 235.359375 188.673828 235.359375 L 169.667969 235.359375 Z M 319.203125 212.917969 L 328.59375 172.84375 L 331.111328 172.84375 L 340.271484 212.917969 L 319.203125 212.917969 Z"/>
</svg>
