<svg xmlns="http://www.w3.org/2000/svg" shape-rendering="geometricPrecision" text-rendering="geometricPrecision" image-rendering="optimizeQuality" fill-rule="evenodd" clip-rule="evenodd" viewBox="0 0 512 512"><g fill-rule="nonzero"><path fill="#999" d="M256 0c70.68 0 134.69 28.66 181.01 74.99C483.34 121.31 512 185.32 512 256c0 70.68-28.66 134.69-74.99 181.01C390.69 483.34 326.68 512 256 512c-70.68 0-134.69-28.66-181.01-74.99C28.66 390.69 0 326.68 0 256c0-70.68 28.66-134.69 74.99-181.01C121.31 28.66 185.32 0 256 0z"/><path fill="#fff" d="M256 19.48c65.3 0 124.46 26.48 167.25 69.27l1.09 1.18c42.14 42.71 68.18 101.37 68.18 166.06 0 65.31-26.5 124.46-69.29 167.25l-1.18 1.09c-42.73 42.16-101.4 68.19-166.05 68.19-65.23 0-124.37-26.51-167.18-69.33-42.84-42.74-69.33-101.89-69.33-167.2 0-65.31 26.48-124.45 69.27-167.24C131.55 45.96 190.7 19.48 256 19.48z"/><path fill="#21468B" d="M458.71 331.9C427.95 413.98 348.82 472.41 256 472.41c-92.91 0-171.96-58.42-202.7-140.51h405.41z"/><path fill="#AE1C28" d="M51.84 184.11h408.33C430.52 99.94 350.32 39.59 256 39.59S81.49 99.94 51.84 184.11z"/></g></svg>