<svg xmlns="http://www.w3.org/2000/svg" shape-rendering="geometricPrecision" text-rendering="geometricPrecision" image-rendering="optimizeQuality" fill-rule="evenodd" clip-rule="evenodd" viewBox="0 0 512 512.001"><path fill="#4D4D4D" fill-rule="nonzero" d="M256 0c70.684 0 134.69 28.664 181.013 74.987 46.324 46.324 74.988 110.33 74.988 181.013 0 70.684-28.664 134.69-74.988 181.013C390.69 483.337 326.684 512.001 256 512.001c-70.676 0-134.689-28.664-181.013-74.988C28.664 390.69 0 326.677 0 256c0-70.683 28.664-134.689 74.987-181.013C121.311 28.664 185.317 0 256 0z"/><path fill="#fff" fill-rule="nonzero" d="M256.002 19.597c65.277 0 124.382 26.466 167.162 69.242 42.776 42.78 69.243 101.885 69.243 167.163s-26.467 124.382-69.246 167.159c-42.777 42.78-101.882 69.246-167.159 69.246-65.278 0-124.383-26.466-167.163-69.243-42.776-42.78-69.242-101.884-69.242-167.162S46.063 131.619 88.839 88.839c42.78-42.776 101.885-69.242 167.163-69.242z"/><path fill="#CE1720" fill-rule="nonzero" d="M256.002 39.594c119.517 0 216.407 96.887 216.407 216.408 0 119.517-96.89 216.407-216.407 216.407-119.521 0-216.407-96.89-216.407-216.407 0-119.521 96.886-216.408 216.407-216.408z"/><path fill="#007C30" fill-rule="nonzero" d="M136.33 328.524h323.612c-29.82 83.847-109.862 143.885-203.94 143.885-44.253 0-85.391-13.294-119.672-36.087V328.524z"/><path fill="#fff" fill-rule="nonzero" d="M136.254 436.271V75.732c-58.264 38.779-96.659 105.034-96.659 180.27 0 75.235 38.395 141.49 96.659 180.269z"/><path fill="#C00" fill-rule="nonzero" d="M70.02 366.687h2.889v-7.225h4.255v-7.223h4.251v-6.864h4.251v-7.224h4.251v7.224h4.254v6.864h4.251v7.223h4.251v7.225h4.251v7.223h3.826v7.222h4.254v-7.222h4.251v-7.223h4.251v-7.225h4.251v-7.223h4.254v-6.864h4.243V330.93h-4.252v-7.224h-4.251v-7.223H123.5v-7.225h-4.254v7.225h-4.251v7.223h-4.251v7.224h8.502v7.221h-12.328v-7.221h-4.251v-7.224h-4.254v-7.223h4.254v-7.225h4.251v-6.864h3.826v-7.215h4.251v-7.223h4.251v-7.224h4.254v7.224h4.251v7.223h4.251v7.222h4.252v-21.669h-4.252v-6.864h-4.251v-7.215H123.5v-7.224h-4.254v-7.218h4.254v-7.224h4.251v-7.221h4.251v-6.861h4.252v-21.668h-4.252v7.221h-4.251v7.224H123.5v7.223h-4.254v-7.223h-4.251v-7.224h-4.251v-7.221h-3.826v-6.864h-4.251v-7.221h-4.254v-7.224h4.254v-7.221h4.251v-7.224h12.328v7.224h-8.502v7.221h4.251v7.224h4.251v7.221h4.254v-7.221h4.251v-7.224h4.251v-7.221h4.252v-14.444h-4.252v-6.864h-4.251v-7.222H123.5v-7.223h-4.254v-7.224h-4.251v-7.221h-4.251v7.221h-3.826v7.224h-4.251v7.223h-4.254v7.222h-4.251v6.864h-4.251v7.22h-4.254v-7.22h-4.248v-6.864h-4.254v-7.222h-4.251v-7.223h-2.672a215.317 215.317 0 00-21.949 50.198h3.791v7.221h4.25v-7.221h3.826v-7.224h4.252v-7.221h-8.078v-7.224h12.329v7.224h4.254v7.221h4.251v7.224h-4.251v7.221h-4.254v6.864h-4.251v7.221H60.15v7.224h-3.826v7.223h-4.25v-7.223h-4.255v-7.224h-4.251v-1.866a216.537 216.537 0 00-2.518 16.313h2.518v6.861h4.251v7.221h4.255v7.224h4.25v7.221h-4.25v7.224h-4.255v7.227h-4.251V280.743h-2.556c.64 5.624 1.493 11.18 2.556 16.666v-2.218h4.251v-7.224h4.255v-7.224h4.25v7.224h3.826v7.224h4.252v7.222h4.251V309.276h4.254v7.221h4.251v7.224h-4.251v7.227h-4.254v7.221H56.324v-7.221h8.078v-7.227H60.15v-7.224h-3.826v-7.221h-4.25v7.221h-3.897a215.154 215.154 0 0021.843 50.19zm61.98 57.05h4.254v-6.864H132v6.864zm-47.494-35.754l1.157 1.509v-1.509h-1.157zm-5.093-6.861l1.998 2.749v-2.749h-1.998zm-4.897-7.22l2.645 3.97v-3.97h-2.645zm.236-236.16h2.409V134.128c-.815 1.196-1.618 2.4-2.409 3.614zm4.918-7.225h1.741v-2.387c-.584.794-1.168 1.585-1.741 2.387zm5.113-6.86h.88v-1.148l-.88 1.148zm.88 250.245h4.251v-14.448h-4.251v14.448zm0-236.163v14.445h4.251v-14.445h-4.251zm42.957 293.21l3.382 2.421v-2.421h-3.382zm-21.705-18.091l20.833 17.456v-6.589h-4.25v-6.864h-4.252v-7.224h-4.251v-7.221h-4.254v7.221h-3.826v3.221zm-16.594-17.65h3.844v4.445c.827.933 1.665 1.86 2.506 2.778h1.745v1.875a226.156 226.156 0 004.251 4.398v-6.273h4.254v-7.223h3.826v-7.225h-3.826v-6.861h-4.254v-7.22h-4.251v7.22h-4.251v6.861h-4.251v6.743l.407.482zm8.095 0v-7.225h4.251v7.225h-4.251zm-8.502-271.551h4.251V130.517h4.251v7.225h4.251v-7.225h4.254V123.657h3.826v-7.221h-3.826v-7.224h-4.254v-5.916a212.512 212.512 0 00-4.251 4.402v1.514h-1.411a234.854 234.854 0 00-2.84 3.138v4.086h-3.54l-.711.841v6.38zm8.502 0v-7.221h4.251v7.221h-4.251zm8.505-24.518v2.855h3.826v7.221h4.251v-7.221h4.251V94.77h4.251V87.91h4.255v-6.223a217.631 217.631 0 00-20.834 17.452zm22.206-18.454h2.879v-2.054c-.966.676-1.925 1.364-2.879 2.054zm-27.31 178.747h4.251v-7.221h-4.251v7.221zm-32.311 0h4.251v-7.221h-4.251v7.221zm11.905 21.305v-6.86h4.252v-7.224h4.251v7.224h4.254v6.864h4.251V266.653h-4.251v-7.224h-4.254v-7.218h4.254v-7.224h4.251v-14.085h-4.251v6.864h-4.254v7.221h-4.251v-7.221h-4.252v-6.864h-4.25v14.085h4.25v7.224h4.252v7.221h-4.252v7.224h-4.25v14.081h4.25zm4.252 14.446h4.251v-7.227h-4.251v7.227zm0-71.501h4.251v-7.222h-4.251v7.222zm29.332 171.526h4.251v7.223h4.252v7.224h4.25v-7.224h4.254v-7.223h4.252v-7.225H132v-6.861h-4.252v-7.22h-4.25v7.22h-4.252v6.861h-4.253l.002 7.225zm8.503 0v-7.225h4.25v7.225h-4.25zm-8.503-278.772v7.221h4.251V130.517h4.252v7.225h4.253v-7.225h4.251V123.657h4.252v-7.221H132v-7.224h-4.252v-7.224h-4.25v7.224h-4.252v7.224h-4.251zm8.503 7.221v-7.221h4.25v7.221h-4.25zM132 366.68h4.254v-7.223H132v7.223zm0-50.192h4.254v-7.223H132v7.223zm0-114.109h4.254v-7.224H132v7.224zm0-50.195h4.254v-7.221H132v7.221zm0-57.414h4.254V87.91H132V94.77zM64.404 237.763h4.251v-6.861h4.254v-7.22h4.252v-7.224h4.25v-7.221h4.252v-6.864h4.251v6.864h4.254v7.221h4.251v7.224h4.251v7.22h4.254v6.861h3.826v36.117h-3.826v6.863h-4.254v7.224h-4.251v7.224h-4.251v7.222h-4.254V309.276h-4.251V302.413h-4.252v-7.222h-4.25v-7.224h-4.252v-7.224h-4.254v-6.863l-4.251-.003v-36.114z"/></svg>